<svg width="64" height="64" viewBox="0 0 64 64" fill="none" xmlns="http://www.w3.org/2000/svg">
<mask id="mask0_2219_4985" style="mask-type:alpha" maskUnits="userSpaceOnUse" x="0" y="0" width="64" height="64">
<rect width="64" height="64" fill="#D9D9D9"/>
</mask>
<g mask="url(#mask0_2219_4985)">
<path d="M12.9333 49.5332C15.4222 47.1332 18.2755 45.2221 21.4931 43.7999C24.7107 42.3777 28.2107 41.6666 31.9931 41.6666C35.7755 41.6666 39.2778 42.3777 42.5 43.7999C45.7222 45.2221 48.5778 47.1332 51.0667 49.5332V15.0666C51.0667 14.5332 50.8445 14.0443 50.4 13.5999C49.9556 13.1554 49.4667 12.9332 48.9333 12.9332H15.0667C14.5333 12.9332 14.0445 13.1554 13.6 13.5999C13.1556 14.0443 12.9333 14.5332 12.9333 15.0666V49.5332ZM32.0333 35.3332C34.1445 35.3332 35.9333 34.5999 37.4 33.1332C38.8667 31.6666 39.6 29.8777 39.6 27.7666C39.6 25.6554 38.8667 23.8666 37.4 22.3999C35.9333 20.9332 34.1445 20.1999 32.0333 20.1999C29.9222 20.1999 28.1333 20.9332 26.6667 22.3999C25.2 23.8666 24.4667 25.6554 24.4667 27.7666C24.4667 29.8777 25.2 31.6666 26.6667 33.1332C28.1333 34.5999 29.9222 35.3332 32.0333 35.3332ZM15.0667 52.5332C14.0545 52.5332 13.2014 52.1863 12.5075 51.4924C11.8136 50.7985 11.4667 49.9454 11.4667 48.9332V15.0666C11.4667 14.0543 11.8136 13.2013 12.5075 12.5074C13.2014 11.8135 14.0545 11.4666 15.0667 11.4666H48.9333C49.9456 11.4666 50.7986 11.8135 51.4925 12.5074C52.1864 13.2013 52.5333 14.0543 52.5333 15.0666V48.9332C52.5333 49.9454 52.1864 50.7985 51.4925 51.4924C50.7986 52.1863 49.9456 52.5332 48.9333 52.5332H15.0667ZM13.9333 51.0666H50.1333V50.6666C47.4667 48.1332 44.5983 46.2443 41.5283 44.9999C38.4582 43.7554 35.2821 43.1332 32 43.1332C28.7556 43.1332 25.6 43.7443 22.5333 44.9666C19.4667 46.1888 16.6 48.0443 13.9333 50.5332V51.0666ZM32.0667 33.8666C30.3556 33.8666 28.9056 33.2721 27.7167 32.0832C26.5278 30.8943 25.9333 29.4554 25.9333 27.7666C25.9333 26.0777 26.5278 24.6388 27.7167 23.4499C28.9056 22.261 30.3445 21.6666 32.0333 21.6666C33.7222 21.6666 35.1611 22.2656 36.35 23.4638C37.5389 24.6619 38.1333 26.0851 38.1333 27.7332C38.1333 29.4443 37.5343 30.8943 36.3361 32.0832C35.138 33.2721 33.7148 33.8666 32.0667 33.8666Z" fill="#FF895D"/>
</g>
</svg>
