<svg width="11" height="19" viewBox="0 0 11 19" fill="none" xmlns="http://www.w3.org/2000/svg">
<path d="M0.910549 18.6687C0.71041 18.4458 0.607493 18.1943 0.601799 17.9145C0.596104 17.6345 0.699021 17.3888 0.910549 17.1773L8.10501 9.98283L0.893465 2.76058C0.693327 2.56755 0.596104 2.32076 0.601799 2.0202C0.607493 1.71965 0.71041 1.4693 0.910549 1.26916C1.13347 1.04624 1.38204 0.937634 1.65626 0.943328C1.93045 0.949022 2.17333 1.05763 2.38488 1.26916L10.1744 9.06937C10.3119 9.20684 10.4116 9.34894 10.4735 9.49566C10.5355 9.64238 10.5665 9.80477 10.5665 9.98283C10.5665 10.1538 10.5355 10.3144 10.4735 10.4647C10.4116 10.6149 10.3119 10.7588 10.1744 10.8963L2.40196 18.6687C2.19044 18.8802 1.94472 18.9814 1.6648 18.9721C1.38488 18.9628 1.13347 18.8617 0.910549 18.6687Z" fill="#1C1B1F"/>
</svg>
