<svg width="32" height="32" viewBox="0 0 32 32" fill="none" xmlns="http://www.w3.org/2000/svg">
<g id="arrow_left_alt">
<mask id="mask0_4138_270" style="mask-type:alpha" maskUnits="userSpaceOnUse" x="0" y="0" width="32" height="32">
<rect id="Bounding box" width="32" height="32" fill="#D9D9D9"/>
</mask>
<g mask="url(#mask0_4138_270)">
<path id="arrow_left_alt_2" d="M9.59968 17.1115L14.133 21.6449C14.3552 21.8671 14.4608 22.1264 14.4497 22.4229C14.4386 22.7191 14.3256 22.9783 14.1107 23.2005C13.8885 23.4228 13.6273 23.5358 13.3273 23.5395C13.0273 23.5431 12.7662 23.4338 12.544 23.2115L6.11068 16.7782C5.88845 16.556 5.77734 16.2968 5.77734 16.0005C5.77734 15.7043 5.88845 15.4451 6.11068 15.2229L12.5663 8.76722C12.7886 8.54499 13.0497 8.43577 13.3497 8.43955C13.6497 8.4431 13.9108 8.55599 14.133 8.77822C14.3479 9.00044 14.4571 9.26344 14.4607 9.56722C14.4645 9.87099 14.3552 10.134 14.133 10.3562L9.59968 14.8895H25.5773C25.896 14.8895 26.1609 14.9951 26.372 15.2062C26.5831 15.4173 26.6887 15.6821 26.6887 16.0005C26.6887 16.319 26.5831 16.5838 26.372 16.7949C26.1609 17.006 25.896 17.1115 25.5773 17.1115H9.59968Z" fill="white"/>
</g>
</g>
</svg>
