<svg width="36" height="27" viewBox="0 0 36 27" fill="none" xmlns="http://www.w3.org/2000/svg">
<path d="M32.9333 14.3635H0.733333C0.511111 14.3635 0.333333 14.2969 0.2 14.1635C0.0666667 14.0302 0 13.8524 0 13.6302C0 13.408 0.0666667 13.2302 0.2 13.0969C0.333333 12.9635 0.511111 12.8969 0.733333 12.8969H32.9333L21.6 1.56354C21.4667 1.43021 21.3889 1.26354 21.3667 1.06354C21.3444 0.863542 21.4222 0.674653 21.6 0.496875C21.7333 0.363542 21.9 0.296875 22.1 0.296875C22.3 0.296875 22.4667 0.385764 22.6 0.563542L34.4667 12.3635C34.6444 12.5858 34.7889 12.7969 34.9 12.9969C35.0111 13.1969 35.0667 13.408 35.0667 13.6302C35.0667 13.8969 35.0111 14.1302 34.9 14.3302C34.7889 14.5302 34.6444 14.7191 34.4667 14.8969L22.6667 26.7635C22.5333 26.8969 22.3667 26.9747 22.1667 26.9969C21.9667 27.0191 21.7778 26.9413 21.6 26.7635C21.4222 26.5858 21.3333 26.408 21.3333 26.2302C21.3333 26.0524 21.4222 25.8747 21.6 25.6969L32.9333 14.3635Z" fill="#263242"/>
</svg>
