<svg width="64" height="64" viewBox="0 0 64 64" fill="none" xmlns="http://www.w3.org/2000/svg">
<rect width="64" height="64" rx="24" fill="#263242"/>
<mask id="mask0_4138_259" style="mask-type:alpha" maskUnits="userSpaceOnUse" x="16" y="16" width="32" height="32">
<rect x="16" y="16" width="32" height="32" fill="#D9D9D9"/>
</mask>
<g mask="url(#mask0_4138_259)">
<path d="M38.4007 33.0669H22.4451C22.1266 33.0669 21.8618 32.9613 21.6507 32.7502C21.4395 32.5391 21.334 32.2743 21.334 31.9558C21.334 31.6372 21.4395 31.3724 21.6507 31.1613C21.8618 30.9502 22.1266 30.8446 22.4451 30.8446H38.4007L33.8451 26.2891C33.6229 26.0668 33.5173 25.8076 33.5284 25.5113C33.5395 25.215 33.6525 24.9557 33.8673 24.7335C34.0895 24.5113 34.3507 24.3983 34.6507 24.3946C34.9507 24.3909 35.2118 24.5002 35.434 24.7224L41.8896 31.178C42.0081 31.2965 42.0914 31.4187 42.1396 31.5446C42.1877 31.6706 42.2118 31.8076 42.2118 31.9558C42.2118 32.1039 42.1877 32.2409 42.1396 32.3669C42.0914 32.4928 42.0081 32.615 41.8896 32.7335L35.4562 39.1669C35.234 39.3891 34.9729 39.4983 34.6729 39.4946C34.3729 39.4909 34.1118 39.378 33.8896 39.1558C33.6747 38.9335 33.5655 38.6706 33.5618 38.3669C33.5581 38.0632 33.6673 37.8002 33.8896 37.578L38.4007 33.0669Z" fill="white"/>
</g>
</svg>
