<svg width="64" height="64" viewBox="0 0 64 64" fill="none" xmlns="http://www.w3.org/2000/svg">
<rect width="64" height="64" rx="24" fill="#263242"/>
<mask id="mask0_4138_253" style="mask-type:alpha" maskUnits="userSpaceOnUse" x="16" y="16" width="32" height="32">
<rect x="16" y="16" width="32" height="32" fill="#D9D9D9"/>
</mask>
<g mask="url(#mask0_4138_253)">
<path d="M25.5997 33.1115L30.133 37.6449C30.3552 37.8671 30.4608 38.1264 30.4497 38.4229C30.4386 38.7191 30.3256 38.9783 30.1107 39.2005C29.8885 39.4228 29.6273 39.5358 29.3273 39.5395C29.0273 39.5431 28.7662 39.4338 28.544 39.2115L22.1107 32.7782C21.8885 32.556 21.7773 32.2968 21.7773 32.0005C21.7773 31.7043 21.8885 31.4451 22.1107 31.2229L28.5663 24.7672C28.7886 24.545 29.0497 24.4358 29.3497 24.4395C29.6497 24.4431 29.9108 24.556 30.133 24.7782C30.3479 25.0004 30.4571 25.2634 30.4607 25.5672C30.4645 25.871 30.3552 26.134 30.133 26.3562L25.5997 30.8895H41.5773C41.896 30.8895 42.1609 30.9951 42.372 31.2062C42.5831 31.4173 42.6887 31.6821 42.6887 32.0005C42.6887 32.319 42.5831 32.5838 42.372 32.7949C42.1609 33.006 41.896 33.1115 41.5773 33.1115H25.5997Z" fill="white"/>
</g>
</svg>
