<svg width="27" height="20" viewBox="0 0 27 20" fill="none" xmlns="http://www.w3.org/2000/svg">
<path d="M22 11.3333H2.0555C1.65736 11.3333 1.32635 11.2014 1.06246 10.9375C0.79857 10.6736 0.666626 10.3426 0.666626 9.94445C0.666626 9.54628 0.79857 9.21526 1.06246 8.95137C1.32635 8.68748 1.65736 8.55553 2.0555 8.55553H22L16.3055 2.86107C16.0277 2.5833 15.8958 2.25923 15.9097 1.88887C15.9236 1.51851 16.0648 1.19444 16.3333 0.916658C16.6111 0.63888 16.9375 0.497672 17.3125 0.493033C17.6875 0.488422 18.0138 0.624992 18.2916 0.902742L26.3611 8.9722C26.5092 9.12037 26.6134 9.27314 26.6736 9.43053C26.7338 9.58795 26.7638 9.75926 26.7638 9.94445C26.7638 10.1296 26.7338 10.3009 26.6736 10.4583C26.6134 10.6157 26.5092 10.7685 26.3611 10.9167L18.3194 18.9583C18.0416 19.2361 17.7153 19.3727 17.3403 19.368C16.9653 19.3634 16.6389 19.2222 16.3611 18.9445C16.0926 18.6667 15.956 18.338 15.9513 17.9583C15.9467 17.5787 16.0833 17.25 16.3611 16.9722L22 11.3333Z" fill="white"/>
</svg>
