<svg width="64" height="64" viewBox="0 0 64 64" fill="none" xmlns="http://www.w3.org/2000/svg">
<mask id="mask0_2219_6775" style="mask-type:alpha" maskUnits="userSpaceOnUse" x="0" y="0" width="64" height="64">
<rect width="64" height="64" fill="#D9D9D9"/>
</mask>
<g mask="url(#mask0_2219_6775)">
<path d="M15.0668 52.5333C14.1112 52.5333 13.2724 52.1722 12.5501 51.45C11.8279 50.7277 11.4668 49.8889 11.4668 48.9333V15.0666C11.4668 14.1111 11.8279 13.2722 12.5501 12.55C13.2724 11.8277 14.1112 11.4666 15.0668 11.4666H28.7335C28.1557 10.2222 28.2224 9.02219 28.9335 7.86663C29.6446 6.71108 30.6779 6.1333 32.0335 6.1333C33.389 6.1333 34.4224 6.71108 35.1335 7.86663C35.8446 9.02219 35.889 10.2222 35.2668 11.4666H48.9335C49.889 11.4666 50.7279 11.8277 51.4501 12.55C52.1724 13.2722 52.5335 14.1111 52.5335 15.0666V48.9333C52.5335 49.8889 52.1724 50.7277 51.4501 51.45C50.7279 52.1722 49.889 52.5333 48.9335 52.5333H15.0668ZM15.0668 51.0666H48.9335C49.4668 51.0666 49.9557 50.8444 50.4001 50.4C50.8446 49.9555 51.0668 49.4666 51.0668 48.9333V15.0666C51.0668 14.5333 50.8446 14.0444 50.4001 13.6C49.9557 13.1555 49.4668 12.9333 48.9335 12.9333H15.0668C14.5335 12.9333 14.0446 13.1555 13.6001 13.6C13.1557 14.0444 12.9335 14.5333 12.9335 15.0666V48.9333C12.9335 49.4666 13.1557 49.9555 13.6001 50.4C14.0446 50.8444 14.5335 51.0666 15.0668 51.0666ZM21.1335 42.8H34.7335C34.9412 42.8 35.1154 42.7282 35.256 42.5848C35.3965 42.4413 35.4668 42.2635 35.4668 42.0514C35.4668 41.8393 35.3965 41.6666 35.256 41.5333C35.1154 41.4 34.9412 41.3333 34.7335 41.3333H21.1335C20.9257 41.3333 20.7515 41.405 20.6109 41.5485C20.4704 41.692 20.4001 41.8697 20.4001 42.0818C20.4001 42.2939 20.4704 42.4666 20.6109 42.6C20.7515 42.7333 20.9257 42.8 21.1335 42.8ZM21.1335 32.7333H42.8668C43.0746 32.7333 43.2488 32.6616 43.3893 32.5181C43.5299 32.3746 43.6001 32.1969 43.6001 31.9848C43.6001 31.7727 43.5299 31.6 43.3893 31.4666C43.2488 31.3333 43.0746 31.2666 42.8668 31.2666H21.1335C20.9257 31.2666 20.7515 31.3384 20.6109 31.4818C20.4704 31.6253 20.4001 31.8031 20.4001 32.0152C20.4001 32.2273 20.4704 32.4 20.6109 32.5333C20.7515 32.6666 20.9257 32.7333 21.1335 32.7333ZM21.1335 22.6666H42.8668C43.0746 22.6666 43.2488 22.5949 43.3893 22.4514C43.5299 22.308 43.6001 22.1302 43.6001 21.9181C43.6001 21.706 43.5299 21.5333 43.3893 21.4C43.2488 21.2666 43.0746 21.2 42.8668 21.2H21.1335C20.9257 21.2 20.7515 21.2717 20.6109 21.4152C20.4704 21.5586 20.4001 21.7364 20.4001 21.9485C20.4001 22.1606 20.4704 22.3333 20.6109 22.4666C20.7515 22.6 20.9257 22.6666 21.1335 22.6666ZM31.9862 11.8666C32.5546 11.8666 33.0546 11.6666 33.4862 11.2666C33.9177 10.8666 34.1335 10.3666 34.1335 9.76663C34.1335 9.16663 33.9177 8.66663 33.4862 8.26663C33.0546 7.86663 32.5546 7.66663 31.9862 7.66663C31.4177 7.66663 30.9335 7.86663 30.5335 8.26663C30.1335 8.66663 29.9335 9.16663 29.9335 9.76663C29.9335 10.3666 30.1335 10.8666 30.5335 11.2666C30.9335 11.6666 31.4177 11.8666 31.9862 11.8666Z" fill="#4EAAED"/>
</g>
</svg>
