<svg width="64" height="64" viewBox="0 0 64 64" fill="none" xmlns="http://www.w3.org/2000/svg">
<g id="bar_chart_4_bars">
<mask id="mask0_4304_623" style="mask-type:alpha" maskUnits="userSpaceOnUse" x="0" y="0" width="64" height="64">
<rect id="Bounding box" width="64" height="64" fill="#D9D9D9"/>
</mask>
<g mask="url(#mask0_4304_623)">
<path id="bar_chart_4_bars_2" d="M9.02533 53.0257C8.73511 53.0257 8.49156 52.9261 8.29467 52.727C8.09822 52.5274 8 52.2803 8 51.9857C8 51.691 8.09822 51.4488 8.29467 51.259C8.49156 51.0697 8.73511 50.975 9.02533 50.975H54.9747C55.2649 50.975 55.5084 51.0746 55.7053 51.2737C55.9018 51.4732 56 51.7203 56 52.015C56 52.3097 55.9018 52.5519 55.7053 52.7417C55.5084 52.931 55.2649 53.0257 54.9747 53.0257H9.02533ZM13.0207 45.6417C12.3642 45.6417 11.8078 45.4123 11.3513 44.9537C10.8949 44.4945 10.6667 43.9374 10.6667 43.2823V34.359C10.6667 33.7039 10.8964 33.147 11.356 32.6883C11.8156 32.2297 12.3738 32.0003 13.0307 32.0003C13.6871 32.0003 14.2436 32.2297 14.7 32.6883C15.1564 33.147 15.3847 33.7039 15.3847 34.359V43.2823C15.3847 43.9374 15.1549 44.4945 14.6953 44.9537C14.2358 45.4123 13.6776 45.6417 13.0207 45.6417ZM25.626 45.6417C24.9696 45.6417 24.4131 45.4123 23.9567 44.9537C23.5002 44.4945 23.272 43.9374 23.272 43.2823V21.0257C23.272 20.3705 23.5018 19.8137 23.9613 19.355C24.4209 18.8963 24.9789 18.667 25.6353 18.667C26.2922 18.667 26.8489 18.8963 27.3053 19.355C27.7618 19.8137 27.99 20.3705 27.99 21.0257V43.2823C27.99 43.9374 27.76 44.4945 27.3 44.9537C26.8404 45.4123 26.2824 45.6417 25.626 45.6417ZM38.298 45.6417C37.6411 45.6417 37.0844 45.4123 36.628 44.9537C36.1716 44.4945 35.9433 43.9374 35.9433 43.2823V29.0257C35.9433 28.3705 36.1733 27.8137 36.6333 27.355C37.0929 26.8963 37.6509 26.667 38.3073 26.667C38.9638 26.667 39.5202 26.8963 39.9767 27.355C40.4331 27.8137 40.6613 28.3705 40.6613 29.0257V43.2823C40.6613 43.9374 40.4316 44.4945 39.972 44.9537C39.5124 45.4123 38.9544 45.6417 38.298 45.6417ZM50.9693 45.6417C50.3129 45.6417 49.7564 45.4123 49.3 44.9537C48.8436 44.4945 48.6153 43.9374 48.6153 43.2823V13.0257C48.6153 12.3705 48.8451 11.8137 49.3047 11.355C49.7642 10.8963 50.3224 10.667 50.9793 10.667C51.6358 10.667 52.1922 10.8963 52.6487 11.355C53.1051 11.8137 53.3333 12.3705 53.3333 13.0257V43.2823C53.3333 43.9374 53.1036 44.4945 52.644 44.9537C52.1844 45.4123 51.6262 45.6417 50.9693 45.6417Z" fill="#1C1B1F"/>
</g>
</g>
</svg>
