<svg width="64" height="64" viewBox="0 0 64 64" fill="none" xmlns="http://www.w3.org/2000/svg">
<mask id="mask0_2179_3996" style="mask-type:alpha" maskUnits="userSpaceOnUse" x="0" y="0" width="64" height="64">
<rect width="64" height="64" fill="#D9D9D9"/>
</mask>
<g mask="url(#mask0_2179_3996)">
<path d="M15.0667 55.2C14.0544 55.2 13.2014 54.853 12.5075 54.1591C11.8136 53.4653 11.4667 52.6122 11.4667 51.6V17.3333C11.4667 16.3211 11.8136 15.468 12.5075 14.7741C13.2014 14.0803 14.0544 13.7333 15.0667 13.7333H20.9333V8.93333C20.9333 8.68444 21.0136 8.46667 21.1741 8.28C21.3347 8.09333 21.5414 8 21.7941 8C22.0658 8 22.2903 8.09333 22.4675 8.28C22.6447 8.46667 22.7333 8.68444 22.7333 8.93333V13.7333H41.5333V8.81873C41.5333 8.55736 41.607 8.35556 41.7543 8.21333C41.9016 8.07111 42.086 8 42.3076 8C42.5481 8 42.7458 8.07611 42.9009 8.22833C43.0558 8.38055 43.1333 8.57111 43.1333 8.8V13.7333H48.9333C49.9455 13.7333 50.7986 14.0803 51.4925 14.7741C52.1864 15.468 52.5333 16.3211 52.5333 17.3333V51.6C52.5333 52.6122 52.1864 53.4653 51.4925 54.1591C50.7986 54.853 49.9455 55.2 48.9333 55.2H15.0667ZM15.0667 53.7333H48.9333C49.4667 53.7333 49.9556 53.5111 50.4 53.0667C50.8444 52.6222 51.0667 52.1333 51.0667 51.6V28.6H12.9333V51.6C12.9333 52.1333 13.1555 52.6222 13.6 53.0667C14.0444 53.5111 14.5333 53.7333 15.0667 53.7333ZM12.9333 27.1333H51.0667V17.3333C51.0667 16.8 50.8444 16.3111 50.4 15.8667C49.9556 15.4222 49.4667 15.2 48.9333 15.2H15.0667C14.5333 15.2 14.0444 15.4222 13.6 15.8667C13.1555 16.3111 12.9333 16.8 12.9333 17.3333V27.1333ZM32 37.8667C31.5111 37.8667 31.0778 37.6778 30.7 37.3C30.3222 36.9222 30.1333 36.4889 30.1333 36C30.1333 35.5111 30.3222 35.0778 30.7 34.7C31.0778 34.3222 31.5111 34.1333 32 34.1333C32.4889 34.1333 32.9222 34.3222 33.3 34.7C33.6778 35.0778 33.8667 35.5111 33.8667 36C33.8667 36.4889 33.6778 36.9222 33.3 37.3C32.9222 37.6778 32.4889 37.8667 32 37.8667ZM21.3333 37.8667C20.8444 37.8667 20.4111 37.6778 20.0333 37.3C19.6555 36.9222 19.4667 36.4889 19.4667 36C19.4667 35.5111 19.6555 35.0778 20.0333 34.7C20.4111 34.3222 20.8444 34.1333 21.3333 34.1333C21.8222 34.1333 22.2555 34.3222 22.6333 34.7C23.0111 35.0778 23.2 35.5111 23.2 36C23.2 36.4889 23.0111 36.9222 22.6333 37.3C22.2555 37.6778 21.8222 37.8667 21.3333 37.8667ZM42.6667 37.8667C42.1778 37.8667 41.7444 37.6778 41.3667 37.3C40.9889 36.9222 40.8 36.4889 40.8 36C40.8 35.5111 40.9889 35.0778 41.3667 34.7C41.7444 34.3222 42.1778 34.1333 42.6667 34.1333C43.1555 34.1333 43.5889 34.3222 43.9667 34.7C44.3444 35.0778 44.5333 35.5111 44.5333 36C44.5333 36.4889 44.3444 36.9222 43.9667 37.3C43.5889 37.6778 43.1555 37.8667 42.6667 37.8667ZM32 48C31.5111 48 31.0778 47.8111 30.7 47.4333C30.3222 47.0556 30.1333 46.6222 30.1333 46.1333C30.1333 45.6444 30.3222 45.2111 30.7 44.8333C31.0778 44.4556 31.5111 44.2667 32 44.2667C32.4889 44.2667 32.9222 44.4556 33.3 44.8333C33.6778 45.2111 33.8667 45.6444 33.8667 46.1333C33.8667 46.6222 33.6778 47.0556 33.3 47.4333C32.9222 47.8111 32.4889 48 32 48ZM21.3333 48C20.8444 48 20.4111 47.8111 20.0333 47.4333C19.6555 47.0556 19.4667 46.6222 19.4667 46.1333C19.4667 45.6444 19.6555 45.2111 20.0333 44.8333C20.4111 44.4556 20.8444 44.2667 21.3333 44.2667C21.8222 44.2667 22.2555 44.4556 22.6333 44.8333C23.0111 45.2111 23.2 45.6444 23.2 46.1333C23.2 46.6222 23.0111 47.0556 22.6333 47.4333C22.2555 47.8111 21.8222 48 21.3333 48ZM42.6667 48C42.1778 48 41.7444 47.8111 41.3667 47.4333C40.9889 47.0556 40.8 46.6222 40.8 46.1333C40.8 45.6444 40.9889 45.2111 41.3667 44.8333C41.7444 44.4556 42.1778 44.2667 42.6667 44.2667C43.1555 44.2667 43.5889 44.4556 43.9667 44.8333C44.3444 45.2111 44.5333 45.6444 44.5333 46.1333C44.5333 46.6222 44.3444 47.0556 43.9667 47.4333C43.5889 47.8111 43.1555 48 42.6667 48Z" fill="#FF895D"/>
</g>
</svg>
