<svg width="64" height="64" viewBox="0 0 64 64" fill="none" xmlns="http://www.w3.org/2000/svg">
<g id="calendar_apps_script">
<mask id="mask0_4304_669" style="mask-type:alpha" maskUnits="userSpaceOnUse" x="0" y="0" width="64" height="64">
<rect id="Bounding box" width="64" height="64" fill="#D9D9D9"/>
</mask>
<g mask="url(#mask0_4304_669)">
<path id="calendar_apps_script_2" d="M38.7585 57.3334C38.4665 57.3334 38.2225 57.2343 38.0265 57.0361C37.831 56.8379 37.7332 56.591 37.7332 56.2954C37.7332 55.9994 37.831 55.7565 38.0265 55.5668C38.2225 55.377 38.4665 55.2821 38.7585 55.2821H51.5025L41.1232 48.0054C40.9178 47.8308 40.7767 47.605 40.6998 47.3281C40.6229 47.0512 40.6716 46.8103 40.8458 46.6054C40.9863 46.3659 41.1932 46.2163 41.4665 46.1568C41.7403 46.0968 42.0001 46.1368 42.2458 46.2768L52.6918 53.5901L48.2818 41.6001C48.1623 41.3503 48.1761 41.1008 48.3232 40.8514C48.4698 40.6017 48.6816 40.417 48.9585 40.2974C49.2358 40.1779 49.5078 40.1834 49.7745 40.3141C50.0412 40.4443 50.2343 40.6508 50.3538 40.9334L54.6305 52.8208L57.9485 40.6308C58.0134 40.3814 58.1681 40.1805 58.4125 40.0281C58.657 39.8761 58.9152 39.8325 59.1872 39.8974C59.4369 39.9601 59.6347 40.1032 59.7805 40.3268C59.9267 40.5499 59.9674 40.7914 59.9025 41.0514L55.8718 55.9694C55.7781 56.3917 55.5716 56.7245 55.2525 56.9681C54.9338 57.2117 54.547 57.3334 54.0918 57.3334H38.7585ZM14.3585 50.6668C13.3341 50.6668 12.4625 50.3077 11.7438 49.5894C11.0256 48.8708 10.6665 47.9992 10.6665 46.9748V16.4101C10.6665 15.3857 11.0256 14.5141 11.7438 13.7954C12.4625 13.0772 13.3341 12.7181 14.3585 12.7181H19.8718V8.59476C19.8718 8.2641 19.9807 7.97965 20.1985 7.74143C20.4163 7.50365 20.6921 7.38477 21.0258 7.38477C21.3787 7.38477 21.6721 7.50365 21.9058 7.74143C22.1396 7.97965 22.2565 8.2641 22.2565 8.59476V12.7181H36.6152V8.50676C36.6152 8.16632 36.719 7.8941 36.9265 7.6901C37.1345 7.48654 37.3934 7.38477 37.7032 7.38477C38.0321 7.38477 38.3047 7.49054 38.5212 7.7021C38.7376 7.91321 38.8458 8.17654 38.8458 8.4921V12.7181H44.3078C45.3323 12.7181 46.2038 13.0772 46.9225 13.7954C47.6407 14.5141 47.9998 15.3857 47.9998 16.4101V32.3948C47.9998 32.6872 47.9007 32.9312 47.7025 33.1268C47.5043 33.3228 47.2574 33.4208 46.9618 33.4208C46.6658 33.4208 46.423 33.3228 46.2332 33.1268C46.0434 32.9312 45.9485 32.6872 45.9485 32.3948V28.0001H12.7178V46.9748C12.7178 47.385 12.8887 47.761 13.2305 48.1028C13.5723 48.4445 13.9483 48.6154 14.3585 48.6154H32.3585C32.6509 48.6154 32.8952 48.7145 33.0912 48.9128C33.2867 49.111 33.3845 49.3579 33.3845 49.6534C33.3845 49.9494 33.2867 50.1923 33.0912 50.3821C32.8952 50.5719 32.6509 50.6668 32.3585 50.6668H14.3585ZM12.7178 25.9488H45.9485V16.4101C45.9485 15.9999 45.7776 15.6239 45.4358 15.2821C45.0941 14.9403 44.7181 14.7694 44.3078 14.7694H14.3585C13.9483 14.7694 13.5723 14.9403 13.2305 15.2821C12.8887 15.6239 12.7178 15.9999 12.7178 16.4101V25.9488Z" fill="#1C1B1F"/>
</g>
</g>
</svg>
