<svg width="20" height="20" viewBox="0 0 20 20" fill="none" xmlns="http://www.w3.org/2000/svg">
<g id="call_log">
<mask id="mask0_4152_575" style="mask-type:alpha" maskUnits="userSpaceOnUse" x="0" y="0" width="20" height="20">
<rect id="Bounding box" width="20" height="20" fill="#D9D9D9"/>
</mask>
<g mask="url(#mask0_4152_575)">
<path id="call_log_2" d="M14.8944 18C13.2104 17.875 11.6167 17.4618 10.1134 16.7604C8.61016 16.059 7.25995 15.1111 6.06273 13.9167C4.86829 12.7222 3.92732 11.3715 3.23982 9.86458C2.55232 8.35764 2.13912 6.76389 2.00023 5.08333C1.97246 4.79167 2.0578 4.53819 2.25627 4.32292C2.45461 4.10764 2.70259 4 3.00023 4H5.83357C6.06968 4 6.27454 4.07292 6.44815 4.21875C6.62176 4.36458 6.73634 4.54861 6.7919 4.77083L7.2919 6.97917C7.31968 7.15972 7.30926 7.33333 7.26065 7.5C7.21204 7.66667 7.13218 7.80556 7.02107 7.91667L5.00023 9.95833C5.27801 10.4861 5.59746 10.9931 5.95857 11.4792C6.31968 11.9653 6.72225 12.4235 7.16627 12.8538C7.58336 13.2707 8.02676 13.6587 8.49648 14.0177C8.96621 14.3769 9.46745 14.6974 10.0002 14.9792L12.0627 12.9792C12.168 12.8681 12.3054 12.7882 12.475 12.7396C12.6446 12.691 12.8197 12.6806 13.0002 12.7083L15.2294 13.1875C15.4655 13.2569 15.653 13.3798 15.7919 13.556C15.9308 13.7323 16.0002 13.9358 16.0002 14.1667V17C16.0002 17.2976 15.889 17.5456 15.6665 17.744C15.4438 17.9424 15.1865 18.0278 14.8944 18ZM11.2563 3.5C11.0439 3.5 10.8648 3.42854 10.719 3.28563C10.5731 3.14271 10.5002 2.96563 10.5002 2.75438C10.5002 2.54313 10.572 2.36458 10.7157 2.21875C10.8593 2.07292 11.0372 2 11.2496 2H17.2442C17.4566 2 17.6356 2.07146 17.7815 2.21437C17.9273 2.35729 18.0002 2.53437 18.0002 2.74562C18.0002 2.95687 17.9284 3.13542 17.7848 3.28125C17.6412 3.42708 17.4632 3.5 17.2509 3.5H11.2563ZM11.2563 6.5C11.0439 6.5 10.8648 6.42854 10.719 6.28563C10.5731 6.14271 10.5002 5.96563 10.5002 5.75438C10.5002 5.54313 10.572 5.36458 10.7157 5.21875C10.8593 5.07292 11.0372 5 11.2496 5H17.2442C17.4566 5 17.6356 5.07146 17.7815 5.21437C17.9273 5.35729 18.0002 5.53437 18.0002 5.74562C18.0002 5.95687 17.9284 6.13542 17.7848 6.28125C17.6412 6.42708 17.4632 6.5 17.2509 6.5H11.2563ZM11.2563 9.5C11.0439 9.5 10.8648 9.42854 10.719 9.28563C10.5731 9.14271 10.5002 8.96563 10.5002 8.75438C10.5002 8.54313 10.572 8.36458 10.7157 8.21875C10.8593 8.07292 11.0372 8 11.2496 8H17.2442C17.4566 8 17.6356 8.07146 17.7815 8.21437C17.9273 8.35729 18.0002 8.53437 18.0002 8.74562C18.0002 8.95687 17.9284 9.13542 17.7848 9.28125C17.6412 9.42708 17.4632 9.5 17.2509 9.5H11.2563Z" fill="#1B76FF"/>
</g>
</g>
</svg>
