<svg width="32" height="33" viewBox="0 0 32 33" fill="none" xmlns="http://www.w3.org/2000/svg">
<path d="M13.5725 20.4657L9.46346 16.346C9.25549 16.1451 9.00317 16.042 8.7065 16.0367C8.40987 16.0313 8.15009 16.1401 7.92717 16.363C7.71564 16.5746 7.60988 16.8278 7.60988 17.1227C7.60988 17.4175 7.71564 17.6707 7.92717 17.8823L12.659 22.6312C12.919 22.8983 13.2235 23.0318 13.5725 23.0318C13.9215 23.0318 14.2259 22.8983 14.4859 22.6312L24.0233 13.1045C24.2355 12.8851 24.3443 12.6271 24.3497 12.3305C24.355 12.0338 24.2462 11.774 24.0233 11.5511C23.8004 11.3396 23.5386 11.2366 23.238 11.2423C22.9375 11.248 22.6814 11.3566 22.4699 11.5682L13.5725 20.4657ZM16.0026 32.3331C13.8241 32.3331 11.7732 31.9175 9.84984 31.0864C7.9265 30.2553 6.24752 29.1228 4.81288 27.6888C3.37824 26.2548 2.24518 24.5765 1.41371 22.654C0.58224 20.7315 0.166504 18.6811 0.166504 16.5026C0.166504 14.3127 0.58206 12.2543 1.41317 10.3274C2.24428 8.4005 3.37684 6.72437 4.81084 5.29901C6.24484 3.87362 7.92307 2.74519 9.84555 1.91371C11.768 1.08224 13.8185 0.666504 15.997 0.666504C18.1869 0.666504 20.2453 1.08206 22.1722 1.91317C24.0991 2.74428 25.7752 3.8722 27.2006 5.29692C28.626 6.72167 29.7544 8.39707 30.5859 10.3231C31.4174 12.2492 31.8331 14.3071 31.8331 16.497C31.8331 18.6755 31.4175 20.7264 30.5864 22.6498C29.7553 24.5731 28.6274 26.2521 27.2027 27.6867C25.7779 29.1214 24.1025 30.2544 22.1765 31.0859C20.2504 31.9174 18.1925 32.3331 16.0026 32.3331Z" fill="#0066FF"/>
</svg>
