<svg width="64" height="64" viewBox="0 0 64 64" fill="none" xmlns="http://www.w3.org/2000/svg">
<mask id="mask0_2189_5606" style="mask-type:alpha" maskUnits="userSpaceOnUse" x="0" y="0" width="64" height="64">
<rect width="64" height="64" fill="#D9D9D9"/>
</mask>
<g mask="url(#mask0_2189_5606)">
<path d="M13.8667 32.3334C13.8667 35.2526 14.5111 37.9491 15.8 40.4228C17.0889 42.8965 19.5334 45.6222 23.1334 48.6V40.2667C23.1334 40.0556 23.2039 39.8806 23.345 39.7417C23.4862 39.6028 23.664 39.5334 23.8784 39.5334C24.0928 39.5334 24.2667 39.6028 24.4 39.7417C24.5334 39.8806 24.6 40.0556 24.6 40.2667V49.2667C24.6 49.7889 24.4306 50.2195 24.0917 50.5583C23.7528 50.8972 23.3222 51.0667 22.8 51.0667H13.8C13.5889 51.0667 13.4139 50.9961 13.275 50.855C13.1361 50.7139 13.0667 50.5361 13.0667 50.3217C13.0667 50.1072 13.1361 49.9333 13.275 49.8C13.4139 49.6667 13.5889 49.6 13.8 49.6H22C18.4 46.5334 15.9 43.6778 14.5 41.0334C13.1 38.3889 12.4 35.4889 12.4 32.3334C12.4 28.6 13.3778 25.1222 15.3334 21.9C17.2889 18.6778 19.9334 16.2445 23.2667 14.6C23.4889 14.4667 23.7111 14.4111 23.9334 14.4333C24.1556 14.4556 24.3 14.5556 24.3667 14.7333C24.4778 14.9556 24.4778 15.1667 24.3667 15.3667C24.2556 15.5667 24.1111 15.7111 23.9334 15.8C20.9556 17.2667 18.5334 19.4918 16.6667 22.4754C14.8 25.4591 13.8667 28.745 13.8667 32.3334ZM40 51.6C38.3111 51.6 36.8445 50.9778 35.6 49.7334C34.3556 48.4889 33.7334 47.0222 33.7334 45.3334C33.7334 43.6307 34.3 42.1855 35.4334 40.9979C36.5667 39.8102 38.1111 39.1716 40.0667 39.0822C40.6889 37.4718 41.6778 36.1778 43.0334 35.2C44.3889 34.2222 46.0445 33.7334 48 33.7334C50.1334 33.7334 51.9889 34.4445 53.5667 35.8667C55.1445 37.2889 56.0445 39.2445 56.2667 41.7334H57.4C58.7778 41.7334 59.9334 42.2111 60.8667 43.1667C61.8 44.1222 62.2667 45.2667 62.2667 46.6C62.2667 47.9778 61.7889 49.1556 60.8334 50.1334C59.8778 51.1111 58.7111 51.6 57.3334 51.6H40ZM49.8667 28.4C49.3334 26.1778 48.4778 24.1445 47.3 22.3C46.1222 20.4556 44 18.1778 40.9334 15.4667V23.7334C40.9334 23.9445 40.8628 24.1195 40.7217 24.2584C40.5805 24.3972 40.4028 24.4667 40.1884 24.4667C39.9739 24.4667 39.8 24.3972 39.6667 24.2584C39.5334 24.1195 39.4667 23.9445 39.4667 23.7334V14.7333C39.4667 14.2111 39.6361 13.7806 39.975 13.4417C40.3139 13.1028 40.7445 12.9333 41.2667 12.9333H50.2667C50.4778 12.9333 50.6528 13.0039 50.7917 13.145C50.9306 13.2862 51 13.4639 51 13.6783C51 13.8928 50.9306 14.0667 50.7917 14.2C50.6528 14.3333 50.4778 14.4 50.2667 14.4H42C45.2 17.2 47.4445 19.7 48.7334 21.9C50.0222 24.1 50.8889 26.2667 51.3334 28.4H49.8667ZM40 50.1334H57.3334C58.2667 50.1334 59.0778 49.7889 59.7667 49.1C60.4556 48.4111 60.8 47.6 60.8 46.6667C60.8 45.7334 60.4556 44.9222 59.7667 44.2334C59.0778 43.5445 58.2667 43.2 57.3334 43.2H54.8V42C54.8 40.1334 54.1334 38.5334 52.8 37.2C51.4667 35.8667 49.8667 35.2 48 35.2C46.1334 35.2 44.5667 35.7445 43.3 36.8334C42.0334 37.9222 41.3556 39.2222 41.2667 40.7334V40.5334H40C38.6445 40.5334 37.5056 40.9945 36.5834 41.9167C35.6611 42.8389 35.2 43.9778 35.2 45.3334C35.2 46.6889 35.6611 47.8278 36.5834 48.75C37.5056 49.6722 38.6445 50.1334 40 50.1334Z" fill="white"/>
</g>
</svg>
