<svg width="24" height="22" viewBox="0 0 24 22" fill="none" xmlns="http://www.w3.org/2000/svg">
<path d="M5.33333 14H18.6667C18.8564 14 19.015 13.9363 19.1423 13.809C19.2697 13.6816 19.3333 13.5231 19.3333 13.3333C19.3333 13.1436 19.2697 12.985 19.1423 12.8577C19.015 12.7303 18.8564 12.6667 18.6667 12.6667H5.33333C5.14358 12.6667 4.98503 12.7303 4.8577 12.8577C4.73034 12.985 4.66667 13.1436 4.66667 13.3333C4.66667 13.5231 4.73034 13.6816 4.8577 13.809C4.98503 13.9363 5.14358 14 5.33333 14ZM5.33333 10H18.6667C18.8564 10 19.015 9.93632 19.1423 9.80897C19.2697 9.68163 19.3333 9.52309 19.3333 9.33333C19.3333 9.14358 19.2697 8.98503 19.1423 8.8577C19.015 8.73034 18.8564 8.66667 18.6667 8.66667H5.33333C5.14358 8.66667 4.98503 8.73034 4.8577 8.8577C4.73034 8.98503 4.66667 9.14358 4.66667 9.33333C4.66667 9.52309 4.73034 9.68163 4.8577 9.80897C4.98503 9.93632 5.14358 10 5.33333 10ZM5.33333 6H18.6667C18.8564 6 19.015 5.93632 19.1423 5.80897C19.2697 5.68163 19.3333 5.52309 19.3333 5.33333C19.3333 5.14358 19.2697 4.98503 19.1423 4.8577C19.015 4.73034 18.8564 4.66667 18.6667 4.66667H5.33333C5.14358 4.66667 4.98503 4.73034 4.8577 4.8577C4.73034 4.98503 4.66667 5.14358 4.66667 5.33333C4.66667 5.52309 4.73034 5.68163 4.8577 5.80897C4.98503 5.93632 5.14358 6 5.33333 6ZM22.1692 20.9385L19.8974 18.6667H2.15383C1.54017 18.6667 1.02778 18.4611 0.616667 18.05C0.205556 17.6389 0 17.1265 0 16.5128V2.15383C0 1.54017 0.205556 1.02778 0.616667 0.616667C1.02778 0.205556 1.54017 0 2.15383 0H21.8462C22.4598 0 22.9722 0.205556 23.3833 0.616667C23.7944 1.02778 24 1.54017 24 2.15383V20.1769C24 20.6573 23.7791 20.9885 23.3372 21.1705C22.8953 21.3526 22.506 21.2752 22.1692 20.9385ZM1.33333 2.15383V17.3333H20.459L22.6667 19.541V2.15383C22.6667 1.91452 22.5897 1.71794 22.4359 1.5641C22.2821 1.41026 22.0855 1.33333 21.8462 1.33333H2.15383C1.91452 1.33333 1.71794 1.41026 1.5641 1.5641C1.41026 1.71794 1.33333 1.91452 1.33333 2.15383ZM1.33333 2.15383V19.541V1.33333V2.15383Z" fill="#1C1B1F"/>
</svg>
