<svg width="64" height="64" viewBox="0 0 64 64" fill="none" xmlns="http://www.w3.org/2000/svg">
<mask id="mask0_2203_7621" style="mask-type:alpha" maskUnits="userSpaceOnUse" x="0" y="0" width="64" height="64">
<rect width="64" height="64" fill="#D9D9D9"/>
</mask>
<g mask="url(#mask0_2203_7621)">
<path d="M12.8001 55.7334C12.5901 55.7334 12.4153 55.6624 12.2759 55.5205C12.1365 55.3786 12.0667 55.2008 12.0667 54.9872C12.0667 54.7735 12.1365 54.6001 12.2759 54.4667C12.4153 54.3334 12.5901 54.2667 12.8001 54.2667H51.2001C51.4101 54.2667 51.5848 54.3377 51.7242 54.4796C51.8637 54.6215 51.9334 54.7993 51.9334 55.0129C51.9334 55.2266 51.8637 55.4001 51.7242 55.5334C51.5848 55.6667 51.4101 55.7334 51.2001 55.7334H12.8001ZM12.8001 9.73339C12.5901 9.73339 12.4153 9.66244 12.2759 9.52052C12.1365 9.37861 12.0667 9.20084 12.0667 8.98719C12.0667 8.77355 12.1365 8.60006 12.2759 8.46672C12.4153 8.33339 12.5901 8.26672 12.8001 8.26672H51.2001C51.4101 8.26672 51.5848 8.33768 51.7242 8.47959C51.8637 8.6215 51.9334 8.79928 51.9334 9.01292C51.9334 9.22657 51.8637 9.40006 51.7242 9.53339C51.5848 9.66672 51.4101 9.73339 51.2001 9.73339H12.8001ZM32.0001 38.0667C33.7519 38.0667 35.2232 37.4649 36.4139 36.2612C37.6047 35.0575 38.2001 33.5704 38.2001 31.8001C38.2001 30.0482 37.6047 28.5769 36.4139 27.3862C35.2232 26.1954 33.7519 25.6001 32.0001 25.6001C30.2482 25.6001 28.7769 26.1981 27.5862 27.3942C26.3955 28.5903 25.8001 30.0681 25.8001 31.8275C25.8001 33.587 26.3955 35.0667 27.5862 36.2667C28.7769 37.4667 30.2482 38.0667 32.0001 38.0667ZM12.2667 49.8667C11.2545 49.8667 10.4015 49.5198 9.70762 48.8259C9.0137 48.132 8.66675 47.2789 8.66675 46.2667V17.7334C8.66675 16.6667 9.0137 15.8001 9.70762 15.1334C10.4015 14.4667 11.2545 14.1334 12.2667 14.1334H51.7334C52.7456 14.1334 53.5987 14.4803 54.2926 15.1742C54.9865 15.8681 55.3334 16.7212 55.3334 17.7334V46.2667C55.3334 47.2789 54.9865 48.132 54.2926 48.8259C53.5987 49.5198 52.7456 49.8667 51.7334 49.8667H12.2667ZM19.6667 48.4001C21.7556 46.7112 23.8445 45.5112 25.9334 44.8001C28.0223 44.0889 30.0445 43.7334 32.0001 43.7334C33.9556 43.7334 35.989 44.0889 38.1001 44.8001C40.2112 45.5112 42.289 46.7112 44.3334 48.4001H51.7334C52.2667 48.4001 52.7556 48.1778 53.2001 47.7334C53.6445 47.289 53.8668 46.8001 53.8668 46.2667V17.7334C53.8668 17.2001 53.6445 16.7112 53.2001 16.2667C52.7556 15.8223 52.2667 15.6001 51.7334 15.6001H12.2667C11.7334 15.6001 11.2445 15.8223 10.8001 16.2667C10.3556 16.7112 10.1334 17.2001 10.1334 17.7334V46.2667C10.1334 46.8001 10.3556 47.289 10.8001 47.7334C11.2445 48.1778 11.7334 48.4001 12.2667 48.4001H19.6667ZM22.5334 48.4001H41.5334C40.2001 47.3778 38.7445 46.589 37.1667 46.0334C35.589 45.4778 33.8667 45.2001 32.0001 45.2001C30.1334 45.2001 28.4112 45.4778 26.8334 46.0334C25.2556 46.589 23.8223 47.3778 22.5334 48.4001ZM32.0059 36.6001C30.7131 36.6001 29.6001 36.1334 28.6667 35.2001C27.7334 34.2667 27.2667 33.1445 27.2667 31.8334C27.2667 30.5223 27.7315 29.4001 28.6609 28.4667C29.5903 27.5334 30.7015 27.0667 31.9942 27.0667C33.287 27.0667 34.4001 27.5334 35.3334 28.4667C36.2667 29.4001 36.7334 30.5223 36.7334 31.8334C36.7334 33.1445 36.2687 34.2667 35.3393 35.2001C34.4098 36.1334 33.2987 36.6001 32.0059 36.6001Z" fill="#9863F3"/>
</g>
</svg>
