<svg width="100" height="100" viewBox="0 0 100 100" fill="none" xmlns="http://www.w3.org/2000/svg">
<mask id="mask0_2068_4045" style="mask-type:alpha" maskUnits="userSpaceOnUse" x="0" y="0" width="100" height="100">
<rect width="100" height="100" fill="#D9D9D9"/>
</mask>
<g mask="url(#mask0_2068_4045)">
<path d="M18.0209 43.4374C17.224 43.4374 16.556 43.1679 16.0169 42.6288C15.4779 42.0897 15.2084 41.4218 15.2084 40.6249V18.0208C15.2084 17.2239 15.4779 16.5559 16.0169 16.0169C16.556 15.4778 17.224 15.2083 18.0209 15.2083H40.625C41.4219 15.2083 42.0899 15.4778 42.6289 16.0169C43.168 16.5559 43.4375 17.2239 43.4375 18.0208V40.6249C43.4375 41.4218 43.168 42.0897 42.6289 42.6288C42.0899 43.1679 41.4219 43.4374 40.625 43.4374H18.0209ZM59.375 43.4374C58.5782 43.4374 57.9102 43.1679 57.3712 42.6288C56.8321 42.0897 56.5625 41.4218 56.5625 40.6249V18.0208C56.5625 17.2239 56.8321 16.5559 57.3712 16.0169C57.9102 15.4778 58.5782 15.2083 59.375 15.2083H81.9792C82.7761 15.2083 83.444 15.4778 83.9831 16.0169C84.5222 16.5559 84.7917 17.2239 84.7917 18.0208V40.6249C84.7917 41.4218 84.5222 42.0897 83.9831 42.6288C83.444 43.1679 82.7761 43.4374 81.9792 43.4374H59.375ZM18.0209 84.7916C17.224 84.7916 16.556 84.5221 16.0169 83.983C15.4779 83.4439 15.2084 82.776 15.2084 81.9791V59.3749C15.2084 58.578 15.4779 57.9101 16.0169 57.3711C16.556 56.832 17.224 56.5624 18.0209 56.5624H40.625C41.4219 56.5624 42.0899 56.832 42.6289 57.3711C43.168 57.9101 43.4375 58.578 43.4375 59.3749V81.9791C43.4375 82.776 43.168 83.4439 42.6289 83.983C42.0899 84.5221 41.4219 84.7916 40.625 84.7916H18.0209ZM70.6551 84.7916C70.3573 84.7916 70.1042 84.6818 69.8959 84.4621C69.6875 84.2425 69.5834 83.9704 69.5834 83.6458V71.7707H57.6042C57.3264 71.7707 57.0834 71.6588 56.875 71.435C56.6667 71.2112 56.5625 70.9338 56.5625 70.6029C56.5625 70.3398 56.6723 70.0867 56.8919 69.8437C57.1116 69.6006 57.3837 69.4791 57.7084 69.4791H69.5834V57.6041C69.5834 57.3263 69.6953 57.0833 69.9191 56.8749C70.1429 56.6666 70.4203 56.5624 70.7512 56.5624C71.0143 56.5624 71.2674 56.6722 71.5105 56.8918C71.7535 57.1114 71.875 57.3836 71.875 57.7082V69.4791H83.75C84.0278 69.4791 84.2709 69.6079 84.4792 69.8656C84.6875 70.1233 84.7917 70.4011 84.7917 70.699C84.7917 70.9968 84.6819 71.2499 84.4623 71.4582C84.2427 71.6666 83.9705 71.7707 83.6459 71.7707H71.875V83.7499C71.875 84.0277 71.7462 84.2708 71.4885 84.4791C71.2308 84.6874 70.9531 84.7916 70.6551 84.7916ZM58.8542 17.4999V41.1458H82.5V17.4999H58.8542ZM17.5 17.4999V41.1458H41.1459V17.4999H17.5ZM17.5 58.8541V82.4999H41.1459V58.8541H17.5Z" fill="white"/>
</g>
</svg>
