<svg width="48" height="48" viewBox="0 0 48 48" fill="none" xmlns="http://www.w3.org/2000/svg">
<mask id="mask0_2068_4275" style="mask-type:alpha" maskUnits="userSpaceOnUse" x="0" y="0" width="48" height="48">
<rect width="48" height="48" fill="#D9D9D9"/>
</mask>
<g mask="url(#mask0_2068_4275)">
<path d="M33.6154 6.25C35.277 6.27563 36.6924 6.86665 37.8616 8.02305C39.0308 9.17948 39.6154 10.5885 39.6154 12.25C39.6154 12.5654 39.5969 13.0058 39.5597 13.5711C39.5225 14.1365 39.4539 14.8064 39.3539 15.5807L36.5654 35.7307C36.4757 36.559 36.1193 37.1942 35.4962 37.6365C34.8731 38.0788 34.1962 38.3 33.4654 38.3C32.9706 38.3 32.518 38.1564 32.1077 37.8692C31.6975 37.5821 31.3231 37.2205 30.9846 36.7846L25.0577 28.7154C24.9141 28.5385 24.7545 28.391 24.5789 28.2731C24.4033 28.1551 24.1936 28.0961 23.95 28.0961C23.7295 28.0961 23.3603 28.3359 22.8423 28.8154L17.0654 36.6346C16.727 37.1038 16.3359 37.4987 15.8923 37.8192C15.4487 38.1397 14.9628 38.3 14.4346 38.3C13.7039 38.3 13.0353 38.0724 12.4289 37.6173C11.8225 37.1622 11.4744 36.5166 11.3846 35.6807L8.64619 15.5807C8.54619 14.8064 8.47759 14.1365 8.44039 13.5711C8.40323 13.0058 8.38464 12.5654 8.38464 12.25C8.38464 10.5885 8.96926 9.17308 10.1385 8.00385C11.3077 6.83462 12.7231 6.25 14.3846 6.25C15.3539 6.25 16.184 6.40833 16.875 6.725C17.5661 7.04167 18.2449 7.38333 18.9116 7.75C19.5783 8.11667 20.3058 8.45833 21.0943 8.775C21.8827 9.09167 22.8513 9.25 24 9.25C25.1744 9.25 26.1622 9.09167 26.9635 8.775C27.7648 8.45833 28.4988 8.11667 29.1654 7.75C29.8321 7.38333 30.5065 7.04167 31.1885 6.725C31.8706 6.40833 32.6795 6.25 33.6154 6.25ZM33.6154 7.78845C32.8488 7.78845 32.1821 7.92435 31.6154 8.19615C31.0488 8.46795 30.4398 8.78718 29.7885 9.15385C28.9526 9.65128 28.0955 10.0481 27.2173 10.3443C26.3391 10.6404 25.2667 10.7885 24 10.7885C22.7846 10.7885 21.7462 10.6404 20.8846 10.3443C20.0231 10.0481 19.1616 9.65128 18.3 9.15385C17.6744 8.78718 17.0571 8.46795 16.4481 8.19615C15.8391 7.92435 15.1513 7.78845 14.3846 7.78845C13.1385 7.78845 12.0834 8.2205 11.2193 9.0846C10.3552 9.9487 9.92309 11.0038 9.92309 12.25C9.92309 12.5167 9.93976 12.9038 9.97309 13.4115C10.0064 13.9192 10.0731 14.5231 10.1731 15.2231L12.9231 35.4615C12.9641 35.8487 13.1417 36.1538 13.4558 36.3769C13.7699 36.6 14.0962 36.7115 14.4346 36.7115C14.7603 36.7115 15.0308 36.5981 15.2462 36.3711C15.4616 36.1442 15.6821 35.8974 15.9077 35.6307L21.5731 27.9231C21.8706 27.5103 22.2295 27.1795 22.65 26.9307C23.0705 26.682 23.5205 26.5577 24 26.5577C24.4795 26.5577 24.9276 26.682 25.3443 26.9307C25.761 27.1795 26.118 27.5103 26.4154 27.9231L32.1423 35.7807C32.309 36.0474 32.5064 36.2775 32.7346 36.4711C32.9629 36.6647 33.2231 36.7615 33.5154 36.7615C33.8795 36.7615 34.2122 36.6481 34.5135 36.4211C34.8148 36.1942 34.9988 35.8949 35.0654 35.5231L37.827 15.2231C37.927 14.5231 37.9937 13.9192 38.027 13.4115C38.0603 12.9038 38.077 12.5167 38.077 12.25C38.077 11.0038 37.6449 9.9487 36.7808 9.0846C35.9167 8.2205 34.8616 7.78845 33.6154 7.78845Z" fill="white"/>
</g>
</svg>
