<svg width="17" height="18" viewBox="0 0 17 18" fill="none" xmlns="http://www.w3.org/2000/svg">
<path d="M13.4038 0.625C14.3692 0.631417 15.1939 0.975009 15.8778 1.65578C16.5618 2.33654 16.9038 3.15961 16.9038 4.12498C16.9038 4.29549 16.8929 4.5285 16.8711 4.824C16.8493 5.11952 16.8134 5.46407 16.7634 5.85765L15.3788 15.9327C15.3147 16.4442 15.0849 16.8583 14.6894 17.175C14.2939 17.4916 13.8404 17.65 13.3288 17.65C13.0032 17.65 12.7083 17.5714 12.4442 17.4144C12.1801 17.2573 11.9558 17.0512 11.7712 16.7961L8.95192 12.8288C8.89935 12.7493 8.83237 12.689 8.75097 12.648C8.66955 12.607 8.57756 12.5865 8.47499 12.5865C8.38268 12.5865 8.2237 12.6839 7.99807 12.8788L5.25382 16.7211C5.05253 16.9967 4.81152 17.2204 4.53077 17.3923C4.25 17.5641 3.94679 17.65 3.62114 17.65C3.10962 17.65 2.66027 17.4875 2.27309 17.1625C1.88592 16.8375 1.66029 16.4192 1.59619 15.9077L0.236566 5.85765C0.186566 5.46407 0.150675 5.11952 0.128891 4.824C0.107091 4.5285 0.0961914 4.29549 0.0961914 4.12498C0.0961914 3.15961 0.438175 2.33493 1.12214 1.65095C1.80611 0.966984 2.63077 0.625 3.59614 0.625C4.13846 0.625 4.58558 0.704167 4.93749 0.8625C5.28941 1.02083 5.63203 1.19167 5.96537 1.375C6.2987 1.55833 6.65768 1.72917 7.04229 1.8875C7.42691 2.04583 7.91281 2.125 8.49999 2.125C9.09357 2.125 9.58428 2.04583 9.97212 1.8875C10.3599 1.72917 10.7205 1.55833 11.0538 1.375C11.3872 1.19167 11.7308 1.02083 12.0846 0.8625C12.4385 0.704167 12.8782 0.625 13.4038 0.625ZM13.4038 2.12498C13.0205 2.12498 12.683 2.20414 12.3913 2.36248C12.0997 2.52081 11.782 2.69164 11.4384 2.87498C11.0949 3.05831 10.6961 3.22914 10.2423 3.38748C9.78844 3.54581 9.20767 3.62498 8.49999 3.62498C7.80512 3.62498 7.23077 3.54581 6.77692 3.38748C6.32307 3.22914 5.92435 3.05831 5.58077 2.87498C5.23718 2.69164 4.91635 2.52081 4.61827 2.36248C4.32018 2.20414 3.97948 2.12498 3.59614 2.12498C3.04614 2.12498 2.57531 2.32081 2.18364 2.71248C1.79197 3.10414 1.59614 3.57498 1.59614 4.12498C1.59614 4.25831 1.60447 4.44998 1.62114 4.69998C1.63781 4.94998 1.67114 5.24164 1.72114 5.57498L3.09614 15.7C3.11281 15.8333 3.17114 15.9375 3.27114 16.0125C3.37114 16.0875 3.48781 16.125 3.62114 16.125C3.72371 16.125 3.81313 16.0939 3.88942 16.0317C3.9657 15.9695 4.03013 15.8955 4.08269 15.8096L6.76157 12.0327C6.96283 11.7506 7.21475 11.5224 7.51732 11.3481C7.81987 11.1737 8.14742 11.0865 8.49999 11.0865C8.84614 11.0865 9.1721 11.1737 9.47787 11.3481C9.78363 11.5224 10.0372 11.7506 10.2384 12.0327L12.9577 15.8846C13.0102 15.9538 13.0663 16.0154 13.1259 16.0692C13.1856 16.1231 13.2615 16.15 13.3538 16.15C13.4872 16.15 13.608 16.1125 13.7163 16.0375C13.8247 15.9625 13.8872 15.8583 13.9038 15.725L15.2788 5.57498C15.3288 5.24164 15.3622 4.94998 15.3788 4.69998C15.3955 4.44998 15.4038 4.25831 15.4038 4.12498C15.4038 3.57498 15.208 3.10414 14.8163 2.71248C14.4247 2.32081 13.9538 2.12498 13.4038 2.12498Z" fill="#B0B5BD"/>
</svg>
