<svg width="48" height="48" viewBox="0 0 48 48" fill="none" xmlns="http://www.w3.org/2000/svg">
<g id="diagnosis">
<mask id="mask0_4304_647" style="mask-type:alpha" maskUnits="userSpaceOnUse" x="0" y="0" width="48" height="48">
<rect id="Bounding box" width="48" height="48" fill="#D9D9D9"/>
</mask>
<g mask="url(#mask0_4304_647)">
<path id="diagnosis_2" d="M17.769 35.231H30.231C30.45 35.231 30.633 35.1567 30.78 35.008C30.9267 34.8593 31 34.674 31 34.452C31 34.23 30.9267 34.048 30.78 33.906C30.633 33.7637 30.45 33.6925 30.231 33.6925H17.769C17.55 33.6925 17.367 33.7667 17.22 33.915C17.0733 34.0637 17 34.249 17 34.471C17 34.693 17.0733 34.8752 17.22 35.0175C17.367 35.1598 17.55 35.231 17.769 35.231ZM17.769 30H30.231C30.45 30 30.633 29.9257 30.78 29.777C30.9267 29.6283 31 29.4432 31 29.2215C31 28.9995 30.9267 28.8173 30.78 28.675C30.633 28.5327 30.45 28.4615 30.231 28.4615H17.769C17.55 28.4615 17.367 28.5358 17.22 28.6845C17.0733 28.8332 17 29.0183 17 29.24C17 29.462 17.0733 29.6442 17.22 29.7865C17.367 29.9288 17.55 30 17.769 30ZM24 15.131C23.423 14.4207 22.9192 13.8495 22.4885 13.4175C22.0578 12.9852 21.3617 12.769 20.4 12.769C19.5193 12.769 18.771 13.0772 18.155 13.6935C17.539 14.3095 17.231 15.0578 17.231 15.9385C17.231 17.5692 17.9328 18.9813 19.3365 20.175C20.7405 21.3687 21.9873 22.4437 23.077 23.4C23.3253 23.641 23.6348 23.7615 24.0055 23.7615C24.3762 23.7615 24.682 23.641 24.923 23.4C26.0127 22.4437 27.2595 21.3603 28.6635 20.15C30.0672 18.9397 30.769 17.5358 30.769 15.9385C30.769 15.0578 30.461 14.3095 29.845 13.6935C29.229 13.0772 28.4807 12.769 27.6 12.769C26.6383 12.769 25.9422 12.9852 25.5115 13.4175C25.0808 13.8495 24.577 14.4207 24 15.131ZM35.231 42H12.769C12.0007 42 11.347 41.7307 10.808 41.192C10.2693 40.653 10 39.9993 10 39.231V8.769C10 8.00067 10.2693 7.347 10.808 6.808C11.347 6.26933 12.0007 6 12.769 6H35.231C35.9993 6 36.653 6.26933 37.192 6.808C37.7307 7.347 38 8.00067 38 8.769V39.231C38 39.9993 37.7307 40.653 37.192 41.192C36.653 41.7307 35.9993 42 35.231 42ZM12.769 40.4615H35.231C35.5897 40.4615 35.8845 40.3462 36.1155 40.1155C36.3462 39.8845 36.4615 39.5897 36.4615 39.231V8.769C36.4615 8.41033 36.3462 8.1155 36.1155 7.8845C35.8845 7.65383 35.5897 7.5385 35.231 7.5385H12.769C12.4103 7.5385 12.1155 7.65383 11.8845 7.8845C11.6538 8.1155 11.5385 8.41033 11.5385 8.769V39.231C11.5385 39.5897 11.6538 39.8845 11.8845 40.1155C12.1155 40.3462 12.4103 40.4615 12.769 40.4615Z" fill="#1C1B1F"/>
</g>
</g>
</svg>
