<svg width="18" height="19" viewBox="0 0 18 19" fill="none" xmlns="http://www.w3.org/2000/svg">
<path d="M4.5011 3.55759C4.1542 3.55759 3.85896 3.67901 3.61538 3.92184C3.37179 4.16468 3.25 4.45954 3.25 4.80644C3.25 5.15336 3.37142 5.44861 3.61425 5.69219C3.85708 5.93578 4.15195 6.05757 4.49885 6.05757C4.84575 6.05757 5.14099 5.93615 5.38458 5.69332C5.62816 5.45048 5.74995 5.15562 5.74995 4.80872C5.74995 4.46182 5.62853 4.16657 5.3857 3.92297C5.14287 3.67938 4.848 3.55759 4.5011 3.55759ZM4.5011 12.9422C4.1542 12.9422 3.85896 13.0636 3.61538 13.3064C3.37179 13.5493 3.25 13.8441 3.25 14.191C3.25 14.5379 3.37142 14.8332 3.61425 15.0768C3.85708 15.3204 4.15195 15.4421 4.49885 15.4421C4.84575 15.4421 5.14099 15.3207 5.38458 15.0779C5.62816 14.8351 5.74995 14.5402 5.74995 14.1933C5.74995 13.8464 5.62853 13.5511 5.3857 13.3075C5.14287 13.064 4.848 12.9422 4.5011 12.9422ZM1.38462 0.807617H16.6153C16.866 0.807617 17.0761 0.892159 17.2456 1.06124C17.4152 1.23034 17.5 1.43987 17.5 1.68982V7.86524C17.5 8.13576 17.4152 8.36043 17.2456 8.53927C17.0761 8.71812 16.866 8.80754 16.6153 8.80754H1.38462C1.13397 8.80754 0.923875 8.71812 0.754325 8.53927C0.584775 8.36043 0.5 8.13576 0.5 7.86524V1.68982C0.5 1.43987 0.584775 1.23034 0.754325 1.06124C0.923875 0.892159 1.13397 0.807617 1.38462 0.807617ZM1.99997 2.30759V7.30759H16V2.30759H1.99997ZM1.38462 10.1922H16.5961C16.8602 10.1922 17.0769 10.2807 17.2461 10.4576C17.4153 10.6345 17.5 10.8537 17.5 11.1153V17.2306C17.5 17.5139 17.4153 17.745 17.2461 17.9238C17.0769 18.1027 16.8602 18.1921 16.5961 18.1921H1.40385C1.13975 18.1921 0.923083 18.1027 0.75385 17.9238C0.584616 17.745 0.5 17.5139 0.5 17.2306V11.1153C0.5 10.8537 0.581416 10.6345 0.74425 10.4576C0.907066 10.2807 1.12052 10.1922 1.38462 10.1922ZM1.99997 11.6921V16.6921H16V11.6921H1.99997Z" fill="#1B76FF"/>
</svg>
