<svg width="64" height="64" viewBox="0 0 64 64" fill="none" xmlns="http://www.w3.org/2000/svg">
<g id="dvr">
<mask id="mask0_4304_581" style="mask-type:alpha" maskUnits="userSpaceOnUse" x="0" y="0" width="64" height="64">
<rect id="Bounding box" width="64" height="64" fill="#D9D9D9"/>
</mask>
<g mask="url(#mask0_4304_581)">
<path id="dvr_2" d="M18.6607 36.0977C19.0647 36.0977 19.4051 35.9612 19.682 35.6883C19.9589 35.415 20.0973 35.0765 20.0973 34.673C20.0973 34.269 19.9609 33.9285 19.688 33.6517C19.4147 33.3748 19.0762 33.2363 18.6727 33.2363C18.2687 33.2363 17.9282 33.3728 17.6513 33.6457C17.3744 33.919 17.236 34.2574 17.236 34.661C17.236 35.065 17.3724 35.4054 17.6453 35.6823C17.9187 35.9592 18.2571 36.0977 18.6607 36.0977ZM18.6607 25.431C19.0647 25.431 19.4051 25.2945 19.682 25.0217C19.9589 24.7483 20.0973 24.4099 20.0973 24.0063C20.0973 23.6023 19.9609 23.2619 19.688 22.985C19.4147 22.7081 19.0762 22.5697 18.6727 22.5697C18.2687 22.5697 17.9282 22.7061 17.6513 22.979C17.3744 23.2523 17.236 23.5908 17.236 23.9943C17.236 24.3983 17.3724 24.7388 17.6453 25.0157C17.9187 25.2925 18.2571 25.431 18.6607 25.431ZM25.3333 35.6923H45.6413C45.9316 35.6923 46.1751 35.5928 46.372 35.3937C46.5684 35.1941 46.6667 34.947 46.6667 34.6523C46.6667 34.3577 46.5684 34.1154 46.372 33.9257C46.1751 33.7363 45.9316 33.6417 45.6413 33.6417H25.3333C25.0427 33.6417 24.7991 33.7412 24.6027 33.9403C24.4062 34.1399 24.308 34.387 24.308 34.6817C24.308 34.9763 24.4062 35.2185 24.6027 35.4083C24.7991 35.5977 25.0427 35.6923 25.3333 35.6923ZM25.3333 25.0257H45.6413C45.9316 25.0257 46.1751 24.9261 46.372 24.727C46.5684 24.5274 46.6667 24.2803 46.6667 23.9857C46.6667 23.691 46.5684 23.4488 46.372 23.259C46.1751 23.0697 45.9316 22.975 45.6413 22.975H25.3333C25.0427 22.975 24.7991 23.0745 24.6027 23.2737C24.4062 23.4732 24.308 23.7203 24.308 24.015C24.308 24.3097 24.4062 24.5519 24.6027 24.7417C24.7991 24.931 25.0427 25.0257 25.3333 25.0257ZM11.692 48.0003C10.6676 48.0003 9.796 47.6412 9.07733 46.923C8.35911 46.2043 8 45.3328 8 44.3083V14.359C8 13.3345 8.35911 12.463 9.07733 11.7443C9.796 11.0261 10.6676 10.667 11.692 10.667H52.308C53.3324 10.667 54.204 11.0261 54.9227 11.7443C55.6409 12.463 56 13.3345 56 14.359V44.3083C56 45.3328 55.6409 46.2043 54.9227 46.923C54.204 47.6412 53.3324 48.0003 52.308 48.0003H39.692V51.4877C39.692 52.0108 39.5151 52.4492 39.1613 52.803C38.8076 53.1568 38.3691 53.3337 37.846 53.3337H26.154C25.6309 53.3337 25.1924 53.1568 24.8387 52.803C24.4849 52.4492 24.308 52.0108 24.308 51.4877V48.0003H11.692ZM11.692 45.949H52.308C52.7182 45.949 53.0942 45.7781 53.436 45.4363C53.7778 45.0946 53.9487 44.7186 53.9487 44.3083V14.359C53.9487 13.9488 53.7778 13.5728 53.436 13.231C53.0942 12.8892 52.7182 12.7183 52.308 12.7183H11.692C11.2818 12.7183 10.9058 12.8892 10.564 13.231C10.2222 13.5728 10.0513 13.9488 10.0513 14.359V44.3083C10.0513 44.7186 10.2222 45.0946 10.564 45.4363C10.9058 45.7781 11.2818 45.949 11.692 45.949Z" fill="#1C1B1F"/>
</g>
</g>
</svg>
