<svg width="64" height="64" viewBox="0 0 64 64" fill="none" xmlns="http://www.w3.org/2000/svg">
<g id="emoji_events">
<mask id="mask0_4304_617" style="mask-type:alpha" maskUnits="userSpaceOnUse" x="0" y="0" width="64" height="64">
<rect id="Bounding box" width="64" height="64" fill="#D9D9D9"/>
</mask>
<g mask="url(#mask0_4304_617)">
<path id="emoji_events_2" d="M30.9745 51.2823V40.5437C28.4034 40.3628 26.1758 39.415 24.2918 37.7003C22.4083 35.9857 21.2647 33.8652 20.8612 31.339C18.0509 31.0177 15.6494 29.915 13.6565 28.031C11.6632 26.1474 10.6665 23.8399 10.6665 21.1083V19.9183C10.6665 18.9294 11.0347 18.0668 11.7712 17.3303C12.5072 16.5939 13.3696 16.2257 14.3585 16.2257H20.5232V14.359C20.5232 13.3701 20.8912 12.5077 21.6272 11.7717C22.3636 11.0352 23.2263 10.667 24.2152 10.667H39.7845C40.7734 10.667 41.6361 11.0352 42.3725 11.7717C43.1085 12.5077 43.4765 13.3701 43.4765 14.359V16.2257H49.6412C50.6301 16.2257 51.4925 16.5939 52.2285 17.3303C52.9649 18.0668 53.3332 18.9294 53.3332 19.9183V21.1083C53.3332 23.8399 52.3365 26.1474 50.3432 28.031C48.3503 29.915 45.9487 31.0177 43.1385 31.339C42.735 33.8652 41.5914 35.9857 39.7078 37.7003C37.8238 39.415 35.5963 40.3628 33.0252 40.5437V51.2823H40.0818C40.3734 51.2823 40.6172 51.3817 40.8132 51.5803C41.0096 51.779 41.1078 52.0261 41.1078 52.3217C41.1078 52.6168 41.0096 52.8592 40.8132 53.049C40.6172 53.2388 40.3734 53.3337 40.0818 53.3337H23.9178C23.6263 53.3337 23.3825 53.2343 23.1865 53.0357C22.9901 52.837 22.8918 52.5899 22.8918 52.2943C22.8918 51.9992 22.9901 51.7568 23.1865 51.567C23.3825 51.3772 23.6263 51.2823 23.9178 51.2823H30.9745ZM20.5232 29.1903V18.277H14.3585C13.8803 18.277 13.4872 18.4394 13.1792 18.7643C12.8716 19.0892 12.7178 19.4739 12.7178 19.9183V21.1083C12.7178 23.2448 13.4674 25.0745 14.9665 26.5977C16.4656 28.1208 18.3178 28.985 20.5232 29.1903ZM32.0278 38.4877C34.611 38.4877 36.8058 37.5797 38.6125 35.7637C40.4196 33.9481 41.3232 31.7432 41.3232 29.149V14.359C41.3232 13.8808 41.1607 13.4877 40.8358 13.1797C40.5109 12.8721 40.1263 12.7183 39.6818 12.7183H24.3178C23.8734 12.7183 23.4887 12.8721 23.1638 13.1797C22.8389 13.4877 22.6765 13.8808 22.6765 14.359V29.149C22.6765 31.7432 23.5892 33.9481 25.4145 35.7637C27.2398 37.5797 29.4443 38.4877 32.0278 38.4877ZM43.4765 29.1903C45.6818 28.985 47.5341 28.1208 49.0332 26.5977C50.5323 25.0745 51.2818 23.2448 51.2818 21.1083V19.9183C51.2818 19.4739 51.1281 19.0892 50.8205 18.7643C50.5125 18.4394 50.1194 18.277 49.6412 18.277H43.4765V29.1903Z" fill="#1C1B1F"/>
</g>
</g>
</svg>
