<svg width="18" height="20" viewBox="0 0 18 20" fill="none" xmlns="http://www.w3.org/2000/svg">
<path d="M7.94998 13.8155L11.6269 10.1386C11.7756 9.98987 11.9548 9.91392 12.1644 9.91072C12.374 9.9075 12.5564 9.98346 12.7115 10.1386C12.8666 10.2937 12.9442 10.4745 12.9442 10.6809C12.9442 10.8873 12.8666 11.068 12.7115 11.2232L8.58265 15.352C8.40188 15.5328 8.19099 15.6232 7.94998 15.6232C7.70896 15.6232 7.49807 15.5328 7.3173 15.352L5.28845 13.3232C5.13973 13.1745 5.06378 12.9953 5.06058 12.7857C5.05736 12.5761 5.13332 12.3937 5.28845 12.2386C5.44357 12.0835 5.62433 12.0059 5.83075 12.0059C6.03715 12.0059 6.21791 12.0835 6.37303 12.2386L7.94998 13.8155ZM2.3077 19.5001C1.80257 19.5001 1.375 19.3251 1.025 18.9751C0.675 18.6251 0.5 18.1975 0.5 17.6924V4.30784C0.5 3.80271 0.675 3.37514 1.025 3.02514C1.375 2.67514 1.80257 2.50014 2.3077 2.50014H3.69233V1.15397C3.69233 0.934749 3.76573 0.751741 3.91253 0.604941C4.05931 0.458157 4.24232 0.384766 4.46155 0.384766C4.68077 0.384766 4.86378 0.458157 5.01058 0.604941C5.15736 0.751741 5.23075 0.934749 5.23075 1.15397V2.50014H12.8077V1.13474C12.8077 0.921925 12.8794 0.743724 13.023 0.60014C13.1666 0.456557 13.3448 0.384766 13.5576 0.384766C13.7704 0.384766 13.9486 0.456557 14.0922 0.60014C14.2358 0.743724 14.3076 0.921925 14.3076 1.13474V2.50014H15.6923C16.1974 2.50014 16.625 2.67514 16.975 3.02514C17.325 3.37514 17.5 3.80271 17.5 4.30784V17.6924C17.5 18.1975 17.325 18.6251 16.975 18.9751C16.625 19.3251 16.1974 19.5001 15.6923 19.5001H2.3077ZM2.3077 18.0001H15.6923C15.7692 18.0001 15.8397 17.9681 15.9038 17.904C15.9679 17.8398 16 17.7693 16 17.6924V8.30784H1.99997V17.6924C1.99997 17.7693 2.03202 17.8398 2.09612 17.904C2.16024 17.9681 2.23077 18.0001 2.3077 18.0001Z" fill="#1B76FF"/>
</svg>
