<svg width="64" height="64" viewBox="0 0 64 64" fill="none" xmlns="http://www.w3.org/2000/svg">
<g id="event">
<mask id="mask0_4304_635" style="mask-type:alpha" maskUnits="userSpaceOnUse" x="0" y="0" width="64" height="64">
<rect id="Bounding box" width="64" height="64" fill="#D9D9D9"/>
</mask>
<g mask="url(#mask0_4304_635)">
<path id="event_2" d="M40.1918 48.6154C38.6554 48.6154 37.3503 48.0728 36.2765 46.9874C35.2032 45.9017 34.6665 44.5905 34.6665 43.0541C34.6665 41.5172 35.2092 40.2121 36.2945 39.1388C37.3803 38.065 38.6914 37.5281 40.2278 37.5281C41.7647 37.5281 43.0698 38.071 44.1432 39.1568C45.217 40.2421 45.7538 41.5532 45.7538 43.0901C45.7538 44.6265 45.2109 45.9317 44.1252 47.0054C43.0398 48.0788 41.7287 48.6154 40.1918 48.6154ZM14.3585 56.0001C13.3341 56.0001 12.4625 55.641 11.7438 54.9228C11.0256 54.2041 10.6665 53.3325 10.6665 52.3081V16.4101C10.6665 15.3857 11.0256 14.5141 11.7438 13.7954C12.4625 13.0772 13.3341 12.7181 14.3585 12.7181H19.8718V8.59476C19.8718 8.2641 19.9807 7.97965 20.1985 7.74143C20.4163 7.50365 20.6921 7.38477 21.0258 7.38477C21.3787 7.38477 21.6721 7.50365 21.9058 7.74143C22.1396 7.97965 22.2565 8.2641 22.2565 8.59476V12.7181H41.9485V8.50676C41.9485 8.16632 42.0523 7.8941 42.2598 7.6901C42.4678 7.48654 42.7267 7.38477 43.0365 7.38477C43.3654 7.38477 43.6381 7.49054 43.8545 7.7021C44.0709 7.91321 44.1792 8.17654 44.1792 8.4921V12.7181H49.6412C50.6656 12.7181 51.5372 13.0772 52.2558 13.7954C52.9741 14.5141 53.3332 15.3857 53.3332 16.4101V52.3081C53.3332 53.3325 52.9741 54.2041 52.2558 54.9228C51.5372 55.641 50.6656 56.0001 49.6412 56.0001H14.3585ZM14.3585 53.9488H49.6412C50.0514 53.9488 50.4274 53.7779 50.7692 53.4361C51.111 53.0943 51.2818 52.7183 51.2818 52.3081V28.0001H12.7178V52.3081C12.7178 52.7183 12.8887 53.0943 13.2305 53.4361C13.5723 53.7779 13.9483 53.9488 14.3585 53.9488ZM12.7178 25.9488H51.2818V16.4101C51.2818 15.9999 51.111 15.6239 50.7692 15.2821C50.4274 14.9403 50.0514 14.7694 49.6412 14.7694H14.3585C13.9483 14.7694 13.5723 14.9403 13.2305 15.2821C12.8887 15.6239 12.7178 15.9999 12.7178 16.4101V25.9488Z" fill="#1C1B1F"/>
</g>
</g>
</svg>
