<svg width="48" height="48" viewBox="0 0 48 48" fill="none" xmlns="http://www.w3.org/2000/svg">
<g id="fast_forward">
<mask id="mask0_4304_653" style="mask-type:alpha" maskUnits="userSpaceOnUse" x="0" y="0" width="48" height="48">
<rect id="Bounding box" width="48" height="48" fill="#D9D9D9"/>
</mask>
<g mask="url(#mask0_4304_653)">
<path id="fast_forward_2" d="M8.27686 30.6114V17.3884C8.27686 16.9474 8.41402 16.6064 8.68836 16.3654C8.96269 16.1244 9.28702 16.0039 9.66136 16.0039C9.82802 16.0039 9.97169 16.0224 10.0924 16.0594C10.2127 16.0967 10.3395 16.1654 10.4729 16.2654L20.1229 22.8269C20.3305 22.9679 20.4844 23.1402 20.5844 23.3439C20.6844 23.5479 20.7344 23.7666 20.7344 23.9999C20.7344 24.2332 20.6844 24.4519 20.5844 24.6559C20.4844 24.8596 20.3305 25.0319 20.1229 25.1729L10.4729 31.7344C10.3395 31.8344 10.2127 31.9031 10.0924 31.9404C9.97169 31.9774 9.82802 31.9959 9.66136 31.9959C9.28702 31.9959 8.96269 31.8754 8.68836 31.6344C8.41402 31.3934 8.27686 31.0524 8.27686 30.6114ZM26.2039 30.6114V17.3884C26.2039 16.9474 26.341 16.6064 26.6154 16.3654C26.8897 16.1244 27.214 16.0039 27.5884 16.0039C27.755 16.0039 27.8985 16.0224 28.0189 16.0594C28.1395 16.0967 28.2665 16.1654 28.3999 16.2654L38.0499 22.8269C38.2575 22.9679 38.4114 23.1402 38.5114 23.3439C38.6114 23.5479 38.6614 23.7666 38.6614 23.9999C38.6614 24.2332 38.6114 24.4519 38.5114 24.6559C38.4114 24.8596 38.2575 25.0319 38.0499 25.1729L28.3999 31.7344C28.2665 31.8344 28.1395 31.9031 28.0189 31.9404C27.8985 31.9774 27.755 31.9959 27.5884 31.9959C27.214 31.9959 26.8897 31.8754 26.6154 31.6344C26.341 31.3934 26.2039 31.0524 26.2039 30.6114Z" fill="#1C1B1F"/>
</g>
</g>
</svg>
