<svg width="48" height="33" viewBox="0 0 48 33" fill="none" xmlns="http://www.w3.org/2000/svg">
<path opacity="0.1" d="M40.275 33C39.025 33 38.0875 32.4875 37.4625 31.4625C36.8375 30.4375 36.8 29.375 37.35 28.275L40.95 21H31.5C30.25 21 29.1875 20.5625 28.3125 19.6875C27.4375 18.8125 27 17.75 27 16.5V4.5C27 3.25 27.4375 2.1875 28.3125 1.3125C29.1875 0.4375 30.25 0 31.5 0H43.5C44.75 0 45.8125 0.4375 46.6875 1.3125C47.5625 2.1875 48 3.25 48 4.5V20.55C48 20.9 47.9625 21.25 47.8875 21.6C47.8125 21.95 47.7 22.275 47.55 22.575L43.2 31.2C42.95 31.75 42.5625 32.1875 42.0375 32.5125C41.5125 32.8375 40.925 33 40.275 33ZM13.275 33C12.025 33 11.0875 32.4875 10.4625 31.4625C9.8375 30.4375 9.8 29.375 10.35 28.275L13.95 21H4.5C3.25 21 2.1875 20.5625 1.3125 19.6875C0.4375 18.8125 0 17.75 0 16.5V4.5C0 3.25 0.4375 2.1875 1.3125 1.3125C2.1875 0.4375 3.25 0 4.5 0H16.5C17.75 0 18.8125 0.4375 19.6875 1.3125C20.5625 2.1875 21 3.25 21 4.5V20.55C21 20.9 20.9625 21.25 20.8875 21.6C20.8125 21.95 20.7 22.275 20.55 22.575L16.2 31.2C15.95 31.75 15.5625 32.1875 15.0375 32.5125C14.5125 32.8375 13.925 33 13.275 33Z" fill="#263242"/>
</svg>
