<svg width="48" height="48" viewBox="0 0 48 48" fill="none" xmlns="http://www.w3.org/2000/svg">
<mask id="mask0_2000_2454" style="mask-type:alpha" maskUnits="userSpaceOnUse" x="0" y="0" width="48" height="48">
<rect width="48" height="48" fill="#D9D9D9"/>
</mask>
<g mask="url(#mask0_2000_2454)">
<path d="M7.96143 32C7.96143 30.6731 8.42456 29.5465 9.35083 28.6202C10.2771 27.6939 11.4037 27.2307 12.7306 27.2307H16.7306C19.0725 27.2307 20.8631 26.5643 22.1024 25.2314C23.3418 23.8985 23.9614 22.3085 23.9614 20.4615C23.9614 19.3949 23.629 18.5128 22.9643 17.8154C22.2995 17.118 21.4781 16.7693 20.4999 16.7693C19.8031 16.7693 19.2058 16.5204 18.708 16.0226C18.2103 15.5248 17.9614 14.9276 17.9614 14.2308V5.76925C17.9614 5.55065 18.0395 5.36778 18.1957 5.22065C18.3518 5.07355 18.5459 5 18.7779 5C18.9989 5 19.181 5.07355 19.3239 5.22065C19.4669 5.36778 19.5383 5.55065 19.5383 5.76925V14.2308C19.5794 14.5128 19.6755 14.75 19.8268 14.9423C19.9781 15.1346 20.2024 15.2308 20.4999 15.2308C21.8888 15.2308 23.0693 15.7226 24.0415 16.7064C25.0138 17.6902 25.4999 18.9419 25.4999 20.4615C25.4999 22.7413 24.732 24.6958 23.1962 26.3252C21.6605 27.9546 19.5053 28.7693 16.7306 28.7693H12.7306C11.8172 28.7693 11.0503 29.0793 10.4302 29.6995C9.80998 30.3197 9.49988 31.0865 9.49988 32V42.2308C9.49988 42.4494 9.42534 42.6322 9.27628 42.7794C9.12724 42.9264 8.94199 43 8.72053 43C8.49906 43 8.31718 42.9264 8.17488 42.7794C8.03258 42.6322 7.96143 42.4494 7.96143 42.2308V32ZM14.4614 40C14.4614 38.6731 14.9246 37.5465 15.8508 36.6202C16.7771 35.6939 17.9037 35.2307 19.2307 35.2307H27.2307C30.3637 35.2307 33.0188 34.1422 35.1958 31.9652C37.3729 29.7881 38.4614 27.1331 38.4614 24V22C38.4614 18.9385 37.4448 16.3013 35.4114 14.0885C33.3781 11.8757 30.8691 10.7693 27.8845 10.7693C26.963 10.7693 26.1621 10.4242 25.4818 9.73415C24.8016 9.04408 24.4614 8.24808 24.4614 7.34615V5.76925C24.4614 5.55065 24.536 5.36778 24.685 5.22065C24.8341 5.07355 25.0193 5 25.2408 5C25.4622 5 25.6441 5.07355 25.7864 5.22065C25.9287 5.36778 25.9999 5.55065 25.9999 5.76925V7.34615C25.9999 7.85898 26.1858 8.3013 26.5576 8.6731C26.9294 9.04487 27.3717 9.23075 27.8845 9.23075C31.2588 9.23075 34.1217 10.4961 36.473 13.0269C38.8242 15.5577 39.9999 18.5487 39.9999 22V24C39.9999 27.5317 38.7546 30.5428 36.264 33.0334C33.7735 35.524 30.7623 36.7693 27.2307 36.7693H19.2307C18.3172 36.7693 17.5504 37.0793 16.9302 37.6995C16.31 38.3197 15.9999 39.0865 15.9999 40V42.2308C15.9999 42.4494 15.9254 42.6322 15.7763 42.7794C15.6273 42.9264 15.442 43 15.2205 43C14.9991 43 14.8172 42.9264 14.6749 42.7794C14.5326 42.6322 14.4614 42.4494 14.4614 42.2308V40Z" fill="#263142"/>
</g>
</svg>
