<svg width="17" height="20" viewBox="0 0 17 20" fill="none" xmlns="http://www.w3.org/2000/svg">
<path d="M-0.00952148 14C-0.00952148 13.2361 0.257837 12.5868 0.792553 12.0521C1.32727 11.5174 1.97657 11.25 2.74045 11.25H4.74045C5.64324 11.25 6.4106 10.934 7.04255 10.3021C7.6745 9.67013 7.99048 8.90276 7.99048 7.99998C7.99048 7.65254 7.869 7.35734 7.62605 7.11438C7.3831 6.87143 7.0879 6.74995 6.74045 6.74995C6.25457 6.74995 5.84144 6.57976 5.50105 6.23938C5.16067 5.89901 4.99048 5.48588 4.99048 4.99998V0.999976C4.99048 0.787476 5.06327 0.609351 5.20885 0.465601C5.35445 0.321867 5.53486 0.25 5.75008 0.25C5.96256 0.25 6.14068 0.321867 6.28443 0.465601C6.42818 0.609351 6.50005 0.787476 6.50005 0.999976V4.99998C6.50005 5.07049 6.52249 5.12979 6.56738 5.17788C6.61224 5.22596 6.66994 5.25 6.74045 5.25C7.50434 5.25 8.15364 5.51736 8.68835 6.05208C9.22307 6.58679 9.49043 7.23609 9.49043 7.99998C9.49043 9.31414 9.02731 10.4343 8.10108 11.3606C7.17483 12.2868 6.05462 12.75 4.74045 12.75H2.74045C2.39302 12.75 2.09783 12.8714 1.85488 13.1144C1.61191 13.3573 1.49043 13.6525 1.49043 14V19C1.49043 19.2125 1.41853 19.3906 1.27473 19.5343C1.13091 19.6781 0.952712 19.75 0.740128 19.75C0.527528 19.75 0.349437 19.6781 0.205853 19.5344C0.0622699 19.3906 -0.00952148 19.2125 -0.00952148 19V14ZM3.50005 18C3.50005 17.2361 3.76741 16.5868 4.30213 16.0521C4.83684 15.5174 5.48614 15.25 6.25003 15.25H10.25C11.7025 15.25 12.9407 14.7381 13.9644 13.7144C14.9882 12.6906 15.5001 11.4525 15.5001 9.99998V8.99998C15.5001 7.56536 15.0158 6.3317 14.0472 5.299C13.0786 4.2663 11.8866 3.74995 10.4712 3.74995C9.92914 3.74995 9.46509 3.55573 9.07908 3.16728C8.69306 2.77881 8.50005 2.31598 8.50005 1.7788V0.999976C8.50005 0.787476 8.57196 0.609351 8.71578 0.465601C8.85958 0.321867 9.03778 0.25 9.25038 0.25C9.46296 0.25 9.64104 0.321867 9.78463 0.465601C9.92823 0.609351 10 0.787476 10 0.999976V1.7788C10 1.90702 10.0465 2.0176 10.1395 2.11055C10.2324 2.20352 10.343 2.25 10.4712 2.25C12.3122 2.25 13.8606 2.90993 15.1164 4.2298C16.3721 5.54967 17 7.13973 17 8.99998V9.99998C17 11.8803 16.3451 13.4754 15.0353 14.7852C13.7255 16.095 12.1304 16.75 10.25 16.75H6.25003C5.90259 16.75 5.6074 16.8714 5.36445 17.1144C5.1215 17.3573 5.00003 17.6525 5.00003 18V19C5.00003 19.2125 4.92812 19.3906 4.7843 19.5343C4.64049 19.6781 4.46229 19.75 4.2497 19.75C4.0371 19.75 3.85901 19.6781 3.71543 19.5344C3.57184 19.3906 3.50005 19.2125 3.50005 19V18Z" fill="#1B76FF"/>
</svg>
