<svg width="60" height="60" viewBox="0 0 60 60" fill="none" xmlns="http://www.w3.org/2000/svg">
<g clip-path="url(#clip0_2203_6671)">
<rect width="60" height="60" rx="10" fill="white"/>
<g clip-path="url(#clip1_2203_6671)">
<path d="M39.1551 36.2425C38.8386 36.2437 38.5344 36.1185 38.3089 35.8941C38.0833 35.6698 37.9545 35.3645 37.9506 35.0447V18.0198H31.8984V36.2661C31.9001 37.8838 32.5367 39.4348 33.6684 40.5789C34.8002 41.723 36.3349 42.3667 37.9357 42.369H46.9619V36.2468L39.1551 36.2425Z" fill="#0A7BA9"/>
<path d="M30.6938 34.4673H24.6714V42.3626H30.6938V34.4673Z" fill="#0A7BA9"/>
<path d="M30.6938 18.0219H24.6714V25.915H30.6938V18.0219Z" fill="#0A7BA9"/>
<path d="M18.4964 25.9151V18.0198H12.4761V29.1823C13.1347 28.1778 14.0292 27.3538 15.0797 26.7837C16.1301 26.2136 17.304 25.9152 18.4964 25.9151Z" fill="#0A7BA9"/>
<path d="M18.4963 27.1322C16.8954 27.1345 15.3608 27.7783 14.229 28.9223C13.0972 30.0664 12.4607 31.6174 12.459 33.2351V42.3626H18.5133V34.4458C18.5216 34.1286 18.6521 33.8272 18.8771 33.6059C19.1021 33.3845 19.4037 33.2607 19.7177 33.2608H30.6898V27.1322H18.4963Z" fill="#0A7BA9"/>
</g>
</g>
<defs>
<clipPath id="clip0_2203_6671">
<rect width="60" height="60" rx="10" fill="white"/>
</clipPath>
<clipPath id="clip1_2203_6671">
<rect width="34.6528" height="24.2569" fill="white" transform="translate(12.459 18.0198)"/>
</clipPath>
</defs>
</svg>
