<svg width="21" height="18" viewBox="0 0 21 18" fill="none" xmlns="http://www.w3.org/2000/svg">
<path d="M6.98849 15.2001C6.98849 14.836 7.03945 14.4777 7.14136 14.1251C7.2433 13.7726 7.40451 13.4424 7.62501 13.1347C7.76476 12.9322 7.87278 12.7139 7.94906 12.4799C8.02535 12.246 8.06349 12.0027 8.06349 11.7501C8.06349 11.4706 8.01189 11.2046 7.90869 10.952C7.80547 10.6995 7.69745 10.4469 7.58464 10.1943C7.43079 9.89049 7.3013 9.58152 7.19619 9.26742C7.09105 8.95332 7.03849 8.63088 7.03849 8.30012V4.88477C7.03849 4.4104 6.88304 4.00013 6.57214 3.65397C6.26124 3.30782 5.87502 3.13474 5.41349 3.13474C5.02502 3.13474 4.68143 3.25301 4.38271 3.48954C4.08398 3.72609 3.89936 4.02385 3.82886 4.38282C4.38911 4.55462 4.85257 4.88026 5.21924 5.35974C5.5859 5.83922 5.76924 6.38602 5.76924 7.00012C5.76924 7.76293 5.50161 8.41197 4.96636 8.94722C4.43111 9.48247 3.78208 9.75009 3.01926 9.75009C2.25645 9.75009 1.60741 9.48247 1.07216 8.94722C0.536912 8.41197 0.269287 7.76293 0.269287 7.00012C0.269287 6.3591 0.464154 5.79467 0.853887 5.30684C1.24364 4.81902 1.7353 4.50077 2.32889 4.35207C2.4058 3.57387 2.73978 2.92643 3.33081 2.40977C3.92183 1.8931 4.61605 1.63477 5.41349 1.63477C5.5045 1.63477 5.59392 1.63893 5.68174 1.64727C5.76955 1.6556 5.85898 1.67002 5.95001 1.69054C6.63846 1.30721 7.36762 1.03542 8.13749 0.875166C8.90737 0.7149 9.69487 0.634766 10.5 0.634766C11.3013 0.634766 12.0868 0.7149 12.8567 0.875166C13.6266 1.03542 14.3557 1.30721 15.0442 1.69054C15.1288 1.67002 15.2166 1.6556 15.3077 1.64727C15.3987 1.63893 15.4865 1.63477 15.5711 1.63477C16.3788 1.63477 17.0781 1.8931 17.6692 2.40977C18.2602 2.92643 18.5942 3.57387 18.6711 4.35207C19.2647 4.50718 19.7547 4.82705 20.1413 5.31167C20.5278 5.79628 20.7211 6.3591 20.7211 7.00012C20.7211 7.76293 20.4535 8.41197 19.9182 8.94722C19.383 9.48247 18.7339 9.75009 17.9711 9.75009C17.2083 9.75009 16.5593 9.48247 16.024 8.94722C15.4887 8.41197 15.2211 7.76293 15.2211 7.00012C15.2211 6.38602 15.4044 5.83762 15.7711 5.35494C16.1378 4.87224 16.6044 4.5482 17.1711 4.38282C17.0942 4.02385 16.908 3.72609 16.6125 3.48954C16.3169 3.25301 15.9698 3.13474 15.5711 3.13474C15.1096 3.13474 14.7259 3.30782 14.4201 3.65397C14.1144 4.00013 13.9615 4.4104 13.9615 4.88477V8.30012C13.9615 8.63088 13.9064 8.95332 13.7961 9.26742C13.6858 9.58152 13.5589 9.89049 13.4153 10.1943C13.2923 10.4469 13.1817 10.6995 13.0836 10.952C12.9855 11.2046 12.9365 11.4706 12.9365 11.7501C12.9365 12.0027 12.973 12.2476 13.0461 12.4847C13.1192 12.7219 13.232 12.9418 13.3846 13.1444C13.5884 13.4585 13.7439 13.7886 13.8509 14.1347C13.958 14.4809 14.0115 14.836 14.0115 15.2001C14.0115 15.4976 13.9772 15.7867 13.9086 16.0674C13.84 16.3482 13.7423 16.6206 13.6153 16.8847L13.4269 17.252C13.3256 17.4995 13.1394 17.6491 12.8682 17.701C12.5971 17.753 12.4455 17.7693 12.4134 17.7501C12.2378 17.5873 12.1128 17.402 12.0385 17.1943C11.9641 16.9866 11.9776 16.7796 12.0788 16.5732L12.2577 16.2155C12.3474 16.0629 12.4122 15.9021 12.4519 15.7328C12.4916 15.5636 12.5115 15.386 12.5115 15.2001C12.5115 14.9745 12.475 14.7588 12.4019 14.553C12.3288 14.3472 12.2359 14.1482 12.1231 13.9559C11.8961 13.6418 11.725 13.2975 11.6096 12.9232C11.4942 12.5488 11.4365 12.1661 11.4365 11.7751C11.4365 11.411 11.4907 11.0661 11.599 10.7405C11.7073 10.4149 11.8436 10.095 12.0077 9.78089C12.1205 9.53474 12.2243 9.28955 12.3192 9.04532C12.4141 8.80108 12.4615 8.55268 12.4615 8.30012V4.88477C12.4615 4.43348 12.5465 4.00944 12.7163 3.61264C12.8862 3.21584 13.1231 2.88026 13.4269 2.60589C12.9615 2.43411 12.4836 2.31263 11.9933 2.24147C11.5029 2.17032 11.0051 2.13474 10.5 2.13474C9.99485 2.13474 9.4955 2.17032 9.00191 2.24147C8.50831 2.31263 8.03202 2.43411 7.57304 2.60589C7.8769 2.88026 8.11377 3.21584 8.28364 3.61264C8.45352 4.00944 8.53846 4.43348 8.53846 4.88477V8.30012C8.53846 8.5591 8.58333 8.81327 8.67306 9.06262C8.76281 9.31198 8.86923 9.55462 8.99231 9.79052C9.14615 10.1046 9.2798 10.4245 9.39326 10.7501C9.50673 11.0758 9.56346 11.4174 9.56346 11.7751C9.56346 12.1661 9.50577 12.5463 9.39039 12.9155C9.275 13.2847 9.10705 13.6315 8.88654 13.9559C8.75705 14.1482 8.65834 14.3472 8.59039 14.553C8.52244 14.7588 8.48846 14.9745 8.48846 15.2001C8.48846 15.386 8.50994 15.5636 8.55289 15.7328C8.59584 15.9021 8.65898 16.0629 8.74231 16.2155L8.92114 16.5828C9.016 16.7687 9.02882 16.9571 8.95959 17.1482C8.89037 17.3392 8.76281 17.4854 8.57691 17.5866C8.39103 17.6815 8.20097 17.6959 8.00674 17.6299C7.8125 17.5639 7.66795 17.4379 7.57309 17.252L7.38464 16.8847C7.24105 16.6206 7.13913 16.3482 7.07886 16.0674C7.01861 15.7867 6.98849 15.4976 6.98849 15.2001ZM3.01926 8.25014C3.3667 8.25014 3.66189 8.12867 3.90484 7.88572C4.14779 7.64275 4.26926 7.34755 4.26926 7.00012C4.26926 6.65268 4.14779 6.35748 3.90484 6.11452C3.66189 5.87157 3.3667 5.75009 3.01926 5.75009C2.67181 5.75009 2.37661 5.87157 2.13366 6.11452C1.89071 6.35748 1.76924 6.65268 1.76924 7.00012C1.76924 7.34755 1.89071 7.64275 2.13366 7.88572C2.37661 8.12867 2.67181 8.25014 3.01926 8.25014ZM17.9711 8.25014C18.3185 8.25014 18.6137 8.12867 18.8567 7.88572C19.0996 7.64275 19.2211 7.34755 19.2211 7.00012C19.2211 6.65268 19.0996 6.35748 18.8567 6.11452C18.6137 5.87157 18.3185 5.75009 17.9711 5.75009C17.6237 5.75009 17.3285 5.87157 17.0855 6.11452C16.8426 6.35748 16.7211 6.65268 16.7211 7.00012C16.7211 7.34755 16.8426 7.64275 17.0855 7.88572C17.3285 8.12867 17.6237 8.25014 17.9711 8.25014Z" fill="#B0B5BD"/>
</svg>
