<svg width="48" height="48" viewBox="0 0 48 48" fill="none" xmlns="http://www.w3.org/2000/svg">
<mask id="mask0_2068_4270" style="mask-type:alpha" maskUnits="userSpaceOnUse" x="0" y="0" width="48" height="48">
<rect width="48" height="48" fill="#D9D9D9"/>
</mask>
<g mask="url(#mask0_2068_4270)">
<path d="M18.2846 36.3851C18.2846 35.713 18.3785 35.0628 18.5663 34.4346C18.7541 33.8064 19.0384 33.2231 19.4192 32.6846C19.7372 32.2 19.9859 31.696 20.1654 31.1725C20.3449 30.649 20.4346 30.0977 20.4346 29.5186C20.4346 28.9117 20.3282 28.3268 20.1154 27.7638C19.9026 27.2008 19.65 26.6436 19.3577 26.0923C19.1167 25.5179 18.8942 24.9439 18.6904 24.3701C18.4865 23.7963 18.3846 23.2063 18.3846 22.6V16.3077C18.3846 15.1795 18.0528 14.1923 17.3891 13.3462C16.7254 12.5 15.8586 12.0769 14.7885 12.0769C13.8391 12.0769 13.019 12.3327 12.3284 12.8443C11.6377 13.3558 11.2462 14.0372 11.1539 14.8885C12.2794 15.1429 13.2147 15.7215 13.9596 16.6243C14.7045 17.527 15.0769 18.5741 15.0769 19.7657C15.0769 21.1527 14.5897 22.3333 13.6154 23.3077C12.641 24.2821 11.4615 24.7693 10.0769 24.7693C8.6923 24.7693 7.51282 24.2821 6.53845 23.3077C5.56409 22.3333 5.0769 21.1539 5.0769 19.7693C5.0769 18.4487 5.51344 17.3154 6.3865 16.3693C7.2596 15.4231 8.33589 14.8974 9.61536 14.7923C9.74869 13.5513 10.314 12.532 11.3112 11.7346C12.3083 10.9372 13.4674 10.5385 14.7885 10.5385C14.9244 10.5385 15.0538 10.5487 15.1769 10.5692C15.3 10.5897 15.4241 10.6077 15.5493 10.6231C16.801 9.84102 18.1466 9.29807 19.5859 8.9942C21.0251 8.69037 22.4926 8.53845 23.9884 8.53845C25.5028 8.53845 26.9833 8.69037 28.43 8.9942C29.8767 9.29807 31.2259 9.84102 32.4777 10.6231C32.5772 10.6077 32.6992 10.5897 32.8436 10.5692C32.988 10.5487 33.1197 10.5385 33.2385 10.5385C34.5128 10.5385 35.6516 10.9334 36.6547 11.7234C37.6578 12.5133 38.2178 13.5196 38.3347 14.7423C39.6141 14.8731 40.6923 15.4135 41.5693 16.3635C42.4462 17.3135 42.8847 18.4487 42.8847 19.7693C42.8847 21.1539 42.3975 22.3333 41.4231 23.3077C40.4487 24.2821 39.2693 24.7693 37.8847 24.7693C36.5 24.7693 35.3205 24.2821 34.3462 23.3077C33.3718 22.3333 32.8846 21.1539 32.8846 19.7693C32.8846 18.5462 33.2513 17.484 33.9846 16.5827C34.7179 15.6814 35.6551 15.1167 36.7962 14.8885C36.7039 14.0295 36.3155 13.3462 35.6311 12.8385C34.9467 12.3308 34.1491 12.0769 33.2385 12.0769C32.155 12.0769 31.2803 12.5 30.6144 13.3462C29.9484 14.1923 29.6154 15.1795 29.6154 16.3077V22.6C29.6154 23.2083 29.5116 23.8002 29.3039 24.3759C29.0962 24.9515 28.8551 25.5237 28.5808 26.0923C28.3218 26.6497 28.0878 27.2072 27.8789 27.7646C27.6699 28.322 27.5654 28.901 27.5654 29.5014C27.5654 30.0774 27.6532 30.6455 27.8289 31.2058C28.0045 31.766 28.2513 32.2718 28.5693 32.7231C28.9513 33.2718 29.2378 33.8611 29.4289 34.4911C29.6199 35.1211 29.7154 35.7589 29.7154 36.4046C29.7154 36.9423 29.6512 37.4642 29.5229 37.9701C29.3945 38.476 29.2177 38.9706 28.9923 39.4539L28.6308 40.127C28.5248 40.3129 28.3554 40.451 28.1225 40.5414C27.8896 40.6318 27.709 40.6385 27.5808 40.5616C27.4013 40.4334 27.275 40.2552 27.2019 40.027C27.1288 39.7987 27.1538 39.5872 27.2769 39.3923L27.55 38.7577C27.7423 38.3987 27.8949 38.0203 28.0077 37.6223C28.1205 37.2244 28.177 36.8086 28.177 36.375C28.177 35.8737 28.0975 35.3782 27.9385 34.8885C27.7795 34.3987 27.5539 33.9321 27.2616 33.4885C26.8462 32.9244 26.5365 32.3067 26.3327 31.6356C26.1289 30.9644 26.027 30.2772 26.027 29.5738C26.027 28.9092 26.1353 28.2776 26.352 27.6789C26.5686 27.0801 26.818 26.4769 27.1 25.8693C27.3333 25.3513 27.5545 24.8183 27.7635 24.2703C27.9725 23.7222 28.077 23.1655 28.077 22.6V16.2837C28.077 15.2517 28.3039 14.2951 28.7577 13.414C29.2115 12.5329 29.8333 11.8474 30.6231 11.3577C29.5894 10.8919 28.5164 10.562 27.4041 10.368C26.2917 10.1739 25.1576 10.0769 24.0018 10.0769C22.8579 10.0769 21.7287 10.1731 20.6142 10.3654C19.4996 10.5577 18.4333 10.8885 17.4154 11.3577C18.1795 11.8474 18.7885 12.5357 19.2423 13.4224C19.6961 14.309 19.9231 15.264 19.9231 16.2872V22.5875C19.9231 23.2061 20.0192 23.7846 20.2116 24.3231C20.4039 24.8615 20.6333 25.3897 20.9 25.9077C21.1744 26.4897 21.4218 27.086 21.6423 27.6966C21.8628 28.3071 21.9731 28.9263 21.9731 29.5542C21.9731 30.2668 21.8652 30.959 21.6495 31.6309C21.4337 32.3027 21.1262 32.9219 20.7269 33.4885C20.4346 33.9321 20.2109 34.4029 20.0558 34.901C19.9006 35.3991 19.8231 35.9011 19.8231 36.4072C19.8231 36.8203 19.8776 37.2256 19.9866 37.6231C20.0955 38.0205 20.2333 38.3987 20.4 38.7577L20.7116 39.4307C20.8013 39.6436 20.8051 39.841 20.7231 40.0231C20.641 40.2051 20.5064 40.3474 20.3193 40.45C20.1321 40.5269 19.9429 40.5391 19.7519 40.4866C19.5609 40.434 19.4295 40.3141 19.3577 40.127L18.9577 39.4539C18.7186 38.9683 18.5467 38.4709 18.4419 37.9617C18.337 37.4524 18.2846 36.9269 18.2846 36.3851ZM10.0769 23.2308C11.0551 23.2308 11.8766 22.8984 12.5414 22.2337C13.2061 21.5689 13.5385 20.7475 13.5385 19.7693C13.5385 18.791 13.2061 17.9695 12.5414 17.3048C11.8766 16.6401 11.0551 16.3077 10.0769 16.3077C9.0987 16.3077 8.27724 16.6401 7.6125 17.3048C6.94774 17.9695 6.61535 18.791 6.61535 19.7693C6.61535 20.7475 6.94774 21.5689 7.6125 22.2337C8.27724 22.8984 9.0987 23.2308 10.0769 23.2308ZM37.8847 23.2308C38.8629 23.2308 39.6843 22.8984 40.3491 22.2337C41.0138 21.5689 41.3462 20.7475 41.3462 19.7693C41.3462 18.791 41.0138 17.9695 40.3491 17.3048C39.6843 16.6401 38.8629 16.3077 37.8847 16.3077C36.9064 16.3077 36.0849 16.6401 35.4202 17.3048C34.7555 17.9695 34.4231 18.791 34.4231 19.7693C34.4231 20.7475 34.7555 21.5689 35.4202 22.2337C36.0849 22.8984 36.9064 23.2308 37.8847 23.2308Z" fill="#212429"/>
</g>
</svg>
