<svg width="140" height="64" viewBox="0 0 140 64" fill="none" xmlns="http://www.w3.org/2000/svg">
<rect width="140.001" height="64" rx="16" fill="white"/>
<path d="M31.0278 27.0791V18H24.019V30.8361C24.7858 29.6811 25.8271 28.7335 27.0501 28.0779C28.2731 27.4223 29.6396 27.0792 31.0278 27.0791Z" fill="#B0B5BD"/>
<path d="M55.0802 38.955C54.7117 38.9563 54.3576 38.8123 54.095 38.5543C53.8324 38.2964 53.6825 37.9453 53.6779 37.5775V18H46.632V38.9821C46.6339 40.8423 47.375 42.6259 48.6926 43.9415C50.0102 45.2571 51.7969 45.9974 53.6606 46H64.1689V38.9599L55.0802 38.955Z" fill="#B0B5BD"/>
<path d="M45.2291 36.9138H38.2178V45.9929H45.2291V36.9138Z" fill="#B0B5BD"/>
<path d="M38.2178 18.0026H45.2291V27.0792H38.2178V18.0026Z" fill="#B0B5BD"/>
<path d="M26.0606 30.5374C27.3783 29.2218 29.1649 28.4815 31.0286 28.4789H45.2243V35.5264H32.4506C32.0851 35.5263 31.7339 35.6686 31.472 35.9232C31.2101 36.1777 31.0581 36.5243 31.0484 36.889V45.9928H24V35.4968C24.002 33.6365 24.743 31.853 26.0606 30.5374Z" fill="#B0B5BD"/>
<path d="M69.7357 18V22.8506H73.9721V18H76.747V30.6115H73.9721V25.5264H69.7357V30.6115H66.9608V18H69.7357Z" fill="#B0B5BD"/>
<path fill-rule="evenodd" clip-rule="evenodd" d="M82.4419 28.9725C81.7346 28.9725 81.1922 28.7899 80.8146 28.4245C80.4387 28.0617 80.2309 27.4742 80.1963 26.6694H86.7897C86.8369 25.9879 86.7769 25.3033 86.6116 24.6403C86.4575 24.0181 86.1846 23.4314 85.8078 22.9124C85.4341 22.4047 84.9473 21.9906 84.3858 21.7028C83.7598 21.3869 83.0667 21.226 82.3652 21.2338C81.7134 21.2262 81.067 21.3523 80.4659 21.6041C79.908 21.8387 79.4043 22.1852 78.9861 22.6222C78.5679 23.0591 78.2441 23.5772 78.0348 24.1442C77.8083 24.7538 77.6952 25.3996 77.701 26.0498C77.6939 26.7108 77.8044 27.3677 78.0274 27.9901C78.2296 28.5532 78.5452 29.069 78.9548 29.5057C79.365 29.9384 79.8658 30.2756 80.4214 30.4931C81.0416 30.7297 81.7013 30.8462 82.3652 30.8362C83.2941 30.8638 84.211 30.6211 85.0041 30.1377C85.7328 29.667 86.2744 28.8845 86.6289 27.7901H84.4204C84.2943 28.1262 84.057 28.4093 83.7477 28.5924C83.3629 28.852 82.9063 28.9849 82.4419 28.9725ZM82.2836 23.1346C82.8945 23.1346 83.352 23.2975 83.6513 23.6283C83.9934 24.0397 84.2143 24.5379 84.2893 25.0674H80.2062C80.2227 24.8638 80.2617 24.6626 80.3225 24.4675C80.3914 24.2352 80.5057 24.0187 80.6588 23.8307C80.8337 23.6235 81.0502 23.4553 81.2944 23.337C81.6039 23.1938 81.9426 23.1245 82.2836 23.1346Z" fill="#B0B5BD"/>
<path fill-rule="evenodd" clip-rule="evenodd" d="M88.1679 22.8332C88.4224 22.4506 88.7606 22.1307 89.1571 21.8977C89.5769 21.658 90.0343 21.4911 90.5099 21.404C91.0073 21.3033 91.5135 21.2529 92.021 21.2534C92.4876 21.2533 92.9537 21.2855 93.4158 21.3497C93.8633 21.4089 94.2988 21.5372 94.7068 21.7298C95.0842 21.9091 95.4113 22.1788 95.659 22.5148C95.9234 22.9067 96.0544 23.3733 96.0324 23.8453V28.5848C96.0308 28.9791 96.0539 29.3732 96.1017 29.7647C96.1238 30.0611 96.2081 30.3496 96.349 30.6114H93.8041C93.7575 30.4698 93.7195 30.3256 93.6904 30.1794C93.6599 30.0312 93.6393 29.8811 93.6285 29.7302C93.24 30.1357 92.7525 30.4334 92.2139 30.5941C91.6754 30.7586 91.1152 30.8418 90.552 30.841C90.1411 30.8441 89.7316 30.791 89.3352 30.683C88.9756 30.5862 88.6392 30.4183 88.3459 30.1893C88.0625 29.9663 87.8348 29.6807 87.6807 29.3549C87.5101 28.9722 87.4257 28.5568 87.4334 28.138C87.4163 27.6958 87.5098 27.2564 87.7054 26.8593C87.8755 26.5407 88.1177 26.266 88.4127 26.0571C88.7136 25.8506 89.0484 25.6985 89.402 25.6078C89.7705 25.5045 90.1445 25.4221 90.5223 25.3609C90.9007 25.3017 91.2642 25.2548 91.6377 25.2202C91.965 25.1911 92.2899 25.1383 92.6096 25.0623C92.8526 25.0087 93.0812 24.9034 93.2798 24.7537C93.3638 24.6813 93.4288 24.5894 93.4689 24.4861C93.509 24.3828 93.523 24.2713 93.5098 24.1613C93.5204 23.9387 93.4744 23.7171 93.3763 23.517C93.293 23.3647 93.1711 23.237 93.0226 23.1467C92.865 23.0556 92.6911 22.9961 92.5107 22.9714C92.3026 22.9419 92.0927 22.927 91.8825 22.927C91.4703 22.9047 91.0619 23.0155 90.7177 23.243C90.5648 23.3745 90.4416 23.5369 90.3564 23.7194C90.2711 23.902 90.2256 24.1005 90.2231 24.302H87.7252C87.739 23.7818 87.8918 23.2747 88.1679 22.8332ZM93.1141 26.3705C92.9462 26.4248 92.7753 26.4693 92.6022 26.5038C92.4192 26.5384 92.2288 26.568 92.0284 26.5902C91.8281 26.6125 91.6278 26.6446 91.4275 26.6791C91.2383 26.7138 91.0516 26.7608 90.8685 26.8198C90.6974 26.8746 90.5368 26.9581 90.3937 27.0667C90.257 27.1663 90.1446 27.2954 90.0648 27.4443C89.978 27.6259 89.9364 27.8258 89.9436 28.0269C89.9364 28.2224 89.978 28.4167 90.0648 28.5922C90.1436 28.7395 90.2595 28.8637 90.4011 28.9526C90.5523 29.0459 90.7203 29.1088 90.8957 29.1377C91.0874 29.1731 91.282 29.1913 91.4769 29.192C91.8755 29.2142 92.2727 29.1289 92.6269 28.9452C92.8744 28.8019 93.0812 28.598 93.2279 28.3527C93.3542 28.1386 93.4381 27.9023 93.4752 27.6566C93.5024 27.4694 93.5173 27.2805 93.5197 27.0913V26.1459C93.4049 26.2474 93.2701 26.3239 93.124 26.3705H93.1141Z" fill="#B0B5BD"/>
<path d="M99.9402 30.6115V18H97.43V30.6115H99.9402Z" fill="#B0B5BD"/>
<path d="M106.495 21.2337V23.169H104.658V27.6839C104.658 28.1084 104.727 28.3898 104.868 28.5305C105.009 28.6712 105.293 28.7428 105.716 28.7428C105.852 28.746 105.989 28.7402 106.124 28.7256C106.248 28.7132 106.371 28.6959 106.495 28.6712V30.6115C106.261 30.6501 106.025 30.674 105.788 30.6831C105.664 30.6831 105.536 30.6874 105.408 30.6917C105.28 30.696 105.152 30.7003 105.028 30.7003C104.659 30.7012 104.289 30.6748 103.923 30.6214C103.6 30.5771 103.289 30.4724 103.005 30.3128C102.738 30.159 102.52 29.932 102.377 29.6586C102.209 29.3132 102.13 28.9314 102.147 28.5478V23.169H100.626V21.2337H102.15V18H104.66V21.2337H106.495Z" fill="#B0B5BD"/>
<path d="M109.939 22.7642V18H107.429V30.6115H109.939V25.8325C109.939 24.9043 110.092 24.2354 110.399 23.8306C110.705 23.4257 111.2 23.2208 111.883 23.2208C112.484 23.2208 112.906 23.4035 113.139 23.7762C113.371 24.149 113.49 24.7093 113.49 25.4622V30.6115H116V25.0031C116.006 24.4849 115.955 23.9676 115.85 23.4603C115.768 23.0316 115.59 22.6272 115.328 22.2779C115.063 21.94 114.713 21.6785 114.314 21.5201C113.786 21.3197 113.223 21.2266 112.659 21.2461C112.155 21.2542 111.66 21.3784 111.212 21.6089C110.699 21.8637 110.275 22.2661 109.993 22.7642H109.939Z" fill="#B0B5BD"/>
<path d="M69.7357 33.3987V43.3837H75.8839V45.9929H66.9608V33.4036L69.7357 33.3987Z" fill="#B0B5BD"/>
<path d="M76.9767 33.4083V35.8768H79.4869V33.4083H76.9767Z" fill="#B0B5BD"/>
<path d="M79.4869 45.9976V36.8642H76.9767V45.9976H79.4869Z" fill="#B0B5BD"/>
<path d="M83.4089 36.8717V38.1429H83.4609C83.7471 37.6423 84.1781 37.2396 84.6974 36.9877C85.1809 36.7508 85.712 36.6267 86.2505 36.6248C86.8148 36.6053 87.3773 36.6985 87.9051 36.8988C88.3032 37.0593 88.6527 37.3204 88.9191 37.6566C89.1785 38.0074 89.3568 38.4112 89.4409 38.839C89.5466 39.3464 89.5972 39.8637 89.5917 40.3818V45.9927H87.084V40.841C87.084 40.0889 86.9669 39.5277 86.7328 39.1575C86.4987 38.7872 86.0799 38.6021 85.4765 38.6021C84.7939 38.6021 84.2993 38.8045 83.9926 39.2093C83.6859 39.6141 83.5326 40.2831 83.5326 41.2112V45.9927H81.0248V36.8717H83.4089Z" fill="#B0B5BD"/>
<path d="M93.4524 40.1525V33.3987L90.9422 33.4036V45.9929H93.4524V42.853L94.4244 41.9174L96.9346 45.9855H99.9716L96.1382 40.2166L99.5833 36.8719H96.6155L93.4524 40.1525Z" fill="#B0B5BD"/>
</svg>
