<svg width="64" height="64" viewBox="0 0 64 64" fill="none" xmlns="http://www.w3.org/2000/svg">
<mask id="mask0_2179_3097" style="mask-type:alpha" maskUnits="userSpaceOnUse" x="0" y="0" width="64" height="64">
<rect width="64" height="64" fill="#D9D9D9"/>
</mask>
<g mask="url(#mask0_2179_3097)">
<path d="M29.9334 36.7333V41.3333C29.9334 41.9074 30.1347 42.3953 30.5373 42.7972C30.9399 43.199 31.4288 43.4 32.004 43.4C32.5791 43.4 33.0667 43.199 33.4667 42.7972C33.8667 42.3953 34.0667 41.9074 34.0667 41.3333V36.7333H38.6667C39.2408 36.7333 39.7287 36.532 40.1306 36.1294C40.5324 35.7267 40.7334 35.2379 40.7334 34.6627C40.7334 34.0875 40.5324 33.6 40.1306 33.2C39.7287 32.8 39.2408 32.6 38.6667 32.6H34.0667V28C34.0667 27.4259 33.8654 26.9379 33.4628 26.5361C33.0601 26.1342 32.5713 25.9333 31.9961 25.9333C31.4209 25.9333 30.9334 26.1342 30.5334 26.5361C30.1334 26.9379 29.9334 27.4259 29.9334 28V32.6H25.3334C24.7593 32.6 24.2713 32.8013 23.8695 33.2039C23.4676 33.6065 23.2667 34.0954 23.2667 34.6706C23.2667 35.2457 23.4676 35.7333 23.8695 36.1333C24.2713 36.5333 24.7593 36.7333 25.3334 36.7333H29.9334ZM17.7334 52.5333C16.7778 52.5333 15.9389 52.1722 15.2167 51.45C14.4945 50.7277 14.1334 49.8889 14.1334 48.9333V27.5333C14.1334 26.9333 14.25 26.3889 14.4834 25.9C14.7167 25.4111 15.0889 25 15.6 24.6666L29.8667 13.8666C30.4605 13.3777 31.1645 13.1333 31.9787 13.1333C32.7929 13.1333 33.5111 13.3777 34.1334 13.8666L48.4 24.6666C48.9111 25 49.2834 25.4111 49.5167 25.9C49.75 26.3889 49.8667 26.9333 49.8667 27.5333V48.9333C49.8667 49.8889 49.5056 50.7277 48.7834 51.45C48.0611 52.1722 47.2222 52.5333 46.2667 52.5333H17.7334ZM17.7334 51.0666H46.2667C46.8889 51.0666 47.4 50.8666 47.8 50.4666C48.2 50.0666 48.4 49.5555 48.4 48.9333V27.4666C48.4 27.1111 48.3222 26.7777 48.1667 26.4666C48.0111 26.1555 47.8 25.9111 47.5334 25.7333L33.2667 15.1333C32.9111 14.8222 32.4889 14.6666 32 14.6666C31.5111 14.6666 31.0889 14.8222 30.7334 15.1333L16.4667 25.7333C16.2 25.9111 15.9889 26.1555 15.8334 26.4666C15.6778 26.7777 15.6 27.1111 15.6 27.4666V48.9333C15.6 49.5555 15.8 50.0666 16.2 50.4666C16.6 50.8666 17.1111 51.0666 17.7334 51.0666Z" fill="#3FB8A6"/>
</g>
</svg>
