<svg width="20" height="20" viewBox="0 0 20 20" fill="none" xmlns="http://www.w3.org/2000/svg">
<g id="how_to_reg">
<mask id="mask0_4154_652" style="mask-type:alpha" maskUnits="userSpaceOnUse" x="0" y="0" width="20" height="20">
<rect id="Bounding box" width="20" height="20" fill="#D9D9D9"/>
</mask>
<g mask="url(#mask0_4154_652)">
<path id="how_to_reg_2" d="M8 10C7.16667 10 6.45833 9.70833 5.875 9.125C5.29167 8.54167 5 7.83333 5 7C5 6.16667 5.29167 5.45833 5.875 4.875C6.45833 4.29167 7.16667 4 8 4C8.83333 4 9.54167 4.29167 10.125 4.875C10.7083 5.45833 11 6.16667 11 7C11 7.83333 10.7083 8.54167 10.125 9.125C9.54167 9.70833 8.83333 10 8 10ZM3.5 16C3.08333 16 2.72917 15.8542 2.4375 15.5625C2.14583 15.2708 2 14.9167 2 14.5V14.0833C2 13.7222 2.08681 13.3924 2.26042 13.0938C2.43403 12.7951 2.67361 12.5556 2.97917 12.375C3.72917 11.9306 4.52778 11.5903 5.375 11.3542C6.22222 11.1181 7.09722 11 8 11C8.16667 11 8.33681 11.0104 8.51042 11.0312C8.68403 11.0521 8.85417 11.0764 9.02083 11.1042C9.22917 11.1458 9.37153 11.2674 9.44792 11.4688C9.52431 11.6701 9.48611 11.8611 9.33333 12.0417C8.97222 12.4861 8.82986 12.9549 8.90625 13.4479C8.98264 13.941 9.24306 14.3958 9.6875 14.8125C9.90972 15.0208 9.95833 15.2708 9.83333 15.5625C9.70833 15.8542 9.48611 16 9.16667 16H3.5ZM13.0417 13.875L16.4167 10.5208C16.5694 10.3681 16.7431 10.2917 16.9375 10.2917C17.1319 10.2917 17.3056 10.3681 17.4583 10.5208C17.6111 10.6736 17.6875 10.8507 17.6875 11.0521C17.6875 11.2535 17.6111 11.4306 17.4583 11.5833L13.5833 15.4583C13.4306 15.6111 13.2535 15.6875 13.0521 15.6875C12.8507 15.6875 12.6736 15.6111 12.5208 15.4583L10.75 13.6875C10.5972 13.5347 10.5208 13.3611 10.5208 13.1667C10.5208 12.9722 10.5972 12.7986 10.75 12.6458C10.9028 12.4931 11.0799 12.4167 11.2812 12.4167C11.4826 12.4167 11.6597 12.4931 11.8125 12.6458L13.0417 13.875Z" fill="#1B76FF"/>
</g>
</g>
</svg>
