<svg width="64" height="64" viewBox="0 0 64 64" fill="none" xmlns="http://www.w3.org/2000/svg">
<mask id="mask0_2203_6966" style="mask-type:alpha" maskUnits="userSpaceOnUse" x="-1" y="0" width="65" height="64">
<rect x="-0.000488281" width="64" height="64" fill="#D9D9D9"/>
</mask>
<g mask="url(#mask0_2203_6966)">
<path d="M15.9054 59.6C14.2126 59.6 12.7607 58.9971 11.5496 57.7912C10.3385 56.5853 9.73291 55.1359 9.73291 53.4431C9.73291 51.7503 10.3325 50.3088 11.5316 49.1186C12.7308 47.9284 14.187 47.3333 15.9 47.3333C16.4108 47.3333 16.9294 47.4 17.4558 47.5333C17.9821 47.6667 18.4967 47.8667 18.9996 48.1333L27.2662 37.9333C26.5107 37.0889 25.9885 36.1778 25.6996 35.2C25.4107 34.2222 25.3551 33.2 25.5329 32.1333L13.3996 28.1333C12.8662 29.1556 12.1154 29.9667 11.1472 30.5667C10.179 31.1667 9.07664 31.4667 7.84024 31.4667C6.18349 31.4667 4.75142 30.8696 3.54404 29.6755C2.33662 28.4814 1.73291 27.0314 1.73291 25.3255C1.73291 23.6196 2.33584 22.1722 3.54171 20.9833C4.74762 19.7944 6.19698 19.2 7.88978 19.2C9.58258 19.2 11.0241 19.7963 12.2143 20.9889C13.4045 22.1815 13.9996 23.6297 13.9996 25.3333C13.9996 25.5556 13.9885 25.7333 13.9662 25.8667C13.944 26 13.9329 26.1333 13.9329 26.2667L26.0662 30.4667C26.5551 29.5333 27.2107 28.7444 28.0329 28.1C28.8551 27.4556 29.8662 27.0222 31.0662 26.8V13.9333C29.3774 13.6667 28.0885 12.9333 27.1996 11.7333C26.3107 10.5333 25.8662 9.23527 25.8662 7.83914C25.8662 6.19082 26.4633 4.76112 27.6574 3.55C28.8515 2.33889 30.3015 1.73334 32.0074 1.73334C33.7133 1.73334 35.1607 2.33705 36.3496 3.54447C37.5385 4.75185 38.1329 6.19258 38.1329 7.86667C38.1329 9.24445 37.6885 10.5333 36.7996 11.7333C35.9107 12.9333 34.6218 13.6667 32.9329 13.9333V26.8C34.1329 27.0222 35.144 27.4556 35.9662 28.1C36.7885 28.7444 37.4662 29.5333 37.9996 30.4667L50.0662 26.2667C50.0218 26.1444 49.9996 26.0111 49.9996 25.8667V25.3333C49.9996 23.6297 50.5921 22.1815 51.777 20.9889C52.962 19.7963 54.4009 19.2 56.0937 19.2C57.7865 19.2 59.2385 19.7971 60.4496 20.9912C61.6607 22.1853 62.2662 23.6353 62.2662 25.3412C62.2662 27.0471 61.6625 28.4944 60.4551 29.6833C59.2477 30.8722 57.8157 31.4667 56.1589 31.4667C54.9369 31.4667 53.8381 31.1556 52.8627 30.5333C51.8873 29.9111 51.1329 29.1111 50.5996 28.1333L38.4662 32.1333C38.6885 33.2 38.644 34.2333 38.3329 35.2333C38.0218 36.2333 37.4885 37.1111 36.7329 37.8667L44.9996 48.1333C45.444 47.8667 45.944 47.6667 46.4996 47.5333C47.0551 47.4 47.5786 47.3333 48.0699 47.3333C49.8247 47.3333 51.2961 47.9258 52.4842 49.1108C53.6722 50.2958 54.2662 51.7347 54.2662 53.4275C54.2662 55.1203 53.6633 56.5722 52.4574 57.7833C51.2515 58.9945 49.8022 59.6 48.1094 59.6C46.4166 59.6 44.9751 59.0019 43.7848 57.8055C42.5947 56.6093 41.9996 55.1566 41.9996 53.4476C41.9996 52.6517 42.1116 51.9322 42.3357 51.2891C42.5598 50.6459 42.981 49.994 43.5996 49.3333L35.3329 39C34.3939 39.6222 33.2793 39.9333 31.9891 39.9333C30.6989 39.9333 29.5913 39.6222 28.6662 39L20.3996 49.4C20.9774 50.0222 21.3885 50.6534 21.6329 51.2936C21.8774 51.9337 21.9996 52.6517 21.9996 53.4476C21.9996 55.1566 21.4071 56.6093 20.2221 57.8056C19.0371 59.0019 17.5982 59.6 15.9054 59.6ZM7.88031 30C9.15982 30 10.2551 29.5398 11.1662 28.6193C12.0774 27.6988 12.5329 26.5988 12.5329 25.3193C12.5329 24.0398 12.0727 22.9445 11.1522 22.0333C10.2317 21.1222 9.13173 20.6667 7.85218 20.6667C6.57267 20.6667 5.47735 21.1269 4.56624 22.0474C3.65513 22.9678 3.19958 24.0679 3.19958 25.3474C3.19958 26.6269 3.6598 27.7222 4.58024 28.6333C5.50073 29.5445 6.60071 30 7.88031 30ZM15.8803 58.1333C17.1598 58.1333 18.2551 57.6731 19.1662 56.7526C20.0774 55.8322 20.5329 54.7322 20.5329 53.4526C20.5329 52.1731 20.0727 51.0778 19.1522 50.1667C18.2317 49.2556 17.1317 48.8 15.8522 48.8C14.5727 48.8 13.4774 49.2603 12.5662 50.1807C11.6551 51.1012 11.1996 52.2012 11.1996 53.4807C11.1996 54.7603 11.6598 55.8556 12.5803 56.7667C13.5008 57.6778 14.6008 58.1333 15.8803 58.1333ZM32.0136 12.5333C33.2932 12.5333 34.3885 12.0731 35.2996 11.1526C36.2107 10.2322 36.6662 9.13216 36.6662 7.8526C36.6662 6.57309 36.206 5.47778 35.2855 4.56667C34.3651 3.65556 33.2651 3.2 31.9855 3.2C30.706 3.2 29.6107 3.66025 28.6996 4.58074C27.7885 5.50118 27.3329 6.60118 27.3329 7.88074C27.3329 9.16025 27.7932 10.2556 28.7136 11.1667C29.6341 12.0778 30.7341 12.5333 32.0136 12.5333ZM31.9996 38.4667C33.4218 38.4667 34.6329 37.9667 35.6329 36.9667C36.6329 35.9667 37.1329 34.7556 37.1329 33.3333C37.1329 31.9111 36.63 30.7 35.6242 29.7C34.6185 28.7 33.4102 28.2 31.9996 28.2C30.5774 28.2 29.3662 28.7029 28.3662 29.7087C27.3662 30.7145 26.8662 31.9227 26.8662 33.3333C26.8662 34.7556 27.3662 35.9667 28.3662 36.9667C29.3662 37.9667 30.5774 38.4667 31.9996 38.4667ZM48.147 58.1333C49.4265 58.1333 50.5218 57.6731 51.4329 56.7526C52.344 55.8322 52.7996 54.7322 52.7996 53.4526C52.7996 52.1731 52.3393 51.0778 51.4188 50.1667C50.4984 49.2556 49.3984 48.8 48.1188 48.8C46.8393 48.8 45.744 49.2603 44.8329 50.1807C43.9218 51.1012 43.4662 52.2012 43.4662 53.4807C43.4662 54.7603 43.9265 55.8556 44.847 56.7667C45.7674 57.6778 46.8674 58.1333 48.147 58.1333ZM56.147 30C57.4265 30 58.5218 29.5398 59.4329 28.6193C60.344 27.6988 60.7996 26.5988 60.7996 25.3193C60.7996 24.0398 60.3393 22.9445 59.4188 22.0333C58.4984 21.1222 57.3984 20.6667 56.1188 20.6667C54.8393 20.6667 53.744 21.1269 52.8329 22.0474C51.9218 22.9678 51.4662 24.0679 51.4662 25.3474C51.4662 26.6269 51.9265 27.7222 52.847 28.6333C53.7674 29.5445 54.8674 30 56.147 30Z" fill="#263242"/>
</g>
</svg>
