<svg width="176" height="32" viewBox="0 0 176 32" fill="none" xmlns="http://www.w3.org/2000/svg">
<path d="M59.9438 0.641659H50.5677V12.8506H40.8075V0.641659H31.4315V31.3583H40.8075V19.276H50.5677V31.3583H59.9438V0.641659ZM92.5593 25.1862V0.641659H83.1832V31.3583H100.137L101.547 25.1862H92.5593ZM76.2515 0.641659H66.8755V31.3583H76.2515V0.641659ZM114.262 0.641659H104.89V31.3583H114.262V0.641659ZM160.488 8.48124C160.488 6.80944 162.16 6.03684 164.853 6.03684C167.808 6.03684 171.021 6.68286 173.203 7.58642L172.435 0.899193C169.99 0.384121 167.808 0 163.831 0C156.254 0 151.116 2.99005 151.116 9.25386C151.116 20.0486 165.761 17.8661 165.761 22.8771C165.761 24.8021 164.342 25.8279 160.876 25.8279C157.799 25.8279 153.041 24.8021 150.217 23.3878L151.247 30.4591C154.071 31.4893 157.921 32 161.007 32C168.838 32 175.259 29.429 175.259 21.716C175.259 11.4407 160.488 13.3657 160.488 8.48124ZM134.04 24.0338C142.766 24.0338 148.292 19.5335 148.292 11.6939C148.292 3.08608 142.386 0 132.752 0C129.029 0 124.533 0.257536 121.325 0.641659V31.3583H130.701V24.0338H134.04ZM139.047 11.8249C139.047 15.8058 137.122 18.5077 132.237 18.5077H130.701V5.81422C131.247 5.78366 131.757 5.78366 132.237 5.78366C136.86 5.78366 139.047 7.96617 139.047 11.8249ZM13.4563 24.0338C22.1863 24.0338 27.7081 19.5335 27.7081 11.6939C27.7081 3.08608 21.8022 0 12.173 0C8.44524 0 3.95363 0.257536 0.740967 0.641659V31.3583H10.117V24.0338H13.4563ZM18.4673 11.8249C18.4673 15.8058 16.538 18.5077 11.6579 18.5077H10.117V5.81422C10.6627 5.78366 11.1777 5.78366 11.6579 5.78366C16.2805 5.78366 18.4673 7.96617 18.4673 11.8249Z" fill="#545D6A"/>
</svg>
