<svg width="86" height="64" viewBox="0 0 86 64" fill="none" xmlns="http://www.w3.org/2000/svg">
<path fill-rule="evenodd" clip-rule="evenodd" d="M42.9998 0L60.1212 25.8569C61.9248 27.148 63.3564 28.2222 64.609 29.1615C68.7482 32.2667 70.8493 33.844 74.6189 34.5282C75.8652 34.7547 77.0412 34.7657 78.9021 34.7827C79.639 34.7894 80.4753 34.798 81.4007 34.8174C82.6545 34.8415 83.6507 35.8713 83.6262 37.1172C83.6063 38.1586 82.8779 39.0218 81.9072 39.2624L81.9084 39.2669C80.6153 39.5897 79.1022 39.8647 77.563 40.0254C76.1817 40.1701 74.7865 40.2218 73.5195 40.1353C72.0287 40.033 70.4295 39.5982 68.796 38.957L85.3783 64H42.9998H0.621582L14.7268 42.6985C14.3947 42.8063 14.0536 42.9135 13.7024 43.021L13.5771 43.0551L13.5774 43.0563C12.4323 43.3355 11.2777 43.1254 10.3382 42.5597C9.39783 41.9936 8.67528 41.075 8.39429 39.9383C8.38326 39.8939 8.37376 39.8494 8.36549 39.805C8.12893 38.7061 8.3419 37.6108 8.88549 36.7187C8.9336 36.6389 8.98569 36.564 9.04177 36.4927C9.61692 35.6694 10.4819 35.0446 11.5318 34.7876L11.5409 34.7855C13.9329 34.1192 15.6798 33.4567 17.1635 32.5164C18.6478 31.5758 19.9706 30.2897 21.5328 28.3659C23.5527 25.8792 25.7776 23.9161 28.1448 22.4342L42.9998 0ZM34.4512 25.1758C36.4228 24.4989 38.7534 24.223 41.8192 24.2471C46.7912 24.2861 51.9354 26.229 56.5804 29.2157C61.0554 32.0926 68.4329 37.5204 73.6702 37.8794C76.0977 38.0456 79.0679 37.6449 81.3559 37.0731C77.7763 36.9967 76.1562 37.1026 74.2095 36.7485C68.4644 35.7047 66.3903 33.0581 57.9226 27.0697C46.6073 19.0671 32.6197 18.3132 23.3048 29.7812C19.8704 34.0102 17.3575 35.5181 12.075 36.9811C10.9964 37.2436 10.337 38.3258 10.6018 39.3985C10.8668 40.47 11.9558 41.1255 13.0344 40.8628C15.8649 39.998 18.0313 39.1302 19.9207 37.9604C19.9207 38.0292 19.9237 38.0977 19.9314 38.1668C19.0333 41.2473 17.7724 46.9203 11.0758 52.5138C10.2089 53.2046 10.0713 54.4622 10.7663 55.3233C11.4619 56.1832 12.7274 56.3214 13.594 55.6302C18.0432 51.6621 20.8087 47.6349 22.3748 42.4221C23.4847 43.8261 24.771 44.8875 26.8216 46.2626C35.7857 52.2738 58.0366 58.2415 67.5976 51.9775C75.7453 46.6402 64.5324 36.6806 61.0803 43.9311C58.7416 48.8419 67.3628 50.5166 66.7595 46.0205C66.6697 45.3506 66.4013 44.9505 65.7664 44.7426L65.7655 44.7429C65.8988 44.991 66.0731 45.2636 66.1424 45.5312C66.9875 48.792 61.2157 47.997 62.2119 45.0632C63.9603 39.9143 72.0039 46.638 66.3308 49.988C59.0661 54.2786 43.1622 50.1567 35.9398 47.0128C32.0654 45.3263 28.2483 43.3096 25.6315 40.1046C36.4788 42.2028 52.9049 42.4397 61.789 39.066L64.3329 37.8666L61.5739 38.2536C49.6813 40.051 37.2375 39.8945 25.5258 36.9029C24.9528 36.7567 23.6636 36.2202 22.5538 35.9803C23.7813 34.8765 24.923 33.51 26.2477 31.866C27.1997 30.684 28.0835 29.6637 28.9565 28.7876C28.6877 29.4517 28.5391 30.177 28.5391 30.9367C28.5391 34.1192 31.1351 36.6989 34.3379 36.6989C37.5406 36.6989 40.1366 34.1192 40.1366 30.9367C40.1366 27.792 37.6016 25.2361 34.4512 25.1758Z" fill="#545D6A"/>
</svg>
