<svg width="64" height="64" viewBox="0 0 64 64" fill="none" xmlns="http://www.w3.org/2000/svg">
<mask id="mask0_2106_3622" style="mask-type:alpha" maskUnits="userSpaceOnUse" x="-1" y="0" width="65" height="64">
<rect x="-0.000488281" width="64" height="64" fill="#D9D9D9"/>
</mask>
<g mask="url(#mask0_2106_3622)">
<path d="M10.3993 26.5335C10.1771 26.5335 9.99935 26.4669 9.86602 26.3335C9.73268 26.2002 9.66602 26.0224 9.66602 25.8002C9.7549 22.7335 10.4549 19.8335 11.766 17.1002C13.0771 14.3669 14.866 11.9335 17.1327 9.8002C17.266 9.66686 17.4327 9.6002 17.6327 9.6002C17.8327 9.6002 18.0216 9.68908 18.1993 9.86686C18.3327 10.0002 18.3993 10.1669 18.3993 10.3669C18.3993 10.5669 18.3105 10.7335 18.1327 10.8669C16.0438 12.778 14.3882 15.0224 13.166 17.6002C11.9438 20.178 11.266 22.9113 11.1327 25.8002C11.1327 26.0224 11.066 26.2002 10.9327 26.3335C10.7993 26.4669 10.6216 26.5335 10.3993 26.5335ZM53.5993 26.5335C53.3771 26.5335 53.1993 26.4669 53.066 26.3335C52.9327 26.2002 52.866 26.0224 52.866 25.8002C52.7771 22.9113 52.1327 20.1891 50.9327 17.6335C49.7327 15.078 48.0882 12.8446 45.9994 10.9335C45.8216 10.7558 45.7327 10.5669 45.7327 10.3669C45.7327 10.1669 45.7994 9.97797 45.9327 9.8002C46.066 9.66686 46.2327 9.6002 46.4327 9.6002C46.6327 9.6002 46.7994 9.66686 46.9327 9.8002C49.1994 11.8891 50.9771 14.3113 52.266 17.0669C53.5549 19.8224 54.2438 22.7335 54.3327 25.8002C54.3327 26.0224 54.266 26.2002 54.1327 26.3335C53.9994 26.4669 53.8216 26.5335 53.5993 26.5335ZM13.1327 49.7335C12.9105 49.7335 12.7327 49.6669 12.5993 49.5335C12.466 49.4002 12.3993 49.2224 12.3993 49.0002C12.3993 48.778 12.466 48.6002 12.5993 48.4669C12.7327 48.3335 12.9105 48.2669 13.1327 48.2669H17.7993V27.3335C17.7993 24.0002 18.9105 20.9558 21.1327 18.2002C23.3549 15.4446 26.2438 13.778 29.7994 13.2002V11.3335C29.7994 10.6669 29.9993 10.1446 30.3993 9.76686C30.7994 9.38908 31.3327 9.2002 31.9993 9.2002C32.666 9.2002 33.1994 9.38908 33.5993 9.76686C33.9994 10.1446 34.1993 10.6669 34.1993 11.3335V13.2002C37.7549 13.778 40.6438 15.4446 42.866 18.2002C45.0882 20.9558 46.1993 24.0002 46.1993 27.3335V48.2669H50.866C51.0882 48.2669 51.266 48.3335 51.3994 48.4669C51.5327 48.6002 51.5993 48.778 51.5993 49.0002C51.5993 49.2224 51.5327 49.4002 51.3994 49.5335C51.266 49.6669 51.0882 49.7335 50.866 49.7335H13.1327ZM31.9993 57.3335C30.9327 57.3335 29.9993 56.9558 29.1994 56.2002C28.3994 55.4446 27.9993 54.4891 27.9993 53.3335H35.9993C35.9993 54.4891 35.6216 55.4446 34.866 56.2002C34.1105 56.9558 33.1549 57.3335 31.9993 57.3335ZM19.266 48.2669H44.7327V27.3335C44.7327 23.8224 43.4993 20.8224 41.0327 18.3335C38.566 15.8446 35.5549 14.6002 31.9993 14.6002C28.4882 14.6002 25.4882 15.8446 22.9993 18.3335C20.5105 20.8224 19.266 23.8224 19.266 27.3335V48.2669Z" fill="#39CE2C"/>
</g>
</svg>
