<svg width="64" height="64" viewBox="0 0 64 64" fill="none" xmlns="http://www.w3.org/2000/svg">
<mask id="mask0_68_2260" style="mask-type:alpha" maskUnits="userSpaceOnUse" x="0" y="0" width="64" height="64">
<rect width="64" height="64" fill="#D9D9D9"/>
</mask>
<g mask="url(#mask0_68_2260)">
<path d="M31.999 46.2C37.019 42.2507 40.8184 38.4633 43.3973 34.838C45.9762 31.2127 47.2656 27.6667 47.2656 24.2C47.2656 21.3381 46.7434 18.9115 45.699 16.9203C44.6545 14.929 43.3654 13.3138 41.8317 12.0747C40.2979 10.8355 38.6441 9.93549 36.8704 9.37465C35.0966 8.81376 33.4749 8.53332 32.0052 8.53332C30.5355 8.53332 28.9117 8.81376 27.1338 9.37465C25.3558 9.93549 23.7 10.8355 22.1662 12.0747C20.6325 13.3138 19.3434 14.929 18.299 16.9203C17.2545 18.9115 16.7323 21.3381 16.7323 24.2C16.7323 27.6667 18.0217 31.2127 20.6006 34.838C23.1795 38.4633 26.979 42.2507 31.999 46.2ZM31.9932 47.4667C31.7819 47.4667 31.5523 47.4444 31.3043 47.4C31.0563 47.3555 30.8434 47.2444 30.6656 47.0667C25.4656 42.9333 21.599 38.9923 19.0656 35.2435C16.5323 31.4947 15.2656 27.8209 15.2656 24.2222C15.2656 21.3976 15.7656 18.9211 16.7656 16.7927C17.7656 14.6642 19.0619 12.8778 20.6544 11.4333C22.247 9.98887 24.052 8.89998 26.0695 8.16665C28.087 7.43332 30.0631 7.06665 31.9976 7.06665C33.9322 7.06665 35.9086 7.43332 37.927 8.16665C39.9455 8.89998 41.751 9.98887 43.3435 11.4333C44.936 12.8778 46.2323 14.6642 47.2323 16.7927C48.2323 18.9211 48.7323 21.3976 48.7323 24.2222C48.7323 27.8209 47.4656 31.4947 44.9323 35.2435C42.399 38.9923 38.5323 42.9333 33.3323 47.0667C33.1545 47.2444 32.9368 47.3555 32.6792 47.4C32.4215 47.4444 32.1929 47.4667 31.9932 47.4667ZM32.0382 27.2C32.9898 27.2 33.7878 26.8647 34.4323 26.1941C35.0767 25.5235 35.399 24.7124 35.399 23.7607C35.399 22.8091 35.0735 22.0111 34.4226 21.3667C33.7718 20.7222 32.9619 20.4 31.993 20.4C31.0636 20.4 30.2656 20.7254 29.599 21.3763C28.9323 22.0272 28.599 22.837 28.599 23.8059C28.599 24.7353 28.9343 25.5333 29.6049 26.2C30.2755 26.8667 31.0866 27.2 32.0382 27.2ZM15.999 56.9333C15.7912 56.9333 15.617 56.8616 15.4765 56.7181C15.3359 56.5746 15.2656 56.3969 15.2656 56.1848C15.2656 55.9727 15.3359 55.8 15.4765 55.6667C15.617 55.5333 15.7912 55.4667 15.999 55.4667H47.999C48.2067 55.4667 48.3809 55.5384 48.5215 55.6819C48.662 55.8253 48.7323 56.0031 48.7323 56.2152C48.7323 56.4273 48.662 56.6 48.5215 56.7333C48.3809 56.8667 48.2067 56.9333 47.999 56.9333H15.999Z" fill="#1C1B1F"/>
</g>
</svg>
