<svg width="41" height="40" viewBox="0 0 41 40" fill="none" xmlns="http://www.w3.org/2000/svg">
<mask id="mask0_2011_2943" style="mask-type:alpha" maskUnits="userSpaceOnUse" x="0" y="0" width="41" height="40">
<rect x="0.666504" width="40" height="40" fill="#D9D9D9"/>
</mask>
<g mask="url(#mask0_2011_2943)">
<path d="M20.5616 33.3334C17.2353 33.3334 14.3436 32.2677 11.8864 30.1363C9.42909 28.0049 7.95721 25.3163 7.47074 22.0706C7.42943 21.8519 7.46078 21.653 7.56478 21.4739C7.66875 21.2948 7.83111 21.1995 8.05186 21.1881C8.25775 21.1767 8.43014 21.2404 8.56903 21.3793C8.70792 21.5182 8.80122 21.7002 8.84895 21.9253C9.33897 24.7957 10.6787 27.1796 12.8682 29.077C15.0576 30.9744 17.6221 31.9232 20.5616 31.9232C23.897 31.9232 26.7249 30.7574 29.045 28.4258C31.3652 26.0943 32.5253 23.2608 32.5253 19.9253C32.5253 16.6169 31.3631 13.8151 29.0386 11.5198C26.7142 9.22461 23.8885 8.077 20.5616 8.077C18.8557 8.077 17.2418 8.43562 15.7197 9.15287C14.1976 9.8701 12.85 10.8498 11.6769 12.092H15.0317C15.2364 12.092 15.4052 12.1584 15.5378 12.2912C15.6705 12.4241 15.7368 12.5931 15.7368 12.7982C15.7368 13.0033 15.6705 13.1719 15.5378 13.304C15.4052 13.4362 15.2364 13.5022 15.0317 13.5022H10.444C10.094 13.5022 9.80347 13.3867 9.57253 13.1558C9.34158 12.9248 9.22611 12.6343 9.22611 12.2842V7.68171C9.22611 7.49118 9.29254 7.32603 9.4254 7.18625C9.55826 7.04647 9.72725 6.97658 9.93236 6.97658C10.1374 6.97658 10.306 7.04647 10.4382 7.18625C10.5703 7.32603 10.6364 7.49118 10.6364 7.68171V11.1197C11.9291 9.73228 13.4335 8.64323 15.1497 7.85262C16.8659 7.06204 18.6698 6.66675 20.5616 6.66675C22.4115 6.66675 24.1454 7.01343 25.7632 7.70679C27.3809 8.40018 28.7961 9.35104 30.0087 10.5594C31.2213 11.7677 32.1789 13.1784 32.8816 14.7915C33.5842 16.4046 33.9355 18.1288 33.9355 19.9641C33.9355 21.8136 33.5842 23.5512 32.8816 25.1769C32.1789 26.8026 31.2213 28.2171 30.0087 29.4205C28.7961 30.6238 27.3809 31.5768 25.7632 32.2795C24.1454 32.9821 22.4115 33.3334 20.5616 33.3334ZM21.4099 19.6881L26.6129 24.8355C26.7461 24.983 26.818 25.1532 26.8287 25.3462C26.8393 25.5392 26.7674 25.713 26.6129 25.8676C26.4583 26.0079 26.2909 26.0781 26.1107 26.0781C25.9305 26.0781 25.7632 26.0079 25.6086 25.8676L20.3629 20.6561C20.2361 20.5293 20.1438 20.3904 20.0862 20.2394C20.0285 20.0884 19.9996 19.9392 19.9996 19.7917V12.3313C19.9996 12.1265 20.066 11.9578 20.1989 11.8251C20.3318 11.6925 20.5008 11.6262 20.7059 11.6262C20.9109 11.6262 21.0796 11.6925 21.2117 11.8251C21.3438 11.9578 21.4099 12.1265 21.4099 12.3313V19.6881Z" fill="white"/>
</g>
</svg>
