<svg width="64" height="64" viewBox="0 0 64 64" fill="none" xmlns="http://www.w3.org/2000/svg">
<mask id="mask0_2140_2490" style="mask-type:alpha" maskUnits="userSpaceOnUse" x="0" y="0" width="64" height="64">
<rect width="64" height="64" fill="#D9D9D9"/>
</mask>
<g mask="url(#mask0_2140_2490)">
<path d="M32.4667 45.4V47.2667C32.4667 47.48 32.5436 47.6667 32.6973 47.8267C32.851 47.9867 33.0304 48.0667 33.2353 48.0667H33.0392C33.2798 48.0667 33.4889 47.9734 33.6667 47.7867C33.8445 47.6 33.9334 47.3823 33.9334 47.1334V45.4H38.7334C38.9411 45.4 39.1153 45.3298 39.2559 45.1892C39.3964 45.0487 39.4667 44.8745 39.4667 44.6667V36.4667C39.4667 36.2589 39.3964 36.0848 39.2559 35.9442C39.1153 35.8036 38.9411 35.7334 38.7334 35.7334H28.4V29H38.7334C38.9411 29 39.1153 28.9283 39.2559 28.7848C39.3964 28.6414 39.4667 28.4636 39.4667 28.2515C39.4667 28.0394 39.3964 27.8667 39.2559 27.7334C39.1153 27.6 38.9411 27.5334 38.7334 27.5334H33.9334V25.6C33.9334 25.4045 33.8578 25.2334 33.7067 25.0867C33.5556 24.94 33.3793 24.8667 33.1778 24.8667H33.4C33.1511 24.8667 32.9334 24.9534 32.7467 25.1267C32.56 25.3001 32.4667 25.5023 32.4667 25.7334V27.5334H27.6667C27.4589 27.5334 27.2847 27.6036 27.1442 27.7442C27.0036 27.8848 26.9334 28.0589 26.9334 28.2667V36.4667C26.9334 36.6745 27.0036 36.8487 27.1442 36.9892C27.2847 37.1298 27.4589 37.2 27.6667 37.2H38V43.9334H27.6667C27.4589 43.9334 27.2847 44.0051 27.1442 44.1486C27.0036 44.292 26.9334 44.4698 26.9334 44.6819C26.9334 44.894 27.0036 45.0667 27.1442 45.2C27.2847 45.3334 27.4589 45.4 27.6667 45.4H32.4667ZM17.7334 55.2C16.7211 55.2 15.8681 54.8531 15.1742 54.1592C14.4803 53.4653 14.1334 52.6123 14.1334 51.6V12.4C14.1334 11.3878 14.4803 10.5348 15.1742 9.84085C15.8681 9.14698 16.7211 8.80005 17.7334 8.80005H38.6667L49.8667 20V51.6C49.8667 52.6123 49.5198 53.4653 48.8259 54.1592C48.132 54.8531 47.2789 55.2 46.2667 55.2H17.7334ZM17.7334 53.7334H46.2667C46.8 53.7334 47.2889 53.5112 47.7334 53.0667C48.1778 52.6223 48.4 52.1334 48.4 51.6V20.6667H39.8C39.3334 20.6667 38.9167 20.4834 38.55 20.1167C38.1834 19.75 38 19.3334 38 18.8667V10.2667H17.7334C17.2 10.2667 16.7111 10.4889 16.2667 10.9334C15.8223 11.3778 15.6 11.8667 15.6 12.4V51.6C15.6 52.1334 15.8223 52.6223 16.2667 53.0667C16.7111 53.5112 17.2 53.7334 17.7334 53.7334Z" fill="#9863F3"/>
</g>
</svg>
