<svg width="64" height="64" viewBox="0 0 64 64" fill="none" xmlns="http://www.w3.org/2000/svg">
<mask id="mask0_2106_3646" style="mask-type:alpha" maskUnits="userSpaceOnUse" x="-1" y="0" width="65" height="64">
<rect x="-0.000488281" width="64" height="64" fill="#D9D9D9"/>
</mask>
<g mask="url(#mask0_2106_3646)">
<path d="M26.6662 48.933C22.8885 48.933 19.6218 47.6886 16.8662 45.1997C14.1107 42.7108 12.7329 39.6219 12.7329 35.933C12.7329 32.2886 14.1107 29.2219 16.8662 26.733C19.6218 24.2441 22.8885 22.9997 26.6662 22.9997H48.3996L40.0662 14.6663C39.9329 14.533 39.8551 14.3663 39.8329 14.1663C39.8107 13.9663 39.8885 13.7775 40.0662 13.5997C40.244 13.4219 40.4218 13.333 40.5996 13.333C40.7774 13.333 40.9551 13.4219 41.1329 13.5997L49.9996 22.4663C50.1774 22.6441 50.3218 22.833 50.4329 23.033C50.544 23.233 50.5996 23.4663 50.5996 23.733C50.5996 23.9552 50.544 24.1775 50.4329 24.3997C50.3218 24.6219 50.1774 24.8219 49.9996 24.9997L41.1329 33.8663C40.9996 33.9997 40.8329 34.0775 40.6329 34.0997C40.4329 34.1219 40.244 34.0441 40.0662 33.8663C39.8885 33.6886 39.7996 33.5108 39.7996 33.333C39.7996 33.1552 39.8885 32.9775 40.0662 32.7997L48.3996 24.4663H26.6662C23.244 24.4663 20.3107 25.5552 17.8662 27.733C15.4218 29.9108 14.1996 32.6441 14.1996 35.933C14.1996 39.2663 15.4218 42.0219 17.8662 44.1997C20.3107 46.3775 23.244 47.4663 26.6662 47.4663H43.1996C43.4218 47.4663 43.5996 47.533 43.7329 47.6663C43.8662 47.7997 43.9329 47.9775 43.9329 48.1997C43.9329 48.4219 43.8662 48.5997 43.7329 48.733C43.5996 48.8663 43.4218 48.933 43.1996 48.933H26.6662Z" fill="#FFAF45"/>
</g>
</svg>
