<svg width="64" height="64" viewBox="0 0 64 64" fill="none" xmlns="http://www.w3.org/2000/svg">
<mask id="mask0_2140_2444" style="mask-type:alpha" maskUnits="userSpaceOnUse" x="-1" y="0" width="65" height="64">
<rect x="-0.000366211" width="64" height="64" fill="#D9D9D9"/>
</mask>
<g mask="url(#mask0_2140_2444)">
<path d="M9.93297 48.5334C9.45519 48.5334 9.03574 48.3639 8.67463 48.025C8.31352 47.6862 8.13297 47.2556 8.13297 46.7334V45.4C8.13297 44.2445 8.43297 43.2778 9.03297 42.5C9.63297 41.7223 10.4873 41.087 11.596 40.5942C13.9095 39.5759 16.0885 38.7556 18.133 38.1334C20.1774 37.5112 22.7996 37.2 25.9996 37.2C29.2441 37.2 31.8774 37.5112 33.8996 38.1334C35.9219 38.7556 38.112 39.5759 40.47 40.5942C41.5342 41.087 42.3663 41.7223 42.9663 42.5C43.5663 43.2778 43.8663 44.2445 43.8663 45.4V46.7334C43.8663 47.2556 43.6969 47.6862 43.358 48.025C43.0191 48.3639 42.5885 48.5334 42.0663 48.5334H9.93297ZM48.133 48.5334C48.2991 48.3502 48.4517 48.1101 48.5908 47.813C48.73 47.516 48.7996 47.1561 48.7996 46.7334V45.6C48.7996 43.9112 48.5008 42.4449 47.9032 41.2013C47.3055 39.9576 46.5377 38.9128 45.5996 38.0667C46.8441 38.3778 48.0663 38.7445 49.2663 39.1667C50.4663 39.5889 51.5774 40.0445 52.5996 40.5334C53.533 41.0223 54.3107 41.7147 54.933 42.6107C55.5552 43.5068 55.8663 44.5032 55.8663 45.6V46.7334C55.8663 47.2556 55.6857 47.6862 55.3246 48.025C54.9635 48.3639 54.5441 48.5334 54.0663 48.5334H48.133ZM25.9996 29.8667C24.0196 29.8667 22.358 29.1951 21.0146 27.8517C19.6713 26.5084 18.9996 24.8467 18.9996 22.8667C18.9996 20.8423 19.6713 19.1695 21.0146 17.8484C22.358 16.5273 24.0196 15.8667 25.9996 15.8667C28.0241 15.8667 29.6969 16.5273 31.018 17.8484C32.3391 19.1695 32.9996 20.8423 32.9996 22.8667C32.9996 24.8467 32.3391 26.5084 31.018 27.8517C29.6969 29.1951 28.0241 29.8667 25.9996 29.8667ZM42.3996 22.8667C42.3996 24.8467 41.7391 26.5084 40.418 27.8517C39.0969 29.1951 37.4241 29.8667 35.3996 29.8667H35.5996C36.3695 28.9439 36.9508 27.8882 37.3437 26.6997C37.7365 25.5112 37.933 24.2308 37.933 22.8584C37.933 21.4862 37.7107 20.2334 37.2663 19.1C36.8219 17.9667 36.2663 16.8667 35.5996 15.8C35.5552 15.8445 35.5219 15.8667 35.4996 15.8667H35.3996C37.4241 15.8667 39.0969 16.5273 40.418 17.8484C41.7391 19.1695 42.3996 20.8423 42.3996 22.8667ZM9.59963 47.0667H42.3996V45.4C42.3996 44.6889 42.2107 44.0556 41.833 43.5C41.4552 42.9445 40.7774 42.4 39.7996 41.8667C37.6663 40.7556 35.5774 39.9445 33.533 39.4334C31.4885 38.9223 28.9774 38.6667 25.9996 38.6667C23.0663 38.6667 20.5774 38.9223 18.533 39.4334C16.4885 39.9445 14.3996 40.7556 12.2663 41.8667C11.2885 42.4 10.5996 42.9445 10.1996 43.5C9.79963 44.0556 9.59963 44.6889 9.59963 45.4V47.0667ZM25.9996 28.4C27.5552 28.4 28.8663 27.8667 29.933 26.8C30.9996 25.7334 31.533 24.4223 31.533 22.8667C31.533 21.3112 30.9996 20 29.933 18.9334C28.8663 17.8667 27.5552 17.3334 25.9996 17.3334C24.4441 17.3334 23.133 17.8667 22.0663 18.9334C20.9996 20 20.4663 21.3112 20.4663 22.8667C20.4663 24.4223 20.9996 25.7334 22.0663 26.8C23.133 27.8667 24.4441 28.4 25.9996 28.4Z" fill="#4EAAED"/>
</g>
</svg>
