<svg width="80" height="80" viewBox="0 0 80 80" fill="none" xmlns="http://www.w3.org/2000/svg">
<mask id="mask0_68_1637" style="mask-type:alpha" maskUnits="userSpaceOnUse" x="0" y="0" width="80" height="80">
<rect width="80" height="80" fill="#D9D9D9"/>
</mask>
<g mask="url(#mask0_68_1637)">
<path d="M26.5254 57.8334C26.2871 57.8334 26.0846 57.7455 25.918 57.5699C25.7513 57.3942 25.668 57.1764 25.668 56.9167V23.0834C25.668 22.8237 25.7575 22.6059 25.9366 22.4302C26.1156 22.2545 26.3375 22.1667 26.6022 22.1667C26.8127 22.1667 27.0152 22.2545 27.2096 22.4302C27.4041 22.6059 27.5013 22.8237 27.5013 23.0834V56.9167C27.5013 57.1764 27.3982 57.3942 27.1921 57.5699C26.9859 57.7455 26.7637 57.8334 26.5254 57.8334ZM39.9823 71.1667C39.7172 71.1667 39.5013 71.0788 39.3346 70.9031C39.168 70.7275 39.0846 70.5098 39.0846 70.25V9.75004C39.0846 9.49032 39.1743 9.2726 39.3536 9.09687C39.533 8.92121 39.7552 8.83337 40.0203 8.83337C40.2854 8.83337 40.5013 8.92121 40.668 9.09687C40.8346 9.2726 40.918 9.49032 40.918 9.75004V70.25C40.918 70.5098 40.8283 70.7275 40.649 70.9031C40.4696 71.0788 40.2474 71.1667 39.9823 71.1667ZM13.0656 44.5C12.8005 44.5 12.5846 44.4122 12.418 44.2365C12.2513 44.0608 12.168 43.8431 12.168 43.5834V36.4167C12.168 36.157 12.2576 35.9393 12.437 35.7635C12.6163 35.5879 12.8385 35.5 13.1036 35.5C13.3687 35.5 13.5846 35.5879 13.7513 35.7635C13.918 35.9393 14.0013 36.157 14.0013 36.4167V43.5834C14.0013 43.8431 13.9116 44.0608 13.7323 44.2365C13.553 44.4122 13.3307 44.5 13.0656 44.5ZM53.4421 57.8334C53.2038 57.8334 53.0013 57.7455 52.8346 57.5699C52.668 57.3942 52.5846 57.1764 52.5846 56.9167V23.0834C52.5846 22.8237 52.6742 22.6059 52.8532 22.4302C53.0323 22.2545 53.2542 22.1667 53.5189 22.1667C53.7294 22.1667 53.9319 22.2545 54.1263 22.4302C54.3207 22.6059 54.418 22.8237 54.418 23.0834V56.9167C54.418 57.1764 54.3149 57.3942 54.1087 57.5699C53.9026 57.7455 53.6804 57.8334 53.4421 57.8334ZM66.899 44.5C66.6339 44.5 66.418 44.4122 66.2513 44.2365C66.0846 44.0608 66.0013 43.8431 66.0013 43.5834V36.4167C66.0013 36.157 66.091 35.9393 66.2703 35.7635C66.4496 35.5879 66.6719 35.5 66.937 35.5C67.2021 35.5 67.418 35.5879 67.5846 35.7635C67.7513 35.9393 67.8346 36.157 67.8346 36.4167V43.5834C67.8346 43.8431 67.745 44.0608 67.5656 44.2365C67.3863 44.4122 67.1641 44.5 66.899 44.5Z" fill="#1C1B1F"/>
</g>
</svg>
