<svg width="64" height="64" viewBox="0 0 64 64" fill="none" xmlns="http://www.w3.org/2000/svg">
<mask id="mask0_68_2246" style="mask-type:alpha" maskUnits="userSpaceOnUse" x="0" y="0" width="64" height="64">
<rect width="64" height="64" fill="#D9D9D9"/>
</mask>
<g mask="url(#mask0_68_2246)">
<path d="M10.0654 22.6667C9.85759 22.6667 9.68343 22.595 9.5429 22.4515C9.40232 22.308 9.33203 22.1302 9.33203 21.9182C9.33203 21.7061 9.40232 21.5334 9.5429 21.4C9.68343 21.2667 9.85759 21.2 10.0654 21.2H19.7987C20.0065 21.2 20.1807 21.2718 20.3212 21.4152C20.4618 21.5587 20.532 21.7365 20.532 21.9486C20.532 22.1606 20.4618 22.3334 20.3212 22.4667C20.1807 22.6 20.0065 22.6667 19.7987 22.6667H10.0654ZM10.0654 35.4C9.85759 35.4 9.68343 35.3283 9.5429 35.1848C9.40232 35.0414 9.33203 34.8636 9.33203 34.6515C9.33203 34.4394 9.40232 34.2667 9.5429 34.1334C9.68343 34 9.85759 33.9334 10.0654 33.9334H19.7987C20.0065 33.9334 20.1807 34.0051 20.3212 34.1486C20.4618 34.292 20.532 34.4698 20.532 34.6819C20.532 34.894 20.4618 35.0667 20.3212 35.2C20.1807 35.3334 20.0065 35.4 19.7987 35.4H10.0654ZM53.0654 47.7334L43.332 38C42.4431 38.7556 41.4543 39.3445 40.3654 39.7667C39.2765 40.1889 38.132 40.4 36.932 40.4C34.1765 40.4 31.8431 39.4445 29.932 37.5334C28.0209 35.6222 27.0654 33.2889 27.0654 30.5334C27.0654 27.7778 28.0209 25.4445 29.932 23.5334C31.8431 21.6222 34.1765 20.6667 36.932 20.6667C39.6876 20.6667 42.0209 21.6222 43.932 23.5334C45.8431 25.4445 46.7987 27.7778 46.7987 30.5334C46.7987 31.7334 46.5876 32.8778 46.1654 33.9667C45.7431 35.0556 45.1543 36.0445 44.3987 36.9334L54.132 46.6667C54.2654 46.8 54.3431 46.9667 54.3654 47.1667C54.3876 47.3667 54.3098 47.5556 54.132 47.7334C53.9543 47.9111 53.7765 48 53.5987 48C53.4209 48 53.2431 47.9111 53.0654 47.7334ZM36.9085 38.9334C39.2353 38.9334 41.2209 38.119 42.8654 36.4902C44.5098 34.8615 45.332 32.8837 45.332 30.5569C45.332 28.2301 44.5177 26.2445 42.8889 24.6C41.2601 22.9556 39.2824 22.1334 36.9556 22.1334C34.6288 22.1334 32.6431 22.9477 30.9987 24.5765C29.3543 26.2052 28.532 28.183 28.532 30.5098C28.532 32.8366 29.3464 34.8222 30.9752 36.4667C32.6039 38.1111 34.5817 38.9334 36.9085 38.9334ZM10.0654 48.1334C9.85759 48.1334 9.68343 48.0616 9.5429 47.9182C9.40232 47.7747 9.33203 47.5969 9.33203 47.3848C9.33203 47.1727 9.40232 47 9.5429 46.8667C9.68343 46.7334 9.85759 46.6667 10.0654 46.6667H33.132C33.3398 46.6667 33.514 46.7384 33.6546 46.8819C33.7951 47.0254 33.8654 47.2031 33.8654 47.4152C33.8654 47.6273 33.7951 47.8 33.6546 47.9334C33.514 48.0667 33.3398 48.1334 33.132 48.1334H10.0654Z" fill="#263242"/>
</g>
</svg>
