<svg width="80" height="80" viewBox="0 0 80 80" fill="none" xmlns="http://www.w3.org/2000/svg">
<mask id="mask0_68_1585" style="mask-type:alpha" maskUnits="userSpaceOnUse" x="0" y="0" width="80" height="80">
<rect width="80" height="80" fill="#D9D9D9"/>
</mask>
<g mask="url(#mask0_68_1585)">
<path d="M60.332 63.5L59.082 62.25L66.6654 54.5H49.4154V52.6666H66.6654L59.082 44.9166L60.332 43.6666L70.2487 53.5833L60.332 63.5ZM13.332 54.5C12.1376 54.5 11.089 54.0486 10.1862 53.1458C9.28342 52.243 8.83203 51.1944 8.83203 50V16.6666C8.83203 15.4722 9.28342 14.4236 10.1862 13.5208C11.089 12.618 12.1376 12.1666 13.332 12.1666H56.6654C57.8598 12.1666 58.9084 12.618 59.8112 13.5208C60.714 14.4236 61.1654 15.4722 61.1654 16.6666V35.6666C61.0543 35.7222 60.9015 35.75 60.707 35.75H59.332V15.5833L34.6654 33.6666L10.6654 15.5833V50C10.6654 50.7777 10.9154 51.4166 11.4154 51.9166C11.9154 52.4166 12.5543 52.6666 13.332 52.6666H42.332C42.3876 52.8055 42.4154 52.9444 42.4154 53.0833V54.5H13.332ZM11.4154 14L34.6654 31.5L58.582 14H11.4154Z" fill="#1C1B1F"/>
</g>
</svg>
