<svg width="64" height="64" viewBox="0 0 64 64" fill="none" xmlns="http://www.w3.org/2000/svg">
<mask id="mask0_2140_2450" style="mask-type:alpha" maskUnits="userSpaceOnUse" x="-1" y="0" width="65" height="64">
<rect x="-0.000488281" width="64" height="64" fill="#D9D9D9"/>
</mask>
<g mask="url(#mask0_2140_2450)">
<path d="M32.023 39.5333C34.4518 39.5333 36.5329 38.6588 38.2662 36.9098C39.9995 35.1607 40.8662 33.0719 40.8662 30.6431C40.8662 28.2143 39.9917 26.1333 38.2426 24.4C36.4936 22.6666 34.4047 21.8 31.976 21.8C29.5472 21.8 27.4662 22.6745 25.7328 24.4235C23.9995 26.1725 23.1329 28.2614 23.1329 30.6902C23.1329 33.1189 24.0074 35.2 25.7564 36.9333C27.5054 38.6666 29.5943 39.5333 32.023 39.5333ZM31.9721 37.9333C29.9459 37.9333 28.2328 37.2241 26.8328 35.8058C25.4328 34.3875 24.7328 32.6653 24.7328 30.6392C24.7328 28.613 25.442 26.9 26.8603 25.5C28.2786 24.1 30.0009 23.4 32.027 23.4C34.0531 23.4 35.7662 24.1091 37.1662 25.5274C38.5662 26.9457 39.2662 28.668 39.2662 30.6941C39.2662 32.7202 38.557 34.4333 37.1387 35.8333C35.7204 37.2333 33.9982 37.9333 31.9721 37.9333ZM32.0058 47.2C26.7127 47.2 21.844 45.8111 17.3995 43.0333C12.9551 40.2555 9.48947 36.5325 7.00272 31.8641C6.91169 31.688 6.84396 31.4985 6.79952 31.2956C6.75507 31.0927 6.73285 30.8831 6.73285 30.6666C6.73285 30.4502 6.75507 30.2405 6.79952 30.0376C6.84396 29.8347 6.91169 29.6453 7.00272 29.4692C9.48947 24.8008 12.953 21.0777 17.3932 18.3C21.8335 15.5222 26.7001 14.1333 31.9933 14.1333C37.2863 14.1333 42.1551 15.5222 46.5995 18.3C51.044 21.0777 54.5096 24.8008 56.9963 29.4692C57.0873 29.6453 57.1551 29.8347 57.1995 30.0376C57.244 30.2405 57.2662 30.4502 57.2662 30.6666C57.2662 30.8831 57.244 31.0927 57.1995 31.2956C57.1551 31.4985 57.0873 31.688 56.9963 31.8641C54.5096 36.5325 51.0461 40.2555 46.6058 43.0333C42.1656 45.8111 37.2989 47.2 32.0058 47.2ZM31.9882 45.7333C37.1513 45.7333 41.8773 44.3777 46.1662 41.6666C50.4551 38.9555 53.7329 35.2889 55.9995 30.6666C53.7329 26.0444 50.4588 22.3777 46.1775 19.6666C41.896 16.9555 37.1738 15.6 32.0108 15.6C26.8477 15.6 22.1217 16.9555 17.8328 19.6666C13.544 22.3777 10.2662 26.0444 7.99952 30.6666C10.2662 35.2889 13.5402 38.9555 17.8216 41.6666C22.103 44.3777 26.8252 45.7333 31.9882 45.7333Z" fill="#3FB8A6"/>
</g>
</svg>
