<svg width="80" height="80" viewBox="0 0 80 80" fill="none" xmlns="http://www.w3.org/2000/svg">
<mask id="mask0_68_1621" style="mask-type:alpha" maskUnits="userSpaceOnUse" x="0" y="0" width="80" height="80">
<rect width="80" height="80" fill="#D9D9D9"/>
</mask>
<g mask="url(#mask0_68_1621)">
<path d="M40.9167 39.0833H67.1667C66.9444 31.9167 64.3056 25.7778 59.25 20.6667C54.1944 15.5556 48.0833 12.9444 40.9167 12.8333V39.0833ZM39.0833 67.1667V12.8333C31.8056 13 25.6111 15.7222 20.5 21C15.3889 26.2778 12.8333 32.6111 12.8333 40C12.8333 47.3889 15.3889 53.7222 20.5 59C25.6111 64.2778 31.8056 67 39.0833 67.1667ZM40.9167 67.1667C48.0833 67.0556 54.1806 64.4444 59.2083 59.3333C64.2361 54.2222 66.8889 48.0833 67.1667 40.9167H40.9167V67.1667ZM40.0145 69C36.0048 69 32.2345 68.2391 28.7035 66.7174C25.1724 65.1956 22.1009 63.1304 19.4889 60.5218C16.877 57.913 14.8092 54.8454 13.2855 51.3188C11.7618 47.7923 11 44.0242 11 40.0145C11 36.0048 11.7609 32.2345 13.2826 28.7035C14.8044 25.1724 16.8696 22.1009 19.4783 19.489C22.087 16.877 25.1546 14.8092 28.6812 13.2855C32.2077 11.7618 35.9758 11 39.9855 11C43.9952 11 47.7639 11.7639 51.2917 13.2917C54.8194 14.8194 57.8889 16.8889 60.5 19.5C63.1111 22.1111 65.1806 25.1772 66.7083 28.6983C68.2361 32.2193 69 35.9953 69 40.0263C69 44.0088 68.2391 47.7599 66.7174 51.2798C65.1956 54.7998 63.1304 57.8737 60.5218 60.5016C57.913 63.1295 54.8454 65.2028 51.3188 66.7217C47.7923 68.2406 44.0242 69 40.0145 69Z" fill="#1C1B1F"/>
</g>
</svg>
