<svg width="144" height="64" viewBox="0 0 144 64" fill="none" xmlns="http://www.w3.org/2000/svg">
<path d="M63.1002 39.0229C63.084 38.8811 63.0676 38.7387 63.0476 38.5981C63.0038 38.2824 62.9555 37.9712 62.9029 37.6512C62.8855 37.5493 62.8693 37.4485 62.853 37.3477C62.8364 37.2446 62.8198 37.1415 62.8021 37.0374C62.7464 36.7352 62.6835 36.4367 62.62 36.1352L62.6004 36.0422C62.579 35.9469 62.5588 35.8503 62.5386 35.7531L62.5383 35.7518C62.5214 35.6706 62.5043 35.5889 62.4864 35.5073C62.3899 35.0908 62.2847 34.6831 62.1752 34.2709C62.1532 34.1788 62.1313 34.0868 62.1049 33.9947C61.9647 33.495 61.8112 32.9996 61.649 32.5042C61.6247 32.4335 61.5993 32.3639 61.5739 32.2944C61.5489 32.2258 61.5239 32.1573 61.4999 32.0877C61.3772 31.7369 61.2545 31.3862 61.1229 31.0399C61.0853 30.9469 61.0477 30.8551 61.0101 30.7633C60.9732 30.6731 60.9362 30.583 60.8993 30.4918C60.7809 30.1937 60.6582 29.8955 60.5311 29.6018C60.4746 29.4747 60.4163 29.3476 60.3585 29.2217L60.3328 29.1657C60.3095 29.115 60.2864 29.0646 60.2637 29.0144C60.1365 28.7381 60.0093 28.4619 59.8734 28.1857C59.8041 28.0408 59.7303 27.8982 59.6568 27.7562L59.6561 27.7548L59.6555 27.7536C59.6271 27.6988 59.5989 27.6441 59.5709 27.5895C59.4306 27.3221 59.2903 27.0591 59.1457 26.7959C59.0362 26.5989 58.9264 26.4012 58.8124 26.2085C58.6635 25.9498 58.5099 25.6911 58.3521 25.4369C58.2382 25.2484 58.1198 25.0554 57.997 24.8669C57.8664 24.6641 57.7331 24.4666 57.5991 24.2682L57.4884 24.1041C57.3657 23.92 57.2429 23.7402 57.1158 23.5605C56.9317 23.3018 56.7431 23.0475 56.5502 22.7932C56.4981 22.7249 56.4467 22.6558 56.3954 22.5869C56.3218 22.488 56.2481 22.3889 56.1732 22.2935C55.954 22.0172 55.7304 21.7454 55.5024 21.4736C55.4456 21.4059 55.3899 21.3381 55.3342 21.2704C55.2783 21.2024 55.2219 21.1338 55.1649 21.0658C54.8229 20.6669 54.4678 20.2679 54.0995 19.8821C52.9464 18.6634 51.7189 17.5411 50.4255 16.5195C44.8182 12.0915 37.9702 9.56183 30.7057 9.29879C30.2979 9.28563 29.8858 9.27692 29.4781 9.27692H29.465C29.4041 9.27692 29.3422 9.27799 29.2798 9.27907C29.2162 9.28016 29.152 9.28127 29.0879 9.28127C28.2506 9.28999 27.4175 9.32946 26.5889 9.3996L26.5707 9.40084C26.3836 9.41359 26.1927 9.4266 26.0059 9.44786L25.8111 9.47194C25.7339 9.48144 25.6566 9.49095 25.5806 9.50049C25.3351 9.5268 25.0895 9.55311 24.844 9.58814C24.7344 9.60565 24.6204 9.62325 24.5065 9.64077L24.4548 9.64826C24.1997 9.68526 23.9412 9.72275 23.6866 9.76789C23.6411 9.77655 23.5944 9.78523 23.5478 9.79391C23.5002 9.80279 23.4525 9.81166 23.406 9.82051C23.1122 9.87314 22.8229 9.92576 22.5335 9.9871C22.4576 10.0031 22.3854 10.0191 22.3135 10.0351L22.2925 10.0397L22.2846 10.0414C21.9847 10.1066 21.6848 10.1719 21.3893 10.2458L21.1789 10.2984C20.8676 10.3773 20.5607 10.4562 20.2538 10.5439C20.2227 10.5528 20.1905 10.5628 20.1582 10.5728C20.1269 10.5825 20.0956 10.5922 20.0653 10.6009C19.7541 10.6929 19.4427 10.785 19.1314 10.8858L19.0938 10.8994C19.0463 10.9167 19.0004 10.9334 18.9517 10.9473C18.6405 11.0481 18.3292 11.1533 18.0223 11.2629C17.9913 11.274 17.9614 11.285 17.9316 11.2961C17.9023 11.3069 17.8729 11.3178 17.8425 11.3286L17.8323 11.3324C17.5288 11.4452 17.2253 11.558 16.9262 11.6794C16.8953 11.6926 16.8656 11.7048 16.8358 11.7169C16.8064 11.7288 16.777 11.7408 16.7465 11.7539C16.444 11.8723 16.1459 11.9994 15.8477 12.131C15.8171 12.1441 15.7864 12.1584 15.7557 12.1726C15.7251 12.1868 15.6943 12.2011 15.6636 12.2143C15.3698 12.3458 15.0761 12.4817 14.7868 12.622C14.7824 12.622 14.778 12.622 14.7736 12.6264C14.0546 12.9464 13.3532 13.3059 12.6736 13.7092V13.6917L12.0335 14.1038C12.0335 14.1082 12.0292 14.1082 12.0292 14.1082C12.027 14.1082 12.0259 14.1093 12.0248 14.1104C12.0237 14.1115 12.0226 14.1126 12.0204 14.1126C12.0027 14.1239 11.9855 14.1353 11.9684 14.1465C11.926 14.1743 11.8843 14.2016 11.8406 14.2266C11.5601 14.3975 11.2794 14.5773 11.0077 14.757C10.9313 14.807 10.8589 14.8569 10.7865 14.9068C10.7508 14.9314 10.715 14.9561 10.6788 14.9807L10.5657 15.0588C10.3744 15.1908 10.1816 15.3238 9.99488 15.463C9.90564 15.5272 9.8164 15.5943 9.72956 15.6596L9.6705 15.704C9.43813 15.8751 9.21011 16.0548 8.98653 16.2346C8.95963 16.2561 8.93231 16.2776 8.90482 16.2993C8.84276 16.3482 8.77988 16.3977 8.7191 16.4493C8.43413 16.6861 8.15355 16.9272 7.87734 17.1728C7.85543 17.1903 7.8335 17.2078 7.81158 17.2297C7.50908 17.5016 7.21533 17.7821 6.92598 18.0671C6.89562 18.0975 6.86525 18.1289 6.83435 18.1609C6.80281 18.1936 6.77068 18.2268 6.73747 18.26C6.52399 18.4735 6.31484 18.6957 6.10572 18.9178L6.10176 18.922L5.83871 19.2114C5.65896 19.413 5.47921 19.6191 5.30385 19.8251L5.0408 20.1408C4.85666 20.36 4.6813 20.5836 4.51032 20.8072C4.47524 20.8532 4.44017 20.8982 4.4051 20.9431C4.37002 20.9881 4.33495 21.033 4.29988 21.079C4.06751 21.3859 3.84392 21.6972 3.62472 22.0173C3.59181 22.0655 3.56001 22.1149 3.52821 22.1642C3.49644 22.2135 3.46467 22.2628 3.43181 22.311C3.28275 22.5389 3.13369 22.7669 2.98901 22.9993C2.92469 23.1022 2.86273 23.2074 2.80139 23.3116C2.77914 23.3494 2.7569 23.3872 2.73473 23.4246C2.69685 23.4901 2.65848 23.5557 2.62012 23.6212C2.54306 23.7529 2.46592 23.8847 2.39276 24.0164C2.30558 24.1646 2.22273 24.3172 2.13991 24.4698L2.13849 24.4724C2.02888 24.674 1.92366 24.8801 1.82282 25.0818L1.59923 25.5289C1.47209 25.7964 1.34934 26.0638 1.23096 26.3356C1.21342 26.3751 1.19479 26.4146 1.17615 26.454C1.15752 26.4935 1.13889 26.5329 1.12136 26.5724C2.48483 18.6414 6.79446 11.4821 13.2962 6.52801C18.9035 2.25784 25.6025 0 32.6697 0C50.3159 0 64.6741 14.3581 64.6741 32.0044C64.6741 35.1828 64.2137 38.3 63.3018 41.3032C63.2975 41.2264 63.2909 41.1486 63.2843 41.0707C63.2777 40.9929 63.2712 40.9151 63.2668 40.8384C63.2547 40.6333 63.2389 40.4319 63.2229 40.2275L63.2185 40.1721C63.1922 39.8608 63.1615 39.5539 63.1265 39.2469C63.1174 39.1727 63.1088 39.0979 63.1002 39.0229Z" fill="#545D6A"/>
<path d="M52.3063 46.9894C52.6176 46.9367 52.9288 46.8798 53.2401 46.8184C53.4418 46.779 53.6434 46.7395 53.8407 46.6957C54.068 46.6483 54.2931 46.5941 54.5191 46.5396L54.5202 46.5394C54.6077 46.5183 54.6953 46.4972 54.7833 46.4764C54.8704 46.4547 54.9574 46.4338 55.044 46.413C55.1494 46.3877 55.2542 46.3626 55.3577 46.3362C55.682 46.2484 56.0021 46.1564 56.3222 46.06C56.41 46.0336 56.4978 46.0084 56.5856 45.9831C56.673 45.9579 56.7608 45.9327 56.8483 45.9065C57.1191 45.8218 57.3873 45.7294 57.655 45.6371L57.7085 45.6187C57.7696 45.5976 57.8307 45.5766 57.8917 45.5558C57.9618 45.5316 58.0331 45.5075 58.1043 45.4834C58.1755 45.4593 58.2468 45.4352 58.3169 45.411C59.2902 45.056 60.246 44.6526 61.1886 44.2054C61.2761 44.1644 61.3619 44.12 61.4481 44.0753C61.5 44.0485 61.5524 44.0214 61.605 43.995C61.8944 43.8547 62.1794 43.71 62.4644 43.561C62.4687 43.2979 62.4644 43.0392 62.4599 42.7762C62.4582 42.6745 62.4579 42.5728 62.4575 42.4711C62.457 42.3185 62.4565 42.1659 62.4512 42.0134C62.4425 41.7129 62.4208 41.4124 62.399 41.1119L62.3986 41.1058C62.3855 40.8603 62.3723 40.6148 62.3548 40.3693C62.3311 40.0931 62.3003 39.8239 62.2688 39.5491L62.2583 39.4574C62.2493 39.3758 62.2407 39.2937 62.2322 39.2115C62.2159 39.055 62.1995 38.898 62.1794 38.7427C62.1399 38.436 62.0873 38.1337 62.0347 37.8313C62.0187 37.7386 62.004 37.6446 61.9894 37.551C61.9681 37.4147 61.9467 37.2776 61.9207 37.1425C61.8793 36.9195 61.8309 36.6988 61.7823 36.4771L61.7726 36.4326C61.7576 36.364 61.7426 36.2952 61.7278 36.2263C61.7039 36.1174 61.681 36.0085 61.6581 35.8996L61.6577 35.8975C61.6346 35.7879 61.6116 35.6783 61.5875 35.5687C61.513 35.2618 61.4297 34.9548 61.3464 34.6523C61.3274 34.5822 61.3089 34.5121 61.2904 34.442L61.2901 34.4411C61.2532 34.3012 61.2162 34.1609 61.1754 34.0211C61.096 33.7429 61.0057 33.4684 60.9144 33.191L60.8861 33.1048C60.8532 33.0039 60.8214 32.903 60.7896 32.8022C60.7578 32.7014 60.726 32.6006 60.6932 32.4997C60.6117 32.2623 60.5224 32.0274 60.4334 31.7932L60.433 31.7922C60.4071 31.7241 60.3812 31.6559 60.3555 31.5878C60.3183 31.4914 60.2832 31.3949 60.2481 31.2985C60.2131 31.202 60.178 31.1056 60.1408 31.0091C60.018 30.7066 59.8864 30.4041 59.755 30.106C59.7284 30.044 59.7024 29.9821 59.6763 29.9202C59.6249 29.798 59.5735 29.6758 59.5182 29.5536C59.3977 29.2853 59.2668 29.0239 59.1348 28.7603L59.0842 28.6592C59.0449 28.5807 59.0074 28.5022 58.9701 28.424C58.924 28.3277 58.8783 28.2319 58.8299 28.1375C58.6942 27.8739 58.5482 27.6136 58.4041 27.3568L58.3477 27.2563C58.3167 27.2003 58.2863 27.1444 58.2559 27.0885C58.1957 26.9778 58.1355 26.8671 58.0715 26.7565C57.9049 26.4628 57.7251 26.1778 57.5453 25.8928C57.5186 25.8492 57.492 25.8052 57.4652 25.7611C57.3952 25.6457 57.3245 25.5291 57.2516 25.415C57.0684 25.1314 56.8765 24.8522 56.6846 24.573L56.6817 24.5688C56.629 24.4942 56.5786 24.4175 56.5282 24.3408C56.4778 24.2641 56.4273 24.1874 56.3747 24.1128C56.2059 23.8727 56.0274 23.6389 55.8475 23.4033L55.7566 23.2842C55.7186 23.234 55.6816 23.1838 55.6448 23.1338C55.5755 23.0397 55.5065 22.9462 55.4322 22.8546C55.2173 22.5828 54.9982 22.3197 54.7745 22.0523C54.7175 21.9844 54.6616 21.9153 54.6058 21.8463C54.5499 21.7772 54.494 21.7082 54.437 21.6402C54.209 21.3772 53.9766 21.1228 53.7399 20.8686L53.3847 20.474C53.1951 20.2739 52.9971 20.0766 52.7997 19.8798L52.6526 19.7331C52.6118 19.6923 52.5711 19.651 52.5301 19.6096C52.448 19.5265 52.3647 19.4422 52.2799 19.3604C52.1012 19.188 51.918 19.0223 51.7352 18.8569L51.7341 18.8559C51.6618 18.7905 51.589 18.7247 51.5171 18.6589C51.451 18.5995 51.386 18.5389 51.321 18.4783C51.2567 18.4183 51.1923 18.3583 51.1269 18.2994C50.9146 18.1124 50.6964 17.9341 50.4771 17.755L50.3334 17.6374C50.2981 17.6078 50.2628 17.5779 50.2273 17.5479L50.2264 17.5471C50.1259 17.462 50.0248 17.3763 49.9213 17.2955C49.7207 17.1344 49.5128 16.9808 49.3049 16.8271C49.2356 16.7758 49.1661 16.7244 49.097 16.6729C49.0537 16.6401 49.0107 16.6072 48.9679 16.5745L48.966 16.573L48.965 16.5722C48.8659 16.4965 48.7677 16.4214 48.6674 16.3485C48.4464 16.1897 48.2227 16.039 47.9985 15.8879C47.938 15.8472 47.8774 15.8064 47.8169 15.7654C47.7419 15.7147 47.667 15.6629 47.5921 15.6111C47.5181 15.56 47.4436 15.5085 47.3697 15.4585C47.1434 15.3111 46.9143 15.1716 46.6847 15.0319C46.6209 14.993 46.5567 14.9539 46.4929 14.9149C46.3394 14.8184 46.186 14.722 46.0281 14.6299C45.7344 14.4589 45.4319 14.2967 45.1294 14.1345C45.0674 14.101 45.006 14.0662 44.9445 14.0313C44.8452 13.975 44.7457 13.9185 44.6428 13.867C44.4369 13.7581 44.229 13.6575 44.0205 13.5566C43.9271 13.5114 43.8331 13.466 43.7396 13.4199C43.6775 13.3897 43.6154 13.3582 43.5531 13.3267C43.444 13.2715 43.3339 13.2158 43.2223 13.1656C43.0023 13.0635 42.7775 12.9684 42.5532 12.8735C42.4692 12.838 42.3853 12.8025 42.3016 12.7666C42.2192 12.7325 42.1378 12.6965 42.0559 12.6603C41.9593 12.6176 41.862 12.5746 41.7624 12.5343C41.5461 12.4447 41.3254 12.3638 41.1035 12.2824C41.0105 12.2483 40.9173 12.2141 40.8241 12.1792C40.7505 12.1518 40.6783 12.1237 40.6063 12.0958C40.4939 12.0522 40.3823 12.0088 40.2674 11.9687C40.0398 11.8886 39.8075 11.8155 39.5757 11.7426C39.4905 11.7158 39.4052 11.6889 39.3204 11.6618C39.2556 11.6412 39.1909 11.6202 39.1262 11.5991C38.9982 11.5574 38.8697 11.5155 38.7417 11.4777C38.4554 11.3942 38.1619 11.3179 37.8711 11.2423L37.7816 11.219C37.6686 11.1896 37.557 11.1587 37.446 11.128C37.3589 11.104 37.272 11.0799 37.1853 11.0568C36.9755 11.0051 36.7637 10.9609 36.5526 10.9168C36.4417 10.8937 36.331 10.8705 36.2208 10.8464C36.1279 10.8266 36.035 10.806 35.9417 10.7852C35.8282 10.76 35.7136 10.7345 35.5982 10.7105C35.3486 10.6639 35.0964 10.6249 34.8437 10.5857C34.7637 10.5734 34.683 10.5609 34.6031 10.5482C34.5147 10.5351 34.4263 10.5195 34.3379 10.5039C34.2202 10.4832 34.1025 10.4625 33.9849 10.4474C33.6407 10.4007 33.2925 10.3663 32.9481 10.3323L32.9151 10.329C32.8545 10.322 32.7938 10.3145 32.733 10.307C32.6048 10.2911 32.476 10.2752 32.3452 10.2633C31.7972 10.2151 31.2404 10.18 30.6836 10.1624C30.3174 10.1494 29.9514 10.145 29.5895 10.1406L29.5831 10.1406C29.4648 10.1406 29.3508 10.1406 29.2325 10.1449C28.9869 10.1449 28.737 10.1493 28.4915 10.1581C28.3469 10.1624 28.2022 10.1669 28.0575 10.1756C27.8427 10.1844 27.6235 10.1975 27.4086 10.2107L27.393 10.2116C27.2445 10.22 27.0922 10.2287 26.9439 10.2414C26.9287 10.2435 26.9146 10.2446 26.9005 10.2457C26.8861 10.2468 26.8717 10.2479 26.8562 10.2502C26.8738 10.2502 26.8924 10.2513 26.9111 10.2523C26.9297 10.2534 26.9483 10.2545 26.9658 10.2545C37.6807 10.6403 46.7296 17.2428 50.7762 26.4628C51.1269 27.2651 51.4426 28.0849 51.7144 28.9267C51.9862 29.764 52.223 30.6233 52.4115 31.4914C52.8893 33.6703 53.1042 35.9413 53.0209 38.2736C53.0077 38.6726 52.9814 39.0716 52.9507 39.4705C52.9449 39.5611 52.9351 39.6518 52.9254 39.7424C52.9205 39.7877 52.9157 39.833 52.9113 39.8783L52.902 39.9709L52.8912 40.0825C52.8726 40.2744 52.8539 40.4681 52.828 40.6586C52.8163 40.764 52.8007 40.8694 52.785 40.9747L52.7725 41.0602L52.7622 41.1322L52.7488 41.2238L52.7318 41.3421C52.7081 41.5069 52.6847 41.6704 52.657 41.8336C52.6383 41.9519 52.6152 42.0702 52.5924 42.187L52.5826 42.2371C52.5766 42.2679 52.5707 42.2986 52.5649 42.329L52.5492 42.4102L52.5366 42.4763L52.5223 42.5512C52.494 42.7007 52.4657 42.8502 52.4334 42.9998C52.3983 43.1664 52.3589 43.333 52.3194 43.4996L52.3192 43.5007C52.2667 43.7193 52.214 43.9386 52.1572 44.1528C52.135 44.2369 52.1118 44.321 52.0886 44.4052C52.0658 44.4876 52.043 44.5701 52.0213 44.6526C51.9599 44.8674 51.8985 45.0823 51.8328 45.2971C51.7802 45.4637 51.7275 45.6259 51.6749 45.7881C51.6048 46.0029 51.5303 46.2178 51.4557 46.4282C51.3987 46.5904 51.3417 46.7483 51.2804 46.9104C51.2725 46.9307 51.2649 46.951 51.2574 46.9713L51.2361 47.03C51.222 47.0691 51.2079 47.1082 51.1927 47.1472L51.6925 47.0815C51.8898 47.0552 52.0958 47.0245 52.3063 46.9894Z" fill="#545D6A"/>
<path d="M83.5961 30.6409H86.56V18.7204H84.3502L80.1239 25.0862L75.88 18.7204H73.688V30.6409H76.6517L76.6341 24.6258L79.2997 28.747V28.7645H80.9481V28.747L83.5961 24.6609V30.6409Z" fill="#545D6A"/>
<path d="M96.9022 23.4728H91.6234V21.2983H97.6736V18.7204H88.6598V30.6453H97.6736V28.0674H91.6234V25.9981H96.9022V23.4728Z" fill="#545D6A"/>
<path fill-rule="evenodd" clip-rule="evenodd" d="M104.162 18.7204C107.897 18.7204 110.598 21.158 110.598 24.6478C110.598 28.1901 107.897 30.6453 104.162 30.6453H99.3574V18.7204H104.162ZM104.162 27.9754C106.091 27.9754 107.582 26.5373 107.582 24.6434C107.582 22.802 106.091 21.3816 104.162 21.3816H102.321V27.9754H104.162Z" fill="#545D6A"/>
<path fill-rule="evenodd" clip-rule="evenodd" d="M76.6517 46.4239V42.9736H78.493L81.0533 46.4283H84.6308L81.5619 42.3949C82.9823 41.6758 83.8417 40.3606 83.8417 38.6946C83.8417 36.1167 81.86 34.5034 78.9139 34.5034H73.688V46.4239H76.6517ZM80.8955 38.6946C80.8955 39.6766 79.9836 40.308 78.8437 40.308H76.6517V37.1163H78.8437C79.9836 37.1163 80.8955 37.7301 80.8955 38.6946Z" fill="#545D6A"/>
<path d="M88.6949 39.2558H93.9737V41.781H88.6949V43.8504H94.7451V46.4283H85.7313V34.5034H94.7451V37.0813H88.6949V39.2558Z" fill="#545D6A"/>
<path fill-rule="evenodd" clip-rule="evenodd" d="M106.284 38.87C106.284 36.1869 104.337 34.5034 101.233 34.5034H96.4288V46.4283H99.3924V43.3944H100.988C104.25 43.3944 106.284 41.6583 106.284 38.87ZM103.32 38.8656C103.32 40.0406 102.478 40.7947 101.163 40.7947H99.3924V37.1119H101.163C102.478 37.1119 103.32 37.7959 103.32 38.8656Z" fill="#545D6A"/>
<path fill-rule="evenodd" clip-rule="evenodd" d="M120.033 40.4613C120.033 43.9336 117.315 46.6693 113.702 46.6693C110.107 46.6693 107.389 43.9336 107.389 40.4613C107.389 36.9891 110.107 34.2534 113.702 34.2534C117.315 34.2578 120.033 36.9935 120.033 40.4613ZM117.017 40.4613C117.017 38.5849 115.631 37.0067 113.702 37.0067C111.773 37.0067 110.387 38.5849 110.387 40.4613C110.387 42.3378 111.773 43.916 113.702 43.916C115.631 43.916 117.017 42.3378 117.017 40.4613Z" fill="#545D6A"/>
<path fill-rule="evenodd" clip-rule="evenodd" d="M124.799 46.4239V42.9736H126.64L129.2 46.4283H132.778L129.708 42.3949C131.129 41.6758 131.988 40.3606 131.988 38.6946C131.988 36.1167 130.007 34.5034 127.061 34.5034H121.834V46.4239H124.799ZM129.042 38.6946C129.042 39.6766 128.13 40.308 126.991 40.308H124.799V37.1163H126.991C128.13 37.1163 129.042 37.7301 129.042 38.6946Z" fill="#545D6A"/>
<path d="M139.547 37.1514V46.4283H136.583V37.1514H132.778V34.5034H143.335V37.1514H139.547Z" fill="#545D6A"/>
<path d="M81.8949 53.7366C81.8949 54.8765 81.439 55.6832 80.7025 56.2093C81.6143 56.7222 82.2106 57.5421 82.2106 58.7521C82.2106 60.9267 80.4043 62.4699 77.7037 62.4699C74.9154 62.4699 73.4773 60.9792 73.2143 58.717H75.9676C76.1605 59.5412 76.5989 60.0849 77.8264 60.0849C78.7909 60.0849 79.4573 59.5237 79.4573 58.7521C79.4573 57.9104 78.7033 57.3842 77.6862 57.3842H76.6515V55.2097H77.6862C78.6156 55.2097 79.2644 54.6485 79.2644 53.8418C79.2644 53.0176 78.6857 52.4915 77.8089 52.4915C76.9321 52.4915 76.3007 53.0352 76.2131 53.8769H73.4598C73.6001 51.6147 75.2134 50.124 77.7212 50.124C80.2289 50.124 81.8949 51.5971 81.8949 53.7366Z" fill="#545D6A"/>
<path fill-rule="evenodd" clip-rule="evenodd" d="M88.6247 53.8461L90.8869 50.2862H87.5551L84.4509 55.214C83.8196 56.2136 83.4338 57.1255 83.4338 58.1075C83.4338 60.5101 85.3628 62.4741 88.2386 62.4741C91.0971 62.4741 93.0611 60.5451 93.0611 58.055C93.0611 55.7708 91.2731 54.004 88.6247 53.8461ZM88.2428 60.1023C87.0331 60.1023 86.1916 59.1554 86.1916 58.1733C86.1916 57.7349 86.3488 57.3491 86.77 56.7528L86.8401 56.6301C87.2083 56.367 87.7174 56.2267 88.2428 56.2267C89.4534 56.2267 90.2778 57.1561 90.2778 58.1558C90.2778 59.1553 89.4534 60.1023 88.2428 60.1023Z" fill="#545D6A"/>
<path fill-rule="evenodd" clip-rule="evenodd" d="M94.482 56.2487C94.482 52.6362 96.5861 50.0232 100.024 50.0232C103.461 50.0232 105.548 52.6362 105.548 56.2487C105.548 59.8613 103.461 62.4743 100.024 62.4743C96.5861 62.4743 94.482 59.8613 94.482 56.2487ZM97.2875 56.2444C97.2875 58.3137 98.217 59.8919 100.006 59.8919C101.777 59.8919 102.706 58.3137 102.706 56.2444C102.706 54.175 101.777 52.5968 100.006 52.5968C98.217 52.5968 97.2875 54.175 97.2875 56.2444Z" fill="#545D6A"/>
<path d="M40.4033 46.8842C40.1096 46.8273 39.8202 46.7703 39.5264 46.7089L39.5225 46.7081C39.3046 46.6601 39.0869 46.6122 38.882 46.5554C38.8069 46.5378 38.7329 46.519 38.6589 46.5002C38.5861 46.4817 38.5131 46.4632 38.4392 46.4458C38.4567 46.4283 38.4731 46.4097 38.4895 46.3911C38.506 46.3725 38.5225 46.3538 38.5401 46.3363C38.6234 46.2529 38.7023 46.1653 38.7812 46.0776C38.9434 45.9022 39.1013 45.7313 39.2547 45.5515C39.2663 45.538 39.2779 45.5242 39.2895 45.5103L39.3318 45.4593C39.3587 45.4268 39.3856 45.3943 39.4125 45.363C39.5835 45.1569 39.7545 44.9509 39.9211 44.7404C39.9364 44.7185 39.9528 44.6977 39.9693 44.6769C39.9775 44.6665 39.9856 44.6561 39.9937 44.6456C40.0018 44.635 40.0098 44.6243 40.0175 44.6132C40.1973 44.381 40.3726 44.1441 40.5436 43.9031L40.5962 43.8241C40.776 43.5699 40.9513 43.3068 41.1179 43.0437C41.1267 43.0262 41.1355 43.013 41.1442 42.9999C41.3152 42.7237 41.4818 42.4431 41.644 42.1625L41.6572 42.1363C41.8194 41.8513 41.9728 41.5619 42.1219 41.2682L42.1351 41.2419C42.2797 40.9525 42.42 40.6587 42.5515 40.3607L42.5541 40.3555L42.5571 40.3489L42.5625 40.3367C42.5658 40.3289 42.5691 40.3212 42.5735 40.3124C42.7006 40.0274 42.819 39.7381 42.933 39.4443C42.9396 39.429 42.9451 39.4136 42.9506 39.3982C42.956 39.3829 42.9615 39.3676 42.968 39.3522C43.0733 39.0761 43.1741 38.7999 43.2662 38.5193C43.2749 38.4952 43.2826 38.4701 43.2902 38.4449C43.2979 38.4197 43.3056 38.3943 43.3144 38.3702C43.4021 38.1115 43.4809 37.8485 43.5555 37.5855C43.5679 37.5461 43.5788 37.5053 43.5899 37.464C43.5985 37.4319 43.6073 37.3988 43.6169 37.3662C43.6783 37.1252 43.7396 36.884 43.7966 36.6429C43.8229 36.5422 43.8448 36.4416 43.8667 36.341C43.9149 36.1261 43.9588 35.9108 43.9983 35.6915C44.0216 35.579 44.0415 35.4631 44.0609 35.3498L44.0685 35.3057C44.1036 35.1172 44.1299 34.9243 44.1561 34.7314C44.1781 34.578 44.2 34.4244 44.2175 34.2666C44.2395 34.1001 44.257 33.9291 44.2702 33.7581C44.2877 33.5783 44.3008 33.403 44.314 33.2232C44.3184 33.1465 44.3217 33.0698 44.325 32.9931C44.3282 32.9164 44.3315 32.8396 44.3359 32.7629C44.3381 32.7076 44.3412 32.6524 44.3444 32.5966C44.3478 32.5374 44.3512 32.4774 44.3535 32.4166H44.3447L44.3465 32.3661L44.35 32.285C44.3539 32.1957 44.3578 32.1056 44.3578 32.0176C44.4104 26.4015 42.271 21.1055 38.3384 17.1027C38.1148 16.8748 37.8868 16.6555 37.6544 16.4407C37.5843 16.3705 37.5098 16.3048 37.4353 16.239C37.2686 16.09 37.102 15.9453 36.9354 15.8006L36.6855 15.5901C36.5102 15.4455 36.3348 15.3052 36.1551 15.1649C36.085 15.1079 36.0104 15.0509 35.9402 14.9983C35.6904 14.8142 35.4405 14.6344 35.1861 14.459C35.1292 14.424 35.0722 14.3889 35.0152 14.3494C34.8091 14.2135 34.6031 14.0776 34.397 13.9505C34.351 13.922 34.3049 13.8946 34.2589 13.8671C34.2129 13.8397 34.1669 13.8124 34.1208 13.7839L34.025 13.7277L34.0242 13.7272C33.8754 13.6399 33.7241 13.5511 33.5728 13.4682C33.4807 13.4156 33.3887 13.363 33.2922 13.3104C33.0774 13.1965 32.8626 13.0868 32.6434 12.9772C32.6129 12.962 32.5836 12.9468 32.5543 12.9316L32.5055 12.9064L32.4636 12.8851C32.1881 12.7496 31.9082 12.6271 31.6283 12.5046L31.6263 12.5037C31.5801 12.4832 31.5325 12.4642 31.4842 12.4449C31.4499 12.4313 31.4153 12.4174 31.3807 12.4029C31.1747 12.3196 30.9686 12.2363 30.7582 12.1574C30.7067 12.1395 30.6541 12.1205 30.6015 12.1014C30.5511 12.0832 30.5007 12.0649 30.4513 12.0478C30.2496 11.9776 30.0479 11.9075 29.8419 11.8417C29.7922 11.8259 29.7437 11.8101 29.6952 11.7943C29.6495 11.7794 29.6037 11.7645 29.557 11.7496C29.272 11.6576 28.9826 11.5743 28.6889 11.4997C28.6823 11.4975 28.6768 11.4964 28.6713 11.4954C28.6675 11.4946 28.6637 11.4938 28.6596 11.4927L28.6538 11.491C28.3556 11.4121 28.0576 11.3463 27.755 11.2805C27.6586 11.2586 27.5665 11.2411 27.47 11.2235C27.4103 11.2125 27.3494 11.2003 27.2886 11.1881C27.2289 11.1762 27.1692 11.1642 27.1106 11.1534C27.3123 11.1622 27.5139 11.1753 27.7112 11.1885L27.7463 11.1907C27.9454 11.2031 28.1481 11.2158 28.3469 11.2323C28.5048 11.247 28.6588 11.2655 28.8128 11.284C28.8897 11.2932 28.9666 11.3025 29.0439 11.3113C29.1273 11.3219 29.2114 11.3311 29.2957 11.3403C29.4195 11.3539 29.544 11.3675 29.6666 11.3857C29.8988 11.4209 30.1269 11.4602 30.3549 11.4997C30.4259 11.5121 30.4975 11.5239 30.5692 11.5357C30.7011 11.5575 30.8336 11.5794 30.9642 11.605C31.0994 11.631 31.2331 11.6616 31.3671 11.6923C31.4589 11.7133 31.5511 11.7344 31.6438 11.754C31.7095 11.7687 31.7753 11.7828 31.841 11.7969C31.9725 11.8251 32.1042 11.8534 32.2356 11.8855C32.4099 11.9257 32.5815 11.9736 32.7526 12.0214C32.8053 12.0361 32.8581 12.0508 32.9108 12.0653C32.9751 12.0828 33.0399 12.0999 33.1046 12.1169C33.2342 12.151 33.3638 12.1852 33.4895 12.2231C33.6293 12.2643 33.7673 12.3105 33.9047 12.3565C33.9871 12.3841 34.0694 12.4116 34.1515 12.4379C34.2146 12.4585 34.2781 12.4785 34.3416 12.4985C34.4681 12.5384 34.5945 12.5783 34.717 12.6221C34.8863 12.6796 35.0531 12.7451 35.2191 12.8103L35.22 12.8106C35.2687 12.8297 35.3173 12.8488 35.3659 12.8676C35.4318 12.8933 35.4982 12.9185 35.5648 12.9436C35.6799 12.9871 35.7959 13.0309 35.9096 13.078C36.0917 13.1524 36.2707 13.233 36.4519 13.3146L36.5496 13.3586C36.6198 13.3902 36.69 13.4204 36.7601 13.4505C36.8653 13.4958 36.9705 13.541 37.0757 13.591C37.2232 13.6586 37.3686 13.7326 37.5148 13.8071L37.5166 13.8081C37.5784 13.8395 37.6404 13.8711 37.7027 13.9023L37.7061 13.9039C37.8759 13.9867 38.0458 14.0694 38.2112 14.1565C38.339 14.2245 38.4651 14.2958 38.5916 14.3674L38.5924 14.3679C38.6696 14.4115 38.7471 14.4554 38.825 14.4985C38.8865 14.5334 38.9486 14.5677 39.0109 14.602C39.1128 14.6582 39.2154 14.7149 39.316 14.7747C39.5177 14.8931 39.715 15.0202 39.9123 15.1473C39.978 15.1893 40.0445 15.2305 40.1107 15.2716C40.2037 15.3292 40.2962 15.3866 40.3858 15.4455C40.5386 15.5474 40.6862 15.6519 40.8347 15.757L40.9645 15.8488C41.03 15.8956 41.0955 15.9408 41.1607 15.9858C41.2482 16.0461 41.335 16.106 41.4204 16.1688C41.6134 16.3092 41.7975 16.4538 41.9816 16.5986L42.0699 16.666C42.188 16.7561 42.3042 16.8449 42.42 16.9361C42.5521 17.0399 42.6797 17.1504 42.8076 17.2612L42.8083 17.2619C42.8585 17.3054 42.9087 17.3489 42.9593 17.392L43.0142 17.4382L43.07 17.4848C43.173 17.5709 43.2758 17.6568 43.3758 17.7472C43.4881 17.8458 43.5953 17.9479 43.7027 18.0501C43.767 18.1113 43.8319 18.1731 43.8975 18.2338C43.9543 18.2887 44.012 18.342 44.0694 18.3951C44.1448 18.4649 44.2198 18.5342 44.292 18.6064C44.4064 18.7179 44.5169 18.8333 44.6274 18.9486C44.6821 19.0057 44.7367 19.0628 44.7919 19.1194C44.919 19.2466 45.0461 19.3737 45.1689 19.5053C45.2972 19.6404 45.42 19.7811 45.5438 19.923L45.5447 19.924C45.5771 19.9612 45.6096 19.9984 45.6423 20.0357C45.69 20.0904 45.7384 20.1444 45.7869 20.1986C45.8588 20.2788 45.9313 20.3597 46.0019 20.4435C46.1216 20.5837 46.236 20.7292 46.3513 20.876L46.3519 20.8768C46.3842 20.9178 46.4165 20.959 46.4491 21.0002L46.4775 21.0352L46.5302 21.0995C46.6169 21.2054 46.7031 21.3108 46.7866 21.4211C46.9305 21.6085 47.07 21.8047 47.2095 22.0009L47.2119 22.0042C47.2506 22.0581 47.2907 22.1126 47.3311 22.1676C47.3957 22.2557 47.4611 22.3448 47.5232 22.4338C47.6288 22.5871 47.7317 22.7457 47.8341 22.9034L47.9221 23.0388L47.9251 23.0433C48.025 23.1909 48.1248 23.3385 48.2159 23.4861C48.316 23.6484 48.4135 23.8162 48.5103 23.983L48.5885 24.1173C48.6193 24.1697 48.6512 24.222 48.6832 24.2746L48.6844 24.2764C48.7431 24.3729 48.8023 24.47 48.856 24.5689C48.9446 24.7265 49.0283 24.889 49.1127 25.0527C49.1409 25.1076 49.1694 25.1628 49.198 25.2177C49.2375 25.2968 49.2792 25.3748 49.3209 25.4528C49.3625 25.5304 49.4041 25.6081 49.4434 25.6868C49.5229 25.8525 49.5999 26.0206 49.6764 26.1875L49.7504 26.3488C49.7791 26.4114 49.8091 26.4733 49.8392 26.5354C49.8872 26.6342 49.9352 26.7332 49.9783 26.8355C50.0467 26.9941 50.1107 27.1548 50.1749 27.3162L50.2209 27.4315L50.2545 27.5151C50.2788 27.575 50.3037 27.6356 50.3288 27.6965L50.3293 27.6979C50.3719 27.8013 50.4149 27.9059 50.4562 28.0105C50.5438 28.2428 50.6228 28.4752 50.7017 28.7076L50.7413 28.8175C50.7893 28.9505 50.8368 29.082 50.8815 29.2162C50.9555 29.4558 51.0253 29.6956 51.095 29.9353L51.0962 29.9395C51.117 30.0111 51.1385 30.0827 51.1602 30.1547L51.1606 30.1559C51.1891 30.2508 51.218 30.3468 51.2453 30.4437C51.2906 30.6129 51.3318 30.7841 51.3731 30.956C51.3917 31.0336 51.4104 31.1113 51.4295 31.189C51.4445 31.2525 51.4608 31.316 51.4772 31.3797C51.5037 31.483 51.5305 31.5875 51.5522 31.6931C51.5957 31.8839 51.6316 32.0772 51.6675 32.271L51.6677 32.2722C51.6788 32.3318 51.6899 32.3919 51.7013 32.4516C51.7364 32.6226 51.7714 32.7936 51.8022 32.9646C51.8414 33.2226 51.8765 33.4851 51.9115 33.7475L51.9118 33.7494C51.9228 33.8354 51.9349 33.9204 51.9471 34.0054C51.959 34.0892 51.971 34.173 51.9819 34.2579C52.0163 34.5378 52.0381 34.8263 52.0596 35.1107L52.0608 35.126C52.0653 35.1771 52.0703 35.2277 52.0753 35.2782C52.0849 35.3748 52.0945 35.4708 52.1002 35.5688C52.1218 35.8795 52.1306 36.1986 52.1393 36.5138L52.1397 36.5289C52.1397 36.5902 52.143 36.6516 52.1463 36.713C52.1496 36.7744 52.1528 36.8358 52.1528 36.8971C52.1616 37.3399 52.1572 37.7872 52.1397 38.2387C52.1265 38.6377 52.1002 39.0322 52.0696 39.4268L52.0301 39.7907C52.0236 39.8574 52.0174 39.9241 52.0112 39.9908C51.9922 40.1956 51.9733 40.4001 51.9468 40.6018C51.9351 40.7015 51.9194 40.8012 51.9038 40.901C51.896 40.9503 51.8883 40.9996 51.881 41.049C51.846 41.2901 51.8109 41.5312 51.7714 41.768C51.7539 41.8758 51.7326 41.9837 51.7112 42.0915L51.7109 42.0931C51.7002 42.1469 51.6896 42.2007 51.6794 42.2546C51.6657 42.3243 51.6525 42.3941 51.6392 42.4637C51.6101 42.6171 51.581 42.7704 51.5478 42.921C51.5281 43.0044 51.5072 43.0888 51.4864 43.1733L51.4862 43.1743C51.4654 43.2583 51.4447 43.3423 51.4251 43.4252C51.4062 43.5006 51.3879 43.5766 51.3696 43.6527C51.3368 43.789 51.3038 43.9258 51.2673 44.0608C51.2434 44.1455 51.2184 44.2302 51.1934 44.3148C51.168 44.4012 51.1425 44.4875 51.1182 44.5739L51.1178 44.5751C51.061 44.7807 51.0041 44.9863 50.9384 45.1876C50.9048 45.2969 50.8676 45.4045 50.8302 45.5125C50.8092 45.5734 50.788 45.6345 50.7674 45.6962C50.7441 45.7633 50.7212 45.8303 50.6984 45.8974C50.6526 46.0319 50.6067 46.1667 50.557 46.3012C50.5091 46.4312 50.4585 46.5586 50.4074 46.6874L50.3641 46.7966C50.3028 46.9588 50.2413 47.1166 50.1756 47.2745C49.8731 47.3052 49.5662 47.3315 49.2593 47.3533C49.207 47.3576 49.1542 47.3623 49.1013 47.367C48.9902 47.3769 48.8781 47.3869 48.7683 47.3928C47.7249 47.4586 46.6858 47.4761 45.6468 47.4454C45.5854 47.4433 45.5229 47.44 45.4605 47.4367C45.398 47.4334 45.3355 47.4301 45.2741 47.4279C44.8839 47.4148 44.4937 47.3973 44.1036 47.3665C43.9282 47.3533 43.7528 47.3358 43.5774 47.3183C43.2399 47.2877 42.9022 47.2569 42.5647 47.2174C42.4269 47.2025 42.2912 47.1834 42.1561 47.1645C42.0936 47.1557 42.0309 47.1469 41.9685 47.1386C41.6572 47.0947 41.3503 47.0508 41.039 46.9983C40.8286 46.9632 40.6137 46.9237 40.4033 46.8842Z" fill="#545D6A"/>
<path d="M31.6483 43.9645C31.999 44.1398 32.3541 44.3108 32.7136 44.473C33.0994 44.6483 33.4896 44.8194 33.8799 44.9771C33.9678 45.0124 34.0559 45.0465 34.1439 45.0806C34.2312 45.1144 34.3186 45.1483 34.4059 45.1832C34.7523 45.3191 35.103 45.4462 35.4537 45.569C35.5192 45.5914 35.5854 45.6145 35.652 45.6377L35.6528 45.638C35.7553 45.6738 35.8588 45.7099 35.9623 45.7444C36.3568 45.8759 36.7514 45.9986 37.1504 46.1127C37.1986 46.1259 37.2458 46.1401 37.2929 46.1544C37.3401 46.1686 37.3872 46.1828 37.4354 46.196L37.6283 46.0031C37.8036 45.8277 37.9746 45.648 38.1456 45.4682C38.2202 45.3893 38.2903 45.3103 38.3604 45.227C38.5445 45.021 38.7243 44.8149 38.8953 44.6045C38.9216 44.5716 38.9479 44.5398 38.9742 44.508L38.9917 44.4869L39.0193 44.4533C39.0306 44.4396 39.0418 44.4257 39.0531 44.4116C39.246 44.1749 39.4302 43.9337 39.6099 43.6883C39.6184 43.6762 39.6268 43.6645 39.6352 43.6529L39.6556 43.6251C39.671 43.6043 39.6866 43.583 39.702 43.561C39.908 43.2761 40.1097 42.9823 40.2983 42.6886C40.3026 42.6843 40.3026 42.6798 40.307 42.6755C41.118 41.4173 41.78 40.0756 42.2843 38.6728L42.2843 38.6702L42.2886 38.664L42.2862 38.6665L42.2852 38.6677L42.2846 38.6688L42.2843 38.6702C40.1794 41.7136 36.6611 43.6883 32.6698 43.6883C32.0473 43.6883 31.4335 43.6356 30.8241 43.5392C30.8875 43.572 30.9509 43.607 31.0143 43.6419C31.078 43.6771 31.1418 43.7123 31.2055 43.7452C31.2653 43.7751 31.325 43.8043 31.3845 43.8333L31.3854 43.8338C31.4739 43.877 31.562 43.92 31.6483 43.9645Z" fill="#545D6A"/>
<path d="M27.6236 63.4256C27.3342 63.4431 27.0492 63.4563 26.7599 63.4651C11.6345 60.6373 0.665405 47.4147 0.665405 32.0044C0.665405 31.4914 0.678558 30.9741 0.704863 30.4567C1.02929 29.2467 1.4414 28.0674 1.92804 26.9319C1.93897 26.9079 1.94989 26.8849 1.96082 26.862C1.97179 26.8389 1.98283 26.8157 1.9938 26.7916C2.1341 26.4628 2.28316 26.134 2.44099 25.8139C2.46559 25.7592 2.49359 25.7063 2.52182 25.6529C2.53887 25.6207 2.55601 25.5883 2.57252 25.5553L2.63354 25.435C2.75364 25.198 2.87472 24.959 3.00216 24.7266C3.04707 24.6432 3.09433 24.5622 3.14222 24.48C3.15977 24.4499 3.17743 24.4196 3.19507 24.3891C3.33097 24.1479 3.46688 23.9068 3.61156 23.6701C3.66818 23.5757 3.72706 23.4836 3.78658 23.3905L3.78763 23.3888C3.81064 23.3528 3.83396 23.3163 3.85707 23.2798C3.99298 23.0651 4.12889 22.8547 4.26918 22.6442C4.36474 22.5009 4.46461 22.3618 4.56452 22.2228L4.56731 22.2189C4.61494 22.1518 4.66258 22.0857 4.71022 22.0197L4.71076 22.0189C4.7594 21.9515 4.80803 21.8841 4.85666 21.8156C4.74267 22.0304 4.63745 22.2452 4.53223 22.46L4.53181 22.4609C4.46619 22.5877 4.40058 22.7146 4.33933 22.8415C4.21657 23.0957 4.10697 23.3544 3.99736 23.6175C3.98089 23.6555 3.96404 23.6935 3.94715 23.7316C3.90561 23.8254 3.86378 23.9198 3.82638 24.0164C3.73022 24.2529 3.64504 24.4966 3.5608 24.7376L3.53703 24.8055C3.48442 24.9458 3.4318 25.0862 3.38358 25.2265C3.30792 25.4535 3.24205 25.687 3.17752 25.9158L3.14684 26.0244C3.12851 26.0916 3.10829 26.1588 3.08794 26.2264C3.06447 26.3044 3.04083 26.383 3.0197 26.4628C2.96622 26.6667 2.92039 26.8731 2.87444 27.0801C2.86011 27.1446 2.84577 27.2092 2.83118 27.2738C2.81582 27.3506 2.79826 27.4252 2.78071 27.4998C2.76319 27.5743 2.74567 27.6488 2.73034 27.7254C2.68328 27.9535 2.64817 28.1815 2.61268 28.4121L2.59005 28.5584C2.57955 28.6298 2.56705 28.7011 2.55446 28.7729C2.54076 28.8511 2.52695 28.9299 2.51552 29.0099C2.47607 29.3037 2.44975 29.6018 2.42345 29.8999C2.41813 29.9567 2.41137 30.0128 2.40463 30.0687C2.39471 30.1509 2.38483 30.2329 2.37961 30.3164C2.34892 30.7549 2.33139 31.1933 2.327 31.6361C2.22616 43.219 11.5688 52.7327 23.1737 52.8335H23.3622C23.4677 52.8335 23.5751 52.8295 23.6819 52.8256C23.7348 52.8237 23.7878 52.8218 23.8401 52.8203C23.9804 52.8203 24.1207 52.816 24.2566 52.8115C24.4889 52.8028 24.7212 52.7853 24.9536 52.7677C25.0012 52.7632 25.05 52.7598 25.0994 52.7564C25.1254 52.7546 25.1516 52.7528 25.1778 52.7508L25.2014 52.749L25.2386 52.7458C25.506 52.7239 25.7691 52.6932 26.0365 52.6581C26.065 52.6537 26.0946 52.6504 26.1242 52.6471C26.1537 52.6439 26.1836 52.6405 26.2119 52.6362C26.5056 52.5967 26.795 52.5485 27.0843 52.4959C27.1112 52.4882 27.1415 52.4839 27.1692 52.48L27.1808 52.4783C27.4921 52.4214 27.799 52.3556 28.1015 52.2854C28.1047 52.2844 28.1082 52.2836 28.1119 52.2829C28.1156 52.2822 28.1195 52.2816 28.1234 52.2811C28.131 52.28 28.1387 52.2789 28.1453 52.2767C28.461 52.2021 28.7723 52.1233 29.0791 52.0355C29.081 52.0355 29.0838 52.0355 29.087 52.0352C29.0889 52.035 29.0909 52.0346 29.093 52.0341L29.0973 52.0328L29.101 52.0312C29.408 51.9435 29.7192 51.847 30.0217 51.7462C30.0247 51.7447 30.0278 51.7437 30.0308 51.7429L30.0347 51.7419C30.0392 51.7408 30.0436 51.7396 30.048 51.7374C30.3462 51.6366 30.6399 51.5314 30.9337 51.4174C30.9512 51.413 30.9687 51.4087 30.9862 51.3999C31.2624 51.2903 31.5386 51.1763 31.8148 51.0535L31.9069 51.0141C32.1656 50.9001 32.4155 50.7817 32.6698 50.6546L32.6736 50.6528C32.7205 50.6315 32.7675 50.61 32.8144 50.5844C33.0468 50.466 33.2747 50.3433 33.5027 50.2161C33.5199 50.207 33.5373 50.1978 33.5549 50.1886C33.6047 50.1625 33.6558 50.1357 33.7044 50.1065C33.9105 49.9881 34.1121 49.8654 34.3138 49.7427L34.5769 49.5848C34.7317 49.4866 34.8866 49.3819 35.0387 49.279L35.1117 49.2297C35.1408 49.2103 35.1698 49.1912 35.1988 49.1723C35.2747 49.1225 35.35 49.0732 35.423 49.0192C35.5394 48.9384 35.6534 48.8528 35.7668 48.7677C35.8071 48.7375 35.8475 48.7071 35.8877 48.6773C35.9267 48.6484 35.9658 48.6199 36.0048 48.5915C36.0841 48.5337 36.1635 48.476 36.2428 48.4142C36.3831 48.3046 36.519 48.195 36.655 48.0811C36.7821 47.9802 36.9092 47.875 37.032 47.7697C37.1175 47.696 37.2011 47.6202 37.2854 47.5438C37.3263 47.5067 37.3675 47.4694 37.409 47.4322C37.4573 47.3884 37.5055 47.3456 37.5538 47.3028C37.602 47.2601 37.6502 47.2173 37.6984 47.1735C37.7443 47.1856 37.7914 47.1963 37.8392 47.2072C37.8781 47.2161 37.9177 47.2251 37.957 47.2349C38.2858 47.3226 38.6146 47.4015 38.9478 47.476C39.0224 47.4914 39.0969 47.5078 39.1714 47.5243C39.246 47.5407 39.3205 47.5571 39.3951 47.5725C39.7282 47.6426 40.0614 47.7084 40.399 47.7697C40.457 47.7801 40.5139 47.7905 40.5708 47.8008L40.5723 47.8011C40.6355 47.8126 40.6986 47.8241 40.7629 47.8355C41.2101 47.9101 41.6573 47.9802 42.1044 48.0372C42.1734 48.0487 42.2443 48.0564 42.3145 48.0641L42.3532 48.0684C42.3771 48.071 42.4009 48.0737 42.4245 48.0767C42.7796 48.1205 43.1347 48.16 43.4898 48.1907C43.5622 48.1972 43.6345 48.2027 43.7069 48.2082C43.7792 48.2137 43.8515 48.2192 43.9239 48.2258C44.2746 48.252 44.6209 48.274 44.9673 48.2915C45.0265 48.2937 45.0846 48.297 45.1427 48.3003C45.2008 48.3036 45.2588 48.3068 45.3181 48.3091C45.7652 48.3266 46.2124 48.3397 46.664 48.3397H46.7605C47.212 48.3397 47.6635 48.3266 48.1151 48.3091C48.2028 48.3091 48.2861 48.3046 48.3738 48.3003C48.821 48.2783 49.2682 48.2476 49.7153 48.2082C49.7416 48.2082 49.7636 48.2082 49.7898 48.2038C49.2331 49.4139 48.593 50.5713 47.874 51.6673C47.8608 51.6892 47.8477 51.7067 47.8346 51.7287C47.6811 51.9611 47.5233 52.1934 47.361 52.4214L47.2821 52.5266C47.1287 52.737 46.9752 52.9474 46.8174 53.1535L46.8022 53.1741L46.7901 53.1902L46.7631 53.2252L46.7486 53.244L46.7322 53.2655C46.7239 53.2764 46.7158 53.2873 46.7078 53.2982C46.5601 53.4894 46.408 53.6763 46.256 53.8631L46.2519 53.8681C46.208 53.9251 46.1598 53.9821 46.1115 54.0392L46.0539 54.1071L45.9966 54.1751C45.8871 54.3049 45.7781 54.4341 45.6644 54.5608C45.6075 54.6265 45.5503 54.6924 45.4934 54.7537C45.3487 54.9159 45.1996 55.0782 45.0506 55.236C44.9892 55.3062 44.9234 55.3763 44.8577 55.442C44.7839 55.5158 44.7112 55.5896 44.6385 55.6634C44.5643 55.7387 44.4902 55.814 44.4149 55.8892C44.3447 55.9594 44.2746 56.0295 44.2001 56.0997C44.1509 56.1459 44.1023 56.1922 44.0537 56.2383C43.9552 56.3319 43.8571 56.4252 43.7573 56.5161C43.7182 56.5509 43.6791 56.5867 43.64 56.6226C43.6002 56.6591 43.5603 56.6956 43.5205 56.731C43.3759 56.8626 43.2268 56.994 43.0777 57.1212L43.0174 57.1721L42.9503 57.2288C42.9077 57.2649 42.865 57.301 42.8235 57.336C42.6744 57.4588 42.5253 57.5815 42.3762 57.6999C42.2842 57.7744 42.1965 57.8446 42.1044 57.9147L42.1014 57.9171C41.9534 58.0302 41.8053 58.1435 41.6529 58.2567C41.6 58.2945 41.5472 58.3337 41.4935 58.3735C41.4537 58.403 41.4133 58.4329 41.3723 58.4628C41.2188 58.5724 41.0654 58.682 40.912 58.7871L40.6226 58.9845C40.4692 59.0896 40.3113 59.1949 40.1535 59.2957C40.1173 59.3188 40.0811 59.3424 40.0447 59.3662C39.984 59.4059 39.9228 59.4459 39.8598 59.4843C39.7032 59.5842 39.5424 59.6799 39.3815 59.7756L39.3775 59.778C39.327 59.8065 39.2775 59.8362 39.2281 59.8659C39.1789 59.8954 39.1296 59.925 39.0794 59.9534C38.9128 60.0498 38.7462 60.1419 38.5796 60.2339L38.5707 60.2389C38.4728 60.2942 38.375 60.3495 38.2771 60.4005C38.1475 60.4703 38.0155 60.5375 37.8847 60.6042L37.7597 60.668C37.7092 60.6921 37.6597 60.7174 37.6102 60.7427C37.5611 60.7679 37.5119 60.793 37.4616 60.8171C37.2821 60.9046 37.1027 60.9877 36.9232 61.0709L36.9224 61.0713C36.8259 61.1196 36.7295 61.1634 36.633 61.2072C36.4489 61.2905 36.2648 61.3694 36.0762 61.4484C36.0275 61.4683 35.9798 61.4883 35.9321 61.5082L35.9307 61.5088L35.8492 61.5428L35.7912 61.5667C35.6012 61.6445 35.407 61.7179 35.2127 61.7914L35.2038 61.7947C35.1599 61.8101 35.1149 61.8276 35.07 61.8452C35.0251 61.8627 34.9801 61.8802 34.9363 61.8955C34.7751 61.9538 34.6111 62.0095 34.4486 62.0646L34.3138 62.1104C34.2933 62.1172 34.2724 62.1243 34.2514 62.1316L34.2171 62.1435C34.1684 62.1605 34.1179 62.178 34.0683 62.1937C33.8878 62.2514 33.7043 62.3062 33.5228 62.3605L33.4063 62.3953C33.3694 62.4062 33.3336 62.417 33.2978 62.4278C33.2613 62.4389 33.2247 62.45 33.1871 62.4611C32.9503 62.5312 32.7136 62.5926 32.4724 62.654C32.4155 62.6715 32.3541 62.6891 32.2971 62.7023C32.0384 62.7679 31.7798 62.8249 31.5167 62.882L31.4892 62.888L31.4583 62.8945L31.4571 62.8948C31.4357 62.8993 31.4142 62.9038 31.394 62.9083C31.0958 62.974 30.7977 63.031 30.4952 63.0836C30.4908 63.0881 30.4864 63.0881 30.4821 63.0881C29.557 63.2502 28.6187 63.3643 27.6674 63.4256H27.6236Z" fill="#545D6A"/>
<path d="M62.026 44.771L61.8023 44.8763C61.6094 44.9684 61.4122 45.0604 61.2192 45.1481C60.9387 45.2796 60.6581 45.4068 60.3731 45.5295C60.2701 45.5734 60.1671 45.6161 60.0641 45.6588C59.961 45.7016 59.858 45.7443 59.755 45.7881C59.4743 45.9022 59.1938 46.0118 58.9132 46.117L58.9104 46.118C58.7008 46.1966 58.4913 46.2752 58.2774 46.3493C58.0742 46.4212 57.8732 46.4887 57.6712 46.5565C57.59 46.5837 57.5087 46.611 57.427 46.6387L57.2983 46.6808C57.1277 46.7367 56.9586 46.7922 56.7868 46.8447C56.4985 46.9308 56.2059 47.0127 55.9133 47.0945L55.8969 47.0991C55.8342 47.1164 55.7716 47.1341 55.7088 47.1519C55.5652 47.1925 55.4206 47.2334 55.2743 47.27C54.9484 47.3526 54.6183 47.4265 54.2881 47.5004L54.2791 47.5024C54.2256 47.5144 54.1722 47.5269 54.1186 47.5393L54.117 47.5397C53.9954 47.568 53.873 47.5965 53.7487 47.6207C53.2445 47.726 52.7403 47.8181 52.2317 47.9014C52.1507 47.9145 52.0686 47.9254 51.9866 47.9364C51.9044 47.9473 51.8218 47.9583 51.7407 47.9715L51.7344 47.9725C51.4209 48.0203 51.1073 48.0682 50.7937 48.103H50.7894C50.2282 49.3963 49.5662 50.6283 48.8252 51.7944C48.8165 51.8076 48.8088 51.8207 48.8011 51.8339C48.7935 51.847 48.7858 51.8603 48.777 51.8734C48.6455 52.0794 48.5096 52.2855 48.3693 52.4872C48.343 52.5267 48.3123 52.5705 48.286 52.61C48.1501 52.8072 48.0141 53.0001 47.8739 53.193C47.8585 53.2128 47.8443 53.2325 47.83 53.2522C47.8158 53.272 47.8016 53.2917 47.7862 53.3114C47.6415 53.5087 47.4969 53.7016 47.3478 53.8901C47.3467 53.8922 47.3454 53.8941 47.344 53.8958C47.3424 53.8976 47.3408 53.8993 47.3391 53.901C47.3358 53.9043 47.3325 53.9076 47.3303 53.912C46.8612 54.5127 46.3658 55.0914 45.8528 55.6481L45.695 55.8192C45.6073 55.9127 45.5196 56.0023 45.4319 56.0919C45.3881 56.1367 45.3442 56.1815 45.3004 56.2268C45.2259 56.3058 45.1469 56.3847 45.0724 56.4592C44.9452 56.5863 44.8181 56.7091 44.691 56.8319C44.6033 56.9151 44.5156 56.9984 44.4279 57.0774C44.3031 57.1937 44.1782 57.3056 44.0534 57.4175L44.0465 57.4237C43.9544 57.507 43.8579 57.5903 43.7615 57.6736L43.3801 58.0024L43.3743 58.0072C43.2754 58.0888 43.1763 58.1707 43.0733 58.2523C42.9484 58.3556 42.8236 58.4547 42.6988 58.5537L42.6918 58.5593C42.5822 58.6469 42.4682 58.7302 42.3542 58.8135C42.1306 58.9844 41.9027 59.1511 41.6703 59.3177L41.587 59.3775C41.4932 59.445 41.4002 59.512 41.302 59.5763C41.2135 59.6395 41.1228 59.6982 41.0314 59.7572C40.9961 59.78 40.9604 59.8031 40.925 59.8263C40.8631 59.8661 40.8011 59.907 40.7392 59.9479L40.738 59.9487C40.6776 59.9886 40.6172 60.0285 40.5567 60.0674C40.4296 60.1507 40.3024 60.2296 40.1709 60.3085C40.0482 60.3874 39.921 60.462 39.7938 60.5365C39.6624 60.6154 39.5352 60.6899 39.4037 60.7645C39.3406 60.8014 39.2764 60.8373 39.2122 60.8732C39.1472 60.9096 39.0818 60.9462 39.0179 60.9837C38.9869 61.0002 38.956 61.017 38.925 61.0338L38.897 61.0491L38.8218 61.0904C38.7556 61.1268 38.6895 61.1632 38.6233 61.1985C38.556 61.2332 38.4898 61.2679 38.4236 61.3026C38.3561 61.3381 38.2886 61.3735 38.22 61.4089C38.1549 61.4414 38.091 61.474 38.027 61.5065L37.9248 61.5584C37.8933 61.5743 37.8617 61.5903 37.8298 61.6062C37.6851 61.6764 37.5361 61.7465 37.387 61.8167C37.3534 61.8317 37.3202 61.847 37.287 61.8625C37.2574 61.8764 37.2279 61.8904 37.1985 61.9043C37.136 61.9339 37.0735 61.9635 37.0099 61.992C36.7557 62.106 36.5013 62.2156 36.2427 62.3209C36.1692 62.3512 36.0942 62.3802 36.0186 62.4094L35.9483 62.4366C35.9326 62.4427 35.9168 62.4489 35.901 62.4551C35.8848 62.4614 35.8687 62.4678 35.8525 62.4743C35.7975 62.4953 35.7431 62.5169 35.6889 62.5385C35.5961 62.5753 35.5038 62.612 35.4097 62.6452C35.2756 62.6971 35.1373 62.7447 34.999 62.7923L34.9932 62.7943C34.8503 62.8463 34.7074 62.8939 34.5645 62.9416L34.5592 62.9434C34.4189 62.9916 34.2786 63.0355 34.1339 63.0793C34.0609 63.1014 33.9878 63.1247 33.9148 63.1479C33.8432 63.1707 33.7715 63.1935 33.6999 63.2152C33.6278 63.2371 33.5569 63.2578 33.4859 63.2785L33.3914 63.3062C33.3512 63.318 33.3109 63.33 33.2703 63.3424C33.1212 63.3818 32.9721 63.4213 32.8275 63.4607C32.6828 63.5001 32.5425 63.5353 32.3978 63.5703C32.24 63.6097 32.0822 63.6449 31.9243 63.6799L31.5165 63.772C31.3675 63.8042 31.2184 63.8324 31.0694 63.8606C30.9949 63.8747 30.9203 63.8889 30.8458 63.9035C30.7846 63.9166 30.7228 63.9298 30.6573 63.9386C31.3281 63.9824 32.0032 64 32.6696 64C45.5415 64.0087 56.9359 56.4987 62.026 44.771Z" fill="#545D6A"/>
<path d="M22.6914 11.6969C22.6717 11.6969 22.653 11.698 22.6344 11.6991C22.6158 11.7002 22.5972 11.7013 22.5774 11.7013C22.3407 11.7101 22.104 11.7232 21.8672 11.7407L21.7225 11.7539C21.4945 11.7714 21.2622 11.7934 21.0342 11.8197L21.0233 11.8208C20.9825 11.8248 20.9385 11.8291 20.8983 11.8372C20.6528 11.8679 20.4117 11.8985 20.1705 11.938L20.0917 11.9512C19.548 12.0388 19.0044 12.1484 18.4695 12.2843L18.3642 12.3106C18.1821 12.3571 18.0029 12.4064 17.8219 12.4563L17.6979 12.4904L17.6893 12.4928C17.6308 12.5096 17.5725 12.5263 17.5181 12.543C17.3121 12.6044 17.1104 12.6701 16.9088 12.7403C16.902 12.7426 16.894 12.7448 16.8861 12.7471C16.8786 12.7492 16.8712 12.7513 16.8649 12.7534C15.5935 13.227 14.3571 13.7969 13.169 14.4677C13.095 14.5112 13.0198 14.5537 12.9447 14.5962C12.8686 14.6392 12.7924 14.6822 12.7174 14.7264C12.7219 14.8798 12.7306 15.0332 12.7394 15.1867C12.7526 15.476 12.7701 15.761 12.792 16.0459C12.8095 16.3 12.8358 16.554 12.8621 16.8081C12.8693 16.8763 12.8762 16.9453 12.883 17.0135C12.8966 17.1513 12.9103 17.2892 12.9279 17.427C12.9673 17.7558 13.0112 18.0846 13.0594 18.4134C13.066 18.4639 13.0737 18.5144 13.0814 18.5649C13.089 18.6152 13.0967 18.6656 13.1033 18.7159C14.1862 25.5815 17.3779 31.8815 22.0425 36.8269C21.3587 35.3231 20.9904 33.6791 20.9904 31.9999C20.9904 25.5596 26.2294 20.3161 32.6741 20.3161C36.8347 20.3161 40.4911 22.4995 42.5604 25.7832C42.5517 25.7593 42.5441 25.7343 42.5365 25.7093C42.5288 25.6839 42.521 25.6584 42.5122 25.6342C42.4245 25.3667 42.3324 25.0993 42.236 24.8318C42.2009 24.7353 42.1658 24.6389 42.1264 24.5424C42.0256 24.2794 41.9159 24.0207 41.8063 23.7621C41.7713 23.6788 41.7362 23.5955 41.6967 23.5121C41.5477 23.179 41.3855 22.8501 41.2188 22.5258C41.2188 22.5258 41.2188 22.5241 41.2178 22.5229C41.2172 22.5221 41.2162 22.5214 41.2145 22.5214C41.0435 22.1926 40.8593 21.8681 40.6709 21.5481C40.6446 21.5043 40.6172 21.4615 40.5898 21.4188C40.5624 21.376 40.535 21.3332 40.5086 21.2894C40.3684 21.0659 40.228 20.8422 40.079 20.6186C40.0417 20.5638 40.0045 20.5101 39.9672 20.4565C39.9299 20.4027 39.8927 20.349 39.8554 20.2942L39.8518 20.2892C39.7127 20.0936 39.5736 19.898 39.4302 19.7067L39.392 19.6564C39.3224 19.5647 39.2544 19.4751 39.1802 19.3823C39.0224 19.185 38.8602 18.9877 38.6979 18.7948C38.6705 18.7628 38.6436 18.7307 38.6168 18.6989C38.5667 18.6392 38.5171 18.5802 38.4657 18.523C38.2201 18.2424 37.9658 17.9706 37.7071 17.7032C33.9368 13.867 28.8994 11.7276 23.5244 11.6838C23.4321 11.6852 23.3404 11.6862 23.2489 11.6871C23.0622 11.6891 22.8768 11.691 22.6914 11.6969Z" fill="#545D6A"/>
<path d="M12.0554 17.6067C12.0773 17.8259 12.1036 18.0407 12.1343 18.2555C12.1362 18.2659 12.1379 18.2763 12.1396 18.2868C12.1458 18.3249 12.1522 18.3642 12.1694 18.409C12.8095 23.0168 14.3615 27.4009 16.7508 31.3773C16.7638 31.3935 16.7743 31.412 16.7843 31.4295C16.7878 31.4357 16.7913 31.4417 16.7947 31.4475C16.935 31.6799 17.0796 31.9122 17.2243 32.1402C17.266 32.206 17.3088 32.2717 17.3515 32.3375C17.3942 32.4033 17.437 32.469 17.4786 32.5348C17.632 32.7671 17.7855 32.9994 17.9433 33.2274C18.1099 33.4686 18.281 33.7097 18.4519 33.9464L18.6755 34.2489C18.886 34.5339 19.1051 34.8233 19.3288 35.1038C19.3463 35.1301 19.3638 35.1565 19.3857 35.1828C19.3879 35.1872 19.3912 35.1905 19.3945 35.1937C19.3978 35.197 19.4011 35.2003 19.4033 35.2047C19.6576 35.5204 19.9162 35.836 20.1837 36.1473C20.2056 36.1736 20.2275 36.1988 20.2494 36.224C20.2713 36.2492 20.2932 36.2744 20.3151 36.3007C20.5695 36.5944 20.8282 36.8882 21.0956 37.1731C21.1042 37.1789 21.111 37.1866 21.1183 37.1949C21.1221 37.1992 21.1261 37.2037 21.1306 37.2082C22.253 38.4139 23.4674 39.5537 24.7695 40.606L24.7782 40.5972C25.3657 41.0707 25.9707 41.5222 26.5845 41.9563L26.5758 41.9695C28.5749 43.3768 30.6968 44.5561 32.9109 45.5119C32.9218 45.5163 32.9327 45.5217 32.9437 45.5272C32.9547 45.5326 32.9656 45.5381 32.9766 45.5425C33.2528 45.6609 33.5334 45.7749 33.814 45.8845C33.8654 45.9051 33.9169 45.9261 33.9685 45.9471C34.0927 45.9976 34.2175 46.0484 34.3445 46.0949C34.5637 46.1782 34.7829 46.2572 35.0065 46.3361C35.2476 46.4237 35.4931 46.507 35.7386 46.5903C35.8786 46.6392 36.0185 46.6831 36.1602 46.7277C36.2094 46.7431 36.2588 46.7587 36.3085 46.7745C36.384 46.7971 36.458 46.8212 36.5313 46.8451C36.5859 46.8628 36.6401 46.8804 36.6943 46.8973C36.6811 46.9083 36.6678 46.9205 36.6545 46.9326C36.6415 46.9446 36.6285 46.9565 36.6155 46.9674C36.5152 47.0546 36.4106 47.1417 36.306 47.229L36.3042 47.2305C36.2341 47.2874 36.165 47.3444 36.096 47.4013C36.0269 47.4583 35.9579 47.5154 35.8877 47.5724C35.7781 47.6601 35.6685 47.7434 35.5589 47.8267C35.5126 47.8614 35.4664 47.8965 35.4202 47.9317C35.3261 48.0032 35.2321 48.0748 35.138 48.1423C35.0829 48.1805 35.0267 48.2197 34.9705 48.2589C34.9105 48.3008 34.8505 48.3427 34.7916 48.3834C34.72 48.4312 34.6495 48.4789 34.579 48.5267C34.507 48.5754 34.4351 48.6241 34.362 48.6728C34.2721 48.7351 34.1767 48.7946 34.0822 48.8536C34.057 48.8694 34.0318 48.8851 34.0069 48.9008C33.8622 48.9929 33.7175 49.0805 33.5684 49.1682L33.2002 49.3787C33.0511 49.462 32.9021 49.5453 32.753 49.6241C32.6787 49.664 32.6027 49.7022 32.5262 49.7407C32.4763 49.7659 32.4261 49.7911 32.376 49.817C32.2269 49.896 32.0735 49.9706 31.92 50.0407L31.9175 50.0419C31.7912 50.1029 31.6648 50.1639 31.5342 50.2205C31.4152 50.2749 31.2935 50.3267 31.1732 50.3778C31.1385 50.3926 31.1039 50.4073 31.0695 50.4221L30.6749 50.5799C30.5171 50.6413 30.3549 50.7027 30.1971 50.7597C30.1602 50.7728 30.1237 50.7858 30.0874 50.7988C29.9898 50.8337 29.8939 50.868 29.7981 50.9C29.69 50.938 29.5818 50.9721 29.4737 51.0062C29.4196 51.0232 29.3655 51.0403 29.3114 51.0578C29.1756 51.1017 29.044 51.1411 28.9081 51.1805C28.7415 51.2288 28.5749 51.2726 28.4083 51.3164C28.3863 51.3221 28.3643 51.3278 28.3424 51.3335C28.2296 51.3628 28.1188 51.3916 28.005 51.4173C27.8352 51.4608 27.6655 51.4957 27.4957 51.5305L27.492 51.5313C27.4328 51.5432 27.3735 51.5559 27.3139 51.5687C27.2411 51.5844 27.1677 51.6001 27.093 51.6146C27.0053 51.6299 26.9164 51.6442 26.8275 51.6585C26.7388 51.6727 26.6502 51.6869 26.5626 51.7022C26.4968 51.711 26.4311 51.722 26.3653 51.733C26.2995 51.7439 26.2338 51.7549 26.168 51.7637C26.0411 51.7818 25.9142 51.7958 25.7858 51.8099C25.728 51.8162 25.6698 51.8226 25.6112 51.8294C25.5478 51.836 25.4853 51.8437 25.4229 51.8513C25.3604 51.859 25.2978 51.8667 25.2342 51.8733C25.0285 51.8908 24.8229 51.9039 24.6173 51.917L24.6161 51.9171C24.5108 51.9259 24.4056 51.9346 24.296 51.9391C23.9803 51.9522 23.6691 51.9609 23.3534 51.9609H23.1649C12.0642 51.8601 3.10736 42.7454 3.20381 31.6404C3.20819 31.2195 3.22573 30.803 3.25641 30.3909C3.26227 30.3002 3.27201 30.2096 3.28176 30.119C3.28662 30.0737 3.29149 30.0284 3.29588 29.9831C3.3178 29.7069 3.3441 29.4352 3.37479 29.1502C3.38987 29.0385 3.40911 28.9248 3.42822 28.8119C3.43688 28.7607 3.4455 28.7097 3.45371 28.6591L3.45821 28.6281C3.4918 28.397 3.52591 28.1624 3.57207 27.9358C3.59548 27.8187 3.62279 27.7017 3.65009 27.5847C3.6637 27.5264 3.67732 27.468 3.69045 27.4097C3.73867 27.186 3.7869 26.9625 3.8439 26.7432C3.87468 26.6257 3.90903 26.51 3.94353 26.3938C3.96308 26.3279 3.98269 26.2618 4.00172 26.1952C4.01789 26.1398 4.03375 26.0847 4.04954 26.0298C4.09373 25.8763 4.13741 25.7245 4.18586 25.5727C4.22901 25.4402 4.2765 25.3098 4.32374 25.1801C4.3437 25.1253 4.36362 25.0706 4.38314 25.0159C4.39782 24.9756 4.41249 24.935 4.4272 24.8944C4.48283 24.7407 4.53903 24.5854 4.59797 24.4329C4.65611 24.2858 4.71958 24.1387 4.78215 23.9937C4.79979 23.9529 4.81736 23.9122 4.83471 23.8717C4.91362 23.6875 4.99255 23.5034 5.07584 23.3193C5.1384 23.1848 5.20541 23.0525 5.27212 22.9209C5.29891 22.868 5.32566 22.8152 5.35205 22.7624C5.43972 22.587 5.52741 22.4117 5.61948 22.2407C5.68643 22.1185 5.75725 21.9962 5.82808 21.874C5.86393 21.8121 5.89978 21.7502 5.93514 21.6883C6.0272 21.5217 6.12366 21.3595 6.22449 21.1973C6.30746 21.0633 6.39508 20.9316 6.48227 20.8005C6.51486 20.7515 6.5474 20.7026 6.57961 20.6537C6.61466 20.6026 6.64922 20.5514 6.68378 20.5003C6.75298 20.398 6.82218 20.2957 6.89527 20.1934C7.02226 20.0138 7.15364 19.8386 7.28501 19.6634C7.39462 19.5188 7.50905 19.3735 7.62303 19.2288C7.7611 19.0605 7.90342 18.8923 8.0458 18.724L8.05268 18.7158L8.0585 18.7092C8.17494 18.5755 8.29144 18.4419 8.41218 18.3082C8.56563 18.1416 8.71907 17.9793 8.87691 17.8171C8.99966 17.6856 9.1268 17.5584 9.25836 17.4313C9.42051 17.2735 9.5871 17.1156 9.75378 16.9622C9.88961 16.8394 10.0255 16.7167 10.1615 16.5984C10.3368 16.4493 10.5078 16.3046 10.6875 16.1599C10.8175 16.0503 10.9512 15.9482 11.0886 15.8432C11.0996 15.8348 11.1106 15.8264 11.1216 15.8179C11.3014 15.6777 11.4811 15.5417 11.6696 15.4102C11.731 15.3708 11.7924 15.3313 11.8537 15.2875C11.8537 15.2984 11.8548 15.3094 11.8559 15.3204C11.857 15.3313 11.8581 15.3423 11.8581 15.3532C11.8757 15.7347 11.9064 16.1161 11.937 16.4975C11.9457 16.5756 11.9533 16.6549 11.9609 16.7341C11.9687 16.8149 11.9764 16.8957 11.9853 16.9754C12.0072 17.1858 12.0291 17.3963 12.0554 17.6067Z" fill="#545D6A"/>
</svg>
