<svg width="31" height="31" viewBox="0 0 31 31" fill="none" xmlns="http://www.w3.org/2000/svg">
<path d="M10.2564 30.5256V23.657H9.83975C7.14814 23.6684 4.83528 22.7977 2.90117 21.0448C0.967056 19.2919 0 17.1103 0 14.4999C0 11.9422 0.888347 9.78036 2.66504 8.01433C4.44176 6.24831 6.60897 5.36529 9.16667 5.36529H12.9049L9.23933 1.69008L10.2222 0.685791L15.6068 6.07042L10.2222 11.455L9.23933 10.4508L12.9049 6.77554H9.16667C7.02064 6.77554 5.1914 7.52643 3.67896 9.02821C2.16649 10.53 1.41025 12.3539 1.41025 14.4999C1.41025 16.72 2.23806 18.5678 3.89367 20.0432C5.54931 21.5186 7.50996 22.2563 9.77563 22.2563H11.6667V27.0972L16.5032 22.2563H20.8398C23 22.2563 24.8371 21.5037 26.351 19.9983C27.8648 18.493 28.6218 16.658 28.6218 14.4935C28.6218 12.3333 27.8638 10.5015 26.3478 8.99829C24.8317 7.4951 22.9936 6.7435 20.8333 6.7435H19.8953V5.33325H20.8333C23.3868 5.33325 25.5582 6.2216 27.3478 7.99829C29.1373 9.77501 30.032 11.9401 30.032 14.4935C30.032 17.0369 29.1383 19.2017 27.351 20.9876C25.5636 22.7736 23.3932 23.6666 20.8398 23.6666H17.1218L10.2564 30.5256Z" fill="white"/>
</svg>
