<svg width="64" height="64" viewBox="0 0 64 64" fill="none" xmlns="http://www.w3.org/2000/svg">
<mask id="mask0_2106_3664" style="mask-type:alpha" maskUnits="userSpaceOnUse" x="-1" y="0" width="65" height="64">
<rect x="-0.000488281" width="64" height="64" fill="#D9D9D9"/>
</mask>
<g mask="url(#mask0_2106_3664)">
<path d="M29.133 44.3333L40.2663 33.1333C40.3996 33.0444 40.5552 32.9889 40.733 32.9667C40.9108 32.9444 41.0885 33.0111 41.2663 33.1667C41.4441 33.3222 41.533 33.4932 41.533 33.6797C41.533 33.8662 41.4441 34.0396 41.2663 34.2L30.333 45.0667C29.9815 45.4667 29.5714 45.6667 29.1026 45.6667C28.634 45.6667 28.2219 45.4667 27.8663 45.0667L22.5996 39.8667C22.4663 39.7952 22.3996 39.6551 22.3996 39.4464C22.3996 39.2377 22.4663 39.0444 22.5996 38.8667C22.7774 38.7333 22.9552 38.6667 23.133 38.6667C23.3108 38.6667 23.4885 38.7333 23.6663 38.8667L29.133 44.3333ZM15.0663 55.2C14.0541 55.2 13.201 54.853 12.5072 54.1591C11.8133 53.4653 11.4663 52.6122 11.4663 51.6V17.3333C11.4663 16.3211 11.8133 15.468 12.5072 14.7741C13.201 14.0803 14.0541 13.7333 15.0663 13.7333H20.933V8.93333C20.933 8.68444 21.0132 8.46667 21.1738 8.28C21.3344 8.09333 21.541 8 21.7938 8C22.0655 8 22.2899 8.09333 22.4672 8.28C22.6444 8.46667 22.733 8.68444 22.733 8.93333V13.7333H41.533V8.81873C41.533 8.55736 41.6066 8.35556 41.7539 8.21333C41.9012 8.07111 42.0856 8 42.3072 8C42.5477 8 42.7455 8.07611 42.9005 8.22833C43.0555 8.38055 43.133 8.57111 43.133 8.8V13.7333H48.933C49.9452 13.7333 50.7983 14.0803 51.4922 14.7741C52.186 15.468 52.533 16.3211 52.533 17.3333V51.6C52.533 52.6122 52.186 53.4653 51.4922 54.1591C50.7983 54.853 49.9452 55.2 48.933 55.2H15.0663ZM15.0663 53.7333H48.933C49.4663 53.7333 49.9552 53.5111 50.3996 53.0667C50.8441 52.6222 51.0663 52.1333 51.0663 51.6V28.6H12.933V51.6C12.933 52.1333 13.1552 52.6222 13.5996 53.0667C14.0441 53.5111 14.533 53.7333 15.0663 53.7333ZM12.933 27.1333H51.0663V17.3333C51.0663 16.8 50.8441 16.3111 50.3996 15.8667C49.9552 15.4222 49.4663 15.2 48.933 15.2H15.0663C14.533 15.2 14.0441 15.4222 13.5996 15.8667C13.1552 16.3111 12.933 16.8 12.933 17.3333V27.1333Z" fill="#53BEED"/>
</g>
</svg>
