<svg width="40" height="40" viewBox="0 0 40 40" fill="none" xmlns="http://www.w3.org/2000/svg">
<mask id="mask0_68_1519" style="mask-type:alpha" maskUnits="userSpaceOnUse" x="0" y="0" width="40" height="40">
<rect width="40" height="40" fill="#D9D9D9"/>
</mask>
<g mask="url(#mask0_68_1519)">
<path d="M15.2564 33.5256V26.657H14.8398C12.1481 26.6684 9.83528 25.7977 7.90117 24.0448C5.96706 22.2919 5 20.1103 5 17.4999C5 14.9422 5.88835 12.7804 7.66504 11.0143C9.44176 9.24831 11.609 8.36529 14.1667 8.36529H17.9049L14.2393 4.69008L15.2222 3.68579L20.6068 9.07042L15.2222 14.455L14.2393 13.4508L17.9049 9.77554H14.1667C12.0206 9.77554 10.1914 10.5264 8.67896 12.0282C7.16649 13.53 6.41025 15.3539 6.41025 17.4999C6.41025 19.72 7.23806 21.5678 8.89367 23.0432C10.5493 24.5186 12.51 25.2563 14.7756 25.2563H16.6667V30.0972L21.5032 25.2563H25.8398C28 25.2563 29.8371 24.5037 31.351 22.9983C32.8648 21.493 33.6218 19.658 33.6218 17.4935C33.6218 15.3333 32.8638 13.5015 31.3478 11.9983C29.8317 10.4951 27.9936 9.7435 25.8333 9.7435H24.8953V8.33325H25.8333C28.3868 8.33325 30.5582 9.2216 32.3478 10.9983C34.1373 12.775 35.032 14.9401 35.032 17.4935C35.032 20.0369 34.1383 22.2017 32.351 23.9876C30.5636 25.7736 28.3932 26.6666 25.8398 26.6666H22.1218L15.2564 33.5256Z" fill="#1C1B1F"/>
</g>
</svg>
