<svg width="40" height="40" viewBox="0 0 40 40" fill="none" xmlns="http://www.w3.org/2000/svg">
<mask id="mask0_68_1524" style="mask-type:alpha" maskUnits="userSpaceOnUse" x="0" y="0" width="40" height="40">
<rect width="40" height="40" fill="#D9D9D9"/>
</mask>
<g mask="url(#mask0_68_1524)">
<path d="M20.7457 19.7008V12.203C20.7457 11.9982 20.6793 11.8295 20.5464 11.6968C20.4136 11.5642 20.2446 11.4979 20.0395 11.4979C19.8344 11.4979 19.6658 11.5642 19.5337 11.6968C19.4015 11.8295 19.3355 11.9982 19.3355 12.203V19.8045C19.3355 19.9661 19.3643 20.1178 19.422 20.2596C19.4797 20.4013 19.5698 20.5356 19.6923 20.6624L25.75 26.7949C25.8832 26.9323 26.052 27.0053 26.2564 27.0139C26.4608 27.0224 26.6403 26.9494 26.7949 26.7949C26.9494 26.6403 27.0267 26.4672 27.0267 26.2756C27.0267 26.084 26.9494 25.9181 26.7949 25.7778L20.7457 19.7008ZM20.0056 35C17.9356 35 15.9912 34.6064 14.1723 33.8192C12.3534 33.032 10.7639 31.959 9.40387 30.6003C8.04385 29.2415 6.96986 27.6535 6.18192 25.8363C5.39397 24.0191 5 22.0755 5 20.0056C5 17.9356 5.3936 15.9912 6.18079 14.1723C6.96801 12.3534 8.041 10.7639 9.39975 9.40387C10.7585 8.04385 12.3465 6.96986 14.1637 6.18192C15.9809 5.39397 17.9245 5 19.9944 5C22.0644 5 24.0088 5.3936 25.8277 6.18079C27.6466 6.96801 29.2361 8.041 30.5961 9.39975C31.9562 10.7585 33.0301 12.3465 33.8181 14.1637C34.606 15.9809 35 17.9245 35 19.9944C35 22.0644 34.6064 24.0088 33.8192 25.8277C33.032 27.6466 31.959 29.2361 30.6003 30.5961C29.2415 31.9562 27.6535 33.0301 25.8363 33.8181C24.0191 34.606 22.0755 35 20.0056 35ZM20 33.5898C23.7529 33.5898 26.956 32.263 29.6095 29.6095C32.263 26.956 33.5898 23.7529 33.5898 20C33.5898 16.2471 32.263 13.044 29.6095 10.3905C26.956 7.737 23.7529 6.41025 20 6.41025C16.2471 6.41025 13.044 7.737 10.3905 10.3905C7.737 13.044 6.41025 16.2471 6.41025 20C6.41025 23.7529 7.737 26.956 10.3905 29.6095C13.044 32.263 16.2471 33.5898 20 33.5898Z" fill="#1C1B1F"/>
</g>
</svg>
