<svg width="48" height="48" viewBox="0 0 48 48" fill="none" xmlns="http://www.w3.org/2000/svg">
<mask id="mask0_68_1430" style="mask-type:alpha" maskUnits="userSpaceOnUse" x="0" y="0" width="48" height="48">
<rect width="48" height="48" fill="#D9D9D9"/>
</mask>
<g mask="url(#mask0_68_1430)">
<path d="M19.4042 40.3848C17.9093 40.3848 16.6343 39.8476 15.5792 38.7732C14.524 37.6989 13.9644 36.4386 13.9003 34.9924C12.267 34.7489 10.901 33.9816 9.80223 32.6905C8.70353 31.3995 8.15418 29.8668 8.15418 28.0924C8.15418 27.4722 8.23301 26.8632 8.39068 26.2653C8.54838 25.6673 8.78493 25.102 9.10033 24.5694C8.65673 23.9694 8.32403 23.3259 8.10223 22.639C7.88043 21.952 7.76953 21.207 7.76953 20.404C7.76953 18.6334 8.37146 17.1023 9.57533 15.8106C10.7792 14.519 12.2542 13.7822 14.0003 13.6001C14.0003 13.4976 13.9939 13.395 13.9811 13.2924C13.9683 13.1899 13.9619 13.0745 13.9619 12.9463C13.9772 11.4258 14.5099 10.1444 15.5599 9.10202C16.6099 8.05972 17.8952 7.53857 19.4157 7.53857C20.4337 7.53857 21.2792 7.73281 21.9522 8.12127C22.6253 8.50974 23.308 9.10141 24.0003 9.89627C24.7183 9.10141 25.399 8.50974 26.0426 8.12127C26.6862 7.73281 27.5298 7.53857 28.5734 7.53857C30.0243 7.53857 31.2754 8.06614 32.3269 9.12127C33.3784 10.1764 33.9157 11.4514 33.9388 12.9463V13.3117C33.9388 13.427 33.926 13.5232 33.9003 13.6001C35.6542 13.7412 37.1478 14.4597 38.3811 15.7559C39.6145 17.052 40.2311 18.6014 40.2311 20.404C40.2311 21.207 40.1055 21.9604 39.8542 22.664C39.6029 23.3676 39.2683 24.0065 38.8503 24.5809C39.1657 25.145 39.4106 25.7321 39.585 26.3422C39.7593 26.9523 39.8465 27.5767 39.8465 28.2155C39.8465 29.9899 39.2971 31.5085 38.1984 32.7713C37.0997 34.0341 35.7209 34.7745 34.0619 34.9924C33.9978 36.4386 33.4426 37.6989 32.3965 38.7732C31.3503 39.8476 30.0965 40.3848 28.6349 40.3848C27.5324 40.3848 26.6657 40.1925 26.0349 39.8078C25.4042 39.4232 24.726 38.8207 24.0003 38.0001C23.2747 38.8207 22.5901 39.4232 21.9465 39.8078C21.3029 40.1925 20.4554 40.3848 19.4042 40.3848ZM24.7696 12.8078V35.1155C24.7696 36.1519 25.148 37.0328 25.9047 37.7582C26.6615 38.4836 27.5809 38.8463 28.663 38.8463C29.6981 38.8463 30.5837 38.4629 31.3196 37.6963C32.0555 36.9296 32.4567 36.0565 32.5234 35.0771C31.5003 34.9899 30.5529 34.702 29.6811 34.2136C28.8093 33.7251 28.0888 33.0706 27.5196 32.2501C27.3555 32.0886 27.2929 31.908 27.3319 31.7085C27.3709 31.5089 27.486 31.3356 27.6773 31.1886C27.8644 31.0501 28.0627 31.0004 28.272 31.0394C28.4814 31.0784 28.6498 31.1935 28.7773 31.3847C29.2533 32.0959 29.8679 32.6333 30.6208 32.9969C31.3738 33.3606 32.1721 33.5424 33.0157 33.5424C34.5132 33.5424 35.7696 33.0386 36.7849 32.0309C37.8003 31.0232 38.308 29.7514 38.308 28.2155C38.308 27.7959 38.2619 27.3871 38.1696 26.9892C38.0772 26.5914 37.9465 26.1873 37.7773 25.7771C37.2029 26.2617 36.5433 26.6379 35.7984 26.9059C35.0535 27.1738 34.2747 27.3078 33.4619 27.3078C33.235 27.3078 33.05 27.2362 32.9071 27.093C32.7641 26.9498 32.6926 26.7645 32.6926 26.5372C32.6926 26.3099 32.7641 26.1251 32.9071 25.9828C33.05 25.8405 33.235 25.7693 33.4619 25.7693C34.9337 25.7693 36.1734 25.2514 37.1811 24.2155C38.1888 23.1796 38.6926 21.9091 38.6926 20.404C38.6926 18.9721 38.1875 17.7449 37.1773 16.7224C36.167 15.6998 34.9593 15.1552 33.5542 15.0886C33.2721 15.8117 32.8548 16.4431 32.3023 16.9828C31.7497 17.5226 31.1119 17.9296 30.3888 18.204C30.1939 18.2681 30.0011 18.2619 29.8102 18.1854C29.6194 18.1089 29.4994 17.9689 29.4503 17.7655C29.3939 17.5706 29.3978 17.3777 29.4619 17.1867C29.526 16.9956 29.6683 16.8591 29.8888 16.777C30.6683 16.5001 31.2818 16.0168 31.7292 15.327C32.1766 14.6373 32.4003 13.8642 32.4003 13.0078C32.4003 11.9258 32.0253 11.0001 31.2751 10.2309C30.5249 9.46164 29.6275 9.07702 28.5828 9.07702C27.5381 9.07702 26.6414 9.43972 25.8926 10.1651C25.1439 10.8905 24.7696 11.7714 24.7696 12.8078ZM23.2311 35.1155V12.8078C23.2311 11.7714 22.8579 10.8905 22.1116 10.1651C21.3653 9.43972 20.4659 9.07702 19.4135 9.07702C18.3688 9.07702 17.4638 9.46216 16.6984 10.2324C15.933 11.0027 15.5503 11.9342 15.5503 13.027C15.5503 13.8963 15.7785 14.6674 16.2349 15.3405C16.6914 16.0136 17.2965 16.4758 18.0503 16.727C18.2708 16.8091 18.4279 16.9456 18.5215 17.1367C18.6151 17.3277 18.6359 17.5196 18.5838 17.7123C18.4891 17.9128 18.3399 18.0589 18.1364 18.1508C17.9328 18.2426 17.7208 18.2437 17.5003 18.154C16.7773 17.8873 16.1478 17.4905 15.6119 16.9636C15.076 16.4367 14.6542 15.8117 14.3465 15.0886C12.9747 15.1886 11.792 15.7443 10.7984 16.7559C9.80481 17.7674 9.30803 18.9876 9.30803 20.4164C9.30803 21.9132 9.81188 23.1796 10.8196 24.2155C11.8272 25.2514 13.067 25.7693 14.5388 25.7693C14.7657 25.7693 14.9506 25.8409 15.0936 25.9842C15.2365 26.1274 15.308 26.3126 15.308 26.5399C15.308 26.7672 15.2365 26.952 15.0936 27.0944C14.9506 27.2367 14.7657 27.3078 14.5388 27.3078C13.7259 27.3078 12.9471 27.1719 12.2022 26.9001C11.4574 26.6283 10.7977 26.254 10.2234 25.7771C10.0465 26.1719 9.9138 26.56 9.82533 26.9412C9.73686 27.3223 9.69263 27.7228 9.69263 28.1424C9.69263 29.6783 10.1984 30.9623 11.2099 31.9944C12.2215 33.0264 13.4631 33.5424 14.9349 33.5424C15.8041 33.5424 16.6066 33.3501 17.3426 32.9655C18.0785 32.5809 18.7016 32.054 19.2119 31.3847C19.3393 31.2268 19.5097 31.12 19.7228 31.0644C19.936 31.0087 20.1324 31.0437 20.3119 31.1694C20.4657 31.3206 20.5651 31.5001 20.6099 31.7078C20.6548 31.9155 20.608 32.0963 20.4696 32.2501C19.8747 33.0706 19.1433 33.7251 18.2753 34.2136C17.4074 34.702 16.4747 34.977 15.4773 35.0386C15.5183 36.0437 15.9195 36.9296 16.6811 37.6963C17.4426 38.4629 18.3448 38.8463 19.3877 38.8463C20.4441 38.8463 21.3488 38.4836 22.1017 37.7582C22.8546 37.0328 23.2311 36.1519 23.2311 35.1155Z" fill="white"/>
</g>
</svg>
