<svg width="80" height="80" viewBox="0 0 80 80" fill="none" xmlns="http://www.w3.org/2000/svg">
<mask id="mask0_68_1603" style="mask-type:alpha" maskUnits="userSpaceOnUse" x="0" y="0" width="80" height="80">
<rect width="80" height="80" fill="#D9D9D9"/>
</mask>
<g mask="url(#mask0_68_1603)">
<path d="M53.75 29.1667V18.8333H26.25V29.1667H24.4167V19.2152C24.4167 18.587 24.6323 18.0608 25.0636 17.6365C25.4948 17.2122 26.0292 17 26.6667 17H53.299C53.9733 17 54.5226 17.2124 54.9468 17.6373C55.3712 18.0622 55.5833 18.5886 55.5833 19.2167V29.1667H53.75ZM58.7917 39.1667C59.6528 39.1667 60.3889 38.8606 61 38.2485C61.6111 37.6364 61.9167 36.9142 61.9167 36.0818C61.9167 35.2495 61.6107 34.5278 60.9989 33.9167C60.3871 33.3056 59.6653 33 58.8333 33C57.9444 33 57.2083 33.3061 56.625 33.9182C56.0417 34.5302 55.75 35.2524 55.75 36.0848C55.75 36.9172 56.0417 37.6389 56.625 38.25C57.2083 38.8611 57.9306 39.1667 58.7917 39.1667ZM28.9167 63.8333H51.0833C51.8611 63.8333 52.5 63.5833 53 63.0833C53.5 62.5833 53.75 61.9444 53.75 61.1667V47.3333H26.25V61.1667C26.25 61.9444 26.5 62.5833 27 63.0833C27.5 63.5833 28.1389 63.8333 28.9167 63.8333ZM28.9167 65.6667C27.6792 65.6667 26.6198 65.2153 25.7385 64.3125C24.8573 63.4097 24.4167 62.3611 24.4167 61.1667V51.9167H15.75C15.1125 51.9167 14.5781 51.701 14.1468 51.2697C13.7156 50.8385 13.5 50.3042 13.5 49.6667V34.4167C13.5 32.975 14.0139 31.7396 15.0417 30.7104C16.0694 29.6813 17.3333 29.1667 18.8333 29.1667H61.1667C62.6778 29.1667 63.9444 29.6813 64.9667 30.7104C65.9889 31.7396 66.5 32.975 66.5 34.4167V49.6667C66.5 50.3042 66.2844 50.8385 65.8531 51.2697C65.4219 51.701 64.8875 51.9167 64.25 51.9167H55.5833V61.1667C55.5833 62.3611 55.1427 63.4097 54.2615 64.3125C53.3802 65.2153 52.3208 65.6667 51.0833 65.6667H28.9167ZM64.6667 50.0833V34.3987C64.6667 33.4662 64.3312 32.6667 63.6604 32C62.9896 31.3333 62.1583 31 61.1667 31H18.8333C17.8417 31 17.0104 31.3396 16.3396 32.0187C15.6687 32.6979 15.3333 33.4972 15.3333 34.4167V50.0833H24.4167V45.5H55.5833V50.0833H64.6667Z" fill="#1C1B1F"/>
</g>
</svg>
