<svg width="64" height="64" viewBox="0 0 64 64" fill="none" xmlns="http://www.w3.org/2000/svg">
<mask id="mask0_68_2274" style="mask-type:alpha" maskUnits="userSpaceOnUse" x="0" y="0" width="64" height="64">
<rect width="64" height="64" fill="#D9D9D9"/>
</mask>
<g mask="url(#mask0_68_2274)">
<path d="M17.7328 55.2C16.7661 55.2 15.9245 54.8417 15.2078 54.125C14.4911 53.4083 14.1328 52.5667 14.1328 51.6V28.5333C14.1328 27.5322 14.4911 26.6819 15.2078 25.9825C15.9245 25.283 16.7661 24.9333 17.7328 24.9333H22.3328V19.2667C22.3328 16.5665 23.27 14.2803 25.1443 12.4081C27.0187 10.5361 29.3076 9.60001 32.011 9.60001C34.7144 9.60001 36.9995 10.5361 38.8661 12.4081C40.7328 14.2803 41.6661 16.5665 41.6661 19.2667V24.9333H46.2661C47.2328 24.9333 48.0745 25.283 48.7911 25.9825C49.5078 26.6819 49.8661 27.5322 49.8661 28.5333V51.6C49.8661 52.5667 49.5078 53.4083 48.7911 54.125C48.0745 54.8417 47.2328 55.2 46.2661 55.2H17.7328ZM17.7328 53.7333H46.2661C46.8884 53.7333 47.3995 53.5333 47.7995 53.1333C48.1995 52.7333 48.3995 52.2222 48.3995 51.6V28.5333C48.3995 27.9111 48.1995 27.4 47.7995 27C47.3995 26.6 46.8884 26.4 46.2661 26.4H17.7328C17.1106 26.4 16.5995 26.6 16.1995 27C15.7995 27.4 15.5995 27.9111 15.5995 28.5333V51.6C15.5995 52.2222 15.7995 52.7333 16.1995 53.1333C16.5995 53.5333 17.1106 53.7333 17.7328 53.7333ZM32.0107 43.6C32.981 43.6 33.8106 43.2549 34.4995 42.5646C35.1884 41.8743 35.5328 41.0417 35.5328 40.0667C35.5328 39.1333 35.1846 38.3111 34.4883 37.6C33.7919 36.8889 32.9586 36.5333 31.9883 36.5333C31.018 36.5333 30.1884 36.8889 29.4995 37.6C28.8106 38.3111 28.4661 39.1444 28.4661 40.1C28.4661 41.0556 28.8143 41.8778 29.5107 42.5667C30.207 43.2556 31.0404 43.6 32.0107 43.6ZM23.7995 24.9333H40.1995V19.2667C40.1995 16.9889 39.4034 15.0528 37.8113 13.4583C36.2191 11.8639 34.2857 11.0667 32.0112 11.0667C29.7367 11.0667 27.7995 11.8639 26.1995 13.4583C24.5995 15.0528 23.7995 16.9889 23.7995 19.2667V24.9333Z" fill="#1C1B1F"/>
</g>
</svg>
