<svg width="64" height="64" viewBox="0 0 64 64" fill="none" xmlns="http://www.w3.org/2000/svg">
<mask id="mask0_2140_2484" style="mask-type:alpha" maskUnits="userSpaceOnUse" x="0" y="0" width="64" height="64">
<rect width="64" height="64" fill="#D9D9D9"/>
</mask>
<g mask="url(#mask0_2140_2484)">
<path d="M43.4155 29.8666C43.183 29.8666 42.9667 29.811 42.7667 29.6999C42.5667 29.5888 42.3785 29.4451 42.2022 29.2688L34.8645 21.931C34.6882 21.7547 34.5445 21.5586 34.4333 21.3427C34.3222 21.1268 34.2667 20.8955 34.2667 20.6488C34.2667 20.4384 34.3222 20.2221 34.4333 19.9999C34.5445 19.7777 34.6882 19.5784 34.8645 19.4021L42.2022 12.0644C42.3785 11.888 42.5746 11.7443 42.7905 11.6332C43.0064 11.5221 43.2377 11.4666 43.4845 11.4666C43.6948 11.4666 43.9111 11.5221 44.1333 11.6332C44.3556 11.7443 44.5548 11.888 44.7311 12.0644L52.0689 19.4021C52.2452 19.5784 52.3889 19.7836 52.5 20.0177C52.6111 20.2517 52.6667 20.4851 52.6667 20.7177C52.6667 20.9503 52.6111 21.1666 52.5 21.3666C52.3889 21.5666 52.2452 21.7547 52.0689 21.931L44.7311 29.2688C44.5548 29.4451 44.3496 29.5888 44.1155 29.6999C43.8815 29.811 43.6482 29.8666 43.4155 29.8666ZM15.4 27.6666C14.89 27.6666 14.4625 27.4832 14.1175 27.1166C13.7725 26.7499 13.6 26.3332 13.6 25.8666V15.3999C13.6 14.9332 13.7725 14.5166 14.1175 14.1499C14.4625 13.7832 14.89 13.5999 15.4 13.5999H25.8C26.31 13.5999 26.7375 13.7832 27.0825 14.1499C27.4275 14.5166 27.6 14.9332 27.6 15.3999V25.8666C27.6 26.3332 27.4275 26.7499 27.0825 27.1166C26.7375 27.4832 26.31 27.6666 25.8 27.6666H15.4ZM38.1333 50.3999C37.6667 50.3999 37.25 50.2274 36.8833 49.8824C36.5167 49.5374 36.3333 49.1099 36.3333 48.5999V38.1999C36.3333 37.6899 36.5167 37.2624 36.8833 36.9174C37.25 36.5724 37.6667 36.3999 38.1333 36.3999H48.6C49.0667 36.3999 49.4833 36.5724 49.85 36.9174C50.2167 37.2624 50.4 37.6899 50.4 38.1999V48.5999C50.4 49.1099 50.2167 49.5374 49.85 49.8824C49.4833 50.2274 49.0667 50.3999 48.6 50.3999H38.1333ZM15.4 50.3999C14.89 50.3999 14.4625 50.2274 14.1175 49.8824C13.7725 49.5374 13.6 49.1099 13.6 48.5999V38.1999C13.6 37.6899 13.7725 37.2624 14.1175 36.9174C14.4625 36.5724 14.89 36.3999 15.4 36.3999H25.8C26.31 36.3999 26.7375 36.5724 27.0825 36.9174C27.4275 37.2624 27.6 37.6899 27.6 38.1999V48.5999C27.6 49.1099 27.4275 49.5374 27.0825 49.8824C26.7375 50.2274 26.31 50.3999 25.8 50.3999H15.4ZM15.0667 26.1999H26.1333V15.0666H15.0667V26.1999ZM43.6 28.5999L51.4 20.7999L43.6 12.9332L35.7333 20.7999L43.6 28.5999ZM37.8 48.9332H48.9333V37.8666H37.8V48.9332ZM15.0667 48.9332H26.1333V37.8666H15.0667V48.9332Z" fill="#FF895D"/>
</g>
</svg>
