<svg width="64" height="64" viewBox="0 0 64 64" fill="none" xmlns="http://www.w3.org/2000/svg">
<mask id="mask0_2106_3658" style="mask-type:alpha" maskUnits="userSpaceOnUse" x="-1" y="0" width="65" height="64">
<rect x="-0.000488281" width="64" height="64" fill="#D9D9D9"/>
</mask>
<g mask="url(#mask0_2106_3658)">
<path d="M29.1995 36.7999L23.6661 31.2666C23.5773 31.1333 23.4217 31.0555 23.1995 31.0333C22.9773 31.011 22.7773 31.0888 22.5995 31.2666C22.4217 31.3999 22.3328 31.5629 22.3328 31.7555C22.3328 31.9481 22.4217 32.1407 22.5995 32.3333L27.9328 37.5999C28.2884 37.9999 28.6995 38.1999 29.1661 38.1999C29.6328 38.1999 30.0439 37.9999 30.3995 37.5999L41.3328 26.7333C41.4661 26.597 41.5439 26.4184 41.5661 26.1977C41.5884 25.977 41.5217 25.7999 41.3661 25.6666C41.2106 25.5333 41.0328 25.4666 40.8328 25.4666C40.6328 25.4666 40.4661 25.5333 40.3328 25.6666L29.1995 36.7999ZM31.9995 54.7333C31.763 54.7333 31.5324 54.7111 31.3075 54.6666C31.0826 54.6222 30.8688 54.5555 30.6661 54.4666C25.555 52.4666 21.5217 49.1555 18.5661 44.5333C15.6106 39.911 14.1328 34.8865 14.1328 29.4595V18.2666C14.1328 17.4996 14.3523 16.796 14.7911 16.1558C15.23 15.5155 15.7884 15.0636 16.4661 14.7999L30.7328 9.53327C31.1773 9.35549 31.5995 9.2666 31.9995 9.2666C32.3995 9.2666 32.8217 9.35549 33.2661 9.53327L47.5328 14.7999C48.2106 15.0636 48.7689 15.5155 49.2078 16.1558C49.6467 16.796 49.8661 17.4996 49.8661 18.2666V29.4595C49.8661 34.8865 48.3884 39.911 45.4328 44.5333C42.4773 49.1555 38.4439 52.4666 33.3328 54.4666C33.1301 54.5555 32.9164 54.6222 32.6915 54.6666C32.4666 54.7111 32.2359 54.7333 31.9995 54.7333ZM31.9995 53.4666C36.755 51.9555 40.6773 48.9555 43.7661 44.4666C46.855 39.9777 48.3995 34.9777 48.3995 29.4666V18.1999C48.3995 17.7555 48.2773 17.3555 48.0328 16.9999C47.7884 16.6444 47.4439 16.3777 46.9995 16.1999L32.7328 10.8666C32.5106 10.7777 32.2661 10.7333 31.9995 10.7333C31.7328 10.7333 31.4884 10.7777 31.2661 10.8666L16.9995 16.1999C16.555 16.3777 16.2106 16.6444 15.9661 16.9999C15.7217 17.3555 15.5995 17.7555 15.5995 18.1999V29.4666C15.5995 34.9777 17.1439 39.9777 20.2328 44.4666C23.3217 48.9555 27.2439 51.9555 31.9995 53.4666Z" fill="#FF895D"/>
</g>
</svg>
