<svg width="40" height="40" viewBox="0 0 40 40" fill="none" xmlns="http://www.w3.org/2000/svg">
<mask id="mask0_68_1535" style="mask-type:alpha" maskUnits="userSpaceOnUse" x="0" y="0" width="40" height="40">
<rect width="40" height="40" fill="#D9D9D9"/>
</mask>
<g mask="url(#mask0_68_1535)">
<path d="M7.43587 28.3333C6.75318 28.3333 6.17653 28.098 5.70592 27.6274C5.23531 27.1568 5 26.5802 5 25.8975V7.43587C5 6.75318 5.23531 6.17653 5.70592 5.70592C6.17653 5.23531 6.75318 5 7.43587 5H32.5641C33.2468 5 33.8235 5.23531 34.2941 5.70592C34.7647 6.17653 35 6.75318 35 7.43587V30.531C35 31.0761 34.7509 31.4517 34.2527 31.6578C33.7545 31.8639 33.3127 31.7743 32.9274 31.3889L29.8718 28.3333H7.43587ZM7.43587 26.9231H31.2821L33.5898 29.2307V7.43587C33.5898 7.17946 33.4829 6.94442 33.2692 6.73075C33.0556 6.51708 32.8205 6.41025 32.5641 6.41025H7.43587C7.17946 6.41025 6.94442 6.51708 6.73075 6.73075C6.51708 6.94442 6.41025 7.17946 6.41025 7.43587V25.8975C6.41025 26.1539 6.51708 26.3889 6.73075 26.6026C6.94442 26.8163 7.17946 26.9231 7.43587 26.9231Z" fill="#1C1B1F"/>
</g>
</svg>
