<svg width="64" height="64" viewBox="0 0 64 64" fill="none" xmlns="http://www.w3.org/2000/svg">
<mask id="mask0_2140_2426" style="mask-type:alpha" maskUnits="userSpaceOnUse" x="-1" y="0" width="65" height="64">
<rect x="-0.000396729" width="64" height="64" fill="#D9D9D9"/>
</mask>
<g mask="url(#mask0_2140_2426)">
<path d="M32.1329 52.5334C29.285 52.5334 26.6175 51.9889 24.1303 50.9C21.6432 49.8111 19.4663 48.3445 17.5996 46.5C15.7329 44.6556 14.2552 42.4791 13.1663 39.9705C12.0774 37.4619 11.5329 34.7841 11.5329 31.9372C11.5329 29.1346 12.0774 26.4889 13.1663 24C14.2552 21.5111 15.7329 19.3334 17.5996 17.4667C19.4663 15.6 21.6432 14.1334 24.1303 13.0667C26.6175 12 29.285 11.4667 32.1329 11.4667C34.9774 11.4667 37.6996 12.0556 40.2996 13.2334C42.8996 14.4111 45.1996 16.0222 47.1996 18.0667V12.1334C47.1996 11.9578 47.267 11.7917 47.4019 11.635C47.5368 11.4784 47.7146 11.4 47.9353 11.4C48.1559 11.4 48.3329 11.4784 48.4663 11.635C48.5996 11.7917 48.6663 11.9578 48.6663 12.1334V18.6C48.6663 19.1222 48.4968 19.5528 48.1579 19.8917C47.819 20.2306 47.3885 20.4 46.8663 20.4H40.4663C40.2463 20.4 40.069 20.3326 39.9346 20.1977C39.8002 20.0628 39.7329 19.885 39.7329 19.6644C39.7329 19.4437 39.8002 19.2667 39.9346 19.1334C40.069 19 40.2463 18.9334 40.4663 18.9334H45.9996C44.1329 17.0667 42.0107 15.6 39.6329 14.5334C37.2552 13.4667 34.7552 12.9334 32.1329 12.9334C26.7996 12.9334 22.2774 14.7667 18.5663 18.4334C14.8552 22.1 12.9996 26.5778 12.9996 31.8667C12.9996 37.2 14.8552 41.7334 18.5663 45.4667C22.2774 49.2 26.7996 51.0667 32.1329 51.0667C36.8885 51.0667 41.0218 49.5222 44.5329 46.4334C48.044 43.3445 50.1774 39.4667 50.9329 34.8C50.9774 34.5334 51.0663 34.3111 51.1996 34.1334C51.3329 33.9556 51.5174 33.8667 51.7531 33.8667C52.0063 33.8667 52.1774 33.9778 52.2663 34.2C52.3552 34.4222 52.3774 34.6667 52.3329 34.9334C51.6218 40 49.3663 44.2 45.5663 47.5334C41.7663 50.8667 37.2885 52.5334 32.1329 52.5334ZM32.7996 31.6667L41.5329 40.2667C41.6663 40.4445 41.744 40.6334 41.7663 40.8334C41.7885 41.0334 41.7107 41.2222 41.5329 41.4C41.3552 41.5334 41.1774 41.6 40.9996 41.6C40.8218 41.6 40.644 41.5334 40.4663 41.4L31.8663 32.8667C31.6885 32.6889 31.5552 32.4841 31.4663 32.2522C31.3774 32.0203 31.3329 31.8029 31.3329 31.6V19.3334C31.3329 19.1134 31.4004 18.9361 31.5353 18.8017C31.6702 18.6672 31.8479 18.6 32.0686 18.6C32.2893 18.6 32.4663 18.6672 32.5996 18.8017C32.7329 18.9361 32.7996 19.1134 32.7996 19.3334V31.6667Z" fill="#FFAF45"/>
</g>
</svg>
