<svg width="80" height="80" viewBox="0 0 80 80" fill="none" xmlns="http://www.w3.org/2000/svg">
<mask id="mask0_68_1569" style="mask-type:alpha" maskUnits="userSpaceOnUse" x="0" y="0" width="80" height="80">
<rect width="80" height="80" fill="#D9D9D9"/>
</mask>
<g mask="url(#mask0_68_1569)">
<path d="M60.9987 53.5833H51.4987C51.239 53.5833 51.0213 53.4938 50.8455 53.3147C50.6699 53.1357 50.582 52.9138 50.582 52.649C50.582 52.4385 50.6699 52.2361 50.8455 52.0416C51.0213 51.8472 51.239 51.75 51.4987 51.75H60.9987V42.3333C60.9987 42.0736 61.0882 41.8558 61.2673 41.6801C61.4463 41.5045 61.6682 41.4166 61.9329 41.4166C62.1434 41.4166 62.3459 41.5045 62.5404 41.6801C62.7348 41.8558 62.832 42.0736 62.832 42.3333V51.75H72.2487C72.5084 51.75 72.7261 51.853 72.9019 52.0592C73.0775 52.2653 73.1654 52.4875 73.1654 52.7259C73.1654 52.9642 73.0775 53.1666 72.9019 53.3333C72.7261 53.5 72.5084 53.5833 72.2487 53.5833H62.832V63.0833C62.832 63.343 62.729 63.5607 62.5228 63.7364C62.3167 63.9121 62.0944 64 61.8561 64C61.6178 64 61.4154 63.9121 61.2487 63.7364C61.082 63.5607 60.9987 63.343 60.9987 63.0833V53.5833ZM11.332 65.6666C10.0668 65.6666 9.00042 65.2329 8.13303 64.3655C7.2657 63.4982 6.83203 62.4319 6.83203 61.1666V18.4166C6.83203 17.1944 7.2657 16.1388 8.13303 15.25C9.00042 14.3611 10.0668 13.9166 11.332 13.9166H54.082C55.3043 13.9166 56.3598 14.3611 57.2487 15.25C58.1376 16.1388 58.582 17.1944 58.582 18.4166V32.6666C58.582 32.9263 58.4789 33.1441 58.2728 33.3198C58.0667 33.4955 57.8444 33.5833 57.6061 33.5833C57.3678 33.5833 57.1654 33.4955 56.9987 33.3198C56.832 33.1441 56.7487 32.9263 56.7487 32.6666V23.5833H8.66536V61.1666C8.66536 61.9444 8.91536 62.5833 9.41536 63.0833C9.91536 63.5833 10.5543 63.8333 11.332 63.8333H52.2487C52.4543 63.8333 52.6584 63.923 52.8612 64.1023C53.064 64.2816 53.1654 64.5038 53.1654 64.769C53.1654 65.0341 53.064 65.25 52.8612 65.4166C52.6584 65.5833 52.4543 65.6666 52.2487 65.6666H11.332ZM8.66536 21.75H56.7487V18.4166C56.7487 17.6944 56.4848 17.0694 55.957 16.5416C55.4293 16.0138 54.8043 15.75 54.082 15.75H11.332C10.5543 15.75 9.91536 16.0138 9.41536 16.5416C8.91536 17.0694 8.66536 17.6944 8.66536 18.4166V21.75Z" fill="#1C1B1F"/>
</g>
</svg>
