<svg width="64" height="64" viewBox="0 0 64 64" fill="none" xmlns="http://www.w3.org/2000/svg">
<mask id="mask0_68_2281" style="mask-type:alpha" maskUnits="userSpaceOnUse" x="0" y="0" width="64" height="64">
<rect width="64" height="64" fill="#D9D9D9"/>
</mask>
<g mask="url(#mask0_68_2281)">
<path d="M13.8651 32.3333C13.8651 35.2526 14.5095 37.9491 15.7984 40.4227C17.0873 42.8965 19.5318 45.6222 23.1318 48.6V40.2667C23.1318 40.0556 23.2023 39.8806 23.3434 39.7417C23.4846 39.6028 23.6624 39.5333 23.8768 39.5333C24.0912 39.5333 24.2651 39.6028 24.3984 39.7417C24.5318 39.8806 24.5984 40.0556 24.5984 40.2667V49.2667C24.5984 49.7889 24.429 50.2195 24.0901 50.5583C23.7512 50.8972 23.3207 51.0667 22.7984 51.0667H13.7984C13.5873 51.0667 13.4123 50.9961 13.2734 50.855C13.1345 50.7139 13.0651 50.5361 13.0651 50.3217C13.0651 50.1072 13.1345 49.9333 13.2734 49.8C13.4123 49.6667 13.5873 49.6 13.7984 49.6H21.9984C18.3984 46.5333 15.8984 43.6778 14.4984 41.0333C13.0984 38.3889 12.3984 35.4889 12.3984 32.3333C12.3984 28.6 13.3762 25.1222 15.3318 21.9C17.2873 18.6778 19.9318 16.2445 23.2651 14.6C23.4873 14.4667 23.7095 14.4111 23.9318 14.4333C24.154 14.4556 24.2984 14.5556 24.3651 14.7333C24.4762 14.9556 24.4762 15.1667 24.3651 15.3667C24.254 15.5667 24.1095 15.7111 23.9318 15.8C20.954 17.2667 18.5318 19.4918 16.6651 22.4754C14.7984 25.4591 13.8651 28.745 13.8651 32.3333ZM39.9984 51.6C38.3096 51.6 36.8429 50.9778 35.5984 49.7333C34.354 48.4889 33.7318 47.0222 33.7318 45.3333C33.7318 43.6307 34.2984 42.1855 35.4318 40.9979C36.5651 39.8102 38.1095 39.1716 40.0651 39.0821C40.6873 37.4718 41.6762 36.1778 43.0318 35.2C44.3873 34.2222 46.0429 33.7333 47.9984 33.7333C50.1318 33.7333 51.9873 34.4445 53.5651 35.8667C55.1429 37.2889 56.0429 39.2445 56.2651 41.7333H57.3984C58.7762 41.7333 59.9318 42.2111 60.8651 43.1667C61.7984 44.1222 62.2651 45.2667 62.2651 46.6C62.2651 47.9778 61.7873 49.1556 60.8318 50.1333C59.8762 51.1111 58.7096 51.6 57.3318 51.6H39.9984ZM49.8651 28.4C49.3318 26.1778 48.4762 24.1445 47.2984 22.3C46.1207 20.4556 43.9984 18.1778 40.9318 15.4667V23.7333C40.9318 23.9445 40.8612 24.1195 40.7201 24.2583C40.579 24.3972 40.4012 24.4667 40.1868 24.4667C39.9723 24.4667 39.7984 24.3972 39.6651 24.2583C39.5318 24.1195 39.4651 23.9445 39.4651 23.7333V14.7333C39.4651 14.2111 39.6345 13.7806 39.9734 13.4417C40.3123 13.1028 40.7429 12.9333 41.2651 12.9333H50.2651C50.4762 12.9333 50.6512 13.0039 50.7901 13.145C50.929 13.2862 50.9984 13.4639 50.9984 13.6783C50.9984 13.8928 50.929 14.0667 50.7901 14.2C50.6512 14.3333 50.4762 14.4 50.2651 14.4H41.9984C45.1984 17.2 47.4429 19.7 48.7318 21.9C50.0207 24.1 50.8873 26.2667 51.3318 28.4H49.8651ZM39.9984 50.1333H57.3318C58.2651 50.1333 59.0762 49.7889 59.7651 49.1C60.454 48.4111 60.7984 47.6 60.7984 46.6667C60.7984 45.7333 60.454 44.9222 59.7651 44.2333C59.0762 43.5445 58.2651 43.2 57.3318 43.2H54.7984V42C54.7984 40.1333 54.1318 38.5333 52.7984 37.2C51.4651 35.8667 49.8651 35.2 47.9984 35.2C46.1318 35.2 44.5651 35.7445 43.2984 36.8333C42.0318 37.9222 41.354 39.2222 41.2651 40.7333V40.5333H39.9984C38.6429 40.5333 37.504 40.9945 36.5818 41.9167C35.6596 42.8389 35.1984 43.9778 35.1984 45.3333C35.1984 46.6889 35.6596 47.8278 36.5818 48.75C37.504 49.6722 38.6429 50.1333 39.9984 50.1333Z" fill="#1C1B1F"/>
</g>
</svg>
