<svg width="64" height="64" viewBox="0 0 64 64" fill="none" xmlns="http://www.w3.org/2000/svg">
<mask id="mask0_2106_3652" style="mask-type:alpha" maskUnits="userSpaceOnUse" x="-1" y="0" width="65" height="64">
<rect x="-0.000488281" width="64" height="64" fill="#D9D9D9"/>
</mask>
<g mask="url(#mask0_2106_3652)">
<path d="M10.933 47.1998C9.25412 47.1998 7.90107 46.6862 6.87387 45.659C5.84663 44.6318 5.33301 43.2787 5.33301 41.5998V22.3998C5.33301 20.7209 5.84663 19.3678 6.87387 18.3406C7.90107 17.3134 9.25412 16.7998 10.933 16.7998H30.133C31.8119 16.7998 33.165 17.3134 34.1922 18.3406C35.2194 19.3678 35.733 20.7209 35.733 22.3998V41.5998C35.733 43.2787 35.2194 44.6318 34.1922 45.659C33.165 46.6862 31.8119 47.1998 30.133 47.1998H10.933ZM6.79967 41.8665C8.79967 40.5331 10.9552 39.4776 13.2663 38.6998C15.5775 37.922 17.9997 37.5331 20.533 37.5331C23.0663 37.5331 25.4886 37.922 27.7997 38.6998C30.1108 39.4776 32.2663 40.5331 34.2663 41.8665V22.3998C34.2663 21.2442 33.8663 20.2665 33.0663 19.4665C32.2663 18.6665 31.2886 18.2665 30.133 18.2665H10.933C9.77745 18.2665 8.79967 18.6665 7.99967 19.4665C7.19967 20.2665 6.79967 21.2442 6.79967 22.3998V41.8665ZM20.533 38.9998C18.2219 38.9998 15.9219 39.3776 13.633 40.1331C11.3441 40.8887 9.15523 42.022 7.06634 43.5331C7.19967 44.2443 7.63301 44.7887 8.36634 45.1665C9.09967 45.5442 9.84412 45.7331 10.5997 45.7331H30.4663C31.2663 45.7331 32.0108 45.5442 32.6997 45.1665C33.3886 44.7887 33.933 44.2443 34.333 43.5331C32.2886 42.1109 30.0774 40.9998 27.6997 40.1998C25.3219 39.3998 22.933 38.9998 20.533 38.9998ZM20.533 34.2665C18.7997 34.2665 17.3219 33.6554 16.0997 32.4331C14.8775 31.2109 14.2663 29.7331 14.2663 27.9998C14.2663 26.2665 14.8775 24.7887 16.0997 23.5665C17.3219 22.3442 18.7997 21.7331 20.533 21.7331C22.2663 21.7331 23.7441 22.3442 24.9663 23.5665C26.1886 24.7887 26.7997 26.2665 26.7997 27.9998C26.7997 29.7331 26.1886 31.2109 24.9663 32.4331C23.7441 33.6554 22.2663 34.2665 20.533 34.2665ZM20.533 32.8665C21.8886 32.8665 23.0386 32.3942 23.983 31.4498C24.9275 30.5054 25.3997 29.3554 25.3997 27.9998C25.3997 26.6442 24.9265 25.4942 23.9802 24.5498C23.0339 23.6054 21.8849 23.1331 20.533 23.1331C19.1775 23.1331 18.0275 23.6063 17.083 24.5526C16.1386 25.4989 15.6663 26.6479 15.6663 27.9998C15.6663 29.3554 16.1386 30.5054 17.083 31.4498C18.0275 32.3942 19.1775 32.8665 20.533 32.8665ZM46.4511 47.1998C46.239 47.1998 46.0663 47.1295 45.933 46.9889C45.7997 46.8484 45.733 46.6742 45.733 46.4665V17.5331C45.733 17.3254 45.8047 17.1512 45.9482 17.0106C46.0917 16.8701 46.2695 16.7998 46.4815 16.7998C46.6936 16.7998 46.8663 16.8701 46.9997 17.0106C47.133 17.1512 47.1997 17.3254 47.1997 17.5331V46.4665C47.1997 46.6742 47.1279 46.8484 46.9845 46.9889C46.841 47.1295 46.6632 47.1998 46.4511 47.1998ZM57.9178 47.1998C57.7057 47.1998 57.533 47.1295 57.3997 46.9889C57.2663 46.8484 57.1997 46.6742 57.1997 46.4665V17.5331C57.1997 17.3254 57.2714 17.1512 57.4149 17.0106C57.5583 16.8701 57.7361 16.7998 57.9482 16.7998C58.1603 16.7998 58.333 16.8701 58.4663 17.0106C58.5997 17.1512 58.6663 17.3254 58.6663 17.5331V46.4665C58.6663 46.6742 58.5946 46.8484 58.4511 46.9889C58.3077 47.1295 58.1299 47.1998 57.9178 47.1998Z" fill="#3FB8A6"/>
</g>
</svg>
