<svg width="64" height="64" viewBox="0 0 64 64" fill="none" xmlns="http://www.w3.org/2000/svg">
<mask id="mask0_2106_3616" style="mask-type:alpha" maskUnits="userSpaceOnUse" x="-1" y="0" width="65" height="64">
<rect x="-0.000488281" width="64" height="64" fill="#D9D9D9"/>
</mask>
<g mask="url(#mask0_2106_3616)">
<path d="M15.0663 55.2C14.0541 55.2 13.201 54.853 12.5072 54.1591C11.8133 53.4653 11.4663 52.6122 11.4663 51.6V17.3333C11.4663 16.3211 11.8133 15.468 12.5072 14.7741C13.201 14.0803 14.0541 13.7333 15.0663 13.7333H20.933V8.93333C20.933 8.68444 21.0132 8.46667 21.1738 8.28C21.3344 8.09333 21.541 8 21.7938 8C22.0655 8 22.2899 8.09333 22.4672 8.28C22.6444 8.46667 22.733 8.68444 22.733 8.93333V13.7333H41.533V8.81873C41.533 8.55736 41.6066 8.35556 41.7539 8.21333C41.9012 8.07111 42.0856 8 42.3072 8C42.5477 8 42.7455 8.07611 42.9005 8.22833C43.0555 8.38055 43.133 8.57111 43.133 8.8V13.7333H48.933C49.9452 13.7333 50.7983 14.0803 51.4922 14.7741C52.186 15.468 52.533 16.3211 52.533 17.3333V51.6C52.533 52.6122 52.186 53.4653 51.4922 54.1591C50.7983 54.853 49.9452 55.2 48.933 55.2H15.0663ZM15.0663 53.7333H48.933C49.4663 53.7333 49.9552 53.5111 50.3996 53.0667C50.8441 52.6222 51.0663 52.1333 51.0663 51.6V28.6H12.933V51.6C12.933 52.1333 13.1552 52.6222 13.5996 53.0667C14.0441 53.5111 14.533 53.7333 15.0663 53.7333ZM12.933 27.1333H51.0663V17.3333C51.0663 16.8 50.8441 16.3111 50.3996 15.8667C49.9552 15.4222 49.4663 15.2 48.933 15.2H15.0663C14.533 15.2 14.0441 15.4222 13.5996 15.8667C13.1552 16.3111 12.933 16.8 12.933 17.3333V27.1333ZM31.9996 37.8667C31.5108 37.8667 31.0774 37.6778 30.6996 37.3C30.3219 36.9222 30.133 36.4889 30.133 36C30.133 35.5111 30.3219 35.0778 30.6996 34.7C31.0774 34.3222 31.5108 34.1333 31.9996 34.1333C32.4885 34.1333 32.9219 34.3222 33.2996 34.7C33.6774 35.0778 33.8663 35.5111 33.8663 36C33.8663 36.4889 33.6774 36.9222 33.2996 37.3C32.9219 37.6778 32.4885 37.8667 31.9996 37.8667ZM21.333 37.8667C20.8441 37.8667 20.4108 37.6778 20.033 37.3C19.6552 36.9222 19.4663 36.4889 19.4663 36C19.4663 35.5111 19.6552 35.0778 20.033 34.7C20.4108 34.3222 20.8441 34.1333 21.333 34.1333C21.8219 34.1333 22.2552 34.3222 22.633 34.7C23.0108 35.0778 23.1996 35.5111 23.1996 36C23.1996 36.4889 23.0108 36.9222 22.633 37.3C22.2552 37.6778 21.8219 37.8667 21.333 37.8667ZM42.6663 37.8667C42.1774 37.8667 41.7441 37.6778 41.3663 37.3C40.9885 36.9222 40.7996 36.4889 40.7996 36C40.7996 35.5111 40.9885 35.0778 41.3663 34.7C41.7441 34.3222 42.1774 34.1333 42.6663 34.1333C43.1552 34.1333 43.5885 34.3222 43.9663 34.7C44.3441 35.0778 44.533 35.5111 44.533 36C44.533 36.4889 44.3441 36.9222 43.9663 37.3C43.5885 37.6778 43.1552 37.8667 42.6663 37.8667ZM31.9996 48C31.5108 48 31.0774 47.8111 30.6996 47.4333C30.3219 47.0556 30.133 46.6222 30.133 46.1333C30.133 45.6444 30.3219 45.2111 30.6996 44.8333C31.0774 44.4556 31.5108 44.2667 31.9996 44.2667C32.4885 44.2667 32.9219 44.4556 33.2996 44.8333C33.6774 45.2111 33.8663 45.6444 33.8663 46.1333C33.8663 46.6222 33.6774 47.0556 33.2996 47.4333C32.9219 47.8111 32.4885 48 31.9996 48ZM21.333 48C20.8441 48 20.4108 47.8111 20.033 47.4333C19.6552 47.0556 19.4663 46.6222 19.4663 46.1333C19.4663 45.6444 19.6552 45.2111 20.033 44.8333C20.4108 44.4556 20.8441 44.2667 21.333 44.2667C21.8219 44.2667 22.2552 44.4556 22.633 44.8333C23.0108 45.2111 23.1996 45.6444 23.1996 46.1333C23.1996 46.6222 23.0108 47.0556 22.633 47.4333C22.2552 47.8111 21.8219 48 21.333 48ZM42.6663 48C42.1774 48 41.7441 47.8111 41.3663 47.4333C40.9885 47.0556 40.7996 46.6222 40.7996 46.1333C40.7996 45.6444 40.9885 45.2111 41.3663 44.8333C41.7441 44.4556 42.1774 44.2667 42.6663 44.2667C43.1552 44.2667 43.5885 44.4556 43.9663 44.8333C44.3441 45.2111 44.533 45.6444 44.533 46.1333C44.533 46.6222 44.3441 47.0556 43.9663 47.4333C43.5885 47.8111 43.1552 48 42.6663 48Z" fill="#1B76FF"/>
</g>
</svg>
