<svg width="64" height="64" viewBox="0 0 64 64" fill="none" xmlns="http://www.w3.org/2000/svg">
<mask id="mask0_2106_3610" style="mask-type:alpha" maskUnits="userSpaceOnUse" x="-1" y="0" width="65" height="64">
<rect x="-0.000488281" width="64" height="64" fill="#D9D9D9"/>
</mask>
<g mask="url(#mask0_2106_3610)">
<path d="M16.266 44.5331L11.866 48.9331C11.2882 49.5109 10.6326 49.6477 9.89932 49.3435C9.16598 49.0394 8.79932 48.4803 8.79932 47.6665V12.3998C8.79932 11.3876 9.14627 10.5345 9.84018 9.8406C10.534 9.14674 11.3871 8.7998 12.3993 8.7998H51.5993C52.6115 8.7998 53.4646 9.14674 54.1585 9.8406C54.8524 10.5345 55.1993 11.3876 55.1993 12.3998V40.9331C55.1993 41.9454 54.8524 42.7984 54.1585 43.4923C53.4646 44.1862 52.6115 44.5331 51.5993 44.5331H16.266ZM15.066 43.0665H51.5993C52.1326 43.0665 52.6215 42.8442 53.066 42.3998C53.5104 41.9554 53.7326 41.4665 53.7326 40.9331V12.3998C53.7326 11.8665 53.5104 11.3776 53.066 10.9331C52.6215 10.4887 52.1326 10.2665 51.5993 10.2665H12.3993C11.866 10.2665 11.3771 10.4887 10.9326 10.9331C10.4882 11.3776 10.266 11.8665 10.266 12.3998V47.8665L15.066 43.0665ZM31.9993 27.7331L38.466 34.1331C38.5993 34.2665 38.766 34.322 38.966 34.2998C39.166 34.2776 39.3326 34.1998 39.466 34.0665C39.5993 33.9331 39.666 33.7776 39.666 33.5998C39.666 33.422 39.5993 33.2665 39.466 33.1331L33.066 26.6665L39.466 20.1998C39.5993 20.0665 39.6549 19.8998 39.6326 19.6998C39.6104 19.4998 39.5326 19.3331 39.3993 19.1998C39.266 19.0665 39.1104 18.9998 38.9326 18.9998C38.7549 18.9998 38.5993 19.0665 38.466 19.1998L31.9993 25.5998L25.5326 19.1998C25.3993 19.0665 25.2326 19.0109 25.0326 19.0331C24.8326 19.0554 24.666 19.1331 24.5326 19.2665C24.3993 19.3998 24.3326 19.5554 24.3326 19.7331C24.3326 19.9109 24.3993 20.0665 24.5326 20.1998L30.9326 26.6665L24.5326 33.1331C24.3993 33.2665 24.3438 33.4331 24.366 33.6331C24.3882 33.8331 24.466 33.9998 24.5993 34.1331C24.7326 34.2665 24.8882 34.3331 25.066 34.3331C25.2438 34.3331 25.3993 34.2665 25.5326 34.1331L31.9993 27.7331Z" fill="#FFAF45"/>
</g>
</svg>
