<svg width="40" height="40" viewBox="0 0 40 40" fill="none" xmlns="http://www.w3.org/2000/svg">
<mask id="mask0_68_1529" style="mask-type:alpha" maskUnits="userSpaceOnUse" x="0" y="0" width="40" height="40">
<rect width="40" height="40" fill="#D9D9D9"/>
</mask>
<g mask="url(#mask0_68_1529)">
<path d="M19.8936 33.3334C16.5674 33.3334 13.6756 32.2677 11.2184 30.1363C8.76112 28.0049 7.28924 25.3163 6.80277 22.0706C6.76146 21.8519 6.79281 21.653 6.89681 21.4739C7.00078 21.2948 7.16314 21.1995 7.38389 21.1881C7.58978 21.1767 7.76217 21.2404 7.90106 21.3793C8.03995 21.5182 8.13326 21.7002 8.18098 21.9253C8.67101 24.7957 10.0108 27.1796 12.2002 29.077C14.3897 30.9744 16.9541 31.9232 19.8936 31.9232C23.2291 31.9232 26.0569 30.7574 28.3771 28.4258C30.6972 26.0943 31.8573 23.2608 31.8573 19.9253C31.8573 16.6169 30.6951 13.8151 28.3706 11.5198C26.0462 9.22461 23.2205 8.077 19.8936 8.077C18.1878 8.077 16.5738 8.43562 15.0517 9.15287C13.5296 9.8701 12.1821 10.8498 11.009 12.092H14.3637C14.5685 12.092 14.7372 12.1584 14.8699 12.2912C15.0025 12.4241 15.0688 12.5931 15.0688 12.7982C15.0688 13.0033 15.0025 13.1719 14.8699 13.304C14.7372 13.4362 14.5685 13.5022 14.3637 13.5022H9.77606C9.426 13.5022 9.1355 13.3867 8.90456 13.1558C8.67362 12.9248 8.55814 12.6343 8.55814 12.2842V7.68171C8.55814 7.49118 8.62457 7.32603 8.75744 7.18625C8.8903 7.04647 9.05928 6.97658 9.26439 6.97658C9.46948 6.97658 9.63807 7.04647 9.77019 7.18625C9.90232 7.32603 9.96839 7.49118 9.96839 7.68171V11.1197C11.2611 9.73228 12.7656 8.64323 14.4817 7.85262C16.1979 7.06204 18.0019 6.66675 19.8936 6.66675C21.7435 6.66675 23.4774 7.01343 25.0952 7.70679C26.7129 8.40018 28.1281 9.35104 29.3407 10.5594C30.5533 11.7677 31.511 13.1784 32.2136 14.7915C32.9162 16.4046 33.2676 18.1288 33.2676 19.9641C33.2676 21.8136 32.9162 23.5512 32.2136 25.1769C31.511 26.8026 30.5533 28.2171 29.3407 29.4205C28.1281 30.6238 26.7129 31.5768 25.0952 32.2795C23.4774 32.9821 21.7435 33.3334 19.8936 33.3334ZM20.7419 19.6881L25.9449 24.8355C26.0781 24.983 26.15 25.1532 26.1607 25.3462C26.1714 25.5392 26.0995 25.713 25.9449 25.8676C25.7903 26.0079 25.623 26.0781 25.4428 26.0781C25.2626 26.0781 25.0952 26.0079 24.9406 25.8676L19.6949 20.6561C19.5681 20.5293 19.4759 20.3904 19.4182 20.2394C19.3605 20.0884 19.3316 19.9392 19.3316 19.7917V12.3313C19.3316 12.1265 19.3981 11.9578 19.5309 11.8251C19.6638 11.6925 19.8328 11.6262 20.0379 11.6262C20.243 11.6262 20.4116 11.6925 20.5437 11.8251C20.6758 11.9578 20.7419 12.1265 20.7419 12.3313V19.6881Z" fill="#1C1B1F"/>
</g>
</svg>
