<svg width="64" height="64" viewBox="0 0 64 64" fill="none" xmlns="http://www.w3.org/2000/svg">
<mask id="mask0_2106_3628" style="mask-type:alpha" maskUnits="userSpaceOnUse" x="-1" y="0" width="65" height="64">
<rect x="-0.000488281" width="64" height="64" fill="#D9D9D9"/>
</mask>
<g mask="url(#mask0_2106_3628)">
<path d="M15.0663 52.5335C14.0541 52.5335 13.201 52.1865 12.5072 51.4926C11.8133 50.7987 11.4663 49.9457 11.4663 48.9335V15.0668C11.4663 14.0546 11.8133 13.2015 12.5072 12.5076C13.201 11.8137 14.0541 11.4668 15.0663 11.4668H41.2663L52.533 22.7335V48.9335C52.533 49.9457 52.186 50.7987 51.4922 51.4926C50.7983 52.1865 49.9452 52.5335 48.933 52.5335H15.0663ZM15.0663 51.0668H48.933C49.5552 51.0668 50.0663 50.8668 50.4663 50.4668C50.8663 50.0668 51.0663 49.5557 51.0663 48.9335V23.8287H40.1996V12.9335H15.0663C14.4441 12.9335 13.933 13.1335 13.533 13.5335C13.133 13.9335 12.933 14.4446 12.933 15.0668V48.9335C12.933 49.5557 13.133 50.0668 13.533 50.4668C13.933 50.8668 14.4441 51.0668 15.0663 51.0668ZM20.3996 41.6668H43.5996V40.2001H20.3996V41.6668ZM20.3996 23.8001H31.9996V22.3335H20.3996V23.8001ZM20.3996 32.7335H43.5996V31.2668H20.3996V32.7335Z" fill="#9863F3"/>
</g>
</svg>
