<svg width="64" height="64" viewBox="0 0 64 64" fill="none" xmlns="http://www.w3.org/2000/svg">
<mask id="mask0_2106_3604" style="mask-type:alpha" maskUnits="userSpaceOnUse" x="-1" y="0" width="65" height="64">
<rect x="-0.000488281" width="64" height="64" fill="#D9D9D9"/>
</mask>
<g mask="url(#mask0_2106_3604)">
<path d="M49.1996 48.2001V41.9335C49.1996 41.6668 49.1108 41.4446 48.933 41.2668C48.7552 41.089 48.533 41.0001 48.2663 41.0001C47.9996 41.0001 47.7774 41.089 47.5996 41.2668C47.4219 41.4446 47.333 41.6668 47.333 41.9335V48.2001C47.333 48.4506 47.3774 48.691 47.4663 48.9213C47.5552 49.1516 47.6849 49.352 47.8554 49.5225L52.0594 53.7265C52.2418 53.9089 52.4552 54.0112 52.6996 54.0335C52.9441 54.0557 53.1774 53.9668 53.3996 53.7668C53.5774 53.6112 53.6663 53.392 53.6663 53.1092C53.6663 52.8264 53.5774 52.59 53.3996 52.4001L49.1996 48.2001ZM15.0663 52.5335C14.0996 52.5335 13.258 52.1751 12.5413 51.4585C11.8246 50.7418 11.4663 49.9001 11.4663 48.9335V15.0668C11.4663 14.1001 11.8246 13.2585 12.5413 12.5418C13.258 11.8251 14.0996 11.4668 15.0663 11.4668H48.933C49.8996 11.4668 50.7413 11.8251 51.458 12.5418C52.1746 13.2585 52.533 14.1001 52.533 15.0668V31.5335C52.2663 31.489 52.0107 31.4446 51.7663 31.4001C51.5219 31.3557 51.2885 31.289 51.0663 31.2001V15.0668C51.0663 14.5335 50.8441 14.0446 50.3996 13.6001C49.9552 13.1557 49.4663 12.9335 48.933 12.9335H15.0663C14.533 12.9335 14.0441 13.1557 13.5996 13.6001C13.1552 14.0446 12.933 14.5335 12.933 15.0668V48.9335C12.933 49.4668 13.1552 49.9557 13.5996 50.4001C14.0441 50.8446 14.533 51.0668 15.0663 51.0668H31.1996C31.2441 51.3335 31.2779 51.5928 31.3012 51.8449C31.3244 52.0971 31.3794 52.3266 31.4663 52.5335H15.0663ZM12.933 51.0668V12.9335V31.2001V31.0001V51.0668ZM20.3996 42.0797C20.3996 42.2933 20.4694 42.4668 20.6088 42.6001C20.7483 42.7335 20.923 42.8001 21.133 42.8001H31.7726C31.924 42.5779 32.0552 42.3446 32.1663 42.1001C32.2774 41.8557 32.3996 41.6001 32.533 41.3335H21.133C20.923 41.3335 20.7483 41.4044 20.6088 41.5463C20.4694 41.6882 20.3996 41.866 20.3996 42.0797ZM20.3996 32.013C20.3996 32.2266 20.4694 32.4001 20.6088 32.5335C20.7483 32.6668 20.923 32.7335 21.133 32.7335H40.333C40.7774 32.6446 41.1219 32.5557 41.3663 32.4668C41.6108 32.3779 41.8663 32.2446 42.133 32.0668V31.8668C42.133 31.689 42.0552 31.5446 41.8996 31.4335C41.7441 31.3224 41.5774 31.2668 41.3996 31.2668H21.133C20.923 31.2668 20.7483 31.3378 20.6088 31.4797C20.4694 31.6216 20.3996 31.7994 20.3996 32.013ZM20.3996 21.9463C20.3996 22.16 20.4694 22.3335 20.6088 22.4668C20.7483 22.6001 20.923 22.6668 21.133 22.6668H42.8663C43.0763 22.6668 43.251 22.5958 43.3904 22.4539C43.5299 22.312 43.5996 22.1342 43.5996 21.9206C43.5996 21.707 43.5299 21.5335 43.3904 21.4001C43.251 21.2668 43.0763 21.2001 42.8663 21.2001H21.133C20.923 21.2001 20.7483 21.2711 20.6088 21.413C20.4694 21.5549 20.3996 21.7327 20.3996 21.9463ZM48.265 58.2668C45.5975 58.2668 43.3308 57.3182 41.465 55.421C39.5992 53.5238 38.6663 51.2682 38.6663 48.6543C38.6663 45.9322 39.599 43.6426 41.4644 41.7857C43.3297 39.9286 45.6077 39.0001 48.2984 39.0001C50.9437 39.0001 53.1996 39.9286 55.0663 41.7857C56.933 43.6426 57.8663 45.9322 57.8663 48.6543C57.8663 51.2682 56.933 53.5238 55.0663 55.421C53.1996 57.3182 50.9326 58.2668 48.265 58.2668Z" fill="#9863F3"/>
</g>
</svg>
