<svg width="64" height="64" viewBox="0 0 64 64" fill="none" xmlns="http://www.w3.org/2000/svg">
<mask id="mask0_2106_3640" style="mask-type:alpha" maskUnits="userSpaceOnUse" x="-1" y="0" width="65" height="64">
<rect x="-0.000488281" width="64" height="64" fill="#D9D9D9"/>
</mask>
<g mask="url(#mask0_2106_3640)">
<path d="M12.3993 49.8669C11.3871 49.8669 10.5341 49.52 9.84018 48.8261C9.14627 48.1322 8.79932 47.2792 8.79932 46.2669V17.7336C8.79932 16.7214 9.14627 15.8683 9.84018 15.1744C10.5341 14.4805 11.3871 14.1336 12.3993 14.1336H39.3993C39.3549 14.3558 39.3215 14.5891 39.2993 14.8336C39.2771 15.078 39.2438 15.3336 39.1993 15.6003H10.266V46.2669C10.266 46.8891 10.466 47.4003 10.866 47.8003C11.266 48.2003 11.7771 48.4003 12.3993 48.4003H51.5993C52.2215 48.4003 52.7327 48.2003 53.1327 47.8003C53.5326 47.4003 53.7327 46.8891 53.7327 46.2669V26.9336C54.0071 26.8447 54.2535 26.7558 54.4718 26.6669C54.6901 26.578 54.9327 26.4892 55.1993 26.4003V46.2669C55.1993 47.2792 54.8524 48.1322 54.1585 48.8261C53.4646 49.52 52.6115 49.8669 51.5993 49.8669H12.3993ZM50.6542 22.0669C48.9732 22.0669 47.5438 21.4741 46.366 20.2885C45.1882 19.1029 44.5993 17.6695 44.5993 15.9885C44.5993 14.3074 45.1921 12.878 46.3778 11.7003C47.5634 10.5225 48.9967 9.93359 50.6778 9.93359C52.3588 9.93359 53.7882 10.5264 54.966 11.7121C56.1438 12.8977 56.7327 14.331 56.7327 16.0121C56.7327 17.6931 56.1398 19.1225 54.9542 20.3003C53.7686 21.478 52.3353 22.0669 50.6542 22.0669ZM31.9993 29.2669L41.5993 22.8669C41.7327 23.0447 41.8634 23.2477 41.9915 23.4759C42.1196 23.7041 42.2555 23.9233 42.3993 24.1336L32.9993 30.4669C32.7104 30.6891 32.3827 30.8003 32.016 30.8003C31.6493 30.8003 31.3327 30.7114 31.066 30.5336L10.266 17.4003V15.6003L31.9993 29.2669Z" fill="#1B76FF"/>
</g>
</svg>
