<svg width="192" height="52" viewBox="0 0 192 52" fill="none" xmlns="http://www.w3.org/2000/svg">
<path d="M19.9658 3.61767C21.0239 5.04097 21.6362 6.74603 21.7254 8.5173C21.7862 9.69429 21.614 10.8717 21.2189 11.9821C20.8237 13.0924 20.2133 14.1138 19.4227 14.9878C18.632 15.8618 17.6766 16.5712 16.6112 17.0752C15.5459 17.5792 14.3916 17.8681 13.2144 17.9251C11.4431 18.0133 9.68537 17.5743 8.16354 16.6636C6.6417 15.7529 5.42405 14.4114 4.66454 12.8088C3.90502 11.2061 3.63773 9.41428 3.89647 7.65974C4.15521 5.90521 4.92835 4.26678 6.11816 2.95161C7.30797 1.63643 8.86101 0.703556 10.5809 0.270926C12.3009 -0.161705 14.1105 -0.074665 15.7809 0.52104C17.4514 1.11675 18.9077 2.19437 19.9658 3.61767Z" fill="#545D6A"/>
<path d="M69.9563 13.1923V20.7603H75.7422V22.8142H69.9563V32.7544C69.9563 35.0224 70.5349 36.44 72.9592 36.44C73.8619 36.3948 74.7451 36.1602 75.5513 35.7515L76.3208 37.7939C75.2581 38.3289 74.0906 38.6232 72.9013 38.656C69.0421 38.6907 67.532 36.4631 67.532 32.7544V13.1923H69.9563Z" fill="#545D6A"/>
<path d="M60.7568 38.4071V28.4323C60.7568 24.5789 58.564 22.6001 54.9709 22.6001C51.4994 22.6001 49.1388 25.3368 49.1388 28.7215V38.4071H46.7145V20.6155H49.0288L49.104 23.6068C51.2275 20.0775 55.6189 19.8229 58.4656 20.8354C61.3122 21.8479 63.2158 24.4747 63.2158 28.3975V38.4071H60.7568Z" fill="#545D6A"/>
<path d="M102.126 32.7544V13.1923H99.7133V32.7544C99.7133 36.4631 101.229 38.6907 105.077 38.656C106.266 38.6253 107.434 38.3308 108.496 37.7939L107.744 35.7746C106.938 36.184 106.055 36.4186 105.152 36.4631C102.739 36.4631 102.126 35.0224 102.126 32.7544Z" fill="#545D6A"/>
<path fill-rule="evenodd" clip-rule="evenodd" d="M80.7354 30.5555C81.0247 34.299 83.9408 36.4629 87.4701 36.4629C89.5588 36.4629 92.2608 35.6355 93.4874 34.0097L95.1017 35.4562C93.3659 37.649 90.3168 38.7657 87.4701 38.7657C82.1761 38.7657 78.2475 35.1611 78.2475 29.5083C78.2475 24.2142 82.0719 20.2509 87.366 20.3666C92.6543 20.2567 96.9069 23.572 96.2242 30.5555H80.7354ZM93.9503 28.5015C93.8462 24.6134 90.9995 22.49 87.3949 22.49C83.7903 22.49 81.204 24.6134 80.7354 28.5015H93.9503Z" fill="#545D6A"/>
<path fill-rule="evenodd" clip-rule="evenodd" d="M119.229 36.4398C115.7 36.4398 112.772 34.2991 112.494 30.5556L127.977 30.5325C128.66 23.5489 124.413 20.2336 119.119 20.3435C113.825 20.2278 110.007 24.1911 110.007 29.4852C110.007 35.138 113.935 38.7426 119.229 38.7426C122.07 38.7426 125.125 37.6259 126.861 35.4331L125.241 33.9866C124.014 35.6125 121.318 36.4398 119.229 36.4398ZM119.154 22.4901C122.759 22.4901 125.599 24.6135 125.709 28.5016H112.494C112.963 24.6135 115.549 22.4901 119.154 22.4901Z" fill="#545D6A"/>
<path d="M134 20.6154L134.145 23.5373C135.302 21.1188 137.616 20.3319 139.798 20.3319C141.251 20.2812 142.678 20.7237 143.848 21.5874L142.725 23.6067C141.824 22.9903 140.756 22.6633 139.664 22.6694C138.93 22.6637 138.202 22.8059 137.524 23.0876C136.846 23.3693 136.232 23.7847 135.718 24.309C135.204 24.8333 134.8 25.4558 134.532 26.1394C134.264 26.8229 134.136 27.5535 134.156 28.2875V38.407H131.744V20.6154H134Z" fill="#545D6A"/>
<path fill-rule="evenodd" clip-rule="evenodd" d="M162.895 20.6156H160.621V24.1334C159.255 21.6165 156.299 20.3552 153.568 20.3552C148.505 20.3552 144.455 23.8441 144.455 29.4969C144.455 35.1497 148.488 38.7543 153.527 38.7543C154.949 38.7757 156.353 38.4303 157.602 37.7513C158.852 37.0722 159.906 36.0826 160.661 34.8777V38.4071H162.895V20.6156ZM153.637 36.4862C149.859 36.4862 146.868 33.6743 146.868 29.4969C146.868 25.3368 149.859 22.5538 153.637 22.548C162.819 22.548 162.819 36.4862 153.637 36.4862Z" fill="#545D6A"/>
<path fill-rule="evenodd" clip-rule="evenodd" d="M185.153 13.2384V38.4069H182.839L182.764 34.8775C182.058 36.0989 181.032 37.1049 179.798 37.7879C178.564 38.4708 177.167 38.8048 175.757 38.7541C170.717 38.7541 166.789 35.4446 166.789 29.5372C166.789 23.6298 170.717 20.2451 175.757 20.355C178.528 20.3203 181.41 21.5411 182.741 24.1737V13.2384H185.153ZM169.207 29.5487C169.207 34.0097 172.193 36.4629 175.902 36.4629C179.72 36.4629 182.642 33.6509 182.642 29.5198C182.679 28.6187 182.53 27.7196 182.206 26.8779C181.882 26.0363 181.389 25.2699 180.758 24.6259C180.126 23.982 179.37 23.4741 178.535 23.1337C177.699 22.7932 176.803 22.6273 175.902 22.6462C172.193 22.6346 169.207 25.0473 169.207 29.5487Z" fill="#545D6A"/>
<path d="M42.624 38.4071V13.198H40.3617V38.4071H42.624Z" fill="#545D6A"/>
<path d="M189.146 35.9597V36.6887H189.724C189.772 36.6887 189.82 36.6793 189.864 36.661C189.908 36.6427 189.948 36.6158 189.982 36.582C190.016 36.5481 190.043 36.5079 190.061 36.4637C190.079 36.4195 190.089 36.3721 190.089 36.3242C190.089 36.2763 190.079 36.2289 190.061 36.1847C190.043 36.1405 190.016 36.1003 189.982 36.0665C189.948 36.0326 189.908 36.0058 189.864 35.9874C189.82 35.9691 189.772 35.9597 189.724 35.9597H189.146Z" fill="#545D6A"/>
<path fill-rule="evenodd" clip-rule="evenodd" d="M191.46 36.7003C191.457 37.0808 191.341 37.4519 191.127 37.7665C190.913 38.0812 190.61 38.3254 190.257 38.4684C189.905 38.6114 189.518 38.6468 189.145 38.57C188.772 38.4933 188.43 38.3078 188.163 38.0371C187.896 37.7664 187.714 37.4226 187.642 37.0489C187.57 36.6753 187.61 36.2886 187.757 35.9377C187.904 35.5867 188.152 35.2872 188.469 35.077C188.786 34.8667 189.159 34.7551 189.539 34.7562C189.797 34.7445 190.054 34.7869 190.293 34.8807C190.533 34.9746 190.751 35.1178 190.932 35.301C191.113 35.4843 191.254 35.7035 191.345 35.9446C191.436 36.1856 191.475 36.4431 191.46 36.7003ZM190.48 38.1266C190.197 38.2948 189.87 38.3744 189.542 38.3552L190.48 38.1266ZM190.471 37.6318V37.7012H190.135L189.51 36.9664H189.146V37.7012H188.839V35.6704H189.724C189.886 35.6638 190.045 35.7189 190.168 35.8245C190.292 35.93 190.37 36.0784 190.389 36.2396C190.407 36.4008 190.363 36.563 190.267 36.6936C190.171 36.8241 190.028 36.9133 189.869 36.9433L190.471 37.6318Z" fill="#545D6A"/>
<path d="M7.61366 48.2663C7.61366 48.2663 12.9598 39.9578 11.8026 32.332C10.7282 25.2625 4.16255 19.4649 3.2378 18.6484C3.16654 18.5854 3.12877 18.5521 3.1296 18.55C1.38227 17.1498 0.248237 17.9194 0.601175 20.2858L4.72072 47.4794C5.06787 49.8458 6.36969 50.1987 7.61366 48.2663Z" fill="#545D6A"/>
<path d="M14.5045 32.1409C15.76 23.5315 24.6529 16.3975 24.6529 16.3975C26.3887 14.9973 27.5458 15.79 27.1871 18.1333L22.5584 49.9903C22.217 52.3451 20.9094 52.6807 19.6655 50.7309C19.6481 50.7425 13.2547 40.7502 14.5045 32.1409Z" fill="#545D6A"/>
</svg>
