<svg width="182" height="36" viewBox="0 0 182 36" fill="none" xmlns="http://www.w3.org/2000/svg">
<path d="M55.5447 0C53.9972 0.00054987 52.7452 1.2724 52.7435 2.84447V33.0335C52.7452 34.6044 53.9956 35.8768 55.5447 35.8785H76.0832C77.6302 35.8768 78.8828 34.605 78.8844 33.0335V32.4896C78.8833 30.9176 77.6291 29.6457 76.0832 29.6446H58.88V20.784H75.9826C77.5301 20.7829 78.7816 19.511 78.7832 17.939V17.3962C78.7816 15.8236 77.5295 14.5518 75.9826 14.5512H58.88V6.23388H76.0832C77.6302 6.23278 78.8833 4.96038 78.8844 3.3872V2.84447C78.8833 1.2724 77.6291 0.00109974 76.0832 0H55.5447Z" fill="#545D6A"/>
<path d="M128.887 0C123.245 0.00219948 118.663 4.65905 118.661 10.3914C118.663 16.1255 123.245 20.7823 128.887 20.784H132.631C133.762 20.7867 134.747 21.2514 135.476 22.0333C136.204 22.8163 136.661 23.9144 136.663 25.1841C136.663 26.474 136.201 27.5897 135.473 28.3826C134.741 29.1739 133.759 29.6424 132.631 29.6446H121.461C119.914 29.6457 118.662 30.9181 118.661 32.4907V33.0335C118.662 34.605 119.914 35.8774 121.461 35.8785H132.631C135.428 35.8785 137.989 34.6396 139.838 32.6964C141.689 30.7548 142.854 28.0874 142.855 25.1841C142.854 22.2945 141.688 19.6414 139.836 17.7108C137.985 15.7813 135.426 14.5518 132.631 14.5512H128.887C127.686 14.5479 126.682 14.0987 125.959 13.3673C125.24 12.6327 124.798 11.6127 124.797 10.3914C124.799 9.13389 125.234 8.12103 125.941 7.3985C126.652 6.67872 127.65 6.23772 128.887 6.23388H136.849C138.396 6.23278 139.648 4.95928 139.649 3.3872V2.84447C139.647 1.2724 138.396 0.00219948 136.849 0H128.887Z" fill="#545D6A"/>
<path d="M146.992 2.84447C146.992 1.27405 148.243 0.00054987 149.79 0H150.384C151.931 0.00109974 153.182 1.27405 153.182 2.84447V33.0335C153.182 34.6028 151.932 35.8768 150.384 35.8785H149.79C148.242 35.8768 146.993 34.6028 146.992 33.0335V2.84447Z" fill="#545D6A"/>
<path d="M157.266 10.3914C157.268 4.65905 161.851 0.00219948 167.491 0H175.453C177 0.00054987 178.253 1.2724 178.253 2.84447V3.3883C178.253 4.96037 177 6.23278 175.453 6.23388H167.491C166.253 6.23772 165.257 6.67872 164.545 7.3985C163.837 8.12103 163.403 9.13389 163.4 10.3914C163.402 11.6127 163.844 12.6327 164.563 13.3673C165.286 14.0987 166.29 14.5479 167.491 14.5512H171.235C174.03 14.5518 176.591 15.7813 178.441 17.7108C180.292 19.6414 181.461 22.2945 181.462 25.1841C181.461 28.0879 180.294 30.7548 178.444 32.698C176.594 34.6396 174.032 35.8785 171.235 35.8785H160.067C158.519 35.8785 157.266 34.6044 157.266 33.0335V32.4907C157.266 30.9192 158.519 29.6451 160.067 29.6446H171.235C172.363 29.6424 173.345 29.1739 174.077 28.3826C174.806 27.5897 175.267 26.474 175.267 25.1841C175.267 23.915 174.809 22.8163 174.082 22.0333C173.351 21.2514 172.367 20.7867 171.235 20.784H167.491C161.849 20.7823 157.268 16.1249 157.266 10.3914Z" fill="#545D6A"/>
<path d="M81.4655 31.8831L96.3182 1.69304C96.7944 0.72967 97.7619 0.122065 98.8218 0.120965C99.8829 0.120965 100.851 0.72967 101.327 1.69304L101.327 1.69359L116.18 31.8831C116.377 32.2829 116.475 32.7189 116.475 33.1533C116.475 33.6735 116.334 34.1926 116.057 34.6501C115.547 35.4881 114.648 36 113.676 36H113.141C112.08 36 111.112 35.3902 110.638 34.4285L98.8218 10.4651L87.0078 34.4274C86.5344 35.3907 85.5664 36 84.5047 36H83.9707C82.9984 36 82.098 35.4886 81.5905 34.6523C81.3107 34.1948 81.1695 33.674 81.1695 33.1544C81.1695 32.7189 81.2685 32.2829 81.4655 31.8831Z" fill="#545D6A"/>
<path fill-rule="evenodd" clip-rule="evenodd" d="M47.3034 1.00684e-05C46.2424 0.000559939 45.2733 0.608713 44.7988 1.57484L33.0507 25.498L29.1003 17.399L35.6111 4.11304C35.8059 3.71163 35.9033 3.27778 35.9033 2.84558C35.9033 2.32486 35.7626 1.80468 35.484 1.34774C34.9743 0.509736 34.0734 1.00684e-05 33.1038 1.00684e-05H18.192C17.2224 1.00684e-05 16.3226 0.509736 15.8112 1.34719C15.5331 1.80468 15.3924 2.32486 15.3924 2.84448C15.3924 3.27778 15.4887 3.71383 15.6868 4.11413L22.1928 17.3935L18.1898 25.5288L6.3758 1.56989C5.90235 0.608712 4.93435 1.00684e-05 3.87328 1.00684e-05H3.33977C2.36744 1.00684e-05 1.46708 0.511385 0.957915 1.34884C0.679797 1.80578 0.538574 2.32486 0.538574 2.84558C0.538574 3.27943 0.63651 3.71548 0.834547 4.11799L15.6873 34.3053C16.1629 35.272 17.1342 35.8768 18.192 35.8774C19.2504 35.8774 20.2232 35.2709 20.6961 34.3031L25.6184 24.301L30.5406 34.3053C31.0152 35.2709 31.9864 35.8774 33.0442 35.8774C34.1026 35.8774 35.0733 35.272 35.5495 34.307L50.4022 4.11744C50.5997 3.71438 50.6971 3.27833 50.6971 2.84448C50.6971 2.32486 50.557 1.80743 50.2827 1.35214L50.2724 1.33454L50.2783 1.34609C49.767 0.511386 48.8688 0.000559939 47.8976 1.00684e-05H47.3034ZM20.746 4.06299L25.3549 13.4108L29.9634 4.06299H20.746Z" fill="#545D6A"/>
</svg>
