<svg width="64" height="64" viewBox="0 0 64 64" fill="none" xmlns="http://www.w3.org/2000/svg">
<mask id="mask0_68_2288" style="mask-type:alpha" maskUnits="userSpaceOnUse" x="0" y="0" width="64" height="64">
<rect width="64" height="64" fill="#D9D9D9"/>
</mask>
<g mask="url(#mask0_68_2288)">
<path d="M43.2664 54.2667C42.8875 54.2667 42.5483 54.1169 42.2489 53.8175C41.9495 53.518 41.7997 53.1789 41.7997 52.8V46.1333H32.7331C32.3542 46.1333 32.015 45.9836 31.7155 45.6842C31.4161 45.3847 31.2664 45.0456 31.2664 44.6667V19.2667H22.1997V26C22.1997 26.3789 22.05 26.7181 21.7506 27.0175C21.4511 27.317 21.112 27.4667 20.7331 27.4667H8.53307C8.15418 27.4667 7.81503 27.317 7.51561 27.0175C7.21614 26.7181 7.06641 26.3789 7.06641 26V11.2C7.06641 10.8211 7.21614 10.4819 7.51561 10.1825C7.81503 9.88305 8.15418 9.73334 8.53307 9.73334H20.7331C21.112 9.73334 21.4511 9.88305 21.7506 10.1825C22.05 10.4819 22.1997 10.8211 22.1997 11.2V17.8H41.7997V11.2C41.7997 10.8211 41.9495 10.4819 42.2489 10.1825C42.5483 9.88305 42.8875 9.73334 43.2664 9.73334H55.4664C55.8453 9.73334 56.1845 9.88305 56.4839 10.1825C56.7834 10.4819 56.9331 10.8211 56.9331 11.2V26C56.9331 26.3789 56.7834 26.7181 56.4839 27.0175C56.1845 27.317 55.8453 27.4667 55.4664 27.4667H43.2664C42.8875 27.4667 42.5483 27.317 42.2489 27.0175C41.9495 26.7181 41.7997 26.3789 41.7997 26V19.2667H32.7331V44.6667H41.7997V37.9333C41.7997 37.5889 41.9495 37.2583 42.2489 36.9417C42.5483 36.625 42.8875 36.4667 43.2664 36.4667H55.4664C55.8453 36.4667 56.1845 36.625 56.4839 36.9417C56.7834 37.2583 56.9331 37.5889 56.9331 37.9333V52.8C56.9331 53.1789 56.7834 53.518 56.4839 53.8175C56.1845 54.1169 55.8453 54.2667 55.4664 54.2667H43.2664ZM43.2664 26H55.4664V11.2H43.2664V26ZM43.2664 52.8H55.4664V37.9333H43.2664V52.8ZM8.53307 26H20.7331V11.2H8.53307V26Z" fill="#1C1B1F"/>
</g>
</svg>
