<svg width="41" height="40" viewBox="0 0 41 40" fill="none" xmlns="http://www.w3.org/2000/svg">
<mask id="mask0_2011_2970" style="mask-type:alpha" maskUnits="userSpaceOnUse" x="0" y="0" width="41" height="40">
<rect x="0.333496" width="40" height="40" fill="#D9D9D9"/>
</mask>
<g mask="url(#mask0_2011_2970)">
<path d="M7.76937 31.6666C7.08668 31.6666 6.51002 31.4313 6.03941 30.9607C5.5688 30.4901 5.3335 29.9134 5.3335 29.2307V10.7691C5.3335 10.0864 5.5688 9.50978 6.03941 9.03917C6.51002 8.56856 7.08668 8.33325 7.76937 8.33325H32.8976C33.5803 8.33325 34.157 8.56856 34.6276 9.03917C35.0982 9.50978 35.3335 10.0864 35.3335 10.7691V29.2307C35.3335 29.9134 35.0982 30.4901 34.6276 30.9607C34.157 31.4313 33.5803 31.6666 32.8976 31.6666H7.76937ZM7.76937 30.2563H32.8976C33.154 30.2563 33.3891 30.1495 33.6027 29.9358C33.8164 29.7222 33.9232 29.4871 33.9232 29.2307V13.1238H6.74375V29.2307C6.74375 29.4871 6.85058 29.7222 7.06425 29.9358C7.27791 30.1495 7.51295 30.2563 7.76937 30.2563ZM16.153 21.7008L12.3217 17.8482C12.1864 17.7271 12.1156 17.5675 12.1092 17.3694C12.1028 17.1712 12.1769 17.0032 12.3314 16.8653C12.4667 16.7321 12.6341 16.6703 12.8335 16.68C13.0329 16.6896 13.2003 16.762 13.3356 16.8973L17.2844 20.8461C17.5265 21.0869 17.6476 21.368 17.6476 21.6891C17.6476 22.0103 17.5265 22.2919 17.2844 22.5341L13.3036 26.5149C13.1704 26.6623 13.0103 26.7277 12.8233 26.7109C12.6364 26.6942 12.4724 26.6182 12.3314 26.4828C12.1982 26.3496 12.1316 26.1965 12.1316 26.0234C12.1316 25.8503 12.1982 25.6972 12.3314 25.564L16.153 21.7008ZM22.0002 27.4059C21.7947 27.4059 21.6258 27.3397 21.4935 27.2073C21.3612 27.075 21.295 26.906 21.295 26.7004C21.295 26.4948 21.3612 26.3259 21.4935 26.1938C21.6258 26.0617 21.7947 25.9956 22.0002 25.9956H28.6668C28.8723 25.9956 29.0412 26.0618 29.1735 26.1942C29.3058 26.3266 29.372 26.4956 29.372 26.7012C29.372 26.9068 29.3058 27.0756 29.1735 27.2077C29.0412 27.3398 28.8723 27.4059 28.6668 27.4059H22.0002Z" fill="white"/>
</g>
</svg>
