<svg width="64" height="64" viewBox="0 0 64 64" fill="none" xmlns="http://www.w3.org/2000/svg">
<g id="id_card">
<mask id="mask0_4304_629" style="mask-type:alpha" maskUnits="userSpaceOnUse" x="0" y="0" width="64" height="64">
<rect id="Bounding box" width="64" height="64" fill="#D9D9D9"/>
</mask>
<g mask="url(#mask0_4304_629)">
<path id="id_card_2" d="M47.59 32.923C47.882 32.923 48.126 32.8239 48.322 32.6257C48.5176 32.4275 48.6153 32.1803 48.6153 31.8843C48.6153 31.5888 48.5176 31.3461 48.322 31.1563C48.126 30.9666 47.882 30.8717 47.59 30.8717H39.3847C39.0922 30.8717 38.8482 30.9708 38.6527 31.169C38.4567 31.3668 38.3587 31.6137 38.3587 31.9097C38.3587 32.2057 38.4567 32.4486 38.6527 32.6383C38.8482 32.8281 39.0922 32.923 39.3847 32.923H47.59ZM47.59 25.5383C47.882 25.5383 48.126 25.4392 48.322 25.241C48.5176 25.0428 48.6153 24.7957 48.6153 24.4997C48.6153 24.2041 48.5176 23.9615 48.322 23.7717C48.126 23.5819 47.882 23.487 47.59 23.487H39.3847C39.0922 23.487 38.8482 23.5861 38.6527 23.7843C38.4567 23.9821 38.3587 24.229 38.3587 24.525C38.3587 24.821 38.4567 25.0639 38.6527 25.2537C38.8482 25.4435 39.0922 25.5383 39.3847 25.5383H47.59ZM24.2053 35.6817C22.7213 35.6817 21.4627 35.7835 20.4293 35.987C19.396 36.1901 18.4991 36.5175 17.7387 36.969C17.0547 37.2868 16.5367 37.6812 16.1847 38.1523C15.8327 38.623 15.6567 39.1088 15.6567 39.6097C15.6567 39.9261 15.7964 40.207 16.076 40.4523C16.3556 40.6977 16.6927 40.8203 17.0873 40.8203H31.3233C31.7176 40.8203 32.0547 40.6939 32.3347 40.441C32.6142 40.1886 32.754 39.8892 32.754 39.543C32.754 39.0883 32.5889 38.6472 32.2587 38.2197C31.9289 37.7926 31.4222 37.3841 30.7387 36.9943C29.9316 36.5259 29.0118 36.1901 27.9793 35.987C26.9469 35.7835 25.6889 35.6817 24.2053 35.6817ZM24.1973 30.7583C25.2622 30.7583 26.1613 30.3943 26.8947 29.6663C27.628 28.9379 27.9947 28.0412 27.9947 26.9763C27.9947 25.9115 27.6307 25.0123 26.9027 24.279C26.1742 23.5457 25.2776 23.179 24.2127 23.179C23.1478 23.179 22.2487 23.5432 21.5153 24.2717C20.782 24.9997 20.4153 25.8961 20.4153 26.961C20.4153 28.0259 20.7796 28.925 21.508 29.6583C22.236 30.3917 23.1324 30.7583 24.1973 30.7583ZM11.692 50.6663C10.6676 50.6663 9.796 50.3072 9.07733 49.589C8.35911 48.8703 8 47.9988 8 46.9743V17.025C8 16.0006 8.35911 15.129 9.07733 14.4103C9.796 13.6921 10.6676 13.333 11.692 13.333H52.308C53.3324 13.333 54.204 13.6921 54.9227 14.4103C55.6409 15.129 56 16.0006 56 17.025V46.9743C56 47.9988 55.6409 48.8703 54.9227 49.589C54.204 50.3072 53.3324 50.6663 52.308 50.6663H11.692ZM11.692 48.615H52.308C52.7182 48.615 53.0942 48.4441 53.436 48.1023C53.7778 47.7606 53.9487 47.3846 53.9487 46.9743V17.025C53.9487 16.6148 53.7778 16.2388 53.436 15.897C53.0942 15.5552 52.7182 15.3843 52.308 15.3843H11.692C11.2818 15.3843 10.9058 15.5552 10.564 15.897C10.2222 16.2388 10.0513 16.6148 10.0513 17.025V46.9743C10.0513 47.3846 10.2222 47.7606 10.564 48.1023C10.9058 48.4441 11.2818 48.615 11.692 48.615Z" fill="#1C1B1F"/>
</g>
</g>
</svg>
