<svg width="181" height="64" viewBox="0 0 181 64" fill="none" xmlns="http://www.w3.org/2000/svg">
<rect x="0.000732422" width="180.18" height="64" rx="16" fill="white"/>
<path d="M37.4505 16.5045C38.1831 17.4899 38.607 18.6703 38.6687 19.8966C38.7108 20.7114 38.5916 21.5266 38.318 22.2953C38.0445 23.064 37.6219 23.7711 37.0745 24.3762C36.5271 24.9813 35.8657 25.4724 35.1281 25.8213C34.3906 26.1703 33.5914 26.3702 32.7764 26.4097C31.5501 26.4707 30.3333 26.1668 29.2797 25.5363C28.2261 24.9059 27.3831 23.9771 26.8573 22.8676C26.3315 21.7581 26.1464 20.5176 26.3256 19.3029C26.5047 18.0882 27.04 16.9539 27.8637 16.0434C28.6874 15.1329 29.7626 14.4871 30.9533 14.1876C32.144 13.8881 33.3968 13.9483 34.5533 14.3607C35.7098 14.7731 36.718 15.5192 37.4505 16.5045Z" fill="#B0B5BD"/>
<path d="M72.0604 23.1333V28.3727H76.0661V29.7947H72.0604V36.6763C72.0604 38.2465 72.461 39.2279 74.1394 39.2279C74.7643 39.1966 75.3757 39.0342 75.9339 38.7512L76.4666 40.1652C75.7309 40.5356 74.9227 40.7394 74.0993 40.762C71.4276 40.7861 70.3821 39.2439 70.3821 36.6763V23.1333H72.0604Z" fill="#B0B5BD"/>
<path d="M65.6906 40.5897V33.6841C65.6906 31.0163 64.1725 29.6464 61.685 29.6464C59.2816 29.6464 57.6473 31.5411 57.6473 33.8844V40.5897H55.969V28.2725H57.5712L57.6233 30.3434C59.0934 27.9 62.1336 27.7237 64.1044 28.4247C66.0751 29.1257 67.393 30.9442 67.393 33.66V40.5897H65.6906Z" fill="#B0B5BD"/>
<path d="M94.3322 36.6763V23.1333H92.6618V36.6763C92.6618 39.2439 93.7113 40.7861 96.3751 40.762C97.1986 40.7408 98.0072 40.537 98.7424 40.1652L98.2216 38.7672C97.6637 39.0506 97.0522 39.2131 96.4271 39.2439C94.7568 39.2439 94.3322 38.2465 94.3322 36.6763Z" fill="#B0B5BD"/>
<path fill-rule="evenodd" clip-rule="evenodd" d="M79.522 35.154C79.7223 37.7456 81.7411 39.2437 84.1845 39.2437C85.6306 39.2437 87.5012 38.6709 88.3504 37.5453L89.4679 38.5467C88.2662 40.0649 86.1553 40.8379 84.1845 40.8379C80.5194 40.8379 77.7996 38.3424 77.7996 34.429C77.7996 30.7638 80.4473 28.02 84.1124 28.1001C87.7736 28.024 90.7177 30.3192 90.245 35.154H79.522ZM88.6708 33.732C88.5987 31.0402 86.6279 29.5702 84.1325 29.5702C81.637 29.5702 79.8465 31.0402 79.522 33.732H88.6708Z" fill="#B0B5BD"/>
<path fill-rule="evenodd" clip-rule="evenodd" d="M106.173 39.2274C103.729 39.2274 101.702 37.7454 101.51 35.1537L112.229 35.1377C112.702 30.3029 109.762 28.0077 106.096 28.0838C102.431 28.0037 99.7876 30.7476 99.7876 34.4127C99.7876 38.3262 102.507 40.8217 106.173 40.8217C108.139 40.8217 110.254 40.0486 111.456 38.5305L110.334 37.5291C109.485 38.6546 107.619 39.2274 106.173 39.2274ZM106.12 29.5699C108.616 29.5699 110.583 31.04 110.659 33.7317H101.51C101.834 31.04 103.625 29.5699 106.12 29.5699Z" fill="#B0B5BD"/>
<path d="M116.399 28.2721L116.499 30.2949C117.3 28.6206 118.902 28.0758 120.412 28.0758C121.418 28.0407 122.407 28.3471 123.216 28.945L122.439 30.343C121.815 29.9163 121.076 29.6899 120.32 29.6941C119.812 29.6901 119.308 29.7886 118.839 29.9836C118.369 30.1786 117.944 30.4662 117.588 30.8292C117.232 31.1922 116.953 31.6232 116.767 32.0964C116.582 32.5696 116.493 33.0754 116.507 33.5835V40.5893H114.837V28.2721H116.399Z" fill="#B0B5BD"/>
<path fill-rule="evenodd" clip-rule="evenodd" d="M136.403 28.2722H134.829V30.7076C133.884 28.9652 131.837 28.092 129.946 28.092C126.441 28.092 123.637 30.5074 123.637 34.4208C123.637 38.3343 126.429 40.8298 129.918 40.8298C130.903 40.8447 131.874 40.6055 132.739 40.1354C133.605 39.6653 134.334 38.9802 134.857 38.1461V40.5895H136.403V28.2722ZM129.994 39.2596C127.379 39.2596 125.308 37.3129 125.308 34.4208C125.308 31.5408 127.379 29.6141 129.994 29.6101C136.351 29.6101 136.351 39.2596 129.994 39.2596Z" fill="#B0B5BD"/>
<path fill-rule="evenodd" clip-rule="evenodd" d="M151.812 23.1648V40.5892H150.209L150.157 38.1458C149.669 38.9913 148.959 39.6878 148.104 40.1606C147.25 40.6334 146.282 40.8647 145.306 40.8296C141.818 40.8296 139.098 38.5384 139.098 34.4486C139.098 30.3589 141.818 28.0156 145.306 28.0917C147.225 28.0677 149.22 28.9129 150.141 30.7354V23.1648H151.812ZM140.772 34.4566C140.772 37.545 142.839 39.2433 145.407 39.2433C148.05 39.2433 150.073 37.2966 150.073 34.4366C150.098 33.8127 149.996 33.1903 149.771 32.6076C149.547 32.0249 149.206 31.4943 148.769 31.0485C148.331 30.6027 147.808 30.2511 147.229 30.0154C146.651 29.7797 146.031 29.6649 145.407 29.6779C142.839 29.6699 140.772 31.3403 140.772 34.4566Z" fill="#B0B5BD"/>
<path d="M53.1381 40.5895V23.1371H51.5719V40.5895H53.1381Z" fill="#B0B5BD"/>
<path d="M154.85 40.5537L154.849 40.5536H154.857L154.85 40.5537Z" fill="#B0B5BD"/>
<path fill-rule="evenodd" clip-rule="evenodd" d="M155.494 40.0529V40.1009H155.261L154.829 39.5922H154.576V40.1009H154.364V38.695H154.977C155.089 38.6904 155.199 38.7285 155.284 38.8016C155.37 38.8747 155.424 38.9774 155.437 39.089C155.449 39.2006 155.419 39.3129 155.353 39.4033C155.286 39.4937 155.187 39.5554 155.077 39.5762L155.494 40.0529ZM154.576 38.8952V39.3999H154.977C155.01 39.3999 155.043 39.3934 155.073 39.3807C155.104 39.368 155.132 39.3495 155.155 39.326C155.179 39.3026 155.197 39.2748 155.21 39.2442C155.223 39.2135 155.229 39.1807 155.229 39.1476C155.229 39.1144 155.223 39.0816 155.21 39.051C155.197 39.0204 155.179 38.9926 155.155 38.9691C155.132 38.9457 155.104 38.9271 155.073 38.9144C155.043 38.9018 155.01 38.8952 154.977 38.8952H154.576Z" fill="#B0B5BD"/>
<path fill-rule="evenodd" clip-rule="evenodd" d="M156.179 39.408C156.176 39.6714 156.096 39.9283 155.948 40.1461C155.799 40.364 155.59 40.5331 155.346 40.6321C155.102 40.7311 154.834 40.7555 154.576 40.7024C154.318 40.6492 154.081 40.5209 153.896 40.3335C153.711 40.146 153.585 39.908 153.535 39.6493C153.485 39.3906 153.513 39.1229 153.615 38.88C153.717 38.637 153.888 38.4297 154.108 38.2841C154.327 38.1385 154.585 38.0613 154.849 38.0621C155.027 38.0539 155.205 38.0833 155.371 38.1483C155.537 38.2132 155.688 38.3124 155.813 38.4392C155.938 38.5661 156.036 38.7179 156.099 38.8848C156.162 39.0516 156.189 39.2299 156.179 39.408ZM154.85 40.5537C155.078 40.5669 155.304 40.5118 155.5 40.3954C155.696 40.2787 155.853 40.1058 155.95 39.899C156.047 39.6922 156.08 39.461 156.044 39.2354C156.009 39.0098 155.906 38.8001 155.75 38.6334C155.594 38.4667 155.391 38.3507 155.168 38.3004C154.945 38.2501 154.713 38.2678 154.5 38.3512C154.287 38.4346 154.105 38.5799 153.975 38.7683C153.846 38.9567 153.776 39.1795 153.775 39.408C153.764 39.5558 153.784 39.7044 153.833 39.8442C153.883 39.9839 153.961 40.1118 154.063 40.2197C154.165 40.3275 154.288 40.4129 154.425 40.4704C154.559 40.5271 154.704 40.5554 154.85 40.5537Z" fill="#B0B5BD"/>
<path d="M28.9001 47.4151C28.9001 47.4151 32.6013 41.663 31.8002 36.3836C31.0564 31.4894 26.5109 27.4756 25.8707 26.9103C25.8213 26.8668 25.7952 26.8437 25.7957 26.8422C24.5861 25.8729 23.801 26.4056 24.0453 28.0439L26.8973 46.8703C27.1376 48.5086 28.0389 48.7529 28.9001 47.4151Z" fill="#B0B5BD"/>
<path d="M33.6712 36.2513C34.5404 30.291 40.6971 25.3521 40.6971 25.3521C41.8987 24.3827 42.6999 24.9315 42.4515 26.5538L39.247 48.6087C39.0107 50.2389 38.1054 50.4713 37.2442 49.1214C37.2322 49.1294 32.806 42.2117 33.6712 36.2513Z" fill="#B0B5BD"/>
</svg>
