<svg width="64" height="64" viewBox="0 0 64 64" fill="none" xmlns="http://www.w3.org/2000/svg">
<mask id="mask0_2219_6787" style="mask-type:alpha" maskUnits="userSpaceOnUse" x="0" y="0" width="64" height="64">
<rect width="64" height="64" fill="#D9D9D9"/>
</mask>
<g mask="url(#mask0_2219_6787)">
<path d="M15.0665 55.2001C14.0542 55.2001 13.2012 54.8445 12.5073 54.1334C11.8134 53.4223 11.4665 52.5556 11.4665 51.5334V23.2667C10.8887 23.2667 10.2998 22.9112 9.6998 22.2001C9.0998 21.4889 8.7998 20.6667 8.7998 19.7334V15.8667C8.7998 14.8445 9.14676 13.9889 9.84067 13.3001C10.5345 12.6112 11.3876 12.2667 12.3998 12.2667H51.5998C52.622 12.2667 53.4776 12.6112 54.1665 13.3001C54.8554 13.9889 55.1998 14.8445 55.1998 15.8667V19.7334C55.1998 20.6667 54.8998 21.4889 54.2998 22.2001C53.6998 22.9112 53.1109 23.2667 52.5331 23.2667V51.5334C52.5331 52.5556 52.1887 53.4223 51.4998 54.1334C50.8109 54.8445 49.9554 55.2001 48.9331 55.2001H15.0665ZM12.9331 23.3334V51.6001C12.9331 52.2223 13.1331 52.7334 13.5331 53.1334C13.9331 53.5334 14.4442 53.7334 15.0665 53.7334H48.9331C49.5554 53.7334 50.0665 53.5334 50.4665 53.1334C50.8665 52.7334 51.0665 52.2223 51.0665 51.6001V23.3334H12.9331ZM51.5998 21.8667C52.222 21.8667 52.7331 21.6667 53.1331 21.2667C53.5331 20.8667 53.7331 20.3556 53.7331 19.7334V15.8667C53.7331 15.2445 53.5331 14.7334 53.1331 14.3334C52.7331 13.9334 52.222 13.7334 51.5998 13.7334H12.3998C11.7776 13.7334 11.2665 13.9334 10.8665 14.3334C10.4665 14.7334 10.2665 15.2445 10.2665 15.8667V19.7334C10.2665 20.3556 10.4665 20.8667 10.8665 21.2667C11.2665 21.6667 11.7776 21.8667 12.3998 21.8667H51.5998ZM26.0665 34.7334H37.9331C38.1431 34.7334 38.3178 34.6624 38.4573 34.5205C38.5967 34.3786 38.6665 34.2008 38.6665 33.9872C38.6665 33.7735 38.5967 33.6001 38.4573 33.4667C38.3178 33.3334 38.1431 33.2667 37.9331 33.2667H26.0665C25.8565 33.2667 25.6818 33.3377 25.5423 33.4796C25.4029 33.6215 25.3331 33.7993 25.3331 34.0129C25.3331 34.2266 25.4029 34.4001 25.5423 34.5334C25.6818 34.6667 25.8565 34.7334 26.0665 34.7334Z" fill="#9863F3"/>
</g>
</svg>
