<svg width="64" height="64" viewBox="0 0 64 64" fill="none" xmlns="http://www.w3.org/2000/svg">
<mask id="mask0_2179_3103" style="mask-type:alpha" maskUnits="userSpaceOnUse" x="0" y="0" width="64" height="64">
<rect width="64" height="64" fill="#D9D9D9"/>
</mask>
<g mask="url(#mask0_2179_3103)">
<path d="M31.9871 40.4C31.7735 40.4 31.6 40.3302 31.4667 40.1908C31.3333 40.0513 31.2667 39.8766 31.2667 39.6666V11.4L25.2 17.4C25.1 17.5333 24.9528 17.6 24.7583 17.6C24.5639 17.6 24.3913 17.5099 24.2406 17.3298C24.0802 17.1941 24 17.0274 24 16.8298C24 16.6321 24.0889 16.4444 24.2667 16.2666L30.7333 9.79995C30.9111 9.62217 31.1039 9.47773 31.3116 9.36662C31.5193 9.25551 31.7488 9.19995 32 9.19995C32.2029 9.19995 32.4092 9.25551 32.6189 9.36662C32.8285 9.47773 33.0444 9.62217 33.2667 9.79995L39.8 16.3333C39.9333 16.4666 40 16.6222 40 16.8C40 16.9777 39.9076 17.1555 39.7228 17.3333C39.538 17.5111 39.3602 17.6 39.1895 17.6C39.0187 17.6 38.8444 17.5111 38.6667 17.3333L32.7333 11.4V39.6666C32.7333 39.8766 32.6624 40.0513 32.5205 40.1908C32.3786 40.3302 32.2008 40.4 31.9871 40.4ZM17.7333 57.8666C16.7211 57.8666 15.8681 57.5197 15.1742 56.8258C14.4803 56.1319 14.1333 55.2788 14.1333 54.2666V27.8C14.1333 26.7877 14.4803 25.9347 15.1742 25.2408C15.8681 24.5469 16.7211 24.2 17.7333 24.2H22.9333C23.1433 24.2 23.318 24.2709 23.4575 24.4128C23.5969 24.5547 23.6667 24.7325 23.6667 24.9462C23.6667 25.1598 23.5969 25.3333 23.4575 25.4666C23.318 25.6 23.1433 25.6666 22.9333 25.6666H17.7333C17.2 25.6666 16.7111 25.8888 16.2667 26.3333C15.8222 26.7777 15.6 27.2666 15.6 27.8V54.2666C15.6 54.7999 15.8222 55.2888 16.2667 55.7333C16.7111 56.1777 17.2 56.4 17.7333 56.4H46.2667C46.8 56.4 47.2889 56.1777 47.7333 55.7333C48.1778 55.2888 48.4 54.7999 48.4 54.2666V27.8C48.4 27.2666 48.1778 26.7777 47.7333 26.3333C47.2889 25.8888 46.8 25.6666 46.2667 25.6666H41.0667C40.8567 25.6666 40.682 25.5957 40.5425 25.4538C40.4031 25.3118 40.3333 25.1341 40.3333 24.9204C40.3333 24.7068 40.4031 24.5333 40.5425 24.4C40.682 24.2666 40.8567 24.2 41.0667 24.2H46.2667C47.2789 24.2 48.132 24.5469 48.8259 25.2408C49.5197 25.9347 49.8667 26.7877 49.8667 27.8V54.2666C49.8667 55.2788 49.5197 56.1319 48.8259 56.8258C48.132 57.5197 47.2789 57.8666 46.2667 57.8666H17.7333Z" fill="#9863F3"/>
</g>
</svg>
