<svg width="64" height="64" viewBox="0 0 64 64" fill="none" xmlns="http://www.w3.org/2000/svg">
<mask id="mask0_2189_5600" style="mask-type:alpha" maskUnits="userSpaceOnUse" x="0" y="0" width="64" height="64">
<rect width="64" height="64" fill="#D9D9D9"/>
</mask>
<g mask="url(#mask0_2189_5600)">
<path d="M18.6808 34.4C18.0269 34.4 17.4611 34.1658 16.9833 33.6975C16.5055 33.2292 16.2666 32.6681 16.2666 32.0141C16.2666 31.3603 16.5008 30.7945 16.9692 30.3167C17.4375 29.8389 17.9986 29.6 18.6525 29.6C19.3064 29.6 19.8722 29.8342 20.35 30.3025C20.8277 30.7709 21.0666 31.332 21.0666 31.9859C21.0666 32.6397 20.8325 33.2056 20.3641 33.6833C19.8958 34.1611 19.3347 34.4 18.6808 34.4ZM18.6666 44.5333C15.1852 44.5333 12.2259 43.3163 9.78883 40.8823C7.35181 38.4484 6.1333 35.4928 6.1333 32.0157C6.1333 28.5386 7.35181 25.5778 9.78883 23.1333C12.2259 20.6889 15.1852 19.4667 18.6666 19.4667C21.3777 19.4667 23.8111 20.2222 25.9666 21.7333C28.1222 23.2445 29.6222 25.2667 30.4666 27.8H54.7333C54.9362 27.8 55.1425 27.8445 55.3522 27.9333C55.5618 28.0222 55.7541 28.1541 55.929 28.329L58.5376 30.9377C58.7125 31.1126 58.8444 31.303 58.9333 31.5089C59.0222 31.7148 59.0666 31.9452 59.0666 32.2C59.0666 32.4548 59.0222 32.6852 58.9333 32.8911C58.8444 33.0971 58.7091 33.2969 58.5273 33.4907L53.7333 37.9333C53.614 38.1152 53.4509 38.2495 53.2438 38.3363C53.0368 38.4232 52.8222 38.4667 52.6 38.4667C52.3778 38.4667 52.1777 38.4445 52 38.4C51.8222 38.3556 51.6444 38.2667 51.4666 38.1333L48.1333 35.6667L44.2666 38.4C44.081 38.5333 43.9013 38.6111 43.7274 38.6333C43.5536 38.6556 43.3777 38.6667 43.2 38.6667C43.0222 38.6667 42.8444 38.6445 42.6666 38.6C42.4889 38.5556 42.3333 38.4889 42.2 38.4L39 36.2H30.4666C29.6666 38.6 28.2 40.5889 26.0666 42.1667C23.9333 43.7445 21.4666 44.5333 18.6666 44.5333ZM18.6666 43.0667C21.3333 43.0667 23.6333 42.2333 25.5666 40.5667C27.5 38.9 28.729 36.9556 29.2537 34.7333H39.5333L43.2666 37.3333L48.2 33.8667L52.6 37.2L57.7333 32.1333L54.8666 29.2667H29.2666C28.7777 27.0889 27.571 25.1556 25.6464 23.4667C23.7217 21.7778 21.4009 20.9333 18.684 20.9333C15.6058 20.9333 12.9889 22.0076 10.8333 24.1561C8.67775 26.3045 7.59997 28.9156 7.59997 31.9894C7.59997 35.0631 8.67523 37.6778 10.8258 39.8333C12.9763 41.9889 15.59 43.0667 18.6666 43.0667Z" fill="white"/>
</g>
</svg>
