<svg width="64" height="64" viewBox="0 0 64 64" fill="none" xmlns="http://www.w3.org/2000/svg">
<mask id="mask0_2179_4002" style="mask-type:alpha" maskUnits="userSpaceOnUse" x="0" y="0" width="64" height="64">
<rect width="64" height="64" fill="#D9D9D9"/>
</mask>
<g mask="url(#mask0_2179_4002)">
<path d="M23.8 30.0667C23.59 30.0667 23.4153 29.9958 23.2759 29.8538C23.1364 29.7119 23.0667 29.5342 23.0667 29.3205C23.0667 29.1069 23.1364 28.9334 23.2759 28.8C23.4153 28.6667 23.59 28.6 23.8 28.6H40.2C40.41 28.6 40.5847 28.671 40.7241 28.8129C40.8636 28.9548 40.9333 29.1326 40.9333 29.3462C40.9333 29.5599 40.8636 29.7334 40.7241 29.8667C40.5847 30 40.41 30.0667 40.2 30.0667H23.8ZM23.8 19.4C23.59 19.4 23.4153 19.3291 23.2759 19.1872C23.1364 19.0453 23.0667 18.8675 23.0667 18.6538C23.0667 18.4402 23.1364 18.2667 23.2759 18.1334C23.4153 18 23.59 17.9334 23.8 17.9334H40.2C40.41 17.9334 40.5847 18.0043 40.7241 18.1462C40.8636 18.2882 40.9333 18.4659 40.9333 18.6796C40.9333 18.8932 40.8636 19.0667 40.7241 19.2C40.5847 19.3334 40.41 19.4 40.2 19.4H23.8ZM15.6 39.2667H36C36.9896 39.2667 37.8926 39.4778 38.7089 39.9C39.5252 40.3223 40.2444 40.9334 40.8667 41.7334L48.4 51.5334V12.4C48.4 11.7778 48.2 11.2667 47.8 10.8667C47.4 10.4667 46.8889 10.2667 46.2667 10.2667H17.7333C17.1111 10.2667 16.6 10.4667 16.2 10.8667C15.8 11.2667 15.6 11.7778 15.6 12.4V39.2667ZM17.7333 53.7334H48.2L39.6667 42.6C39.2416 42.0275 38.7077 41.5733 38.0651 41.2373C37.4225 40.9014 36.7341 40.7334 36 40.7334H15.6V51.6C15.6 52.2223 15.8 52.7334 16.2 53.1334C16.6 53.5334 17.1111 53.7334 17.7333 53.7334ZM46.2667 55.2H17.7333C16.7211 55.2 15.8681 54.8531 15.1742 54.1592C14.4803 53.4653 14.1333 52.6123 14.1333 51.6V12.4C14.1333 11.3878 14.4803 10.5348 15.1742 9.84085C15.8681 9.14698 16.7211 8.80005 17.7333 8.80005H46.2667C47.2789 8.80005 48.132 9.14698 48.8259 9.84085C49.5197 10.5348 49.8667 11.3878 49.8667 12.4V51.6C49.8667 52.6123 49.5197 53.4653 48.8259 54.1592C48.132 54.8531 47.2789 55.2 46.2667 55.2Z" fill="#9863F3"/>
</g>
</svg>
