<svg width="64" height="64" viewBox="0 0 64 64" fill="none" xmlns="http://www.w3.org/2000/svg">
<mask id="mask0_2189_5475" style="mask-type:alpha" maskUnits="userSpaceOnUse" x="-1" y="0" width="65" height="64">
<rect x="-0.000488281" width="64" height="64" fill="#D9D9D9"/>
</mask>
<g mask="url(#mask0_2189_5475)">
<path d="M23.7995 30.0667C23.5895 30.0667 23.4148 29.9957 23.2753 29.8538C23.1359 29.7119 23.0661 29.5341 23.0661 29.3205C23.0661 29.1068 23.1359 28.9333 23.2753 28.8C23.4148 28.6667 23.5895 28.6 23.7995 28.6H40.1995C40.4095 28.6 40.5842 28.6709 40.7236 28.8129C40.8631 28.9548 40.9328 29.1325 40.9328 29.3462C40.9328 29.5598 40.8631 29.7333 40.7236 29.8667C40.5842 30 40.4095 30.0667 40.1995 30.0667H23.7995ZM23.7995 19.4C23.5895 19.4 23.4148 19.329 23.2753 19.1871C23.1359 19.0452 23.0661 18.8674 23.0661 18.6538C23.0661 18.4401 23.1359 18.2667 23.2753 18.1333C23.4148 18 23.5895 17.9333 23.7995 17.9333H40.1995C40.4095 17.9333 40.5842 18.0043 40.7236 18.1462C40.8631 18.2881 40.9328 18.4659 40.9328 18.6795C40.9328 18.8932 40.8631 19.0667 40.7236 19.2C40.5842 19.3333 40.4095 19.4 40.1995 19.4H23.7995ZM15.5995 39.2667H35.9995C36.9891 39.2667 37.892 39.4778 38.7083 39.9C39.5247 40.3222 40.2439 40.9333 40.8661 41.7333L48.3995 51.5333V12.4C48.3995 11.7778 48.1995 11.2667 47.7995 10.8667C47.3995 10.4667 46.8884 10.2667 46.2661 10.2667H17.7328C17.1106 10.2667 16.5995 10.4667 16.1995 10.8667C15.7995 11.2667 15.5995 11.7778 15.5995 12.4V39.2667ZM17.7328 53.7333H48.1995L39.6661 42.6C39.241 42.0275 38.7072 41.5732 38.0646 41.2373C37.422 40.9013 36.7336 40.7333 35.9995 40.7333H15.5995V51.6C15.5995 52.2222 15.7995 52.7333 16.1995 53.1333C16.5995 53.5333 17.1106 53.7333 17.7328 53.7333ZM46.2661 55.2H17.7328C16.7206 55.2 15.8675 54.853 15.1737 54.1591C14.4798 53.4652 14.1328 52.6122 14.1328 51.6V12.4C14.1328 11.3878 14.4798 10.5347 15.1737 9.84079C15.8675 9.14692 16.7206 8.79999 17.7328 8.79999H46.2661C47.2784 8.79999 48.1314 9.14692 48.8253 9.84079C49.5192 10.5347 49.8661 11.3878 49.8661 12.4V51.6C49.8661 52.6122 49.5192 53.4652 48.8253 54.1591C48.1314 54.853 47.2784 55.2 46.2661 55.2Z" fill="#4EAAED"/>
</g>
</svg>
