<svg width="64" height="64" viewBox="0 0 64 64" fill="none" xmlns="http://www.w3.org/2000/svg">
<mask id="mask0_2189_5463" style="mask-type:alpha" maskUnits="userSpaceOnUse" x="-1" y="0" width="65" height="64">
<rect x="-0.000488281" width="64" height="64" fill="#D9D9D9"/>
</mask>
<g mask="url(#mask0_2189_5463)">
<path d="M8.7994 46V16.9334C8.7994 15.9778 9.16051 15.1389 9.88273 14.4167C10.605 13.6945 11.4438 13.3334 12.3994 13.3334H51.5994C52.555 13.3334 53.3938 13.6945 54.1161 14.4167C54.8383 15.1389 55.1994 15.9778 55.1994 16.9334V46H59.7994C60.0072 46 60.1814 46.0718 60.3219 46.2152C60.4625 46.3587 60.5327 46.5365 60.5327 46.7486C60.5327 46.9607 60.4625 47.1334 60.3219 47.2667C60.1814 47.4 60.0072 47.4667 59.7994 47.4667H4.1994C3.99162 47.4667 3.81746 47.395 3.67693 47.2515C3.53635 47.108 3.46606 46.9303 3.46606 46.7182C3.46606 46.5061 3.53635 46.3334 3.67693 46.2C3.81746 46.0667 3.99162 46 4.1994 46H8.7994ZM27.5053 46H36.5602C36.7908 46 36.9994 45.91 37.1861 45.73C37.3727 45.55 37.4661 45.3178 37.4661 45.0334C37.4661 44.7489 37.3727 44.5167 37.1861 44.3367C36.9994 44.1567 36.7908 44.0667 36.5602 44.0667H27.5053C27.2747 44.0667 27.0661 44.1567 26.8794 44.3367C26.6927 44.5167 26.5994 44.7489 26.5994 45.0334C26.5994 45.3178 26.6927 45.55 26.8794 45.73C27.0661 45.91 27.2747 46 27.5053 46ZM10.3327 42.6H53.7994V16.9334C53.7994 16.3112 53.5994 15.8 53.1994 15.4C52.7994 15 52.2883 14.8 51.6661 14.8H12.4661C11.8883 14.8 11.3883 15 10.9661 15.4C10.5438 15.8 10.3327 16.3112 10.3327 16.9334V42.6Z" fill="#FFAF45"/>
</g>
</svg>
