<svg width="58" height="35" viewBox="0 0 58 35" fill="none" xmlns="http://www.w3.org/2000/svg">
<path d="M5.80013 33V3.93334C5.80013 2.97779 6.16124 2.1389 6.88346 1.41668C7.60569 0.694455 8.44458 0.333344 9.40013 0.333344H48.6001C49.5557 0.333344 50.3946 0.694455 51.1168 1.41668C51.839 2.1389 52.2001 2.97779 52.2001 3.93334V33H56.8001C57.0079 33 57.1821 33.0717 57.3227 33.2152C57.4632 33.3587 57.5335 33.5365 57.5335 33.7485C57.5335 33.9606 57.4632 34.1333 57.3227 34.2667C57.1821 34.4 57.0079 34.4667 56.8001 34.4667H1.20013C0.992352 34.4667 0.818197 34.3949 0.677663 34.2515C0.537086 34.108 0.466797 33.9302 0.466797 33.7181C0.466797 33.5061 0.537086 33.3333 0.677663 33.2C0.818197 33.0667 0.992352 33 1.20013 33H5.80013ZM24.506 33H33.5609C33.7915 33 34.0001 32.91 34.1868 32.73C34.3735 32.55 34.4668 32.3178 34.4668 32.0333C34.4668 31.7489 34.3735 31.5167 34.1868 31.3367C34.0001 31.1567 33.7915 31.0667 33.5609 31.0667H24.506C24.2754 31.0667 24.0668 31.1567 23.8801 31.3367C23.6935 31.5167 23.6001 31.7489 23.6001 32.0333C23.6001 32.3178 23.6935 32.55 23.8801 32.73C24.0668 32.91 24.2754 33 24.506 33ZM7.33346 29.6H50.8001V3.93334C50.8001 3.31112 50.6001 2.80001 50.2001 2.40001C49.8001 2.00001 49.289 1.80001 48.6668 1.80001H9.4668C8.88902 1.80001 8.38902 2.00001 7.9668 2.40001C7.54457 2.80001 7.33346 3.31112 7.33346 3.93334V29.6Z" fill="#263242"/>
</svg>
