<svg width="64" height="64" viewBox="0 0 64 64" fill="none" xmlns="http://www.w3.org/2000/svg">
<mask id="mask0_2189_5594" style="mask-type:alpha" maskUnits="userSpaceOnUse" x="0" y="0" width="64" height="64">
<rect width="64" height="64" fill="#D9D9D9"/>
</mask>
<g mask="url(#mask0_2189_5594)">
<path d="M17.7333 55.2C16.7666 55.2 15.925 54.8416 15.2083 54.125C14.4916 53.4083 14.1333 52.5666 14.1333 51.6V28.5333C14.1333 27.5322 14.4916 26.6819 15.2083 25.9824C15.925 25.283 16.7666 24.9333 17.7333 24.9333H22.3333V19.2666C22.3333 16.5664 23.2705 14.2802 25.1448 12.4081C27.0192 10.536 29.3081 9.59998 32.0115 9.59998C34.7149 9.59998 37 10.536 38.8666 12.4081C40.7333 14.2802 41.6666 16.5664 41.6666 19.2666V24.9333H46.2666C47.2333 24.9333 48.075 25.283 48.7916 25.9824C49.5083 26.6819 49.8666 27.5322 49.8666 28.5333V51.6C49.8666 52.5666 49.5083 53.4083 48.7916 54.125C48.075 54.8416 47.2333 55.2 46.2666 55.2H17.7333ZM17.7333 53.7333H46.2666C46.8889 53.7333 47.4 53.5333 47.8 53.1333C48.2 52.7333 48.4 52.2222 48.4 51.6V28.5333C48.4 27.9111 48.2 27.4 47.8 27C47.4 26.6 46.8889 26.4 46.2666 26.4H17.7333C17.1111 26.4 16.6 26.6 16.2 27C15.8 27.4 15.6 27.9111 15.6 28.5333V51.6C15.6 52.2222 15.8 52.7333 16.2 53.1333C16.6 53.5333 17.1111 53.7333 17.7333 53.7333ZM32.0112 43.6C32.9815 43.6 33.8111 43.2548 34.5 42.5646C35.1889 41.8743 35.5333 41.0417 35.5333 40.0666C35.5333 39.1333 35.1851 38.3111 34.4888 37.6C33.7924 36.8889 32.9591 36.5333 31.9888 36.5333C31.0185 36.5333 30.1889 36.8889 29.5 37.6C28.8111 38.3111 28.4666 39.1444 28.4666 40.1C28.4666 41.0555 28.8148 41.8778 29.5112 42.5666C30.2075 43.2555 31.0409 43.6 32.0112 43.6ZM23.8 24.9333H40.2V19.2666C40.2 16.9889 39.4039 15.0528 37.8118 13.4583C36.2196 11.8639 34.2862 11.0666 32.0117 11.0666C29.7372 11.0666 27.8 11.8639 26.2 13.4583C24.6 15.0528 23.8 16.9889 23.8 19.2666V24.9333Z" fill="white"/>
</g>
</svg>
