<svg width="107" height="24" viewBox="0 0 107 24" fill="none" xmlns="http://www.w3.org/2000/svg">
<path fill-rule="evenodd" clip-rule="evenodd" d="M23.7532 23.9983L17.7912 23.9835L17.0482 22.8483C15.4724 23.6156 13.7545 23.9983 11.8766 23.9983C8.5976 23.9983 5.79379 22.8285 3.47333 20.4856C1.15451 18.1411 0 15.3147 0 12.0017C0 8.68363 1.15451 5.85728 3.47333 3.51932C5.79542 1.17476 8.5976 0.00164998 11.8766 0.00164998C15.154 0.00164998 17.9513 1.17311 20.2701 3.51932C22.5856 5.85728 23.7532 8.68528 23.7532 12.0017C23.7532 14.9715 22.8159 17.5553 20.9478 19.7498L23.7532 23.9983ZM11.8766 5.14451C9.99871 5.14451 8.39513 5.81108 7.07405 7.14918C5.74645 8.48563 5.08673 10.1042 5.08673 12.0016C5.08673 13.8991 5.74645 15.5127 7.07405 16.8492C8.39513 18.1889 9.99871 18.8555 11.8766 18.8555C12.6882 18.8555 13.4541 18.7301 14.1644 18.476L11.0242 13.6978H16.9633L17.9301 15.1547C18.4199 14.206 18.6584 13.155 18.6584 12C18.6584 10.1026 17.9986 8.48398 16.6776 7.14753C15.35 5.81108 13.7529 5.14451 11.8766 5.14451ZM79.3739 16.7139C79.3739 18.7251 78.6717 20.4411 77.2641 21.8633C75.8565 23.2856 74.1533 23.9983 72.1627 23.9983H57.319V18.8555H72.1611C72.7522 18.8555 73.2519 18.6443 73.6667 18.2302C74.0717 17.816 74.2839 17.3079 74.2839 16.7139C74.2839 16.1232 74.0717 15.615 73.6667 15.1959C73.2519 14.7801 72.7522 14.5706 72.1611 14.5706H57.319V9.4294H72.1611C72.7522 9.4294 73.2519 9.2215 73.6667 8.80407C74.0717 8.38664 74.2839 7.8801 74.2839 7.28613C74.2839 6.69215 74.0717 6.18562 73.6667 5.76818C73.2519 5.35075 72.7522 5.14286 72.1611 5.14286H57.319V0H72.1611C74.1517 0 75.8532 0.712774 77.2625 2.13337C78.6701 3.55727 79.3723 5.27485 79.3723 7.28448C79.3723 9.08786 78.8056 10.6636 77.6642 11.9984C78.8056 13.3364 79.3739 14.9088 79.3739 16.7139ZM106.378 5.14451H91.5347C90.9517 5.14451 90.4455 5.3524 90.0356 5.76983C89.6208 6.18727 89.4118 6.69215 89.4118 7.28778C89.4118 7.88175 89.6208 8.38829 90.0356 8.80572C90.4455 9.22315 90.9501 9.43105 91.5347 9.43105H99.1688C101.159 9.43105 102.858 10.1422 104.267 11.5661C105.675 12.9883 106.378 14.7042 106.378 16.7155C106.378 18.7268 105.676 20.4427 104.267 21.865C102.858 23.2872 101.159 24 99.1688 24H84.3235V18.8571H99.1688C99.7583 18.8571 100.26 18.6459 100.674 18.2318C101.081 17.8177 101.29 17.3095 101.29 16.7155C101.29 16.1248 101.081 15.6167 100.674 15.1976C100.258 14.7818 99.7567 14.5723 99.1688 14.5723H91.5347C89.5424 14.5723 87.8441 13.8611 86.4382 12.4389C85.0305 11.0166 84.3251 9.2974 84.3251 7.28778C84.3251 5.27815 85.0305 3.55892 86.4382 2.13667C87.8458 0.714423 89.5441 0.00329995 91.5347 0.00329995H106.378V5.14451ZM52.4021 12.8563C52.4021 15.9318 51.2362 18.5569 48.9173 20.7315C46.6034 22.911 43.8012 23.9983 40.5239 23.9983C37.2449 23.9983 34.4443 22.911 32.1206 20.7315C29.8018 18.5569 28.6473 15.9318 28.6473 12.8563V0H33.7356V12.8547C33.7356 14.5096 34.3969 15.9269 35.7213 17.0983C37.044 18.2698 38.6459 18.8538 40.5239 18.8538C42.4001 18.8538 43.9988 18.2698 45.3281 17.0983C46.6442 15.9269 47.3072 14.5096 47.3072 12.8547V0H52.4005V6.42816V12.8563H52.4021Z" fill="#212429"/>
</svg>
