<svg width="64" height="64" viewBox="0 0 64 64" fill="none" xmlns="http://www.w3.org/2000/svg">
<mask id="mask0_2189_5481" style="mask-type:alpha" maskUnits="userSpaceOnUse" x="-1" y="0" width="65" height="64">
<rect x="-0.000488281" width="64" height="64" fill="#D9D9D9"/>
</mask>
<g mask="url(#mask0_2189_5481)">
<path d="M12.3996 49.8667C11.3873 49.8667 10.5343 49.5197 9.84043 48.8258C9.14652 48.1319 8.79956 47.2789 8.79956 46.2667V17.7333C8.79956 16.7211 9.14652 15.868 9.84043 15.1741C10.5343 14.4803 11.3873 14.1333 12.3996 14.1333H51.5996C52.6118 14.1333 53.4648 14.4803 54.1588 15.1741C54.8526 15.868 55.1996 16.7211 55.1996 17.7333V46.2667C55.1996 47.2789 54.8526 48.1319 54.1588 48.8258C53.4648 49.5197 52.6118 49.8667 51.5996 49.8667H12.3996ZM53.7329 16.5333L33.0662 30.4667C32.8884 30.5556 32.7107 30.6333 32.5329 30.7C32.3551 30.7667 32.1773 30.8 31.9996 30.8C31.8218 30.8 31.644 30.7667 31.4662 30.7C31.2884 30.6333 31.1329 30.5556 30.9996 30.4667L10.2662 16.5333V46.2667C10.2662 46.8889 10.4662 47.4 10.8662 47.8C11.2662 48.2 11.7773 48.4 12.3996 48.4H51.5996C52.2218 48.4 52.7329 48.2 53.1329 47.8C53.5329 47.4 53.7329 46.8889 53.7329 46.2667V16.5333ZM31.9996 29.2667L52.5996 15.6H11.4662L31.9996 29.2667ZM10.2662 17.0667V15.8155V15.9106V15.6V15.8667V15.7392V17.0667Z" fill="#F44040"/>
</g>
</svg>
