<svg width="64" height="64" viewBox="0 0 64 64" fill="none" xmlns="http://www.w3.org/2000/svg">
<mask id="mask0_2219_6781" style="mask-type:alpha" maskUnits="userSpaceOnUse" x="0" y="0" width="64" height="64">
<rect width="64" height="64" fill="#D9D9D9"/>
</mask>
<g mask="url(#mask0_2219_6781)">
<path d="M12.3998 49.8666C11.3876 49.8666 10.5345 49.5197 9.84067 48.8258C9.14676 48.1319 8.7998 47.2789 8.7998 46.2666V17.7333C8.7998 16.7211 9.14676 15.868 9.84067 15.1741C10.5345 14.4802 11.3876 14.1333 12.3998 14.1333H51.5998C52.612 14.1333 53.4651 14.4802 54.159 15.1741C54.8529 15.868 55.1998 16.7211 55.1998 17.7333V46.2666C55.1998 47.2789 54.8529 48.1319 54.159 48.8258C53.4651 49.5197 52.612 49.8666 51.5998 49.8666H12.3998ZM53.7331 16.5333L33.0665 30.4666C32.8887 30.5555 32.7109 30.6333 32.5331 30.7C32.3554 30.7666 32.1776 30.8 31.9998 30.8C31.822 30.8 31.6442 30.7666 31.4665 30.7C31.2887 30.6333 31.1331 30.5555 30.9998 30.4666L10.2665 16.5333V46.2666C10.2665 46.8889 10.4665 47.4 10.8665 47.8C11.2665 48.2 11.7776 48.4 12.3998 48.4H51.5998C52.222 48.4 52.7331 48.2 53.1331 47.8C53.5331 47.4 53.7331 46.8889 53.7331 46.2666V16.5333ZM31.9998 29.2666L52.5998 15.6H11.4665L31.9998 29.2666ZM10.2665 17.0666V15.8154V15.9106V15.6V15.8666V15.7392V17.0666Z" fill="#3FB8A6"/>
</g>
</svg>
