<svg width="24" height="16" viewBox="0 0 24 16" fill="none" xmlns="http://www.w3.org/2000/svg">
<path d="M0.769178 2.43583C0.609334 2.43583 0.475356 2.38128 0.367245 2.27217C0.259134 2.16308 0.205078 2.0279 0.205078 1.86663C0.205078 1.70534 0.259134 1.57186 0.367245 1.46617C0.475356 1.36048 0.609334 1.30763 0.769178 1.30763H5.48711C5.64696 1.30763 5.78093 1.36218 5.88905 1.47127C5.99716 1.58036 6.05121 1.71554 6.05121 1.87683C6.05121 2.0381 5.99716 2.17158 5.88905 2.27727C5.78093 2.38298 5.64696 2.43583 5.48711 2.43583H0.769178ZM0.769178 8.89737C0.609334 8.89737 0.475356 8.84282 0.367245 8.73373C0.259134 8.62462 0.205078 8.48943 0.205078 8.32817C0.205078 8.1669 0.259134 8.03341 0.367245 7.9277C0.475356 7.82201 0.609334 7.76917 0.769178 7.76917H5.48711C5.64696 7.76917 5.78093 7.82371 5.88905 7.9328C5.99716 8.04191 6.05121 8.1771 6.05121 8.33837C6.05121 8.49963 5.99716 8.63312 5.88905 8.73883C5.78093 8.84452 5.64696 8.89737 5.48711 8.89737H0.769178ZM22.5897 15.0085L17.8444 10.2632C17.3726 10.6455 16.8531 10.9408 16.2858 11.1491C15.7186 11.3573 15.1276 11.4615 14.5128 11.4615C13.0273 11.4615 11.767 10.9439 10.732 9.9089C9.69693 8.87385 9.17941 7.6136 9.17941 6.12813C9.17941 4.64267 9.69693 3.38241 10.732 2.34737C11.767 1.31232 13.0273 0.7948 14.5128 0.7948C15.9982 0.7948 17.2585 1.31232 18.2935 2.34737C19.3286 3.38241 19.8461 4.64267 19.8461 6.12813C19.8461 6.74296 19.742 7.33398 19.5337 7.9012C19.3254 8.46845 19.0301 8.98797 18.6478 9.45977L23.3931 14.2051C23.4997 14.3116 23.5572 14.4413 23.5658 14.594C23.5743 14.7467 23.5168 14.8849 23.3931 15.0085C23.2695 15.1321 23.1356 15.194 22.9914 15.194C22.8473 15.194 22.7134 15.1321 22.5897 15.0085ZM14.5055 10.3333C15.6716 10.3333 16.6652 9.92514 17.4863 9.1089C18.3074 8.29263 18.7179 7.30146 18.7179 6.13537C18.7179 4.9693 18.3098 3.97572 17.4935 3.15463C16.6773 2.33354 15.6861 1.923 14.52 1.923C13.3539 1.923 12.3603 2.33113 11.5392 3.1474C10.7182 3.96364 10.3076 4.95481 10.3076 6.1209C10.3076 7.28699 10.7158 8.28057 11.532 9.10163C12.3483 9.92272 13.3394 10.3333 14.5055 10.3333ZM0.769178 15.3589C0.609334 15.3589 0.475356 15.3044 0.367245 15.1953C0.259134 15.0862 0.205078 14.951 0.205078 14.7897C0.205078 14.6284 0.259134 14.495 0.367245 14.3893C0.475356 14.2836 0.609334 14.2307 0.769178 14.2307H12.1538C12.3136 14.2307 12.4476 14.2853 12.5557 14.3944C12.6638 14.5035 12.7179 14.6386 12.7179 14.7999C12.7179 14.9612 12.6638 15.0947 12.5557 15.2004C12.4476 15.3061 12.3136 15.3589 12.1538 15.3589H0.769178Z" fill="#1C1B1F"/>
</svg>
