<svg width="100" height="100" viewBox="0 0 100 100" fill="none" xmlns="http://www.w3.org/2000/svg">
<mask id="mask0_2068_4024" style="mask-type:alpha" maskUnits="userSpaceOnUse" x="0" y="0" width="100" height="100">
<rect width="100" height="100" fill="#D9D9D9"/>
</mask>
<g mask="url(#mask0_2068_4024)">
<path d="M15.7292 35.4167C15.4045 35.4167 15.1324 35.3047 14.9128 35.0805C14.6932 34.8563 14.5833 34.5786 14.5833 34.2472C14.5833 33.9158 14.6932 33.6459 14.9128 33.4376C15.1324 33.2292 15.4045 33.1251 15.7292 33.1251H30.9375C31.2622 33.1251 31.5343 33.2372 31.754 33.4613C31.9736 33.6855 32.0833 33.9633 32.0833 34.2947C32.0833 34.6261 31.9736 34.8959 31.754 35.1042C31.5343 35.3126 31.2622 35.4167 30.9375 35.4167H15.7292ZM15.7292 55.3126C15.4045 55.3126 15.1324 55.2005 14.9128 54.9763C14.6932 54.7522 14.5833 54.4744 14.5833 54.143C14.5833 53.8116 14.6932 53.5417 14.9128 53.3334C15.1324 53.1251 15.4045 53.0209 15.7292 53.0209H30.9375C31.2622 53.0209 31.5343 53.133 31.754 53.3572C31.9736 53.5813 32.0833 53.8591 32.0833 54.1905C32.0833 54.5219 31.9736 54.7917 31.754 55.0001C31.5343 55.2084 31.2622 55.3126 30.9375 55.3126H15.7292ZM82.9167 74.5834L67.7083 59.3751C66.3195 60.5556 64.7743 61.4758 63.0729 62.1355C61.3715 62.7952 59.5833 63.1251 57.7083 63.1251C53.4028 63.1251 49.757 61.632 46.7708 58.6459C43.7847 55.6598 42.2917 52.014 42.2917 47.7084C42.2917 43.4029 43.7847 39.757 46.7708 36.7709C49.757 33.7848 53.4028 32.2917 57.7083 32.2917C62.0139 32.2917 65.6597 33.7848 68.6458 36.7709C71.632 39.757 73.125 43.4029 73.125 47.7084C73.125 49.5834 72.7951 51.3716 72.1354 53.073C71.4757 54.7744 70.5556 56.3195 69.375 57.7084L84.5833 72.9167C84.7917 73.1251 84.9132 73.3855 84.9479 73.698C84.9827 74.0105 84.8611 74.3056 84.5833 74.5834C84.3056 74.8612 84.0278 75.0001 83.75 75.0001C83.4722 75.0001 83.1945 74.8612 82.9167 74.5834ZM57.6716 60.8334C61.3072 60.8334 64.4097 59.5609 66.9792 57.016C69.5486 54.4711 70.8333 51.3808 70.8333 47.7452C70.8333 44.1096 69.5609 41.007 67.0159 38.4376C64.471 35.8681 61.3807 34.5834 57.7451 34.5834C54.1095 34.5834 51.007 35.8559 48.4375 38.4008C45.8681 40.9457 44.5833 44.036 44.5833 47.6716C44.5833 51.3073 45.8558 54.4098 48.4007 56.9792C50.9457 59.5487 54.0359 60.8334 57.6716 60.8334ZM15.7292 75.2084C15.4045 75.2084 15.1324 75.0963 14.9128 74.8722C14.6932 74.648 14.5833 74.3702 14.5833 74.0388C14.5833 73.7074 14.6932 73.4376 14.9128 73.2292C15.1324 73.0209 15.4045 72.9167 15.7292 72.9167H51.7708C52.0955 72.9167 52.3676 73.0288 52.5873 73.253C52.8069 73.4772 52.9167 73.7549 52.9167 74.0863C52.9167 74.4177 52.8069 74.6876 52.5873 74.8959C52.3676 75.1042 52.0955 75.2084 51.7708 75.2084H15.7292Z" fill="white"/>
</g>
</svg>
