<svg width="49" height="41" viewBox="0 0 49 41" fill="none" xmlns="http://www.w3.org/2000/svg">
<path d="M4.40029 40.8667C3.38807 40.8667 2.53503 40.5197 1.84116 39.8258C1.14725 39.1319 0.800293 38.2789 0.800293 37.2667V8.73332C0.800293 7.7211 1.14725 6.86803 1.84116 6.17412C2.53503 5.48025 3.38807 5.13332 4.40029 5.13332H31.4003C31.3559 5.35554 31.3225 5.58887 31.3003 5.83332C31.2781 6.07776 31.2447 6.33332 31.2003 6.59999H2.26696V37.2667C2.26696 37.8889 2.46696 38.4 2.86696 38.8C3.26696 39.2 3.77807 39.4 4.40029 39.4H43.6003C44.2225 39.4 44.7336 39.2 45.1336 38.8C45.5336 38.4 45.7336 37.8889 45.7336 37.2667V17.9333C46.0081 17.8444 46.2544 17.7555 46.4728 17.6667C46.6911 17.5778 46.9336 17.4889 47.2003 17.4V37.2667C47.2003 38.2789 46.8534 39.1319 46.1595 39.8258C45.4656 40.5197 44.6125 40.8667 43.6003 40.8667H4.40029ZM42.6552 13.0667C40.9741 13.0667 39.5447 12.4738 38.367 11.2882C37.1892 10.1026 36.6003 8.66925 36.6003 6.98819C36.6003 5.30716 37.1931 3.87776 38.3788 2.69999C39.5644 1.52221 40.9977 0.933319 42.6788 0.933319C44.3598 0.933319 45.7892 1.52614 46.967 2.71179C48.1447 3.89739 48.7336 5.33072 48.7336 7.01179C48.7336 8.69281 48.1408 10.1222 46.9552 11.3C45.7696 12.4778 44.3362 13.0667 42.6552 13.0667ZM24.0003 20.2667L33.6003 13.8667C33.7336 14.0444 33.8643 14.2474 33.9924 14.4757C34.1206 14.7038 34.2565 14.9231 34.4003 15.1333L25.0003 21.4667C24.7114 21.6889 24.3836 21.8 24.017 21.8C23.6503 21.8 23.3336 21.7111 23.067 21.5333L2.26696 8.39999V6.59999L24.0003 20.2667Z" fill="#263242"/>
</svg>
