<svg width="129" height="64" viewBox="0 0 129 64" fill="none" xmlns="http://www.w3.org/2000/svg">
<rect x="0.379395" width="128.252" height="64" rx="16" fill="white"/>
<path d="M72.6954 31.2355H71.0283V27.8718L69.5388 30.1702V30.1801H68.6115V30.1702L67.1122 27.8521L67.122 31.2355H65.4549V24.5303H66.688L69.0751 28.111L71.4525 24.5303H72.6954V31.2355Z" fill="#B0B5BD"/>
<path d="M75.5428 27.2035H78.5121V28.624H75.5428V29.7879H78.946V31.238H73.8758V24.5303H78.946V25.9803H75.5428V27.2035Z" fill="#B0B5BD"/>
<path d="M82.5965 24.5303C84.6974 24.5303 86.2169 25.9014 86.2169 27.8644C86.2169 29.857 84.6974 31.238 82.5965 31.238H79.8939V24.5303H82.5965ZM82.5965 29.7362C83.6816 29.7362 84.5201 28.9273 84.5201 27.862C84.5201 26.8262 83.6816 26.0272 82.5965 26.0272H81.5609V29.7362H82.5965Z" fill="#B0B5BD"/>
<path d="M67.122 38.1702V40.1135H65.4549V33.4082H68.3945C70.0517 33.4082 71.1664 34.3157 71.1664 35.7658C71.1664 36.7029 70.683 37.4427 69.884 37.8472L71.6103 40.116H69.5979L68.1578 38.1727H67.122V38.1702ZM68.355 36.6733C68.9962 36.6733 69.5092 36.3182 69.5092 35.7658C69.5092 35.2232 68.9962 34.878 68.355 34.878H67.122V36.6733H68.355Z" fill="#B0B5BD"/>
<path d="M73.8966 36.0814H76.8659V37.5019H73.8966V38.6659H77.2998V40.116H72.2295V33.4082H77.2998V34.8583H73.8966V36.0814Z" fill="#B0B5BD"/>
<path d="M80.9484 33.4082C82.6942 33.4082 83.7894 34.3552 83.7894 35.8644C83.7894 37.4328 82.6452 38.4094 80.8104 38.4094H79.9128V40.116H78.2458V33.4082H80.9484ZM80.909 36.9471C81.6485 36.9471 82.1223 36.5229 82.1223 35.8619C82.1223 35.2602 81.6485 34.8755 80.909 34.8755H79.9128V36.9471H80.909Z" fill="#B0B5BD"/>
<path d="M91.5243 36.7598C91.5243 38.713 89.9956 40.2518 87.9634 40.2518C85.9412 40.2518 84.4122 38.713 84.4122 36.7598C84.4122 34.8067 85.9412 33.2679 87.9634 33.2679C89.9956 33.2703 91.5243 34.8092 91.5243 36.7598ZM89.8279 36.7598C89.8279 35.7044 89.0485 34.8166 87.9634 34.8166C86.8783 34.8166 86.0989 35.7044 86.0989 36.7598C86.0989 37.8154 86.8783 38.7031 87.9634 38.7031C89.0485 38.7031 89.8279 37.8154 89.8279 36.7598Z" fill="#B0B5BD"/>
<path d="M94.2039 38.1702V40.1135H92.5364V33.4082H95.4764C97.1333 33.4082 98.2482 34.3157 98.2482 35.7658C98.2482 36.7029 97.7648 37.4427 96.9656 37.8472L98.6922 40.116H96.6797L95.2395 38.1727H94.2039V38.1702ZM95.437 36.6733C96.078 36.6733 96.5908 36.3182 96.5908 35.7658C96.5908 35.2232 96.078 34.878 95.437 34.878H94.2039V36.6733H95.437Z" fill="#B0B5BD"/>
<path d="M102.501 34.8977V40.116H100.834V34.8977H98.6934V33.4082H104.632V34.8977H102.501Z" fill="#B0B5BD"/>
<path d="M69.4005 45.6176C69.8148 45.3216 70.0712 44.8679 70.0712 44.2267C70.0712 43.0232 69.1341 42.1946 67.7235 42.1946C66.3129 42.1946 65.4054 43.0331 65.3265 44.3056H66.8752C66.9245 43.8321 67.2796 43.5263 67.7729 43.5263C68.266 43.5263 68.5916 43.8222 68.5916 44.2859C68.5916 44.7396 68.2266 45.0553 67.7038 45.0553H67.1218V46.2785H67.7038C68.2759 46.2785 68.7001 46.5744 68.7001 47.0479C68.7001 47.4819 68.3253 47.7976 67.7827 47.7976C67.0922 47.7976 66.8456 47.4918 66.7371 47.0282H65.1884C65.3363 48.3006 66.1452 49.1392 67.7137 49.1392C69.2328 49.1392 70.2488 48.2711 70.2488 47.0479C70.2488 46.3673 69.9134 45.9061 69.4005 45.6176Z" fill="#B0B5BD"/>
<path d="M73.8561 44.2886L75.1286 42.2861H73.2544L71.5083 45.058C71.1532 45.6203 70.9362 46.1332 70.9362 46.6856C70.9362 48.037 72.0213 49.1418 73.6389 49.1418C75.2468 49.1418 76.3516 48.0567 76.3516 46.656C76.3516 45.3712 75.3458 44.3774 73.8561 44.2886ZM73.6413 47.8077C72.9608 47.8077 72.4875 47.275 72.4875 46.7226C72.4875 46.476 72.5759 46.259 72.8128 45.9236L72.8522 45.8545C73.0593 45.7066 73.3457 45.6277 73.6413 45.6277C74.3222 45.6277 74.7859 46.1505 74.7859 46.7127C74.7859 47.275 74.3222 47.8077 73.6413 47.8077Z" fill="#B0B5BD"/>
<path d="M80.2687 42.1383C78.335 42.1383 77.1514 43.6081 77.1514 45.6402C77.1514 47.6722 78.335 49.142 80.2687 49.142C82.2019 49.142 83.3759 47.6722 83.3759 45.6402C83.3759 43.6081 82.2019 42.1383 80.2687 42.1383ZM80.2586 47.6894C79.2523 47.6894 78.7295 46.8017 78.7295 45.6377C78.7295 44.4737 79.2523 43.5859 80.2586 43.5859C81.2548 43.5859 81.7776 44.4737 81.7776 45.6377C81.7776 46.8017 81.2548 47.6894 80.2586 47.6894Z" fill="#B0B5BD"/>
<path d="M53.4268 40.4316C53.6019 40.402 53.777 40.37 53.9521 40.3355C54.0656 40.3132 54.179 40.291 54.2899 40.2664C54.4675 40.2294 54.6426 40.185 54.8202 40.1431C54.9287 40.1159 55.0372 40.0913 55.1432 40.0642C55.3257 40.0148 55.5057 39.9631 55.6858 39.9088C55.7844 39.8792 55.883 39.8521 55.9817 39.8225C56.179 39.7608 56.3738 39.6918 56.5686 39.6252C56.6476 39.598 56.7289 39.5709 56.8078 39.5438C57.3553 39.3441 57.8929 39.1172 58.4231 38.8656C58.502 38.8286 58.5785 38.7867 58.6574 38.7473C58.8202 38.6683 58.9805 38.587 59.1408 38.5031C59.1432 38.3552 59.1408 38.2097 59.1383 38.0617C59.1358 37.9187 59.1383 37.7756 59.1334 37.6326C59.1284 37.4625 59.1161 37.2923 59.1038 37.1221C59.0964 36.984 59.089 36.8459 59.0791 36.7078C59.0643 36.5352 59.0446 36.3675 59.0249 36.1949C59.0101 36.0617 58.9977 35.9261 58.9805 35.7929C58.9583 35.6203 58.9287 35.4501 58.8991 35.2799C58.8769 35.1517 58.8596 35.021 58.835 34.8928C58.8029 34.7202 58.7635 34.55 58.7264 34.3774C58.6993 34.2541 58.6746 34.1308 58.6475 34.0075C58.6056 33.8348 58.5587 33.6622 58.5119 33.492C58.4798 33.3737 58.4502 33.2553 58.4157 33.1369C58.3664 32.9643 58.3097 32.7941 58.253 32.6215C58.216 32.5081 58.1815 32.3946 58.1445 32.2812C58.0853 32.1086 58.0187 31.9384 57.9545 31.7683C57.9126 31.6597 57.8756 31.5512 57.8337 31.4427C57.7647 31.2726 57.6907 31.1024 57.6167 30.9347C57.5723 30.8311 57.5304 30.7276 57.4836 30.624C57.4071 30.4538 57.3232 30.2886 57.2394 30.1209C57.1901 30.0223 57.1457 29.9236 57.0964 29.8274C57.0101 29.6598 56.9163 29.4945 56.8251 29.3317C56.7733 29.238 56.724 29.1443 56.6698 29.0506C56.576 28.8854 56.4749 28.7251 56.3738 28.5648C56.3195 28.476 56.2653 28.3848 56.2086 28.296C56.105 28.1357 55.9965 27.9779 55.888 27.82C55.8288 27.7362 55.7745 27.6474 55.7153 27.5636C55.6044 27.4057 55.486 27.2528 55.3677 27.0975C55.306 27.0161 55.2493 26.9347 55.1852 26.8558C55.0643 26.7029 54.941 26.5549 54.8152 26.4045C54.7511 26.3281 54.6895 26.2492 54.6254 26.1727C54.4971 26.0247 54.3664 25.8817 54.2332 25.7387C54.1667 25.6647 54.1001 25.5907 54.0335 25.5167C53.9003 25.3762 53.7598 25.238 53.6216 25.0999C53.5526 25.0309 53.4835 24.9594 53.412 24.8903C53.2715 24.7547 53.126 24.6265 52.9829 24.4957C52.9089 24.4292 52.8374 24.3601 52.7634 24.2935C52.618 24.1653 52.4675 24.0445 52.3171 23.9212C52.2406 23.857 52.1642 23.7904 52.0853 23.7288C51.9348 23.608 51.777 23.4945 51.6217 23.3786C51.5403 23.317 51.4613 23.2553 51.38 23.1961C51.2221 23.0827 51.0619 22.9766 50.9016 22.8681C50.8177 22.8114 50.7338 22.7522 50.65 22.6955C50.4873 22.5895 50.322 22.4908 50.1568 22.3897C50.0705 22.3354 49.9842 22.2812 49.8954 22.2294C49.7302 22.1332 49.56 22.042 49.3898 21.9508C49.2986 21.9014 49.2098 21.8472 49.1161 21.8003C48.9484 21.7115 48.7783 21.6326 48.6081 21.5488C48.5119 21.5019 48.4157 21.4501 48.3171 21.4057C48.147 21.3268 47.9718 21.2553 47.7992 21.1813C47.6981 21.1394 47.5995 21.0926 47.4959 21.0506C47.3233 20.9791 47.1457 20.9174 46.9681 20.8509C46.8621 20.8114 46.761 20.7695 46.655 20.7325C46.4798 20.6709 46.2998 20.6166 46.1223 20.5599C46.0138 20.5254 45.9053 20.4884 45.7967 20.4563C45.6192 20.4045 45.4367 20.3577 45.2567 20.3108C45.1432 20.2812 45.0323 20.2491 44.9213 20.2195C44.7413 20.1752 44.5588 20.1406 44.3787 20.1012C44.2628 20.0765 44.1469 20.0494 44.0286 20.0247C43.8436 19.9902 43.6562 19.9631 43.4688 19.9335C43.3529 19.9162 43.237 19.8916 43.1211 19.8768C42.9213 19.8497 42.7191 19.8299 42.5193 19.8102C42.4133 19.7979 42.3073 19.7831 42.1987 19.7732C41.8905 19.7461 41.5773 19.7264 41.2641 19.7165C41.0569 19.7091 40.8498 19.7066 40.6451 19.7042C40.5785 19.7042 40.5144 19.7042 40.4478 19.7066C40.3097 19.7066 40.1691 19.7091 40.031 19.714C39.9497 19.7165 39.8683 19.719 39.7869 19.7239C39.6661 19.7288 39.5428 19.7362 39.4219 19.7436C39.3356 19.7485 39.2468 19.7535 39.1605 19.7609C39.1432 19.7633 39.1285 19.7633 39.1112 19.7658C39.1309 19.7658 39.1531 19.7683 39.1728 19.7683C45.2 19.9853 50.29 23.6992 52.5662 28.8854C52.7634 29.3367 52.941 29.7979 53.0939 30.2713C53.2468 30.7423 53.38 31.2257 53.486 31.714C53.7548 32.9396 53.8757 34.2171 53.8288 35.529C53.8214 35.7534 53.8066 35.9778 53.7894 36.2023C53.7844 36.2787 53.7746 36.3552 53.7672 36.4316C53.7523 36.5771 53.74 36.7251 53.7203 36.8706C53.7104 36.9594 53.6956 37.0481 53.6833 37.1369C53.6636 37.2701 53.6463 37.4008 53.6241 37.5315C53.6093 37.6252 53.5896 37.7189 53.5723 37.8102C53.5477 37.9359 53.5255 38.0617 53.4983 38.1875C53.4786 38.2812 53.4564 38.3749 53.4342 38.4686C53.4046 38.5919 53.375 38.7152 53.343 38.836C53.3183 38.9298 53.2912 39.0235 53.2665 39.1172C53.232 39.238 53.1975 39.3589 53.1605 39.4797C53.1309 39.5734 53.1013 39.6647 53.0717 39.7559C53.0323 39.8767 52.9903 39.9976 52.9484 40.1159C52.9163 40.2072 52.8843 40.296 52.8498 40.3872C52.8325 40.4316 52.8177 40.476 52.8004 40.5204C52.8941 40.5081 52.9878 40.4957 53.0816 40.4834C53.1926 40.4686 53.3085 40.4514 53.4268 40.4316Z" fill="#B0B5BD"/>
<path d="M46.2397 40.2734C46.4049 40.3079 46.5677 40.34 46.7329 40.372C46.8512 40.3942 46.9721 40.4164 47.0905 40.4362C47.2656 40.4657 47.4382 40.4904 47.6133 40.5151C47.7243 40.5299 47.8352 40.5471 47.9487 40.5594C48.1385 40.5816 48.3285 40.5989 48.5183 40.6162C48.617 40.626 48.7156 40.6359 48.8143 40.6433C49.0338 40.6606 49.2532 40.6704 49.4727 40.6778C49.5418 40.6803 49.6133 40.6852 49.6823 40.6877C50.2668 40.7049 50.8513 40.6951 51.4382 40.6581C51.5294 40.6532 51.6231 40.6433 51.7144 40.6359C51.887 40.6236 52.0597 40.6088 52.2298 40.5915C52.2668 40.5027 52.3013 40.414 52.3358 40.3227C52.3728 40.229 52.4098 40.1377 52.4443 40.044C52.4863 39.9306 52.5232 39.8172 52.5627 39.7037C52.5948 39.6076 52.6293 39.5138 52.6589 39.4176C52.6959 39.3042 52.728 39.1883 52.76 39.0724C52.7871 38.9762 52.8167 38.8801 52.8439 38.7838C52.8759 38.6655 52.903 38.5446 52.9326 38.4263C52.9548 38.3326 52.9795 38.2364 53.0017 38.1427C53.0288 38.0194 53.051 37.8936 53.0757 37.7678C53.0929 37.6766 53.1126 37.5854 53.1274 37.4941C53.1496 37.3609 53.1694 37.2253 53.1891 37.0897C53.2014 37.0058 53.2162 36.922 53.2261 36.8381C53.2458 36.6877 53.2581 36.5348 53.2729 36.3819C53.2803 36.3128 53.2877 36.2463 53.2951 36.1772C53.3124 35.9552 53.3272 35.7333 53.3346 35.5089C53.3445 35.2549 53.347 35.0033 53.342 34.7543C53.342 34.6852 53.3346 34.6162 53.3346 34.5471C53.3297 34.3671 53.3248 34.1846 53.3124 34.0071C53.3075 33.9232 53.2976 33.8418 53.2902 33.758C53.2779 33.5952 53.2655 33.43 53.2458 33.2697C53.2335 33.1735 53.2187 33.0798 53.2064 32.9836C53.1866 32.8357 53.1669 32.6877 53.1447 32.5422C53.1274 32.446 53.1077 32.3498 53.088 32.2536C53.0609 32.1106 53.0362 31.9676 53.0041 31.827C52.9844 31.7308 52.9573 31.6371 52.9351 31.5434C52.9006 31.4029 52.8685 31.2623 52.8315 31.1242C52.8044 31.028 52.7748 30.9343 52.7477 30.8406C52.7082 30.705 52.6688 30.5693 52.6269 30.4337C52.5948 30.3375 52.5602 30.2438 52.5257 30.1476C52.4813 30.0169 52.4369 29.8862 52.3876 29.7555C52.3506 29.6618 52.3112 29.5681 52.2742 29.4768C52.2224 29.3486 52.1731 29.2204 52.1188 29.0946C52.0794 29.0009 52.0325 28.9121 51.9906 28.8208C51.9339 28.6975 51.8771 28.5718 51.8179 28.4485C51.7736 28.3597 51.7242 28.2734 51.6799 28.1846C51.6157 28.0613 51.5541 27.938 51.4875 27.8196C51.4407 27.7333 51.3864 27.6495 51.3371 27.5656C51.268 27.4473 51.199 27.3264 51.1274 27.2105C51.0757 27.1267 51.0189 27.0428 50.9622 26.959C50.8882 26.8455 50.8143 26.7296 50.7378 26.6186C50.6811 26.5373 50.6195 26.4559 50.5627 26.377C50.4838 26.266 50.4049 26.155 50.3235 26.049C50.2619 25.9676 50.1977 25.8911 50.1336 25.8122C50.0498 25.7062 49.9684 25.6002 49.8821 25.4991C49.8155 25.4201 49.7465 25.3462 49.6798 25.2697C49.5911 25.1686 49.5048 25.0675 49.4135 24.9713C49.3445 24.8973 49.273 24.8258 49.2015 24.7543C49.1078 24.6581 49.0165 24.5594 48.9203 24.4657C48.8488 24.3942 48.7723 24.3276 48.6984 24.2561C48.5997 24.1649 48.506 24.0712 48.4049 23.9824C48.3285 23.9134 48.2495 23.8492 48.1706 23.7826C48.0695 23.6963 47.9709 23.6076 47.8673 23.5262C47.7859 23.4621 47.7045 23.4004 47.6207 23.3363C47.5171 23.2549 47.4135 23.1735 47.305 23.0946C47.2212 23.0329 47.1349 22.9762 47.0486 22.9146C46.9401 22.8381 46.834 22.7617 46.723 22.6877C46.6367 22.631 46.5455 22.5767 46.4567 22.52C46.3457 22.4485 46.2348 22.377 46.1213 22.3104C46.03 22.2561 45.9363 22.2068 45.8451 22.155C45.7292 22.0909 45.6158 22.0243 45.4999 21.9627C45.4061 21.9134 45.3099 21.8665 45.2138 21.8197C45.0954 21.7605 44.9795 21.6988 44.8611 21.6445C44.7625 21.5977 44.6638 21.5582 44.5652 21.5138C44.4444 21.4596 44.326 21.4053 44.2052 21.356C44.1041 21.3141 44.0005 21.2771 43.8993 21.2377C43.7785 21.1908 43.6577 21.1415 43.5344 21.0996C43.4308 21.0626 43.3223 21.0305 43.2162 20.9959C43.0929 20.9565 42.9696 20.9121 42.8439 20.8751C42.7378 20.8431 42.6269 20.8159 42.5183 20.7863C42.3926 20.7518 42.2668 20.7148 42.1386 20.6852C42.0276 20.6581 41.9166 20.6359 41.8056 20.6113C41.6774 20.5841 41.5516 20.5521 41.4234 20.5274C41.31 20.5052 41.1941 20.488 41.0806 20.4682C40.9524 20.446 40.8241 20.4239 40.6935 20.4041C40.5776 20.3869 40.4592 20.377 40.3432 20.3622C40.2126 20.3474 40.0843 20.3301 39.9512 20.3178C39.8328 20.3079 39.7119 20.3005 39.5936 20.2931C39.4826 20.2857 39.3692 20.2783 39.2557 20.2734C39.3223 20.2857 39.3914 20.3005 39.4579 20.3128C39.5122 20.3227 39.564 20.3326 39.6182 20.3449C39.7884 20.3819 39.9561 20.4189 40.1238 20.4633C40.1312 20.4658 40.1361 20.4658 40.1435 20.4682C40.3087 20.5102 40.4715 20.557 40.6318 20.6088C40.6861 20.6261 40.7378 20.6433 40.7921 20.6606C40.908 20.6976 41.0214 20.737 41.1349 20.7765C41.1916 20.7962 41.2508 20.8184 41.3075 20.8381C41.4259 20.8825 41.5418 20.9294 41.6577 20.9762C41.7045 20.9959 41.7514 21.0132 41.7958 21.0329C41.9536 21.102 42.1115 21.1711 42.2668 21.2475C42.3013 21.2648 42.3334 21.282 42.3679 21.2993C42.4912 21.361 42.6121 21.4226 42.7329 21.4867C42.7872 21.5163 42.8389 21.5459 42.8907 21.5755C42.9943 21.6322 43.0979 21.6939 43.199 21.7531C43.2508 21.7851 43.3025 21.8147 43.3544 21.8468C43.4703 21.9183 43.5862 21.9947 43.7021 22.0712C43.7341 22.0934 43.7662 22.1131 43.7982 22.1328C43.9413 22.2315 44.0819 22.3326 44.2224 22.4361C44.2619 22.4657 44.3038 22.4978 44.3433 22.5299C44.4444 22.6088 44.543 22.6877 44.6416 22.7691C44.6885 22.8085 44.7354 22.848 44.7822 22.8875C44.8759 22.9688 44.9696 23.0502 45.0634 23.134C45.1053 23.1711 45.1472 23.2081 45.1866 23.2475C45.3173 23.3684 45.4456 23.4917 45.5714 23.6199C47.7835 25.8714 48.9869 28.8504 48.9573 32.0095C48.9573 32.0835 48.9523 32.1599 48.9499 32.2339H48.9548C48.9524 32.3005 48.9474 32.3646 48.945 32.4287C48.94 32.5151 48.9376 32.6014 48.9326 32.6877C48.9252 32.7888 48.9178 32.8874 48.908 32.9885C48.9006 33.0847 48.8907 33.1809 48.8784 33.2746C48.8685 33.3634 48.8562 33.4497 48.8438 33.536C48.8291 33.6445 48.8143 33.753 48.7945 33.8591C48.7822 33.9306 48.7699 34.0046 48.7551 34.0761C48.7329 34.1994 48.7082 34.3202 48.6811 34.4411C48.6688 34.4978 48.6564 34.5545 48.6416 34.6112C48.6096 34.7469 48.5751 34.8825 48.5405 35.0181C48.5282 35.0601 48.5184 35.102 48.506 35.1414C48.4641 35.2894 48.4197 35.4374 48.3704 35.5829C48.3605 35.61 48.3531 35.6396 48.3433 35.6667C48.2915 35.8245 48.2347 35.9799 48.1755 36.1353C48.1681 36.1526 48.1632 36.1698 48.1558 36.1871C48.0917 36.3523 48.0251 36.515 47.9536 36.6753C47.9487 36.6852 47.9462 36.6926 47.9413 36.7025C47.8673 36.8702 47.7884 37.0354 47.707 37.1982C47.7045 37.2031 47.7021 37.208 47.6996 37.213C47.6158 37.3782 47.5294 37.541 47.4382 37.7013C47.4357 37.7062 47.4332 37.7111 47.4308 37.716C47.3395 37.8739 47.2458 38.0317 47.1497 38.1871C47.1447 38.1945 47.1398 38.2019 47.1349 38.2117C47.0412 38.3597 46.9425 38.5077 46.8414 38.6507C46.8315 38.6655 46.8217 38.6803 46.8118 38.6951C46.7156 38.8307 46.617 38.9639 46.5159 39.0946C46.4986 39.1193 46.4789 39.1414 46.4616 39.1661C46.3679 39.2845 46.2718 39.4004 46.1756 39.5163C46.1459 39.5508 46.1163 39.5878 46.0868 39.6224C46.0005 39.7235 45.9117 39.8196 45.8204 39.9183C45.7761 39.9676 45.7317 40.0169 45.6848 40.0638C45.6651 40.0835 45.6478 40.1057 45.6281 40.1254C45.7119 40.1451 45.7933 40.1673 45.8772 40.187C45.9931 40.2191 46.1163 40.2462 46.2397 40.2734Z" fill="#B0B5BD"/>
<path d="M41.8067 38.73C42.004 38.8286 42.2038 38.9248 42.406 39.0161C42.623 39.1147 42.8425 39.2109 43.062 39.2997C43.1606 39.3391 43.2592 39.3761 43.3579 39.4156C43.5527 39.492 43.75 39.5635 43.9473 39.6326C44.041 39.6647 44.1371 39.6992 44.2333 39.7313C44.4553 39.8052 44.6772 39.8743 44.9016 39.9384C44.9559 39.9532 45.0077 39.9705 45.062 39.9853C45.099 39.9483 45.1335 39.9137 45.1705 39.8768C45.2691 39.7781 45.3653 39.677 45.4614 39.5759C45.5034 39.5315 45.5428 39.4871 45.5823 39.4402C45.6859 39.3243 45.787 39.2084 45.8832 39.0901C45.9128 39.0531 45.9423 39.0186 45.9719 38.9816C46.0804 38.8484 46.184 38.7127 46.2851 38.5747C46.3024 38.55 46.3196 38.5278 46.3369 38.5031C46.4528 38.3429 46.5663 38.1776 46.6723 38.0124C46.6748 38.0099 46.6748 38.0074 46.6772 38.005C47.1335 37.2972 47.5058 36.5426 47.7894 35.7535C47.7894 35.751 47.7894 35.751 47.7919 35.7485C46.6082 37.4624 44.6279 38.5747 42.3813 38.5747C42.0311 38.5747 41.6859 38.5451 41.3431 38.4908C41.4146 38.5278 41.4861 38.5697 41.5577 38.6067C41.6415 38.6486 41.7253 38.6881 41.8067 38.73Z" fill="#B0B5BD"/>
<path d="M39.0575 49.6991C39.2203 49.6942 39.3806 49.6868 39.5434 49.6769C39.5508 49.6769 39.5606 49.6769 39.568 49.6769C40.1031 49.6424 40.6309 49.5782 41.1513 49.487C41.1537 49.487 41.1562 49.487 41.1587 49.4845C41.3288 49.4549 41.4965 49.4229 41.6642 49.3859C41.6864 49.381 41.7111 49.376 41.7333 49.3711C41.8812 49.339 42.0267 49.307 42.1722 49.27C42.2043 49.2626 42.2388 49.2527 42.2708 49.2429C42.4065 49.2084 42.5397 49.1738 42.6728 49.1344C42.7148 49.122 42.7542 49.1097 42.7961 49.0974C42.9194 49.0604 43.0452 49.0234 43.1685 48.984C43.2154 48.9692 43.2622 48.9519 43.3066 48.9371C43.4225 48.8976 43.5409 48.8581 43.6568 48.8162C43.7061 48.799 43.7579 48.7768 43.8073 48.7595C43.9182 48.7176 44.0292 48.6757 44.1377 48.6313C44.1919 48.6091 44.2437 48.5869 44.298 48.5647C44.404 48.5203 44.5076 48.4759 44.6112 48.4291C44.6654 48.4044 44.7197 48.3798 44.7739 48.3526C44.875 48.3058 44.9761 48.2589 45.0772 48.2096C45.134 48.1824 45.1883 48.1528 45.245 48.1257C45.3412 48.0764 45.4398 48.0271 45.536 47.9753C45.5927 47.9457 45.6494 47.9136 45.7061 47.8816C45.7998 47.8298 45.8936 47.778 45.9873 47.7238C46.044 47.6917 46.0982 47.6572 46.155 47.6251C46.2462 47.5709 46.3374 47.5166 46.4262 47.4599C46.4829 47.4253 46.5372 47.3884 46.5914 47.3538C46.6802 47.2971 46.769 47.2379 46.8553 47.1788C46.9096 47.1418 46.9638 47.1048 47.0181 47.0678C47.1044 47.0086 47.1907 46.947 47.277 46.8853C47.3313 46.8459 47.3831 46.8064 47.4349 46.7694C47.5212 46.7053 47.605 46.6411 47.6888 46.577C47.7406 46.5376 47.79 46.4981 47.8417 46.4562C47.9256 46.3896 48.0094 46.3206 48.0933 46.2515C48.1402 46.2121 48.1895 46.1701 48.2363 46.1307C48.3202 46.0591 48.404 45.9852 48.4854 45.9112C48.5298 45.8717 48.5742 45.8298 48.6186 45.7903C48.7024 45.7139 48.7838 45.635 48.8677 45.5561C48.9096 45.5166 48.949 45.4772 48.9885 45.4377C49.0723 45.3538 49.1537 45.27 49.2375 45.1861C49.2745 45.1492 49.3115 45.1097 49.346 45.0702C49.4299 44.9815 49.5138 44.8902 49.5952 44.799C49.6272 44.7645 49.6593 44.7275 49.6913 44.6905C49.7776 44.5943 49.859 44.4956 49.9428 44.397C49.97 44.3649 49.9971 44.3329 50.0218 44.3008C50.1081 44.1948 50.1944 44.0888 50.2783 43.9802C50.298 43.9531 50.3202 43.926 50.3399 43.8988C50.4287 43.7829 50.515 43.6646 50.6013 43.5462C50.6161 43.5265 50.6309 43.5068 50.6457 43.487C50.7369 43.3588 50.8257 43.2281 50.9121 43.0974C50.9194 43.085 50.9268 43.0752 50.9342 43.0628C51.3387 42.4463 51.6987 41.7953 52.0119 41.1147C51.9971 41.1171 51.9848 41.1171 51.97 41.1171C51.7185 41.1393 51.4669 41.1566 51.2154 41.1689C51.166 41.1714 51.1192 41.1739 51.0699 41.1739C50.8158 41.1837 50.5618 41.1911 50.3079 41.1911C50.3029 41.1911 50.298 41.1911 50.2906 41.1911C50.2783 41.1911 50.2659 41.1911 50.2536 41.1911C49.9996 41.1911 49.748 41.1837 49.4965 41.1739C49.4299 41.1714 49.3658 41.1665 49.2992 41.164C49.1044 41.1541 48.9096 41.1418 48.7123 41.127C48.6309 41.1196 48.5495 41.1147 48.4681 41.1073C48.2684 41.09 48.0687 41.0678 47.8689 41.0431C47.8097 41.0357 47.748 41.0308 47.6888 41.0209C47.4373 40.9889 47.1858 40.9494 46.9342 40.9075C46.8652 40.8952 46.7986 40.8828 46.7296 40.8705C46.5396 40.836 46.3522 40.799 46.1648 40.7595C46.081 40.7423 45.9971 40.7225 45.9133 40.7053C45.7258 40.6634 45.5409 40.619 45.3559 40.5697C45.3066 40.5573 45.2573 40.5475 45.2105 40.5351C45.1562 40.5844 45.1019 40.6313 45.0477 40.6806C44.9761 40.7447 44.9071 40.8088 44.8356 40.8705C44.7665 40.9297 44.695 40.9889 44.6235 41.0456C44.5471 41.1097 44.4706 41.1714 44.3917 41.233C44.3251 41.2848 44.2585 41.3317 44.1919 41.381C44.1056 41.4451 44.0193 41.5117 43.9305 41.5733C43.8738 41.6153 43.8146 41.6522 43.7555 41.6917C43.6568 41.7583 43.5557 41.8274 43.4546 41.8915C43.4053 41.9211 43.3559 41.9507 43.3066 41.9803C43.1932 42.0493 43.0798 42.1183 42.9638 42.1849C42.9268 42.2071 42.8874 42.2268 42.8504 42.2466C42.7221 42.3181 42.5939 42.3871 42.4632 42.4537C42.4361 42.4685 42.409 42.4808 42.3819 42.4932C42.2388 42.5647 42.0982 42.6313 41.9527 42.6954C41.9355 42.7028 41.9182 42.7102 41.9009 42.7176C41.7456 42.7867 41.5902 42.8508 41.4348 42.9124C41.425 42.9174 41.4151 42.9198 41.4053 42.9223C41.24 42.9864 41.0748 43.0456 40.9071 43.1023C40.9022 43.1048 40.8973 43.1048 40.8923 43.1072C40.7221 43.1639 40.5471 43.2182 40.3744 43.2675C40.3695 43.27 40.3646 43.27 40.3621 43.27C40.1895 43.3194 40.0144 43.3637 39.8368 43.4057C39.8294 43.4081 39.8196 43.4081 39.8122 43.4106C39.642 43.45 39.4694 43.487 39.2943 43.5191C39.277 43.5216 39.2573 43.524 39.24 43.529C39.0773 43.5585 38.9145 43.5857 38.7493 43.6079C38.7172 43.6128 38.6827 43.6153 38.6506 43.6202C38.5002 43.6399 38.3522 43.6572 38.2018 43.6695C38.1476 43.6744 38.0933 43.6769 38.0415 43.6818C37.9108 43.6917 37.7801 43.7016 37.6494 43.7065C37.573 43.709 37.4941 43.7114 37.4152 43.7114C37.3264 43.7139 37.2351 43.7188 37.1463 43.7188C37.1118 43.7188 37.0773 43.7188 37.0403 43.7188C30.5126 43.6621 25.2573 38.3107 25.314 31.7953C25.3165 31.5462 25.3264 31.2996 25.3436 31.053C25.3486 30.9741 25.3609 30.8976 25.3683 30.8187C25.3831 30.651 25.3979 30.4834 25.4201 30.3181C25.4324 30.2318 25.4497 30.1479 25.462 30.0641C25.4867 29.9063 25.5089 29.7509 25.5409 29.5955C25.5582 29.5092 25.5804 29.4279 25.5976 29.3415C25.6322 29.1887 25.6642 29.0358 25.7037 28.8853C25.7259 28.8015 25.753 28.7201 25.7752 28.6387C25.8171 28.4908 25.859 28.3379 25.9084 28.1899C25.9355 28.111 25.9651 28.032 25.9947 27.9531C26.0465 27.8052 26.0983 27.6548 26.1574 27.5092C26.187 27.4328 26.2216 27.3588 26.2536 27.2848C26.3153 27.1369 26.3769 26.9914 26.446 26.8483C26.4805 26.7768 26.5175 26.7053 26.5545 26.6338C26.6137 26.5129 26.6729 26.3921 26.737 26.2713C26.6827 26.3477 26.6285 26.4217 26.5742 26.4981C26.5175 26.5771 26.4608 26.656 26.4065 26.7373C26.3276 26.8557 26.2512 26.9741 26.1747 27.0949C26.1279 27.1689 26.081 27.2404 26.0366 27.3144C25.9552 27.4476 25.8788 27.5832 25.8023 27.7189C25.7653 27.783 25.7283 27.8446 25.6938 27.9087C25.61 28.0616 25.5311 28.2195 25.4521 28.3749C25.4275 28.4242 25.4004 28.471 25.3782 28.5203C25.2894 28.7004 25.2055 28.8853 25.1266 29.0703C25.1143 29.0974 25.102 29.1221 25.0896 29.1492C24.8159 29.7879 24.5841 30.4513 24.4016 31.1319C24.3868 31.4229 24.3794 31.7139 24.3794 32.0025C24.3794 40.6708 30.5495 48.1085 39.0575 49.6991Z" fill="#B0B5BD"/>
<path d="M58.8941 39.1837C58.8522 39.2034 58.8103 39.2232 58.7683 39.2429C58.6598 39.2947 58.5489 39.3465 58.4403 39.3958C58.2825 39.4698 58.1247 39.5413 57.9644 39.6104C57.8485 39.6597 57.7326 39.7065 57.6167 39.7558C57.4588 39.82 57.301 39.8816 57.1432 39.9408C57.0248 39.9852 56.9064 40.0296 56.7856 40.0715C56.6253 40.1282 56.4675 40.18 56.3072 40.2343C56.1863 40.2737 56.068 40.3132 55.9471 40.3502C55.7819 40.3995 55.6142 40.4463 55.4465 40.4932C55.3306 40.5253 55.2147 40.5598 55.0963 40.5894C54.9113 40.6362 54.7239 40.6781 54.5365 40.7201C54.4379 40.7423 54.3393 40.767 54.2381 40.7867C53.9545 40.8459 53.6709 40.8977 53.3848 40.9445C53.2936 40.9593 53.1999 40.9692 53.1087 40.984C52.9311 41.0111 52.7535 41.0382 52.576 41.0579H52.5735C52.2579 41.7854 51.8855 42.4784 51.4687 43.1344C51.4589 43.1492 51.4515 43.164 51.4416 43.1788C51.3676 43.2947 51.2911 43.4106 51.2122 43.524C51.1974 43.5462 51.1802 43.5709 51.1654 43.5931C51.0889 43.7041 51.0125 43.8126 50.9336 43.9211C50.9163 43.9433 50.9015 43.9655 50.8843 43.9877C50.8029 44.0986 50.7215 44.2071 50.6376 44.3132C50.6352 44.3181 50.6302 44.3205 50.6278 44.3255C50.3639 44.6634 50.0853 44.9889 49.7967 45.3021C49.7671 45.3341 49.7375 45.3662 49.7079 45.3983C49.6339 45.4772 49.56 45.5511 49.486 45.6276C49.4441 45.672 49.3997 45.7164 49.3578 45.7583C49.2862 45.8298 49.2147 45.8989 49.1432 45.9679C49.0939 46.0148 49.0445 46.0616 48.9952 46.106C48.9237 46.1726 48.8522 46.2367 48.7807 46.3008C48.7289 46.3477 48.6746 46.3945 48.6204 46.4414C48.5488 46.5031 48.4773 46.5647 48.4058 46.6264C48.3491 46.6732 48.2924 46.7201 48.2332 46.7669C48.1617 46.8261 48.0902 46.8828 48.0187 46.9396C47.957 46.9889 47.8929 47.0357 47.8287 47.0826C47.703 47.1788 47.5748 47.2725 47.4441 47.3662C47.375 47.4155 47.3084 47.4648 47.2369 47.5117C47.1679 47.561 47.0963 47.6054 47.0248 47.6523C46.9558 47.6966 46.8867 47.7435 46.8177 47.7879C46.7462 47.8347 46.6746 47.8792 46.6007 47.9236C46.5316 47.9679 46.4601 48.0099 46.3885 48.0518C46.3146 48.0962 46.2431 48.1381 46.1691 48.18C46.0976 48.2219 46.0236 48.2614 45.9521 48.3033C45.8781 48.3428 45.8041 48.3847 45.7301 48.4241C45.6537 48.4636 45.5797 48.503 45.5032 48.5425C45.4293 48.5795 45.3577 48.6165 45.2838 48.6535C45.2024 48.693 45.1186 48.7324 45.0347 48.7719C44.9631 48.8039 44.8941 48.8385 44.8226 48.8705C44.6796 48.9346 44.5365 48.9963 44.3911 49.0555C44.3195 49.085 44.2455 49.1122 44.1715 49.1418C44.0877 49.1738 44.0063 49.2083 43.9225 49.2379C43.846 49.2675 43.7671 49.2946 43.6882 49.3218C43.6068 49.3514 43.5254 49.3785 43.444 49.4057C43.3651 49.4328 43.2862 49.4575 43.2048 49.4821C43.1235 49.5068 43.0421 49.5339 42.9607 49.5586C42.8793 49.5832 42.8004 49.6054 42.719 49.6301C42.6352 49.6523 42.5513 49.6745 42.47 49.6966C42.3886 49.7188 42.3097 49.7386 42.2283 49.7583C42.1395 49.7805 42.0507 49.8002 41.9619 49.8199C41.8855 49.8372 41.809 49.8545 41.7326 49.8717C41.6068 49.8989 41.4811 49.921 41.3553 49.9457C41.3207 49.9531 41.2862 49.9605 41.2492 49.9654C41.6266 49.9901 42.0063 50 42.3812 50C49.6216 50.0049 56.031 45.7805 58.8941 39.1837Z" fill="#B0B5BD"/>
<path d="M59.4701 35.7114C59.4873 35.8323 59.4997 35.9556 59.5145 36.0764C59.5342 36.2491 59.5514 36.4217 59.5662 36.5968C59.5761 36.7225 59.586 36.8459 59.5934 36.9716C59.5983 37.0579 59.6082 37.1467 59.6131 37.233C60.126 35.5438 60.385 33.7903 60.385 32.0025C60.385 22.0764 52.3085 14 42.3825 14C38.4072 14 34.639 15.27 31.4849 17.672C27.8277 20.4587 25.4035 24.4858 24.6366 28.9469C24.6563 28.9025 24.6785 28.8582 24.6982 28.8138C24.7648 28.6609 24.8338 28.5105 24.9054 28.36C24.9473 28.2762 24.9892 28.1923 25.0311 28.1085C25.0879 27.995 25.147 27.8791 25.2087 27.7657C25.2556 27.6794 25.3024 27.5931 25.3517 27.5092C25.4134 27.3982 25.48 27.2873 25.5441 27.1763C25.5909 27.0974 25.6378 27.016 25.6871 26.9371C25.7685 26.8064 25.8523 26.6781 25.9362 26.5499C25.9732 26.4957 26.0077 26.439 26.0447 26.3847C26.168 26.2047 26.2938 26.0296 26.4245 25.8569C26.4639 25.8052 26.5034 25.7558 26.5429 25.7041C26.639 25.5783 26.7377 25.4525 26.8412 25.3292C26.8906 25.27 26.9399 25.2108 26.9892 25.1516C27.0879 25.0357 27.189 24.9198 27.2901 24.8064C27.3394 24.7522 27.3887 24.6979 27.438 24.6436C27.5564 24.5179 27.6748 24.3921 27.7956 24.2713C27.8326 24.2343 27.8671 24.1973 27.9017 24.1628C28.0644 24.0025 28.2297 23.8446 28.3998 23.6917C28.4121 23.6794 28.4245 23.6695 28.4368 23.6597C28.5922 23.5216 28.75 23.3859 28.9103 23.2527C28.9596 23.2108 29.0114 23.1714 29.0607 23.1319C29.1865 23.0308 29.3147 22.9297 29.4455 22.8335C29.5046 22.7891 29.5663 22.7423 29.6279 22.6979C29.7537 22.6042 29.8844 22.5154 30.0126 22.4266C30.0743 22.3847 30.1335 22.3428 30.1976 22.3008C30.3505 22.1997 30.5083 22.0986 30.6661 22.0025C30.7007 21.9827 30.7327 21.9605 30.7672 21.9384C30.7697 21.9384 30.7697 21.9359 30.7722 21.9359C30.7722 21.9359 30.7746 21.9359 30.7746 21.9334L31.1347 21.7016V21.7114C31.5169 21.4846 31.9115 21.2824 32.316 21.1023C32.3184 21.0998 32.3209 21.0998 32.3234 21.0998C32.4861 21.0209 32.6513 20.9445 32.8166 20.8705C32.8511 20.8557 32.8856 20.8385 32.9201 20.8237C33.0879 20.7497 33.2555 20.6782 33.4257 20.6116C33.4602 20.5968 33.4923 20.5845 33.5268 20.5697C33.697 20.5006 33.8696 20.4365 34.0422 20.3723C34.0767 20.36 34.1088 20.3477 34.1433 20.3354C34.3159 20.2737 34.4911 20.2145 34.6661 20.1578C34.7007 20.148 34.7327 20.1356 34.7672 20.1233C34.9423 20.0666 35.1174 20.0148 35.2925 19.963C35.3271 19.9531 35.364 19.9408 35.3986 19.931C35.5712 19.8816 35.7438 19.8372 35.9189 19.7929C35.9584 19.783 35.9978 19.7731 36.0373 19.7633C36.205 19.7213 36.3751 19.6843 36.5453 19.6473C36.5897 19.6375 36.6341 19.6276 36.6809 19.6177C36.8437 19.5832 37.0064 19.5536 37.1717 19.524C37.2234 19.5142 37.2777 19.5043 37.3295 19.4944C37.4824 19.4673 37.6378 19.4451 37.7907 19.4229C37.8548 19.4131 37.9189 19.4032 37.9806 19.3933C38.1187 19.3736 38.2568 19.3588 38.3949 19.344C38.4738 19.3341 38.5551 19.3243 38.6341 19.3144C38.7426 19.3021 38.8536 19.2947 38.9621 19.2873C39.4282 19.2478 39.8967 19.2256 40.3677 19.2207C40.4393 19.2207 40.5108 19.2183 40.5798 19.2183C40.5823 19.2183 40.5847 19.2183 40.5872 19.2183C40.8165 19.2183 41.0484 19.2232 41.2777 19.2306C45.364 19.3785 49.216 20.8015 52.3702 23.2922C53.0977 23.8668 53.7882 24.4981 54.4368 25.1837C54.6439 25.4007 54.8437 25.6251 55.036 25.8495C55.1002 25.926 55.1618 26.0024 55.2259 26.0789C55.3542 26.2318 55.4799 26.3847 55.6032 26.5401C55.6747 26.6313 55.7438 26.7275 55.8153 26.8212C55.9238 26.9642 56.0299 27.1073 56.1334 27.2528C56.2049 27.3539 56.274 27.455 56.343 27.5586C56.4392 27.7016 56.5354 27.8422 56.6291 27.9876C56.6982 28.0937 56.7648 28.2022 56.8289 28.3083C56.9176 28.4513 57.004 28.5968 57.0878 28.7423C57.1519 28.8508 57.2136 28.9617 57.2752 29.0727C57.3566 29.2207 57.4355 29.3687 57.5144 29.5191C57.5712 29.63 57.6303 29.7411 57.6846 29.8545C57.761 30.0098 57.8326 30.1652 57.9041 30.3206C57.9534 30.4291 58.0052 30.5401 58.0545 30.651C58.126 30.8162 58.1951 30.9839 58.2617 31.1517C58.3036 31.2552 58.3455 31.3563 58.3874 31.4599C58.4614 31.6547 58.5305 31.852 58.5995 32.0493C58.6266 32.1282 58.6562 32.2047 58.6833 32.2836C58.7746 32.5623 58.8609 32.8409 58.9398 33.122C58.9546 33.1738 58.967 33.2256 58.9793 33.2774C59.0409 33.5092 59.1001 33.7386 59.1544 33.9728C59.1766 34.074 59.1963 34.1751 59.2185 34.2737C59.2579 34.4611 59.2974 34.6461 59.3319 34.8335C59.3517 34.9494 59.3689 35.0629 59.3887 35.1788C59.4183 35.3588 59.4454 35.5339 59.4701 35.7114Z" fill="#B0B5BD"/>
<path d="M36.7681 20.5793C36.7459 20.5793 36.7262 20.5817 36.704 20.5817C36.5708 20.5867 36.4377 20.5941 36.3045 20.6039C36.2774 20.6064 36.2502 20.6088 36.2231 20.6113C36.0948 20.6212 35.9642 20.6335 35.8359 20.6483C35.8113 20.6508 35.7841 20.6532 35.7595 20.6582C35.6214 20.6754 35.4857 20.6927 35.3501 20.7149C35.3353 20.7173 35.3205 20.7198 35.3057 20.7223C34.9999 20.7716 34.6941 20.8332 34.3933 20.9097C34.3735 20.9146 34.3538 20.9196 34.3341 20.9245C34.2083 20.9565 34.085 20.9911 33.9592 21.0256C33.9247 21.0355 33.8902 21.0453 33.8581 21.0552C33.7422 21.0897 33.6288 21.1267 33.5154 21.1662C33.508 21.1687 33.4981 21.1711 33.4907 21.1736C32.7755 21.4399 32.0801 21.7605 31.4118 22.1378C31.3279 22.1871 31.2416 22.234 31.1577 22.2833C31.1602 22.3696 31.1651 22.4559 31.1701 22.5423C31.1775 22.705 31.1873 22.8653 31.1997 23.0256C31.2095 23.1686 31.2243 23.3117 31.2391 23.4547C31.2514 23.5706 31.2613 23.6865 31.2761 23.8024C31.2983 23.9874 31.323 24.1723 31.3501 24.3573C31.3575 24.414 31.3674 24.4707 31.3748 24.5274C31.9839 28.3894 33.7792 31.9331 36.4031 34.7149C36.0184 33.869 35.8113 32.9442 35.8113 31.9997C35.8113 28.377 38.7582 25.4276 42.3834 25.4276C44.7237 25.4276 46.7804 26.6557 47.9444 28.5028C47.9346 28.4757 47.9272 28.4461 47.9173 28.419C47.868 28.2685 47.8162 28.1181 47.7619 27.9676C47.7422 27.9134 47.7225 27.8591 47.7003 27.8049C47.6435 27.6569 47.5819 27.5114 47.5202 27.3659C47.5005 27.3191 47.4808 27.2722 47.4586 27.2253C47.3747 27.0379 47.2835 26.853 47.1898 26.6705C47.1898 26.6705 47.1898 26.668 47.1873 26.668C47.0912 26.4831 46.9876 26.3006 46.8815 26.1206C46.8519 26.0712 46.8199 26.0243 46.7903 25.975C46.7114 25.8493 46.6325 25.7235 46.5486 25.5977C46.5067 25.5361 46.4648 25.4769 46.4228 25.4153C46.3439 25.3043 46.265 25.1933 46.1836 25.0848C46.1368 25.0231 46.0924 24.964 46.043 24.9023C45.9543 24.7913 45.863 24.6804 45.7718 24.5718C45.7274 24.52 45.6855 24.4683 45.6411 24.4189C45.503 24.2611 45.3599 24.1082 45.2144 23.9578C43.0936 21.7999 40.2601 20.5965 37.2367 20.5719C37.0788 20.5743 36.9234 20.5743 36.7681 20.5793Z" fill="#B0B5BD"/>
<path d="M30.8299 24.2687C30.8126 24.1478 30.7978 24.027 30.7855 23.9037C30.7707 23.7854 30.7584 23.6669 30.746 23.5486C30.7361 23.4598 30.7287 23.3686 30.7189 23.2798C30.7016 23.0653 30.6844 22.8507 30.6745 22.6361C30.6745 22.6238 30.672 22.6115 30.672 22.5992C30.6375 22.6238 30.603 22.646 30.5685 22.6682C30.4624 22.7422 30.3613 22.8186 30.2602 22.8975C30.1764 22.9616 30.095 23.0233 30.016 23.0899C29.9149 23.1713 29.8188 23.2527 29.7201 23.3365C29.6437 23.4031 29.5672 23.4721 29.4908 23.5412C29.3971 23.6275 29.3033 23.7163 29.2121 23.8051C29.1381 23.8766 29.0666 23.9481 28.9976 24.0221C28.9088 24.1133 28.8225 24.2046 28.7362 24.2983C28.6671 24.3747 28.6005 24.4512 28.5339 24.5276C28.4526 24.6238 28.3712 24.72 28.2923 24.8162C28.2282 24.8975 28.164 24.9789 28.1024 25.0603C28.0284 25.159 27.9544 25.2576 27.8829 25.3587C27.8212 25.445 27.7645 25.5313 27.7053 25.6176C27.6388 25.7187 27.5697 25.8198 27.5056 25.9235C27.4489 26.0147 27.3946 26.1059 27.3428 26.1996C27.2836 26.3032 27.222 26.4068 27.1653 26.5103C27.1135 26.6066 27.0642 26.7052 27.0148 26.8038C26.963 26.9074 26.9088 27.011 26.8595 27.117C26.8126 27.2206 26.7682 27.3242 26.7238 27.4278C26.6795 27.5313 26.6326 27.6374 26.5907 27.7434C26.5487 27.8519 26.5093 27.9629 26.4698 28.0714C26.4328 28.175 26.3934 28.2786 26.3589 28.3846C26.3219 28.5005 26.2898 28.6164 26.2553 28.7348C26.2257 28.8384 26.1936 28.9395 26.1665 29.043C26.1344 29.1663 26.1073 29.2921 26.0802 29.4179C26.058 29.5165 26.0333 29.6152 26.0136 29.7138C25.9865 29.847 25.9668 29.9851 25.947 30.1207C25.9322 30.212 25.915 30.3057 25.9026 30.3969C25.8854 30.5572 25.8706 30.7101 25.8582 30.8655C25.8508 30.9419 25.841 31.0184 25.836 31.0948C25.8188 31.3266 25.8089 31.5609 25.8065 31.7977C25.7522 38.0443 30.7904 43.1713 37.0345 43.228C37.0691 43.228 37.1011 43.228 37.1356 43.228C37.1381 43.228 37.1381 43.228 37.1406 43.228C37.3182 43.228 37.4932 43.2231 37.6708 43.2157C37.7324 43.2132 37.7916 43.2083 37.8508 43.2033C37.9667 43.1959 38.0826 43.1885 38.1985 43.1787C38.2701 43.1713 38.3391 43.1614 38.4106 43.154C38.5166 43.1417 38.6203 43.1318 38.7238 43.117C38.7978 43.1071 38.8718 43.0924 38.9458 43.0825C39.0444 43.0652 39.1455 43.0504 39.2441 43.0332C39.3206 43.0184 39.3946 43.0011 39.4686 42.9863C39.5648 42.9666 39.6609 42.9468 39.7571 42.9222C39.8335 42.9049 39.9075 42.8852 39.984 42.8654C40.0777 42.8408 40.1714 42.8161 40.2651 42.789C40.3416 42.7668 40.4156 42.7446 40.492 42.72C40.5832 42.6904 40.6745 42.6632 40.7658 42.6312C40.8397 42.6065 40.9137 42.5794 40.9902 42.5523C41.0789 42.5202 41.1702 42.4857 41.2589 42.4512C41.3329 42.4216 41.4069 42.392 41.4809 42.3624C41.5672 42.3254 41.656 42.2884 41.7423 42.2489C41.8163 42.2169 41.8878 42.1823 41.9593 42.1478C42.0456 42.1084 42.1319 42.0664 42.2158 42.022C42.2873 41.9851 42.3588 41.9505 42.4279 41.9135C42.5117 41.8692 42.5956 41.8223 42.6794 41.7755C42.7485 41.736 42.8175 41.6965 42.8866 41.6571C42.9704 41.6078 43.0518 41.5585 43.1332 41.5066C43.1998 41.4647 43.2688 41.4228 43.3329 41.3784C43.4143 41.3241 43.4932 41.2699 43.5746 41.2156C43.6387 41.1713 43.7053 41.1244 43.7694 41.08C43.8484 41.0233 43.9273 40.9617 44.0062 40.9025C44.0678 40.8556 44.1295 40.8087 44.1911 40.7594C44.27 40.6953 44.3465 40.6312 44.4254 40.5671C44.4846 40.5177 44.5438 40.4684 44.6005 40.4191C44.6153 40.4068 44.6301 40.392 44.6449 40.3797C44.5734 40.3575 44.5019 40.3328 44.4279 40.3106C44.3193 40.2761 44.2133 40.244 44.1073 40.207C43.9692 40.1602 43.8311 40.1133 43.6955 40.064C43.5697 40.0196 43.4464 39.9752 43.3231 39.9283C43.222 39.8913 43.1233 39.8494 43.0247 39.81C42.8668 39.7483 42.709 39.6842 42.5536 39.6176C42.5413 39.6127 42.529 39.6053 42.5167 39.6004C41.2713 39.0628 40.0777 38.3994 38.9532 37.6078L38.9581 37.6004C38.6129 37.3562 38.2725 37.1022 37.9421 36.8359L37.9372 36.8408C37.2047 36.2489 36.5216 35.6078 35.8903 34.9296C35.8829 34.9222 35.878 34.9148 35.8706 34.9098C35.7201 34.7496 35.5746 34.5843 35.4316 34.4191C35.4069 34.3895 35.3823 34.3624 35.3576 34.3328C35.2072 34.1577 35.0617 33.9802 34.9186 33.8026C34.9162 33.7977 34.9112 33.7952 34.9088 33.7903C34.8964 33.7755 34.8866 33.7607 34.8767 33.7459C34.7509 33.588 34.6277 33.4253 34.5093 33.265C34.4674 33.2083 34.4254 33.1516 34.3835 33.0948C34.2873 32.9616 34.1911 32.826 34.0974 32.6904C34.0087 32.5621 33.9223 32.4315 33.836 32.3008C33.7892 32.2267 33.7399 32.1528 33.693 32.0788C33.6116 31.9506 33.5302 31.8199 33.4513 31.6892C33.4439 31.6768 33.4365 31.662 33.4266 31.6497C32.0826 29.413 31.2096 26.9469 30.8496 24.355C30.8373 24.3229 30.8348 24.2958 30.8299 24.2687Z" fill="#B0B5BD"/>
</svg>
