<svg width="50" height="50" viewBox="0 0 50 50" fill="none" xmlns="http://www.w3.org/2000/svg">
<rect x="5.31641" y="7.54199" width="33.1663" height="33.1663" rx="4.30022" stroke="#263242" stroke-width="2"/>
<rect x="30.3984" y="29.1904" width="16.2862" height="16.2862" rx="7.8337" fill="white" stroke="#263242" stroke-width="2"/>
<path d="M38.543 32.9509V37.6583H43.2503" stroke="#263242" stroke-width="2"/>
<path d="M31.8594 3.52344V11.1171M18.691 3.52344V11.1171M25.2752 3.52344V11.1171M12.1068 3.52344V11.1171" stroke="#263242" stroke-width="2"/>
<circle cx="12.107" cy="18.4949" r="1.64605" fill="#263242"/>
<circle cx="12.107" cy="25.0799" r="1.64605" fill="#263242"/>
<circle cx="12.107" cy="31.6636" r="1.64605" fill="#263242"/>
<circle cx="31.8609" cy="18.4954" r="1.64605" fill="#263242"/>
<circle cx="31.8609" cy="25.0799" r="1.64605" fill="#263242"/>
<circle cx="25.275" cy="18.4954" r="1.64605" fill="#263242"/>
<circle cx="25.275" cy="25.0799" r="1.64605" fill="#263242"/>
<circle cx="25.275" cy="31.6636" r="1.64605" fill="#263242"/>
<circle cx="18.689" cy="18.4954" r="1.64605" fill="#263242"/>
<circle cx="18.689" cy="25.0799" r="1.64605" fill="#263242"/>
<circle cx="18.689" cy="31.6636" r="1.64605" fill="#263242"/>
</svg>
