<svg width="51" height="50" viewBox="0 0 51 50" fill="none" xmlns="http://www.w3.org/2000/svg">
<rect x="25.9766" y="13.0964" width="20.5222" height="11.4617" rx="1" stroke="#263242" stroke-width="2"/>
<path d="M29.6055 10.9167C29.6055 10.0601 29.6062 9.47783 29.643 9.02774C29.6788 8.58932 29.7438 8.36512 29.8235 8.20872C30.0152 7.83239 30.3212 7.52643 30.6975 7.33469C30.8539 7.255 31.0781 7.19007 31.5165 7.15425C31.9666 7.11748 32.5489 7.1167 33.4055 7.1167H39.0721C39.9287 7.1167 40.5109 7.11748 40.961 7.15425C41.3995 7.19007 41.6237 7.255 41.7801 7.33469C42.1564 7.52643 42.4623 7.83239 42.6541 8.20872C42.7338 8.36512 42.7987 8.58932 42.8345 9.02774C42.8713 9.47783 42.8721 10.0601 42.8721 10.9167V24.5584H29.6055V10.9167Z" fill="white" stroke="#263242" stroke-width="2"/>
<path d="M36.2393 10.0103V12.9239V15.8376" stroke="#263242" stroke-width="2"/>
<path d="M39.1533 12.9238L36.2397 12.9238L33.326 12.9238" stroke="#263242" stroke-width="2"/>
<path d="M34.4023 21.604C34.4023 20.7466 34.4157 20.5657 34.4555 20.4487C34.5554 20.1544 34.7865 19.9233 35.0808 19.8234C35.1977 19.7837 35.3787 19.7703 36.2361 19.7703C37.0934 19.7703 37.2744 19.7837 37.3914 19.8234C37.6856 19.9233 37.9167 20.1544 38.0167 20.4487C38.0564 20.5657 38.0698 20.7466 38.0698 21.604V24.5584H34.4023V21.604Z" stroke="#263242" stroke-width="2"/>
<rect x="4.5" y="31.5381" width="20.5222" height="11.4617" rx="1" stroke="#263242" stroke-width="2"/>
<path d="M8.12891 29.3584C8.12891 28.5018 8.12968 27.9195 8.16646 27.4694C8.20228 27.031 8.2672 26.8068 8.34689 26.6504C8.53864 26.274 8.8446 25.9681 9.22093 25.7763C9.37733 25.6966 9.60153 25.6317 10.0399 25.5959C10.49 25.5591 11.0723 25.5583 11.9289 25.5583H17.5955C18.4521 25.5583 19.0344 25.5591 19.4845 25.5959C19.9229 25.6317 20.1471 25.6966 20.3035 25.7763C20.6798 25.9681 20.9858 26.274 21.1775 26.6504C21.2572 26.8068 21.3221 27.031 21.358 27.4694C21.3947 27.9195 21.3955 28.5018 21.3955 29.3583V43H8.12891V29.3584Z" fill="white" stroke="#263242" stroke-width="2"/>
<path d="M14.7627 28.4519V31.3656V34.2792" stroke="#263242" stroke-width="2"/>
<path d="M17.6768 31.3652L14.7631 31.3652L11.8495 31.3652" stroke="#263242" stroke-width="2"/>
<path d="M12.9258 40.0456C12.9258 39.1883 12.9392 39.0073 12.9789 38.8903C13.0788 38.5961 13.3099 38.365 13.6042 38.265C13.7212 38.2253 13.9022 38.2119 14.7595 38.2119C15.6168 38.2119 15.7978 38.2253 15.9148 38.265C16.2091 38.365 16.4402 38.5961 16.5401 38.8903C16.5798 39.0073 16.5932 39.1883 16.5932 40.0456V43.0001H12.9258V40.0456Z" stroke="#263242" stroke-width="2"/>
</svg>
