<svg width="51" height="50" viewBox="0 0 51 50" fill="none" xmlns="http://www.w3.org/2000/svg">
<mask id="path-1-inside-1_2314_4374" fill="white">
<path fill-rule="evenodd" clip-rule="evenodd" d="M33.672 12C31.3679 12 29.5 13.8679 29.5 16.172V31.114C29.5 31.9369 29.5 32.3483 29.5403 32.6943C29.8623 35.458 32.042 37.6377 34.8057 37.9597C35.1517 38 35.5631 38 36.386 38C37.0777 38 37.4787 38 37.7944 37.9761C38.2944 37.9998 38.923 37.9998 39.7839 37.9998C41.3792 37.9998 42.1768 37.9998 42.8365 37.849C45.0824 37.3359 46.8361 35.5821 47.3493 33.3363C47.5 32.6765 47.5 31.8789 47.5 30.2837V29.9032C47.5 27.9531 47.5 26.9781 47.2755 26.1806C46.7662 24.3716 45.4435 22.9182 43.7192 22.232C43.4572 22.1278 43.272 21.882 43.272 21.6C43.272 18.2397 43.272 16.5595 42.618 15.2761C42.0428 14.1471 41.1249 13.2292 39.9959 12.654C38.7125 12 37.0323 12 33.672 12Z"/>
</mask>
<path fill-rule="evenodd" clip-rule="evenodd" d="M33.672 12C31.3679 12 29.5 13.8679 29.5 16.172V31.114C29.5 31.9369 29.5 32.3483 29.5403 32.6943C29.8623 35.458 32.042 37.6377 34.8057 37.9597C35.1517 38 35.5631 38 36.386 38C37.0777 38 37.4787 38 37.7944 37.9761C38.2944 37.9998 38.923 37.9998 39.7839 37.9998C41.3792 37.9998 42.1768 37.9998 42.8365 37.849C45.0824 37.3359 46.8361 35.5821 47.3493 33.3363C47.5 32.6765 47.5 31.8789 47.5 30.2837V29.9032C47.5 27.9531 47.5 26.9781 47.2755 26.1806C46.7662 24.3716 45.4435 22.9182 43.7192 22.232C43.4572 22.1278 43.272 21.882 43.272 21.6C43.272 18.2397 43.272 16.5595 42.618 15.2761C42.0428 14.1471 41.1249 13.2292 39.9959 12.654C38.7125 12 37.0323 12 33.672 12Z" fill="white"/>
<path d="M29.5403 32.6943L31.5269 32.4629L31.5269 32.4629L29.5403 32.6943ZM34.8057 37.9597L34.5743 39.9463H34.5743L34.8057 37.9597ZM37.7944 37.9761L37.8891 35.9783L37.7661 35.9725L37.6432 35.9818L37.7944 37.9761ZM42.8365 37.849L42.391 35.8993H42.391L42.8365 37.849ZM47.3493 33.3363L45.3995 32.8908V32.8908L47.3493 33.3363ZM47.2755 26.1806L45.3503 26.7226L45.3503 26.7226L47.2755 26.1806ZM42.618 15.2761L40.836 16.184V16.184L42.618 15.2761ZM39.9959 12.654L39.088 14.436V14.436L39.9959 12.654ZM43.7192 22.232L42.9797 24.0903L43.7192 22.232ZM31.5 31.114V16.172H27.5V31.114H31.5ZM31.5269 32.4629C31.5034 32.2613 31.5 31.9932 31.5 31.114H27.5C27.5 31.8806 27.4966 32.4354 27.5537 32.9257L31.5269 32.4629ZM35.0371 35.9731C33.1947 35.7585 31.7415 34.3053 31.5269 32.4629L27.5537 32.9257C27.983 36.6106 30.8894 39.517 34.5743 39.9463L35.0371 35.9731ZM36.386 36C35.5068 36 35.2387 35.9966 35.0371 35.9731L34.5743 39.9463C35.0646 40.0034 35.6194 40 36.386 40V36ZM37.6432 35.9818C37.422 35.9986 37.1142 36 36.386 36V40C37.0411 40 37.5353 40.0014 37.9456 39.9703L37.6432 35.9818ZM39.7839 35.9998C38.9035 35.9998 38.3306 35.9992 37.8891 35.9783L37.6997 39.9738C38.2582 40.0003 38.9425 39.9998 39.7839 39.9998V35.9998ZM42.391 35.8993C42.0066 35.9871 41.4892 35.9998 39.7839 35.9998V39.9998C41.2692 39.9998 42.3469 40.0124 43.282 39.7988L42.391 35.8993ZM45.3995 32.8908C45.0574 34.388 43.8883 35.5572 42.391 35.8993L43.282 39.7988C46.2765 39.1146 48.6148 36.7762 49.299 33.7818L45.3995 32.8908ZM45.5 30.2837C45.5 31.9889 45.4874 32.5064 45.3995 32.8908L49.299 33.7818C49.5127 32.8467 49.5 31.7689 49.5 30.2837H45.5ZM45.5 29.9032V30.2837H49.5V29.9032H45.5ZM45.3503 26.7226C45.4812 27.1873 45.5 27.8179 45.5 29.9032H49.5C49.5 28.0883 49.5189 26.7689 49.2006 25.6386L45.3503 26.7226ZM42.9797 24.0903C44.129 24.5476 45.0108 25.5168 45.3503 26.7226L49.2006 25.6386C48.5215 23.2265 46.7579 21.2887 44.4587 20.3738L42.9797 24.0903ZM40.836 16.184C40.9954 16.4968 41.1253 16.9452 41.1969 17.8221C41.2704 18.7223 41.272 19.8868 41.272 21.6H45.272C45.272 19.9528 45.2735 18.5972 45.1836 17.4963C45.0918 16.3722 44.8946 15.3387 44.4 14.3681L40.836 16.184ZM39.088 14.436C39.8406 14.8195 40.4525 15.4314 40.836 16.184L44.4 14.3681C43.6331 12.8628 42.4092 11.6389 40.9039 10.8719L39.088 14.436ZM33.672 14C35.3852 14 36.5497 14.0016 37.4499 14.0751C38.3267 14.1467 38.7752 14.2766 39.088 14.436L40.9039 10.8719C39.9332 10.3774 38.8998 10.1802 37.7756 10.0884C36.6748 9.99844 35.3192 10 33.672 10V14ZM44.4587 20.3738C44.8714 20.538 45.272 20.9737 45.272 21.6H41.272C41.272 22.7902 42.043 23.7176 42.9797 24.0903L44.4587 20.3738ZM33.672 10C30.2633 10 27.5 12.7633 27.5 16.172H31.5C31.5 14.9724 32.4724 14 33.672 14V10Z" fill="#263242" mask="url(#path-1-inside-1_2314_4374)"/>
<path d="M4.5 12C4.5 9.23858 6.73858 7 9.5 7H27.5C30.2614 7 32.5 9.23858 32.5 12V34C32.5 36.7614 30.2614 39 27.5 39H9.5C6.73858 39 4.5 36.7614 4.5 34V12Z" fill="white" stroke="#263242" stroke-width="2"/>
<rect x="12.5" y="33" width="10" height="10" rx="5" fill="white" stroke="#263242" stroke-width="2"/>
<rect x="34.5" y="33" width="10" height="10" rx="5" fill="white" stroke="#263242" stroke-width="2"/>
<path d="M18.5 18V21V24" stroke="#263242" stroke-width="2" stroke-linecap="round"/>
<path d="M21.5 21L18.5 21L15.5 21" stroke="#263242" stroke-width="2" stroke-linecap="round"/>
</svg>
