<svg width="50" height="50" viewBox="0 0 50 50" fill="none" xmlns="http://www.w3.org/2000/svg">
<path d="M38.6016 6.45703H21.9885H15.8191C12.9416 6.45703 11.5029 6.45703 10.4038 7.01703C9.43705 7.50961 8.65105 8.29561 8.15846 9.26237C7.59847 10.3614 7.59847 11.8002 7.59847 14.6777V36.3508C7.59847 39.2283 7.59847 40.667 8.15846 41.7661C8.65105 42.7328 9.43705 43.5188 10.4038 44.0114C11.5029 44.5714 12.9416 44.5714 15.8191 44.5714H28.1578C31.0353 44.5714 32.474 44.5714 33.5731 44.0114C34.5399 43.5188 35.3259 42.7328 35.8184 41.7661C36.3784 40.667 36.3784 39.2283 36.3784 36.3508V19.8591" stroke="#263242" stroke-width="2"/>
<path d="M36.3779 9.01221V19.8591C39.2003 19.8591 41.4883 17.5711 41.4883 14.7487V9.01221C41.4883 7.60102 40.3443 6.45703 38.9331 6.45703C37.5219 6.45703 36.3779 7.60103 36.3779 9.01221Z" stroke="#263242" stroke-width="2"/>
<path d="M12.9922 30.4172H30.9797M30.9797 36.1344H12.9922" stroke="#263242" stroke-width="2"/>
<path d="M22.0732 14.1744H21.6516C20.4715 14.1744 19.5148 15.0885 19.5148 16.2162C19.5148 17.3438 20.4715 18.2579 21.6516 18.2579H22.4947C23.6749 18.2579 24.6316 19.1721 24.6316 20.2997C24.6316 21.4273 23.6749 22.3415 22.4947 22.3415H22.0732M22.0732 14.1744V12.3408M22.0732 14.1744H22.5286C23.4535 14.1744 24.2033 14.8908 24.2033 15.7745M22.0732 22.3415V24.267M22.0732 22.3415C20.7541 22.3415 19.6477 21.4717 19.3477 20.2997" stroke="#263242" stroke-width="2"/>
</svg>
