<svg width="64" height="64" viewBox="0 0 64 64" fill="none" xmlns="http://www.w3.org/2000/svg">
<g id="mintmark">
<mask id="mask0_4304_611" style="mask-type:alpha" maskUnits="userSpaceOnUse" x="0" y="0" width="64" height="64">
<rect id="Bounding box" width="64" height="64" fill="#D9D9D9"/>
</mask>
<g mask="url(#mask0_4304_611)">
<path id="mintmark_2" d="M50.8411 52.615L36.3745 38.097C36.2011 37.9552 36.1116 37.7437 36.1058 37.4623C36.1 37.1814 36.1896 36.9263 36.3745 36.697C36.5589 36.4681 36.7896 36.351 37.0665 36.3457C37.3434 36.3408 37.5794 36.4528 37.7745 36.6817L52.2918 51.1483V37.415C52.2918 37.1243 52.3911 36.8808 52.5898 36.6843C52.788 36.4879 53.0336 36.3897 53.3265 36.3897C53.6345 36.3897 53.8836 36.4879 54.0738 36.6843C54.2636 36.8808 54.3585 37.1243 54.3585 37.415V52.8203C54.3585 53.3435 54.1816 53.7819 53.8278 54.1357C53.474 54.4895 53.0356 54.6663 52.5125 54.6663H37.1078C36.8171 54.6663 36.5734 54.5666 36.3765 54.367C36.18 54.1679 36.0818 53.921 36.0818 53.6263C36.0818 53.3317 36.18 53.0894 36.3765 52.8997C36.5734 52.7099 36.8171 52.615 37.1078 52.615H50.8411ZM17.9331 41.1383H10.7485C10.4578 41.1383 10.2143 41.0386 10.0178 40.839C9.82137 40.6399 9.72314 40.393 9.72314 40.0983C9.72314 39.8037 9.82137 39.5614 10.0178 39.3717C10.2143 39.1819 10.4578 39.087 10.7485 39.087H24.3078C24.786 39.087 25.1791 38.933 25.4871 38.625C25.7947 38.3174 25.9485 37.9243 25.9485 37.4457V29.251C25.9485 28.8066 25.7947 28.4219 25.4871 28.097C25.1791 27.7721 24.786 27.6097 24.3078 27.6097H13.4151C12.3996 27.6097 11.5305 27.2481 10.8078 26.525C10.0847 25.8023 9.72314 24.9332 9.72314 23.9177V15.7743C9.72314 14.7588 10.0847 13.8895 10.8078 13.1663C11.5305 12.4432 12.3996 12.0817 13.4151 12.0817H17.9331V10.3583C17.9331 10.0681 18.0329 9.82456 18.2325 9.62767C18.4316 9.43123 18.6785 9.33301 18.9731 9.33301C19.2678 9.33301 19.51 9.43123 19.6998 9.62767C19.8896 9.82456 19.9845 10.0681 19.9845 10.3583V12.0817H26.9898C27.28 12.0817 27.5236 12.1815 27.7205 12.381C27.9169 12.5801 28.0151 12.827 28.0151 13.1217C28.0151 13.4163 27.9169 13.6586 27.7205 13.8483C27.5236 14.0381 27.28 14.133 26.9898 14.133H13.4151C12.9365 14.133 12.5434 14.2868 12.2358 14.5943C11.9283 14.9023 11.7745 15.2957 11.7745 15.7743V23.9177C11.7745 24.3963 11.9283 24.7895 12.2358 25.097C12.5434 25.4046 12.9365 25.5583 13.4151 25.5583H24.3078C25.3643 25.5583 26.2463 25.9266 26.9538 26.663C27.6614 27.3995 28.0151 28.2621 28.0151 29.251V37.4457C28.0151 38.4612 27.6614 39.3306 26.9538 40.0537C26.2463 40.7768 25.3643 41.1383 24.3078 41.1383H19.9845V42.861C19.9845 43.1517 19.8847 43.3952 19.6851 43.5917C19.486 43.7886 19.2391 43.887 18.9445 43.887C18.6498 43.887 18.4076 43.7886 18.2178 43.5917C18.028 43.3952 17.9331 43.1517 17.9331 42.861V41.1383Z" fill="#1C1B1F"/>
</g>
</g>
</svg>
