<svg width="19" height="18" viewBox="0 0 19 18" fill="none" xmlns="http://www.w3.org/2000/svg">
<path d="M11.75 17.5962C11.45 17.5962 11.183 17.5562 10.9491 17.476C10.7151 17.3959 10.4821 17.2757 10.25 17.1155V0.85594C10.4821 0.695674 10.7151 0.577074 10.9491 0.50014C11.183 0.423224 11.45 0.384766 11.75 0.384766C12.559 0.384766 13.2535 0.662008 13.8337 1.21649C14.4138 1.77098 14.7192 2.44757 14.75 3.24629V3.33284C14.75 3.35847 14.7468 3.38412 14.7404 3.40977C15.6724 3.52387 16.4583 3.93187 17.0981 4.63379C17.7378 5.33571 18.0577 6.16936 18.0577 7.13474C18.0577 7.50782 18.0054 7.86584 17.901 8.20879C17.7965 8.55174 17.643 8.87001 17.4404 9.16359C17.6109 9.44436 17.7404 9.74436 17.8288 10.0636C17.9173 10.3828 17.9615 10.7078 17.9615 11.0386C17.9615 11.995 17.6545 12.82 17.0404 13.5136C16.4263 14.2071 15.6577 14.6206 14.7346 14.7539C14.6769 15.5424 14.3648 16.2132 13.7981 16.7664C13.2314 17.3196 12.5487 17.5962 11.75 17.5962ZM7.25003 17.5962C6.45132 17.5962 5.76446 17.3196 5.18946 16.7664C4.61447 16.2132 4.29813 15.5424 4.24043 14.7539C3.32377 14.6142 2.56095 14.195 1.95198 13.4963C1.34302 12.7975 1.03853 11.9783 1.03853 11.0386C1.03853 10.7078 1.08116 10.3828 1.16641 10.0636C1.25167 9.74436 1.37956 9.44436 1.55006 9.16359C1.34751 8.87001 1.19559 8.55174 1.09431 8.20879C0.993024 7.86584 0.942383 7.50782 0.942383 7.13474C0.942383 6.17577 1.25808 5.34629 1.88948 4.64629C2.5209 3.94629 3.30262 3.53924 4.23466 3.42514C4.22826 3.39951 4.22506 3.37387 4.22506 3.34822V3.26167C4.25582 2.45655 4.56383 1.77578 5.14908 1.21937C5.73433 0.662966 6.43465 0.384766 7.25003 0.384766C7.54363 0.384766 7.80902 0.425791 8.04621 0.507841C8.28339 0.589891 8.51801 0.71105 8.75006 0.871317V17.1251C8.51801 17.2853 8.28499 17.4039 8.05101 17.4808C7.81702 17.5578 7.55003 17.5962 7.25003 17.5962Z" fill="#1B76FF"/>
</svg>
