<svg width="48" height="48" viewBox="0 0 48 48" fill="none" xmlns="http://www.w3.org/2000/svg">
<mask id="mask0_2000_2449" style="mask-type:alpha" maskUnits="userSpaceOnUse" x="0" y="0" width="48" height="48">
<rect width="48" height="48" fill="#D9D9D9"/>
</mask>
<g mask="url(#mask0_2000_2449)">
<path d="M19.4037 40.3848C17.9088 40.3848 16.6338 39.8476 15.5787 38.7732C14.5236 37.6989 13.9639 36.4386 13.8998 34.9924C12.2665 34.7489 10.9005 33.9816 9.80174 32.6905C8.70304 31.3995 8.15369 29.8668 8.15369 28.0924C8.15369 27.4722 8.23253 26.8632 8.39019 26.2653C8.54789 25.6673 8.78444 25.102 9.09984 24.5694C8.65624 23.9694 8.32354 23.3259 8.10174 22.639C7.87994 21.952 7.76904 21.207 7.76904 20.404C7.76904 18.6334 8.37098 17.1023 9.57484 15.8106C10.7787 14.519 12.2537 13.7822 13.9998 13.6001C13.9998 13.4976 13.9934 13.395 13.9806 13.2924C13.9678 13.1899 13.9614 13.0745 13.9614 12.9463C13.9768 11.4258 14.5094 10.1444 15.5594 9.10202C16.6094 8.05972 17.8947 7.53857 19.4152 7.53857C20.4332 7.53857 21.2787 7.73281 21.9517 8.12127C22.6248 8.50974 23.3075 9.10141 23.9998 9.89627C24.7178 9.10141 25.3985 8.50974 26.0421 8.12127C26.6857 7.73281 27.5293 7.53857 28.5729 7.53857C30.0238 7.53857 31.2749 8.06614 32.3264 9.12127C33.3779 10.1764 33.9152 11.4514 33.9383 12.9463V13.3117C33.9383 13.427 33.9255 13.5232 33.8998 13.6001C35.6537 13.7412 37.1473 14.4597 38.3806 15.7559C39.614 17.052 40.2306 18.6014 40.2306 20.404C40.2306 21.207 40.105 21.9604 39.8537 22.664C39.6024 23.3676 39.2678 24.0065 38.8498 24.5809C39.1652 25.145 39.4101 25.7321 39.5845 26.3422C39.7588 26.9523 39.846 27.5767 39.846 28.2155C39.846 29.9899 39.2966 31.5085 38.1979 32.7713C37.0992 34.0341 35.7204 34.7745 34.0614 34.9924C33.9973 36.4386 33.4422 37.6989 32.396 38.7732C31.3499 39.8476 30.096 40.3848 28.6344 40.3848C27.5319 40.3848 26.6652 40.1925 26.0344 39.8078C25.4037 39.4232 24.7255 38.8207 23.9998 38.0001C23.2742 38.8207 22.5896 39.4232 21.946 39.8078C21.3024 40.1925 20.455 40.3848 19.4037 40.3848ZM24.7691 12.8078V35.1155C24.7691 36.1519 25.1475 37.0328 25.9042 37.7582C26.661 38.4836 27.5804 38.8463 28.6625 38.8463C29.6977 38.8463 30.5832 38.4629 31.3191 37.6963C32.055 36.9296 32.4562 36.0565 32.5229 35.0771C31.4998 34.9899 30.5524 34.702 29.6806 34.2136C28.8088 33.7251 28.0883 33.0706 27.5191 32.2501C27.355 32.0886 27.2924 31.908 27.3314 31.7085C27.3704 31.5089 27.4856 31.3356 27.6768 31.1886C27.864 31.0501 28.0622 31.0004 28.2715 31.0394C28.4809 31.0784 28.6493 31.1935 28.7768 31.3847C29.2529 32.0959 29.8674 32.6333 30.6203 32.9969C31.3733 33.3606 32.1716 33.5424 33.0152 33.5424C34.5127 33.5424 35.7691 33.0386 36.7844 32.0309C37.7998 31.0232 38.3075 29.7514 38.3075 28.2155C38.3075 27.7959 38.2614 27.3871 38.1691 26.9892C38.0768 26.5914 37.946 26.1873 37.7768 25.7771C37.2024 26.2617 36.5428 26.6379 35.7979 26.9059C35.053 27.1738 34.2742 27.3078 33.4614 27.3078C33.2345 27.3078 33.0495 27.2362 32.9066 27.093C32.7636 26.9498 32.6921 26.7645 32.6921 26.5372C32.6921 26.3099 32.7636 26.1251 32.9066 25.9828C33.0495 25.8405 33.2345 25.7693 33.4614 25.7693C34.9332 25.7693 36.1729 25.2514 37.1806 24.2155C38.1883 23.1796 38.6921 21.9091 38.6921 20.404C38.6921 18.9721 38.187 17.7449 37.1768 16.7224C36.1665 15.6998 34.9588 15.1552 33.5537 15.0886C33.2716 15.8117 32.8543 16.4431 32.3018 16.9828C31.7492 17.5226 31.1114 17.9296 30.3883 18.204C30.1934 18.2681 30.0006 18.2619 29.8097 18.1854C29.6189 18.1089 29.4989 17.9689 29.4498 17.7655C29.3934 17.5706 29.3973 17.3777 29.4614 17.1867C29.5255 16.9956 29.6678 16.8591 29.8883 16.777C30.6678 16.5001 31.2813 16.0168 31.7287 15.327C32.1761 14.6373 32.3998 13.8642 32.3998 13.0078C32.3998 11.9258 32.0248 11.0001 31.2746 10.2309C30.5244 9.46164 29.627 9.07702 28.5823 9.07702C27.5376 9.07702 26.6409 9.43972 25.8921 10.1651C25.1434 10.8905 24.7691 11.7714 24.7691 12.8078ZM23.2306 35.1155V12.8078C23.2306 11.7714 22.8574 10.8905 22.1111 10.1651C21.3648 9.43972 20.4654 9.07702 19.413 9.07702C18.3683 9.07702 17.4633 9.46216 16.6979 10.2324C15.9325 11.0027 15.5498 11.9342 15.5498 13.027C15.5498 13.8963 15.778 14.6674 16.2344 15.3405C16.6909 16.0136 17.296 16.4758 18.0498 16.727C18.2703 16.8091 18.4274 16.9456 18.521 17.1367C18.6146 17.3277 18.6354 17.5196 18.5833 17.7123C18.4886 17.9128 18.3394 18.0589 18.1359 18.1508C17.9324 18.2426 17.7203 18.2437 17.4998 18.154C16.7768 17.8873 16.1473 17.4905 15.6114 16.9636C15.0755 16.4367 14.6537 15.8117 14.346 15.0886C12.9742 15.1886 11.7915 15.7443 10.7979 16.7559C9.80433 17.7674 9.30754 18.9876 9.30754 20.4164C9.30754 21.9132 9.81139 23.1796 10.8191 24.2155C11.8268 25.2514 13.0665 25.7693 14.5383 25.7693C14.7652 25.7693 14.9502 25.8409 15.0931 25.9842C15.2361 26.1274 15.3075 26.3126 15.3075 26.5399C15.3075 26.7672 15.2361 26.952 15.0931 27.0944C14.9502 27.2367 14.7652 27.3078 14.5383 27.3078C13.7255 27.3078 12.9466 27.1719 12.2017 26.9001C11.4569 26.6283 10.7973 26.254 10.2229 25.7771C10.046 26.1719 9.91331 26.56 9.82484 26.9412C9.73638 27.3223 9.69214 27.7228 9.69214 28.1424C9.69214 29.6783 10.1979 30.9623 11.2094 31.9944C12.221 33.0264 13.4626 33.5424 14.9344 33.5424C15.8036 33.5424 16.6061 33.3501 17.3421 32.9655C18.078 32.5809 18.7011 32.054 19.2114 31.3847C19.3389 31.2268 19.5092 31.12 19.7223 31.0644C19.9355 31.0087 20.1319 31.0437 20.3114 31.1694C20.4652 31.3206 20.5646 31.5001 20.6094 31.7078C20.6543 31.9155 20.6075 32.0963 20.4691 32.2501C19.8742 33.0706 19.1428 33.7251 18.2748 34.2136C17.4069 34.702 16.4742 34.977 15.4768 35.0386C15.5178 36.0437 15.9191 36.9296 16.6806 37.6963C17.4422 38.4629 18.3444 38.8463 19.3872 38.8463C20.4436 38.8463 21.3483 38.4836 22.1012 37.7582C22.8541 37.0328 23.2306 36.1519 23.2306 35.1155Z" fill="white"/>
</g>
</svg>
