<svg width="48" height="48" viewBox="0 0 48 48" fill="none" xmlns="http://www.w3.org/2000/svg">
<g id="child_care">
<mask id="mask0_4335_1031" style="mask-type:alpha" maskUnits="userSpaceOnUse" x="0" y="0" width="48" height="48">
<rect id="Bounding box" width="48" height="48" fill="#D9D9D9"/>
</mask>
<g mask="url(#mask0_4335_1031)">
<path id="child_care_2" d="M28.8615 22.5925C28.3768 22.5925 27.9627 22.4295 27.619 22.1035C27.2757 21.7778 27.104 21.36 27.104 20.85C27.104 20.3397 27.2732 19.9127 27.6115 19.569C27.9502 19.2257 28.3618 19.054 28.8465 19.054C29.3565 19.054 29.7833 19.2232 30.127 19.5615C30.4707 19.9002 30.6425 20.3245 30.6425 20.8345C30.6425 21.3448 30.4732 21.7653 30.1345 22.096C29.7958 22.427 29.3715 22.5925 28.8615 22.5925ZM19.142 22.5925C18.632 22.5925 18.2052 22.4295 17.8615 22.1035C17.5178 21.7778 17.346 21.36 17.346 20.85C17.346 20.3397 17.5153 19.9127 17.854 19.569C18.1927 19.2257 18.617 19.054 19.127 19.054C19.6117 19.054 20.0257 19.2232 20.369 19.5615C20.7127 19.9002 20.8845 20.3245 20.8845 20.8345C20.8845 21.3448 20.7153 21.7653 20.377 22.096C20.0383 22.427 19.6267 22.5925 19.142 22.5925ZM24 32.3155C22.4667 32.3155 21.0358 31.9373 19.7075 31.181C18.3795 30.4243 17.295 29.396 16.454 28.096H31.546C30.705 29.396 29.6205 30.4243 28.2925 31.181C26.9642 31.9373 25.5333 32.3155 24 32.3155ZM24.002 40C21.7903 40 19.7147 39.5763 17.775 38.729C15.8353 37.8813 14.145 36.737 12.704 35.296C11.263 33.855 10.1187 32.1653 9.271 30.227C8.42367 28.289 8 26.214 8 24.002C8 21.7903 8.42367 19.7147 9.271 17.775C10.1187 15.8353 11.263 14.145 12.704 12.704C14.145 11.263 15.8347 10.1187 17.773 9.271C19.711 8.42367 21.786 8 23.998 8C26.2097 8 28.2853 8.42367 30.225 9.271C32.1647 10.1187 33.855 11.263 35.296 12.704C36.737 14.145 37.8813 15.8347 38.729 17.773C39.5763 19.711 40 21.786 40 23.998C40 26.2097 39.5763 28.2853 38.729 30.225C37.8813 32.1647 36.737 33.855 35.296 35.296C33.855 36.737 32.1653 37.8813 30.227 38.729C28.289 39.5763 26.214 40 24.002 40ZM24 38.4615C27.9717 38.4615 31.3748 37.0545 34.2095 34.2405C37.0442 31.4262 38.4615 28.0332 38.4615 24.0615C38.4615 20.0642 37.0563 16.6218 34.246 13.7345C31.436 10.8475 28.0002 9.404 23.9385 9.404C23.5118 9.404 23.1072 9.42317 22.7245 9.4615C22.3415 9.49983 21.9538 9.53567 21.5615 9.569C21.5205 9.83567 21.4942 10.1012 21.4825 10.3655C21.4712 10.6295 21.4655 10.882 21.4655 11.123C21.4655 12.0333 21.7853 12.8148 22.425 13.4675C23.0647 14.1198 23.8563 14.446 24.8 14.446C25.218 14.446 25.5347 14.4018 25.75 14.3135C25.9653 14.2252 26.2025 14.181 26.4615 14.181C26.6192 14.181 26.7688 14.2418 26.9105 14.3635C27.0522 14.4852 27.123 14.6442 27.123 14.8405C27.123 15.1905 26.9178 15.4687 26.5075 15.675C26.0975 15.8813 25.5245 15.9845 24.7885 15.9845C23.4088 15.9845 22.2537 15.5192 21.323 14.5885C20.3923 13.6578 19.927 12.5027 19.927 11.123C19.927 10.9563 19.9353 10.774 19.952 10.576C19.9687 10.3783 20.0103 10.1787 20.077 9.977C17.0693 10.8717 14.561 12.5768 12.552 15.0925C10.543 17.6078 9.5385 20.5565 9.5385 23.9385C9.5385 27.9358 10.9558 31.3557 13.7905 34.198C16.6252 37.0403 20.0283 38.4615 24 38.4615Z" fill="#263242"/>
</g>
</g>
</svg>
