<svg width="49" height="48" viewBox="0 0 49 48" fill="none" xmlns="http://www.w3.org/2000/svg">
<g id="sms">
<mask id="mask0_4335_1049" style="mask-type:alpha" maskUnits="userSpaceOnUse" x="0" y="0" width="49" height="48">
<rect id="Bounding box" x="0.5" width="48" height="48" fill="#D9D9D9"/>
</mask>
<g mask="url(#mask0_4335_1049)">
<path id="sms_2" d="M12.654 34L8.8575 37.796C8.4165 38.237 7.91333 38.3403 7.348 38.106C6.78267 37.8717 6.5 37.444 6.5 36.823V8.769C6.5 8.00067 6.76933 7.347 7.308 6.808C7.847 6.26933 8.50067 6 9.269 6H39.731C40.4993 6 41.153 6.26933 41.692 6.808C42.2307 7.347 42.5 8.00067 42.5 8.769V31.231C42.5 31.9993 42.2307 32.653 41.692 33.192C41.153 33.7307 40.4993 34 39.731 34H12.654ZM11.969 32.4615H39.731C40.0387 32.4615 40.3207 32.3333 40.577 32.077C40.8333 31.8207 40.9615 31.5387 40.9615 31.231V8.769C40.9615 8.46133 40.8333 8.17933 40.577 7.923C40.3207 7.66667 40.0387 7.5385 39.731 7.5385H9.269C8.96133 7.5385 8.67933 7.66667 8.423 7.923C8.16667 8.17933 8.0385 8.46133 8.0385 8.769V36.5385L11.969 32.4615ZM16.1845 21.4655C16.5975 21.4655 16.9572 21.3123 17.2635 21.006C17.5698 20.6993 17.723 20.3397 17.723 19.927C17.723 19.514 17.5698 19.1543 17.2635 18.848C16.9572 18.5417 16.5975 18.3885 16.1845 18.3885C15.7462 18.3885 15.3802 18.5417 15.0865 18.848C14.7928 19.1543 14.646 19.514 14.646 19.927C14.646 20.3397 14.7928 20.6993 15.0865 21.006C15.3802 21.3123 15.7462 21.4655 16.1845 21.4655ZM24.573 21.4655C24.986 21.4655 25.3457 21.3123 25.652 21.006C25.9583 20.6993 26.1115 20.3397 26.1115 19.927C26.1115 19.514 25.9583 19.1543 25.652 18.848C25.3457 18.5417 24.986 18.3885 24.573 18.3885C24.1603 18.3885 23.8007 18.5417 23.494 18.848C23.1877 19.1543 23.0345 19.514 23.0345 19.927C23.0345 20.3397 23.1877 20.6993 23.494 21.006C23.8007 21.3123 24.1603 21.4655 24.573 21.4655ZM32.804 21.4655C33.2167 21.4655 33.5762 21.3123 33.8825 21.006C34.1892 20.6993 34.3425 20.3397 34.3425 19.927C34.3425 19.514 34.1892 19.1543 33.8825 18.848C33.5762 18.5417 33.2167 18.3885 32.804 18.3885C32.391 18.3885 32.0313 18.5417 31.725 18.848C31.4187 19.1543 31.2655 19.514 31.2655 19.927C31.2655 20.3397 31.4187 20.6993 31.725 21.006C32.0313 21.3123 32.391 21.4655 32.804 21.4655Z" fill="#263242"/>
</g>
</g>
</svg>
