<svg width="48" height="48" viewBox="0 0 48 48" fill="none" xmlns="http://www.w3.org/2000/svg">
<g id="widgets">
<mask id="mask0_4335_1025" style="mask-type:alpha" maskUnits="userSpaceOnUse" x="0" y="0" width="48" height="48">
<rect id="Bounding box" width="48" height="48" fill="#D9D9D9"/>
</mask>
<g mask="url(#mask0_4335_1025)">
<path id="widgets_2" d="M31.9395 22.3436L25.7335 16.1371C25.5931 15.9971 25.4833 15.8451 25.404 15.6811C25.3243 15.5171 25.2845 15.3412 25.2845 15.1536C25.2845 14.9872 25.3243 14.8207 25.404 14.6541C25.4833 14.4874 25.5931 14.3339 25.7335 14.1936L31.9395 7.98707C32.0798 7.84707 32.232 7.73724 32.396 7.65757C32.56 7.57824 32.7358 7.53857 32.9235 7.53857C33.0898 7.53857 33.2563 7.57824 33.423 7.65757C33.5896 7.73724 33.7431 7.84707 33.8835 7.98707L40.0895 14.1936C40.2298 14.3339 40.3398 14.4912 40.4195 14.6656C40.4988 14.8402 40.5385 15.0172 40.5385 15.1966C40.5385 15.3759 40.4988 15.5424 40.4195 15.6961C40.3398 15.8501 40.2298 15.9971 40.0895 16.1371L33.8835 22.3436C33.7431 22.4839 33.5858 22.5937 33.4115 22.6731C33.2368 22.7527 33.0598 22.7926 32.8805 22.7926C32.7011 22.7926 32.5346 22.7527 32.381 22.6731C32.227 22.5937 32.0798 22.4839 31.9395 22.3436ZM9.23047 19.4461V10.6271C9.23047 10.2597 9.3633 9.93707 9.62897 9.65907C9.8943 9.38141 10.2231 9.24257 10.6155 9.24257H19.396C19.7883 9.24257 20.1171 9.38141 20.3825 9.65907C20.6481 9.93707 20.781 10.2597 20.781 10.6271V19.4461C20.781 19.8134 20.6481 20.1361 20.3825 20.4141C20.1171 20.6921 19.7883 20.8311 19.396 20.8311H10.6155C10.2231 20.8311 9.8943 20.6921 9.62897 20.4141C9.3633 20.1361 9.23047 19.8134 9.23047 19.4461ZM27.169 37.3846V28.6041C27.169 28.2117 27.308 27.8829 27.586 27.6176C27.864 27.3519 28.1866 27.2191 28.554 27.2191H37.373C37.7403 27.2191 38.063 27.3519 38.341 27.6176C38.6186 27.8829 38.7575 28.2117 38.7575 28.6041V37.3846C38.7575 37.7769 38.6186 38.1057 38.341 38.3711C38.063 38.6367 37.7403 38.7696 37.373 38.7696H28.554C28.1866 38.7696 27.864 38.6367 27.586 38.3711C27.308 38.1057 27.169 37.7769 27.169 37.3846ZM9.23047 37.3846V28.6041C9.23047 28.2117 9.3633 27.8829 9.62897 27.6176C9.8943 27.3519 10.2231 27.2191 10.6155 27.2191H19.396C19.7883 27.2191 20.1171 27.3519 20.3825 27.6176C20.6481 27.8829 20.781 28.2117 20.781 28.6041V37.3846C20.781 37.7769 20.6481 38.1057 20.3825 38.3711C20.1171 38.6367 19.7883 38.7696 19.396 38.7696H10.6155C10.2231 38.7696 9.8943 38.6367 9.62897 38.3711C9.3633 38.1057 9.23047 37.7769 9.23047 37.3846ZM10.769 19.2926H19.2425V10.7811H10.769V19.2926ZM33.023 21.2656L39.0115 15.2771L33.023 9.25007L26.996 15.2771L33.023 21.2656ZM28.7075 37.2311H37.219V28.7576H28.7075V37.2311ZM10.769 37.2311H19.2425V28.7576H10.769V37.2311Z" fill="#263242"/>
</g>
</g>
</svg>
