<svg width="48" height="48" viewBox="0 0 48 48" fill="none" xmlns="http://www.w3.org/2000/svg">
<g id="credit_card_gear">
<mask id="mask0_4335_1043" style="mask-type:alpha" maskUnits="userSpaceOnUse" x="0" y="0" width="48" height="48">
<rect id="Bounding box" width="48" height="48" fill="#D9D9D9"/>
</mask>
<g mask="url(#mask0_4335_1043)">
<path id="credit_card_gear_2" d="M30.25 38.2615L29.5655 38.623C29.4038 38.7127 29.2212 38.7377 29.0175 38.698C28.8135 38.6583 28.6462 38.5487 28.5155 38.369L28.469 38.3C28.3383 38.1127 28.2807 37.9172 28.296 37.7135C28.3113 37.5095 28.4217 37.3383 28.627 37.2L29.146 36.754C28.8693 35.9677 28.731 35.1563 28.731 34.32C28.731 33.4837 28.8693 32.668 29.146 31.873L28.627 31.4655C28.4543 31.3248 28.3458 31.1427 28.3015 30.919C28.2568 30.6953 28.3 30.4942 28.431 30.3155L28.5155 30.246C28.6462 30.059 28.807 29.9475 28.998 29.9115C29.189 29.8755 29.3782 29.9025 29.5655 29.9925L30.25 30.354C30.7397 29.759 31.3313 29.2782 32.025 28.9115C32.7187 28.5448 33.454 28.2872 34.231 28.1385L34.282 27.372C34.2863 27.1677 34.3632 26.9898 34.5125 26.8385C34.6622 26.6872 34.8323 26.6115 35.023 26.6115H35.104C35.2977 26.6115 35.4705 26.6788 35.6225 26.8135C35.7742 26.9482 35.8577 27.1218 35.873 27.3345L35.896 28.1385C36.673 28.2872 37.4083 28.5448 38.102 28.9115C38.7957 29.2782 39.3873 29.759 39.877 30.354L40.573 29.9925C40.7603 29.9025 40.9495 29.8755 41.1405 29.9115C41.3315 29.9475 41.4923 30.059 41.623 30.246L41.669 30.3155C41.8 30.5025 41.8558 30.6998 41.8365 30.9075C41.8172 31.1152 41.705 31.3012 41.5 31.4655L40.9425 31.873C41.2192 32.6593 41.3575 33.4707 41.3575 34.307C41.3575 35.1433 41.2192 35.959 40.9425 36.754L41.55 37.2C41.704 37.3087 41.8015 37.4765 41.8425 37.7035C41.8835 37.9305 41.8385 38.1293 41.7075 38.3L41.623 38.369C41.4923 38.5487 41.325 38.6583 41.121 38.698C40.9173 38.7377 40.7347 38.7127 40.573 38.623L39.877 38.2615C39.3693 38.8642 38.7732 39.3488 38.0885 39.7155C37.4038 40.0822 36.673 40.3527 35.896 40.527L35.873 41.281C35.8577 41.468 35.7742 41.6352 35.6225 41.7825C35.4705 41.9302 35.2977 42.004 35.104 42.004H35.023C34.8323 42.004 34.6622 41.9283 34.5125 41.777C34.3632 41.6257 34.2863 41.462 34.282 41.286L34.231 40.527C33.454 40.3527 32.7232 40.0822 32.0385 39.7155C31.3538 39.3488 30.7577 38.8642 30.25 38.2615ZM35.055 39.1385C36.39 39.1385 37.523 38.6697 38.454 37.732C39.3847 36.7947 39.85 35.6523 39.85 34.305C39.85 32.958 39.3838 31.8167 38.4515 30.881C37.5195 29.945 36.3837 29.477 35.044 29.477C33.7043 29.477 32.5667 29.9457 31.631 30.883C30.695 31.8207 30.227 32.963 30.227 34.31C30.227 35.6573 30.6952 36.7988 31.6315 37.7345C32.5682 38.6705 33.7093 39.1385 35.055 39.1385ZM7.5385 36.4615V21.077V22.1925V11.5385V36.4615ZM7.5385 17.8345H40.4615V12.769C40.4615 12.4613 40.3333 12.1793 40.077 11.923C39.8207 11.6667 39.5387 11.5385 39.231 11.5385H8.769C8.46133 11.5385 8.17933 11.6667 7.923 11.923C7.66667 12.1793 7.5385 12.4613 7.5385 12.769V17.8345ZM8.769 38C8.00067 38 7.347 37.7307 6.808 37.192C6.26933 36.653 6 35.9993 6 35.231V12.769C6 12.0007 6.26933 11.347 6.808 10.808C7.347 10.2693 8.00067 10 8.769 10H39.231C39.9993 10 40.653 10.2693 41.192 10.808C41.7307 11.347 42 12.0007 42 12.769V21.2155C42 21.6308 41.8275 21.9448 41.4825 22.1575C41.1378 22.3705 40.7783 22.386 40.404 22.204C39.595 21.834 38.744 21.5537 37.851 21.363C36.958 21.1723 36.0307 21.077 35.069 21.077C34.2127 21.077 33.364 21.141 32.523 21.269C31.682 21.3973 30.8602 21.5948 30.0575 21.8615H7.5385V35.231C7.5385 35.5387 7.66667 35.8207 7.923 36.077C8.17933 36.3333 8.46133 36.4615 8.769 36.4615H21.546C21.7653 36.4615 21.9483 36.5358 22.095 36.6845C22.242 36.8332 22.3155 37.0183 22.3155 37.24C22.3155 37.462 22.242 37.6442 22.095 37.7865C21.9483 37.9288 21.7653 38 21.546 38H8.769Z" fill="#263242"/>
</g>
</g>
</svg>
