<svg width="48" height="48" viewBox="0 0 48 48" fill="none" xmlns="http://www.w3.org/2000/svg">
<g id="calendar_today">
<mask id="mask0_4335_1055" style="mask-type:alpha" maskUnits="userSpaceOnUse" x="0" y="0" width="48" height="48">
<rect id="Bounding box" width="48" height="48" fill="#D9D9D9"/>
</mask>
<g mask="url(#mask0_4335_1055)">
<path id="calendar_today_2" d="M10.769 42.0001C10.0007 42.0001 9.347 41.7307 8.808 41.1921C8.26933 40.6531 8 39.9994 8 39.2311V12.3076C8 11.5392 8.26933 10.8856 8.808 10.3466C9.347 9.80791 10.0007 9.53857 10.769 9.53857H14.904V6.44607C14.904 6.19807 14.9857 5.98474 15.149 5.80607C15.3123 5.62774 15.5192 5.53857 15.7695 5.53857C16.0342 5.53857 16.2542 5.62774 16.4295 5.80607C16.6048 5.98474 16.6925 6.19807 16.6925 6.44607V9.53857H31.4615V6.38007C31.4615 6.12474 31.5393 5.92057 31.695 5.76757C31.851 5.61491 32.0452 5.53857 32.2775 5.53857C32.5242 5.53857 32.7287 5.61791 32.891 5.77657C33.0533 5.93491 33.1345 6.13241 33.1345 6.36907V9.53857H37.231C37.9993 9.53857 38.653 9.80791 39.192 10.3466C39.7307 10.8856 40 11.5392 40 12.3076V39.2311C40 39.9994 39.7307 40.6531 39.192 41.1921C38.653 41.7307 37.9993 42.0001 37.231 42.0001H10.769ZM10.769 40.4616H37.231C37.5387 40.4616 37.8207 40.3334 38.077 40.0771C38.3333 39.8207 38.4615 39.5387 38.4615 39.2311V21.0001H9.5385V39.2311C9.5385 39.5387 9.66667 39.8207 9.923 40.0771C10.1793 40.3334 10.4613 40.4616 10.769 40.4616ZM9.5385 19.4616H38.4615V12.3076C38.4615 11.9999 38.3333 11.7179 38.077 11.4616C37.8207 11.2052 37.5387 11.0771 37.231 11.0771H10.769C10.4613 11.0771 10.1793 11.2052 9.923 11.4616C9.66667 11.7179 9.5385 11.9999 9.5385 12.3076V19.4616Z" fill="#263242"/>
</g>
</g>
</svg>
