<svg width="49" height="48" viewBox="0 0 49 48" fill="none" xmlns="http://www.w3.org/2000/svg">
<g id="clinical_notes">
<mask id="mask0_4335_1037" style="mask-type:alpha" maskUnits="userSpaceOnUse" x="0" y="0" width="49" height="48">
<rect id="Bounding box" x="0.5" width="48" height="48" fill="#D9D9D9"/>
</mask>
<g mask="url(#mask0_4335_1037)">
<path id="clinical_notes_2" d="M34.5 31.0385C33.218 31.0385 32.1283 30.5898 31.231 29.6925C30.3333 28.7948 29.8845 27.705 29.8845 26.423C29.8845 25.141 30.3333 24.0513 31.231 23.154C32.1283 22.2563 33.218 21.8075 34.5 21.8075C35.782 21.8075 36.8717 22.2563 37.769 23.154C38.6667 24.0513 39.1155 25.141 39.1155 26.423C39.1155 27.705 38.6667 28.7948 37.769 29.6925C36.8717 30.5898 35.782 31.0385 34.5 31.0385ZM34.5 29.5C35.3757 29.5 36.1073 29.2062 36.695 28.6185C37.283 28.0305 37.577 27.2987 37.577 26.423C37.577 25.5473 37.283 24.8157 36.695 24.228C36.1073 23.64 35.3757 23.346 34.5 23.346C33.6243 23.346 32.8927 23.64 32.305 24.228C31.717 24.8157 31.423 25.5473 31.423 26.423C31.423 27.2987 31.717 28.0305 32.305 28.6185C32.8927 29.2062 33.6243 29.5 34.5 29.5ZM25.269 42.846C24.877 42.846 24.5482 42.7133 24.2825 42.448C24.0172 42.1827 23.8845 41.8538 23.8845 41.4615V38.431C23.8845 37.9727 23.9938 37.5418 24.2125 37.1385C24.4312 36.7348 24.7373 36.413 25.131 36.173C25.9873 35.6577 26.7277 35.2858 27.352 35.0575C27.9763 34.8295 28.7832 34.6013 29.7725 34.373C30.0695 34.3193 30.3663 34.3257 30.663 34.392C30.9593 34.4587 31.1947 34.6088 31.369 34.8425L34.5 38.973L37.5925 34.8425C37.8008 34.6062 38.0442 34.4553 38.3225 34.39C38.6005 34.325 38.9025 34.3225 39.2285 34.3825C40.2222 34.6155 41.0193 34.842 41.62 35.062C42.2203 35.282 42.9662 35.6523 43.8575 36.173C44.2525 36.4117 44.5545 36.7303 44.7635 37.129C44.9725 37.5277 45.0898 37.9488 45.1155 38.3925V41.4615C45.1155 41.8538 44.9828 42.1827 44.7175 42.448C44.4518 42.7133 44.123 42.846 43.731 42.846H25.269ZM25.3845 41.3075H34.3115L30.1345 35.777C29.2805 36.0167 28.4618 36.3017 27.6785 36.632C26.8955 36.962 26.1308 37.336 25.3845 37.754V41.3075ZM34.727 41.3075H43.577V37.754C42.8307 37.336 42.0615 36.9687 41.2695 36.652C40.4772 36.3353 39.6668 36.0565 38.8385 35.8155L34.727 41.3075ZM10.0385 38.4615V9.5385V17.846V16.731V38.4615ZM11.2875 40C10.5272 40 9.8725 39.7238 9.3235 39.1715C8.7745 38.6195 8.5 37.9727 8.5 37.231V10.769C8.5 10.0273 8.77617 9.3805 9.3285 8.8285C9.8805 8.27617 10.5273 8 11.269 8H37.731C38.4727 8 39.1195 8.27617 39.6715 8.8285C40.2238 9.3805 40.5 10.0273 40.5 10.769V19.2345C40.2873 18.9782 40.0527 18.7397 39.796 18.519C39.5397 18.2987 39.2615 18.0743 38.9615 17.846V10.769C38.9615 10.4103 38.8462 10.1155 38.6155 9.8845C38.3845 9.65383 38.0897 9.5385 37.731 9.5385H11.269C10.9103 9.5385 10.6155 9.65383 10.3845 9.8845C10.1538 10.1155 10.0385 10.4103 10.0385 10.769V37.231C10.0385 37.5897 10.1538 37.8845 10.3845 38.1155C10.6155 38.3462 10.9103 38.4615 11.269 38.4615H18.731C18.7563 38.4498 18.7755 38.4512 18.7885 38.4655C18.8012 38.4795 18.8075 38.468 18.8075 38.431V40H11.2875ZM16.269 17H31.7425C32.0552 16.9617 32.3527 16.9328 32.635 16.9135C32.917 16.8942 33.2053 16.8588 33.5 16.8075V15.5385C33.5 15.5168 33.4927 15.4985 33.478 15.4835C33.4633 15.4688 33.445 15.4615 33.423 15.4615H16.269C16.0513 15.4615 15.8687 15.5363 15.721 15.686C15.5737 15.8353 15.5 16.0205 15.5 16.2415C15.5 16.4625 15.5737 16.6442 15.721 16.7865C15.8687 16.9288 16.0513 17 16.269 17ZM16.269 24.769H25C25.0513 24.5 25.1035 24.2367 25.1565 23.979C25.2098 23.7217 25.273 23.4723 25.346 23.231H16.269C16.0513 23.231 15.8687 23.3057 15.721 23.455C15.5737 23.6047 15.5 23.79 15.5 24.011C15.5 24.232 15.5737 24.4137 15.721 24.556C15.8687 24.698 16.0513 24.769 16.269 24.769ZM16.269 32.5385H21.5505C21.9912 32.2078 22.4385 31.9072 22.8925 31.6365C23.3462 31.3662 23.8295 31.1232 24.3425 30.9075V31.0615C24.2858 31.0025 24.2307 30.9775 24.177 30.9865C24.123 30.9955 24.0807 31 24.05 31H16.269C16.0513 31 15.8687 31.0748 15.721 31.2245C15.5737 31.3738 15.5 31.559 15.5 31.78C15.5 32.001 15.5737 32.1827 15.721 32.325C15.8687 32.4673 16.0513 32.5385 16.269 32.5385Z" fill="#263242"/>
</g>
</g>
</svg>
