<svg width="48" height="48" viewBox="0 0 48 48" fill="none" xmlns="http://www.w3.org/2000/svg">
<g id="lab_profile">
<mask id="mask0_4335_1019" style="mask-type:alpha" maskUnits="userSpaceOnUse" x="0" y="0" width="48" height="48">
<rect id="Bounding box" width="48" height="48" fill="#D9D9D9"/>
</mask>
<g mask="url(#mask0_4335_1019)">
<path id="lab_profile_2" d="M17.769 22.769C17.55 22.769 17.367 22.6948 17.22 22.5465C17.0733 22.3978 17 22.2125 17 21.9905C17 21.7685 17.0733 21.5863 17.22 21.444C17.367 21.302 17.55 21.231 17.769 21.231H30.231C30.45 21.231 30.633 21.3052 30.78 21.4535C30.9267 21.6022 31 21.7875 31 22.0095C31 22.2315 30.9267 22.4137 30.78 22.556C30.633 22.698 30.45 22.769 30.231 22.769H17.769ZM17.769 14.769C17.55 14.769 17.367 14.6948 17.22 14.5465C17.0733 14.3978 17 14.2125 17 13.9905C17 13.7685 17.0733 13.5863 17.22 13.444C17.367 13.302 17.55 13.231 17.769 13.231H30.231C30.45 13.231 30.633 13.3052 30.78 13.4535C30.9267 13.6022 31 13.7875 31 14.0095C31 14.2315 30.9267 14.4137 30.78 14.556C30.633 14.698 30.45 14.769 30.231 14.769H17.769ZM11.5385 29.231H27C27.7743 29.231 28.4845 29.3988 29.1305 29.7345C29.7768 30.0705 30.341 30.5462 30.823 31.1615L36.4615 38.5V8.769C36.4615 8.41033 36.3462 8.1155 36.1155 7.8845C35.8845 7.65383 35.5897 7.5385 35.231 7.5385H12.769C12.4103 7.5385 12.1155 7.65383 11.8845 7.8845C11.6538 8.1155 11.5385 8.41033 11.5385 8.769V29.231ZM12.769 40.4615H36L29.5885 32.0885C29.2852 31.6822 28.9068 31.3607 28.4535 31.124C28.0005 30.8873 27.516 30.769 27 30.769H11.5385V39.231C11.5385 39.5897 11.6538 39.8845 11.8845 40.1155C12.1155 40.3462 12.4103 40.4615 12.769 40.4615ZM35.231 42H12.769C12.0007 42 11.347 41.7307 10.808 41.192C10.2693 40.653 10 39.9993 10 39.231V8.769C10 8.00067 10.2693 7.347 10.808 6.808C11.347 6.26933 12.0007 6 12.769 6H35.231C35.9993 6 36.653 6.26933 37.192 6.808C37.7307 7.347 38 8.00067 38 8.769V39.231C38 39.9993 37.7307 40.653 37.192 41.192C36.653 41.7307 35.9993 42 35.231 42Z" fill="#263242"/>
</g>
</g>
</svg>
