<svg width="48" height="48" viewBox="0 0 48 48" fill="none" xmlns="http://www.w3.org/2000/svg">
<g id="flowsheet">
<mask id="mask0_4335_1013" style="mask-type:alpha" maskUnits="userSpaceOnUse" x="0" y="0" width="48" height="48">
<rect id="Bounding box" width="48" height="48" fill="#D9D9D9"/>
</mask>
<g mask="url(#mask0_4335_1013)">
<path id="flowsheet_2" d="M28.9291 40.923C29.7277 40.923 30.4007 40.6473 30.9481 40.096C31.4954 39.5447 31.7691 38.8697 31.7691 38.071C31.7691 37.2723 31.4976 36.5993 30.9546 36.052C30.4112 35.5047 29.7277 35.231 28.9041 35.231C28.1221 35.231 27.4554 35.5025 26.9041 36.0455C26.3527 36.5888 26.0771 37.2723 26.0771 38.096C26.0771 38.878 26.3527 39.5447 26.9041 40.096C27.4554 40.6473 28.1304 40.923 28.9291 40.923ZM40.2366 24C41.0352 24 41.7084 23.7243 42.2561 23.173C42.8034 22.6217 43.0771 21.9467 43.0771 21.148C43.0771 20.3493 42.8054 19.6763 42.2621 19.129C41.7187 18.5813 41.0352 18.3075 40.2116 18.3075C39.4296 18.3075 38.7629 18.5792 38.2116 19.1225C37.6602 19.6658 37.3846 20.3493 37.3846 21.173C37.3846 21.955 37.6602 22.6217 38.2116 23.173C38.7629 23.7243 39.4379 24 40.2366 24ZM22.7691 20.5385C22.9871 20.5385 23.1699 20.4637 23.3176 20.314C23.4649 20.1647 23.5386 19.9795 23.5386 19.7585C23.5386 19.5375 23.4649 19.3558 23.3176 19.2135C23.1699 19.0712 22.9871 19 22.7691 19H13.7691C13.5514 19 13.3687 19.0748 13.2211 19.2245C13.0737 19.3738 13.0001 19.559 13.0001 19.78C13.0001 20.001 13.0737 20.1827 13.2211 20.325C13.3687 20.4673 13.5514 20.5385 13.7691 20.5385H22.7691ZM22.7691 29C22.9871 29 23.1699 28.9252 23.3176 28.7755C23.4649 28.6262 23.5386 28.441 23.5386 28.22C23.5386 27.999 23.4649 27.8173 23.3176 27.675C23.1699 27.5327 22.9871 27.4615 22.7691 27.4615H13.7691C13.5514 27.4615 13.3687 27.5363 13.2211 27.686C13.0737 27.8353 13.0001 28.0205 13.0001 28.2415C13.0001 28.4625 13.0737 28.6442 13.2211 28.7865C13.3687 28.9288 13.5514 29 13.7691 29H22.7691ZM8.60005 38C7.83139 38 7.17772 37.7307 6.63905 37.192C6.10039 36.653 5.83105 35.9993 5.83105 35.231V12.769C5.83105 12.0007 6.10039 11.347 6.63905 10.808C7.17772 10.2693 7.83139 10 8.60005 10H41.4001C41.6181 10 41.8007 10.0747 41.9481 10.224C42.0954 10.3737 42.1691 10.559 42.1691 10.78C42.1691 11.001 42.0954 11.1827 41.9481 11.325C41.8007 11.4673 41.6181 11.5385 41.4001 11.5385H8.60005C8.29239 11.5385 8.01039 11.6667 7.75405 11.923C7.49739 12.1793 7.36905 12.4613 7.36905 12.769V35.231C7.36905 35.5387 7.49739 35.8207 7.75405 36.077C8.01039 36.3333 8.29239 36.4615 8.60005 36.4615H20.2311C20.4487 36.4615 20.6314 36.5363 20.7791 36.686C20.9264 36.8353 21.0001 37.0205 21.0001 37.2415C21.0001 37.4625 20.9264 37.6442 20.7791 37.7865C20.6314 37.9288 20.4487 38 20.2311 38H8.60005ZM28.9151 42.4615C27.6947 42.4615 26.6602 42.0352 25.8116 41.1825C24.9629 40.3302 24.5386 39.295 24.5386 38.077C24.5386 36.9897 24.8816 36.046 25.5676 35.246C26.2532 34.446 27.1154 33.9435 28.1541 33.7385V30.231C28.1541 29.8387 28.2867 29.5097 28.5521 29.244C28.8174 28.9787 29.1462 28.846 29.5386 28.846H39.4616V25.4925C38.4232 25.2872 37.5611 24.7845 36.8751 23.9845C36.1891 23.1845 35.8461 22.241 35.8461 21.154C35.8461 19.936 36.2732 18.9007 37.1276 18.048C37.9816 17.1953 39.0187 16.769 40.2391 16.769C41.4591 16.769 42.4936 17.1953 43.3426 18.048C44.1912 18.9007 44.6156 19.936 44.6156 21.154C44.6156 22.241 44.2726 23.1845 43.5866 23.9845C42.9006 24.7845 42.0384 25.2872 41.0001 25.4925V29C41.0001 29.3923 40.8674 29.7212 40.6021 29.9865C40.3367 30.2518 40.0079 30.3845 39.6156 30.3845H29.6926V33.7385C30.7309 33.9435 31.5931 34.446 32.2791 35.246C32.9647 36.046 33.3076 36.9897 33.3076 38.077C33.3076 39.295 32.8806 40.3302 32.0266 41.1825C31.1722 42.0352 30.1351 42.4615 28.9151 42.4615Z" fill="#263242"/>
</g>
</g>
</svg>
