<svg width="64" height="64" viewBox="0 0 64 64" fill="none" xmlns="http://www.w3.org/2000/svg">
<mask id="mask0_2686_629" style="mask-type:alpha" maskUnits="userSpaceOnUse" x="0" y="0" width="64" height="64">
<rect width="64" height="64" fill="#D9D9D9"/>
</mask>
<g mask="url(#mask0_2686_629)">
<path d="M8.80013 46V16.9334C8.80013 15.9778 9.16124 15.1389 9.88346 14.4167C10.6057 13.6945 11.4446 13.3334 12.4001 13.3334H51.6001C52.5557 13.3334 53.3946 13.6945 54.1168 14.4167C54.839 15.1389 55.2001 15.9778 55.2001 16.9334V46H59.8001C60.0079 46 60.1821 46.0718 60.3227 46.2152C60.4632 46.3587 60.5335 46.5365 60.5335 46.7486C60.5335 46.9607 60.4632 47.1334 60.3227 47.2667C60.1821 47.4 60.0079 47.4667 59.8001 47.4667H4.20013C3.99235 47.4667 3.8182 47.395 3.67766 47.2515C3.53709 47.108 3.4668 46.9303 3.4668 46.7182C3.4668 46.5061 3.53709 46.3334 3.67766 46.2C3.8182 46.0667 3.99235 46 4.20013 46H8.80013ZM27.506 46H36.5609C36.7915 46 37.0001 45.91 37.1868 45.73C37.3735 45.55 37.4668 45.3178 37.4668 45.0334C37.4668 44.7489 37.3735 44.5167 37.1868 44.3367C37.0001 44.1567 36.7915 44.0667 36.5609 44.0667H27.506C27.2754 44.0667 27.0668 44.1567 26.8801 44.3367C26.6935 44.5167 26.6001 44.7489 26.6001 45.0334C26.6001 45.3178 26.6935 45.55 26.8801 45.73C27.0668 45.91 27.2754 46 27.506 46ZM10.3335 42.6H53.8001V16.9334C53.8001 16.3112 53.6001 15.8 53.2001 15.4C52.8001 15 52.289 14.8 51.6668 14.8H12.4668C11.889 14.8 11.389 15 10.9668 15.4C10.5446 15.8 10.3335 16.3112 10.3335 16.9334V42.6Z" fill="#3FB8A6"/>
</g>
</svg>
