<svg width="15" height="20" viewBox="0 0 15 20" fill="none" xmlns="http://www.w3.org/2000/svg">
<path d="M7.49997 19.6999C6.77818 19.6999 5.94069 19.6056 4.98749 19.4172C4.03431 19.2287 3.28015 19.0191 2.72502 18.7883C2.54168 18.7114 2.39104 18.5886 2.27309 18.4199C2.15514 18.2513 2.09617 18.0657 2.09617 17.8633V17.046H1.25002C0.993933 17.046 0.779275 16.9594 0.606041 16.7862C0.432808 16.6129 0.346191 16.3983 0.346191 16.1422V14.7621C0.346191 14.5014 0.432808 14.2848 0.606041 14.1124C0.779275 13.9399 0.993933 13.8537 1.25002 13.8537H2.09617V11.546H1.25002C0.993933 11.546 0.779275 11.4594 0.606041 11.2862C0.432808 11.1129 0.346191 10.8983 0.346191 10.6422V9.26208C0.346191 9.00138 0.432808 8.78481 0.606041 8.61238C0.779275 8.43995 0.993933 8.35373 1.25002 8.35373H2.09617V6.14218H1.25002C0.993933 6.14218 0.779275 6.05556 0.606041 5.88233C0.432808 5.70909 0.346191 5.49444 0.346191 5.23835V3.85823C0.346191 3.59755 0.432808 3.38099 0.606041 3.20855C0.779275 3.03612 0.993933 2.9499 1.25002 2.9499H2.09617V1.65183C2.09617 1.35248 2.21251 1.12796 2.44519 0.978278C2.67787 0.828612 2.93204 0.807621 3.20769 0.915304C3.45514 0.992237 3.97757 1.14224 4.77499 1.3653C5.57242 1.58837 6.48075 1.6999 7.49997 1.6999C8.51918 1.6999 9.42751 1.58677 10.2249 1.3605C11.0224 1.13422 11.5448 0.98262 11.7922 0.905703C12.0679 0.798003 12.3221 0.822395 12.5547 0.978878C12.7874 1.13536 12.9038 1.35648 12.9038 1.64223V2.9499H13.7499C14.006 2.9499 14.2207 3.03652 14.3939 3.20975C14.5671 3.38299 14.6537 3.59765 14.6537 3.85373V5.23385C14.6537 5.49454 14.5671 5.7111 14.3939 5.88353C14.2207 6.05596 14.006 6.14218 13.7499 6.14218H12.9038V8.35373H13.7499C14.006 8.35373 14.2207 8.44034 14.3939 8.61358C14.5671 8.78683 14.6537 9.0015 14.6537 9.25758V10.6377C14.6537 10.8984 14.5671 11.1149 14.3939 11.2874C14.2207 11.4598 14.006 11.546 13.7499 11.546H12.9038V13.8537H13.7499C14.006 13.8537 14.2207 13.9403 14.3939 14.1136C14.5671 14.2868 14.6537 14.5015 14.6537 14.7576V16.1377C14.6537 16.3984 14.5671 16.6149 14.3939 16.7874C14.2207 16.9598 14.006 17.046 13.7499 17.046H12.9038V17.8633C12.9038 18.0657 12.8448 18.2513 12.7268 18.4199C12.6089 18.5886 12.4583 18.7114 12.2749 18.7883C11.7198 19.0191 10.9656 19.2287 10.0124 19.4172C9.05924 19.6056 8.22175 19.6999 7.49997 19.6999ZM7.49997 7.09988C8.1333 7.09988 8.78971 7.04155 9.46919 6.92488C10.1487 6.80821 10.7935 6.64155 11.4038 6.42488V2.59988C10.7769 2.78321 10.1304 2.92905 9.46439 3.03738C8.79836 3.14571 8.14197 3.19988 7.49522 3.19988C6.86505 3.19988 6.21696 3.14571 5.55094 3.03738C4.88491 2.92905 4.2333 2.78321 3.59612 2.59988V6.4249C4.19612 6.64157 4.83843 6.80824 5.52304 6.9249C6.20766 7.04157 6.86663 7.09988 7.49997 7.09988ZM7.49997 12.7999C8.12305 12.7999 8.77433 12.7399 9.45382 12.6201C10.1333 12.5002 10.7833 12.3268 11.4038 12.0999V7.99983C10.7153 8.18701 10.0484 8.33381 9.40284 8.44023C8.75734 8.54663 8.12305 8.59983 7.49997 8.59983C6.85638 8.59983 6.20414 8.54823 5.54324 8.44503C4.88234 8.34183 4.2333 8.19343 3.59612 7.99983V12.0999C4.21663 12.3268 4.86663 12.5002 5.54612 12.6201C6.2256 12.7399 6.87688 12.7999 7.49997 12.7999ZM7.49997 18.1999C8.1333 18.1999 8.78971 18.1415 9.46919 18.0249C10.1487 17.9082 10.7935 17.7415 11.4038 17.5249V13.6999C10.7769 13.8832 10.1304 14.029 9.46439 14.1374C8.79836 14.2457 8.14197 14.2999 7.49522 14.2999C6.86505 14.2999 6.21696 14.2457 5.55094 14.1374C4.88491 14.029 4.2333 13.8832 3.59612 13.6999V17.5249C4.19612 17.7415 4.83843 17.9082 5.52304 18.0249C6.20766 18.1415 6.86663 18.1999 7.49997 18.1999Z" fill="#B0B5BD"/>
</svg>
