<svg width="64" height="64" viewBox="0 0 64 64" fill="none" xmlns="http://www.w3.org/2000/svg">
<mask id="mask0_2189_5612" style="mask-type:alpha" maskUnits="userSpaceOnUse" x="0" y="0" width="64" height="64">
<rect width="64" height="64" fill="#D9D9D9"/>
</mask>
<g mask="url(#mask0_2189_5612)">
<path d="M49.1999 48.2V41.9333C49.1999 41.6667 49.111 41.4445 48.9332 41.2667C48.7554 41.0889 48.5332 41 48.2666 41C47.9999 41 47.7777 41.0889 47.5999 41.2667C47.4221 41.4445 47.3332 41.6667 47.3332 41.9333V48.2C47.3332 48.4505 47.3777 48.6909 47.4665 48.9212C47.5554 49.1515 47.6851 49.3519 47.8556 49.5224L52.0596 53.7264C52.242 53.9088 52.4554 54.0111 52.6999 54.0333C52.9443 54.0556 53.1777 53.9667 53.3999 53.7667C53.5777 53.6111 53.6665 53.3919 53.6665 53.1091C53.6665 52.8263 53.5777 52.5899 53.3999 52.4L49.1999 48.2ZM15.0666 52.5333C14.0999 52.5333 13.2582 52.175 12.5416 51.4583C11.8249 50.7417 11.4666 49.9 11.4666 48.9333V15.0667C11.4666 14.1 11.8249 13.2583 12.5416 12.5417C13.2582 11.825 14.0999 11.4667 15.0666 11.4667H48.9332C49.8999 11.4667 50.7416 11.825 51.4582 12.5417C52.1749 13.2583 52.5332 14.1 52.5332 15.0667V31.5333C52.2666 31.4889 52.011 31.4445 51.7666 31.4C51.5221 31.3556 51.2888 31.2889 51.0666 31.2V15.0667C51.0666 14.5333 50.8443 14.0445 50.3999 13.6C49.9554 13.1556 49.4666 12.9333 48.9332 12.9333H15.0666C14.5332 12.9333 14.0443 13.1556 13.5999 13.6C13.1554 14.0445 12.9332 14.5333 12.9332 15.0667V48.9333C12.9332 49.4667 13.1554 49.9556 13.5999 50.4C14.0443 50.8445 14.5332 51.0667 15.0666 51.0667H31.1999C31.2443 51.3333 31.2782 51.5927 31.3014 51.8448C31.3246 52.0969 31.3797 52.3265 31.4666 52.5333H15.0666ZM12.9332 51.0667V12.9333V31.2V31V51.0667ZM20.3999 42.0795C20.3999 42.2932 20.4696 42.4667 20.6091 42.6C20.7485 42.7333 20.9232 42.8 21.1332 42.8H31.7729C31.9242 42.5778 32.0554 42.3445 32.1666 42.1C32.2777 41.8556 32.3999 41.6 32.5332 41.3333H21.1332C20.9232 41.3333 20.7485 41.4043 20.6091 41.5462C20.4696 41.6881 20.3999 41.8659 20.3999 42.0795ZM20.3999 32.0129C20.3999 32.2265 20.4696 32.4 20.6091 32.5333C20.7485 32.6667 20.9232 32.7333 21.1332 32.7333H40.3332C40.7777 32.6445 41.1221 32.5556 41.3666 32.4667C41.611 32.3778 41.8666 32.2445 42.1332 32.0667V31.8667C42.1332 31.6889 42.0554 31.5445 41.8999 31.4333C41.7443 31.3222 41.5777 31.2667 41.3999 31.2667H21.1332C20.9232 31.2667 20.7485 31.3376 20.6091 31.4795C20.4696 31.6215 20.3999 31.7992 20.3999 32.0129ZM20.3999 21.9462C20.3999 22.1599 20.4696 22.3333 20.6091 22.4667C20.7485 22.6 20.9232 22.6667 21.1332 22.6667H42.8666C43.0766 22.6667 43.2513 22.5957 43.3907 22.4538C43.5302 22.3119 43.5999 22.1341 43.5999 21.9205C43.5999 21.7068 43.5302 21.5333 43.3907 21.4C43.2513 21.2667 43.0766 21.2 42.8666 21.2H21.1332C20.9232 21.2 20.7485 21.271 20.6091 21.4129C20.4696 21.5548 20.3999 21.7326 20.3999 21.9462ZM48.2653 58.2667C45.5977 58.2667 43.3311 57.3181 41.4653 55.4209C39.5995 53.5236 38.6665 51.2681 38.6665 48.6542C38.6665 45.9321 39.5992 43.6425 41.4646 41.7855C43.33 39.9285 45.608 39 48.2986 39C50.9439 39 53.1999 39.9285 55.0666 41.7855C56.9332 43.6425 57.8666 45.9321 57.8666 48.6542C57.8666 51.2681 56.9332 53.5236 55.0666 55.4209C53.1999 57.3181 50.9328 58.2667 48.2653 58.2667Z" fill="white"/>
</g>
</svg>
