<svg width="75" height="56" viewBox="0 0 75 56" fill="none" xmlns="http://www.w3.org/2000/svg">
<path fill-rule="evenodd" clip-rule="evenodd" d="M37.0939 0L52.0751 22.6248C53.6532 23.7545 54.9059 24.6944 56.0019 25.5164C59.6237 28.2334 61.4622 29.6135 64.7606 30.2122C65.8511 30.4104 66.8801 30.42 68.5084 30.4349C69.1532 30.4407 69.8849 30.4482 70.6946 30.4653C71.7918 30.4863 72.6634 31.3874 72.642 32.4776C72.6246 33.3888 71.9872 34.1441 71.1378 34.3546L71.1389 34.3586C70.0074 34.641 68.6835 34.8816 67.3367 35.0222C66.128 35.1488 64.9073 35.1941 63.7986 35.1184C62.4942 35.0289 61.0949 34.6484 59.6655 34.0873L74.1751 56H37.0939H0.0129395L12.355 37.3612C12.0644 37.4555 11.766 37.5493 11.4587 37.6434L11.349 37.6732L11.3493 37.6743C10.3473 37.9186 9.33707 37.7348 8.51501 37.2397C7.69215 36.7444 7.05993 35.9406 6.81406 34.946C6.80441 34.9072 6.7961 34.8683 6.78886 34.8294C6.58187 33.8678 6.76821 32.9095 7.24386 32.1288C7.28595 32.059 7.33153 31.9935 7.3806 31.9311C7.88386 31.2107 8.64076 30.664 9.55934 30.4391L9.56738 30.4373C11.6603 29.8543 13.1889 29.2746 14.4871 28.4519C15.7859 27.6289 16.9434 26.5035 18.3102 24.8202C20.0777 22.6443 22.0245 20.9266 24.0957 19.6299L37.0939 0ZM29.6139 22.0288C31.339 21.4365 33.3783 21.1952 36.0608 21.2162C40.4113 21.2503 44.9125 22.9504 48.9769 25.5638C52.8926 28.081 59.3478 32.8303 63.9305 33.1445C66.0546 33.2899 68.6534 32.9393 70.6555 32.439C67.5233 32.3721 66.1058 32.4648 64.4024 32.1549C59.3754 31.2416 57.5605 28.9258 50.1513 23.686C40.2505 16.6837 28.0113 16.0241 19.8608 26.0585C16.8557 29.759 14.6568 31.0783 10.0347 32.3585C9.09093 32.5882 8.51394 33.535 8.7456 34.4737C8.97752 35.4112 9.93042 35.9849 10.8742 35.7549C13.3508 34.9983 15.2464 34.2389 16.8997 33.2153C16.8997 33.2755 16.9023 33.3355 16.909 33.396C16.1232 36.0914 15.0199 41.0552 9.16038 45.9495C8.40187 46.5541 8.28148 47.6544 8.88958 48.4079C9.49821 49.1603 10.6055 49.2812 11.3638 48.6764C15.2569 45.2043 17.6767 41.6806 19.047 37.1193C20.0182 38.3478 21.1437 39.2766 22.938 40.4798C30.7815 45.7396 50.2511 50.9613 58.6169 45.4804C65.7462 40.8101 55.9349 32.0955 52.9143 38.4397C50.868 42.7367 58.4115 44.202 57.8836 40.2679C57.8051 39.6818 57.5702 39.3317 57.0146 39.1498L57.0138 39.15C57.1305 39.3672 57.283 39.6056 57.3436 39.8398C58.0831 42.693 53.0328 41.9973 53.9044 39.4303C55.4343 34.925 62.4725 40.8083 57.5085 43.7395C51.1519 47.4937 37.236 43.8871 30.9164 41.1362C27.5263 39.6605 24.1863 37.8959 21.8966 35.0915C31.388 36.9275 45.7608 37.1348 53.5344 34.1827L55.7604 33.1333L53.3462 33.4719C42.9402 35.0446 32.0519 34.9077 21.8041 32.29C21.3027 32.1621 20.1747 31.6927 19.2036 31.4827C20.2777 30.5169 21.2767 29.3212 22.4358 27.8828C23.2688 26.8485 24.0421 25.9557 24.806 25.1892C24.5708 25.7703 24.4408 26.4049 24.4408 27.0696C24.4408 29.8543 26.7123 32.1115 29.5147 32.1115C32.3171 32.1115 34.5886 29.8543 34.5886 27.0696C34.5886 24.318 32.3704 22.0816 29.6139 22.0288Z" fill="#5C6571"/>
</svg>
