<svg width="132" height="40" viewBox="0 0 132 40" fill="none" xmlns="http://www.w3.org/2000/svg">
<path d="M10.0397 12.9701V0H0.0271506V18.3373C1.12253 16.6872 2.61017 15.3335 4.35728 14.397C6.10439 13.4605 8.05662 12.9703 10.0397 12.9701Z" fill="#5C6571"/>
<path d="M44.4002 29.9356C43.8738 29.9375 43.368 29.7318 42.9928 29.3633C42.6177 28.9948 42.4035 28.4933 42.397 27.9679V0H32.3314V29.9744C32.3342 32.6319 33.3929 35.1798 35.2752 37.0592C37.1575 38.9387 39.7098 39.9963 42.3723 40H57.3841V29.9427L44.4002 29.9356Z" fill="#5C6571"/>
<path d="M30.3272 27.0198H20.3111V39.9899H30.3272V27.0198Z" fill="#5C6571"/>
<path d="M20.3111 0.00370235H30.3272V12.9703H20.3111V0.00370235Z" fill="#5C6571"/>
<path d="M2.94378 17.9106C4.8261 16.0311 7.3784 14.9736 10.0409 14.9698H30.3204V25.0377H12.0724C11.5501 25.0375 11.0485 25.2409 10.6743 25.6045C10.3001 25.9681 10.0829 26.4632 10.0691 26.9843V39.9897H0V24.9954C0.00280391 22.3379 1.06147 19.79 2.94378 17.9106Z" fill="#5C6571"/>
<path d="M65.3367 0V6.92938H71.3888V0H75.3528V18.0164H71.3888V10.752H65.3367V18.0164H61.3726V0H65.3367Z" fill="#5C6571"/>
<path fill-rule="evenodd" clip-rule="evenodd" d="M83.4885 15.675C82.478 15.675 81.7031 15.4141 81.1637 14.8922C80.6267 14.3738 80.3299 13.5345 80.2805 12.3849H89.6995C89.7671 11.4113 89.6812 10.4332 89.4451 9.4862C89.2251 8.5973 88.8352 7.75915 88.2969 7.01772C87.763 6.29241 87.0676 5.70087 86.2654 5.28978C85.3711 4.83843 84.381 4.60862 83.3789 4.61976C82.4477 4.6089 81.5242 4.78894 80.6656 5.14872C79.8685 5.48388 79.149 5.97891 78.5516 6.60312C77.9542 7.22732 77.4916 7.96738 77.1926 8.77739C76.869 9.64834 76.7074 10.5709 76.7156 11.4998C76.7055 12.444 76.8634 13.3824 77.182 14.2715C77.4708 15.076 77.9217 15.8129 78.5069 16.4367C79.0929 17.0549 79.8082 17.5365 80.602 17.8473C81.488 18.1853 82.4305 18.3517 83.3789 18.3375C84.7059 18.3768 86.0157 18.0301 87.1487 17.3395C88.1897 16.6671 88.9635 15.5493 89.4699 13.9859H86.3149C86.1347 14.4661 85.7957 14.8704 85.3539 15.132C84.8041 15.5028 84.1518 15.6927 83.4885 15.675ZM83.2623 7.33509C84.135 7.33509 84.7886 7.56784 85.2161 8.04038C85.7049 8.62814 86.0205 9.33991 86.1276 10.0963H80.2946C80.3182 9.8054 80.3738 9.51801 80.4607 9.23935C80.5591 8.90741 80.7224 8.5982 80.9411 8.32954C81.191 8.03361 81.5004 7.79333 81.8491 7.62426C82.2913 7.41974 82.7752 7.32074 83.2623 7.33509Z" fill="#5C6571"/>
<path fill-rule="evenodd" clip-rule="evenodd" d="M91.6684 6.90459C92.032 6.35798 92.5152 5.90098 93.0816 5.56808C93.6813 5.22573 94.3347 4.98726 95.0142 4.8628C95.7247 4.71901 96.4479 4.64695 97.1729 4.64769C97.8395 4.64762 98.5053 4.69357 99.1655 4.78522C99.8047 4.86993 100.427 5.05313 101.01 5.32829C101.549 5.58445 102.016 5.96968 102.37 6.44968C102.748 7.00961 102.935 7.67609 102.903 8.35042V15.1211C102.901 15.6845 102.934 16.2475 103.002 16.8067C103.034 17.2302 103.154 17.6422 103.356 18.0163H99.7202C99.6536 17.814 99.5993 17.608 99.5577 17.3992C99.5142 17.1874 99.4847 16.973 99.4693 16.7574C98.9143 17.3367 98.2179 17.762 97.4484 17.9916C96.6791 18.2266 95.8788 18.3455 95.0743 18.3442C94.4872 18.3487 93.9023 18.2728 93.336 18.1186C92.8223 17.9803 92.3418 17.7405 91.9228 17.4133C91.5179 17.0947 91.1925 16.6867 90.9724 16.2213C90.7288 15.6746 90.6082 15.0811 90.6191 14.4828C90.5948 13.8512 90.7283 13.2234 91.0077 12.6562C91.2507 12.2009 91.5967 11.8085 92.0182 11.5101C92.448 11.2152 92.9263 10.9979 93.4314 10.8683C93.9578 10.7207 94.4921 10.603 95.0319 10.5156C95.5724 10.431 96.0918 10.364 96.6252 10.3146C97.0929 10.273 97.557 10.1975 98.0137 10.0889C98.3609 10.0124 98.6875 9.86205 98.9712 9.64813C99.0912 9.54471 99.1839 9.41344 99.2412 9.26587C99.2985 9.1183 99.3186 8.95894 99.2998 8.8018C99.3148 8.48386 99.2492 8.16727 99.109 7.8814C98.99 7.66384 98.8158 7.4814 98.6037 7.35244C98.3786 7.22229 98.1302 7.13725 97.8724 7.10207C97.5752 7.05979 97.2753 7.03858 96.975 7.03859C96.3862 7.00674 95.8027 7.16501 95.311 7.48997C95.0925 7.67779 94.9166 7.90979 94.7948 8.17059C94.673 8.4314 94.6081 8.71507 94.6044 9.0028H91.036C91.0557 8.25965 91.2741 7.53526 91.6684 6.90459ZM98.7345 11.9579C98.4946 12.0354 98.2504 12.099 98.0031 12.1484C97.7417 12.1977 97.4697 12.24 97.1835 12.2718C96.8973 12.3035 96.6111 12.3494 96.325 12.3987C96.0547 12.4482 95.788 12.5154 95.5265 12.5997C95.2819 12.678 95.0525 12.7972 94.8481 12.9524C94.6528 13.0947 94.4922 13.2791 94.3782 13.4919C94.2542 13.7514 94.1948 14.0369 94.2051 14.3241C94.1949 14.6035 94.2543 14.881 94.3782 15.1317C94.4908 15.3421 94.6565 15.5195 94.8587 15.6465C95.0747 15.7799 95.3148 15.8697 95.5653 15.911C95.8392 15.9616 96.1171 15.9876 96.3956 15.9886C96.965 16.0202 97.5324 15.8984 98.0385 15.636C98.392 15.4312 98.6875 15.14 98.897 14.7896C99.0774 14.4837 99.1973 14.1462 99.2503 13.7952C99.2892 13.5277 99.3104 13.2579 99.3139 12.9876V11.637C99.1498 11.782 98.9573 11.8913 98.7486 11.9579H98.7345Z" fill="#5C6571"/>
<path d="M108.486 18.0164V0H104.9V18.0164H108.486Z" fill="#5C6571"/>
<path d="M117.85 4.61959V7.38429H115.225V13.8341C115.225 14.4406 115.324 14.8426 115.525 15.0436C115.727 15.2446 116.133 15.3469 116.737 15.3469C116.932 15.3514 117.127 15.3431 117.32 15.3222C117.497 15.3046 117.673 15.2799 117.85 15.2446V18.0164C117.516 18.0716 117.178 18.1057 116.84 18.1187C116.663 18.1187 116.48 18.1248 116.297 18.131C116.114 18.1372 115.932 18.1433 115.755 18.1433C115.226 18.1446 114.699 18.1069 114.176 18.0305C113.715 17.9673 113.27 17.8177 112.865 17.5897C112.483 17.3699 112.171 17.0457 111.968 16.6552C111.728 16.1618 111.615 15.6163 111.639 15.0683V7.38429H109.466V4.61959H111.643V0H115.229V4.61959H117.85Z" fill="#5C6571"/>
<path d="M122.77 6.80596V0H119.184V18.0164H122.77V11.1893C122.77 9.86335 122.989 8.9077 123.427 8.32937C123.865 7.75104 124.571 7.45834 125.547 7.45834C126.405 7.45834 127.009 7.7193 127.341 8.25179C127.673 8.78427 127.843 9.58477 127.843 10.6603V18.0164H131.429V10.0044C131.437 9.26414 131.365 8.5252 131.214 7.80041C131.097 7.18806 130.842 6.61033 130.468 6.11126C130.09 5.6286 129.59 5.25497 129.02 5.02865C128.266 4.74245 127.462 4.60937 126.656 4.63722C125.936 4.64886 125.229 4.82627 124.589 5.1556C123.856 5.5196 123.25 6.09444 122.847 6.80596H122.77Z" fill="#5C6571"/>
<path d="M65.3367 21.9981V36.2624H74.1198V39.9898H61.3726V22.0052L65.3367 21.9981Z" fill="#5C6571"/>
<path d="M75.681 22.0119V25.5383H79.267V22.0119H75.681Z" fill="#5C6571"/>
<path d="M79.267 39.9965V26.9488H75.681V39.9965H79.267Z" fill="#5C6571"/>
<path d="M84.8699 26.9595V28.7756H84.9441C85.3529 28.0604 85.9687 27.4852 86.7106 27.1252C87.4013 26.7869 88.16 26.6096 88.9294 26.6069C89.7355 26.579 90.539 26.7121 91.293 26.9983C91.8618 27.2275 92.361 27.6006 92.7415 28.0809C93.1122 28.5819 93.3668 29.1589 93.487 29.7701C93.638 30.4948 93.7103 31.2338 93.7025 31.9741V39.9896H90.12V32.63C90.12 31.5556 89.9528 30.7539 89.6183 30.225C89.2838 29.696 88.6856 29.4315 87.8235 29.4315C86.8484 29.4315 86.1418 29.7207 85.7037 30.299C85.2656 30.8773 85.0466 31.833 85.0466 33.1589V39.9896H81.4641V26.9595H84.8699Z" fill="#5C6571"/>
<path d="M99.2178 31.6464V21.9981L95.6317 22.0052V39.9898H99.2178V35.5043L100.606 34.1678L104.192 39.9793H108.531L103.055 31.7381L107.976 26.9598H103.736L99.2178 31.6464Z" fill="#5C6571"/>
</svg>
