<svg width="185" height="50" viewBox="0 0 185 50" fill="none" xmlns="http://www.w3.org/2000/svg">
<path d="M19.11 3.47853C20.1274 4.84709 20.7161 6.48658 20.8019 8.18972C20.8603 9.32145 20.6948 10.4536 20.3148 11.5212C19.9349 12.5889 19.3479 13.571 18.5877 14.4114C17.8274 15.2518 16.9088 15.9338 15.8844 16.4185C14.86 16.9031 13.7501 17.1809 12.6182 17.2357C10.915 17.3205 9.22489 16.8983 7.76159 16.0227C6.29829 15.147 5.12747 13.8571 4.39716 12.3161C3.66686 10.7751 3.40985 9.0522 3.65864 7.36515C3.90742 5.67809 4.65084 4.10268 5.79488 2.83809C6.93893 1.57349 8.43224 0.676497 10.086 0.260506C11.7398 -0.155485 13.4798 -0.0717933 15.086 0.501001C16.6922 1.0738 18.0926 2.10997 19.11 3.47853Z" fill="#5C6571"/>
<path d="M67.1793 12.6852V19.9621H72.7426V21.937H67.1793V31.4949C67.1793 33.6757 67.7356 35.0387 70.0667 35.0387C70.9347 34.9952 71.7839 34.7697 72.559 34.3767L73.299 36.3405C72.2772 36.855 71.1546 37.138 70.011 37.1695C66.3003 37.2029 64.8482 35.061 64.8482 31.4949V12.6852H67.1793Z" fill="#5C6571"/>
<path d="M58.3323 36.9302V27.339C58.3323 23.6338 56.2238 21.7311 52.7689 21.7311C49.4309 21.7311 47.1611 24.3626 47.1611 27.6172V36.9302H44.83V19.8229H47.0554L47.1277 22.6992C49.1694 19.3055 53.392 19.0607 56.1292 20.0343C58.8664 21.0079 60.6967 23.5337 60.6967 27.3056V36.9302H58.3323Z" fill="#5C6571"/>
<path d="M98.1123 31.4949V12.6852H95.7924V31.4949C95.7924 35.061 97.2499 37.2029 100.95 37.1695C102.093 37.14 103.216 36.8569 104.238 36.3405L103.514 34.3989C102.739 34.7926 101.89 35.0182 101.022 35.061C98.702 35.061 98.1123 33.6757 98.1123 31.4949Z" fill="#5C6571"/>
<path fill-rule="evenodd" clip-rule="evenodd" d="M77.5425 29.3805C77.8207 32.98 80.6246 35.0607 84.0183 35.0607C86.0267 35.0607 88.6247 34.2651 89.8042 32.7019L91.3563 34.0927C89.6873 36.2012 86.7555 37.2749 84.0183 37.2749C78.9278 37.2749 75.1503 33.809 75.1503 28.3736C75.1503 23.2831 78.8277 19.4722 83.9181 19.5835C89.003 19.4778 93.0921 22.6656 92.4356 29.3805H77.5425ZM90.2492 27.4055C90.1491 23.667 87.4119 21.6252 83.946 21.6252C80.48 21.6252 77.9932 23.667 77.5425 27.4055H90.2492Z" fill="#5C6571"/>
<path fill-rule="evenodd" clip-rule="evenodd" d="M114.557 35.0381C111.164 35.0381 108.349 32.9797 108.081 29.3802L122.969 29.3579C123.625 22.643 119.542 19.4552 114.451 19.5609C109.361 19.4496 105.689 23.2605 105.689 28.351C105.689 33.7864 109.467 37.2523 114.557 37.2523C117.289 37.2523 120.226 36.1786 121.895 34.0701L120.338 32.6793C119.158 34.2426 116.566 35.0381 114.557 35.0381ZM114.485 21.6249C117.951 21.6249 120.682 23.6666 120.788 27.4052H108.081C108.532 23.6666 111.019 21.6249 114.485 21.6249Z" fill="#5C6571"/>
<path d="M128.76 19.8223L128.9 22.6318C130.012 20.3063 132.238 19.5497 134.335 19.5497C135.732 19.501 137.105 19.9265 138.229 20.757L137.15 22.6986C136.283 22.1059 135.257 21.7915 134.207 21.7973C133.501 21.7918 132.801 21.9286 132.149 22.1995C131.497 22.4703 130.906 22.8698 130.412 23.3739C129.918 23.8781 129.53 24.4766 129.272 25.1339C129.014 25.7911 128.891 26.4936 128.911 27.1993V36.9296H126.591V19.8223H128.76Z" fill="#5C6571"/>
<path fill-rule="evenodd" clip-rule="evenodd" d="M156.544 19.8225H154.358V23.2051C153.045 20.785 150.202 19.5722 147.576 19.5722C142.708 19.5722 138.814 22.9269 138.814 28.3623C138.814 33.7977 142.691 37.2636 147.537 37.2636C148.905 37.2843 150.254 36.9521 151.456 36.2992C152.657 35.6463 153.67 34.6947 154.397 33.5362V36.9298H156.544V19.8225ZM147.643 35.0828C144.01 35.0828 141.134 32.379 141.134 28.3623C141.134 24.3622 144.01 21.6863 147.643 21.6807C156.472 21.6807 156.472 35.0828 147.643 35.0828Z" fill="#5C6571"/>
<path fill-rule="evenodd" clip-rule="evenodd" d="M177.945 12.7289V36.9295H175.719L175.647 33.5358C174.968 34.7102 173.983 35.6776 172.796 36.3342C171.609 36.9909 170.265 37.3121 168.91 37.2633C164.064 37.2633 160.287 34.081 160.287 28.4009C160.287 22.7207 164.064 19.4661 168.91 19.5718C171.575 19.5385 174.345 20.7123 175.625 23.2436V12.7289H177.945ZM162.612 28.412C162.612 32.7013 165.483 35.0602 169.049 35.0602C172.721 35.0602 175.53 32.3564 175.53 28.3842C175.565 27.5177 175.423 26.6532 175.111 25.8439C174.8 25.0346 174.326 24.2977 173.718 23.6785C173.111 23.0593 172.384 22.571 171.581 22.2436C170.778 21.9163 169.916 21.7567 169.049 21.7749C165.483 21.7638 162.612 24.0837 162.612 28.412Z" fill="#5C6571"/>
<path d="M40.8982 36.9299V12.6904H38.7229V36.9299H40.8982Z" fill="#5C6571"/>
<path d="M182.165 36.8801L182.163 36.8799H182.174L182.165 36.8801Z" fill="#5C6571"/>
<path fill-rule="evenodd" clip-rule="evenodd" d="M183.059 36.1845V36.2513H182.736L182.135 35.5447H181.785V36.2513H181.49V34.2985H182.341C182.497 34.2922 182.649 34.3451 182.768 34.4467C182.886 34.5482 182.962 34.6908 182.98 34.8458C182.997 35.0009 182.956 35.1568 182.863 35.2824C182.77 35.4079 182.633 35.4937 182.48 35.5225L183.059 36.1845ZM181.785 34.5767V35.2777H182.341C182.387 35.2777 182.433 35.2686 182.475 35.251C182.518 35.2334 182.556 35.2076 182.589 35.175C182.621 35.1425 182.647 35.1039 182.665 35.0613C182.682 35.0188 182.691 34.9732 182.691 34.9272C182.691 34.8812 182.682 34.8356 182.665 34.7931C182.647 34.7506 182.621 34.7119 182.589 34.6794C182.556 34.6468 182.518 34.621 182.475 34.6034C182.433 34.5858 182.387 34.5767 182.341 34.5767H181.785Z" fill="#5C6571"/>
<path fill-rule="evenodd" clip-rule="evenodd" d="M184.01 35.2888C184.007 35.6547 183.895 36.0115 183.689 36.3141C183.484 36.6166 183.193 36.8515 182.854 36.989C182.514 37.1265 182.142 37.1604 181.784 37.0866C181.425 37.0128 181.097 36.8345 180.84 36.5742C180.582 36.3139 180.408 35.9833 180.339 35.624C180.269 35.2648 180.308 34.893 180.449 34.5555C180.591 34.2181 180.829 33.9301 181.134 33.7279C181.439 33.5258 181.797 33.4185 182.163 33.4195C182.41 33.4082 182.658 33.449 182.888 33.5392C183.119 33.6295 183.328 33.7672 183.502 33.9434C183.676 34.1196 183.812 34.3304 183.899 34.5622C183.986 34.7939 184.024 35.0415 184.01 35.2888ZM182.165 36.8801C182.481 36.8985 182.795 36.822 183.068 36.6603C183.34 36.4982 183.558 36.258 183.693 35.9708C183.828 35.6836 183.873 35.3625 183.824 35.0492C183.774 34.7358 183.631 34.4446 183.415 34.2131C183.198 33.9815 182.916 33.8204 182.607 33.7506C182.297 33.6807 181.974 33.7053 181.679 33.8212C181.383 33.937 181.129 34.1388 180.95 34.4004C180.77 34.6621 180.674 34.9716 180.672 35.2888C180.656 35.4942 180.684 35.7006 180.753 35.8947C180.822 36.0888 180.93 36.2664 181.072 36.4162C181.213 36.566 181.384 36.6846 181.574 36.7644C181.761 36.8431 181.962 36.8825 182.165 36.8801Z" fill="#5C6571"/>
<path d="M7.23436 46.4098C7.23436 46.4098 12.3749 38.4208 11.2622 31.0883C10.2292 24.2908 3.91598 18.7162 3.0268 17.931C2.95828 17.8705 2.92197 17.8384 2.92277 17.8364C1.24263 16.4901 0.152218 17.23 0.491583 19.5054L4.45269 45.6532C4.78649 47.9286 6.03824 48.268 7.23436 46.4098Z" fill="#5C6571"/>
<path d="M13.8609 30.9046C15.0682 22.6264 23.619 15.7668 23.619 15.7668C25.288 14.4204 26.4007 15.1826 26.0558 17.4358L21.6051 48.0676C21.2768 50.3319 20.0195 50.6545 18.8234 48.7797C18.8067 48.7908 12.6592 39.1829 13.8609 30.9046Z" fill="#5C6571"/>
</svg>
