<svg width="123" height="50" viewBox="0 0 123 50" fill="none" xmlns="http://www.w3.org/2000/svg">
<path d="M8.13405 3.90341C8.86454 3.86964 9.58891 4.05055 10.2176 4.42377C10.6995 4.74371 11.1078 5.16231 11.4156 5.65183L14.3429 3.88259C13.8505 2.92263 13.0812 2.13231 12.1344 1.61381C10.9097 0.947267 9.52761 0.623646 8.13405 0.677152C7.27957 0.662568 6.42832 0.785561 5.613 1.04141C4.88834 1.2558 4.21247 1.6093 3.62325 2.08213C3.05412 2.57869 2.60529 3.19788 2.31064 3.893C1.98457 4.63349 1.82457 5.43626 1.84185 6.24505C1.82957 6.9607 1.97169 7.67061 2.25856 8.3265C2.51008 8.87689 2.86355 9.37478 3.30031 9.79393C3.79998 10.251 4.36098 10.6363 4.96711 10.9387C5.66509 11.2822 6.37348 11.584 7.05062 11.8546L8.80077 12.4894C9.22153 12.6508 9.62048 12.8641 9.98837 13.1243C10.2776 13.3192 10.5167 13.5795 10.6863 13.884C10.8554 14.2042 10.938 14.5629 10.9259 14.9247C10.9259 16.465 9.88419 17.2351 7.93611 17.2351C7.02428 17.2336 6.1192 17.0788 5.25881 16.7772C4.39659 16.4836 3.58489 16.0588 2.85236 15.5179L1.2168 18.5569C2.13447 19.1731 3.13853 19.6501 4.19622 19.9722C5.34911 20.3156 6.54558 20.4908 7.7486 20.4926C8.71101 20.503 9.66958 20.3697 10.5926 20.0971C11.3936 19.8664 12.1383 19.4731 12.7803 18.9419C13.3779 18.4402 13.855 17.8106 14.1762 17.0998C14.5188 16.3236 14.6859 15.4814 14.6658 14.6333C14.6872 13.8853 14.5523 13.1409 14.27 12.4478C14.0163 11.8494 13.6401 11.3105 13.1657 10.8659C12.6623 10.4086 12.0979 10.0233 11.4885 9.72108C10.7914 9.37182 10.0749 9.06257 9.34248 8.79483C8.39413 8.4728 7.47708 8.06524 6.60267 7.57718C6.28863 7.42153 6.02456 7.18105 5.84042 6.88304C5.65628 6.58503 5.55945 6.24141 5.56091 5.8912C5.55016 5.60815 5.61141 5.327 5.73894 5.07402C5.86647 4.82104 6.05611 4.60448 6.29014 4.44459C6.82772 4.06496 7.47635 3.87459 8.13405 3.90341ZM24.8646 20.4822C25.8797 20.5055 26.8939 20.4076 27.8857 20.1908C28.6439 20.0066 29.3832 19.7523 30.0942 19.4311L29.3441 16.746C28.7173 17.0305 28.0603 17.2435 27.3857 17.3808C26.6245 17.5353 25.8496 17.612 25.073 17.6098C23.9991 17.682 22.9329 17.3845 22.0519 16.7668C21.6807 16.4636 21.3742 16.0891 21.1505 15.6654C20.9268 15.2417 20.7905 14.7775 20.7497 14.3003H30.6776V13.7799C30.6977 12.6744 30.5322 11.5733 30.188 10.5224C29.8963 9.64696 29.4243 8.84221 28.8024 8.15999C28.218 7.53614 27.5079 7.0431 26.7189 6.71337C25.898 6.38555 25.0193 6.22628 24.1354 6.24505C23.2085 6.23319 22.2883 6.40291 21.4268 6.7446C20.6119 7.07228 19.8753 7.56789 19.265 8.19911C18.6547 8.83033 18.1844 9.58297 17.8849 10.408C17.5206 11.3609 17.3437 12.375 17.364 13.3948C17.351 14.3634 17.528 15.325 17.8849 16.2256C18.2269 17.074 18.7453 17.8402 19.4058 18.4736C20.0848 19.1275 20.8941 19.6311 21.781 19.9514C22.7677 20.3154 23.8129 20.4953 24.8646 20.4822ZM24.1354 8.84687C24.9058 8.83346 25.6518 9.11667 26.2189 9.63782C26.8452 10.2235 27.2189 11.0297 27.2606 11.8858H20.8539C20.994 11.0309 21.4156 10.2472 22.0519 9.65863C22.618 9.13357 23.3629 8.84335 24.1354 8.84687ZM37.3448 6.48441H33.9799V20.2116H37.3448V11.5319C37.8158 10.9444 38.3959 10.4532 39.0533 10.0853C39.9094 9.62474 40.8735 9.40192 41.8452 9.44008H42.314L41.8452 6.40116H41.3451C40.5463 6.39221 39.757 6.57419 39.0429 6.93193C38.2953 7.33407 37.6965 7.96512 37.3344 8.73239L37.3448 6.48441ZM48.7103 20.2116H51.9189L57.5444 6.48441H54.0129L50.3772 15.955L46.7727 6.48441H43.0015L48.7103 20.2116ZM63.1491 6.48441H59.7634V20.2116H63.1595L63.1491 6.48441ZM59.43 2.08213C59.4251 2.35499 59.4761 2.62595 59.58 2.87833C59.684 3.13071 59.8385 3.35915 60.0342 3.54956C60.228 3.74435 60.4585 3.89889 60.7124 4.00428C60.9663 4.10966 61.2386 4.16381 61.5135 4.16359C61.7922 4.1707 62.0695 4.12187 62.329 4.01997C62.5884 3.91807 62.8248 3.76519 63.024 3.57038C63.2223 3.37756 63.3784 3.14573 63.4824 2.88957C63.5864 2.6334 63.6361 2.35846 63.6283 2.08213C63.6312 1.80646 63.5793 1.53293 63.4756 1.27745C63.3719 1.02197 63.2184 0.789622 63.024 0.593894C62.8248 0.399081 62.5884 0.246197 62.329 0.1443C62.0695 0.0424032 61.7922 -0.00643486 61.5135 0.000679123C60.9648 -0.00253214 60.437 0.210636 60.0446 0.593894C59.8484 0.788762 59.693 1.02072 59.5874 1.27624C59.4819 1.53177 59.4284 1.80572 59.43 2.08213ZM73.6499 9.28397C74.3582 9.26826 75.056 9.4561 75.6605 9.82515C76.2032 10.1527 76.6659 10.5972 77.0148 11.1261L79.2337 8.96135C78.5909 8.10112 77.7467 7.41146 76.7752 6.95274C75.7689 6.46576 74.6639 6.2165 73.5458 6.22423C72.5456 6.20811 71.5517 6.38479 70.6184 6.7446C69.7732 7.06604 69.0035 7.55854 68.3578 8.19121C67.7265 8.82183 67.2334 9.57673 66.9098 10.408C66.5673 11.3265 66.3978 12.3003 66.4097 13.2804C66.3974 14.287 66.5777 15.2867 66.941 16.2256C67.2802 17.0816 67.7988 17.8552 68.462 18.4944C69.1404 19.1414 69.9456 19.6411 70.8268 19.9618C71.8293 20.3194 72.8876 20.4956 73.952 20.4822C74.9549 20.4946 75.9545 20.365 76.921 20.0971C77.713 19.8772 78.4704 19.5479 79.1712 19.1189L78.3066 16.2048C77.694 16.5394 77.0525 16.8181 76.3897 17.0374C75.6815 17.256 74.9432 17.3614 74.202 17.3496C73.633 17.3822 73.0633 17.3005 72.5265 17.1092C71.9896 16.918 71.4967 16.621 71.0768 16.236C70.7021 15.8587 70.4103 15.4074 70.2202 14.911C70.03 14.4146 69.9457 13.884 69.9725 13.3532C69.9608 12.7719 70.0562 12.1933 70.2538 11.6464C70.4256 11.1888 70.6838 10.7684 71.0143 10.408C71.3425 10.0572 71.7446 9.78347 72.1915 9.6066C72.647 9.41889 73.1364 9.32679 73.6291 9.33601L73.6499 9.28397ZM88.8908 20.4822C89.9058 20.505 90.9199 20.4072 91.9119 20.1908C92.6662 20.0049 93.4019 19.7506 94.11 19.4311L93.3703 16.746C92.7465 17.0289 92.0931 17.2419 91.4222 17.3808C90.661 17.5348 89.8862 17.6115 89.1096 17.6098C88.0429 17.6747 86.9857 17.3776 86.1093 16.7668C85.7378 16.4647 85.4317 16.0902 85.2096 15.6662C84.9875 15.2422 84.8541 14.7774 84.8175 14.3003H94.735V13.7799C94.7551 12.6744 94.5896 11.5733 94.2454 10.5224C93.9594 9.65117 93.4986 8.84731 92.8911 8.15999C92.3029 7.54055 91.5938 7.0482 90.8076 6.71337C89.9707 6.37773 89.0734 6.2183 88.172 6.24505C87.2451 6.23319 86.3249 6.40291 85.4634 6.7446C84.6493 7.06322 83.9111 7.54894 83.2966 8.17039C82.6644 8.80631 82.1744 9.56895 81.8589 10.408C81.4947 11.3609 81.3178 12.375 81.3381 13.3948C81.3257 14.371 81.5062 15.3401 81.8694 16.2464C82.2153 17.0928 82.7332 17.8582 83.3903 18.4944C84.0771 19.1459 84.8885 19.6521 85.7759 19.9827C86.7744 20.34 87.8305 20.5094 88.8908 20.4822ZM88.1824 8.84687C88.9528 8.83346 89.6988 9.11667 90.2659 9.63782C90.8869 10.2273 91.2595 11.0313 91.3076 11.8858H84.8696C85.0029 11.0377 85.4088 10.256 86.026 9.65863C86.6104 9.11599 87.3848 8.82445 88.1824 8.84687ZM102.454 8.74279C103.018 8.74169 103.574 8.86987 104.08 9.11746C104.541 9.34604 104.946 9.67287 105.267 10.0749L107.476 8.3265C106.982 7.66977 106.335 7.14437 105.59 6.79663C104.613 6.34174 103.542 6.1242 102.465 6.16179C101.758 6.14693 101.054 6.24891 100.381 6.4636C99.8183 6.64128 99.2923 6.91988 98.8291 7.28577C98.3903 7.64592 98.0349 8.09686 97.7874 8.6075C97.5082 9.16564 97.3722 9.78432 97.3915 10.408C97.3714 10.9534 97.4821 11.4958 97.7144 11.9899C97.9309 12.4321 98.2358 12.8252 98.6103 13.1451C99.0045 13.4854 99.4513 13.7596 99.9334 13.9568C100.458 14.1847 100.997 14.3759 101.548 14.5292C102.079 14.6749 102.527 14.8102 102.913 14.9351C103.242 15.038 103.559 15.174 103.861 15.341C104.07 15.4565 104.251 15.6163 104.392 15.8093C104.506 15.9857 104.564 16.1925 104.559 16.4025C104.562 16.6145 104.508 16.8234 104.401 17.0068C104.295 17.1902 104.14 17.3411 103.955 17.4433C103.436 17.717 102.852 17.8396 102.267 17.7971C101.494 17.7959 100.726 17.6837 99.9855 17.4641C99.2743 17.258 98.597 16.9494 97.9749 16.5483L96.7769 19.098C97.5505 19.5518 98.3806 19.9017 99.2458 20.1388C100.266 20.4032 101.318 20.5257 102.371 20.503C103.822 20.5791 105.256 20.1568 106.434 19.3062C106.906 18.9239 107.283 18.4372 107.534 17.8845C107.785 17.3318 107.904 16.7282 107.882 16.1216C107.893 15.5857 107.79 15.0537 107.58 14.5605C107.383 14.1259 107.1 13.7363 106.746 13.4157C106.356 13.0801 105.922 12.7999 105.455 12.5831C104.912 12.3336 104.351 12.1248 103.777 11.9586C102.983 11.741 102.21 11.4555 101.465 11.1052C101.242 11.0197 101.049 10.8705 100.91 10.6762C100.771 10.4819 100.692 10.2511 100.683 10.0125C100.675 9.81827 100.722 9.62564 100.817 9.45642C100.913 9.2872 101.054 9.14814 101.225 9.05501C101.593 8.83469 102.015 8.72284 102.444 8.73239L102.454 8.74279ZM5.50883 45.2307H13.1345L14.6971 49.685H18.6141L11.3947 30.4212H7.3944L0.175049 49.685H3.92536L5.50883 45.2307ZM9.33206 34.4384L12.0927 42.3063H6.55058L9.33206 34.4384ZM24.2396 35.9266H20.8226V44.1484C20.7265 45.6909 21.1969 47.2154 22.1456 48.4362C22.6424 48.9612 23.2495 49.3697 23.9231 49.6324C24.5968 49.8951 25.3203 50.0055 26.0418 49.9556C26.945 49.983 27.8416 49.7939 28.6566 49.404C29.3576 49.0466 29.9919 48.5713 30.5317 47.999V49.685H33.9487V35.9266H30.5317V45.1266C30.1049 45.6402 29.5898 46.0737 29.0108 46.4067C28.4264 46.7491 27.761 46.9287 27.0835 46.9271C26.6967 46.9465 26.3103 46.8821 25.9507 46.7384C25.591 46.5947 25.2668 46.3751 25 46.0945C24.4688 45.4168 24.1989 44.5711 24.2396 43.7113V35.9266ZM42.6682 38.2058C43.2363 38.202 43.7971 38.3341 44.3037 38.5909C44.7676 38.8153 45.1738 39.1428 45.4913 39.5483L47.6478 37.8415C47.1578 37.1789 46.5096 36.6493 45.7622 36.3013C44.7846 35.8479 43.7141 35.6304 42.6369 35.6664C41.9514 35.658 41.269 35.7599 40.6159 35.9682C40.0365 36.1421 39.4956 36.4246 39.022 36.8008C38.5866 37.1643 38.2318 37.6144 37.9803 38.1225C37.7212 38.6684 37.5928 39.267 37.6053 39.871C37.5863 40.4197 37.6969 40.9652 37.9282 41.4633C38.1445 41.8997 38.4455 42.2889 38.8137 42.6081C39.2154 42.946 39.6647 43.223 40.1471 43.4303C40.6735 43.6501 41.2127 43.8378 41.7618 43.9922L43.1265 44.3981C43.4547 44.503 43.7722 44.6389 44.0745 44.804C44.2838 44.9195 44.4651 45.0793 44.6058 45.2723C44.7201 45.4487 44.7782 45.6555 44.7725 45.8656C44.7761 46.0775 44.7217 46.2864 44.6152 46.4698C44.5087 46.6532 44.3542 46.8041 44.1683 46.9063C43.6634 47.176 43.094 47.302 42.5223 47.2705C41.7498 47.2693 40.9815 47.1571 40.2409 46.9375C39.5297 46.7314 38.8524 46.4228 38.2303 46.0217L37.0219 48.5819C37.8035 49.027 38.6359 49.3764 39.5012 49.6226C40.521 49.8886 41.5729 50.0112 42.6265 49.9868C44.0897 50.0813 45.5403 49.6656 46.731 48.8108C47.1944 48.4164 47.559 47.9194 47.796 47.3592C48.0329 46.7991 48.1356 46.1914 48.0957 45.5846C48.1149 45.048 48.0115 44.5142 47.7936 44.0235C47.6043 43.5878 47.3195 43.2002 46.9602 42.8891C46.5737 42.5536 46.1425 42.2734 45.6788 42.0565C45.1361 41.807 44.5755 41.5982 44.0016 41.4321C43.2183 41.2172 42.4549 40.9352 41.7202 40.5891C41.4966 40.5054 41.3035 40.3564 41.166 40.1615C41.0285 39.9666 40.953 39.7347 40.9493 39.4963C40.9389 39.308 40.98 39.1204 41.068 38.9536C41.1561 38.7868 41.2879 38.647 41.4493 38.5492C41.8131 38.3178 42.237 38.1983 42.6682 38.2058ZM52.044 32.2945V35.9578H49.6167V38.9655H52.1065V44.1692C52.0382 44.959 52.1405 45.7543 52.4065 46.5012C52.6725 47.2481 53.096 47.9293 53.6483 48.4986C55.0523 49.5234 56.7811 50.0042 58.5132 49.8515H58.8154L59.2529 46.7294H59.0133C58.0937 46.7919 57.1808 46.5345 56.4297 46.0009C56.12 45.7089 55.8782 45.3524 55.7216 44.9568C55.565 44.5611 55.4973 44.1359 55.5234 43.7113V38.9655H59.4612V35.9578H55.5234V32.2632L52.044 32.2945ZM65.5868 35.9578H62.2844V49.685H65.6388V41.0054C66.112 40.4171 66.6915 39.9229 67.3473 39.5483C68.2196 39.0917 69.1969 38.8727 70.1809 38.9135H70.6497L70.1496 35.8746H69.66C68.858 35.8668 68.0655 36.0486 67.3473 36.4053C66.5979 36.8051 65.9984 37.4368 65.6388 38.2058L65.5868 35.9578ZM83.1195 47.3018C83.3865 47.9205 83.7887 48.4716 84.2966 48.9149C84.8163 49.3826 85.4477 49.7088 86.1301 49.8619L87.6823 46.9479C87.185 46.7621 86.7809 46.3883 86.5573 45.9072C86.3685 45.4487 86.2763 44.9562 86.2864 44.4606V35.9578H83.2028L83.0882 36.8008C82.491 36.4383 81.8458 36.1615 81.1714 35.9786C80.4516 35.7832 79.7088 35.6852 78.9629 35.6872C77.979 35.6756 77.0024 35.8559 76.0876 36.218C75.2389 36.5532 74.4665 37.0558 73.8166 37.6958C73.1657 38.3469 72.6582 39.1268 72.3269 39.9854C71.9644 40.9319 71.7841 41.9382 71.7956 42.9515C71.7825 43.9435 71.9447 44.9299 72.2748 45.8656C72.5653 46.6828 73.0229 47.4307 73.6187 48.0615C74.2057 48.672 74.9159 49.1509 75.7022 49.4665C76.5201 49.7945 77.394 49.9606 78.2753 49.9556C79.2653 49.9554 80.242 49.7275 81.1297 49.2896C82.0062 48.8481 82.7314 48.1561 83.2132 47.3018H83.1195ZM82.8174 39.6004V42.5248C82.838 43.1 82.7569 43.6742 82.5778 44.2212C82.4024 44.7301 82.13 45.2001 81.7756 45.6054C81.4285 45.9912 81.0068 46.3027 80.5359 46.5212C80.0335 46.7539 79.4853 46.8713 78.9316 46.8647C78.442 46.8878 77.953 46.807 77.4969 46.6276C77.0408 46.4482 76.628 46.1743 76.2856 45.8239C75.5744 45.0485 75.1998 44.0231 75.2438 42.9723C75.1805 41.8623 75.5544 40.7716 76.2856 39.9334C76.6816 39.5357 77.1574 39.2262 77.6816 39.0254C78.2059 38.8245 78.7668 38.7367 79.3275 38.7678C79.9472 38.7668 80.5641 38.8509 81.161 39.0176C81.7077 39.1606 82.2383 39.3594 82.7444 39.6108L82.8174 39.6004ZM93.8183 43.7633V29.2868H90.4742V44.1796C90.4064 44.9643 90.5029 45.7545 90.7576 46.4999C91.0123 47.2453 91.4196 47.9295 91.9535 48.509C93.2769 49.5292 94.9338 50.0191 96.5998 49.8828H96.7039L97.0894 46.7606C94.9746 46.7294 93.8704 45.7199 93.8704 43.7113L93.8183 43.7633ZM102.892 36.0099H99.5583V49.685H102.944L102.892 36.0099ZM99.1729 31.618C99.1669 31.8894 99.2175 32.1592 99.3215 32.41C99.4256 32.6609 99.5807 32.8873 99.7771 33.075C100.176 33.4628 100.71 33.6798 101.267 33.6798C101.823 33.6798 102.358 33.4628 102.757 33.075C102.953 32.8873 103.108 32.6609 103.212 32.41C103.316 32.1592 103.367 31.8894 103.361 31.618C103.371 31.3399 103.322 31.0627 103.218 30.8046C103.114 30.5464 102.957 30.313 102.757 30.1193C102.354 29.7387 101.821 29.5266 101.267 29.5266C100.713 29.5266 100.18 29.7387 99.7771 30.1193C99.4137 30.5127 99.216 31.0308 99.225 31.566L99.1729 31.618ZM117.518 47.3538C117.792 47.9538 118.194 48.4866 118.695 48.9149C119.217 49.3792 119.848 49.7049 120.529 49.8619L122.06 46.9479C121.566 46.7565 121.164 46.3844 120.935 45.9072C120.751 45.4472 120.659 44.9558 120.664 44.4606V35.9578H117.602L117.497 36.8008C116.898 36.4419 116.254 36.1654 115.581 35.9786C114.857 35.7823 114.111 35.6843 113.362 35.6872C112.381 35.6748 111.408 35.8552 110.497 36.218C109.645 36.5482 108.872 37.0515 108.226 37.6958C107.571 38.3441 107.063 39.1248 106.736 39.9854C106.37 40.9312 106.186 41.9376 106.194 42.9515C106.181 43.9435 106.343 44.9299 106.674 45.8656C106.964 46.6828 107.422 47.4307 108.017 48.0615C108.605 48.671 109.315 49.1498 110.101 49.4665C110.915 49.7945 111.786 49.9606 112.664 49.9556C113.657 49.9541 114.637 49.7263 115.528 49.2896C116.391 48.8429 117.101 48.1513 117.57 47.3018L117.518 47.3538ZM117.226 39.6524V42.5769C117.248 43.1529 117.163 43.7279 116.976 44.2732C116.808 44.7831 116.539 45.2538 116.185 45.6574C115.836 46.049 115.411 46.3643 114.935 46.5837C114.435 46.8133 113.89 46.9271 113.341 46.9167C112.85 46.94 112.359 46.8593 111.901 46.68C111.443 46.5006 111.029 46.2266 110.684 45.876C109.973 45.1005 109.599 44.0751 109.643 43.0244C109.585 41.9151 109.958 40.8264 110.684 39.9854C111.082 39.5875 111.56 39.2779 112.086 39.0771C112.612 38.8762 113.174 38.7886 113.737 38.8198C114.353 38.8196 114.966 38.9036 115.56 39.0696C116.109 39.2143 116.643 39.413 117.154 39.6628L117.226 39.6524Z" fill="#5C6571"/>
</svg>
