<svg width="64" height="64" viewBox="0 0 64 64" fill="none" xmlns="http://www.w3.org/2000/svg">
<mask id="mask0_2179_3127" style="mask-type:alpha" maskUnits="userSpaceOnUse" x="0" y="0" width="64" height="64">
<rect width="64" height="64" fill="#D9D9D9"/>
</mask>
<g mask="url(#mask0_2179_3127)">
<path d="M28.3153 52.8H35.6739C35.9357 52.8 36.1556 52.7222 36.3333 52.5666C36.5111 52.4111 36.6 52.1777 36.6 51.8666C36.6 51.6 36.5128 51.3777 36.3383 51.2C36.1639 51.0222 35.9456 50.9333 35.6833 50.9333H28.3167C28.0544 50.9333 27.8361 51.0222 27.6617 51.2C27.4872 51.3777 27.4 51.6 27.4 51.8666C27.4 52.1777 27.4871 52.4111 27.6613 52.5666C27.8354 52.7222 28.0535 52.8 28.3153 52.8ZM20.4 57.8666C19.3878 57.8666 18.5347 57.5197 17.8408 56.8258C17.1469 56.1319 16.8 55.2789 16.8 54.2666V9.7333C16.8 8.72108 17.1469 7.86801 17.8408 7.1741C18.5347 6.48023 19.3878 6.1333 20.4 6.1333H43.6C44.6122 6.1333 45.4653 6.48023 46.1592 7.1741C46.8531 7.86801 47.2 8.72108 47.2 9.7333V54.2666C47.2 55.2789 46.8531 56.1319 46.1592 56.8258C45.4653 57.5197 44.6122 57.8666 43.6 57.8666H20.4ZM18.2667 47.4V54.2666C18.2667 54.8 18.4889 55.2889 18.9333 55.7333C19.3778 56.1777 19.8667 56.4 20.4 56.4H43.6C44.1333 56.4 44.6222 56.1777 45.0667 55.7333C45.5111 55.2889 45.7333 54.8 45.7333 54.2666V47.4H18.2667ZM18.2667 45.9333H45.7333V13.2666H18.2667V45.9333ZM18.2667 11.8H45.7333V9.7333C45.7333 9.19997 45.5111 8.71108 45.0667 8.26663C44.6222 7.82219 44.1333 7.59997 43.6 7.59997H20.4C19.8667 7.59997 19.3778 7.82219 18.9333 8.26663C18.4889 8.71108 18.2667 9.19997 18.2667 9.7333V11.8Z" fill="#1B76FF"/>
</g>
</svg>
