<svg width="64" height="64" viewBox="0 0 64 64" fill="none" xmlns="http://www.w3.org/2000/svg">
<mask id="mask0_2219_4993" style="mask-type:alpha" maskUnits="userSpaceOnUse" x="0" y="0" width="64" height="64">
<rect width="64" height="64" fill="#D9D9D9"/>
</mask>
<g mask="url(#mask0_2219_4993)">
<path d="M32.7334 31.2667H53.7334C53.5556 25.5334 51.4445 20.6223 47.4 16.5334C43.3556 12.4445 38.4667 10.3556 32.7334 10.2667V31.2667ZM31.2667 53.7334V10.2667C25.4445 10.4 20.4889 12.5778 16.4 16.8C12.3112 21.0223 10.2667 26.0889 10.2667 32C10.2667 37.9112 12.3112 42.9778 16.4 47.2C20.4889 51.4223 25.4445 53.6 31.2667 53.7334ZM32.7334 53.7334C38.4667 53.6445 43.3445 51.5556 47.3667 47.4667C51.3889 43.3778 53.5112 38.4667 53.7334 32.7334H32.7334V53.7334ZM32.0116 55.2C28.8039 55.2 25.7876 54.5914 22.9628 53.374C20.138 52.1566 17.6808 50.5044 15.5912 48.4174C13.5016 46.3305 11.8474 43.8764 10.6284 41.0551C9.40952 38.2339 8.80005 35.2194 8.80005 32.0116C8.80005 28.8039 9.40874 25.7876 10.6261 22.9628C11.8435 20.138 13.4957 17.6808 15.5826 15.5912C17.6696 13.5016 20.1237 11.8474 22.945 10.6285C25.7662 9.40952 28.7807 8.80005 31.9884 8.80005C35.1962 8.80005 38.2112 9.41116 41.0334 10.6334C43.8556 11.8556 46.3112 13.5112 48.4 15.6C50.4889 17.6889 52.1445 20.1418 53.3667 22.9587C54.5889 25.7755 55.2 28.7963 55.2 32.0211C55.2 35.2071 54.5914 38.208 53.374 41.0239C52.1566 43.8399 50.5044 46.299 48.4174 48.4013C46.3305 50.5036 43.8764 52.1623 41.0551 53.3774C38.2339 54.5925 35.2194 55.2 32.0116 55.2Z" fill="#1B76FF"/>
</g>
</svg>
