<svg width="64" height="64" viewBox="0 0 64 64" fill="none" xmlns="http://www.w3.org/2000/svg">
<mask id="mask0_2219_7397" style="mask-type:alpha" maskUnits="userSpaceOnUse" x="0" y="0" width="64" height="64">
<rect width="64" height="64" fill="#D9D9D9"/>
</mask>
<g mask="url(#mask0_2219_7397)">
<path d="M32.7331 31.2667H53.7331C53.5554 25.5334 51.4442 20.6223 47.3998 16.5334C43.3554 12.4445 38.4665 10.3556 32.7331 10.2667V31.2667ZM31.2665 53.7334V10.2667C25.4442 10.4 20.4887 12.5778 16.3998 16.8C12.3109 21.0223 10.2665 26.0889 10.2665 32C10.2665 37.9112 12.3109 42.9778 16.3998 47.2C20.4887 51.4223 25.4442 53.6 31.2665 53.7334ZM32.7331 53.7334C38.4665 53.6445 43.3442 51.5556 47.3665 47.4667C51.3887 43.3778 53.5109 38.4667 53.7331 32.7334H32.7331V53.7334ZM32.0114 55.2C28.8037 55.2 25.7874 54.5914 22.9626 53.374C20.1378 52.1566 17.6805 50.5044 15.5909 48.4174C13.5014 46.3305 11.8471 43.8764 10.6282 41.0551C9.40927 38.2339 8.7998 35.2194 8.7998 32.0116C8.7998 28.8039 9.40849 25.7876 10.6259 22.9628C11.8433 20.138 13.4955 17.6808 15.5824 15.5912C17.6694 13.5016 20.1235 11.8474 22.9447 10.6285C25.766 9.40952 28.7805 8.80005 31.9882 8.80005C35.1959 8.80005 38.2109 9.41116 41.0331 10.6334C43.8554 11.8556 46.3109 13.5112 48.3998 15.6C50.4887 17.6889 52.1442 20.1418 53.3665 22.9587C54.5887 25.7755 55.1998 28.7963 55.1998 32.0211C55.1998 35.2071 54.5911 38.208 53.3737 41.0239C52.1563 43.8399 50.5041 46.299 48.4172 48.4013C46.3302 50.5036 43.8761 52.1623 41.0549 53.3774C38.2336 54.5925 35.2191 55.2 32.0114 55.2Z" fill="#1B76FF"/>
</g>
</svg>
