<svg width="129" height="128" viewBox="0 0 129 128" fill="none" xmlns="http://www.w3.org/2000/svg">
<mask id="mask0_2_21516" style="mask-type:alpha" maskUnits="userSpaceOnUse" x="0" y="0" width="129" height="128">
<rect x="0.5" width="128" height="128" fill="#D9D9D9"/>
</mask>
<g mask="url(#mask0_2_21516)">
<path d="M65.9682 62.5334H107.968C107.613 51.0668 103.39 41.2445 95.3016 33.0668C87.2127 24.889 77.4349 20.7112 65.9682 20.5334V62.5334ZM63.0349 107.467V20.5334C51.3905 20.8001 41.4793 25.1557 33.3016 33.6001C25.1238 42.0445 21.0349 52.1779 21.0349 64.0001C21.0349 75.8223 25.1238 85.9557 33.3016 94.4001C41.4793 102.845 51.3905 107.2 63.0349 107.467ZM65.9682 107.467C77.4349 107.289 87.1905 103.111 95.2349 94.9334C103.279 86.7556 107.524 76.9334 107.968 65.4668H65.9682V107.467ZM64.5248 110.4C58.1093 110.4 52.0768 109.183 46.4272 106.748C40.7775 104.313 35.863 101.009 31.6838 96.8349C27.5047 92.6609 24.1962 87.7527 21.7584 82.1102C19.3205 76.4677 18.1016 70.4388 18.1016 64.0233C18.1016 57.6078 19.3189 51.5753 21.7537 45.9257C24.1885 40.276 27.4929 35.3616 31.6668 31.1825C35.8407 27.0033 40.7489 23.6948 46.3914 21.2569C52.0339 18.819 58.0629 17.6001 64.4784 17.6001C70.8938 17.6001 76.9238 18.8223 82.5682 21.2668C88.2127 23.7112 93.1238 27.0223 97.3016 31.2001C101.479 35.3779 104.79 40.2836 107.235 45.9173C109.679 51.551 110.902 57.5926 110.902 64.0422C110.902 70.4141 109.684 76.416 107.249 82.0478C104.815 87.6797 101.51 92.598 97.3364 96.8026C93.1624 101.007 88.2542 104.325 82.6117 106.755C76.9692 109.185 70.9402 110.4 64.5248 110.4Z" fill="#1C1B1F"/>
</g>
</svg>
