<svg width="24" height="21" viewBox="0 0 24 21" fill="none" xmlns="http://www.w3.org/2000/svg">
<path d="M17.5111 5.41197V1.28204H6.48886V5.41197H5.36066V1.11747C5.36066 0.844272 5.45404 0.615373 5.64079 0.430773C5.82755 0.246151 6.05896 0.153839 6.33503 0.153839H17.6544C17.9418 0.153839 18.1778 0.246228 18.3624 0.431006C18.547 0.615806 18.6393 0.844784 18.6393 1.11794V5.41197H17.5111ZM19.6786 9.81367C20.0222 9.81367 20.3147 9.69292 20.556 9.45141C20.7973 9.2099 20.918 8.9203 20.918 8.58261C20.918 8.24492 20.7972 7.95542 20.5558 7.71411C20.3143 7.4728 20.0248 7.35214 19.6872 7.35214C19.3379 7.35214 19.0454 7.4729 18.8098 7.71441C18.5742 7.95592 18.4564 8.24552 18.4564 8.58321C18.4564 8.92089 18.5742 9.2104 18.8098 9.45171C19.0454 9.69302 19.335 9.81367 19.6786 9.81367ZM7.30939 19.5385H16.6906C16.9299 19.5385 17.1265 19.4616 17.2804 19.3077C17.4342 19.1539 17.5111 18.9573 17.5111 18.718V13.1521H6.48886V18.718C6.48886 18.9573 6.56579 19.1539 6.71966 19.3077C6.8735 19.4616 7.07008 19.5385 7.30939 19.5385ZM7.30939 20.6667C6.77348 20.6667 6.31472 20.4737 5.93309 20.0876C5.55147 19.7016 5.36066 19.245 5.36066 18.718V15.1658H1.74356C1.46749 15.1658 1.23608 15.0724 1.04933 14.8857C0.862593 14.6989 0.769226 14.4675 0.769226 14.1915V7.92137C0.769226 7.21977 1.01224 6.62614 1.49826 6.14047C1.9843 5.65481 2.58345 5.41197 3.29569 5.41197H20.7043C21.4201 5.41197 22.0202 5.65481 22.5044 6.14047C22.9886 6.62614 23.2308 7.21977 23.2308 7.92137V14.1915C23.2308 14.4675 23.1374 14.6989 22.9507 14.8857C22.7639 15.0724 22.5325 15.1658 22.2564 15.1658H18.6393V18.718C18.6393 19.245 18.4485 19.7016 18.0669 20.0876C17.6853 20.4737 17.2265 20.6667 16.6906 20.6667H7.30939ZM22.1026 14.0376V7.91661C22.1026 7.53174 21.9686 7.20612 21.7006 6.93974C21.4326 6.67336 21.1005 6.54017 20.7043 6.54017H3.29569C2.89952 6.54017 2.56743 6.67503 2.29943 6.94474C2.03143 7.21445 1.89743 7.54 1.89743 7.92137V14.0376H5.36066V12.0239H18.6393V14.0376H22.1026Z" fill="#1C1B1F"/>
</svg>
