<svg width="20" height="18" viewBox="0 0 20 18" fill="none" xmlns="http://www.w3.org/2000/svg">
<path d="M6.30777 17.4998C5.81066 17.4998 5.3851 17.3228 5.0311 16.9688C4.67708 16.6148 4.50007 16.1893 4.50007 15.6921V13.4998H2.59625C2.09913 13.4998 1.67357 13.3228 1.31957 12.9688C0.965574 12.6148 0.788574 12.1893 0.788574 11.6921V7.80754C0.788574 7.09923 1.03056 6.50548 1.51452 6.02632C1.99849 5.54717 2.58982 5.30759 3.28852 5.30759H16.7116C17.4199 5.30759 18.0136 5.54717 18.4928 6.02632C18.972 6.50548 19.2115 7.09923 19.2115 7.80754V11.6921C19.2115 12.1893 19.0345 12.6148 18.6805 12.9688C18.3265 13.3228 17.901 13.4998 17.4038 13.4998H15.5V15.6921C15.5 16.1893 15.323 16.6148 14.969 16.9688C14.615 17.3228 14.1894 17.4998 13.6923 17.4998H6.30777ZM2.59625 11.9999H4.50007C4.51291 11.514 4.69444 11.0976 5.04467 10.7508C5.39491 10.404 5.81594 10.2306 6.30777 10.2306H13.6923C14.1842 10.2306 14.6052 10.404 14.9554 10.7508C15.3057 11.0976 15.4872 11.514 15.5 11.9999H17.4038C17.4936 11.9999 17.5673 11.971 17.625 11.9133C17.6827 11.8556 17.7116 11.7819 17.7116 11.6921V7.80754C17.7116 7.52421 17.6157 7.28671 17.4241 7.09504C17.2324 6.90338 16.9949 6.80754 16.7116 6.80754H3.28852C3.00519 6.80754 2.76769 6.90338 2.57602 7.09504C2.38436 7.28671 2.28852 7.52421 2.28852 7.80754V11.6921C2.28852 11.7819 2.31737 11.8556 2.37507 11.9133C2.43277 11.971 2.5065 11.9999 2.59625 11.9999ZM14 5.30759V2.61529C14 2.52554 13.9712 2.45182 13.9135 2.39412C13.8558 2.33643 13.7821 2.30759 13.6923 2.30759H6.30777C6.21802 2.30759 6.1443 2.33643 6.0866 2.39412C6.0289 2.45182 6.00005 2.52554 6.00005 2.61529V5.30759H4.50007V2.61529C4.50007 2.11819 4.67708 1.69263 5.0311 1.33862C5.3851 0.984617 5.81066 0.807617 6.30777 0.807617H13.6923C14.1894 0.807617 14.615 0.984617 14.969 1.33862C15.323 1.69263 15.5 2.11819 15.5 2.61529V5.30759H14ZM15.8077 9.30754C16.0911 9.30754 16.3286 9.21171 16.5202 9.02004C16.7119 8.82838 16.8077 8.59088 16.8077 8.30754C16.8077 8.02421 16.7119 7.78671 16.5202 7.59504C16.3286 7.40338 16.0911 7.30754 15.8077 7.30754C15.5244 7.30754 15.2869 7.40338 15.0952 7.59504C14.9036 7.78671 14.8077 8.02421 14.8077 8.30754C14.8077 8.59088 14.9036 8.82838 15.0952 9.02004C15.2869 9.21171 15.5244 9.30754 15.8077 9.30754ZM14 15.6921V12.0383C14 11.9486 13.9712 11.8749 13.9135 11.8172C13.8558 11.7595 13.7821 11.7306 13.6923 11.7306H6.30777C6.21802 11.7306 6.1443 11.7595 6.0866 11.8172C6.0289 11.8749 6.00005 11.9486 6.00005 12.0383V15.6921C6.00005 15.7819 6.0289 15.8556 6.0866 15.9133C6.1443 15.971 6.21802 15.9999 6.30777 15.9999H13.6923C13.7821 15.9999 13.8558 15.971 13.9135 15.9133C13.9712 15.8556 14 15.7819 14 15.6921Z" fill="#1B76FF"/>
</svg>
