<svg width="64" height="64" viewBox="0 0 64 64" fill="none" xmlns="http://www.w3.org/2000/svg">
<g id="q">
<mask id="mask0_4298_1604" style="mask-type:alpha" maskUnits="userSpaceOnUse" x="0" y="0" width="64" height="64">
<rect id="Bounding box" width="64" height="64" fill="#D9D9D9"/>
</mask>
<g mask="url(#mask0_4298_1604)">
<path id="Vector" d="M31.561 35.9044L36.9726 44.0522L37.4367 44.7509L36.6443 45.0259C35.15 45.5444 33.5781 45.803 31.9966 45.7903C31.996 45.7903 31.9954 45.7903 31.9947 45.7903L32 45.1403L31.561 35.9044ZM31.561 35.9044H41.5038M31.561 35.9044H41.5038M41.5038 35.9044L43.1826 38.409L43.7923 39.3185L44.2988 38.3478C45.3013 36.4268 45.7831 34.3067 45.7831 32C45.7831 28.1913 44.4369 24.926 41.7577 22.241C39.0778 19.5554 35.8126 18.2074 31.9996 18.2097M41.5038 35.9044L31.9996 18.2097M31.9996 18.2097C31.9998 18.2097 31.9999 18.2097 32 18.2097V18.8597L31.9996 18.2097ZM42.5581 52.4381L42.2448 51.9643L41.7333 52.2112C38.7764 53.6388 35.5441 54.35 32 54.35C25.8224 54.35 20.5631 52.174 16.186 47.8068C11.8098 43.4404 9.63627 38.1853 9.65007 32.0047V32.0033C9.65007 25.8159 11.8242 20.5625 16.1863 16.206L16.1866 16.2057C20.5614 11.83 25.8205 9.65 32 9.65C38.1795 9.65 43.4323 11.83 47.7949 16.2051L47.7957 16.2059C52.1578 20.5651 54.35 25.8201 54.35 32.0033C54.35 37.5433 52.5922 42.3421 49.0747 46.4303L48.7529 46.8043L49.0267 47.2149L53.7833 54.3471L43.8042 54.323L42.5581 52.4381Z" stroke="black" stroke-width="1.3"/>
</g>
</g>
</svg>
