<svg xmlns="http://www.w3.org/2000/svg" width="64" height="64" viewBox="0 0 64 64" fill="none">
  <mask id="mask0_4298_1604" style="mask-type:alpha" maskUnits="userSpaceOnUse" x="0" y="0" width="64" height="64">
    <rect width="64" height="64" fill="#D9D9D9"/>
  </mask>
  <g mask="url(#mask0_4298_1604)">
    <path fill-rule="evenodd" clip-rule="evenodd" d="M42.0159 52.7966L43.4542 54.9722L55 55L49.5675 46.8542C53.1892 42.6449 55 37.6946 55 32.0033C55 25.6468 52.7386 20.2266 48.2551 15.7461C43.7706 11.2487 38.3522 9 32 9C25.6479 9 20.2235 11.2487 15.7269 15.7461C11.2424 20.225 9.00007 25.644 9.00007 32.0033C8.98589 38.3571 11.2282 43.7783 15.7269 48.267C20.2257 52.7557 25.6501 55 32 55C35.6343 55 38.9642 54.2699 42.0159 52.7966ZM51.2562 52.991L47.0611 46.7007L48.0514 45.5498C51.3524 41.7132 53 37.229 53 32.0033C53 26.18 50.9514 21.268 46.8414 17.1608L46.8389 17.1583C42.7296 13.0373 37.8209 11 32 11C26.1791 11 21.2633 13.0374 17.1413 17.1602L17.1402 17.1612C13.0327 21.2635 11.0001 26.1729 11.0001 32.0033V32.0077C10.9871 37.8286 13.0179 42.7387 17.1396 46.8512C21.2637 50.9661 26.1802 53 32 53C35.3569 53 38.3864 52.3279 41.1464 50.9955L42.7203 50.2356L44.5312 52.9748L51.2562 52.991ZM34.383 44.9429C33.5977 45.0805 32.8001 45.1468 32 45.1403C28.3652 45.1337 25.265 43.852 22.6993 41.2949C20.1335 38.7379 18.8507 35.6407 18.8507 32.0033C18.8517 28.3658 20.1346 25.2659 22.6993 22.7034C25.2639 20.1409 28.3642 18.8597 32 18.8597C35.6414 18.8575 38.7405 20.1377 41.2975 22.7001C43.8546 25.2626 45.1331 28.3626 45.1331 32C45.1331 33.3377 44.9645 34.603 44.6216 35.7963C44.3971 36.5774 44.098 37.3276 43.7226 38.0471L41.8506 35.2544H30.349L36.4312 44.4118C35.7625 44.6438 35.0775 44.8213 34.383 44.9429ZM34.0783 37.2544L39.5251 45.4552L37.0868 46.3013C35.4481 46.8699 33.7242 47.1537 31.9898 47.1403C27.8318 47.1312 24.227 45.6412 21.2874 42.7116C18.3434 39.7775 16.8507 36.1698 16.8507 32.0033C16.8519 27.8373 18.3443 24.2274 21.2856 21.2886C24.2262 18.3505 27.835 16.86 31.9988 16.8597M34.0783 37.2544H40.7835L43.937 41.9592L45.4957 38.9724C46.6091 36.8387 47.1331 34.5007 47.1331 32C47.1331 27.8357 45.6464 24.2269 42.7133 21.2874C39.7786 18.3465 36.1689 16.8575 32 16.8597" fill="#1C1B1F"/>
  </g>
</svg>