<svg width="1096" height="248" viewBox="0 0 1096 248" fill="none" xmlns="http://www.w3.org/2000/svg">
<path d="M176.482 234.807L176 234.07L175.208 234.456C159.118 242.288 141.57 246.201 122.363 246.201C88.8475 246.201 60.2158 234.258 36.4957 210.314C12.7923 186.352 1 157.492 1 123.626C1 89.7085 12.7927 60.8491 36.4952 36.9559L36.4957 36.9554C60.2333 12.9929 88.8485 1.017 122.363 1.017C155.86 1.017 184.425 12.9758 208.128 36.9546L208.129 36.9554C231.8 60.8507 243.726 89.7282 243.726 123.626C243.726 153.988 234.149 180.371 215.06 202.789L214.573 203.361L214.987 203.988L242.864 246.196L183.842 246.049L176.482 234.807ZM146.769 189.767L115.435 142.097H174.234L183.897 156.658L184.838 158.075L185.619 156.563C190.747 146.634 193.234 135.648 193.234 123.609C193.234 103.804 186.336 86.8779 172.538 72.9219L172.536 72.9201C158.671 58.9657 141.962 51.9923 122.363 51.9923C102.75 51.9923 85.9721 58.9642 72.1728 72.9378C58.3062 86.8943 51.4078 103.821 51.4078 123.626C51.4078 143.432 58.307 160.308 72.1735 174.264C85.9727 188.254 102.75 195.226 122.363 195.226C130.829 195.226 138.834 193.918 146.271 191.258L147.468 190.83L146.769 189.767ZM743.481 246.201H591.549V195.226H743.464C749.824 195.226 755.225 192.942 759.683 188.492L759.691 188.484C764.045 184.033 766.336 178.548 766.336 172.165C766.336 165.815 764.043 160.333 759.695 155.835L759.69 155.829L759.684 155.823C755.224 151.354 749.822 149.088 743.464 149.088H591.549V98.1299H743.464C749.82 98.1299 755.224 95.8827 759.686 91.3935L759.694 91.3849C764.044 86.9024 766.336 81.4364 766.336 75.0526C766.336 68.6687 764.044 63.2028 759.694 58.7202L759.686 58.7117C755.224 54.2224 749.82 51.9753 743.464 51.9753H591.549V1H743.464C763.704 1 780.98 8.23412 795.314 22.6797C809.629 37.1582 816.76 54.597 816.76 75.0356C816.76 93.383 811.001 109.381 799.402 122.942L798.847 123.591L799.401 124.241C811.002 137.838 816.777 153.802 816.777 172.165C816.777 192.622 809.645 210.044 795.329 224.505C781.014 238.967 763.721 246.201 743.481 246.201ZM1021.72 246.218H869.771V195.243H1021.72C1028.06 195.243 1033.48 192.96 1037.94 188.509L1037.95 188.502C1042.32 184.048 1044.58 178.561 1044.58 172.182C1044.58 165.836 1042.32 160.352 1037.95 155.85L1037.95 155.844L1037.94 155.839C1033.46 151.371 1028.05 149.105 1021.72 149.105H943.067C922.81 149.105 905.569 141.888 891.27 127.427L891.27 127.426C876.953 112.964 869.788 95.5079 869.788 75.0696C869.788 54.6313 876.953 37.175 891.27 22.7128C905.585 8.25115 922.827 1.03399 943.067 1.03399H1095V51.9923H943.067C936.799 51.9923 931.327 54.2368 926.913 58.7293C922.453 63.217 920.196 68.6709 920.196 75.0696C920.196 81.4507 922.453 86.922 926.913 91.4099C931.326 95.9021 936.782 98.1469 943.067 98.1469H1021.72C1041.96 98.1469 1059.2 105.364 1073.54 119.843C1087.85 134.305 1095 151.727 1095 172.182C1095 192.639 1087.87 210.06 1073.54 224.522C1059.2 238.984 1041.96 246.218 1021.72 246.218ZM538.874 133.43H538.887C538.637 164.39 526.749 190.837 503.304 212.82L503.302 212.822C479.655 235.092 451.032 246.201 417.511 246.201C383.973 246.201 355.367 235.092 331.617 212.82L330.933 213.55L331.617 212.82C307.922 190.603 296.148 163.824 296.148 132.43V1H346.573V132.413C346.573 149.766 353.525 164.632 367.368 176.875C381.192 189.114 397.937 195.209 417.511 195.209C437.07 195.209 453.78 189.114 467.669 176.876L467.673 176.872C481.43 164.631 488.399 149.766 488.399 132.413V1H538.874V66.2149V132.43V133.43Z" stroke="#B6BBC1" stroke-width="2"/>
</svg>
