<svg width="213" height="48" viewBox="0 0 213 48" fill="none" xmlns="http://www.w3.org/2000/svg">
<path fill-rule="evenodd" clip-rule="evenodd" d="M47.7496 47.9967L35.8256 47.967L34.3396 45.6967C31.188 47.2311 27.7522 47.9967 23.9964 47.9967C17.4384 47.9967 11.8307 45.6571 7.18983 40.9713C2.55219 36.2821 0.243164 30.6295 0.243164 24.0033C0.243164 17.3673 2.55219 11.7146 7.18983 7.03864C11.834 2.34951 17.4384 0.00329995 23.9964 0.00329995C30.5511 0.00329995 36.1457 2.34621 40.7833 7.03864C45.4145 11.7146 47.7496 17.3706 47.7496 24.0033C47.7496 29.9431 45.875 35.1107 42.1387 39.4995L47.7496 47.9967ZM23.9964 10.289C20.2406 10.289 17.0334 11.6222 14.3913 14.2984C11.7361 16.9713 10.4166 20.2084 10.4166 24.0033C10.4166 27.7982 11.7361 31.0254 14.3913 33.6983C17.0334 36.3778 20.2406 37.711 23.9964 37.711C25.6196 37.711 27.1513 37.4602 28.572 36.952L22.2916 27.3956H34.1698L36.1033 30.3094C37.0831 28.4119 37.5599 26.3099 37.5599 24C37.5599 20.2051 36.2405 16.968 33.5983 14.2951C30.9431 11.6222 27.749 10.289 23.9964 10.289ZM158.991 33.4277C158.991 37.4503 157.587 40.8822 154.771 43.7267C151.956 46.5712 148.55 47.9967 144.569 47.9967H114.881V37.711H144.565C145.748 37.711 146.747 37.2886 147.577 36.4603C148.386 35.6321 148.811 34.6157 148.811 33.4277C148.811 32.2464 148.386 31.23 147.577 30.3919C146.747 29.5603 145.748 29.1412 144.565 29.1412H114.881V18.8588H144.565C145.748 18.8588 146.747 18.443 147.577 17.6081C148.386 16.7733 148.811 15.7602 148.811 14.5723C148.811 13.3843 148.386 12.3712 147.577 11.5364C146.747 10.7015 145.748 10.2857 144.565 10.2857H114.881V0H144.565C148.546 0 151.95 1.42555 154.768 4.26674C157.583 7.11453 158.988 10.5497 158.988 14.569C158.988 18.1757 157.854 21.3271 155.572 23.9967C157.854 26.6729 158.991 29.8177 158.991 33.4277ZM213 10.289H183.312C182.147 10.289 181.134 10.7048 180.314 11.5397C179.485 12.3745 179.067 13.3843 179.067 14.5756C179.067 15.7635 179.485 16.7766 180.314 17.6114C181.134 18.4463 182.143 18.8621 183.312 18.8621H198.581C202.562 18.8621 205.959 20.2843 208.777 23.1321C211.592 25.9766 213 29.4085 213 33.431C213 37.4536 211.596 40.8855 208.777 43.73C205.959 46.5745 202.562 48 198.581 48H168.89V37.7143H198.581C199.76 37.7143 200.762 37.2919 201.592 36.4636C202.405 35.6354 202.823 34.619 202.823 33.431C202.823 32.2497 202.405 31.2333 201.592 30.3952C200.759 29.5636 199.757 29.1445 198.581 29.1445H183.312C179.328 29.1445 175.931 27.7223 173.119 24.8778C170.304 22.0333 168.893 18.5948 168.893 14.5756C168.893 10.5563 170.304 7.11783 173.119 4.27334C175.935 1.42885 179.331 0.0065999 183.312 0.0065999H213V10.289ZM105.047 25.7126C105.047 31.8636 102.715 37.1137 98.0779 41.4629C93.45 45.8221 87.8456 47.9967 81.2909 47.9967C74.7329 47.9967 69.1318 45.8221 64.4843 41.4629C59.8467 37.1137 57.5377 31.8636 57.5377 25.7126V0H67.7144V25.7093C67.7144 29.0191 69.0371 31.8537 71.6857 34.1966C74.3312 36.5395 77.535 37.7077 81.2909 37.7077C85.0434 37.7077 88.2408 36.5395 90.8993 34.1966C93.5317 31.8537 94.8576 29.0191 94.8576 25.7093V0H105.044V12.8563V25.7126H105.047Z" fill="white"/>
</svg>
