<svg width="48" height="48" viewBox="0 0 48 48" fill="none" xmlns="http://www.w3.org/2000/svg">
<mask id="mask0_2000_2459" style="mask-type:alpha" maskUnits="userSpaceOnUse" x="0" y="0" width="48" height="48">
<rect width="48" height="48" fill="#D9D9D9"/>
</mask>
<g mask="url(#mask0_2000_2459)">
<path d="M10.7692 42.0001C10.0006 42.0001 9.34695 41.7307 8.80815 41.192C8.26938 40.6532 8 39.9995 8 39.2309V12.3078C8 11.5392 8.26938 10.8855 8.80815 10.3467C9.34695 9.80796 10.0006 9.53858 10.7692 9.53858H14.9039V5.53857H16.6923V9.53858H31.4616V5.53857H33.1346V9.53858H37.2308C37.9994 9.53858 38.653 9.80796 39.1918 10.3467C39.7306 10.8855 40 11.5392 40 12.3078V39.2309C40 39.9995 39.7306 40.6532 39.1918 41.192C38.653 41.7307 37.9994 42.0001 37.2308 42.0001H10.7692ZM9.53845 39.2309C9.53845 39.5386 9.66665 39.8206 9.92305 40.0771C10.1795 40.3335 10.4615 40.4617 10.7692 40.4617H37.2308C37.5385 40.4617 37.8205 40.3335 38.077 40.0771C38.3333 39.8206 38.4616 39.5386 38.4616 39.2309V12.3078C38.4616 12.0001 38.3333 11.7181 38.077 11.4617C37.8205 11.2052 37.5385 11.077 37.2308 11.077H10.7692C10.4615 11.077 10.1795 11.2052 9.92305 11.4617C9.66665 11.7181 9.53845 12.0001 9.53845 12.3078V39.2309ZM19.2308 40.4617V35.5924L15.3231 30.9694C15.0333 30.654 14.7788 30.2565 14.5596 29.7771C14.3404 29.2976 14.2307 28.7437 14.2307 28.1155C14.2307 27.7335 14.2724 27.3661 14.3557 27.0136C14.4391 26.661 14.5679 26.3232 14.7423 26.0001C14.5756 25.6847 14.4487 25.3508 14.3615 24.9982C14.2743 24.6457 14.2307 24.2745 14.2307 23.8847C14.2307 23.2565 14.3404 22.7027 14.5596 22.2232C14.7788 21.7437 15.0333 21.3463 15.3231 21.0309L19.2308 16.4078V11.077H21V16.5347C21 16.7014 20.8833 17.0181 20.65 17.4847L16.65 22.1847C16.4167 22.4514 16.25 22.7264 16.15 23.0097C16.05 23.2931 16 23.5847 16 23.8847C16 24.5514 16.2167 25.1264 16.65 25.6097C17.0833 26.0931 17.6333 26.3347 18.3 26.3347C18.6 26.3347 18.8769 26.2847 19.1307 26.1847C19.3846 26.0847 19.6244 25.9181 19.85 25.6847C20.4167 25.1181 21.0583 24.6847 21.775 24.3847C22.4917 24.0847 23.2333 23.9347 24 23.9347C24.7667 23.9347 25.5083 24.0847 26.225 24.3847C26.9417 24.6847 27.5833 25.1181 28.15 25.6847C28.3833 25.9181 28.6333 26.0847 28.9 26.1847C29.1667 26.2847 29.4333 26.3347 29.7 26.3347C30.3667 26.3347 30.9167 26.0931 31.35 25.6097C31.7833 25.1264 32 24.5681 32 23.9347C32 23.6347 31.9417 23.3431 31.825 23.0597C31.7083 22.7764 31.55 22.5014 31.35 22.2347L27.35 17.4847C27.2167 17.3514 27.125 17.2014 27.075 17.0347C27.025 16.8681 27 16.7014 27 16.5347V11.077H28.7693V16.4463L32.6884 21.0924C33.0525 21.4976 33.3237 21.9444 33.502 22.4328C33.6802 22.9213 33.7693 23.4219 33.7693 23.9347C33.7693 24.3168 33.7237 24.6841 33.6327 25.0367C33.5417 25.3892 33.4128 25.7104 33.2461 26.0001C33.4205 26.3232 33.5513 26.661 33.6384 27.0136C33.7256 27.3661 33.7693 27.7335 33.7693 28.1155C33.7693 28.7437 33.6596 29.2976 33.4404 29.7771C33.2212 30.2565 32.9667 30.654 32.677 30.9694L28.7693 35.5924V40.4617H27V35.4655C27 35.2655 27.1167 34.9489 27.35 34.5155L31.35 29.8155C31.6346 29.4719 31.8269 29.0924 31.9269 28.6771C32.0269 28.2617 32.0128 27.8527 31.8846 27.4501C31.5692 27.6681 31.2346 27.8316 30.8808 27.9405C30.5269 28.0495 30.15 28.104 29.75 28.104C29.2372 28.104 28.7307 28.0027 28.2307 27.8001C27.7307 27.5976 27.282 27.2937 26.8846 26.8886C26.5231 26.4937 26.0904 26.1976 25.5865 26.0001C25.0827 25.8027 24.5538 25.704 24 25.704C23.4795 25.704 22.9609 25.8027 22.4443 26.0001C21.9276 26.1976 21.4846 26.4937 21.1154 26.8886C20.7436 27.2937 20.3032 27.5976 19.7943 27.8001C19.2853 28.0027 18.7744 28.104 18.2615 28.104C17.8616 28.104 17.4827 28.0495 17.125 27.9405C16.7673 27.8316 16.4308 27.6681 16.1154 27.4501C15.9872 27.8527 15.9731 28.2617 16.0731 28.6771C16.1731 29.0924 16.3654 29.4719 16.65 29.8155L20.65 34.5155C20.75 34.6822 20.8333 34.8405 20.9 34.9905C20.9667 35.1405 21 35.2989 21 35.4655V40.4617H19.2308ZM9.53845 39.2309V40.4617V11.077V39.2309Z" fill="#263142"/>
</g>
</svg>
