<svg width="64" height="64" viewBox="0 0 64 64" fill="none" xmlns="http://www.w3.org/2000/svg">
<mask id="mask0_2212_5385" style="mask-type:alpha" maskUnits="userSpaceOnUse" x="-1" y="0" width="65" height="64">
<rect x="-0.000366211" width="64" height="64" fill="#D9D9D9"/>
</mask>
<g mask="url(#mask0_2212_5385)">
<path d="M15.0663 55.2C14.0541 55.2 13.201 54.853 12.5072 54.1591C11.8133 53.4653 11.4663 52.6122 11.4663 51.6V17.3333C11.4663 16.3211 11.8133 15.468 12.5072 14.7741C13.201 14.0803 14.0541 13.7333 15.0663 13.7333H20.933V8H22.733V13.7333H41.533V8H43.133V13.7333H48.933C49.9452 13.7333 50.7983 14.0803 51.4922 14.7741C52.186 15.468 52.533 16.3211 52.533 17.3333V51.6C52.533 52.6122 52.186 53.4653 51.4922 54.1591C50.7983 54.853 49.9452 55.2 48.933 55.2H15.0663ZM12.933 51.6C12.933 52.1333 13.1552 52.6222 13.5996 53.0667C14.0441 53.5111 14.533 53.7333 15.0663 53.7333H48.933C49.4663 53.7333 49.9552 53.5111 50.3996 53.0667C50.8441 52.6222 51.0663 52.1333 51.0663 51.6V17.3333C51.0663 16.8 50.8441 16.3111 50.3996 15.8667C49.9552 15.4222 49.4663 15.2 48.933 15.2H15.0663C14.533 15.2 14.0441 15.4222 13.5996 15.8667C13.1552 16.3111 12.933 16.8 12.933 17.3333V51.6ZM26.133 53.7333V47.1333L20.7996 40.8C20.4441 40.4 20.133 39.9111 19.8663 39.3333C19.5996 38.7556 19.4663 38.0889 19.4663 37.3333C19.4663 36.8444 19.5219 36.3778 19.633 35.9333C19.7441 35.4889 19.9108 35.0667 20.133 34.6667C19.9108 34.2667 19.7441 33.8444 19.633 33.4C19.5219 32.9556 19.4663 32.4889 19.4663 32C19.4663 31.2444 19.5996 30.5778 19.8663 30C20.133 29.4222 20.4441 28.9333 20.7996 28.5333L26.133 22.2V15.2H27.9996V22.2C27.9996 22.4222 27.8441 22.8444 27.533 23.4667L22.1996 29.7333C21.8885 30.0889 21.6663 30.4556 21.533 30.8333C21.3996 31.2111 21.333 31.6 21.333 32C21.333 32.8889 21.6219 33.6556 22.1996 34.3C22.7774 34.9444 23.5108 35.2667 24.3996 35.2667C24.7996 35.2667 25.1663 35.2 25.4996 35.0667C25.833 34.9333 26.1552 34.7111 26.4663 34.4C27.2219 33.6444 28.0774 33.0667 29.033 32.6667C29.9885 32.2667 30.9774 32.0667 31.9996 32.0667C33.0219 32.0667 34.0108 32.2667 34.9663 32.6667C35.9219 33.0667 36.7774 33.6444 37.533 34.4C37.8441 34.7111 38.1774 34.9333 38.533 35.0667C38.8885 35.2 39.2441 35.2667 39.5996 35.2667C40.4885 35.2667 41.2219 34.9444 41.7996 34.3C42.3774 33.6556 42.6663 32.9111 42.6663 32.0667C42.6663 31.6667 42.5885 31.2778 42.433 30.9C42.2774 30.5222 42.0663 30.1556 41.7996 29.8L36.4663 23.4667C36.2885 23.2889 36.1663 23.0889 36.0996 22.8667C36.033 22.6444 35.9996 22.4222 35.9996 22.2V15.2H37.8663V22.2667L43.1996 28.6C43.6441 29.0889 43.9774 29.6333 44.1996 30.2333C44.4219 30.8333 44.533 31.4444 44.533 32.0667C44.533 32.5556 44.4774 33.0222 44.3663 33.4667C44.2552 33.9111 44.0885 34.3111 43.8663 34.6667C44.0885 35.0667 44.2552 35.4889 44.3663 35.9333C44.4774 36.3778 44.533 36.8444 44.533 37.3333C44.533 38.0889 44.3996 38.7556 44.133 39.3333C43.8663 39.9111 43.5552 40.4 43.1996 40.8L37.8663 47.1333V53.7333H35.9996V47.1333C35.9996 46.8667 36.1552 46.4444 36.4663 45.8667L41.7996 39.6C42.1996 39.1111 42.4663 38.5667 42.5996 37.9667C42.733 37.3667 42.6885 36.7778 42.4663 36.2C42.0663 36.5111 41.633 36.7444 41.1663 36.9C40.6996 37.0556 40.1996 37.1333 39.6663 37.1333C39.0441 37.1333 38.433 37.0111 37.833 36.7667C37.233 36.5222 36.6885 36.1556 36.1996 35.6667C35.6663 35.0889 35.033 34.6556 34.2996 34.3667C33.5663 34.0778 32.7996 33.9333 31.9996 33.9333C31.2441 33.9333 30.4885 34.0778 29.733 34.3667C28.9774 34.6556 28.333 35.0889 27.7996 35.6667C27.3552 36.1556 26.8219 36.5222 26.1996 36.7667C25.5774 37.0111 24.9552 37.1333 24.333 37.1333C23.7996 37.1333 23.2996 37.0556 22.833 36.9C22.3663 36.7444 21.933 36.5111 21.533 36.2C21.3108 36.7778 21.2663 37.3667 21.3996 37.9667C21.533 38.5667 21.7996 39.1111 22.1996 39.6L27.533 45.8667C27.6663 46.0889 27.7774 46.3 27.8663 46.5C27.9552 46.7 27.9996 46.9111 27.9996 47.1333V53.7333H26.133ZM12.933 51.6V53.7333V15.2V51.6Z" fill="#FFAF45"/>
</g>
</svg>
