<svg width="17" height="20" viewBox="0 0 17 20" fill="none" xmlns="http://www.w3.org/2000/svg">
<path d="M1.8077 19.5001C1.30257 19.5001 0.875 19.3251 0.525 18.9751C0.175 18.6251 0 18.1975 0 17.6924V4.30784C0 3.80271 0.175 3.37514 0.525 3.02514C0.875 2.67514 1.30257 2.50014 1.8077 2.50014H3.19233V1.15397C3.19233 0.934749 3.26573 0.751741 3.41253 0.604941C3.55931 0.458157 3.74232 0.384766 3.96155 0.384766C4.18077 0.384766 4.36378 0.458157 4.51058 0.604941C4.65736 0.751741 4.73075 0.934749 4.73075 1.15397V2.50014H12.3077V1.13474C12.3077 0.921925 12.3794 0.743724 12.523 0.60014C12.6666 0.456557 12.8448 0.384766 13.0576 0.384766C13.2704 0.384766 13.4486 0.456557 13.5922 0.60014C13.7358 0.743724 13.8076 0.921925 13.8076 1.13474V2.50014H15.1923C15.6974 2.50014 16.125 2.67514 16.475 3.02514C16.825 3.37514 17 3.80271 17 4.30784V17.6924C17 18.1975 16.825 18.6251 16.475 18.9751C16.125 19.3251 15.6974 19.5001 15.1923 19.5001H1.8077ZM1.49997 17.6924C1.49997 17.7693 1.53202 17.8398 1.59612 17.904C1.66024 17.9681 1.73077 18.0001 1.8077 18.0001H15.1923C15.2692 18.0001 15.3397 17.9681 15.4038 17.904C15.4679 17.8398 15.5 17.7693 15.5 17.6924V4.30784C15.5 4.23091 15.4679 4.16038 15.4038 4.09627C15.3397 4.03217 15.2692 4.00012 15.1923 4.00012H1.8077C1.73077 4.00012 1.66024 4.03217 1.59612 4.09627C1.53202 4.16038 1.49997 4.23091 1.49997 4.30784V17.6924ZM5.8077 18.0001V15.9982L3.93075 13.7924C3.76665 13.6219 3.62178 13.3975 3.49615 13.1193C3.37052 12.8411 3.3077 12.5193 3.3077 12.154C3.3077 11.9501 3.32853 11.752 3.3702 11.5597C3.41187 11.3674 3.47949 11.1809 3.57308 11.0001C3.48974 10.8296 3.42467 10.6482 3.37788 10.4559C3.33109 10.2636 3.3077 10.0604 3.3077 9.84627C3.3077 9.4809 3.37052 9.15911 3.49615 8.88089C3.62178 8.60269 3.76665 8.37834 3.93075 8.20784L5.8077 6.00207V4.00012H6.99998V6.17127C6.99998 6.2546 6.94164 6.41293 6.82498 6.64627L4.82498 8.99627C4.70831 9.1296 4.62498 9.2671 4.57498 9.40877C4.52497 9.55043 4.49998 9.69627 4.49998 9.84627C4.49998 10.1796 4.60831 10.4671 4.82498 10.7088C5.04164 10.9504 5.31664 11.0713 5.64998 11.0713C5.79998 11.0713 5.94004 11.0463 6.07018 10.9963C6.20029 10.9463 6.31856 10.8629 6.42498 10.7463C6.70831 10.4629 7.02914 10.2463 7.38748 10.0963C7.74581 9.94627 8.11664 9.87127 8.49998 9.87127C8.88331 9.87127 9.25414 9.94627 9.61248 10.0963C9.97081 10.2463 10.2916 10.4629 10.575 10.7463C10.6916 10.8629 10.8166 10.9463 10.95 10.9963C11.0833 11.0463 11.2166 11.0713 11.35 11.0713C11.6833 11.0713 11.9583 10.9504 12.175 10.7088C12.3916 10.4671 12.5 10.1879 12.5 9.87127C12.5 9.72127 12.4708 9.57543 12.4125 9.43377C12.3541 9.2921 12.275 9.1546 12.175 9.02127L10.175 6.64627C10.1083 6.5796 10.0625 6.5046 10.0375 6.42127C10.0125 6.33793 9.99998 6.2546 9.99998 6.17127V4.00012H11.1923V6.01167L13.0846 8.24822C13.2923 8.48283 13.4455 8.73828 13.5442 9.01457C13.6429 9.29083 13.6922 9.5764 13.6922 9.87127C13.6922 10.0751 13.6663 10.2732 13.6144 10.4655C13.5625 10.6578 13.4948 10.836 13.4115 11.0001C13.5051 11.1809 13.5753 11.3674 13.6221 11.5597C13.6689 11.752 13.6922 11.9501 13.6922 12.154C13.6922 12.5193 13.6294 12.8411 13.5038 13.1193C13.3782 13.3975 13.2333 13.6219 13.0692 13.7924L11.1923 15.9982V18.0001H9.99998V15.829C9.99998 15.729 10.0583 15.5706 10.175 15.354L12.175 13.004C12.3045 12.8514 12.3942 12.6857 12.4442 12.5068C12.4942 12.328 12.5032 12.1507 12.4711 11.9751C12.3006 12.0713 12.1253 12.1434 11.9452 12.1914C11.765 12.2395 11.575 12.2636 11.375 12.2636C11.0801 12.2636 10.7868 12.2049 10.4952 12.0876C10.2035 11.9703 9.9455 11.7943 9.72115 11.5597C9.57243 11.3943 9.39134 11.2703 9.17788 11.1876C8.96441 11.1049 8.73844 11.0636 8.49998 11.0636C8.27818 11.0636 8.05894 11.1049 7.84228 11.1876C7.62561 11.2703 7.43778 11.3943 7.2788 11.5597C7.06085 11.7943 6.80701 11.9703 6.51727 12.0876C6.22752 12.2049 5.93522 12.2636 5.64035 12.2636C5.44035 12.2636 5.24773 12.2395 5.06248 12.1914C4.87723 12.1434 4.69934 12.0713 4.52882 11.9751C4.49677 12.1507 4.50575 12.328 4.55575 12.5068C4.60575 12.6857 4.69549 12.8514 4.82498 13.004L6.82498 15.354C6.87498 15.4373 6.91664 15.5165 6.94998 15.5915C6.98331 15.6665 6.99998 15.7456 6.99998 15.829V18.0001H5.8077ZM1.49997 17.6924V18.0001V4.00012V17.6924Z" fill="#B0B5BD"/>
</svg>
