<svg width="48" height="48" viewBox="0 0 48 48" fill="none" xmlns="http://www.w3.org/2000/svg">
<mask id="mask0_2068_4265" style="mask-type:alpha" maskUnits="userSpaceOnUse" x="0" y="0" width="48" height="48">
<rect width="48" height="48" fill="#D9D9D9"/>
</mask>
<g mask="url(#mask0_2068_4265)">
<path d="M10.7692 42C10.0006 42 9.34695 41.7306 8.80815 41.1919C8.26938 40.6531 8 39.9994 8 39.2308V12.3077C8 11.5391 8.26938 10.8854 8.80815 10.3466C9.34695 9.80784 10.0006 9.53845 10.7692 9.53845H14.9039V5.53845H16.6923V9.53845H31.4616V5.53845H33.1346V9.53845H37.2308C37.9994 9.53845 38.653 9.80784 39.1918 10.3466C39.7306 10.8854 40 11.5391 40 12.3077V39.2308C40 39.9994 39.7306 40.6531 39.1918 41.1919C38.653 41.7306 37.9994 42 37.2308 42H10.7692ZM9.53845 39.2308C9.53845 39.5385 9.66665 39.8205 9.92305 40.077C10.1795 40.3334 10.4615 40.4616 10.7692 40.4616H37.2308C37.5385 40.4616 37.8205 40.3334 38.077 40.077C38.3333 39.8205 38.4616 39.5385 38.4616 39.2308V12.3077C38.4616 12 38.3333 11.718 38.077 11.4616C37.8205 11.2051 37.5385 11.0769 37.2308 11.0769H10.7692C10.4615 11.0769 10.1795 11.2051 9.92305 11.4616C9.66665 11.718 9.53845 12 9.53845 12.3077V39.2308ZM19.2308 40.4616V35.5923L15.3231 30.9693C15.0333 30.6539 14.7788 30.2564 14.5596 29.777C14.3404 29.2975 14.2307 28.7436 14.2307 28.1154C14.2307 27.7333 14.2724 27.366 14.3557 27.0135C14.4391 26.6609 14.5679 26.3231 14.7423 26C14.5756 25.6846 14.4487 25.3506 14.3615 24.9981C14.2743 24.6455 14.2307 24.2744 14.2307 23.8846C14.2307 23.2564 14.3404 22.7026 14.5596 22.2231C14.7788 21.7436 15.0333 21.3462 15.3231 21.0308L19.2308 16.4077V11.0769H21V16.5346C21 16.7013 20.8833 17.0179 20.65 17.4846L16.65 22.1846C16.4167 22.4513 16.25 22.7263 16.15 23.0096C16.05 23.2929 16 23.5846 16 23.8846C16 24.5513 16.2167 25.1263 16.65 25.6096C17.0833 26.0929 17.6333 26.3346 18.3 26.3346C18.6 26.3346 18.8769 26.2846 19.1307 26.1846C19.3846 26.0846 19.6244 25.9179 19.85 25.6846C20.4167 25.1179 21.0583 24.6846 21.775 24.3846C22.4917 24.0846 23.2333 23.9346 24 23.9346C24.7667 23.9346 25.5083 24.0846 26.225 24.3846C26.9417 24.6846 27.5833 25.1179 28.15 25.6846C28.3833 25.9179 28.6333 26.0846 28.9 26.1846C29.1667 26.2846 29.4333 26.3346 29.7 26.3346C30.3667 26.3346 30.9167 26.0929 31.35 25.6096C31.7833 25.1263 32 24.5679 32 23.9346C32 23.6346 31.9417 23.3429 31.825 23.0596C31.7083 22.7763 31.55 22.5013 31.35 22.2346L27.35 17.4846C27.2167 17.3513 27.125 17.2013 27.075 17.0346C27.025 16.8679 27 16.7013 27 16.5346V11.0769H28.7693V16.4462L32.6884 21.0923C33.0525 21.4974 33.3237 21.9442 33.502 22.4327C33.6802 22.9212 33.7693 23.4218 33.7693 23.9346C33.7693 24.3167 33.7237 24.684 33.6327 25.0366C33.5417 25.3891 33.4128 25.7103 33.2461 26C33.4205 26.3231 33.5513 26.6609 33.6384 27.0135C33.7256 27.366 33.7693 27.7333 33.7693 28.1154C33.7693 28.7436 33.6596 29.2975 33.4404 29.777C33.2212 30.2564 32.9667 30.6539 32.677 30.9693L28.7693 35.5923V40.4616H27V35.4654C27 35.2654 27.1167 34.9487 27.35 34.5154L31.35 29.8154C31.6346 29.4718 31.8269 29.0923 31.9269 28.677C32.0269 28.2616 32.0128 27.8526 31.8846 27.45C31.5692 27.668 31.2346 27.8314 30.8808 27.9404C30.5269 28.0494 30.15 28.1039 29.75 28.1039C29.2372 28.1039 28.7307 28.0026 28.2307 27.8C27.7307 27.5974 27.282 27.2936 26.8846 26.8885C26.5231 26.4936 26.0904 26.1974 25.5865 26C25.0827 25.8026 24.5538 25.7039 24 25.7039C23.4795 25.7039 22.9609 25.8026 22.4443 26C21.9276 26.1974 21.4846 26.4936 21.1154 26.8885C20.7436 27.2936 20.3032 27.5974 19.7943 27.8C19.2853 28.0026 18.7744 28.1039 18.2615 28.1039C17.8616 28.1039 17.4827 28.0494 17.125 27.9404C16.7673 27.8314 16.4308 27.668 16.1154 27.45C15.9872 27.8526 15.9731 28.2616 16.0731 28.677C16.1731 29.0923 16.3654 29.4718 16.65 29.8154L20.65 34.5154C20.75 34.6821 20.8333 34.8404 20.9 34.9904C20.9667 35.1404 21 35.2987 21 35.4654V40.4616H19.2308ZM9.53845 39.2308V40.4616V11.0769V39.2308Z" fill="white"/>
</g>
</svg>
