<svg width="64" height="64" viewBox="0 0 64 64" fill="none" xmlns="http://www.w3.org/2000/svg">
<mask id="mask0_2318_375" style="mask-type:alpha" maskUnits="userSpaceOnUse" x="0" y="0" width="64" height="64">
<rect width="64" height="64" fill="#D9D9D9"/>
</mask>
<g mask="url(#mask0_2318_375)">
<path d="M12.9335 49.5333C15.4224 47.1333 18.2756 45.2222 21.4932 43.8C24.7108 42.3778 28.2108 41.6667 31.9932 41.6667C35.7756 41.6667 39.2779 42.3778 42.5001 43.8C45.7224 45.2222 48.5779 47.1333 51.0668 49.5333V15.0667C51.0668 14.5333 50.8446 14.0445 50.4001 13.6C49.9557 13.1556 49.4668 12.9333 48.9335 12.9333H15.0668C14.5335 12.9333 14.0446 13.1556 13.6001 13.6C13.1557 14.0445 12.9335 14.5333 12.9335 15.0667V49.5333ZM32.0335 35.3333C34.1446 35.3333 35.9335 34.6 37.4001 33.1333C38.8668 31.6667 39.6001 29.8778 39.6001 27.7667C39.6001 25.6556 38.8668 23.8667 37.4001 22.4C35.9335 20.9333 34.1446 20.2 32.0335 20.2C29.9224 20.2 28.1335 20.9333 26.6668 22.4C25.2001 23.8667 24.4668 25.6556 24.4668 27.7667C24.4668 29.8778 25.2001 31.6667 26.6668 33.1333C28.1335 34.6 29.9224 35.3333 32.0335 35.3333ZM15.0668 52.5333C14.0546 52.5333 13.2015 52.1864 12.5077 51.4925C11.8138 50.7986 11.4668 49.9456 11.4668 48.9333V15.0667C11.4668 14.0545 11.8138 13.2014 12.5077 12.5075C13.2015 11.8136 14.0546 11.4667 15.0668 11.4667H48.9335C49.9457 11.4667 50.7988 11.8136 51.4927 12.5075C52.1865 13.2014 52.5335 14.0545 52.5335 15.0667V48.9333C52.5335 49.9456 52.1865 50.7986 51.4927 51.4925C50.7988 52.1864 49.9457 52.5333 48.9335 52.5333H15.0668ZM13.9335 51.0667H50.1335V50.6667C47.4668 48.1333 44.5984 46.2445 41.5284 45C38.4584 43.7556 35.2823 43.1333 32.0001 43.1333C28.7557 43.1333 25.6001 43.7445 22.5335 44.9667C19.4668 46.1889 16.6001 48.0445 13.9335 50.5333V51.0667ZM32.0668 33.8667C30.3557 33.8667 28.9057 33.2722 27.7168 32.0833C26.5279 30.8945 25.9335 29.4556 25.9335 27.7667C25.9335 26.0778 26.5279 24.6389 27.7168 23.45C28.9057 22.2611 30.3446 21.6667 32.0335 21.6667C33.7224 21.6667 35.1612 22.2657 36.3501 23.4639C37.539 24.6621 38.1335 26.0852 38.1335 27.7333C38.1335 29.4445 37.5344 30.8945 36.3363 32.0833C35.1381 33.2722 33.7149 33.8667 32.0668 33.8667Z" fill="#FF895D"/>
</g>
</svg>
