<svg width="24" height="24" viewBox="0 0 24 24" fill="none" xmlns="http://www.w3.org/2000/svg">
<mask id="mask0_2203_6892" style="mask-type:alpha" maskUnits="userSpaceOnUse" x="0" y="0" width="24" height="24">
<rect width="24" height="24" fill="#D9D9D9"/>
</mask>
<g mask="url(#mask0_2203_6892)">
<path d="M12 22C10.75 22 9.57917 21.7625 8.4875 21.2875C7.39583 20.8125 6.44583 20.1708 5.6375 19.3625C4.82917 18.5542 4.1875 17.6042 3.7125 16.5125C3.2375 15.4208 3 14.25 3 13C3 12.7167 3.09583 12.4792 3.2875 12.2875C3.47917 12.0958 3.71667 12 4 12C4.28333 12 4.52083 12.0958 4.7125 12.2875C4.90417 12.4792 5 12.7167 5 13C5 14.95 5.67917 16.6042 7.0375 17.9625C8.39583 19.3208 10.05 20 12 20C13.95 20 15.6042 19.3208 16.9625 17.9625C18.3208 16.6042 19 14.95 19 13C19 11.05 18.3208 9.39585 16.9625 8.03751C15.6042 6.67918 13.95 6.00001 12 6.00001H11.85L12.7 6.85001C12.9 7.05001 12.9958 7.28335 12.9875 7.55001C12.9792 7.81668 12.8833 8.05001 12.7 8.25001C12.5 8.45001 12.2625 8.55418 11.9875 8.56251C11.7125 8.57085 11.475 8.47501 11.275 8.27501L8.7 5.70001C8.5 5.50001 8.4 5.26668 8.4 5.00001C8.4 4.73335 8.5 4.50001 8.7 4.30001L11.275 1.72501C11.475 1.52501 11.7125 1.42918 11.9875 1.43751C12.2625 1.44585 12.5 1.55001 12.7 1.75001C12.8833 1.95001 12.9792 2.18335 12.9875 2.45001C12.9958 2.71668 12.9 2.95001 12.7 3.15001L11.85 4.00001H12C13.25 4.00001 14.4208 4.23751 15.5125 4.71251C16.6042 5.18751 17.5542 5.82918 18.3625 6.63751C19.1708 7.44585 19.8125 8.39585 20.2875 9.48751C20.7625 10.5792 21 11.75 21 13C21 14.25 20.7625 15.4208 20.2875 16.5125C19.8125 17.6042 19.1708 18.5542 18.3625 19.3625C17.5542 20.1708 16.6042 20.8125 15.5125 21.2875C14.4208 21.7625 13.25 22 12 22Z" fill="#7F868F"/>
</g>
</svg>
