<svg width="100" height="100" viewBox="0 0 100 100" fill="none" xmlns="http://www.w3.org/2000/svg">
<mask id="mask0_2068_4038" style="mask-type:alpha" maskUnits="userSpaceOnUse" x="0" y="0" width="100" height="100">
<rect width="100" height="100" fill="#D9D9D9"/>
</mask>
<g mask="url(#mask0_2068_4038)">
<path d="M31.9792 52.7082C33.507 49.7916 35.1563 46.9443 36.9271 44.1666C38.698 41.3888 40.625 38.7152 42.7084 36.1457L35.5209 34.6874C34.9653 34.5485 34.4271 34.5659 33.9063 34.7395C33.3855 34.9131 32.9167 35.2082 32.5 35.6249L21.1459 46.8749C20.9375 47.0832 20.8681 47.3436 20.9375 47.6561C21.007 47.9686 21.1806 48.1596 21.4584 48.2291L31.9792 52.7082ZM80 19.6874C72.5 20.3124 66.3716 21.736 61.6146 23.9582C56.8577 26.1804 52.2223 29.5485 47.7084 34.0624C44.7917 36.9791 42.1875 40.1214 39.8959 43.4895C37.6042 46.8575 35.5903 50.4166 33.8542 54.1666L46.1459 66.5624C49.8959 64.7568 53.4723 62.7082 56.875 60.4166C60.2778 58.1249 63.4375 55.5207 66.3542 52.6041C70.8681 48.0902 74.2362 43.4721 76.4584 38.7499C78.6806 34.0277 80.1042 27.9166 80.7292 20.4166V20.1561C80.7292 20.052 80.6945 19.9304 80.625 19.7916C80.5556 19.7221 80.4688 19.6874 80.3646 19.6874H80ZM57.3959 43.0207C56.3542 42.0485 55.8334 40.8332 55.8334 39.3749C55.8334 37.9166 56.3542 36.6666 57.3959 35.6249C58.4375 34.5832 59.6875 34.0624 61.1459 34.0624C62.6042 34.0624 63.8542 34.5832 64.8959 35.6249C65.9375 36.6666 66.4584 37.9166 66.4584 39.3749C66.4584 40.8332 65.9375 42.0485 64.8959 43.0207C63.8542 44.0624 62.6042 44.5832 61.1459 44.5832C59.6875 44.5832 58.4375 44.0624 57.3959 43.0207ZM47.6042 68.4374L52.0834 78.9582C52.1528 79.236 52.3438 79.3922 52.6563 79.427C52.9688 79.4617 53.2292 79.3749 53.4375 79.1666L64.6875 68.0207C65.1042 67.6041 65.3993 67.1179 65.573 66.5624C65.7466 66.0068 65.7639 65.486 65.625 64.9999L64.1667 57.7082C61.5973 59.7916 58.941 61.736 56.198 63.5416C53.4549 65.3471 50.5903 66.9791 47.6042 68.4374ZM83.125 19.9999C82.7778 27.0138 81.3716 33.2638 78.9063 38.7499C76.441 44.236 72.882 49.3402 68.2292 54.0624C67.882 54.3402 67.5348 54.6527 67.1875 54.9999C66.8403 55.3471 66.4931 55.6596 66.1459 55.9374L67.8125 64.4791C68.0209 65.4513 67.9688 66.3714 67.6563 67.2395C67.3438 68.1075 66.875 68.8541 66.25 69.4791L54.6875 81.1457C53.9237 81.8402 53.0556 82.0832 52.0834 81.8749C51.1112 81.6666 50.4514 81.0763 50.1042 80.1041L45.3125 68.8541L31.4584 54.9999L20.2084 50.2082C19.2362 49.7916 18.6806 49.0971 18.5417 48.1249C18.4028 47.1527 18.6806 46.3193 19.375 45.6249L30.9375 33.9582C31.5625 33.3332 32.3264 32.8818 33.2292 32.6041C34.132 32.3263 35.0348 32.2916 35.9375 32.4999L44.4792 34.1666C44.757 33.8888 45.0521 33.5763 45.3646 33.2291C45.6771 32.8818 46.007 32.5693 46.3542 32.2916C51.007 27.5693 56.0764 23.9582 61.5625 21.4582C67.0487 18.9582 73.2987 17.5693 80.3125 17.2916C80.7292 17.2221 81.1112 17.2568 81.4584 17.3957C81.8056 17.5346 82.1181 17.7429 82.3959 18.0207C82.6737 18.3679 82.8646 18.6804 82.9688 18.9582C83.073 19.236 83.125 19.5832 83.125 19.9999ZM22.6042 67.4999C23.9931 66.0416 25.6598 65.3471 27.6042 65.4166C29.5487 65.486 31.25 66.2152 32.7084 67.6041C34.0973 68.9929 34.7917 70.6596 34.7917 72.6041C34.7917 74.5485 34.0973 76.2499 32.7084 77.7082C31.3195 79.0277 29.2535 80.1561 26.5105 81.0936C23.7674 82.0311 20.7292 82.604 17.3959 82.8124C17.6042 79.4791 18.1771 76.4235 19.1146 73.6457C20.0521 70.8679 21.2153 68.8193 22.6042 67.4999ZM24.1667 69.2707C23.2639 70.2429 22.448 71.6839 21.7188 73.5936C20.9896 75.5034 20.4862 77.6735 20.2084 80.1041C22.6389 79.7568 24.8091 79.2186 26.7188 78.4895C28.6285 77.7603 30.0695 76.9096 31.0417 75.9374C32.0139 75.0346 32.5 73.9235 32.5 72.6041C32.5 71.2846 32.0139 70.1388 31.0417 69.1666C30.0695 68.1943 28.9237 67.7256 27.6042 67.7603C26.2848 67.795 25.1389 68.2985 24.1667 69.2707Z" fill="white"/>
</g>
</svg>
