<svg width="64" height="64" viewBox="0 0 64 64" fill="none" xmlns="http://www.w3.org/2000/svg">
<g id="rocket_launch">
<mask id="mask0_4304_587" style="mask-type:alpha" maskUnits="userSpaceOnUse" x="0" y="0" width="64" height="64">
<rect id="Bounding box" width="64" height="64" fill="#D9D9D9"/>
</mask>
<g mask="url(#mask0_4304_587)">
<path id="rocket_launch_2" d="M20.2358 32.9335C21.1727 31.1282 22.182 29.3624 23.2638 27.6362C24.346 25.9095 25.5178 24.2497 26.7791 22.6568L22.0251 21.6922C21.7518 21.6242 21.4869 21.6328 21.2304 21.7182C20.974 21.8035 20.7433 21.9488 20.5384 22.1542L13.2718 29.3695C13.1691 29.4722 13.1349 29.6004 13.1691 29.7542C13.2033 29.9079 13.2887 30.0019 13.4251 30.0362L20.2358 32.9335ZM51.7998 11.8768C47.0611 12.2359 43.1004 13.1599 39.9178 14.6488C36.7347 16.1377 33.632 18.3933 30.6098 21.4155C28.856 23.1693 27.2458 25.1317 25.7791 27.3028C24.3124 29.4735 23.0184 31.7744 21.8971 34.2055L29.9944 42.3542C32.4256 41.1986 34.7351 39.8875 36.9231 38.4208C39.1111 36.9542 41.082 35.3439 42.8358 33.5902C45.858 30.5679 48.1135 27.4764 49.6024 24.3155C51.0913 21.155 52.0153 17.2055 52.3744 12.4668C52.3744 12.4019 52.3691 12.3284 52.3584 12.2462C52.3482 12.1644 52.3158 12.079 52.2611 11.9902C52.2064 11.9355 52.1407 11.9028 52.0638 11.8922C51.9869 11.8819 51.8989 11.8768 51.7998 11.8768ZM37.0251 27.2415C36.3073 26.5575 35.9484 25.7053 35.9484 24.6848C35.9484 23.6644 36.3073 22.7951 37.0251 22.0768C37.7433 21.3591 38.6127 21.0002 39.6331 21.0002C40.6536 21.0002 41.5229 21.3591 42.2411 22.0768C42.9589 22.7951 43.3178 23.6644 43.3178 24.6848C43.3178 25.7053 42.9589 26.5575 42.2411 27.2415C41.5229 27.9593 40.6536 28.3182 39.6331 28.3182C38.6127 28.3182 37.7433 27.9593 37.0251 27.2415ZM31.2664 44.0308L34.1638 50.8255C34.198 50.9624 34.292 51.0395 34.4458 51.0568C34.5996 51.0737 34.7278 51.0308 34.8304 50.9282L42.0458 43.7642C42.2511 43.5593 42.3964 43.3199 42.4818 43.0462C42.5671 42.7728 42.5758 42.5164 42.5078 42.2768L41.5584 37.4722C39.9656 38.7335 38.3118 39.9164 36.5971 41.0208C34.8824 42.1248 33.1056 43.1282 31.2664 44.0308ZM54.4924 11.5848C54.352 16.3199 53.452 20.5788 51.7924 24.3615C50.1324 28.1446 47.6751 31.6806 44.4204 34.9695C44.2391 35.1166 44.0578 35.2782 43.8764 35.4542C43.6956 35.6302 43.5144 35.7917 43.3331 35.9388L44.4918 41.8362C44.6251 42.4686 44.5944 43.0704 44.3998 43.6415C44.2051 44.2122 43.8973 44.7077 43.4764 45.1282L35.6151 53.0415C35.1262 53.4962 34.5629 53.6568 33.9251 53.5235C33.2878 53.3902 32.8529 53.0073 32.6204 52.3748L29.2151 44.4208L19.7944 34.9848L11.8251 31.5948C11.1927 31.3282 10.8296 30.8735 10.7358 30.2308C10.6416 29.5882 10.8218 29.0395 11.2764 28.5848L19.1231 20.6875C19.5436 20.267 20.0478 19.9653 20.6358 19.7822C21.2238 19.5995 21.8169 19.5748 22.4151 19.7082L28.3124 20.8668C28.4596 20.7197 28.6151 20.5582 28.7791 20.3822C28.9431 20.2062 29.1158 20.0446 29.2971 19.8975C32.5518 16.6086 36.068 14.1257 39.8458 12.4488C43.6236 10.7719 47.88 9.88038 52.6151 9.77416C52.8818 9.74038 53.1289 9.77038 53.3564 9.86416C53.5836 9.95838 53.7911 10.0995 53.9791 10.2875C54.1671 10.5097 54.2996 10.7148 54.3764 10.9028C54.4538 11.0908 54.4924 11.3182 54.4924 11.5848ZM13.4204 43.0002C14.4631 41.9233 15.722 41.3908 17.1971 41.4028C18.6722 41.4148 19.9482 41.9593 21.0251 43.0362C22.0682 44.0788 22.5871 45.3377 22.5818 46.8128C22.5769 48.2879 22.0529 49.5642 21.0098 50.6415C19.5364 52.0806 17.7971 53.0028 15.7918 53.4082C13.7869 53.8131 11.7622 54.1131 9.71777 54.3082C9.91244 52.2295 10.2098 50.1851 10.6098 48.1748C11.0098 46.1642 11.9467 44.4393 13.4204 43.0002ZM14.8358 44.5335C13.906 45.4837 13.2856 46.6033 12.9744 47.8922C12.6633 49.1811 12.4084 50.5008 12.2098 51.8515C13.5604 51.6533 14.8716 51.3815 16.1431 51.0362C17.4151 50.6908 18.5433 50.0533 19.5278 49.1235C20.2118 48.5044 20.5538 47.7393 20.5538 46.8282C20.5538 45.9171 20.222 45.1248 19.5584 44.4515C18.8851 43.7884 18.0929 43.4653 17.1818 43.4822C16.2707 43.4995 15.4887 43.8499 14.8358 44.5335Z" fill="#1C1B1F"/>
</g>
</g>
</svg>
