<svg width="96" height="64" viewBox="0 0 96 64" fill="none" xmlns="http://www.w3.org/2000/svg">
<rect x="0.180664" width="95.6757" height="64" rx="16" fill="white"/>
<path fill-rule="evenodd" clip-rule="evenodd" d="M48.0184 14L57.6492 28.5445C58.6637 29.2707 59.469 29.875 60.1736 30.4034C62.5019 32.15 63.6838 33.0372 65.8042 33.4221C66.5052 33.5495 67.1667 33.5557 68.2135 33.5653C68.628 33.5691 69.0984 33.5738 69.6189 33.5848C70.3242 33.5983 70.8846 34.1776 70.8708 34.8785C70.8596 35.4642 70.4499 35.9498 69.9038 36.0851L69.9045 36.0877C69.1771 36.2692 68.326 36.4239 67.4602 36.5143C66.6832 36.5957 65.8984 36.6248 65.1857 36.5761C64.3472 36.5186 63.4476 36.274 62.5288 35.9133L71.8563 50H48.0184H24.1807L32.1149 38.0179C31.928 38.0786 31.7362 38.1388 31.5387 38.1993L31.4682 38.2185L31.4683 38.2192C30.8242 38.3762 30.1747 38.2581 29.6463 37.9398C29.1173 37.6214 28.7109 37.1047 28.5528 36.4653C28.5466 36.4403 28.5413 36.4153 28.5366 36.3903C28.4035 35.7722 28.5233 35.1561 28.8291 34.6543C28.8562 34.6094 28.8855 34.5672 28.917 34.5272C29.2405 34.064 29.7271 33.7126 30.3176 33.568L30.3228 33.5668C31.6683 33.1921 32.6509 32.8194 33.4855 32.2905C34.3204 31.7614 35.0645 31.0379 35.9432 29.9558C37.0794 28.557 38.3309 27.4528 39.6624 26.6192L48.0184 14ZM43.2098 28.1614C44.3188 27.7806 45.6298 27.6255 47.3543 27.639C50.1511 27.6609 53.0447 28.7538 55.6575 30.4339C58.1747 32.0521 62.3245 35.1052 65.2705 35.3072C66.636 35.4007 68.3067 35.1753 69.5937 34.8536C67.5802 34.8106 66.6689 34.8702 65.5739 34.671C62.3423 34.0839 61.1755 32.5952 56.4125 29.2267C50.0476 24.7253 42.1796 24.3012 36.94 30.7519C35.0081 33.1308 33.5946 33.9789 30.6232 34.8019C30.0165 34.9495 29.6456 35.5582 29.7945 36.1616C29.9436 36.7644 30.5562 37.1331 31.1629 36.9853C32.755 36.4989 33.9736 36.0108 35.0364 35.3527C35.0364 35.3914 35.0381 35.43 35.0424 35.4688C34.5372 37.2016 33.828 40.3927 30.0612 43.539C29.5735 43.9276 29.4962 44.635 29.8871 45.1193C30.2783 45.603 30.9902 45.6808 31.4776 45.292C33.9803 43.0599 35.5359 40.7946 36.4169 37.8624C37.0412 38.6522 37.7647 39.2492 38.9182 40.0227C43.9605 43.404 56.4766 46.7608 61.8546 43.2374C66.4378 40.2351 60.1305 34.6328 58.1887 38.7113C56.8732 41.4736 61.7226 42.4156 61.3832 39.8865C61.3327 39.5097 61.1817 39.2847 60.8246 39.1677L60.8241 39.1679C60.8991 39.3075 60.9971 39.4608 61.0361 39.6113C61.5115 41.4455 58.2649 40.9983 58.8252 39.3481C59.8087 36.4518 64.3332 40.2339 61.1421 42.1183C57.0557 44.5317 48.1098 42.2131 44.0472 40.4447C41.8678 39.496 39.7207 38.3617 38.2487 36.5588C44.3504 37.7391 53.59 37.8723 58.5873 35.9746L60.0183 35.3L58.4663 35.5177C51.7768 36.5287 44.7771 36.4407 38.1893 34.7579C37.8669 34.6757 37.1418 34.3739 36.5175 34.2389C37.208 33.618 37.8502 32.8494 38.5954 31.9246C39.1309 31.2597 39.628 30.6858 40.119 30.193C39.9679 30.5666 39.8843 30.9746 39.8843 31.4019C39.8843 33.1921 41.3445 34.6431 43.1461 34.6431C44.9476 34.6431 46.4079 33.1921 46.4079 31.4019C46.4079 29.633 44.9819 28.1953 43.2098 28.1614Z" fill="#B0B5BD"/>
</svg>
