<svg width="20" height="20" viewBox="0 0 20 20" fill="none" xmlns="http://www.w3.org/2000/svg">
<g id="schema">
<mask id="mask0_4152_646" style="mask-type:alpha" maskUnits="userSpaceOnUse" x="0" y="0" width="20" height="20">
<rect id="Bounding box" width="20" height="20" fill="#D9D9D9"/>
</mask>
<g mask="url(#mask0_4152_646)">
<path id="schema_2" d="M4 16.9975V15.4948C4 15.0816 4.14687 14.7292 4.44062 14.4375C4.73437 14.1458 5.0875 14 5.5 14H6V12.25H5.5C5.0875 12.25 4.73437 12.1028 4.44062 11.8085C4.14687 11.5144 4 11.1607 4 10.7475V9.24479C4 8.8316 4.14687 8.47917 4.44062 8.1875C4.73437 7.89583 5.0875 7.75 5.5 7.75H6V6.5H5.5C5.0875 6.5 4.73437 6.35285 4.44062 6.05854C4.14687 5.76438 4 5.41069 4 4.9975V3.49479C4 3.0816 4.14687 2.72917 4.44062 2.4375C4.73437 2.14583 5.0875 2 5.5 2H8C8.4125 2 8.76563 2.14715 9.05938 2.44146C9.35313 2.73563 9.5 3.08931 9.5 3.5025V5.00521C9.5 5.4184 9.35313 5.77083 9.05938 6.0625C8.76563 6.35417 8.4125 6.5 8 6.5H7.5V7.75H8C8.4125 7.75 8.76563 7.89688 9.05938 8.19063C9.35313 8.48438 9.5 8.8375 9.5 9.25H11.5C11.5 8.83333 11.6469 8.47917 11.9406 8.1875C12.2344 7.89583 12.5875 7.75 13 7.75H15.5C15.9125 7.75 16.2656 7.89715 16.5594 8.19146C16.8531 8.48563 17 8.83931 17 9.2525V10.7552C17 11.1684 16.8531 11.5208 16.5594 11.8125C16.2656 12.1042 15.9125 12.25 15.5 12.25H13C12.5875 12.25 12.2344 12.1031 11.9406 11.8094C11.6469 11.5156 11.5 11.1625 11.5 10.75H9.5C9.5 11.1667 9.35313 11.5208 9.05938 11.8125C8.76563 12.1042 8.4125 12.25 8 12.25H7.5V14H8C8.4125 14 8.76563 14.1472 9.05938 14.4415C9.35313 14.7356 9.5 15.0893 9.5 15.5025V17.0052C9.5 17.4184 9.35313 17.7708 9.05938 18.0625C8.76563 18.3542 8.4125 18.5 8 18.5H5.5C5.0875 18.5 4.73437 18.3528 4.44062 18.0585C4.14687 17.7644 4 17.4107 4 16.9975Z" fill="#1B76FF"/>
</g>
</g>
</svg>
