<svg width="48" height="48" viewBox="0 0 48 48" fill="none" xmlns="http://www.w3.org/2000/svg">
<mask id="mask0_2068_4285" style="mask-type:alpha" maskUnits="userSpaceOnUse" x="0" y="0" width="48" height="48">
<rect width="48" height="48" fill="#D9D9D9"/>
</mask>
<g mask="url(#mask0_2068_4285)">
<path d="M23.9882 37.0115C23.7705 37.0115 23.5447 36.9801 23.3108 36.9173C23.077 36.8545 22.8451 36.7564 22.6152 36.6231L13.1536 31.4769C12.7382 31.2359 12.4017 30.9 12.144 30.4691C11.8863 30.0382 11.7575 29.5549 11.7575 29.0192V21.0115L8.39978 19.1846C8.18915 19.0617 8.0243 18.8942 7.90523 18.6823C7.7862 18.4703 7.71387 18.2419 7.68823 17.9971C7.68823 17.7435 7.75417 17.5138 7.88603 17.3082C8.0179 17.1026 8.18915 16.9383 8.39978 16.8154L22.6137 9.01249C22.8366 8.91089 23.0642 8.82827 23.2965 8.76464C23.5289 8.70101 23.7595 8.66919 23.9882 8.66919C24.217 8.66919 24.4474 8.70252 24.6794 8.76919C24.9115 8.83586 25.126 8.92304 25.3229 9.03074L41.1229 17.5884C41.3383 17.7295 41.5126 17.908 41.646 18.1239C41.7793 18.3399 41.846 18.573 41.846 18.8231V29.9269C41.846 30.1449 41.7712 30.3276 41.6217 30.475C41.4722 30.6224 41.2869 30.6961 41.0659 30.6961C40.8449 30.6961 40.6633 30.6224 40.5209 30.475C40.3786 30.3276 40.3075 30.1449 40.3075 29.9269V18.9038L36.219 21.0115V29.0192C36.219 29.5549 36.0902 30.0382 35.8325 30.4691C35.5748 30.9 35.2254 31.2359 34.7844 31.4769L25.3229 36.6231C25.1185 36.7564 24.8995 36.8545 24.6656 36.9173C24.4318 36.9801 24.206 37.0115 23.9882 37.0115ZM23.5267 25.7154C23.6806 25.818 23.8344 25.8692 23.9882 25.8692C24.1421 25.8692 24.3088 25.818 24.4882 25.7154L38.5844 18L24.4882 10.3961C24.3088 10.2936 24.1421 10.2423 23.9882 10.2423C23.8344 10.2423 23.6806 10.2936 23.5267 10.3961L9.41518 18L23.5267 25.7154ZM23.4882 35.3692C23.6421 35.4718 23.8024 35.5231 23.969 35.5231C24.1357 35.5231 24.3088 35.4718 24.4882 35.3692L34.1036 30.0961C34.3088 29.9936 34.4562 29.8526 34.5459 29.6731C34.6357 29.4936 34.6805 29.2756 34.6805 29.0192V21.9654L25.3229 27.0192C25.1152 27.1269 24.9011 27.2058 24.6805 27.2558C24.46 27.3058 24.2293 27.3308 23.9882 27.3308C23.7472 27.3308 23.5183 27.3058 23.3017 27.2558C23.085 27.2058 22.8728 27.1269 22.6652 27.0192L13.2959 21.9038V29.0192C13.2959 29.25 13.3408 29.4615 13.4305 29.6538C13.5203 29.8461 13.6677 29.9936 13.8728 30.0961L23.4882 35.3692Z" fill="white"/>
</g>
</svg>
