<svg width="20" height="17" viewBox="0 0 20 17" fill="none" xmlns="http://www.w3.org/2000/svg">
<path d="M3.94423 13.8324C3.64936 13.6683 3.41828 13.4469 3.25098 13.1682C3.08366 12.8896 3 12.577 3 12.2305V7.89207L1.00388 6.78824C0.839778 6.69466 0.719269 6.5808 0.642352 6.44667C0.565436 6.31254 0.526978 6.16349 0.526978 5.99954C0.526978 5.83561 0.565436 5.68666 0.642352 5.55269C0.719269 5.41871 0.839778 5.30493 1.00388 5.21134L8.63898 1.05134C8.77453 0.975978 8.91411 0.920669 9.05773 0.885419C9.20136 0.850152 9.34878 0.83252 9.49998 0.83252C9.65118 0.83252 9.79859 0.850152 9.94223 0.885419C10.0858 0.920669 10.2256 0.975894 10.3614 1.05109L18.9845 5.74402C19.1384 5.82735 19.2563 5.94007 19.3384 6.08217C19.4204 6.22425 19.4614 6.37756 19.4614 6.54209V12.4421C19.4614 12.6546 19.3895 12.8327 19.2457 12.9764C19.1019 13.1202 18.9237 13.192 18.7111 13.192C18.4985 13.192 18.3204 13.1202 18.1769 12.9764C18.0333 12.8327 17.9615 12.6546 17.9615 12.4421V6.83054L16 7.89207V12.2305C16 12.577 15.9163 12.8896 15.749 13.1682C15.5817 13.4469 15.3506 13.6683 15.0557 13.8324L10.3634 16.3689C10.2262 16.4459 10.0858 16.502 9.94223 16.5372C9.79859 16.5725 9.65118 16.5901 9.49998 16.5901C9.34878 16.5901 9.20136 16.5725 9.05773 16.5372C8.91411 16.502 8.77371 16.4459 8.63653 16.3689L3.94423 13.8324ZM9.38458 9.64209C9.42946 9.66774 9.46953 9.68057 9.50478 9.68057C9.54004 9.68057 9.58011 9.66774 9.62498 9.64209L16.3404 5.99979L9.62498 2.36712C9.58011 2.34147 9.54004 2.32864 9.50478 2.32864C9.46953 2.32864 9.42946 2.34147 9.38458 2.36712L2.6596 5.99979L9.38458 9.64209ZM9.37498 15.0709C9.41984 15.0965 9.46151 15.1094 9.49998 15.1094C9.53844 15.1094 9.58011 15.0965 9.62498 15.0709L14.3557 12.5151C14.407 12.4831 14.4439 12.4462 14.4663 12.4045C14.4888 12.3629 14.5 12.31 14.5 12.2459V8.69207L10.3788 10.9555C10.2416 11.0325 10.0993 11.0885 9.9519 11.1238C9.80447 11.159 9.65383 11.1767 9.49998 11.1767C9.34613 11.1767 9.19549 11.159 9.04805 11.1238C8.90062 11.0885 8.75831 11.0325 8.62113 10.9555L4.49998 8.69207V12.2459C4.49998 12.2972 4.51119 12.3469 4.53363 12.3949C4.55608 12.443 4.59294 12.4831 4.64423 12.5151L9.37498 15.0709Z" fill="#B0B5BD"/>
</svg>
