<svg width="48" height="48" viewBox="0 0 48 48" fill="none" xmlns="http://www.w3.org/2000/svg">
<g id="search_activity">
<mask id="mask0_4304_641" style="mask-type:alpha" maskUnits="userSpaceOnUse" x="0" y="0" width="48" height="48">
<rect id="Bounding box" width="48" height="48" fill="#D9D9D9"/>
</mask>
<g mask="url(#mask0_4304_641)">
<path id="search_activity_2" d="M24.769 23.6983L31.15 30.0883C31.296 30.2343 31.3627 30.4111 31.35 30.6188C31.3373 30.8268 31.2578 31.0038 31.1115 31.1498C30.9655 31.2958 30.7865 31.3688 30.5745 31.3688C30.3625 31.3688 30.1877 31.2958 30.05 31.1498L23.6425 24.7038C23.5015 24.5628 23.3977 24.409 23.331 24.2423C23.2643 24.0756 23.231 23.9051 23.231 23.7308V15.9998C23.231 15.7811 23.3055 15.5983 23.4545 15.4513C23.6035 15.3043 23.7887 15.2308 24.01 15.2308C24.2317 15.2308 24.4137 15.3043 24.556 15.4513C24.698 15.5983 24.769 15.7811 24.769 15.9998V23.6983ZM29.914 9.9613C29.5587 9.9613 29.247 9.82431 28.979 9.55031C28.711 9.27631 28.577 8.96147 28.577 8.6058C28.577 8.25047 28.714 7.9388 28.988 7.6708C29.262 7.4028 29.5768 7.26881 29.9325 7.26881C30.2878 7.26881 30.5995 7.40597 30.8675 7.6803C31.1352 7.9543 31.269 8.26897 31.269 8.6243C31.269 8.97964 31.132 9.29131 30.858 9.5593C30.584 9.8273 30.2693 9.9613 29.914 9.9613ZM29.7985 40.7308C29.4432 40.7308 29.1315 40.5936 28.8635 40.3193C28.5955 40.0453 28.4615 39.7306 28.4615 39.3753C28.4615 39.02 28.5985 38.7083 28.8725 38.4403C29.1468 38.1723 29.4617 38.0383 29.817 38.0383C30.1723 38.0383 30.484 38.1753 30.752 38.4493C31.02 38.7233 31.154 39.0381 31.154 39.3938C31.154 39.7491 31.0168 40.0608 30.7425 40.3288C30.4685 40.5968 30.1538 40.7308 29.7985 40.7308ZM37.7985 16.4998C37.4432 16.4998 37.1315 16.3628 36.8635 16.0888C36.5955 15.8145 36.4615 15.4996 36.4615 15.1443C36.4615 14.789 36.5985 14.4773 36.8725 14.2093C37.1468 13.9413 37.4617 13.8073 37.817 13.8073C38.1723 13.8073 38.484 13.9445 38.752 14.2188C39.02 14.4928 39.154 14.8075 39.154 15.1628C39.154 15.5181 39.0168 15.8298 38.7425 16.0978C38.4685 16.3658 38.1538 16.4998 37.7985 16.4998ZM37.683 34.3073C37.3277 34.3073 37.016 34.1703 36.748 33.8963C36.48 33.6223 36.346 33.3076 36.346 32.9523C36.346 32.5966 36.4832 32.285 36.7575 32.0173C37.0315 31.7493 37.3462 31.6153 37.7015 31.6153C38.0568 31.6153 38.3685 31.7523 38.6365 32.0263C38.9045 32.3003 39.0385 32.6151 39.0385 32.9708C39.0385 33.3261 38.9015 33.6378 38.6275 33.9058C38.3532 34.1735 38.0383 34.3073 37.683 34.3073ZM40.414 25.3458C40.0587 25.3458 39.747 25.2088 39.479 24.9348C39.211 24.6608 39.077 24.3461 39.077 23.9908C39.077 23.6351 39.214 23.3235 39.488 23.0558C39.762 22.7878 40.0768 22.6538 40.4325 22.6538C40.7878 22.6538 41.0995 22.7908 41.3675 23.0648C41.6352 23.3388 41.769 23.6535 41.769 24.0088C41.769 24.3645 41.632 24.6761 41.358 24.9438C41.084 25.2118 40.7693 25.3458 40.414 25.3458ZM6 24.0018C6 19.1698 7.64483 15.0268 10.9345 11.5728C14.2242 8.11914 18.2602 6.2653 23.0425 6.0113C23.2962 6.00364 23.5192 6.07447 23.7115 6.2238C23.9038 6.3728 24 6.55814 24 6.7798C24 6.99314 23.9188 7.16897 23.7565 7.30731C23.5942 7.44597 23.401 7.5268 23.177 7.5498C18.8027 7.76247 15.1027 9.45564 12.077 12.6293C9.05133 15.803 7.5385 19.5945 7.5385 24.0038C7.5385 28.4498 9.04483 32.2491 12.0575 35.4018C15.0705 38.5545 18.777 40.2371 23.177 40.4498C23.401 40.4735 23.5942 40.5586 23.7565 40.7053C23.9188 40.852 24 41.0275 24 41.2318C24 41.4508 23.9038 41.6336 23.7115 41.7803C23.5192 41.9266 23.2962 41.996 23.0425 41.9883C18.2602 41.7343 14.2242 39.8811 10.9345 36.4288C7.64483 32.9765 6 28.8341 6 24.0018Z" fill="#1C1B1F"/>
</g>
</g>
</svg>
