<svg width="64" height="64" viewBox="0 0 64 64" fill="none" xmlns="http://www.w3.org/2000/svg">
<mask id="mask0_2189_5457" style="mask-type:alpha" maskUnits="userSpaceOnUse" x="0" y="0" width="64" height="64">
<rect width="64" height="64" fill="#D9D9D9"/>
</mask>
<g mask="url(#mask0_2189_5457)">
<path d="M45.8 33.6667L14 47C13.3778 47.2667 12.8 47.2333 12.2667 46.9C11.7333 46.5667 11.4667 46.0667 11.4667 45.4V18.5333C11.4667 17.9111 11.7333 17.4333 12.2667 17.1C12.8 16.7667 13.3778 16.7111 14 16.9333L45.8 30.3333C46.5111 30.6 46.8667 31.1555 46.8667 32C46.8667 32.8444 46.5111 33.4 45.8 33.6667ZM12.9333 45.8667L45.9333 32L12.9333 18.0667V29.2667L25 32L12.9333 34.6667V45.8667Z" fill="#3FB8A6"/>
</g>
</svg>
