<svg width="127" height="64" viewBox="0 0 127 64" fill="none" xmlns="http://www.w3.org/2000/svg">
<rect x="0.856445" width="126.007" height="64" rx="16" fill="white"/>
<path d="M29.9502 18.4982C30.4177 18.4766 30.8813 18.5924 31.2836 18.8312C31.5921 19.036 31.8534 19.3039 32.0504 19.6172L33.9239 18.4849C33.6087 17.8705 33.1164 17.3647 32.5104 17.0328C31.7267 16.6063 30.8421 16.3991 29.9502 16.4334C29.4033 16.424 28.8585 16.5028 28.3367 16.6665C27.873 16.8037 27.4404 17.03 27.0633 17.3326C26.699 17.6504 26.4118 18.0466 26.2232 18.4915C26.0145 18.9654 25.9121 19.4792 25.9232 19.9968C25.9153 20.4549 26.0063 20.9092 26.1899 21.329C26.3509 21.6812 26.5771 21.9999 26.8566 22.2681C27.1764 22.5607 27.5354 22.8073 27.9234 23.0008C28.3701 23.2206 28.8234 23.4137 29.2568 23.5869L30.3769 23.9932C30.6462 24.0965 30.9015 24.233 31.137 24.3995C31.3221 24.5243 31.4751 24.6908 31.5837 24.8858C31.6919 25.0907 31.7448 25.3203 31.737 25.5518C31.737 26.5376 31.0703 27.0305 29.8235 27.0305C29.24 27.0295 28.6607 26.9305 28.1101 26.7374C27.5582 26.5495 27.0387 26.2777 26.5699 25.9315L25.5232 27.8764C26.1105 28.2708 26.7531 28.5761 27.43 28.7822C28.1678 29.002 28.9336 29.1141 29.7035 29.1153C30.3195 29.1219 30.9329 29.0366 31.5237 28.8622C32.0363 28.7145 32.5129 28.4628 32.9238 28.1228C33.3063 27.8017 33.6116 27.3988 33.8172 26.9439C34.0364 26.4471 34.1434 25.9081 34.1306 25.3653C34.1442 24.8866 34.0579 24.4102 33.8772 23.9666C33.7148 23.5836 33.4741 23.2387 33.1705 22.9542C32.8483 22.6615 32.4871 22.4149 32.097 22.2215C31.6509 21.998 31.1923 21.8 30.7236 21.6287C30.1167 21.4226 29.5297 21.1618 28.9701 20.8494C28.7691 20.7498 28.6001 20.5959 28.4823 20.4051C28.3644 20.2144 28.3025 19.9945 28.3034 19.7704C28.2965 19.5892 28.3357 19.4093 28.4173 19.2474C28.499 19.0855 28.6203 18.9469 28.7701 18.8445C29.1142 18.6016 29.5293 18.4797 29.9502 18.4982ZM40.6578 29.1086C41.3074 29.1235 41.9565 29.0609 42.5913 28.9221C43.0765 28.8042 43.5497 28.6415 44.0047 28.4359L43.5247 26.7174C43.1235 26.8995 42.703 27.0358 42.2712 27.1237C41.7841 27.2226 41.2882 27.2717 40.7911 27.2703C40.1038 27.3165 39.4214 27.1261 38.8576 26.7308C38.6201 26.5367 38.4239 26.297 38.2807 26.0259C38.1376 25.7547 38.0504 25.4576 38.0242 25.1522H44.3781V24.8191C44.3909 24.1116 44.285 23.4069 44.0647 22.7344C43.878 22.1741 43.576 21.659 43.178 21.2224C42.804 20.8231 42.3495 20.5076 41.8445 20.2966C41.3191 20.0868 40.7568 19.9848 40.1911 19.9968C39.5979 19.9892 39.009 20.0979 38.4576 20.3165C37.936 20.5263 37.4646 20.8435 37.074 21.2474C36.6834 21.6514 36.3824 22.1331 36.1907 22.6611C35.9576 23.2709 35.8444 23.92 35.8574 24.5727C35.8491 25.1925 35.9623 25.808 36.1907 26.3844C36.4096 26.9274 36.7414 27.4177 37.1641 27.8231C37.5987 28.2416 38.1166 28.5639 38.6843 28.7689C39.3158 29.0018 39.9847 29.117 40.6578 29.1086ZM40.1911 21.662C40.6841 21.6534 41.1616 21.8347 41.5245 22.1682C41.9254 22.543 42.1645 23.059 42.1912 23.6069H38.0909C38.1806 23.0598 38.4504 22.5582 38.8576 22.1815C39.2199 21.8455 39.6967 21.6597 40.1911 21.662ZM48.6451 20.15H46.4916V28.9354H48.6451V23.3804C48.9465 23.0044 49.3178 22.6901 49.7385 22.4546C50.2865 22.1598 50.9035 22.0172 51.5253 22.0417H51.8254L51.5253 20.0967H51.2053C50.6941 20.091 50.1889 20.2075 49.7319 20.4364C49.2534 20.6938 48.8701 21.0977 48.6384 21.5887L48.6451 20.15ZM55.919 28.9354H57.9725L61.5728 20.15H59.3127L56.9858 26.2112L54.6789 20.15H52.2654L55.919 28.9354ZM65.1598 20.15H62.993V28.9354H65.1665L65.1598 20.15ZM62.7796 17.3326C62.7765 17.5072 62.8091 17.6806 62.8756 17.8421C62.9422 18.0037 63.0411 18.1499 63.1663 18.2717C63.2904 18.3964 63.4379 18.4953 63.6004 18.5627C63.7629 18.6302 63.9371 18.6648 64.1131 18.6647C64.2914 18.6693 64.4689 18.638 64.635 18.5728C64.801 18.5076 64.9523 18.4097 65.0798 18.285C65.2067 18.1616 65.3066 18.0133 65.3732 17.8493C65.4397 17.6854 65.4715 17.5094 65.4665 17.3326C65.4684 17.1561 65.4352 16.9811 65.3688 16.8176C65.3024 16.6541 65.2042 16.5054 65.0798 16.3801C64.9523 16.2554 64.801 16.1576 64.635 16.0924C64.4689 16.0271 64.2914 15.9959 64.1131 16.0004C63.7619 15.9984 63.4241 16.1348 63.173 16.3801C63.0474 16.5048 62.9479 16.6533 62.8804 16.8168C62.8128 16.9803 62.7786 17.1557 62.7796 17.3326ZM71.8804 21.9417C72.3336 21.9317 72.7803 22.0519 73.1671 22.2881C73.5145 22.4977 73.8106 22.7822 74.0339 23.1207L75.454 21.7353C75.0426 21.1847 74.5023 20.7433 73.8805 20.4498C73.2365 20.1381 72.5293 19.9786 71.8137 19.9835C71.1736 19.9732 70.5375 20.0863 69.9402 20.3165C69.3992 20.5223 68.9067 20.8375 68.4934 21.2424C68.0894 21.646 67.7738 22.1291 67.5667 22.6611C67.3475 23.2489 67.239 23.8722 67.2467 24.4994C67.2387 25.1437 67.3541 25.7835 67.5867 26.3844C67.8037 26.9322 68.1357 27.4273 68.5601 27.8364C68.9943 28.2505 69.5096 28.5703 70.0736 28.7756C70.7152 29.0044 71.3925 29.1172 72.0737 29.1086C72.7156 29.1166 73.3553 29.0336 73.9739 28.8622C74.4807 28.7214 74.9655 28.5107 75.414 28.2361L74.8606 26.3711C74.4686 26.5852 74.058 26.7636 73.6339 26.9039C73.1806 27.0438 72.7081 27.1113 72.2337 27.1038C71.8696 27.1246 71.5049 27.0723 71.1614 26.9499C70.8178 26.8275 70.5023 26.6375 70.2336 26.3911C69.9937 26.1496 69.807 25.8608 69.6853 25.5431C69.5636 25.2254 69.5097 24.8858 69.5268 24.5461C69.5194 24.174 69.5804 23.8037 69.7069 23.4537C69.8168 23.1608 69.9821 22.8918 70.1936 22.6611C70.4036 22.4366 70.661 22.2614 70.947 22.1482C71.2385 22.0281 71.5517 21.9691 71.867 21.975L71.8804 21.9417ZM81.6345 29.1086C82.2841 29.1232 82.9332 29.0606 83.568 28.9221C84.0508 28.8032 84.5217 28.6404 84.9748 28.4359L84.5014 26.7174C84.1022 26.8985 83.684 27.0348 83.2547 27.1237C82.7675 27.2222 82.2716 27.2713 81.7745 27.2703C81.0919 27.3118 80.4152 27.1217 79.8544 26.7308C79.6166 26.5374 79.4207 26.2977 79.2786 26.0264C79.1364 25.755 79.0511 25.4576 79.0276 25.1522H85.3748V24.8191C85.3877 24.1116 85.2818 23.4069 85.0615 22.7344C84.8784 22.1767 84.5835 21.6623 84.1947 21.2224C83.8183 20.826 83.3645 20.5109 82.8613 20.2966C82.3257 20.0817 81.7514 19.9797 81.1745 19.9968C80.5813 19.9892 79.9924 20.0979 79.441 20.3165C78.9199 20.5205 78.4475 20.8313 78.0542 21.2291C77.6496 21.636 77.336 22.1241 77.1341 22.6611C76.901 23.2709 76.7878 23.92 76.8008 24.5727C76.7928 25.1975 76.9084 25.8177 77.1408 26.3977C77.3622 26.9394 77.6936 27.4293 78.1142 27.8364C78.5538 28.2534 79.0731 28.5774 79.641 28.7889C80.28 29.0176 80.956 29.126 81.6345 29.1086ZM81.1811 21.662C81.6742 21.6534 82.1517 21.8347 82.5146 22.1682C82.9121 22.5455 83.1505 23.06 83.1813 23.6069H79.061C79.1463 23.0641 79.406 22.5638 79.801 22.1815C80.1751 21.8342 80.6707 21.6477 81.1811 21.662ZM90.3152 21.5954C90.6757 21.5947 91.0316 21.6767 91.3553 21.8352C91.6505 21.9815 91.9099 22.1906 92.1154 22.448L93.5288 21.329C93.2131 20.9086 92.7986 20.5724 92.3221 20.3498C91.6968 20.0587 91.0114 19.9195 90.3219 19.9435C89.8698 19.934 89.4192 19.9993 88.9885 20.1367C88.6281 20.2504 88.2915 20.4287 87.995 20.6629C87.7142 20.8934 87.4867 21.182 87.3283 21.5088C87.1497 21.866 87.0626 22.262 87.075 22.6611C87.0621 23.0102 87.133 23.3573 87.2817 23.6735C87.4202 23.9565 87.6153 24.2081 87.855 24.4128C88.1073 24.6307 88.3932 24.8061 88.7018 24.9324C89.0374 25.0782 89.3827 25.2006 89.7352 25.2987C90.0752 25.392 90.3619 25.4786 90.6086 25.5585C90.8191 25.6243 91.0224 25.7114 91.2153 25.8182C91.3492 25.8921 91.4653 25.9944 91.5553 26.118C91.6284 26.2309 91.6656 26.3632 91.662 26.4976C91.6643 26.6333 91.6295 26.767 91.5613 26.8844C91.4932 27.0017 91.3943 27.0983 91.2753 27.1637C90.9437 27.3389 90.5694 27.4174 90.1952 27.3902C89.7008 27.3894 89.2091 27.3176 88.7351 27.177C88.28 27.0451 87.8465 26.8476 87.4483 26.5909L86.6816 28.2227C87.1767 28.5132 87.708 28.7371 88.2617 28.8888C88.9146 29.058 89.5876 29.1365 90.2619 29.1219C91.1908 29.1707 92.1083 28.9004 92.8621 28.356C93.1643 28.1113 93.4053 27.7998 93.5661 27.4461C93.727 27.0923 93.8032 26.7061 93.7889 26.3178C93.7957 25.9749 93.7298 25.6344 93.5955 25.3187C93.4697 25.0406 93.2882 24.7912 93.0621 24.586C92.8124 24.3712 92.5342 24.1919 92.2354 24.0532C91.888 23.8935 91.5292 23.7599 91.162 23.6535C90.6538 23.5142 90.1586 23.3315 89.6819 23.1074C89.5391 23.0526 89.4155 22.9571 89.3266 22.8328C89.2377 22.7084 89.1873 22.5607 89.1818 22.408C89.1766 22.2837 89.2062 22.1604 89.2675 22.0521C89.3288 21.9438 89.4192 21.8548 89.5285 21.7952C89.7638 21.6542 90.0343 21.5826 90.3086 21.5887L90.3152 21.5954ZM28.2701 44.9477H33.1505L34.1506 47.7984H36.6574L32.037 35.4695H29.4768L24.8564 47.7984H27.2566L28.2701 44.9477ZM30.7169 38.0406L32.4837 43.076H28.9368L30.7169 38.0406ZM40.2577 38.993H38.0709V44.2549C38.0094 45.2421 38.3104 46.2179 38.9176 46.9991C39.2356 47.3351 39.6241 47.5966 40.0552 47.7647C40.4864 47.9329 40.9494 48.0035 41.4112 47.9716C41.9892 47.9891 42.563 47.8681 43.0846 47.6186C43.5333 47.3898 43.9393 47.0856 44.2847 46.7194V47.7984H46.4716V38.993H44.2847V44.881C44.0115 45.2097 43.6819 45.4871 43.3113 45.7003C42.9373 45.9194 42.5114 46.0344 42.0779 46.0333C41.8303 46.0458 41.583 46.0046 41.3528 45.9126C41.1227 45.8206 40.9151 45.68 40.7444 45.5005C40.4044 45.0668 40.2317 44.5255 40.2577 43.9752V38.993ZM52.052 40.4517C52.4156 40.4493 52.7745 40.5338 53.0988 40.6982C53.3957 40.8418 53.6557 41.0514 53.8589 41.3109L55.239 40.2186C54.9254 39.7945 54.5106 39.4556 54.0322 39.2328C53.4066 38.9426 52.7214 38.8035 52.032 38.8265C51.5933 38.8211 51.1566 38.8863 50.7386 39.0197C50.3678 39.1309 50.0216 39.3118 49.7185 39.5525C49.4399 39.7852 49.2128 40.0732 49.0518 40.3984C48.886 40.7478 48.8038 41.1309 48.8118 41.5174C48.7996 41.8686 48.8704 42.2177 49.0185 42.5365C49.1569 42.8158 49.3495 43.0649 49.5852 43.2692C49.8423 43.4854 50.1298 43.6627 50.4386 43.7954C50.7754 43.9361 51.1205 44.0562 51.472 44.155L52.3454 44.4148C52.5555 44.4819 52.7586 44.5689 52.9521 44.6746C53.086 44.7485 53.2021 44.8508 53.2922 44.9743C53.3653 45.0872 53.4024 45.2195 53.3988 45.354C53.4011 45.4896 53.3663 45.6233 53.2981 45.7407C53.23 45.858 53.1311 45.9546 53.0121 46.02C52.689 46.1927 52.3246 46.2733 51.9587 46.2531C51.4643 46.2523 50.9726 46.1806 50.4986 46.04C50.0434 45.9081 49.61 45.7106 49.2118 45.4539L48.4384 47.0924C48.9386 47.3773 49.4714 47.6009 50.0252 47.7585C50.6778 47.9287 51.351 48.0071 52.0254 47.9916C52.9618 48.052 53.8902 47.786 54.6523 47.2389C54.9488 46.9865 55.1822 46.6684 55.3338 46.3099C55.4855 45.9514 55.5512 45.5625 55.5257 45.1741C55.5379 44.8307 55.4718 44.4891 55.3323 44.175C55.2111 43.8962 55.0289 43.6481 54.7989 43.449C54.5516 43.2343 54.2756 43.055 53.9789 42.9162C53.6315 42.7565 53.2727 42.6229 52.9055 42.5165C52.4041 42.379 51.9156 42.1985 51.4453 41.977C51.3023 41.9235 51.1787 41.8281 51.0907 41.7033C51.0026 41.5786 50.9543 41.4302 50.952 41.2776C50.9453 41.1571 50.9716 41.0371 51.028 40.9303C51.0843 40.8235 51.1687 40.7341 51.272 40.6715C51.5048 40.5234 51.7761 40.4469 52.052 40.4517ZM58.0525 36.6685V39.013H56.4991V40.9379H58.0926V44.2683C58.0489 44.7738 58.1144 45.2828 58.2846 45.7608C58.4548 46.2388 58.7258 46.6747 59.0793 47.0391C59.9779 47.695 61.0843 48.0027 62.1929 47.905H62.3862L62.6663 45.9068H62.5129C61.9244 45.9468 61.3402 45.7821 60.8595 45.4405C60.6612 45.2537 60.5065 45.0255 60.4063 44.7723C60.306 44.5191 60.2627 44.247 60.2794 43.9752V40.9379H62.7996V39.013H60.2794V36.6485L58.0525 36.6685ZM66.7199 39.013H64.6064V47.7984H66.7533V42.2434C67.0561 41.8669 67.427 41.5506 67.8467 41.3109C68.405 41.0187 69.0305 40.8785 69.6602 40.9046H69.9602L69.6402 38.9597H69.3268C68.8135 38.9547 68.3063 39.0711 67.8467 39.2994C67.3671 39.5553 66.9834 39.9596 66.7533 40.4517L66.7199 39.013ZM77.9409 46.2731C78.1118 46.6691 78.3692 47.0218 78.6943 47.3055C79.0268 47.6049 79.431 47.8136 79.8677 47.9116L80.8611 46.0467C80.5428 45.9278 80.2842 45.6885 80.1411 45.3806C80.0203 45.0871 79.9613 44.772 79.9677 44.4548V39.013H77.9942L77.9209 39.5525C77.5387 39.3205 77.1257 39.1434 76.6941 39.0263C76.2334 38.9013 75.758 38.8385 75.2807 38.8398C74.651 38.8324 74.0259 38.9478 73.4405 39.1795C72.8973 39.394 72.403 39.7157 71.987 40.1253C71.5704 40.542 71.2457 41.0412 71.0336 41.5907C70.8016 42.1964 70.6863 42.8405 70.6936 43.489C70.6852 44.1238 70.789 44.7552 71.0003 45.354C71.1862 45.877 71.4791 46.3556 71.8604 46.7594C72.2361 47.1501 72.6906 47.4566 73.1938 47.6585C73.7173 47.8685 74.2766 47.9748 74.8406 47.9716C75.4742 47.9715 76.0993 47.8256 76.6674 47.5453C77.2284 47.2628 77.6925 46.8199 78.0009 46.2731H77.9409ZM77.7475 41.3442V43.2159C77.7607 43.584 77.7088 43.9515 77.5942 44.3016C77.482 44.6272 77.3076 44.9281 77.0808 45.1874C76.8587 45.4343 76.5888 45.6337 76.2874 45.7736C75.9659 45.9225 75.615 45.9976 75.2607 45.9934C74.9473 46.0082 74.6344 45.9565 74.3425 45.8417C74.0506 45.7269 73.7863 45.5516 73.5672 45.3273C73.1121 44.831 72.8723 44.1748 72.9005 43.5023C72.8599 42.7919 73.0992 42.0938 73.5672 41.5574C73.8206 41.3029 74.1251 41.1048 74.4607 40.9762C74.7962 40.8477 75.1552 40.7915 75.514 40.8114C75.9106 40.8108 76.3055 40.8646 76.6874 40.9712C77.0374 41.0628 77.377 41.19 77.7009 41.3509L77.7475 41.3442ZM84.7881 44.0085V34.7435H82.6479V44.2749C82.6045 44.7771 82.6663 45.2829 82.8293 45.7599C82.9923 46.237 83.2529 46.6749 83.5947 47.0458C84.4416 47.6987 85.502 48.0122 86.5683 47.925H86.6349L86.8816 45.9268C85.5282 45.9068 84.8214 45.2607 84.8214 43.9752L84.7881 44.0085ZM90.5953 39.0463H88.4618V47.7984H90.6286L90.5953 39.0463ZM88.2151 36.2355C88.2112 36.4092 88.2436 36.5819 88.3102 36.7424C88.3768 36.9029 88.4761 37.0479 88.6018 37.168C88.8569 37.4162 89.199 37.5551 89.5552 37.5551C89.9113 37.5551 90.2534 37.4162 90.5086 37.168C90.6343 37.0479 90.7336 36.9029 90.8002 36.7424C90.8667 36.5819 90.8991 36.4092 90.8953 36.2355C90.9016 36.0575 90.8705 35.8801 90.8039 35.7149C90.7373 35.5497 90.6367 35.4003 90.5086 35.2764C90.251 35.0328 89.9098 34.897 89.5552 34.897C89.2005 34.897 88.8593 35.0328 88.6018 35.2764C88.3692 35.5281 88.2426 35.8597 88.2484 36.2022L88.2151 36.2355ZM99.956 46.3064C100.131 46.6904 100.388 47.0314 100.709 47.3055C101.044 47.6027 101.447 47.8111 101.883 47.9116L102.863 46.0467C102.547 45.9242 102.289 45.686 102.143 45.3806C102.025 45.0862 101.966 44.7717 101.97 44.4548V39.013H100.009L99.9427 39.5525C99.5593 39.3228 99.1467 39.1459 98.7159 39.0263C98.2531 38.9007 97.7754 38.8379 97.2958 38.8398C96.6683 38.8319 96.0453 38.9473 95.4623 39.1795C94.9175 39.3909 94.4226 39.7129 94.0089 40.1253C93.5901 40.5402 93.265 41.0399 93.0555 41.5907C92.8212 42.196 92.7036 42.84 92.7088 43.489C92.7004 44.1238 92.8042 44.7552 93.0155 45.354C93.2014 45.877 93.4943 46.3556 93.8755 46.7594C94.2517 47.1495 94.7061 47.4559 95.209 47.6585C95.7301 47.8685 96.2872 47.9748 96.8491 47.9716C97.4848 47.9706 98.1118 47.8248 98.6826 47.5453C99.2344 47.2595 99.6891 46.8168 99.9894 46.2731L99.956 46.3064ZM99.7694 41.3775V43.2492C99.7832 43.6178 99.729 43.9859 99.6094 44.3349C99.5017 44.6612 99.3294 44.9624 99.1026 45.2207C98.8797 45.4713 98.6073 45.6732 98.3026 45.8135C97.983 45.9605 97.6343 46.0334 97.2825 46.0267C96.9681 46.0416 96.6542 45.99 96.3612 45.8752C96.0682 45.7604 95.8028 45.585 95.5824 45.3606C95.1272 44.8643 94.8875 44.2081 94.9156 43.5356C94.8786 42.8257 95.1175 42.1289 95.5824 41.5907C95.8371 41.336 96.1427 41.1379 96.4794 41.0093C96.816 40.8808 97.176 40.8247 97.5358 40.8447C97.9302 40.8445 98.3228 40.8983 98.7026 41.0045C99.0543 41.0972 99.396 41.2243 99.7227 41.3842L99.7694 41.3775Z" fill="#B0B5BD"/>
</svg>
