<svg width="64" height="64" viewBox="0 0 64 64" fill="none" xmlns="http://www.w3.org/2000/svg">
<mask id="mask0_2189_5469" style="mask-type:alpha" maskUnits="userSpaceOnUse" x="-1" y="0" width="65" height="64">
<rect x="-0.000488281" width="64" height="64" fill="#D9D9D9"/>
</mask>
<g mask="url(#mask0_2189_5469)">
<path d="M34.2661 55.2H29.6661C29.2217 55.2 28.8328 55.0555 28.4994 54.7667C28.1661 54.4778 27.955 54.1111 27.8661 53.6667L27.0661 47.8C26.0439 47.4889 24.9105 46.9889 23.6661 46.3C22.4217 45.6111 21.3772 44.8667 20.5328 44.0667L15.1994 46.5333C14.7994 46.7111 14.3772 46.7222 13.9328 46.5667C13.4883 46.4111 13.155 46.1111 12.9328 45.6667L10.5328 41.5333C10.3105 41.1333 10.255 40.7111 10.3661 40.2667C10.4772 39.8222 10.7105 39.4667 11.0661 39.2L15.7994 35.6667C15.7105 35.0889 15.6328 34.4889 15.5661 33.8667C15.4994 33.2444 15.4661 32.6444 15.4661 32.0667C15.4661 31.5333 15.4994 30.9555 15.5661 30.3333C15.6328 29.7111 15.7105 29.0444 15.7994 28.3333L11.0661 24.8C10.7105 24.5333 10.4772 24.1778 10.3661 23.7333C10.255 23.2889 10.3105 22.8667 10.5328 22.4667L12.9328 18.4C13.1994 18.0444 13.5328 17.7778 13.9328 17.6C14.3328 17.4222 14.7328 17.4222 15.1328 17.6L20.4661 19.9333C21.4439 19.1333 22.5105 18.4 23.6661 17.7333C24.8217 17.0667 25.9328 16.5778 26.9994 16.2667L27.8661 10.3333C27.955 9.88888 28.1661 9.52221 28.4994 9.23332C28.8328 8.94443 29.2217 8.79999 29.6661 8.79999H34.2661C34.7105 8.79999 35.1105 8.94443 35.4661 9.23332C35.8217 9.52221 36.0439 9.88888 36.1328 10.3333L36.9328 16.2667C38.1328 16.7111 39.2439 17.2222 40.2661 17.8C41.2883 18.3778 42.2883 19.0889 43.2661 19.9333L48.8661 17.6C49.2661 17.4222 49.6772 17.4 50.0994 17.5333C50.5217 17.6667 50.8439 17.9333 51.0661 18.3333L53.4661 22.4667C53.6883 22.8667 53.755 23.2889 53.6661 23.7333C53.5772 24.1778 53.3328 24.5333 52.9328 24.8L47.9328 28.4667C48.1105 29.1333 48.2217 29.7555 48.2661 30.3333C48.3105 30.9111 48.3328 31.4667 48.3328 32C48.3328 32.4889 48.2994 33.0222 48.2328 33.6C48.1661 34.1778 48.0661 34.8444 47.9328 35.6L52.8661 39.2C53.2217 39.4222 53.455 39.7667 53.5661 40.2333C53.6772 40.7 53.5994 41.1333 53.3328 41.5333L50.9994 45.7333C50.7328 46.1333 50.3883 46.4 49.9661 46.5333C49.5439 46.6667 49.1105 46.6444 48.6661 46.4667L43.2661 44C42.2439 44.8889 41.2105 45.6555 40.1661 46.3C39.1217 46.9444 38.0439 47.4222 36.9328 47.7333L36.1328 53.6667C36.0439 54.1111 35.8217 54.4778 35.4661 54.7667C35.1105 55.0555 34.7105 55.2 34.2661 55.2ZM31.7994 37.6667C33.3994 37.6667 34.7439 37.1222 35.8328 36.0333C36.9217 34.9444 37.4661 33.6 37.4661 32C37.4661 30.4 36.9217 29.0555 35.8328 27.9667C34.7439 26.8778 33.3994 26.3333 31.7994 26.3333C30.2439 26.3333 28.9105 26.8778 27.7994 27.9667C26.6883 29.0555 26.1328 30.4 26.1328 32C26.1328 33.6 26.6883 34.9444 27.7994 36.0333C28.9105 37.1222 30.2439 37.6667 31.7994 37.6667ZM31.7994 36.2C30.6439 36.2 29.655 35.7889 28.8328 34.9667C28.0105 34.1444 27.5994 33.1555 27.5994 32C27.5994 30.8444 28.0105 29.8555 28.8328 29.0333C29.655 28.2111 30.6439 27.8 31.7994 27.8C32.9994 27.8 33.9994 28.2111 34.7994 29.0333C35.5994 29.8555 35.9994 30.8444 35.9994 32C35.9994 33.1555 35.5994 34.1444 34.7994 34.9667C33.9994 35.7889 32.9994 36.2 31.7994 36.2ZM29.2661 53.7333H34.6661L35.6661 46.3333C36.9994 45.9778 38.2105 45.4889 39.2994 44.8667C40.3883 44.2444 41.5328 43.3778 42.7328 42.2667L49.5328 45.2L52.1994 40.6L46.1994 36.1333C46.3772 35.2889 46.5105 34.5444 46.5994 33.9C46.6883 33.2555 46.7328 32.6222 46.7328 32C46.7328 31.2889 46.6883 30.6333 46.5994 30.0333C46.5105 29.4333 46.3772 28.7555 46.1994 28L52.3328 23.4L49.6661 18.8L42.6661 21.7333C41.8661 20.8444 40.7772 19.9778 39.3994 19.1333C38.0217 18.2889 36.755 17.8 35.5994 17.6667L34.7328 10.2667H29.2661L28.4661 17.6C27.0439 17.8667 25.7661 18.3222 24.6328 18.9667C23.4994 19.6111 22.355 20.5111 21.1994 21.6667L14.3328 18.8L11.6661 23.4L17.6661 27.8C17.4439 28.4222 17.2883 29.0889 17.1994 29.8C17.1105 30.5111 17.0661 31.2667 17.0661 32.0667C17.0661 32.7778 17.1105 33.4667 17.1994 34.1333C17.2883 34.8 17.4217 35.4667 17.5994 36.1333L11.6661 40.6L14.3328 45.2L21.1328 42.3333C22.1994 43.4444 23.3105 44.3111 24.4661 44.9333C25.6217 45.5555 26.9328 46.0444 28.3994 46.4L29.2661 53.7333Z" fill="#39CE2C"/>
</g>
</svg>
