<svg width="64" height="64" viewBox="0 0 64 64" fill="none" xmlns="http://www.w3.org/2000/svg">
<mask id="mask0_2189_5445" style="mask-type:alpha" maskUnits="userSpaceOnUse" x="0" y="0" width="64" height="64">
<rect width="64" height="64" fill="#D9D9D9"/>
</mask>
<g mask="url(#mask0_2189_5445)">
<path d="M32 54.7333C31.7635 54.7333 31.5291 54.7111 31.2968 54.6667C31.0646 54.6222 30.854 54.5556 30.6652 54.4667C25.5551 52.4667 21.5222 49.1556 18.5666 44.5333C15.6111 39.9111 14.1333 34.8827 14.1333 29.4482V18.2667C14.1333 17.4859 14.3502 16.7832 14.784 16.1585C15.2177 15.5339 15.7786 15.0811 16.4666 14.8L30.7333 9.53333C31.1777 9.35555 31.6 9.26666 32 9.26666C32.4 9.26666 32.8222 9.35555 33.2666 9.53333L47.5333 14.8C48.2213 15.0811 48.7822 15.5339 49.216 16.1585C49.6497 16.7832 49.8666 17.4859 49.8666 18.2667V29.4482C49.8666 34.8827 48.3889 39.9111 45.4333 44.5333C42.4777 49.1556 38.4449 52.4667 33.3347 54.4667C33.1459 54.5556 32.9354 54.6222 32.7031 54.6667C32.4708 54.7111 32.2364 54.7333 32 54.7333ZM32 53.4667C36.7555 51.9556 40.6777 48.9556 43.7666 44.4667C46.8555 39.9778 48.4 34.9778 48.4 29.4667V18.2C48.4 17.7556 48.2777 17.3556 48.0333 17C47.7889 16.6444 47.4444 16.3778 47 16.2L32.7333 10.8667C32.5111 10.7778 32.2666 10.7333 32 10.7333C31.7333 10.7333 31.4889 10.7778 31.2666 10.8667L17 16.2C16.5555 16.3778 16.2111 16.6444 15.9666 17C15.7222 17.3556 15.6 17.7556 15.6 18.2V29.4667C15.6 34.9778 17.1444 39.9778 20.2333 44.4667C23.3222 48.9556 27.2444 51.9556 32 53.4667Z" fill="#9863F3"/>
</g>
</svg>
