<svg width="24" height="22" viewBox="0 0 24 22" fill="none" xmlns="http://www.w3.org/2000/svg">
<path d="M6.5265 10.3265C6.8017 10.3265 7.04144 10.2244 7.24573 10.0201C7.45 9.81581 7.55213 9.57607 7.55213 9.30087C7.55213 9.02564 7.45 8.7859 7.24573 8.58163C7.04144 8.37735 6.8017 8.2752 6.5265 8.2752C6.23988 8.2752 5.99728 8.37735 5.7987 8.58163C5.60012 8.7859 5.50083 9.02564 5.50083 9.30087C5.50083 9.57607 5.60012 9.81581 5.7987 10.0201C5.99728 10.2244 6.23988 10.3265 6.5265 10.3265ZM12.0325 10.3265C12.3077 10.3265 12.5474 10.2244 12.7517 10.0201C12.956 9.81581 13.0581 9.57607 13.0581 9.30087C13.0581 9.02564 12.956 8.7859 12.7517 8.58163C12.5474 8.37735 12.3077 8.2752 12.0325 8.2752C11.7573 8.2752 11.5175 8.37735 11.3132 8.58163C11.109 8.7859 11.0068 9.02564 11.0068 9.30087C11.0068 9.57607 11.109 9.81581 11.3132 10.0201C11.5175 10.2244 11.7573 10.3265 12.0325 10.3265ZM17.4684 10.3265C17.7436 10.3265 17.9833 10.2244 18.1876 10.0201C18.3919 9.81581 18.494 9.57607 18.494 9.30087C18.494 9.02564 18.3919 8.7859 18.1876 8.58163C17.9833 8.37735 17.7436 8.2752 17.4684 8.2752C17.1932 8.2752 16.9534 8.37735 16.7491 8.58163C16.5449 8.7859 16.4427 9.02564 16.4427 9.30087C16.4427 9.57607 16.5449 9.81581 16.7491 10.0201C16.9534 10.2244 17.1932 10.3265 17.4684 10.3265ZM0 20.4248V1.9487C0 1.40341 0.188245 0.9423 0.564733 0.565367C0.941222 0.188456 1.40254 0 1.9487 0H22.0513C22.5966 0 23.0577 0.188456 23.4346 0.565367C23.8115 0.9423 24 1.40341 24 1.9487V16.718C24 17.2633 23.8115 17.7244 23.4346 18.1013C23.0577 18.4782 22.5966 18.6667 22.0513 18.6667H4.10257L1.6581 21.1111C1.34983 21.4194 0.996422 21.4911 0.597867 21.3262C0.199289 21.1614 0 20.8609 0 20.4248ZM1.1282 20.0265L3.61623 17.5385H22.0513C22.2906 17.5385 22.4872 17.4615 22.641 17.3077C22.7949 17.1539 22.8718 16.9573 22.8718 16.718V1.9487C22.8718 1.70939 22.7949 1.51281 22.641 1.35897C22.4872 1.20512 22.2906 1.1282 22.0513 1.1282H1.9487C1.70939 1.1282 1.51281 1.20512 1.35897 1.35897C1.20512 1.51281 1.1282 1.70939 1.1282 1.9487V20.0265ZM1.1282 1.9487V1.1282V20.0265V1.9487Z" fill="#1C1B1F"/>
</svg>
