<svg width="48" height="48" viewBox="0 0 48 48" fill="none" xmlns="http://www.w3.org/2000/svg">
<mask id="mask0_2068_4280" style="mask-type:alpha" maskUnits="userSpaceOnUse" x="0" y="0" width="48" height="48">
<rect width="48" height="48" fill="#D9D9D9"/>
</mask>
<g mask="url(#mask0_2068_4280)">
<path d="M11.7 42V23.0846H13.2385V40.4616H29.1616V30.5423L34.0308 25.6346C35.1077 24.5577 35.9256 23.3392 36.4846 21.9789C37.0436 20.6186 37.323 19.1872 37.323 17.6846C37.323 16.1821 37.0417 14.7507 36.4789 13.3904C35.916 12.0302 35.1128 10.8282 34.0693 9.78465L31.9307 7.5962L25.0731 14.4539H17.6115L14.2307 17.8346L13.1192 16.7731L16.9769 12.9154H24.4385L31.9307 5.4231L35.1807 8.63465C36.3962 9.85005 37.3051 11.2379 37.9077 12.7981C38.5103 14.3584 38.8282 15.9872 38.8616 17.6846C38.8282 19.3821 38.5103 21.0109 37.9077 22.5712C37.3051 24.1315 36.3962 25.5193 35.1807 26.7346L30.7 31.1769V42H11.7ZM20.2807 32.5577L10.7692 23.0846C10.5128 22.8282 10.3205 22.5238 10.1923 22.1712C10.0641 21.8186 10 21.4603 10 21.0962C10 20.7321 10.0641 20.3782 10.1923 20.0346C10.3205 19.6911 10.5128 19.3911 10.7692 19.1346L14.1192 15.7731L19.4693 21.0346C20.318 21.8834 20.9519 22.8379 21.3712 23.8981C21.7904 24.9584 22 26.0705 22 27.2346C22 28.1705 21.8558 29.1007 21.5673 30.025C21.2788 30.9494 20.85 31.7936 20.2807 32.5577Z" fill="white"/>
</g>
</svg>
