<svg width="16" height="20" viewBox="0 0 16 20" fill="none" xmlns="http://www.w3.org/2000/svg">
<path d="M0.85 19.5001V9.95206H2.34997V18.0002H9.6V13.2809L12.1481 10.7233C12.6506 10.2207 13.0401 9.65177 13.3163 9.01651C13.5926 8.38126 13.7308 7.70914 13.7308 7.00016C13.7308 6.30144 13.5916 5.63606 13.3134 5.00401C13.0352 4.37194 12.65 3.80462 12.1577 3.30206L11.35 2.46936L8.0692 5.75013H4.31922L2.9942 7.07516L1.925 6.03096L3.70577 4.25018H7.45575L11.35 0.355957L13.2269 2.22326C13.8679 2.86427 14.3605 3.59279 14.7048 4.40881C15.049 5.22484 15.2243 6.08862 15.2307 7.00016C15.2243 7.91169 15.049 8.77547 14.7048 9.59151C14.3605 10.4075 13.8679 11.136 13.2269 11.7771L11.1 13.8944V19.5001H0.85ZM5.51537 14.9598L0.498075 9.95206C0.333975 9.78796 0.209941 9.59694 0.125975 9.37901C0.0419913 9.16106 0 8.93477 0 8.70016C0 8.46554 0.0419913 8.24342 0.125975 8.03381C0.209941 7.82421 0.333975 7.63736 0.498075 7.47326L2.425 5.53096L5.3519 8.42326C5.79933 8.87069 6.1426 9.38254 6.3817 9.95881C6.6208 10.5351 6.74035 11.1405 6.74035 11.7752C6.74035 12.3649 6.63779 12.9319 6.43268 13.4761C6.22754 14.0203 5.92177 14.5149 5.51537 14.9598Z" fill="#B0B5BD"/>
</svg>
