<svg width="24" height="24" viewBox="0 0 24 24" fill="none" xmlns="http://www.w3.org/2000/svg">
<path d="M1.9487 16C1.41737 16 0.959744 15.8081 0.575833 15.4242C0.191944 15.0403 0 14.5826 0 14.0513V1.9487C0 1.41737 0.191944 0.959744 0.575833 0.575833C0.959744 0.191944 1.41737 0 1.9487 0H14.0513C14.5826 0 15.0403 0.191944 15.4242 0.575833C15.8081 0.959744 16 1.41737 16 1.9487V4.46153C16 4.62222 15.9458 4.75641 15.8373 4.8641C15.7288 4.97179 15.5936 5.02563 15.4317 5.02563C15.2698 5.02563 15.136 4.97179 15.0303 4.8641C14.9246 4.75641 14.8718 4.62222 14.8718 4.46153V1.9487C14.8718 1.70939 14.7949 1.51281 14.641 1.35897C14.4872 1.20512 14.2906 1.1282 14.0513 1.1282H1.9487C1.70939 1.1282 1.51281 1.20512 1.35897 1.35897C1.20512 1.51281 1.1282 1.70939 1.1282 1.9487V14.0513C1.1282 14.2906 1.20512 14.4872 1.35897 14.641C1.51281 14.7949 1.70939 14.8718 1.9487 14.8718H4.46153C4.62222 14.8718 4.75641 14.926 4.8641 15.0345C4.97179 15.143 5.02563 15.2782 5.02563 15.4401C5.02563 15.602 4.97179 15.7358 4.8641 15.8415C4.75641 15.9472 4.62222 16 4.46153 16H1.9487ZM9.9487 24C9.41737 24 8.95974 23.8081 8.57583 23.4242C8.19194 23.0403 8 22.5826 8 22.0513V9.9487C8 9.41737 8.19194 8.95974 8.57583 8.57583C8.95974 8.19194 9.41737 8 9.9487 8H22.0513C22.5826 8 23.0403 8.19194 23.4242 8.57583C23.8081 8.95974 24 9.41737 24 9.9487V22.0513C24 22.5826 23.8081 23.0403 23.4242 23.4242C23.0403 23.8081 22.5826 24 22.0513 24H9.9487ZM9.9487 22.8718H22.0513C22.2906 22.8718 22.4872 22.7949 22.641 22.641C22.7949 22.4872 22.8718 22.2906 22.8718 22.0513V9.9487C22.8718 9.70939 22.7949 9.51281 22.641 9.35897C22.4872 9.20512 22.2906 9.1282 22.0513 9.1282H9.9487C9.70939 9.1282 9.51281 9.20512 9.35897 9.35897C9.20512 9.51281 9.1282 9.70939 9.1282 9.9487V22.0513C9.1282 22.2906 9.20512 22.4872 9.35897 22.641C9.51281 22.7949 9.70939 22.8718 9.9487 22.8718Z" fill="#1C1B1F"/>
</svg>
