<svg width="64" height="64" viewBox="0 0 64 64" fill="none" xmlns="http://www.w3.org/2000/svg">
<mask id="mask0_2219_6793" style="mask-type:alpha" maskUnits="userSpaceOnUse" x="0" y="0" width="64" height="64">
<rect width="64" height="64" fill="#D9D9D9"/>
</mask>
<g mask="url(#mask0_2219_6793)">
<path d="M23 48.4L32 42.9333L41 48.4667L38.6667 38.1333L46.6 31.2667L36.1334 30.3333L32 20.6667L27.8667 30.2667L17.4 31.2L25.3334 38.1333L23 48.4ZM32 44.6667L22.3334 50.5333C22.1556 50.5778 22 50.6 21.8667 50.6C21.7334 50.6 21.6 50.5555 21.4667 50.4667C21.3334 50.3778 21.2334 50.2555 21.1667 50.1C21.1 49.9444 21.1111 49.7778 21.2 49.6L23.7334 38.6667L15.2667 31.2667C15.1334 31.1778 15.0334 31.0555 14.9667 30.9C14.9 30.7444 14.9111 30.5778 15 30.4C15.0445 30.2667 15.1222 30.1555 15.2334 30.0667C15.3445 29.9778 15.4889 29.9333 15.6667 29.9333L26.8667 28.9333L31.2667 18.5333C31.3556 18.4 31.4556 18.2889 31.5667 18.2C31.6778 18.1111 31.8222 18.0667 32 18.0667C32.1778 18.0667 32.3222 18.1111 32.4334 18.2C32.5445 18.2889 32.6445 18.4 32.7334 18.5333L37.1334 28.9333L48.3334 29.9333C48.5111 29.9333 48.6556 29.9778 48.7667 30.0667C48.8778 30.1555 48.9778 30.2667 49.0667 30.4C49.1111 30.5778 49.1 30.7444 49.0334 30.9C48.9667 31.0555 48.8667 31.1778 48.7334 31.2667L40.2667 38.6667L42.8667 49.6C42.9111 49.7778 42.9 49.9444 42.8334 50.1C42.7667 50.2555 42.6667 50.3778 42.5334 50.4667C42.4 50.5555 42.2667 50.6 42.1334 50.6C42 50.6 41.8445 50.5778 41.6667 50.5333L32 44.6667Z" fill="#FF895D"/>
</g>
</svg>
