<svg width="64" height="64" viewBox="0 0 64 64" fill="none" xmlns="http://www.w3.org/2000/svg">
<g id="timer">
<mask id="mask0_4304_575" style="mask-type:alpha" maskUnits="userSpaceOnUse" x="0" y="0" width="64" height="64">
<rect id="Bounding box" width="64" height="64" fill="#D9D9D9"/>
</mask>
<g mask="url(#mask0_4304_575)">
<path id="timer_2" d="M26.0512 6.05133C25.7605 6.05133 25.5169 5.95156 25.3205 5.752C25.1236 5.55289 25.0252 5.306 25.0252 5.01133C25.0252 4.71667 25.1236 4.47445 25.3205 4.28467C25.5169 4.09489 25.7605 4 26.0512 4H37.9485C38.2392 4 38.4827 4.09978 38.6792 4.29933C38.8761 4.49844 38.9745 4.74533 38.9745 5.04C38.9745 5.33466 38.8761 5.57689 38.6792 5.76667C38.4827 5.95644 38.2392 6.05133 37.9485 6.05133H26.0512ZM32.0145 35.9027C32.3092 35.9027 32.5514 35.8044 32.7412 35.608C32.9305 35.4111 33.0252 35.1673 33.0252 34.8767V23.2873C33.0252 22.9967 32.9256 22.7531 32.7265 22.5567C32.5269 22.3598 32.2798 22.2613 31.9852 22.2613C31.6905 22.2613 31.4483 22.3598 31.2585 22.5567C31.0692 22.7531 30.9745 22.9967 30.9745 23.2873V34.8767C30.9745 35.1673 31.0741 35.4111 31.2732 35.608C31.4727 35.8044 31.7198 35.9027 32.0145 35.9027ZM31.9998 55.9847C29.0687 55.9847 26.3061 55.4198 23.7118 54.29C21.1176 53.1598 18.8512 51.634 16.9125 49.7127C14.9743 47.7913 13.4487 45.5249 12.3358 42.9133C11.2229 40.3022 10.6665 37.5396 10.6665 34.6253C10.6665 31.7116 11.2229 28.9576 12.3358 26.3633C13.4487 23.7691 14.9743 21.5027 16.9125 19.564C18.8512 17.6258 21.1176 16.1002 23.7118 14.9873C26.3061 13.8744 29.0687 13.318 31.9998 13.318C34.7043 13.318 37.2821 13.8009 39.7332 14.7667C42.1843 15.7324 44.3809 17.0871 46.3232 18.8307L48.3232 16.7793C48.5178 16.5847 48.7536 16.4787 49.0305 16.4613C49.3074 16.4444 49.5605 16.5504 49.7898 16.7793C50.0187 17.0087 50.1332 17.2531 50.1332 17.5127C50.1332 17.7727 50.0187 18.0171 49.7898 18.246L47.7385 20.2973C49.407 22.0751 50.7565 24.1709 51.7872 26.5847C52.8178 28.9984 53.3332 31.6873 53.3332 34.6513C53.3332 37.5482 52.7767 40.3022 51.6638 42.9133C50.5509 45.5249 49.0254 47.7913 47.0872 49.7127C45.1485 51.634 42.8821 53.1598 40.2878 54.29C37.6936 55.4198 34.931 55.9847 31.9998 55.9847ZM31.9925 53.9333C37.3476 53.9333 41.9014 52.0598 45.6538 48.3127C49.4058 44.5651 51.2818 40.0138 51.2818 34.6587C51.2818 29.3031 49.4083 24.7493 45.6612 20.9973C41.9136 17.2453 37.3623 15.3693 32.0072 15.3693C26.6521 15.3693 22.0983 17.2429 18.3458 20.99C14.5938 24.7376 12.7178 29.2889 12.7178 34.644C12.7178 39.9991 14.5914 44.5529 18.3385 48.3053C22.0861 52.0573 26.6374 53.9333 31.9925 53.9333Z" fill="#1C1B1F"/>
</g>
</g>
</svg>
