<svg width="20" height="18" viewBox="0 0 20 18" fill="none" xmlns="http://www.w3.org/2000/svg">
<path d="M2.3077 15.5C1.80257 15.5 1.375 15.325 1.025 14.975C0.675 14.625 0.5 14.1974 0.5 13.6923V2.3077C0.5 1.80257 0.675 1.375 1.025 1.025C1.375 0.675 1.80257 0.5 2.3077 0.5H17.6923C18.1974 0.5 18.625 0.675 18.975 1.025C19.325 1.375 19.5 1.80257 19.5 2.3077V13.6923C19.5 14.1974 19.325 14.625 18.975 14.975C18.625 15.325 18.1974 15.5 17.6923 15.5H13.5V16.5961C13.5 16.8538 13.4137 17.0688 13.2413 17.2413C13.0688 17.4137 12.8538 17.5 12.5961 17.5H7.40385C7.14617 17.5 6.93111 17.4137 6.75868 17.2413C6.58623 17.0688 6.5 16.8538 6.5 16.5961V15.5H2.3077ZM2.3077 14H17.6923C17.7692 14 17.8397 13.9679 17.9038 13.9038C17.9679 13.8397 18 13.7692 18 13.6923V2.3077C18 2.23077 17.9679 2.16024 17.9038 2.09613C17.8397 2.03203 17.7692 1.99998 17.6923 1.99998H2.3077C2.23077 1.99998 2.16024 2.03203 2.09613 2.09613C2.03202 2.16024 1.99998 2.23077 1.99998 2.3077V13.6923C1.99998 13.7692 2.03202 13.8397 2.09613 13.9038C2.16024 13.9679 2.23077 14 2.3077 14ZM6.34615 11.6538H13.6538V11.2961C13.6538 10.6295 13.324 10.1057 12.6644 9.72498C12.0048 9.34421 11.1166 9.15383 9.99998 9.15383C8.88331 9.15383 7.99518 9.34421 7.33558 9.72498C6.67596 10.1057 6.34615 10.6295 6.34615 11.2961V11.6538ZM9.99998 7.84613C10.4859 7.84613 10.899 7.67593 11.2394 7.33555C11.5798 6.99517 11.75 6.58203 11.75 6.09613C11.75 5.61024 11.5798 5.19711 11.2394 4.85673C10.899 4.51634 10.4859 4.34615 9.99998 4.34615C9.51408 4.34615 9.10094 4.51634 8.76058 4.85673C8.42019 5.19711 8.25 5.61024 8.25 6.09613C8.25 6.58203 8.42019 6.99517 8.76058 7.33555C9.10094 7.67593 9.51408 7.84613 9.99998 7.84613Z" fill="#1B76FF"/>
</svg>
