<svg width="64" height="64" viewBox="0 0 64 64" fill="none" xmlns="http://www.w3.org/2000/svg">
<mask id="mask0_2189_5433" style="mask-type:alpha" maskUnits="userSpaceOnUse" x="0" y="0" width="64" height="64">
<rect width="64" height="64" fill="#D9D9D9"/>
</mask>
<g mask="url(#mask0_2189_5433)">
<path d="M9.9333 48.5334C9.45552 48.5334 9.03608 48.3639 8.67497 48.025C8.31386 47.6862 8.1333 47.2556 8.1333 46.7334V45.4C8.1333 44.2445 8.4333 43.2778 9.0333 42.5C9.6333 41.7223 10.4876 41.087 11.5963 40.5942C13.9099 39.5759 16.0889 38.7556 18.1333 38.1334C20.1777 37.5112 22.8 37.2 26 37.2C29.2444 37.2 31.8777 37.5112 33.9 38.1334C35.9222 38.7556 38.1123 39.5759 40.4703 40.5942C41.5345 41.087 42.3666 41.7223 42.9666 42.5C43.5666 43.2778 43.8666 44.2445 43.8666 45.4V46.7334C43.8666 47.2556 43.6972 47.6862 43.3583 48.025C43.0194 48.3639 42.5889 48.5334 42.0666 48.5334H9.9333ZM48.1333 48.5334C48.2994 48.3502 48.452 48.1101 48.5912 47.813C48.7304 47.516 48.8 47.1561 48.8 46.7334V45.6C48.8 43.9112 48.5011 42.4449 47.9035 41.2013C47.3059 39.9576 46.538 38.9128 45.6 38.0667C46.8444 38.3778 48.0666 38.7445 49.2666 39.1667C50.4666 39.5889 51.5778 40.0445 52.6 40.5334C53.5333 41.0223 54.3111 41.7147 54.9333 42.6107C55.5555 43.5068 55.8666 44.5032 55.8666 45.6V46.7334C55.8666 47.2556 55.6861 47.6862 55.325 48.025C54.9639 48.3639 54.5444 48.5334 54.0666 48.5334H48.1333ZM26 29.8667C24.02 29.8667 22.3583 29.1951 21.015 27.8517C19.6716 26.5084 19 24.8467 19 22.8667C19 20.8423 19.6716 19.1695 21.015 17.8484C22.3583 16.5273 24.02 15.8667 26 15.8667C28.0244 15.8667 29.6972 16.5273 31.0183 17.8484C32.3394 19.1695 33 20.8423 33 22.8667C33 24.8467 32.3394 26.5084 31.0183 27.8517C29.6972 29.1951 28.0244 29.8667 26 29.8667ZM42.4 22.8667C42.4 24.8467 41.7394 26.5084 40.4183 27.8517C39.0972 29.1951 37.4244 29.8667 35.4 29.8667H35.6C36.3698 28.9439 36.9511 27.8882 37.344 26.6997C37.7369 25.5112 37.9333 24.2308 37.9333 22.8584C37.9333 21.4862 37.7111 20.2334 37.2666 19.1C36.8222 17.9667 36.2666 16.8667 35.6 15.8C35.5555 15.8445 35.5222 15.8667 35.5 15.8667H35.4C37.4244 15.8667 39.0972 16.5273 40.4183 17.8484C41.7394 19.1695 42.4 20.8423 42.4 22.8667ZM9.59997 47.0667H42.4V45.4C42.4 44.6889 42.2111 44.0556 41.8333 43.5C41.4555 42.9445 40.7777 42.4 39.8 41.8667C37.6666 40.7556 35.5777 39.9445 33.5333 39.4334C31.4889 38.9223 28.9777 38.6667 26 38.6667C23.0666 38.6667 20.5777 38.9223 18.5333 39.4334C16.4889 39.9445 14.4 40.7556 12.2666 41.8667C11.2889 42.4 10.6 42.9445 10.2 43.5C9.79997 44.0556 9.59997 44.6889 9.59997 45.4V47.0667ZM26 28.4C27.5555 28.4 28.8666 27.8667 29.9333 26.8C31 25.7334 31.5333 24.4223 31.5333 22.8667C31.5333 21.3112 31 20 29.9333 18.9334C28.8666 17.8667 27.5555 17.3334 26 17.3334C24.4444 17.3334 23.1333 17.8667 22.0666 18.9334C21 20 20.4666 21.3112 20.4666 22.8667C20.4666 24.4223 21 25.7334 22.0666 26.8C23.1333 27.8667 24.4444 28.4 26 28.4Z" fill="#1B76FF"/>
</g>
</svg>
