<svg width="64" height="64" viewBox="0 0 64 64" fill="none" xmlns="http://www.w3.org/2000/svg">
<g id="verified_user">
<mask id="mask0_4304_675" style="mask-type:alpha" maskUnits="userSpaceOnUse" x="0" y="0" width="64" height="64">
<rect id="Bounding box" width="64" height="64" fill="#D9D9D9"/>
</mask>
<g mask="url(#mask0_4304_675)">
<path id="verified_user_2" d="M29.2155 36.4162L23.7435 30.9442C23.5831 30.7496 23.3506 30.6436 23.0462 30.6262C22.7422 30.6094 22.4755 30.7154 22.2462 30.9442C22.0173 31.1394 21.9028 31.3767 21.9028 31.6562C21.9028 31.9362 22.0173 32.1982 22.2462 32.4422L27.8722 38.0316C28.2379 38.4316 28.6617 38.6316 29.1435 38.6316C29.6257 38.6316 30.0497 38.4316 30.4155 38.0316L41.6875 26.8109C41.8822 26.6131 41.9882 26.3656 42.0055 26.0682C42.0224 25.7705 41.9275 25.5291 41.7208 25.3442C41.5137 25.1598 41.2666 25.0702 40.9795 25.0756C40.6924 25.0805 40.4566 25.1751 40.2722 25.3596L29.2155 36.4162ZM32.0002 55.5802C31.7637 55.5802 31.5357 55.558 31.3162 55.5136C31.0962 55.4691 30.8848 55.4025 30.6822 55.3136C25.3248 53.2931 21.0942 49.882 17.9902 45.0802C14.8857 40.2785 13.3335 35.0462 13.3335 29.3836V17.7596C13.3335 16.9725 13.5582 16.2536 14.0075 15.6029C14.4564 14.9523 15.0299 14.49 15.7282 14.2162L30.7028 8.67292C31.1575 8.49514 31.5899 8.40625 32.0002 8.40625C32.4104 8.40625 32.8428 8.49514 33.2975 8.67292L48.2722 14.2162C48.9704 14.49 49.5439 14.9523 49.9928 15.6029C50.4422 16.2536 50.6668 16.9725 50.6668 17.7596V29.3836C50.6668 35.0462 49.1146 40.2785 46.0102 45.0802C42.9062 49.882 38.6755 53.2931 33.3182 55.3136C33.1155 55.4025 32.9042 55.4691 32.6842 55.5136C32.4646 55.558 32.2366 55.5802 32.0002 55.5802ZM32.0002 53.6982C36.8379 52.1462 40.8166 49.1027 43.9362 44.5676C47.0557 40.0325 48.6155 34.9736 48.6155 29.3909V17.7089C48.6155 17.3667 48.5215 17.0589 48.3335 16.7856C48.1455 16.5122 47.8806 16.3071 47.5388 16.1702L32.5642 10.5596C32.3935 10.4916 32.2055 10.4576 32.0002 10.4576C31.7948 10.4576 31.6068 10.4916 31.4362 10.5596L16.4615 16.1702C16.1197 16.3071 15.8548 16.5122 15.6668 16.7856C15.4788 17.0589 15.3848 17.3667 15.3848 17.7089V29.3909C15.3848 34.9736 16.9446 40.0325 20.0642 44.5676C23.1837 49.1027 27.1624 52.1462 32.0002 53.6982Z" fill="#1C1B1F"/>
</g>
</g>
</svg>
