<svg width="64" height="64" viewBox="0 0 64 64" fill="none" xmlns="http://www.w3.org/2000/svg">
<mask id="mask0_2212_5379" style="mask-type:alpha" maskUnits="userSpaceOnUse" x="0" y="0" width="64" height="64">
<rect width="64" height="64" fill="#D9D9D9"/>
</mask>
<g mask="url(#mask0_2212_5379)">
<path d="M32.0235 39.5334C34.4523 39.5334 36.5333 38.6589 38.2667 36.9098C40 35.1608 40.8667 33.0719 40.8667 30.6432C40.8667 28.2144 39.9922 26.1334 38.2431 24.4C36.4941 22.6667 34.4052 21.8 31.9765 21.8C29.5477 21.8 27.4667 22.6745 25.7333 24.4236C24 26.1726 23.1333 28.2615 23.1333 30.6902C23.1333 33.119 24.0078 35.2 25.7569 36.9334C27.5059 38.6667 29.5948 39.5334 32.0235 39.5334ZM31.9725 37.9334C29.9464 37.9334 28.2333 37.2242 26.8333 35.8059C25.4333 34.3876 24.7333 32.6654 24.7333 30.6392C24.7333 28.6131 25.4425 26.9 26.8608 25.5C28.2791 24.1 30.0013 23.4 32.0275 23.4C34.0536 23.4 35.7667 24.1092 37.1667 25.5275C38.5667 26.9458 39.2667 28.668 39.2667 30.6942C39.2667 32.7203 38.5575 34.4334 37.1392 35.8334C35.7209 37.2334 33.9987 37.9334 31.9725 37.9334ZM32.0063 47.2C26.7132 47.2 21.8444 45.8111 17.4 43.0334C12.9556 40.2556 9.48996 36.5325 7.0032 31.8642C6.91218 31.6881 6.84445 31.4986 6.8 31.2957C6.75556 31.0928 6.73334 30.8831 6.73334 30.6667C6.73334 30.4503 6.75556 30.2406 6.8 30.0377C6.84445 29.8348 6.91218 29.6453 7.0032 29.4692C9.48996 24.8009 12.9535 21.0778 17.3937 18.3C21.834 15.5223 26.7006 14.1334 31.9937 14.1334C37.2868 14.1334 42.1556 15.5223 46.6 18.3C51.0444 21.0778 54.5101 24.8009 56.9968 29.4692C57.0878 29.6453 57.1556 29.8348 57.2 30.0377C57.2445 30.2406 57.2667 30.4503 57.2667 30.6667C57.2667 30.8831 57.2445 31.0928 57.2 31.2957C57.1556 31.4986 57.0878 31.6881 56.9968 31.8642C54.5101 36.5325 51.0465 40.2556 46.6063 43.0334C42.166 45.8111 37.2994 47.2 32.0063 47.2ZM31.9887 45.7334C37.1518 45.7334 41.8778 44.3778 46.1667 41.6667C50.4556 38.9556 53.7333 35.2889 56 30.6667C53.7333 26.0445 50.4593 22.3778 46.1779 19.6667C41.8965 16.9556 37.1743 15.6 32.0113 15.6C26.8482 15.6 22.1222 16.9556 17.8333 19.6667C13.5444 22.3778 10.2667 26.0445 8 30.6667C10.2667 35.2889 13.5407 38.9556 17.8221 41.6667C22.1035 44.3778 26.8257 45.7334 31.9887 45.7334Z" fill="#3FB8A6"/>
</g>
</svg>
