<svg width="64" height="64" viewBox="0 0 64 64" fill="none" xmlns="http://www.w3.org/2000/svg">
<g id="volunteer_activism">
<mask id="mask0_4304_605" style="mask-type:alpha" maskUnits="userSpaceOnUse" x="0" y="0" width="64" height="64">
<rect id="Bounding box" width="64" height="64" fill="#D9D9D9"/>
</mask>
<g mask="url(#mask0_4304_605)">
<path id="volunteer_activism_2" d="M36.9028 56.5127C37.0735 56.5811 37.2359 56.6153 37.3902 56.6153C37.5439 56.6153 37.689 56.5811 37.8255 56.5127L53.6415 51.6207C53.7095 50.5607 53.4624 49.7793 52.9002 49.2767C52.3375 48.7744 51.6853 48.5284 50.9435 48.5387H38.0808C37.203 48.5831 36.3086 48.5471 35.3975 48.4307C34.4864 48.3147 33.5779 48.0942 32.6722 47.7693L27.8102 46.282C27.5324 46.1824 27.3159 45.9831 27.1608 45.684C27.0057 45.3853 26.9828 45.0976 27.0922 44.8207C27.2019 44.5438 27.3877 44.3489 27.6495 44.236C27.9113 44.1231 28.199 44.1264 28.5128 44.246L33.3435 45.954C34.0719 46.2002 34.8542 46.3591 35.6902 46.4307C36.5257 46.5027 37.4406 46.5216 38.4348 46.4873H40.5388C40.5388 45.4513 40.2959 44.6231 39.8102 44.0027C39.3248 43.3822 38.7062 42.9284 37.9542 42.6413L23.1128 37.108C22.9764 37.0738 22.8739 37.048 22.8055 37.0307C22.737 37.0138 22.6515 37.0053 22.5488 37.0053H16.3335V50.3587L36.9028 56.5127ZM36.4975 58.518L16.3335 52.5587C16.2104 53.6564 15.7617 54.5044 14.9875 55.1027C14.2128 55.7009 13.4308 56 12.6415 56H10.1028C9.11393 56 8.25127 55.6318 7.51482 54.8953C6.77838 54.1593 6.41016 53.2969 6.41016 52.308V38.646C6.41016 37.6309 6.77838 36.7618 7.51482 36.0387C8.25127 35.3156 9.11393 34.954 10.1028 34.954H22.4235C22.6653 34.954 22.8895 34.9796 23.0962 35.0307C23.3024 35.0818 23.513 35.128 23.7282 35.1693L38.6208 40.6873C39.7693 41.1247 40.7257 41.8136 41.4902 42.754C42.2542 43.694 42.6362 44.9384 42.6362 46.4873H50.9435C52.5733 46.4873 53.8235 47.036 54.6942 48.1333C55.5648 49.2307 56.0002 50.5196 56.0002 52C56.0002 52.3178 55.9206 52.6169 55.7615 52.8973C55.6028 53.1778 55.3866 53.3676 55.1128 53.4667L38.6102 58.518C38.2853 58.6069 37.9408 58.6598 37.5768 58.6767C37.2128 58.694 36.853 58.6411 36.4975 58.518ZM8.46149 52.308C8.46149 52.7862 8.61549 53.1793 8.92349 53.4873C9.23105 53.7949 9.62416 53.9487 10.1028 53.9487H12.5748C13.053 53.9487 13.4462 53.8204 13.7542 53.564C14.0617 53.3076 14.2155 52.8889 14.2155 52.308V37.0053H10.1028C9.62416 37.0053 9.23105 37.1591 8.92349 37.4667C8.61549 37.7742 8.46149 38.1673 8.46149 38.646V52.308ZM42.0508 31.128C41.5926 31.128 41.1422 31.0422 40.6995 30.8707C40.2564 30.6987 39.8557 30.4409 39.4975 30.0973L32.0308 22.9847C30.9042 21.9007 29.9644 20.6873 29.2115 19.3447C28.4586 18.0024 28.0822 16.5404 28.0822 14.9587C28.0822 13.0591 28.7333 11.4244 30.0355 10.0547C31.3373 8.68489 32.9357 8 34.8308 8C36.3077 8 37.6513 8.43155 38.8615 9.29467C40.0717 10.1582 41.1317 11.1849 42.0415 12.3747C42.9508 11.1849 44.0019 10.1582 45.1948 9.29467C46.3882 8.43155 47.7404 8 49.2515 8C51.1466 8 52.7453 8.68489 54.0475 10.0547C55.3493 11.4244 56.0002 13.0591 56.0002 14.9587C56.0002 16.536 55.6117 17.9942 54.8348 19.3333C54.0579 20.672 53.113 21.8891 52.0002 22.9847L44.5848 30.0973C44.1919 30.4409 43.7859 30.6987 43.3668 30.8707C42.9477 31.0422 42.509 31.128 42.0508 31.128ZM43.1695 28.682L50.3662 21.7047C51.3173 20.8002 52.1522 19.7889 52.8708 18.6707C53.5895 17.5529 53.9488 16.3156 53.9488 14.9587C53.9488 13.612 53.5004 12.4573 52.6035 11.4947C51.707 10.5324 50.5897 10.0513 49.2515 10.0513C48.0408 10.0513 46.9673 10.424 46.0308 11.1693C45.0939 11.9147 44.2513 12.7796 43.5028 13.764L43.2895 14.0353C43.0046 14.4496 42.5988 14.6567 42.0722 14.6567C41.5455 14.6567 41.1079 14.4496 40.7595 14.0353L40.5282 13.764C39.8139 12.7796 38.9884 11.9147 38.0515 11.1693C37.115 10.424 36.0415 10.0513 34.8308 10.0513C33.493 10.0513 32.3757 10.5324 31.4788 11.4947C30.5819 12.4573 30.1335 13.612 30.1335 14.9587C30.1335 16.3156 30.4844 17.5529 31.1862 18.6707C31.8875 19.7889 32.7366 20.8064 33.7335 21.7233L40.9128 28.682C41.2208 28.9896 41.597 29.1433 42.0415 29.1433C42.4859 29.1433 42.8619 28.9896 43.1695 28.682Z" fill="#1C1B1F"/>
</g>
</g>
</svg>
