<svg id="Layer_1" xmlns="http://www.w3.org/2000/svg" viewBox="0 0 1600 1024"><style>.st0{fill:#4EC0C6;} .st1{fill:#E11860;} .st2{fill:#273542;} .st3{fill:#6BBBE8;}</style><path class="st0" d="M533.8 523.7V776h252.3V523.7H533.8zM742.5 685c0 15-5.3 27.9-15.9 38.5-10.7 10.6-23.5 15.9-38.5 15.9H575.9V701H688c4.4 0 8.2-1.6 11.3-4.7 3.1-3.1 4.7-6.9 4.7-11.3s-1.6-8.2-4.7-11.3c-3.1-3.1-6.9-4.7-11.3-4.7H575.9v-38.4H688c4.4 0 8.2-1.6 11.3-4.7 3.1-3.1 4.7-6.9 4.7-11.3s-1.6-8.2-4.7-11.3c-3.1-3.1-6.9-4.7-11.3-4.7H575.9v-38.4H688c15 0 27.8 5.3 38.5 15.9 10.6 10.6 15.9 23.5 15.9 38.5 0 13.5-4.3 25.2-12.9 35.2 8.7 10 13 21.7 13 35.2z"/><path class="st1" d="M813.9 523.7V776h252.3V523.7H813.9zm210.2 74.9h-112c-4.5 0-8.2 1.6-11.3 4.7-3.1 3.1-4.7 6.9-4.7 11.3s1.6 8.2 4.7 11.3c3.1 3.1 6.9 4.7 11.3 4.7h57.6c15 0 27.9 5.3 38.5 16 10.7 10.6 16 23.5 16 38.5s-5.3 27.9-16 38.5c-10.6 10.6-23.5 15.9-38.5 15.9H857.6V701h112.1c4.5 0 8.2-1.6 11.3-4.7 3.1-3.1 4.7-6.9 4.7-11.3s-1.6-8.2-4.7-11.3c-3.1-3.1-6.9-4.7-11.3-4.7h-57.6c-15 0-27.9-5.3-38.5-15.9-10.6-10.6-15.9-23.5-15.9-38.5s5.3-27.9 15.9-38.5c10.6-10.6 23.5-15.9 38.5-15.9h112.1v38.4z"/><path class="st2" d="M659.1 322.9c-14.2 0-26.3 5-36.3 15-10 10-15 22.1-15 36.3 0 14.2 5 26.3 15 36.2 10 10 22.1 15 36.3 15 6.2 0 11.9-1 17.3-2.8l-23.7-35.7h44.9l7.3 10.9c3.7-7.1 5.5-15 5.5-23.6 0-14.2-5-26.3-15-36.3-10.1-10-22.1-15-36.3-15z"/><path class="st2" d="M533.4 248.1v252.3h252.3V248.1H533.4zm215.4 215.8l-44.9-.1-5.6-8.4c-11.9 5.7-24.9 8.6-39.1 8.6-24.8 0-45.9-8.8-63.4-26.3s-26.3-38.6-26.3-63.4c0-24.8 8.8-45.9 26.3-63.4s38.6-26.3 63.4-26.3c24.8 0 45.9 8.7 63.4 26.3 17.5 17.5 26.2 38.7 26.2 63.4 0 22.2-7 41.5-21.1 57.9l21.1 31.7z"/><path class="st3" d="M812.9 248.1v252.3h252.3V248.1H812.9zm214.7 132.5c0 23-8.8 42.6-26.3 58.9-17.5 16.3-38.6 24.4-63.4 24.4-24.7 0-45.9-8.1-63.4-24.4-17.5-16.3-26.2-35.9-26.2-58.9v-96.1h38.4v96.1c0 12.4 5 23 15 31.7 10 8.8 22.1 13.1 36.2 13.1 14.2 0 26.3-4.4 36.3-13.1 10-8.7 15-19.3 15-31.7v-96.1h38.5v96.1z"/></svg>