<svg xmlns="http://www.w3.org/2000/svg" xmlns:xlink="http://www.w3.org/1999/xlink" width="366" height="1022" viewBox="0 0 366 1022"><defs><path id="a" d="M357.62 984.75v3.55c0 .49-.39.88-.88.88h-10.62v7.01l3.52 18.54a.9.9 0 0 1-.18.73.9.9 0 0 1-.68.32h-4.43a.89.89 0 0 1-.87-.7l-2.67-12.73-2.67 12.73a.89.89 0 0 1-.87.7h-4.42a.88.88 0 0 1-.87-1.05l3.52-18.54v-7.01h-10.62a.88.88 0 0 1-.88-.88v-3.55c0-.49.4-.88.88-.88h11.99a5.3 5.3 0 1 1 7.89 0h11.98c.49 0 .88.39.88.88zm-20.35-4.43a3.55 3.55 0 1 0 7.1 0 3.55 3.55 0 0 0-7.1 0zm18.58 7.09v-1.77h-30.08v1.77h10.62c.49 0 .88.4.88.89v7.98l-.01.16-3.34 17.57h2.63l3.4-16.14a.88.88 0 0 1 .86-.71c.42 0 .78.3.87.71l3.39 16.14h2.64l-3.34-17.57a.88.88 0 0 1-.02-.16v-7.98c0-.49.4-.89.89-.89z"/><path id="b" d="M316.06 995c-.04.59-.06 1.2-.06 1.8v.05l1.77-.05c0-.56.02-1.12.06-1.67z"/><path id="c" d="M316.34 991c-.14.6-.25 1.21-.34 1.82l1.75.26c.09-.57.19-1.14.32-1.69z"/><path id="d" d="M317.61 987a22.9 22.9 0 0 0-.61 1.76l1.69.51c.17-.54.36-1.09.57-1.62z"/><path id="e" d="M317.76 998l-1.76.13c.05.61.12 1.23.21 1.85l1.75-.27c-.09-.57-.15-1.14-.2-1.71z"/><path id="f" d="M318.86 984c-.3.54-.59 1.09-.86 1.64l1.6.77c.24-.51.51-1.03.8-1.53z"/><path id="g" d="M317.72 1002l-1.72.4c.14.6.3 1.2.48 1.79l1.69-.53a22.5 22.5 0 0 1-.45-1.66z"/><path id="h" d="M360.46 982l-1.46 1.01c.32.47.63.95.92 1.45l1.53-.89c-.31-.54-.64-1.06-.99-1.57z"/><path id="i" d="M318.64 1005l-1.64.65c.23.57.48 1.15.74 1.7l1.6-.77c-.25-.52-.49-1.05-.7-1.58z"/><path id="j" d="M330.77 1017l-.77 1.6c.55.26 1.12.51 1.7.74l.65-1.65c-.54-.21-1.07-.44-1.58-.69z"/><path id="k" d="M333.52 1018l-.52 1.7c.59.18 1.19.34 1.79.47l.39-1.73c-.55-.12-1.11-.27-1.66-.44z"/><path id="l" d="M323.31 978c-.45.42-.89.86-1.31 1.31l1.3 1.21c.39-.42.8-.83 1.21-1.22z"/><path id="m" d="M321.1 981c-.39.48-.75.99-1.1 1.49l1.46 1c.32-.47.67-.94 1.02-1.39z"/><path id="n" d="M325.2 1013l-1.2 1.3c.45.42.92.83 1.4 1.21l1.11-1.39c-.45-.35-.89-.73-1.31-1.12z"/><path id="o" d="M328 1016l-1 1.47c.51.34 1.04.68 1.57.98l.88-1.53c-.49-.29-.98-.6-1.45-.92z"/><path id="p" d="M363.69 989l-1.69.53c.17.55.32 1.11.45 1.66l1.72-.4c-.13-.6-.3-1.2-.48-1.79z"/><path id="q" d="M337.26 1019l-.26 1.75c.61.09 1.23.16 1.84.21l.13-1.77c-.57-.04-1.15-.11-1.71-.19z"/><path id="r" d="M363.06 996c0 .57-.02 1.15-.06 1.72l1.76.13c.05-.61.07-1.24.07-1.85z"/><path id="s" d="M364.75 993l-1.75.27c.09.56.15 1.14.2 1.71l1.76-.14c-.05-.61-.12-1.23-.21-1.84z"/><path id="t" d="M362.59 986l-1.59.78c.25.51.48 1.04.69 1.57l1.65-.65c-.23-.58-.48-1.15-.75-1.7z"/><path id="u" d="M358.29 980l-1.29 1.21c.39.42.77.86 1.13 1.3l1.38-1.11c-.39-.48-.8-.95-1.22-1.4z"/><path id="v" d="M322.38 1011l-1.38 1.11c.38.48.79.95 1.21 1.4l1.3-1.21c-.4-.42-.77-.86-1.13-1.3z"/><path id="w" d="M359.02 1009c-.32.47-.66.94-1.02 1.39l1.38 1.1c.39-.48.76-.98 1.1-1.49z"/><path id="x" d="M357.22 1012c-.39.42-.8.83-1.22 1.22l1.2 1.3c.45-.42.89-.86 1.31-1.31z"/><path id="y" d="M360.81 1006c-.25.51-.52 1.03-.81 1.52l1.53.89c.31-.53.6-1.09.87-1.64z"/><path id="z" d="M362.57 1003c-.17.55-.36 1.1-.57 1.63l1.65.64c.22-.57.43-1.16.61-1.75z"/><path id="A" d="M363.32 1000a25.1 25.1 0 0 1-.32 1.69l1.73.39c.13-.6.25-1.22.34-1.82z"/><path id="B" d="M320.53 1008l-1.53.89c.31.53.64 1.06.99 1.57l1.46-1c-.32-.48-.63-.97-.92-1.46z"/><path id="C" d="M346.39 972l-.39 1.73c.56.12 1.12.27 1.66.44l.52-1.7c-.59-.18-1.19-.34-1.79-.47z"/><path id="D" d="M349.64 973l-.64 1.65c.53.21 1.06.44 1.58.69l.76-1.6a21.3 21.3 0 0 0-1.7-.74z"/><path id="E" d="M342.12 972l-.12 1.77c.57.04 1.14.1 1.71.18l.26-1.75c-.61-.09-1.23-.16-1.85-.2z"/><path id="F" d="M352.88 975l-.88 1.54c.5.28.99.59 1.46.91l.99-1.47a24.5 24.5 0 0 0-1.57-.98z"/><path id="G" d="M336.82 972c-.61.09-1.22.21-1.82.35l.4 1.73c.55-.13 1.12-.24 1.69-.33z"/><path id="H" d="M340.85 972c-.62 0-1.24.03-1.85.07l.14 1.77c.56-.04 1.14-.07 1.72-.07z"/><path id="I" d="M329.63 974c-.55.27-1.1.56-1.63.87l.89 1.53c.49-.28 1-.56 1.52-.81z"/><path id="J" d="M332.75 973c-.59.18-1.18.39-1.75.62l.65 1.65c.53-.21 1.08-.41 1.62-.58z"/><path id="K" d="M356.1 977l-1.1 1.39c.45.35.89.73 1.31 1.12l1.2-1.3c-.46-.42-.93-.83-1.41-1.21z"/><path id="L" d="M326.49 976c-.51.35-1.01.72-1.49 1.11l1.11 1.38c.44-.36.91-.7 1.38-1.03z"/><path id="M" d="M351.52 1016c-.5.29-1.01.56-1.52.81l.77 1.59c.55-.27 1.1-.56 1.63-.87z"/><path id="N" d="M348.62 1018c-.54.21-1.08.4-1.62.57l.52 1.69c.58-.18 1.17-.38 1.75-.61z"/><path id="O" d="M345.69 1019c-.56.13-1.12.23-1.69.32l.26 1.75c.61-.09 1.22-.2 1.82-.34z"/><path id="P" d="M342.72 1019c-.57.04-1.15.06-1.72.06v1.78c.61 0 1.24-.03 1.85-.07z"/><path id="Q" d="M354.38 1014c-.44.36-.91.7-1.38 1.03l1 1.46c.51-.35 1.01-.72 1.49-1.1z"/><path id="R" d="M358 975.77V974h8.76v1.77z"/><path id="S" d="M361 1022.78V1014h1.77v8.78z"/><path id="T" d="M318 978.78V970h1.77v8.78z"/><path id="U" d="M314 1018.77V1017h8.76v1.77z"/></defs><desc>Generated with Avocode.</desc><use fill="#3689ff" xlink:href="#a"/><use fill="#3689ff" xlink:href="#b"/><use fill="#3689ff" xlink:href="#c"/><use fill="#3689ff" xlink:href="#d"/><use fill="#3689ff" xlink:href="#e"/><use fill="#3689ff" xlink:href="#f"/><use fill="#3689ff" xlink:href="#g"/><use fill="#3689ff" xlink:href="#h"/><use fill="#3689ff" xlink:href="#i"/><use fill="#3689ff" xlink:href="#j"/><use fill="#3689ff" xlink:href="#k"/><use fill="#3689ff" xlink:href="#l"/><use fill="#3689ff" xlink:href="#m"/><use fill="#3689ff" xlink:href="#n"/><use fill="#3689ff" xlink:href="#o"/><use fill="#3689ff" xlink:href="#p"/><use fill="#3689ff" xlink:href="#q"/><use fill="#3689ff" xlink:href="#r"/><use fill="#3689ff" xlink:href="#s"/><use fill="#3689ff" xlink:href="#t"/><use fill="#3689ff" xlink:href="#u"/><use fill="#3689ff" xlink:href="#v"/><use fill="#3689ff" xlink:href="#w"/><use fill="#3689ff" xlink:href="#x"/><use fill="#3689ff" xlink:href="#y"/><use fill="#3689ff" xlink:href="#z"/><use fill="#3689ff" xlink:href="#A"/><use fill="#3689ff" xlink:href="#B"/><use fill="#3689ff" xlink:href="#C"/><use fill="#3689ff" xlink:href="#D"/><use fill="#3689ff" xlink:href="#E"/><use fill="#3689ff" xlink:href="#F"/><use fill="#3689ff" xlink:href="#G"/><use fill="#3689ff" xlink:href="#H"/><use fill="#3689ff" xlink:href="#I"/><use fill="#3689ff" xlink:href="#J"/><use fill="#3689ff" xlink:href="#K"/><use fill="#3689ff" xlink:href="#L"/><use fill="#3689ff" xlink:href="#M"/><use fill="#3689ff" xlink:href="#N"/><use fill="#3689ff" xlink:href="#O"/><use fill="#3689ff" xlink:href="#P"/><use fill="#3689ff" xlink:href="#Q"/><use fill="#3689ff" xlink:href="#R"/><use fill="#3689ff" xlink:href="#S"/><use fill="#3689ff" xlink:href="#T"/><use fill="#3689ff" xlink:href="#U"/></svg>