<svg id="Layer_1" xmlns="http://www.w3.org/2000/svg" viewBox="0 0 881.7 204.6"><style>.st0{fill:url(#SVGID_1_);} .st1{fill:#4EC0C6;} .st2{fill:#E11860;} .st3{fill:#273542;} .st4{fill:#6BBBE8;}</style><linearGradient id="SVGID_1_" gradientUnits="userSpaceOnUse" x1="-27.337" y1="197.129" x2="95.4" y2="279.219"><stop offset="0" stop-color="#AB0F14"/><stop offset=".045" stop-color="#A31216"/><stop offset=".24" stop-color="#851D20"/><stop offset=".33" stop-color="#792123"/><stop offset="1" stop-color="#100"/></linearGradient><path class="st0" d="M-7.7 210.3z"/><path class="st1" d="M450.1 0v204.6h204.6V0H450.1zm169.2 130.9c0 12.2-4.3 22.6-12.9 31.2-8.6 8.6-19 12.9-31.2 12.9h-90.9v-31.2h90.9c3.6 0 6.7-1.3 9.2-3.8 2.5-2.5 3.8-5.6 3.8-9.2 0-3.6-1.3-6.7-3.8-9.2-2.5-2.5-5.6-3.8-9.2-3.8h-90.9V86.7h90.9c3.6 0 6.7-1.3 9.2-3.8 2.5-2.5 3.8-5.6 3.8-9.2 0-3.6-1.3-6.7-3.8-9.2-2.5-2.5-5.6-3.8-9.2-3.8h-90.9V29.6h90.9c12.2 0 22.6 4.3 31.2 12.9 8.6 8.6 12.9 19 12.9 31.2 0 10.9-3.5 20.5-10.5 28.6 7 8.1 10.5 17.6 10.5 28.6z"/><path class="st2" d="M677.2 0v204.6h204.5V0H677.2zm170.4 60.7h-90.9c-3.6 0-6.7 1.3-9.2 3.8-2.5 2.5-3.8 5.6-3.8 9.2 0 3.6 1.3 6.7 3.8 9.2 2.5 2.5 5.6 3.8 9.2 3.8h46.8c12.2 0 22.6 4.3 31.2 12.9 8.6 8.6 12.9 19 12.9 31.2s-4.3 22.6-12.9 31.2c-8.6 8.6-19 12.9-31.2 12.9h-90.9v-31.2h90.9c3.6 0 6.7-1.3 9.2-3.8 2.5-2.5 3.8-5.6 3.8-9.2 0-3.6-1.3-6.7-3.8-9.2-2.5-2.5-5.6-3.8-9.2-3.8h-46.8c-12.2 0-22.6-4.3-31.2-12.9-8.6-8.6-12.9-19-12.9-31.2s4.3-22.6 12.9-31.2c8.6-8.6 19-12.9 31.2-12.9h90.9v31.2z"/><path class="st3" d="M101.9 60.7c-11.5 0-21.3 4-29.4 12.1-8.1 8.1-12.2 17.9-12.2 29.4s4 21.3 12.2 29.4c8.1 8.1 17.9 12.2 29.4 12.2 5 0 9.7-.8 14-2.3l-19.2-29h36.4l5.9 8.8c3-5.8 4.5-12.1 4.5-19.1 0-11.5-4-21.3-12.1-29.4-8.2-8-18-12.1-29.5-12.1z"/><path class="st3" d="M0 0v204.6h204.6V0H0zm174.7 175l-36.5-.1-4.6-6.9c-9.7 4.7-20.2 7-31.7 7-20.1 0-37.2-7.1-51.5-21.3-14.2-14.2-21.3-31.3-21.3-51.4 0-20.1 7.1-37.2 21.3-51.4 14.2-14.2 31.4-21.3 51.5-21.3s37.2 7.1 51.4 21.3c14.2 14.2 21.3 31.3 21.3 51.4 0 18-5.7 33.7-17.2 47l17.3 25.7z"/><path class="st4" d="M225 0v204.6h204.6V0H225zm174.1 107.5c0 18.6-7.1 34.6-21.3 47.7-14.2 13.2-31.3 19.8-51.4 19.8-20.1 0-37.2-6.6-51.5-19.8-14.2-13.2-21.3-29.1-21.3-47.7V29.6h31.2v77.9c0 10 4 18.6 12.2 25.7 8.1 7.1 17.9 10.6 29.4 10.6s21.3-3.5 29.4-10.6c8.1-7.1 12.1-15.7 12.1-25.7V29.6h31.2v77.9z"/></svg>