<svg width="64" height="64" viewBox="0 0 64 64" fill="none" xmlns="http://www.w3.org/2000/svg">
<mask id="mask0_2212_5391" style="mask-type:alpha" maskUnits="userSpaceOnUse" x="-1" y="0" width="65" height="64">
<rect x="-0.000488281" width="64" height="64" fill="#D9D9D9"/>
</mask>
<g mask="url(#mask0_2212_5391)">
<path d="M43.2662 54.2667C42.8873 54.2667 42.5481 54.1169 42.2487 53.8175C41.9492 53.518 41.7995 53.1789 41.7995 52.8V46.1333H32.7329C32.354 46.1333 32.0148 45.9836 31.7153 45.6842C31.4159 45.3847 31.2662 45.0456 31.2662 44.6667V19.2667H22.1995V26C22.1995 26.3789 22.0498 26.7181 21.7504 27.0175C21.4509 27.317 21.1117 27.4667 20.7329 27.4667H8.53286C8.15397 27.4667 7.81481 27.317 7.51539 27.0175C7.21593 26.7181 7.06619 26.3789 7.06619 26V11.2C7.06619 10.8211 7.21593 10.4819 7.51539 10.1825C7.81481 9.88305 8.15397 9.73334 8.53286 9.73334H20.7329C21.1117 9.73334 21.4509 9.88305 21.7504 10.1825C22.0498 10.4819 22.1995 10.8211 22.1995 11.2V17.8H41.7995V11.2C41.7995 10.8211 41.9492 10.4819 42.2487 10.1825C42.5481 9.88305 42.8873 9.73334 43.2662 9.73334H55.4662C55.8451 9.73334 56.1843 9.88305 56.4837 10.1825C56.7832 10.4819 56.9329 10.8211 56.9329 11.2V26C56.9329 26.3789 56.7832 26.7181 56.4837 27.0175C56.1843 27.317 55.8451 27.4667 55.4662 27.4667H43.2662C42.8873 27.4667 42.5481 27.317 42.2487 27.0175C41.9492 26.7181 41.7995 26.3789 41.7995 26V19.2667H32.7329V44.6667H41.7995V37.9333C41.7995 37.5889 41.9492 37.2583 42.2487 36.9417C42.5481 36.625 42.8873 36.4667 43.2662 36.4667H55.4662C55.8451 36.4667 56.1843 36.625 56.4837 36.9417C56.7832 37.2583 56.9329 37.5889 56.9329 37.9333V52.8C56.9329 53.1789 56.7832 53.518 56.4837 53.8175C56.1843 54.1169 55.8451 54.2667 55.4662 54.2667H43.2662ZM43.2662 26H55.4662V11.2H43.2662V26ZM43.2662 52.8H55.4662V37.9333H43.2662V52.8ZM8.53286 26H20.7329V11.2H8.53286V26Z" fill="#9863F3"/>
</g>
</svg>
