<svg width="24" height="24" viewBox="0 0 24 24" fill="none" xmlns="http://www.w3.org/2000/svg">
<path d="M12 24C10.3209 24 8.749 23.6885 7.28427 23.0654C5.81953 22.4423 4.55084 21.5944 3.4782 20.5218C2.40556 19.4492 1.55769 18.1805 0.9346 16.7157C0.311533 15.251 0 13.6791 0 12C0 10.3136 0.311533 8.7398 0.9346 7.27873C1.55769 5.81769 2.40556 4.55085 3.4782 3.4782C4.55084 2.40556 5.81953 1.55769 7.28427 0.9346C8.749 0.311533 10.3209 0 12 0C13.6864 0 15.2602 0.311533 16.7213 0.9346C18.1823 1.55769 19.4492 2.40556 20.5218 3.4782C21.5944 4.55085 22.4423 5.81769 23.0654 7.27873C23.6885 8.7398 24 10.3136 24 12V13.2564C24 14.3687 23.6187 15.3029 22.856 16.059C22.0933 16.8151 21.1538 17.1932 20.0376 17.1932C19.1521 17.1932 18.4017 16.9715 17.7863 16.5282C17.171 16.0849 16.7202 15.4758 16.4342 14.7009C15.9402 15.4502 15.3531 16.0529 14.6731 16.509C13.993 16.9651 13.102 17.1932 12 17.1932C10.5544 17.1932 9.32664 16.689 8.31667 15.6808C7.30669 14.6725 6.8017 13.4427 6.8017 11.9915C6.8017 10.5402 7.30669 9.31154 8.31667 8.30557C9.32664 7.29957 10.5544 6.79657 12 6.79657C13.4456 6.79657 14.6734 7.29957 15.6833 8.30557C16.6933 9.31154 17.1983 10.5437 17.1983 12.0021V13.2581C17.1983 14.0405 17.4744 14.7039 18.0265 15.2483C18.5786 15.7927 19.2519 16.065 20.0462 16.065C20.8257 16.065 21.4915 15.7927 22.0436 15.2483C22.5957 14.7039 22.8718 14.0405 22.8718 13.2581V12C22.8718 9.01709 21.8056 6.45939 19.6731 4.3269C17.5406 2.19443 14.9829 1.1282 12 1.1282C9.01709 1.1282 6.4594 2.19443 4.32693 4.3269C2.19444 6.45939 1.1282 9.01709 1.1282 12C1.1282 14.9829 2.19444 17.5406 4.32693 19.6731C6.4594 21.8056 9.01709 22.8718 12 22.8718H18.2427C18.4071 22.8718 18.5422 22.9247 18.6481 23.0306C18.7539 23.1365 18.8068 23.2717 18.8068 23.4362C18.8068 23.6007 18.7539 23.7358 18.6481 23.8415C18.5422 23.9472 18.4071 24 18.2427 24H12ZM12.001 16.065C13.1331 16.065 14.0943 15.6716 14.8846 14.8849C15.6749 14.0982 16.0701 13.1366 16.0701 12C16.0701 10.8581 15.6746 9.89343 14.8836 9.10597C14.0926 8.31852 13.1311 7.9248 11.999 7.9248C10.8669 7.9248 9.9057 8.31911 9.11537 9.10773C8.32506 9.89638 7.9299 10.8625 7.9299 12.006C7.9299 13.1348 8.3254 14.0934 9.1164 14.8821C9.90738 15.6707 10.8689 16.065 12.001 16.065Z" fill="#1C1B1F"/>
</svg>
