<svg width="64" height="64" viewBox="0 0 64 64" fill="none" xmlns="http://www.w3.org/2000/svg">
<rect width="64" height="64" rx="16" fill="#263142" fill-opacity="0.05"/>
<mask id="mask0_2068_4307" style="mask-type:alpha" maskUnits="userSpaceOnUse" x="12" y="12" width="40" height="40">
<rect width="40" height="40" transform="matrix(-1 0 0 1 52 12)" fill="#D9D9D9"/>
</mask>
<g mask="url(#mask0_2068_4307)">
<path d="M29.3066 40.6431C29.5167 40.4258 29.6222 40.1744 29.6229 39.8888C29.6236 39.6032 29.521 39.3611 29.3152 39.1624L23.1655 33.0021H43.7896C44.091 33.0021 44.3409 32.9029 44.5391 32.7045C44.7374 32.5061 44.8365 32.2561 44.8365 31.9545C44.8365 31.6529 44.7374 31.4031 44.5391 31.2051C44.3409 31.0071 44.091 30.9081 43.7896 30.9081H23.1655L29.3568 24.7168C29.5634 24.5131 29.6638 24.272 29.6581 23.9935C29.6524 23.7151 29.541 23.4708 29.3238 23.2607C29.1065 23.0548 28.8565 22.9519 28.5738 22.9519C28.291 22.9519 28.0467 23.0548 27.8409 23.2607L20.0599 31.0416C19.9225 31.1862 19.8227 31.3326 19.7608 31.4807C19.6988 31.6289 19.6678 31.7877 19.6678 31.9572C19.6678 32.1338 19.6988 32.2955 19.7608 32.4422C19.8227 32.589 19.9225 32.7311 20.0599 32.8685L27.8483 40.657C28.0439 40.865 28.2815 40.9672 28.5612 40.9636C28.8409 40.96 29.0894 40.8532 29.3066 40.6431Z" fill="#263242"/>
</g>
</svg>
