<svg width="64" height="64" viewBox="0 0 64 64" fill="none" xmlns="http://www.w3.org/2000/svg">
<rect width="64" height="64" rx="16" fill="#263142" fill-opacity="0.05"/>
<mask id="mask0_2068_4303" style="mask-type:alpha" maskUnits="userSpaceOnUse" x="12" y="12" width="40" height="40">
<rect x="12" y="12" width="40" height="40" fill="#D9D9D9"/>
</mask>
<g mask="url(#mask0_2068_4303)">
<path d="M34.6934 40.6431C34.4833 40.4258 34.3778 40.1744 34.3771 39.8888C34.3764 39.6032 34.479 39.3611 34.6848 39.1624L40.8345 33.0021H20.2104C19.909 33.0021 19.6591 32.9029 19.4609 32.7045C19.2626 32.5061 19.1635 32.2561 19.1635 31.9545C19.1635 31.6529 19.2626 31.4031 19.4609 31.2051C19.6591 31.0071 19.909 30.9081 20.2104 30.9081H40.8345L34.6432 24.7168C34.4366 24.5131 34.3362 24.272 34.3419 23.9935C34.3476 23.7151 34.459 23.4708 34.6762 23.2607C34.8935 23.0548 35.1435 22.9519 35.4262 22.9519C35.709 22.9519 35.9533 23.0548 36.1591 23.2607L43.9401 31.0416C44.0775 31.1862 44.1773 31.3326 44.2392 31.4807C44.3012 31.6289 44.3322 31.7877 44.3322 31.9572C44.3322 32.1338 44.3012 32.2955 44.2392 32.4422C44.1773 32.589 44.0775 32.7311 43.9401 32.8685L36.1517 40.657C35.9561 40.865 35.7185 40.9672 35.4388 40.9636C35.1591 40.96 34.9106 40.8532 34.6934 40.6431Z" fill="#263242"/>
</g>
</svg>
