<svg width="22" height="25" viewBox="0 0 22 25" fill="none" xmlns="http://www.w3.org/2000/svg">
<path d="M9.07697 16.7864L5.60857 13.318C5.48835 13.2115 5.35531 13.1539 5.20944 13.1454C5.06357 13.1368 4.92882 13.1944 4.80517 13.318C4.68153 13.4417 4.62056 13.5756 4.62227 13.7197C4.62396 13.8639 4.68493 13.9978 4.80517 14.1214L8.39321 17.7369C8.5859 17.9306 8.81071 18.0274 9.06764 18.0274C9.32457 18.0274 9.5556 17.9306 9.76071 17.7369L17.1436 10.3368C17.2502 10.2303 17.3077 10.0998 17.3163 9.94538C17.3248 9.79096 17.2673 9.65193 17.1436 9.52828C17.02 9.40464 16.8852 9.34282 16.7394 9.34282C16.5935 9.34282 16.4587 9.40464 16.3351 9.52828L9.07697 16.7864ZM2.28207 24.6667C1.75074 24.6667 1.29312 24.4748 0.909207 24.0909C0.525318 23.707 0.333374 23.2494 0.333374 22.718V5.28211C0.333374 4.75078 0.525318 4.29316 0.909207 3.90925C1.29312 3.52536 1.75074 3.33341 2.28207 3.33341H8.92654C8.75503 2.66788 8.8811 2.05705 9.30474 1.50091C9.72839 0.944803 10.2935 0.666748 11 0.666748C11.7237 0.666748 12.2973 0.944803 12.721 1.50091C13.1446 2.05705 13.2621 2.66788 13.0735 3.33341H19.718C20.2493 3.33341 20.707 3.52536 21.0909 3.90925C21.4748 4.29316 21.6667 4.75078 21.6667 5.28211V22.718C21.6667 23.2494 21.4748 23.707 21.0909 24.0909C20.707 24.4748 20.2493 24.6667 19.718 24.6667H2.28207ZM2.28207 23.5385H19.718C19.9231 23.5385 20.1112 23.4531 20.2821 23.2821C20.453 23.1112 20.5385 22.9232 20.5385 22.718V5.28211C20.5385 5.07698 20.453 4.88895 20.2821 4.71801C20.1112 4.54708 19.9231 4.46162 19.718 4.46162H2.28207C2.07694 4.46162 1.88891 4.54708 1.71797 4.71801C1.54704 4.88895 1.46157 5.07698 1.46157 5.28211V22.718C1.46157 22.9232 1.54704 23.1112 1.71797 23.2821C1.88891 23.4531 2.07694 23.5385 2.28207 23.5385ZM10.9965 3.85308C11.2864 3.85308 11.5361 3.75237 11.7456 3.55095C11.9551 3.3495 12.0599 3.09978 12.0599 2.80178C12.0599 2.50378 11.9551 2.25407 11.7456 2.05265C11.5361 1.85123 11.2864 1.75051 10.9965 1.75051C10.7065 1.75051 10.4609 1.85123 10.2594 2.05265C10.058 2.25407 9.95731 2.50378 9.95731 2.80178C9.95731 3.09978 10.058 3.3495 10.2594 3.55095C10.4609 3.75237 10.7065 3.85308 10.9965 3.85308Z" fill="#1C1B1F"/>
</svg>
