<svg width="22" height="25" viewBox="0 0 22 25" fill="none" xmlns="http://www.w3.org/2000/svg">
<path d="M2.28207 25.0001C1.73592 25.0001 1.2746 24.8118 0.898107 24.4354C0.521619 24.0589 0.333374 23.5975 0.333374 23.0514V5.41032C0.333374 4.86416 0.521619 4.40284 0.898107 4.02635C1.2746 3.64986 1.73592 3.46162 2.28207 3.46162H4.90601V1.33512C4.90601 1.15585 4.96497 1.00392 5.08291 0.879316C5.20082 0.754694 5.3499 0.692383 5.53014 0.692383C5.7167 0.692383 5.87156 0.754694 5.99474 0.879316C6.11792 1.00392 6.17951 1.15585 6.17951 1.33512V3.46162H15.9231V1.28865C15.9231 1.11187 15.979 0.968305 16.0906 0.857949C16.2023 0.747572 16.3414 0.692383 16.508 0.692383C16.6808 0.692383 16.8246 0.748849 16.9392 0.861783C17.0539 0.974716 17.1112 1.11541 17.1112 1.28385V3.46162H19.718C20.2642 3.46162 20.7255 3.64986 21.102 4.02635C21.4785 4.40284 21.6667 4.86416 21.6667 5.41032V23.0514C21.6667 23.5975 21.4785 24.0589 21.102 24.4354C20.7255 24.8118 20.2642 25.0001 19.718 25.0001H2.28207ZM2.28207 23.8719H19.718C19.9231 23.8719 20.1112 23.7864 20.2821 23.6155C20.453 23.4445 20.5385 23.2565 20.5385 23.0514V11.0514H1.46157V23.0514C1.46157 23.2565 1.54704 23.4445 1.71797 23.6155C1.88891 23.7864 2.07694 23.8719 2.28207 23.8719ZM1.46157 9.92315H20.5385V5.41032C20.5385 5.20518 20.453 5.01715 20.2821 4.84622C20.1112 4.67528 19.9231 4.58982 19.718 4.58982H2.28207C2.07694 4.58982 1.88891 4.67528 1.71797 4.84622C1.54704 5.01715 1.46157 5.20518 1.46157 5.41032V9.92315ZM11 15.8719C10.7248 15.8719 10.4851 15.7697 10.2808 15.5655C10.0765 15.3612 9.97441 15.1215 9.97441 14.8463C9.97441 14.571 10.0765 14.3313 10.2808 14.127C10.4851 13.9227 10.7248 13.8206 11 13.8206C11.2753 13.8206 11.515 13.9227 11.7193 14.127C11.9235 14.3313 12.0257 14.571 12.0257 14.8463C12.0257 15.1215 11.9235 15.3612 11.7193 15.5655C11.515 15.7697 11.2753 15.8719 11 15.8719ZM5.66671 15.8719C5.39149 15.8719 5.15174 15.7697 4.94747 15.5655C4.74321 15.3612 4.64107 15.1215 4.64107 14.8463C4.64107 14.571 4.74321 14.3313 4.94747 14.127C5.15174 13.9227 5.39149 13.8206 5.66671 13.8206C5.94193 13.8206 6.18167 13.9227 6.38594 14.127C6.59021 14.3313 6.69234 14.571 6.69234 14.8463C6.69234 15.1215 6.59021 15.3612 6.38594 15.5655C6.18167 15.7697 5.94193 15.8719 5.66671 15.8719ZM16.3334 15.8719C16.0582 15.8719 15.8184 15.7697 15.6141 15.5655C15.4099 15.3612 15.3077 15.1215 15.3077 14.8463C15.3077 14.571 15.4099 14.3313 15.6141 14.127C15.8184 13.9227 16.0582 13.8206 16.3334 13.8206C16.6086 13.8206 16.8483 13.9227 17.0526 14.127C17.2569 14.3313 17.359 14.571 17.359 14.8463C17.359 15.1215 17.2569 15.3612 17.0526 15.5655C16.8483 15.7697 16.6086 15.8719 16.3334 15.8719ZM11 21.0001C10.7248 21.0001 10.4851 20.8979 10.2808 20.6937C10.0765 20.4894 9.97441 20.2497 9.97441 19.9745C9.97441 19.6992 10.0765 19.4595 10.2808 19.2552C10.4851 19.0509 10.7248 18.9488 11 18.9488C11.2753 18.9488 11.515 19.0509 11.7193 19.2552C11.9235 19.4595 12.0257 19.6992 12.0257 19.9745C12.0257 20.2497 11.9235 20.4894 11.7193 20.6937C11.515 20.8979 11.2753 21.0001 11 21.0001ZM5.66671 21.0001C5.39149 21.0001 5.15174 20.8979 4.94747 20.6937C4.74321 20.4894 4.64107 20.2497 4.64107 19.9745C4.64107 19.6992 4.74321 19.4595 4.94747 19.2552C5.15174 19.0509 5.39149 18.9488 5.66671 18.9488C5.94193 18.9488 6.18167 19.0509 6.38594 19.2552C6.59021 19.4595 6.69234 19.6992 6.69234 19.9745C6.69234 20.2497 6.59021 20.4894 6.38594 20.6937C6.18167 20.8979 5.94193 21.0001 5.66671 21.0001ZM16.3334 21.0001C16.0582 21.0001 15.8184 20.8979 15.6141 20.6937C15.4099 20.4894 15.3077 20.2497 15.3077 19.9745C15.3077 19.6992 15.4099 19.4595 15.6141 19.2552C15.8184 19.0509 16.0582 18.9488 16.3334 18.9488C16.6086 18.9488 16.8483 19.0509 17.0526 19.2552C17.2569 19.4595 17.359 19.6992 17.359 19.9745C17.359 20.2497 17.2569 20.4894 17.0526 20.6937C16.8483 20.8979 16.6086 21.0001 16.3334 21.0001Z" fill="#1C1B1F"/>
</svg>
