<svg width="25" height="24" viewBox="0 0 25 24" fill="none" xmlns="http://www.w3.org/2000/svg">
<path d="M17.6667 15.7436C16.812 15.7436 16.0855 15.4445 15.4872 14.8462C14.8889 14.2479 14.5897 13.5214 14.5897 12.6667C14.5897 11.812 14.8889 11.0855 15.4872 10.4872C16.0855 9.88887 16.812 9.58973 17.6667 9.58973C18.5214 9.58973 19.2479 9.88887 19.8462 10.4872C20.4445 11.0855 20.7436 11.812 20.7436 12.6667C20.7436 13.5214 20.4445 14.2479 19.8462 14.8462C19.2479 15.4445 18.5214 15.7436 17.6667 15.7436ZM17.6667 14.6154C18.216 14.6154 18.6781 14.4279 19.053 14.053C19.4279 13.6781 19.6154 13.216 19.6154 12.6667C19.6154 12.1174 19.4279 11.6553 19.053 11.2803C18.6781 10.9054 18.216 10.7179 17.6667 10.7179C17.1174 10.7179 16.6553 10.9054 16.2803 11.2803C15.9054 11.6553 15.7179 12.1174 15.7179 12.6667C15.7179 13.216 15.9054 13.6781 16.2803 14.053C16.6553 14.4279 17.1174 14.6154 17.6667 14.6154ZM11.5641 23.6154C11.288 23.6154 11.0566 23.522 10.8699 23.3353C10.6831 23.1485 10.5897 22.9171 10.5897 22.641V20.6718C10.5897 20.3664 10.6626 20.0792 10.8084 19.8102C10.9541 19.5411 11.1582 19.3266 11.4205 19.1667C12.004 18.814 12.5088 18.562 12.935 18.4107C13.3613 18.2594 13.9119 18.113 14.5869 17.9714C14.7953 17.934 15.0012 17.9384 15.2048 17.9844C15.4084 18.0305 15.5729 18.1351 15.6983 18.2983L17.6667 20.8769L19.6068 18.2983C19.7473 18.1306 19.9153 18.0249 20.1108 17.9811C20.3063 17.9373 20.5153 17.9355 20.7378 17.9756C21.4191 18.1193 21.9656 18.2646 22.3773 18.4117C22.789 18.5588 23.2983 18.8104 23.9051 19.1667C24.1684 19.3256 24.3697 19.538 24.509 19.8038C24.6483 20.0697 24.7265 20.3504 24.7436 20.6462V22.641C24.7436 22.9171 24.6502 23.1485 24.4635 23.3353C24.2767 23.522 24.0453 23.6154 23.7692 23.6154H11.5641ZM11.6897 22.4872H17.4598L14.8239 19.0051C14.2637 19.1542 13.7242 19.336 13.2055 19.5507C12.6867 19.7653 12.1815 20.0102 11.6897 20.2855V22.4872ZM17.8906 22.4872H23.6154V20.2855C23.1254 20.0086 22.619 19.7677 22.0963 19.5628C21.5735 19.358 21.0378 19.1806 20.4889 19.0308L17.8906 22.4872ZM1.46154 20.5385V1.46153V6.77863V6.10256V20.5385ZM2.29428 21.6667C1.75479 21.6667 1.29309 21.4736 0.909177 21.0876C0.525288 20.7016 0.333344 20.245 0.333344 19.718V2.28203C0.333344 1.75496 0.526366 1.29842 0.91241 0.912395C1.29843 0.526351 1.75498 0.333328 2.28204 0.333328H19.718C20.245 0.333328 20.7016 0.526351 21.0876 0.912395C21.4737 1.29842 21.6667 1.75496 21.6667 2.28203V7.68549C21.5049 7.50885 21.3322 7.34616 21.1487 7.19743C20.9653 7.04872 20.7618 6.90997 20.5385 6.7812V2.28203C20.5385 2.04272 20.4616 1.84614 20.3077 1.6923C20.1539 1.53845 19.9573 1.46153 19.718 1.46153H2.28204C2.04273 1.46153 1.84615 1.53845 1.69231 1.6923C1.53847 1.84614 1.46154 2.04272 1.46154 2.28203V19.718C1.46154 19.9573 1.53847 20.1539 1.69231 20.3077C1.84615 20.4615 2.04273 20.5385 2.28204 20.5385H7.08378C7.09004 20.5578 7.09474 20.5829 7.09788 20.6137C7.10101 20.6444 7.10258 20.6638 7.10258 20.6718V21.6667H2.29428ZM5.56411 6.43589H15.518C15.7641 6.35612 16.0092 6.29771 16.2531 6.26066C16.497 6.22364 16.746 6.18803 17 6.15383V5.5641C17 5.49143 16.9754 5.43053 16.9263 5.38139C16.8772 5.33226 16.8163 5.30769 16.7436 5.30769H5.56411C5.40429 5.30769 5.27031 5.36224 5.16218 5.47133C5.05407 5.58042 5.00001 5.71561 5.00001 5.8769C5.00001 6.03816 5.05407 6.17164 5.16218 6.27733C5.27031 6.38304 5.40429 6.43589 5.56411 6.43589ZM5.56411 11.5641H11.2308C11.265 11.363 11.3034 11.1696 11.3461 10.9839C11.3889 10.7983 11.439 10.6156 11.4966 10.4359H5.56411C5.40429 10.4359 5.27031 10.4904 5.16218 10.5995C5.05407 10.7086 5.00001 10.8438 5.00001 11.0051C5.00001 11.1664 5.05407 11.2999 5.16218 11.4056C5.27031 11.5113 5.40429 11.5641 5.56411 11.5641ZM5.56411 16.6923H8.93101C9.20323 16.4843 9.4808 16.2929 9.76371 16.118C10.0466 15.943 10.3445 15.7883 10.6573 15.6538V15.694C10.6322 15.6405 10.6004 15.6054 10.562 15.5889C10.5235 15.5724 10.4778 15.5641 10.4248 15.5641H5.56411C5.40429 15.5641 5.27031 15.6187 5.16218 15.7278C5.05407 15.8369 5.00001 15.972 5.00001 16.1333C5.00001 16.2946 5.05407 16.4281 5.16218 16.5338C5.27031 16.6395 5.40429 16.6923 5.56411 16.6923Z" fill="#1C1B1F"/>
</svg>
