<svg width="64" height="64" viewBox="0 0 64 64" fill="none" xmlns="http://www.w3.org/2000/svg">
<mask id="mask0_2203_6954" style="mask-type:alpha" maskUnits="userSpaceOnUse" x="0" y="0" width="64" height="64">
<rect width="64" height="64" fill="#D9D9D9"/>
</mask>
<g mask="url(#mask0_2203_6954)">
<path d="M20.6001 32L25.9335 26.6667C26.0668 26.5374 26.1446 26.3606 26.1668 26.1363C26.189 25.9121 26.1112 25.7111 25.9335 25.5333C25.8001 25.4 25.6386 25.3333 25.449 25.3333C25.2594 25.3333 25.0653 25.4 24.8668 25.5333L19.7335 30.7333C19.5112 30.9111 19.3557 31.1059 19.2668 31.3178C19.1779 31.5296 19.1335 31.7629 19.1335 32.0178C19.1335 32.2726 19.1779 32.5 19.2668 32.7C19.3557 32.9 19.5112 33.0889 19.7335 33.2667L25.0001 38.5333C25.1038 38.6667 25.2616 38.7444 25.4735 38.7667C25.6853 38.7889 25.8831 38.7111 26.0668 38.5333C26.2001 38.3596 26.2668 38.1717 26.2668 37.9697C26.2668 37.7677 26.2001 37.6 26.0668 37.4667L20.6001 32ZM43.4001 32L37.9335 37.4667C37.8001 37.5555 37.7335 37.7111 37.7335 37.9333C37.7335 38.1556 37.8112 38.3556 37.9668 38.5333C38.1224 38.7111 38.2964 38.8 38.489 38.8C38.6816 38.8 38.852 38.7111 39.0001 38.5333L44.3507 33.2451C44.517 33.0817 44.6446 32.8941 44.7335 32.6822C44.8224 32.4704 44.8668 32.237 44.8668 31.9822C44.8668 31.7274 44.8224 31.5 44.7335 31.3C44.6446 31.1 44.517 30.9183 44.3507 30.7549L39.0001 25.4667C38.9557 25.4222 38.889 25.3778 38.8001 25.3333C38.7112 25.2889 38.6224 25.2667 38.5335 25.2667C38.4446 25.2667 38.3462 25.2778 38.2382 25.3C38.1303 25.3222 38.0361 25.3733 37.9557 25.4533C37.8075 25.6537 37.7335 25.8505 37.7335 26.0437C37.7335 26.2368 37.8001 26.4 37.9335 26.5333L43.4001 32ZM15.0668 52.5333C14.0546 52.5333 13.2015 52.1864 12.5077 51.4925C11.8138 50.7986 11.4668 49.9455 11.4668 48.9333V15.0667C11.4668 14.0544 11.8138 13.2014 12.5077 12.5075C13.2015 11.8136 14.0546 11.4667 15.0668 11.4667H48.9335C49.9457 11.4667 50.7988 11.8136 51.4927 12.5075C52.1865 13.2014 52.5335 14.0544 52.5335 15.0667V48.9333C52.5335 49.9455 52.1865 50.7986 51.4927 51.4925C50.7988 52.1864 49.9457 52.5333 48.9335 52.5333H15.0668ZM15.0668 51.0667H48.9335C49.4668 51.0667 49.9557 50.8444 50.4001 50.4C50.8446 49.9556 51.0668 49.4667 51.0668 48.9333V15.0667C51.0668 14.5333 50.8446 14.0444 50.4001 13.6C49.9557 13.1555 49.4668 12.9333 48.9335 12.9333H15.0668C14.5335 12.9333 14.0446 13.1555 13.6001 13.6C13.1557 14.0444 12.9335 14.5333 12.9335 15.0667V48.9333C12.9335 49.4667 13.1557 49.9556 13.6001 50.4C14.0446 50.8444 14.5335 51.0667 15.0668 51.0667Z" fill="#263242"/>
</g>
</svg>
