<svg width="22" height="22" viewBox="0 0 22 22" fill="none" xmlns="http://www.w3.org/2000/svg">
<path d="M12.8975 6.32059V1.32029C12.8975 1.03149 12.9916 0.794774 13.1798 0.610152C13.3681 0.425552 13.6013 0.333252 13.8796 0.333252H20.6955C20.9737 0.333252 21.2052 0.425552 21.3898 0.610152C21.5744 0.794774 21.6667 1.03149 21.6667 1.32029V6.32059C21.6667 6.60939 21.5726 6.84609 21.3843 7.03069C21.1961 7.21531 20.9629 7.30762 20.6846 7.30762H13.8687C13.5904 7.30762 13.359 7.21531 13.1744 7.03069C12.9898 6.84609 12.8975 6.60939 12.8975 6.32059ZM0.333374 9.93322V1.29685C0.333374 1.02367 0.427496 0.794774 0.61574 0.610152C0.803963 0.425552 1.03722 0.333252 1.31551 0.333252H8.13137C8.40964 0.333252 8.64107 0.425652 8.82568 0.610452C9.0103 0.79523 9.10261 1.02421 9.10261 1.29739V9.93375C9.10261 10.2069 9.00849 10.4358 8.82024 10.6205C8.632 10.8051 8.39874 10.8974 8.12047 10.8974H1.30461C1.02634 10.8974 0.794897 10.805 0.610274 10.6202C0.425674 10.4354 0.333374 10.2064 0.333374 9.93322ZM12.8975 20.7025V12.0661C12.8975 11.7929 12.9916 11.564 13.1798 11.3794C13.3681 11.1948 13.6013 11.1025 13.8796 11.1025H20.6955C20.9737 11.1025 21.2052 11.1949 21.3898 11.3797C21.5744 11.5645 21.6667 11.7934 21.6667 12.0666V20.703C21.6667 20.9762 21.5726 21.2051 21.3843 21.3897C21.1961 21.5743 20.9629 21.6666 20.6846 21.6666H13.8687C13.5904 21.6666 13.359 21.5742 13.1744 21.3894C12.9898 21.2046 12.8975 20.9756 12.8975 20.7025ZM0.333374 20.6796V15.6793C0.333374 15.3905 0.427496 15.1538 0.61574 14.9692C0.803963 14.7845 1.03722 14.6922 1.31551 14.6922H8.13137C8.40964 14.6922 8.64107 14.7845 8.82568 14.9692C9.0103 15.1538 9.10261 15.3905 9.10261 15.6793V20.6796C9.10261 20.9684 9.00849 21.2051 8.82024 21.3897C8.632 21.5743 8.39874 21.6666 8.12047 21.6666H1.30461C1.02634 21.6666 0.794897 21.5743 0.610274 21.3897C0.425674 21.2051 0.333374 20.9684 0.333374 20.6796ZM1.46157 9.76915H7.97441V1.46145H1.46157V9.76915ZM14.0257 20.5384H20.5385V12.2307H14.0257V20.5384ZM14.0257 6.17942H20.5385V1.46145H14.0257V6.17942ZM1.46157 20.5384H7.97441V15.8204H1.46157V20.5384Z" fill="#1C1B1F"/>
</svg>
