<svg width="28" height="30" viewBox="0 0 28 30" fill="none" xmlns="http://www.w3.org/2000/svg">
<path d="M11.9863 20.1813C11.723 20.1813 11.4628 20.1274 11.2057 20.0197C10.9485 19.912 10.7144 19.7616 10.5034 19.5684L5.42816 14.4248C5.21791 14.211 5.05894 13.9724 4.95123 13.7091C4.84354 13.4457 4.78969 13.1743 4.78969 12.8949C4.78969 12.5984 4.84354 12.3215 4.95123 12.0642C5.05894 11.8069 5.21791 11.5681 5.42816 11.3479L11.2008 5.62399L7.24869 1.67182C7.14554 1.56129 7.09682 1.43024 7.10253 1.27869C7.10822 1.12711 7.16805 0.985744 7.28203 0.854589C7.39027 0.736744 7.51933 0.677389 7.66919 0.676522C7.81906 0.675678 7.95097 0.737933 8.06493 0.863289L18.5615 11.3479C18.7769 11.5681 18.9371 11.8069 19.0423 12.0642C19.1474 12.3215 19.2 12.5984 19.2 12.8949C19.2 13.1743 19.1474 13.4457 19.0423 13.7091C18.9371 13.9724 18.7769 14.211 18.5615 14.4248L13.4692 19.5684C13.28 19.7616 13.0514 19.912 12.7833 20.0197C12.5152 20.1274 12.2495 20.1813 11.9863 20.1813ZM12.0119 6.43509L6.08286 12.3129C5.99739 12.3983 5.94184 12.4881 5.91619 12.5821C5.89055 12.6761 5.87773 12.7744 5.87773 12.877H18.1119C18.1119 12.7744 18.0963 12.6761 18.0649 12.5821C18.0336 12.4881 17.9809 12.3983 17.9068 12.3129L12.0119 6.43509ZM22.6893 21.5847C22.1517 21.5847 21.6972 21.3979 21.326 21.0245C20.9548 20.651 20.7692 20.1962 20.7692 19.6599C20.7692 19.2815 20.8577 18.915 21.0346 18.5603C21.2115 18.2056 21.4136 17.8548 21.641 17.5078C21.8034 17.2718 21.9755 17.0345 22.1572 16.7958C22.339 16.557 22.5179 16.3197 22.694 16.0838C22.8701 16.3197 23.049 16.557 23.2307 16.7958C23.4125 17.0345 23.5789 17.2718 23.7299 17.5078C23.9572 17.8548 24.1594 18.2056 24.3363 18.5603C24.5132 18.915 24.6017 19.2815 24.6017 19.6599C24.6017 20.1962 24.4145 20.651 24.0401 21.0245C23.6657 21.3979 23.2155 21.5847 22.6893 21.5847ZM1.79996 30.0051C1.49043 30.0051 1.22416 29.8938 1.00116 29.6714C0.778137 29.4489 0.666626 29.1833 0.666626 28.8744C0.666626 28.5655 0.778137 28.2998 1.00116 28.0774C1.22414 27.8549 1.4904 27.7437 1.79996 27.7437H26.2051C26.5085 27.7437 26.7724 27.8562 26.9968 28.0813C27.2211 28.3065 27.3333 28.5713 27.3333 28.8757C27.3333 29.1802 27.2211 29.4445 26.9968 29.6687C26.7724 29.8929 26.5085 30.0051 26.2051 30.0051H1.79996Z" fill="#1C1B1F"/>
</svg>
