<svg width="48" height="48" viewBox="0 0 48 48" fill="none" xmlns="http://www.w3.org/2000/svg">
<mask id="mask0_2068_4260" style="mask-type:alpha" maskUnits="userSpaceOnUse" x="0" y="0" width="48" height="48">
<rect width="48" height="48" fill="#D9D9D9"/>
</mask>
<g mask="url(#mask0_2068_4260)">
<path d="M7.96155 32C7.96155 30.6731 8.42468 29.5465 9.35095 28.6202C10.2772 27.6939 11.4038 27.2307 12.7307 27.2307H16.7307C19.0726 27.2307 20.8632 26.5643 22.1025 25.2314C23.3419 23.8985 23.9615 22.3085 23.9615 20.4615C23.9615 19.3949 23.6292 18.5128 22.9644 17.8154C22.2997 17.118 21.4782 16.7693 20.5 16.7693C19.8032 16.7693 19.2059 16.5204 18.7081 16.0226C18.2104 15.5248 17.9615 14.9276 17.9615 14.2308V5.76925C17.9615 5.55065 18.0396 5.36778 18.1958 5.22065C18.352 5.07355 18.546 5 18.778 5C18.9991 5 19.1811 5.07355 19.324 5.22065C19.467 5.36778 19.5384 5.55065 19.5384 5.76925V14.2308C19.5795 14.5128 19.6756 14.75 19.8269 14.9423C19.9782 15.1346 20.2026 15.2308 20.5 15.2308C21.8889 15.2308 23.0694 15.7226 24.0416 16.7064C25.0139 17.6902 25.5 18.9419 25.5 20.4615C25.5 22.7413 24.7321 24.6958 23.1963 26.3252C21.6606 27.9546 19.5054 28.7693 16.7307 28.7693H12.7307C11.8173 28.7693 11.0505 29.0793 10.4303 29.6995C9.8101 30.3197 9.5 31.0865 9.5 32V42.2308C9.5 42.4494 9.42546 42.6322 9.2764 42.7794C9.12736 42.9264 8.94211 43 8.72065 43C8.49918 43 8.3173 42.9264 8.175 42.7794C8.0327 42.6322 7.96155 42.4494 7.96155 42.2308V32ZM14.4615 40C14.4615 38.6731 14.9247 37.5465 15.8509 36.6202C16.7772 35.6939 17.9039 35.2307 19.2308 35.2307H27.2308C30.3639 35.2307 33.0189 34.1422 35.1959 31.9652C37.373 29.7881 38.4615 27.1331 38.4615 24V22C38.4615 18.9385 37.4449 16.3013 35.4115 14.0885C33.3782 11.8757 30.8692 10.7693 27.8846 10.7693C26.9631 10.7693 26.1622 10.4242 25.4819 9.73415C24.8017 9.04408 24.4615 8.24808 24.4615 7.34615V5.76925C24.4615 5.55065 24.5361 5.36778 24.6851 5.22065C24.8342 5.07355 25.0194 5 25.2409 5C25.4624 5 25.6442 5.07355 25.7865 5.22065C25.9288 5.36778 26 5.55065 26 5.76925V7.34615C26 7.85898 26.1859 8.3013 26.5577 8.6731C26.9295 9.04487 27.3718 9.23075 27.8846 9.23075C31.259 9.23075 34.1218 10.4961 36.4731 13.0269C38.8244 15.5577 40 18.5487 40 22V24C40 27.5317 38.7547 30.5428 36.2641 33.0334C33.7736 35.524 30.7625 36.7693 27.2308 36.7693H19.2308C18.3173 36.7693 17.5505 37.0793 16.9303 37.6995C16.3101 38.3197 16 39.0865 16 40V42.2308C16 42.4494 15.9255 42.6322 15.7764 42.7794C15.6274 42.9264 15.4421 43 15.2206 43C14.9992 43 14.8173 42.9264 14.675 42.7794C14.5327 42.6322 14.4615 42.4494 14.4615 42.2308V40Z" fill="white"/>
</g>
</svg>
