<svg width="100" height="100" viewBox="0 0 100 100" fill="none" xmlns="http://www.w3.org/2000/svg">
<mask id="mask0_2068_4031" style="mask-type:alpha" maskUnits="userSpaceOnUse" x="0" y="0" width="100" height="100">
<rect width="100" height="100" fill="#D9D9D9"/>
</mask>
<g mask="url(#mask0_2068_4031)">
<path d="M50.0238 52.7084C50.3551 52.7084 50.625 52.5986 50.8333 52.379C51.0417 52.1594 51.1458 51.8872 51.1458 51.5626V34.5834C51.1458 34.3265 51.0338 34.0713 50.8096 33.8178C50.5854 33.5643 50.3076 33.4376 49.9763 33.4376C49.6449 33.4376 49.375 33.5643 49.1667 33.8178C48.9583 34.0713 48.8542 34.3265 48.8542 34.5834V51.5626C48.8542 51.8872 48.9663 52.1594 49.1904 52.379C49.4146 52.5986 49.6924 52.7084 50.0238 52.7084ZM50 62.0834C50.6215 62.0834 51.0894 61.9037 51.4037 61.5444C51.7179 61.185 51.875 60.7397 51.875 60.2084C51.875 59.5869 51.7179 59.1016 51.4037 58.7527C51.0894 58.4037 50.6215 58.2292 50 58.2292C49.3785 58.2292 48.9106 58.4037 48.5964 58.7527C48.2821 59.1016 48.125 59.5695 48.125 60.1563C48.125 60.7431 48.2821 61.211 48.5964 61.56C48.9106 61.9089 49.3785 62.0834 50 62.0834ZM50 85.7292C49.7454 85.7292 49.4882 85.7119 49.2287 85.6772C48.9691 85.6424 48.7768 85.5887 48.652 85.516C41.009 82.7415 34.6701 77.7212 29.6354 70.4552C24.6007 63.1891 22.0833 55.0687 22.0833 46.0938V28.5417C22.0833 27.3217 22.4222 26.2238 23.1 25.2478C23.7777 24.2718 24.6541 23.5642 25.7292 23.1251L48.0208 14.8959C48.7153 14.6181 49.375 14.4792 50 14.4792C50.625 14.4792 51.2847 14.6181 51.9792 14.8959L74.2708 23.1251C75.3459 23.5642 76.2223 24.2718 76.9 25.2478C77.5778 26.2238 77.9167 27.3217 77.9167 28.5417V46.0938C77.9167 55.0687 75.3993 63.1891 70.3646 70.4552C65.3299 77.7212 59.0331 82.7448 51.4744 85.5258C51.2554 85.592 50.7639 85.6598 50 85.7292ZM50 83.5417C57.4306 81.1806 63.559 76.4931 68.3854 69.4792C73.2118 62.4654 75.625 54.6529 75.625 46.0417V27.8126C75.625 27.257 75.4861 26.7709 75.2083 26.3542C74.9306 25.9376 74.5486 25.6598 74.0625 25.5209L51.5625 17.1876C51.007 16.9792 50.4861 16.8751 50 16.8751C49.5139 16.8751 48.9931 16.9792 48.4375 17.1876L25.9375 25.5209C25.4514 25.6598 25.0695 25.9376 24.7917 26.3542C24.5139 26.7709 24.375 27.257 24.375 27.8126V46.0417C24.375 54.6529 26.7882 62.4654 31.6146 69.4792C36.441 76.4931 42.5695 81.1806 50 83.5417Z" fill="white"/>
</g>
</svg>
