<svg width="60" height="60" viewBox="0 0 60 60" fill="none" xmlns="http://www.w3.org/2000/svg">
<rect width="60" height="60" rx="10" fill="#3A4961"/>
<path fill-rule="evenodd" clip-rule="evenodd" d="M30.1536 13.1594L38.2739 25.6698C39.1293 26.2945 39.8083 26.8142 40.4024 27.2687C42.3655 28.7711 43.362 29.5342 45.1498 29.8652C45.7409 29.9748 46.2986 29.9801 47.1812 29.9884C47.5307 29.9916 47.9273 29.9958 48.3662 30.0052C48.9609 30.0168 49.4334 30.5151 49.4218 31.1179C49.4123 31.6217 49.0669 32.0394 48.6065 32.1558L48.6071 32.158C47.9938 32.3142 47.2761 32.4472 46.5461 32.525C45.891 32.595 45.2293 32.62 44.6284 32.5782C43.9214 32.5287 43.1629 32.3183 42.3881 32.008L50.2528 44.1246H30.1536H10.0547L16.7445 33.8183C16.5869 33.8705 16.4252 33.9223 16.2586 33.9743L16.1992 33.9908L16.1993 33.9914C15.6562 34.1265 15.1086 34.0249 14.6631 33.7511C14.217 33.4773 13.8744 33.0328 13.7411 32.4828C13.7359 32.4613 13.7314 32.4398 13.7274 32.4183C13.6152 31.8866 13.7162 31.3567 13.9741 30.9251C13.9969 30.8865 14.0216 30.8502 14.0482 30.8158C14.321 30.4174 14.7312 30.1151 15.2291 29.9907L15.2335 29.9897C16.3679 29.6674 17.1964 29.3468 17.9001 28.8919C18.6041 28.4368 19.2315 27.8145 19.9724 26.8837C20.9304 25.6806 21.9856 24.7308 23.1083 24.0138L30.1536 13.1594ZM26.0993 25.3403C27.0343 25.0128 28.1397 24.8793 29.5937 24.8909C31.9518 24.9098 34.3916 25.8498 36.5946 27.2949C38.717 28.6868 42.2159 31.313 44.6999 31.4867C45.8512 31.5671 47.2599 31.3732 48.345 31.0965C46.6473 31.0596 45.8789 31.1108 44.9557 30.9395C42.2309 30.4345 41.2472 29.154 37.2312 26.2566C31.8646 22.3847 25.2306 22.0199 20.8128 27.5685C19.1839 29.6146 17.9921 30.3442 15.4868 31.0521C14.9752 31.179 14.6625 31.7026 14.788 32.2216C14.9138 32.7401 15.4303 33.0572 15.9418 32.9301C17.2842 32.5117 18.3117 32.0918 19.2078 31.5258C19.2078 31.5591 19.2092 31.5923 19.2129 31.6257C18.7869 33.1162 18.1889 35.8609 15.0129 38.5672C14.6017 38.9015 14.5365 39.5099 14.8661 39.9265C15.196 40.3426 15.7962 40.4095 16.2072 40.0751C18.3174 38.1552 19.6289 36.2067 20.3717 33.6845C20.8981 34.3638 21.5082 34.8774 22.4807 35.5427C26.7322 38.4511 37.2852 41.3385 41.8198 38.3078C45.6841 35.7254 40.366 30.9066 38.7288 34.4147C37.6196 36.7907 41.7084 37.6009 41.4223 35.4256C41.3797 35.1015 41.2524 34.9079 40.9513 34.8073L40.9508 34.8074C41.0141 34.9275 41.0968 35.0593 41.1296 35.1888C41.5304 36.7665 38.793 36.3818 39.2655 34.9624C40.0947 32.4712 43.9096 35.7244 41.219 37.3452C37.7735 39.4211 30.2307 37.4268 26.8053 35.9057C24.9677 35.0897 23.1574 34.114 21.9163 32.5633C27.0609 33.5785 34.8514 33.6931 39.0649 32.0608L40.2714 31.4805L38.9629 31.6677C33.3225 32.5373 27.4207 32.4616 21.8661 31.0142C21.5944 30.9435 20.983 30.6839 20.4566 30.5678C21.0388 30.0338 21.5803 29.3726 22.2085 28.5772C22.6601 28.0053 23.0792 27.5116 23.4932 27.0878C23.3658 27.4091 23.2953 27.76 23.2953 28.1276C23.2953 29.6674 24.5265 30.9155 26.0455 30.9155C27.5645 30.9155 28.7957 29.6674 28.7957 28.1276C28.7957 26.606 27.5934 25.3694 26.0993 25.3403Z" fill="white"/>
</svg>
