<svg width="60" height="60" viewBox="0 0 60 60" fill="none" xmlns="http://www.w3.org/2000/svg">
<rect width="60" height="60" rx="10" fill="white"/>
<g clip-path="url(#clip0_2203_6745)">
<path d="M28.5931 34.9759C29.3722 40.1148 25.7725 45.7139 25.7725 45.7139C24.9348 47.0161 24.0583 46.7783 23.8245 45.1836L21.0507 26.8581C20.813 25.2633 21.5766 24.7448 22.7532 25.6883C22.7454 25.7078 27.8139 29.8447 28.5931 34.9759Z" fill="#E9232B"/>
<path d="M30.4123 34.8471C31.2577 29.0453 37.2456 24.2378 37.2456 24.2378C38.4144 23.2942 39.1936 23.8284 38.952 25.4075L35.8353 46.8757C35.6055 48.4626 34.725 48.6887 33.8874 47.3748C33.8757 47.3826 29.5708 40.6489 30.4123 34.8471Z" fill="#E9232B"/>
<path d="M35.2746 18.9272C35.2146 17.7336 34.8023 16.5846 34.0899 15.6254C33.3774 14.6663 32.3968 13.9401 31.272 13.5386C30.1472 13.1372 28.9287 13.0785 27.7706 13.3701C26.6125 13.6616 25.5668 14.2903 24.7656 15.1766C23.9645 16.0628 23.4439 17.167 23.2697 18.3493C23.0955 19.5317 23.2754 20.7392 23.7869 21.8192C24.2983 22.8992 25.1182 23.8032 26.1429 24.4169C27.1676 25.0306 28.3511 25.3265 29.5438 25.2671C30.3365 25.2286 31.1137 25.034 31.8311 24.6943C32.5484 24.3547 33.1917 23.8766 33.7241 23.2877C34.2565 22.6987 34.6675 22.0104 34.9336 21.2621C35.1997 20.5139 35.3156 19.7204 35.2746 18.9272Z" fill="#E9232B"/>
</g>
<defs>
<clipPath id="clip0_2203_6745">
<rect width="18" height="35" fill="white" transform="translate(21 13)"/>
</clipPath>
</defs>
</svg>
