<svg width="64" height="64" viewBox="0 0 64 64" fill="none" xmlns="http://www.w3.org/2000/svg">
<mask id="mask0_2212_5373" style="mask-type:alpha" maskUnits="userSpaceOnUse" x="0" y="0" width="64" height="64">
<rect width="64" height="64" fill="#D9D9D9"/>
</mask>
<g mask="url(#mask0_2212_5373)">
<path d="M30.1333 32.5334V38.5334C30.1333 38.7278 30.1958 38.8876 30.3208 39.0126C30.4458 39.1376 30.6056 39.2001 30.8 39.2001H33.2C33.4167 39.2001 33.582 39.1376 33.6959 39.0126C33.8097 38.8876 33.8667 38.7278 33.8667 38.5334V32.5334H39.8667C40.0833 32.5334 40.2486 32.4709 40.3625 32.3459C40.4764 32.2209 40.5333 32.0612 40.5333 31.8667V29.4667C40.5333 29.2501 40.4764 29.0848 40.3625 28.9709C40.2486 28.857 40.0833 28.8001 39.8667 28.8001H33.8667V22.8001C33.8667 22.5834 33.8097 22.4181 33.6959 22.3042C33.582 22.1903 33.4167 22.1334 33.2 22.1334H30.8C30.6056 22.1334 30.4458 22.1903 30.3208 22.3042C30.1958 22.4181 30.1333 22.5834 30.1333 22.8001V28.8001H24.1333C23.9389 28.8001 23.7792 28.857 23.6541 28.9709C23.5292 29.0848 23.4667 29.2501 23.4667 29.4667V31.8667C23.4667 32.0612 23.5292 32.2209 23.6541 32.3459C23.7792 32.4709 23.9389 32.5334 24.1333 32.5334H30.1333ZM32 54.7334C31.7636 54.7334 31.5292 54.7112 31.2969 54.6667C31.0646 54.6223 30.8541 54.5556 30.6653 54.4667C25.5551 52.4667 21.5222 49.1556 18.5667 44.5334C15.6111 39.9112 14.1333 34.8828 14.1333 29.4483V18.2667C14.1333 17.4859 14.3502 16.7832 14.784 16.1586C15.2177 15.534 15.7786 15.0811 16.4667 14.8001L30.7333 9.53339C31.1778 9.35561 31.6 9.26672 32 9.26672C32.4 9.26672 32.8222 9.35561 33.2667 9.53339L47.5333 14.8001C48.2214 15.0811 48.7823 15.534 49.216 16.1586C49.6498 16.7832 49.8667 17.4859 49.8667 18.2667V29.4483C49.8667 34.8828 48.3889 39.9112 45.4333 44.5334C42.4778 49.1556 38.4449 52.4667 33.3347 54.4667C33.1459 54.5556 32.9354 54.6223 32.7031 54.6667C32.4708 54.7112 32.2364 54.7334 32 54.7334ZM32 53.4667C36.7556 51.9556 40.6778 48.9556 43.7667 44.4667C46.8556 39.9778 48.4 34.9778 48.4 29.4667V18.2001C48.4 17.7556 48.2778 17.3556 48.0333 17.0001C47.7889 16.6445 47.4444 16.3778 47 16.2001L32.7333 10.8667C32.5111 10.7778 32.2667 10.7334 32 10.7334C31.7333 10.7334 31.4889 10.7778 31.2667 10.8667L17 16.2001C16.5556 16.3778 16.2111 16.6445 15.9667 17.0001C15.7222 17.3556 15.6 17.7556 15.6 18.2001V29.4667C15.6 34.9778 17.1444 39.9778 20.2333 44.4667C23.3222 48.9556 27.2444 51.9556 32 53.4667Z" fill="#4EAAED"/>
</g>
</svg>
