<svg width="40" height="40" viewBox="0 0 40 40" fill="none" xmlns="http://www.w3.org/2000/svg">
<mask id="mask0_68_1540" style="mask-type:alpha" maskUnits="userSpaceOnUse" x="0" y="0" width="40" height="40">
<rect width="40" height="40" fill="#D9D9D9"/>
</mask>
<g mask="url(#mask0_68_1540)">
<path d="M20 35C17.9011 35 15.9363 34.6106 14.1053 33.8318C12.2744 33.0529 10.6886 31.9931 9.34775 30.6523C8.00694 29.3114 6.94711 27.7256 6.16825 25.8947C5.38942 24.0637 5 22.0989 5 20C5 17.8919 5.38942 15.9248 6.16825 14.0984C6.94711 12.2721 8.00694 10.6886 9.34775 9.34775C10.6886 8.00695 12.2744 6.94711 14.1053 6.16825C15.9363 5.38942 17.9011 5 20 5C22.1081 5 24.0753 5.38942 25.9016 6.16825C27.7279 6.94711 29.3114 8.00695 30.6523 9.34775C31.9931 10.6886 33.0529 12.2721 33.8317 14.0984C34.6106 15.9248 35 17.8919 35 20V21.5705C35 22.9608 34.5233 24.1286 33.57 25.0737C32.6166 26.0189 31.4423 26.4915 30.047 26.4915C28.9402 26.4915 28.0021 26.2144 27.2329 25.6603C26.4637 25.1061 25.9003 24.3447 25.5428 23.3761C24.9252 24.3127 24.1914 25.0661 23.3413 25.6362C22.4913 26.2064 21.3775 26.4915 20 26.4915C18.193 26.4915 16.6583 25.8613 15.3958 24.601C14.1334 23.3406 13.5021 21.8034 13.5021 19.9893C13.5021 18.1752 14.1334 16.6394 15.3958 15.382C16.6583 14.1245 18.193 13.4957 20 13.4957C21.807 13.4957 23.3417 14.1245 24.6042 15.382C25.8666 16.6394 26.4979 18.1796 26.4979 20.0026V21.5727C26.4979 22.5506 26.843 23.3798 27.5331 24.0604C28.2233 24.7409 29.0648 25.0812 30.0577 25.0812C31.0321 25.0812 31.8643 24.7409 32.5545 24.0604C33.2447 23.3798 33.5898 22.5506 33.5898 21.5727V20C33.5898 16.2714 32.257 13.0742 29.5914 10.4086C26.9258 7.74304 23.7286 6.41025 20 6.41025C16.2714 6.41025 13.0743 7.74304 10.4087 10.4086C7.74306 13.0742 6.41025 16.2714 6.41025 20C6.41025 23.7286 7.74306 26.9258 10.4087 29.5913C13.0743 32.2569 16.2714 33.5898 20 33.5898H27.8034C28.0089 33.5898 28.1778 33.6559 28.3101 33.7883C28.4424 33.9207 28.5085 34.0897 28.5085 34.2952C28.5085 34.5008 28.4424 34.6697 28.3101 34.8018C28.1778 34.9339 28.0089 35 27.8034 35H20ZM20.0013 25.0812C21.4164 25.0812 22.6179 24.5895 23.6058 23.6061C24.5937 22.6227 25.0876 21.4207 25.0876 20C25.0876 18.5726 24.5933 17.3668 23.6045 16.3825C22.6158 15.3982 21.4139 14.906 19.9988 14.906C18.5836 14.906 17.3821 15.3989 16.3942 16.3847C15.4063 17.3705 14.9124 18.5781 14.9124 20.0075C14.9124 21.4185 15.4067 22.6168 16.3955 23.6026C17.3842 24.5883 18.5861 25.0812 20.0013 25.0812Z" fill="#1C1B1F"/>
</g>
</svg>
