<svg width="170" height="36" viewBox="0 0 170 36" fill="none" xmlns="http://www.w3.org/2000/svg">
<path fill-rule="evenodd" clip-rule="evenodd" d="M28.3202 25.0645C28.6054 24.0341 28.9068 23.0079 29.2082 21.9818C29.4094 21.2967 29.6107 20.6116 29.8071 19.9252C30.3575 18.0028 30.9032 16.0793 31.4489 14.1557L31.4502 14.1512L31.4506 14.1497C31.6938 13.2926 31.937 12.4355 32.1805 11.5786C32.5379 10.3212 32.8954 9.06381 33.2529 7.80648L33.2579 7.78905C33.9404 5.38883 34.6229 2.98868 35.3042 0.588312C35.3369 0.473255 35.3619 0.356318 35.3899 0.225407C35.4044 0.157319 35.4199 0.0851172 35.4376 0.00776597C35.3204 0.00776597 35.2111 0.00955019 35.1071 0.011246C34.8865 0.0148462 34.6903 0.0180479 34.4955 0.00293211C34.2136 -0.0188202 34.0145 0.0812405 33.8158 0.277012C31.8206 2.24153 29.8201 4.20072 27.8198 6.15975L26.8188 7.14012C25.7374 8.19929 24.6566 9.25889 23.5757 10.3185L23.5689 10.3251C20.8367 13.0036 18.1039 15.6825 15.3645 18.3537C13.1066 20.556 10.8347 22.7443 8.55216 24.921C7.78454 25.6528 6.99227 26.3644 6.16133 27.0222C5.31396 27.6932 4.37184 28.2326 3.31516 28.5135C2.84485 28.6382 2.36367 28.723 1.88307 28.8077C1.74721 28.8316 1.61139 28.8556 1.47588 28.8804C1.44625 28.8858 1.41622 28.8895 1.38647 28.8932C1.25701 28.9093 1.13291 28.9247 1.0708 29.0757C0.983133 29.2892 0.896166 29.503 0.798692 29.7427C0.734394 29.9008 0.665525 30.0701 0.588867 30.258C1.34019 30.2602 2.088 30.2627 2.83327 30.2651C5.70092 30.2746 8.53089 30.2839 11.3785 30.2774C11.4327 30.1041 11.5096 29.9434 11.5857 29.7842C11.703 29.5389 11.8187 29.297 11.8474 29.0177C11.738 29.0018 11.6317 28.9874 11.5277 28.9732C11.2981 28.942 11.0793 28.9122 10.8627 28.8726C10.3392 28.7769 9.82105 28.6556 9.36425 28.3661C8.90358 28.0736 8.76437 27.6937 9.01718 27.2117C9.21633 26.8323 9.48703 26.4842 9.76401 26.1541C9.97457 25.9029 10.2013 25.6653 10.4281 25.4277C10.5792 25.2694 10.7304 25.1109 10.8768 24.9485C12.3317 23.335 13.7954 21.7297 15.3761 20.235C15.6458 19.9798 15.9136 19.8802 16.2752 19.8851C17.3239 19.8986 18.3729 19.9013 19.4217 19.904C19.9025 19.9052 20.3833 19.9065 20.864 19.9087C22.3451 19.916 23.8262 19.9252 25.3073 19.9368C25.3965 19.9374 25.4858 19.9476 25.5861 19.959C25.6374 19.9649 25.6915 19.971 25.75 19.9764C25.7319 20.0444 25.7157 20.1066 25.7005 20.1649C25.6691 20.2852 25.6421 20.3887 25.6118 20.4912C25.5058 20.8476 25.4004 21.2041 25.295 21.5606C25.0177 22.4983 24.7403 23.4368 24.4531 24.3714C24.2716 24.9622 24.0796 25.5499 23.8876 26.1377L23.8872 26.1388L23.8869 26.1398C23.7699 26.498 23.6527 26.8566 23.5381 27.2156C23.3626 27.7652 22.9933 28.1253 22.4495 28.2839C21.8182 28.468 21.183 28.6493 20.5382 28.7721C20.1368 28.8486 19.7284 28.887 19.3129 28.926C19.1269 28.9435 18.9394 28.9611 18.7506 28.9824L18.2349 30.2677H29.7921C29.8371 30.1597 29.882 30.0522 29.9267 29.9452L29.9271 29.9442C30.0194 29.7235 30.111 29.5043 30.2011 29.2845C30.2196 29.2394 30.2336 29.1923 30.2502 29.1364C30.2596 29.1047 30.2699 29.0702 30.2823 29.0317C30.2369 29.0242 30.1949 29.0182 30.1553 29.0125C30.0738 29.0008 30.0025 28.9906 29.9333 28.9727C29.8469 28.9506 29.7596 28.9307 29.6721 28.9109C29.4457 28.8594 29.2189 28.8078 29.009 28.7175C28.2337 28.3835 27.8678 27.7913 27.9625 26.9546C28.0345 26.3184 28.1505 25.6804 28.3212 25.0636L28.3202 25.0645ZM26.2267 18.1454H17.5958C21.5586 14.2367 25.447 10.4112 29.3387 6.58954L29.4441 6.64851C28.7743 9.04229 28.1044 11.4361 27.4329 13.8352L26.2267 18.1454Z" fill="#545D6A"/>
<path d="M118.235 17.0804C118.16 17.0728 118.085 17.0648 118.01 17.0568C117.59 17.0123 117.169 16.9676 116.75 16.9799C115.78 17.0084 114.886 17.3531 114.059 17.8273C113.548 18.1205 113.061 18.4569 112.575 18.7933C112.373 18.9328 112.172 19.0724 111.968 19.2088C111.936 19.2304 111.905 19.2566 111.874 19.2827C111.76 19.3791 111.646 19.4756 111.457 19.349L111.449 19.3021L111.442 19.2524C111.437 19.2183 111.432 19.1841 111.428 19.1497C111.407 18.9981 111.385 18.8436 111.347 18.6935C111.112 17.761 110.25 17.0828 109.17 16.9987C107.662 16.8818 106.261 17.2361 104.978 18.0288C104.603 18.2602 104.241 18.5122 103.879 18.7642L103.878 18.7648C103.686 18.899 103.493 19.0332 103.298 19.1643C103.27 19.1829 103.243 19.2041 103.216 19.2254C103.107 19.311 102.994 19.3995 102.815 19.3407C102.792 19.266 102.77 19.1911 102.747 19.116C102.702 18.9623 102.656 18.8081 102.608 18.6548C102.325 17.7475 101.718 17.2254 100.767 17.1196C100.623 17.1036 100.478 17.0993 100.333 17.0973C99.0097 17.0791 97.7841 17.49 96.5499 17.9038L96.5331 17.9094C95.9342 18.11 95.7389 18.5388 95.5596 19.0918C95.6081 19.0863 95.6525 19.0819 95.694 19.0777C95.7773 19.0694 95.8493 19.0622 95.9202 19.0502C96.0481 19.0284 96.1756 19.0029 96.3032 18.9774C96.5546 18.9271 96.806 18.8767 97.06 18.8549C98.1728 18.7597 98.5716 19.2648 98.3115 20.2481C98.1394 20.8987 97.9171 21.5401 97.6642 22.1642C96.9569 23.911 96.2396 25.6536 95.5223 27.3963C95.2053 28.1665 94.8882 28.9368 94.572 29.7074C94.5319 29.8055 94.4965 29.9055 94.4583 30.0134C94.4403 30.064 94.4218 30.1163 94.4019 30.171H98.5856C98.6152 30.101 98.644 30.0338 98.672 29.9684C98.7239 29.8474 98.7731 29.7325 98.8205 29.617C99.1193 28.887 99.4202 28.1579 99.7212 27.4287L99.7229 27.4245L99.7235 27.4231C100.532 25.4637 101.341 23.5043 102.109 21.529C102.405 20.7667 102.876 20.249 103.541 19.8541C103.817 19.6902 104.099 19.5307 104.393 19.4036C104.885 19.1914 105.397 19.0662 105.941 19.0899C106.688 19.1222 107.036 19.5041 106.913 20.2529C106.839 20.7092 106.719 21.1679 106.548 21.5967C105.776 23.5299 104.993 25.459 104.21 27.3881C103.893 28.1708 103.575 28.9535 103.258 29.7364C103.224 29.8205 103.197 29.9075 103.168 30.0023L103.167 30.0059C103.152 30.0539 103.137 30.1039 103.119 30.1565H107.306L107.345 30.0649L107.38 29.9838C107.429 29.8689 107.476 29.76 107.52 29.6504C107.821 28.9061 108.121 28.1617 108.422 27.4173C109.264 25.3286 110.107 23.24 110.955 21.1534C111.031 20.9654 111.134 20.7653 111.281 20.6328C111.856 20.1132 112.487 19.669 113.194 19.3407C113.628 19.1401 114.075 19.0396 114.553 19.0908C115.168 19.1566 115.486 19.4969 115.482 20.1059C115.481 20.2814 115.474 20.467 115.417 20.6294L115.366 20.7735L115.319 20.9065C115.14 21.4201 114.959 21.935 114.734 22.4286C114.605 22.7112 114.473 22.9925 114.341 23.2739C113.851 24.3177 113.361 25.3619 113.021 26.4663C112.847 27.03 112.728 27.6202 112.668 28.2065C112.585 29.0094 112.988 29.5958 113.671 29.9902C114.124 30.2522 114.624 30.3716 115.146 30.3943C116.598 30.4567 117.939 30.0178 119.252 29.4677C119.358 29.4237 119.46 29.3149 119.512 29.2105C119.601 29.0311 119.675 28.844 119.761 28.629C119.797 28.5376 119.836 28.441 119.878 28.338L119.8 28.3618L119.727 28.3842L119.625 28.4157C119.489 28.4579 119.379 28.4917 119.27 28.5207C118.784 28.6488 118.299 28.7233 117.792 28.6179C117.096 28.4733 116.817 28.1408 116.919 27.4389C116.97 27.0933 117.076 26.7467 117.213 26.4243C117.428 25.9191 117.653 25.4179 117.878 24.9167C118.114 24.3907 118.35 23.8647 118.575 23.334C118.983 22.3725 119.375 21.4029 119.735 20.423C119.872 20.0518 119.954 19.6438 119.97 19.2484C120.008 18.2952 119.335 17.194 118.235 17.0819L118.235 17.0804Z" fill="#545D6A"/>
<path fill-rule="evenodd" clip-rule="evenodd" d="M155.101 17.2032C155.135 17.2018 155.172 17.2002 155.214 17.1974L155.215 17.1969C155.213 17.2068 155.212 17.2163 155.21 17.2257C155.207 17.2476 155.204 17.2682 155.202 17.2878L155.201 17.2888C155.194 17.3438 155.188 17.3907 155.171 17.4338C154.818 18.3501 154.466 19.267 154.114 20.184L154.111 20.1918L154.1 20.2222C153.075 22.8939 152.05 25.5657 150.989 28.223C150.592 29.2168 150.05 30.1638 149.487 31.0778C148.533 32.6237 147.229 33.8264 145.663 34.7574C144.587 35.3964 143.415 35.7034 142.198 35.8711C140.899 36.0499 139.596 36.0601 138.306 35.7904C137.869 35.699 137.429 35.5733 137.023 35.3901C136.168 35.0044 135.829 34.2276 136.062 33.3149C136.367 32.1176 137.843 31.2939 138.987 31.6821C139.433 31.8334 139.758 32.1369 140.032 32.5048C140.46 33.08 140.73 33.7326 140.95 34.4079C140.994 34.5426 141.036 34.6778 141.083 34.8274C141.104 34.8967 141.127 34.9691 141.151 35.0459C142.435 34.8942 143.417 34.3059 144.184 33.3565C144.927 32.4371 145.485 31.4036 145.948 30.3199C146.083 30.0038 146.208 29.6833 146.344 29.333L146.345 29.3295C146.411 29.1612 146.479 28.986 146.552 28.8011C146.481 28.8208 146.422 28.8343 146.371 28.8459C146.28 28.8668 146.217 28.8812 146.165 28.9132C146.027 28.998 145.893 29.0881 145.759 29.1782C145.586 29.2946 145.412 29.4109 145.232 29.5155C143.678 30.419 142.035 30.7646 140.276 30.2247C138.986 29.8288 138.265 28.9108 138.101 27.6033C137.884 25.8785 138.239 24.2428 139.067 22.7158C140.069 20.8678 141.459 19.3422 143.219 18.2227C144.723 17.2665 146.419 16.803 148.234 16.9722C148.607 17.007 148.978 17.0741 149.348 17.1411L149.518 17.1718C149.973 17.2535 150.36 17.486 150.714 17.7698C150.905 17.9225 151.085 17.9573 151.335 17.9061C152.265 17.7146 153.2 17.5407 154.134 17.3669C154.401 17.3173 154.667 17.2677 154.933 17.2177C154.984 17.2081 155.036 17.2059 155.101 17.2032ZM149.32 21.6494C149.486 21.2277 149.652 20.8051 149.793 20.3752C150.187 19.173 149.374 18.1009 148.115 18.1323C147.518 18.1468 146.987 18.343 146.499 18.6863C145.49 19.3968 144.739 20.3235 144.179 21.413C143.619 22.5031 143.202 23.6506 142.872 24.8262C142.764 25.2091 142.7 25.6037 142.637 25.9842C142.609 26.1528 142.582 26.3186 142.552 26.4794C142.574 26.6086 142.592 26.7323 142.61 26.8519C142.649 27.1082 142.685 27.3458 142.741 27.5781C142.858 28.0576 143.186 28.3472 143.658 28.4743C144.299 28.6469 144.936 28.6522 145.539 28.3477C145.822 28.2048 146.094 28.0405 146.366 27.8761L146.367 27.8755C146.493 27.7994 146.619 27.7232 146.747 27.6492C147.023 27.4887 147.182 27.2509 147.295 26.9488C147.722 25.8071 148.159 24.6692 148.595 23.5313C148.768 23.0802 148.941 22.6291 149.114 22.1777C149.181 22.0018 149.25 21.8264 149.319 21.6511L149.32 21.6494Z" fill="#545D6A"/>
<path fill-rule="evenodd" clip-rule="evenodd" d="M63.2859 17.7857C62.6459 17.328 61.9266 17.0829 61.1421 16.9838C59.8418 16.8195 58.5956 17.0452 57.4128 17.5402C54.4893 18.7646 52.4489 20.8731 51.3062 23.8329C50.8803 24.9365 50.6058 26.0758 50.6449 27.2678C50.6995 28.9389 51.5822 30.0739 53.1474 30.4577C54.0861 30.6878 55.0297 30.6713 55.953 30.3422C56.9763 29.9772 57.9068 29.4373 58.8069 28.8393C58.8985 28.7785 58.9911 28.7193 59.0887 28.6569L59.1685 28.6059L59.2603 28.5469C59.2998 28.6235 59.3365 28.6964 59.3717 28.7665C59.4463 28.9149 59.5146 29.0507 59.5904 29.182C59.8539 29.6393 60.1898 30.0328 60.7114 30.1918C61.4085 30.4045 62.1277 30.5041 62.8567 30.4355C63.7863 30.3481 64.6483 30.0214 65.5093 29.6951L65.5104 29.6947C65.7159 29.6168 65.9214 29.5389 66.1277 29.4643C66.2114 29.4344 66.3076 29.3677 66.3433 29.2918C66.4385 29.0918 66.522 28.8861 66.616 28.6545L66.6177 28.6504L66.6186 28.6481C66.6552 28.5581 66.6933 28.4641 66.7344 28.3651C66.6316 28.3883 66.5393 28.4111 66.4539 28.4323C66.2828 28.4746 66.1389 28.5101 65.9929 28.5285C65.8921 28.5412 65.7908 28.5562 65.6894 28.5711C65.3595 28.6199 65.0278 28.6688 64.7032 28.6426C63.9583 28.5822 63.7379 28.2602 63.8046 27.5119C63.8728 26.7514 64.1641 26.0586 64.4551 25.3667L64.461 25.3527C65.002 24.0662 65.5441 22.7802 66.0862 21.4941L66.0962 21.4702C66.6623 20.1271 67.2285 18.7838 67.7935 17.4401C67.8191 17.3797 67.8332 17.3145 67.8502 17.2361C67.8589 17.196 67.8684 17.1523 67.8805 17.1042C67.5425 17.1728 67.2079 17.2404 66.8761 17.3074C65.8694 17.5106 64.8876 17.7088 63.9085 17.9182C63.6634 17.9704 63.4865 17.9293 63.2859 17.7857ZM60.1356 25.8616L59.6721 27.0025C59.6301 27.1064 59.5866 27.2113 59.5286 27.3065C58.9872 28.194 57.3625 28.8432 56.3527 28.6087C55.7567 28.4705 55.4599 28.0925 55.3231 27.5313C55.1786 26.9372 55.2405 26.3436 55.3478 25.7606C55.6547 24.091 56.1879 22.4978 57.0652 21.0336C57.6255 20.0992 58.3361 19.2954 59.2284 18.6655C59.9278 18.1715 60.7114 18.069 61.5249 18.2957C62.2147 18.4876 62.4584 18.9004 62.4888 19.7449C62.4665 19.8331 62.4474 19.9226 62.4282 20.012C62.3871 20.2038 62.3461 20.3955 62.2742 20.5749C61.5672 22.3385 60.8517 24.0992 60.1364 25.8597L60.1356 25.8616Z" fill="#545D6A"/>
<path fill-rule="evenodd" clip-rule="evenodd" d="M136.747 28.4396C136.816 28.4202 136.89 28.3996 136.97 28.3791L136.97 28.3801L136.959 28.42C136.812 28.9517 136.689 29.3985 136.105 29.6098C135.044 29.9946 133.984 30.3591 132.848 30.4422C132.16 30.4925 131.499 30.3866 130.877 30.0893C130.249 29.7892 129.804 29.328 129.694 28.629C129.486 28.4987 129.357 28.6064 129.235 28.7087C129.212 28.7282 129.189 28.7475 129.165 28.7649C128.428 29.3164 127.63 29.7597 126.791 30.1387C125.616 30.6684 124.398 30.6278 123.196 30.3547C121.918 30.0637 121.142 29.0636 120.985 27.7314C120.845 26.5442 120.965 25.3792 121.37 24.2636C122.574 20.9529 124.772 18.5828 128.112 17.3579C129.556 16.8286 131.036 16.7552 132.507 17.2835C132.882 17.4184 133.244 17.603 133.588 17.8051C133.798 17.9279 133.982 17.9752 134.222 17.9254C135.284 17.7054 136.348 17.4974 137.412 17.2894L137.719 17.2294C137.8 17.2135 137.882 17.2086 137.982 17.2028C138.033 17.1998 138.09 17.1965 138.154 17.1912L138.12 17.2754L138.061 17.4273C138.007 17.565 137.959 17.6889 137.908 17.8118C137.585 18.5846 137.262 19.3572 136.939 20.1299L136.935 20.1395L136.923 20.1686L136.92 20.1745L136.918 20.1797C136.163 21.9852 135.408 23.7908 134.659 25.5987C134.463 26.0724 134.297 26.5611 134.152 27.0532C134.082 27.2944 134.057 27.5622 134.074 27.8136C134.113 28.3791 134.407 28.6803 134.971 28.6783C135.336 28.6772 135.701 28.6244 136.065 28.5718L136.066 28.5716C136.162 28.5577 136.258 28.5438 136.354 28.5309C136.481 28.514 136.604 28.4794 136.747 28.4396ZM130.995 24.3845C131.547 23.0514 132.099 21.7184 132.639 20.3806C133.151 19.1112 132.286 17.997 130.926 18.1454C130.879 18.1507 130.831 18.1589 130.783 18.1671C129.885 18.3237 129.17 18.8265 128.574 19.4636C127.792 20.2984 127.078 21.2052 126.681 22.2957C126.319 23.2905 126.003 24.3042 125.71 25.3222C125.619 25.6385 125.578 25.9693 125.537 26.3001C125.519 26.4493 125.5 26.5993 125.477 26.7472C125.489 26.7492 125.501 26.7506 125.514 26.7521C125.514 26.7773 125.513 26.8025 125.513 26.8279C125.512 26.8832 125.511 26.9385 125.515 26.9933C125.62 28.338 126.396 28.9012 127.72 28.6025C128.314 28.4681 128.825 28.1756 129.309 27.8194C129.574 27.6231 129.776 27.3916 129.888 27.0716C129.974 26.8251 130.077 26.5846 130.181 26.3442C130.23 26.2299 130.279 26.1157 130.327 26.0009C130.549 25.4618 130.772 24.9231 130.995 24.3845Z" fill="#545D6A"/>
<path d="M48.1003 17.0892C47.4666 16.9268 46.8136 16.9002 46.1827 17.0225C44.6881 17.312 43.251 17.7659 42.0353 18.7424C41.797 18.9338 41.5456 19.1088 41.2943 19.2828C41.2386 19.3213 41.1742 19.347 41.1034 19.3754C41.0685 19.3893 41.0319 19.4039 40.9941 19.421L40.9347 19.1713C40.8974 19.0141 40.8631 18.8696 40.8278 18.7254C40.6615 18.0492 40.254 17.5706 39.5966 17.3507C39.2056 17.2197 38.7869 17.1042 38.3799 17.1013C36.923 17.0906 35.5657 17.5547 34.2277 18.0748C34.1334 18.1115 34.0387 18.2044 33.9932 18.2957C33.9059 18.4703 33.8314 18.6515 33.7485 18.8531L33.7481 18.8541L33.7475 18.8557C33.7114 18.9435 33.6737 19.0352 33.6326 19.132C33.7007 19.1166 33.7597 19.1023 33.8127 19.0894C33.9147 19.0646 33.9955 19.045 34.0768 19.0338C34.2154 19.0147 34.3543 18.9905 34.4931 18.9664C34.8313 18.9075 35.1698 18.8485 35.5052 18.8622C36.2748 18.8937 36.5643 19.2446 36.4333 19.9953C36.3241 20.6227 36.1506 21.2511 35.9152 21.8433C35.1649 23.7292 34.3975 25.6083 33.6301 27.4876C33.3341 28.2126 33.0378 28.9381 32.7427 29.6635C32.699 29.7711 32.6599 29.8805 32.6158 30.004L32.6151 30.006C32.594 30.0649 32.5718 30.1271 32.5474 30.1938C32.622 30.1938 32.6899 30.194 32.7536 30.1942L32.7548 30.1942C32.8712 30.1946 32.9732 30.195 33.0753 30.1938C33.5404 30.1869 34.0055 30.1796 34.4706 30.1724L34.4718 30.1724C35.0526 30.1633 35.6334 30.1542 36.2144 30.1459L36.2158 30.1459C36.493 30.142 36.6311 30.1401 36.7258 30.0751C36.8197 30.0105 36.871 29.8839 36.9732 29.6315L37.3539 28.6902C38.385 26.1407 39.416 23.5911 40.4537 21.0442C40.5238 20.8726 40.6311 20.6923 40.7708 20.5763C41.418 20.0393 42.1213 19.5796 42.9228 19.3118C43.2979 19.1866 43.7054 19.1097 44.0998 19.1015C44.8926 19.0856 45.2527 19.5008 45.1488 20.295C45.0951 20.7054 44.9955 21.1201 44.8447 21.5049C44.64 22.0269 44.4132 22.5402 44.1863 23.0537C44.0689 23.3195 43.9513 23.5856 43.8369 23.8527C43.7543 24.0455 43.6711 24.2381 43.5879 24.4307L43.5875 24.4316C43.3012 25.0943 43.0148 25.7572 42.7531 26.4296C42.5375 26.9836 42.3983 27.5632 42.4032 28.1693C42.4109 29.1617 42.9658 29.926 43.9249 30.2131C44.5494 30.4002 45.1981 30.4756 45.8333 30.3344C46.6782 30.1469 47.5164 29.9163 48.3425 29.6577C49.169 29.3987 49.1815 29.369 49.5015 28.6135L49.5258 28.5561C49.5377 28.5281 49.5447 28.4981 49.5534 28.4606C49.5583 28.4398 49.5637 28.4166 49.5708 28.3903C49.3851 28.4216 49.2046 28.4562 49.0273 28.4902C48.6461 28.5632 48.2802 28.6334 47.9113 28.6614C46.9069 28.7373 46.4592 28.2211 46.6811 27.2393C46.7899 26.7579 46.9687 26.2861 47.166 25.8312C47.501 25.0602 47.845 24.2931 48.189 23.526L48.1897 23.5245C48.4901 22.8545 48.7906 22.1846 49.085 21.5122C49.389 20.818 49.6114 20.0973 49.6771 19.3345C49.768 18.2856 49.1188 17.3517 48.0989 17.0902L48.1003 17.0892Z" fill="#545D6A"/>
<path fill-rule="evenodd" clip-rule="evenodd" d="M89.0987 16.9103C89.9852 16.9669 90.8616 17.0757 91.6959 17.3981C93.4487 18.0758 94.5663 19.7314 94.3028 21.7268C93.8813 24.9186 92.2441 27.365 89.4496 28.9979C87.679 30.0323 85.7575 30.5616 83.7031 30.5911C82.8065 30.6153 81.9359 30.4809 81.0992 30.1614C79.2106 29.4406 78.108 27.6454 78.4188 25.6422C78.8239 23.031 80.0371 20.8243 82.1094 19.174C83.5243 18.0473 85.1934 17.3966 86.9887 17.1037L87.1126 17.0834C87.7697 16.9755 88.4265 16.8676 89.0987 16.9103ZM88.0241 26.6095C88.8406 25.082 89.3931 23.4549 89.7885 21.7756L89.7875 21.7751C89.8892 21.3425 89.9531 20.9008 90.0146 20.4763C90.0417 20.2893 90.0683 20.1057 90.0974 19.9276C90.0813 19.8103 90.0685 19.699 90.0562 19.5922C90.0303 19.3671 90.0066 19.1616 89.9601 18.9613C89.8127 18.3238 89.4467 18.0129 88.7942 17.9153C87.8472 17.7737 87.054 18.1062 86.3521 18.7071C85.657 19.3021 85.1475 20.0451 84.7168 20.8417C83.8399 22.4635 83.199 24.1775 82.8084 25.9786C82.6416 26.7482 82.529 27.5289 82.6682 28.324C82.8427 29.3222 83.4745 29.7921 84.4785 29.6751C85.3752 29.5707 86.0742 29.1124 86.6871 28.4922C87.2348 27.9383 87.6587 27.293 88.0241 26.6095Z" fill="#545D6A"/>
<path fill-rule="evenodd" clip-rule="evenodd" d="M169.394 18.9468C169.356 18.4939 169.154 18.156 168.813 17.8833C168.392 17.5459 167.909 17.325 167.39 17.196C165.715 16.7812 164.035 16.7749 162.388 17.2965C158.264 18.6026 155.725 21.3439 154.962 25.6397C154.673 27.2683 155.485 28.9838 156.902 29.7959C158.302 30.5988 159.835 30.7863 161.388 30.5297C163.78 30.1347 165.794 28.9727 167.483 27.2426C167.54 27.1847 167.591 27.1221 167.647 27.0549C167.675 27.0212 167.703 26.9862 167.734 26.9502C167.489 26.7201 167.268 26.5137 167.033 26.2938C166.989 26.332 166.949 26.3684 166.91 26.4032C166.832 26.4731 166.761 26.5367 166.687 26.5964C166.558 26.7001 166.43 26.8048 166.302 26.9095C165.969 27.1811 165.637 27.4527 165.291 27.7067C164.143 28.5507 162.818 28.7527 161.442 28.6735C160.48 28.6184 159.868 28.1311 159.661 27.3147C159.452 26.4939 159.468 25.6639 159.638 24.788C159.716 24.7775 159.793 24.7672 159.869 24.757L160.054 24.7323C160.403 24.6858 160.735 24.6415 161.067 24.5942C162.708 24.3597 164.327 24.0402 165.892 23.4679C166.884 23.1054 167.718 22.5263 168.44 21.7751C169.198 20.9857 169.486 20.0334 169.394 18.9468ZM165.108 20.6817C164.817 21.8133 164.144 22.62 163.065 23.0933C162.17 23.4863 161.226 23.6593 160.262 23.755C160.193 23.7618 160.122 23.7567 160.03 23.7501C159.978 23.7463 159.919 23.742 159.849 23.7391C159.873 23.6337 159.892 23.5351 159.91 23.4417C159.947 23.2544 159.98 23.0876 160.033 22.927C160.479 21.5542 161.115 20.2751 162.011 19.1411C162.286 18.7936 162.632 18.4856 162.995 18.2299C163.232 18.0632 163.553 17.9684 163.846 17.937C164.558 17.8601 164.961 18.1719 165.148 18.8694C165.311 19.4775 165.263 20.0818 165.108 20.6817Z" fill="#545D6A"/>
<path d="M79.9835 18.2731C79.911 18.4524 79.8388 18.6306 79.7635 18.8168L79.7626 18.8163H77.7841C77.6754 18.8163 77.5666 18.8184 77.4578 18.8205C77.2119 18.8252 76.9661 18.8299 76.7221 18.8105C76.3639 18.7815 76.1754 18.9086 76.04 19.2504C75.3938 20.8832 74.7309 22.51 74.0681 24.1365C73.9729 24.3701 73.8778 24.6037 73.7826 24.8374C73.7016 25.0361 73.6151 25.2327 73.5287 25.4293C73.4017 25.7182 73.2747 26.0071 73.1649 26.3025C73.0256 26.6771 72.8966 27.0648 72.8395 27.4578C72.7235 28.2607 73.1059 28.7373 73.9296 28.7624C74.3609 28.7756 74.795 28.722 75.2281 28.6685C75.3697 28.651 75.5111 28.6335 75.6524 28.6184C75.7974 28.6029 75.9403 28.5705 76.1068 28.5326C76.1901 28.5138 76.2792 28.4935 76.3774 28.4734C76.334 28.5732 76.2949 28.6674 76.2577 28.757C76.1714 28.9647 76.0953 29.1479 75.9994 29.3198C75.9458 29.4165 75.8085 29.4851 75.6949 29.5267C75.6354 29.5484 75.5759 29.5702 75.5164 29.592C74.5497 29.9463 73.5815 30.3011 72.5524 30.4354C71.8317 30.5292 71.11 30.5505 70.3917 30.3992C68.8806 30.0811 68.2329 29.1221 68.548 27.6192C68.6399 27.1813 68.781 26.7487 68.9478 26.3329C69.5856 24.7417 70.2306 23.1531 70.8755 21.5646C71.1736 20.8306 71.4716 20.0967 71.7688 19.3625C71.8108 19.259 71.846 19.1525 71.8865 19.03C71.908 18.9649 71.931 18.8953 71.9574 18.8192H69.6579C69.6999 18.7041 69.7389 18.5929 69.7767 18.4851C69.875 18.205 69.9653 17.9474 70.0809 17.7016C70.1248 17.6074 70.3109 17.5382 70.4357 17.531C70.7919 17.5106 71.1494 17.5078 71.5066 17.5051C71.6161 17.5042 71.7256 17.5033 71.8351 17.502C71.9978 17.5 72.1604 17.5005 72.3351 17.501C72.4184 17.5012 72.5043 17.5015 72.5945 17.5015C72.8484 16.9067 73.1005 16.3158 73.3517 15.7273C73.6619 15.0004 73.9705 14.2772 74.2791 13.5547H78.3429C78.1361 14.069 77.9325 14.5754 77.7292 15.081C77.4093 15.8767 77.0902 16.6701 76.7612 17.4889C77.5097 17.5373 78.2382 17.5413 78.9757 17.5453C79.4028 17.5476 79.8329 17.55 80.2716 17.561C80.1698 17.8127 80.0763 18.0438 79.9835 18.2731Z" fill="#545D6A"/>
</svg>
