<svg width="64" height="64" viewBox="0 0 64 64" fill="none" xmlns="http://www.w3.org/2000/svg">
<mask id="mask0_68_2253" style="mask-type:alpha" maskUnits="userSpaceOnUse" x="0" y="0" width="64" height="64">
<rect width="64" height="64" fill="#D9D9D9"/>
</mask>
<g mask="url(#mask0_68_2253)">
<path d="M32.1318 51.6667C26.7096 51.6667 22.0651 49.7445 18.1984 45.9C14.3318 42.0556 12.3984 37.4445 12.3984 32.0667V26.6L6.59844 32.4667C6.4651 32.6 6.30955 32.6667 6.13177 32.6667C5.95399 32.6667 5.77622 32.6 5.59844 32.4667C5.4651 32.2889 5.39844 32.1111 5.39844 31.9333C5.39844 31.7556 5.4651 31.6 5.59844 31.4667L11.8651 25.1333C12.2651 24.7778 12.6984 24.6 13.1651 24.6C13.6318 24.6 14.0429 24.7778 14.3984 25.1333L20.7318 31.4667C20.8651 31.6 20.9318 31.7556 20.9318 31.9333C20.9318 32.1111 20.8651 32.2667 20.7318 32.4C20.554 32.5778 20.3762 32.6667 20.1984 32.6667C20.0207 32.6667 19.8651 32.5778 19.7318 32.4L13.8651 26.6V32.0667C13.8651 37.0889 15.6429 41.3667 19.1984 44.9C22.754 48.4333 27.0651 50.2 32.1318 50.2C33.0651 50.2 34.0096 50.1222 34.9651 49.9667C35.9207 49.8111 36.8651 49.5778 37.7984 49.2667C37.9762 49.2222 38.1651 49.2445 38.3651 49.3333C38.5651 49.4222 38.6873 49.5556 38.7318 49.7333C38.7762 49.9111 38.754 50.0778 38.6651 50.2333C38.5762 50.3889 38.4429 50.5111 38.2651 50.6C37.2429 50.9556 36.2207 51.2222 35.1984 51.4C34.1762 51.5778 33.154 51.6667 32.1318 51.6667ZM31.9318 13.9333C30.9984 13.9333 30.0429 14 29.0651 14.1333C28.0873 14.2667 27.154 14.4889 26.2651 14.8C26.0429 14.8889 25.8429 14.8889 25.6651 14.8C25.4873 14.7111 25.354 14.5556 25.2651 14.3333C25.2207 14.1556 25.2318 13.9778 25.2984 13.8C25.3651 13.6222 25.5095 13.4889 25.7318 13.4C26.7095 13.0889 27.7207 12.8556 28.7651 12.7C29.8095 12.5445 30.8651 12.4667 31.9318 12.4667C37.354 12.4667 41.9873 14.3778 45.8318 18.2C49.6762 22.0222 51.5984 26.6445 51.5984 32.0667V37.4L57.4651 31.6C57.554 31.4667 57.6873 31.3889 57.8651 31.3667C58.0429 31.3445 58.2207 31.4222 58.3984 31.6C58.5762 31.7778 58.6651 31.9445 58.6651 32.1C58.6651 32.2556 58.5762 32.4222 58.3984 32.6L52.1318 38.8667C51.7762 39.2222 51.354 39.4 50.8651 39.4C50.3762 39.4 49.954 39.2222 49.5984 38.8667L43.3318 32.6C43.1984 32.4667 43.1207 32.3111 43.0984 32.1333C43.0762 31.9556 43.154 31.7778 43.3318 31.6C43.5096 31.4222 43.6762 31.3333 43.8318 31.3333C43.9873 31.3333 44.154 31.4222 44.3318 31.6L50.1318 37.4V32.0667C50.1318 27.0445 48.354 22.7667 44.7984 19.2333C41.2429 15.7 36.954 13.9333 31.9318 13.9333Z" fill="#1C1B1F"/>
</g>
</svg>
