<svg width="32" height="32" viewBox="0 0 32 32" fill="none" xmlns="http://www.w3.org/2000/svg">
<mask id="mask0_68_1717" style="mask-type:alpha" maskUnits="userSpaceOnUse" x="0" y="0" width="32" height="32">
<rect width="32" height="32" fill="#D9D9D9"/>
</mask>
<g mask="url(#mask0_68_1717)">
<path d="M12.645 23.4112C12.4969 23.4112 12.3599 23.3871 12.2339 23.339C12.108 23.2909 11.9858 23.2075 11.8673 23.089L5.93395 17.1557C5.71913 16.9409 5.61357 16.6723 5.61728 16.3501C5.62099 16.0279 5.73025 15.7594 5.94505 15.5445C6.15987 15.3297 6.41913 15.2223 6.72282 15.2223C7.02653 15.2223 7.28579 15.3297 7.50062 15.5445L12.645 20.689L24.4784 8.85568C24.6932 8.64086 24.958 8.53345 25.2728 8.53345C25.5876 8.53345 25.8525 8.64086 26.0673 8.85568C26.2821 9.07048 26.3895 9.33529 26.3895 9.65011C26.3895 9.96491 26.2821 10.2297 26.0673 10.4445L13.4228 23.089C13.3043 23.2075 13.1821 23.2909 13.0562 23.339C12.9302 23.3871 12.7932 23.4112 12.645 23.4112Z" fill="#1C1B1F"/>
</g>
</svg>
