<svg width="64" height="64" viewBox="0 0 64 64" fill="none" xmlns="http://www.w3.org/2000/svg">
<mask id="mask0_2140_2456" style="mask-type:alpha" maskUnits="userSpaceOnUse" x="-1" y="0" width="65" height="64">
<rect x="-0.000488281" width="64" height="64" fill="#D9D9D9"/>
</mask>
<g mask="url(#mask0_2140_2456)">
<path d="M21.0662 43.5999H34.7329C34.9429 43.5999 35.1176 43.5289 35.257 43.387C35.3965 43.2451 35.4662 43.0673 35.4662 42.8537C35.4662 42.64 35.3965 42.4666 35.257 42.3332C35.1176 42.1999 34.9429 42.1332 34.7329 42.1332H21.0662C20.8562 42.1332 20.6815 42.2042 20.5421 42.3461C20.4026 42.488 20.3329 42.6658 20.3329 42.8794C20.3329 43.0931 20.4026 43.2666 20.5421 43.3999C20.6815 43.5332 20.8562 43.5999 21.0662 43.5999ZM21.0662 32.7332H42.9329C43.1429 32.7332 43.3176 32.6623 43.457 32.5204C43.5965 32.3784 43.6662 32.2007 43.6662 31.987C43.6662 31.7734 43.5965 31.5999 43.457 31.4666C43.3176 31.3332 43.1429 31.2666 42.9329 31.2666H21.0662C20.8562 31.2666 20.6815 31.3375 20.5421 31.4794C20.4026 31.6213 20.3329 31.7991 20.3329 32.0128C20.3329 32.2264 20.4026 32.3999 20.5421 32.5332C20.6815 32.6666 20.8562 32.7332 21.0662 32.7332ZM21.0662 21.8666H42.9329C43.1429 21.8666 43.3176 21.7956 43.457 21.6537C43.5965 21.5118 43.6662 21.334 43.6662 21.1204C43.6662 20.9067 43.5965 20.7332 43.457 20.5999C43.3176 20.4666 43.1429 20.3999 42.9329 20.3999H21.0662C20.8562 20.3999 20.6815 20.4708 20.5421 20.6128C20.4026 20.7547 20.3329 20.9324 20.3329 21.1461C20.3329 21.3597 20.4026 21.5332 20.5421 21.6666C20.6815 21.7999 20.8562 21.8666 21.0662 21.8666ZM15.0662 52.5332C14.054 52.5332 13.2009 52.1863 12.5071 51.4924C11.8131 50.7985 11.4662 49.9454 11.4662 48.9332V15.0666C11.4662 14.0543 11.8131 13.2013 12.5071 12.5074C13.2009 11.8135 14.054 11.4666 15.0662 11.4666H48.9329C49.9451 11.4666 50.7981 11.8135 51.4921 12.5074C52.1859 13.2013 52.5329 14.0543 52.5329 15.0666V48.9332C52.5329 49.9454 52.1859 50.7985 51.4921 51.4924C50.7981 52.1863 49.9451 52.5332 48.9329 52.5332H15.0662ZM15.0662 51.0666H48.9329C49.4662 51.0666 49.9551 50.8443 50.3995 50.3999C50.844 49.9554 51.0662 49.4666 51.0662 48.9332V15.0666C51.0662 14.5332 50.844 14.0443 50.3995 13.5999C49.9551 13.1554 49.4662 12.9332 48.9329 12.9332H15.0662C14.5329 12.9332 14.044 13.1554 13.5995 13.5999C13.1551 14.0443 12.9329 14.5332 12.9329 15.0666V48.9332C12.9329 49.4666 13.1551 49.9554 13.5995 50.3999C14.044 50.8443 14.5329 51.0666 15.0662 51.0666Z" fill="#9863F3"/>
</g>
</svg>
