<svg width="158" height="48" viewBox="0 0 158 48" fill="none" xmlns="http://www.w3.org/2000/svg">
<path d="M12.1914 15.5641V0H0.176322V22.0048C1.49078 20.0247 3.27594 18.4003 5.37247 17.2764C7.46901 16.1526 9.81169 15.5643 12.1914 15.5641Z" fill="#545D6A"/>
<path d="M53.4219 35.9228C52.7902 35.925 52.1832 35.6782 51.733 35.236C51.2828 34.7937 51.0258 34.1919 51.018 33.5615V0H38.9393V35.9693C38.9426 39.1583 40.213 42.2157 42.4718 44.4711C44.7306 46.7264 47.7934 47.9955 50.9883 48H69.0025V35.9312L53.4219 35.9228Z" fill="#545D6A"/>
<path d="M36.5353 32.4231H24.516V47.9873H36.5353V32.4231Z" fill="#545D6A"/>
<path d="M24.516 0.00427414H36.5353V15.5642H24.516V0.00427414Z" fill="#545D6A"/>
<path d="M3.67506 21.4924C5.93384 19.2371 8.99659 17.968 12.1915 17.9635H36.527V30.045H14.6293C14.0027 30.0448 13.4007 30.2888 12.9516 30.7252C12.5026 31.1615 12.242 31.7556 12.2255 32.3809V47.9873H0.142517V29.9942C0.145882 26.8052 1.41628 23.7478 3.67506 21.4924Z" fill="#545D6A"/>
<path d="M78.5459 0V8.31526H85.8084V0H90.5653V21.6197H85.8084V12.9024H78.5459V21.6197H73.7891V0H78.5459Z" fill="#545D6A"/>
<path fill-rule="evenodd" clip-rule="evenodd" d="M100.329 18.8099C99.1167 18.8099 98.1868 18.4967 97.5395 17.8704C96.8951 17.2484 96.539 16.2412 96.4796 14.8617H107.782C107.864 13.6934 107.761 12.5197 107.477 11.3833C107.213 10.3166 106.745 9.3108 106.099 8.42108C105.459 7.55071 104.624 6.84086 103.662 6.34755C102.588 5.80594 101.4 5.53016 100.198 5.54353C99.0804 5.5305 97.9721 5.74654 96.9417 6.17829C95.9853 6.58047 95.1219 7.17451 94.405 7.92356C93.6881 8.6726 93.133 9.56067 92.7742 10.5327C92.3859 11.5778 92.1919 12.6849 92.2018 13.7996C92.1897 14.9326 92.3792 16.0588 92.7615 17.1257C93.1081 18.091 93.6491 18.9753 94.3513 19.7239C95.0546 20.4657 95.913 21.0436 96.8654 21.4166C97.9287 21.8222 99.0596 22.0218 100.198 22.0048C101.79 22.052 103.362 21.6359 104.721 20.8072C105.971 20.0004 106.899 18.6589 107.507 16.7829H103.721C103.505 17.3591 103.098 17.8443 102.568 18.1582C101.908 18.6032 101.125 18.8311 100.329 18.8099ZM100.058 8.80193C101.105 8.80193 101.889 9.08122 102.402 9.64827C102.989 10.3536 103.368 11.2077 103.496 12.1153H96.4966C96.5248 11.7663 96.5917 11.4214 96.6958 11.087C96.814 10.6887 97.01 10.3177 97.2724 9.99527C97.5723 9.64014 97.9435 9.35181 98.362 9.14893C98.8927 8.9035 99.4733 8.7847 100.058 8.80193Z" fill="#545D6A"/>
<path fill-rule="evenodd" clip-rule="evenodd" d="M110.144 8.28555C110.58 7.62963 111.16 7.08122 111.84 6.68174C112.559 6.27092 113.343 5.98476 114.159 5.83541C115.011 5.66286 115.879 5.57638 116.749 5.57727C117.549 5.57718 118.348 5.63233 119.14 5.74231C119.907 5.84396 120.654 6.0638 121.353 6.39399C122 6.70138 122.561 7.16366 122.986 7.73967C123.439 8.41158 123.664 9.21135 123.626 10.0205V18.1454C123.623 18.8214 123.663 19.497 123.745 20.1681C123.783 20.6762 123.927 21.1707 124.169 21.6196H119.806C119.726 21.3769 119.661 21.1296 119.611 20.879C119.559 20.6249 119.523 20.3676 119.505 20.1089C118.839 20.8041 118.003 21.3145 117.08 21.59C116.157 21.872 115.196 22.0146 114.231 22.0131C113.526 22.0185 112.825 21.9274 112.145 21.7423C111.529 21.5764 110.952 21.2886 110.449 20.896C109.963 20.5137 109.573 20.0241 109.309 19.4657C109.016 18.8095 108.872 18.0974 108.885 17.3794C108.855 16.6215 109.016 15.8682 109.351 15.1874C109.643 14.6412 110.058 14.1703 110.564 13.8121C111.079 13.4582 111.653 13.1976 112.259 13.042C112.891 12.8649 113.532 12.7237 114.18 12.6188C114.829 12.5172 115.452 12.4368 116.092 12.3776C116.653 12.3276 117.21 12.2371 117.758 12.1068C118.175 12.0149 118.567 11.8345 118.907 11.5778C119.051 11.4537 119.163 11.2962 119.231 11.1191C119.3 10.942 119.324 10.7508 119.301 10.5622C119.32 10.1807 119.241 9.80077 119.073 9.45773C118.93 9.19666 118.721 8.97773 118.466 8.82298C118.196 8.6668 117.898 8.56474 117.589 8.52253C117.232 8.4718 116.872 8.44634 116.512 8.44636C115.805 8.40814 115.105 8.59806 114.515 8.98801C114.253 9.21339 114.042 9.49179 113.896 9.80476C113.749 10.1177 113.671 10.4581 113.667 10.8034H109.385C109.409 9.91162 109.671 9.04235 110.144 8.28555ZM118.623 14.3496C118.335 14.4425 118.042 14.5188 117.746 14.5781C117.432 14.6373 117.105 14.6881 116.762 14.7262C116.419 14.7643 116.075 14.8193 115.732 14.8785C115.407 14.9379 115.087 15.0185 114.774 15.1197C114.48 15.2136 114.205 15.3567 113.96 15.5429C113.725 15.7136 113.532 15.9349 113.396 16.1903C113.247 16.5017 113.176 16.8443 113.188 17.189C113.176 17.5242 113.247 17.8572 113.396 18.1581C113.531 18.4105 113.73 18.6235 113.972 18.7759C114.231 18.9359 114.52 19.0437 114.82 19.0933C115.149 19.154 115.482 19.1852 115.817 19.1864C116.5 19.2243 117.181 19.0782 117.788 18.7632C118.212 18.5175 118.567 18.168 118.818 17.7476C119.035 17.3805 119.179 16.9754 119.242 16.5543C119.289 16.2333 119.314 15.9095 119.318 15.5852V13.9645C119.122 14.1384 118.891 14.2696 118.64 14.3496H118.623Z" fill="#545D6A"/>
<path d="M130.325 21.6197V0H126.021V21.6197H130.325Z" fill="#545D6A"/>
<path d="M141.564 5.54351V8.86115H138.414V16.6009C138.414 17.3287 138.532 17.8112 138.774 18.0524C139.016 18.2936 139.503 18.4163 140.228 18.4163C140.462 18.4217 140.696 18.4118 140.928 18.3867C141.14 18.3655 141.352 18.3359 141.564 18.2936V21.6197C141.163 21.6859 140.758 21.7269 140.351 21.7424C140.139 21.7424 139.92 21.7498 139.701 21.7572C139.481 21.7646 139.262 21.772 139.05 21.772C138.416 21.7736 137.782 21.7283 137.155 21.6366C136.602 21.5608 136.068 21.3813 135.582 21.1076C135.123 20.8439 134.749 20.4548 134.505 19.9862C134.217 19.3941 134.081 18.7396 134.111 18.082V8.86115H131.503V5.54351H134.115V0H138.418V5.54351H141.564Z" fill="#545D6A"/>
<path d="M147.465 8.16715V0H143.162V21.6197H147.465V13.4271C147.465 11.836 147.728 10.6892 148.254 9.99524C148.78 9.30124 149.628 8.95001 150.798 8.95001C151.828 8.95001 152.553 9.26316 152.952 9.90214C153.35 10.5411 153.554 11.5017 153.554 12.7924V21.6197H157.857V12.0053C157.866 11.117 157.779 10.2302 157.598 9.36049C157.458 8.62567 157.153 7.9324 156.704 7.33351C156.25 6.75432 155.65 6.30596 154.965 6.03438C154.061 5.69094 153.096 5.53124 152.129 5.56467C151.265 5.57863 150.417 5.79152 149.649 6.18672C148.77 6.62351 148.041 7.31333 147.559 8.16715H147.465Z" fill="#545D6A"/>
<path d="M78.5459 26.3972V43.5144H89.0857V47.9872H73.7891V26.4057L78.5459 26.3972Z" fill="#545D6A"/>
<path d="M90.9598 26.4142V30.6459H95.2631V26.4142H90.9598Z" fill="#545D6A"/>
<path d="M95.2631 47.9958V32.3385H90.9598V47.9958H95.2631Z" fill="#545D6A"/>
<path d="M101.987 32.3513V34.5306H102.076C102.567 33.6724 103.305 32.9821 104.196 32.5502C105.025 32.1441 105.935 31.9314 106.858 31.9281C107.826 31.8947 108.79 32.0544 109.695 32.3978C110.377 32.6729 110.976 33.1206 111.433 33.6969C111.878 34.2982 112.183 34.9905 112.327 35.7239C112.509 36.5937 112.595 37.4804 112.586 38.3687V47.9873H108.287V39.1558C108.287 37.8666 108.086 36.9046 107.685 36.2698C107.284 35.6351 106.566 35.3177 105.531 35.3177C104.361 35.3177 103.513 35.6647 102.987 36.3587C102.462 37.0527 102.199 38.1995 102.199 39.7906V47.9873H97.8999V32.3513H101.987Z" fill="#545D6A"/>
<path d="M119.204 37.9751V26.3972L114.901 26.4057V47.9872H119.204V42.6045L120.87 41.0007L125.174 47.9745H130.38L123.808 38.0851L129.714 32.3512H124.627L119.204 37.9751Z" fill="#545D6A"/>
</svg>
