<svg width="64" height="64" viewBox="0 0 64 64" fill="none" xmlns="http://www.w3.org/2000/svg">
<mask id="mask0_68_2267" style="mask-type:alpha" maskUnits="userSpaceOnUse" x="0" y="0" width="64" height="64">
<rect width="64" height="64" fill="#D9D9D9"/>
</mask>
<g mask="url(#mask0_68_2267)">
<path d="M7.78454 13.7334C7.57245 13.7334 7.39974 13.6631 7.26641 13.5226C7.13307 13.382 7.06641 13.2078 7.06641 13V6.06669C7.06641 5.59447 7.22614 5.19865 7.54561 4.87922C7.86503 4.55976 8.26085 4.40002 8.73307 4.40002H15.7331C15.8975 4.40002 16.0609 4.47176 16.2231 4.61523C16.3853 4.75869 16.4664 4.93647 16.4664 5.14856C16.4664 5.36065 16.3853 5.53336 16.2231 5.66669C16.0609 5.80002 15.8975 5.86669 15.7331 5.86669H8.53307V13C8.53307 13.2078 8.46134 13.382 8.31787 13.5226C8.17441 13.6631 7.99663 13.7334 7.78454 13.7334ZM56.1845 13.7334C55.9725 13.7334 55.7997 13.6631 55.6664 13.5226C55.5331 13.382 55.4664 13.2078 55.4664 13V5.86669H48.3331C48.1253 5.86669 47.9511 5.79496 47.8105 5.65149C47.67 5.50802 47.5997 5.33024 47.5997 5.11816C47.5997 4.90607 47.67 4.73336 47.8105 4.60002C47.9511 4.46669 48.1253 4.40002 48.3331 4.40002H55.2664C55.7386 4.40002 56.1345 4.55976 56.4539 4.87922C56.7733 5.19865 56.9331 5.59447 56.9331 6.06669V13C56.9331 13.2078 56.8613 13.382 56.7179 13.5226C56.5744 13.6631 56.3966 13.7334 56.1845 13.7334ZM8.73307 59.6C8.26085 59.6 7.86503 59.4403 7.54561 59.1208C7.22614 58.8014 7.06641 58.4056 7.06641 57.9334V50.9334C7.06641 50.7689 7.13814 50.6056 7.28161 50.4434C7.42507 50.2811 7.60285 50.2 7.81494 50.2C8.02703 50.2 8.19974 50.2811 8.33307 50.4434C8.46641 50.6056 8.53307 50.7689 8.53307 50.9334V58.1334H15.7331C15.8975 58.1334 16.0609 58.2051 16.2231 58.3486C16.3853 58.492 16.4664 58.6698 16.4664 58.8819C16.4664 59.094 16.3853 59.2667 16.2231 59.4C16.0609 59.5334 15.8975 59.6 15.7331 59.6H8.73307ZM48.3331 59.6C48.1253 59.6 47.9511 59.5283 47.8105 59.3848C47.67 59.2414 47.5997 59.0636 47.5997 58.8515C47.5997 58.6394 47.67 58.4667 47.8105 58.3334C47.9511 58.2 48.1253 58.1334 48.3331 58.1334H55.4664V50.9334C55.4664 50.7689 55.5381 50.6056 55.6816 50.4434C55.8251 50.2811 56.0029 50.2 56.2149 50.2C56.427 50.2 56.5997 50.2811 56.7331 50.4434C56.8664 50.6056 56.9331 50.7689 56.9331 50.9334V57.9334C56.9331 58.4056 56.7733 58.8014 56.4539 59.1209C56.1345 59.4403 55.7386 59.6 55.2664 59.6H48.3331ZM16.5331 48C16.5331 48.5334 16.7553 49.0222 17.1997 49.4667C17.6442 49.9111 18.1331 50.1334 18.6664 50.1334H45.3331C45.8664 50.1334 46.3553 49.9111 46.7997 49.4667C47.2442 49.0222 47.4664 48.5334 47.4664 48V16C47.4664 15.4667 47.2442 14.9778 46.7997 14.5334C46.3553 14.0889 45.8664 13.8667 45.3331 13.8667H18.6664C18.1331 13.8667 17.6442 14.0889 17.1997 14.5334C16.7553 14.9778 16.5331 15.4667 16.5331 16V48ZM18.6664 51.6C17.6542 51.6 16.8011 51.2531 16.1073 50.5592C15.4134 49.8653 15.0664 49.0122 15.0664 48V16C15.0664 14.9878 15.4134 14.1347 16.1073 13.4408C16.8011 12.747 17.6542 12.4 18.6664 12.4H45.3331C46.3453 12.4 47.1984 12.747 47.8923 13.4408C48.5861 14.1347 48.9331 14.9878 48.9331 16V48C48.9331 49.0122 48.5861 49.8653 47.8923 50.5592C47.1984 51.2531 46.3453 51.6 45.3331 51.6H18.6664ZM26.6664 24.7334H37.3331C37.5409 24.7334 37.715 24.6616 37.8556 24.5182C37.9961 24.3747 38.0664 24.1969 38.0664 23.9848C38.0664 23.7727 37.9961 23.6 37.8556 23.4667C37.715 23.3334 37.5409 23.2667 37.3331 23.2667H26.6664C26.4586 23.2667 26.2845 23.3384 26.1439 23.4819C26.0033 23.6254 25.9331 23.8031 25.9331 24.0152C25.9331 24.2273 26.0033 24.4 26.1439 24.5334C26.2845 24.6667 26.4586 24.7334 26.6664 24.7334ZM26.6664 32.7334H37.3331C37.5409 32.7334 37.715 32.6616 37.8556 32.5182C37.9961 32.3747 38.0664 32.1969 38.0664 31.9848C38.0664 31.7727 37.9961 31.6 37.8556 31.4667C37.715 31.3334 37.5409 31.2667 37.3331 31.2667H26.6664C26.4586 31.2667 26.2845 31.3384 26.1439 31.4819C26.0033 31.6254 25.9331 31.8031 25.9331 32.0152C25.9331 32.2273 26.0033 32.4 26.1439 32.5334C26.2845 32.6667 26.4586 32.7334 26.6664 32.7334ZM26.6664 40.7334H37.3331C37.5409 40.7334 37.715 40.6616 37.8556 40.5182C37.9961 40.3747 38.0664 40.1969 38.0664 39.9848C38.0664 39.7727 37.9961 39.6 37.8556 39.4667C37.715 39.3334 37.5409 39.2667 37.3331 39.2667H26.6664C26.4586 39.2667 26.2845 39.3384 26.1439 39.4819C26.0033 39.6254 25.9331 39.8031 25.9331 40.0152C25.9331 40.2273 26.0033 40.4 26.1439 40.5334C26.2845 40.6667 26.4586 40.7334 26.6664 40.7334ZM16.5331 48V13.8667V50.1334V48Z" fill="#1C1B1F"/>
</g>
</svg>
