<svg width="41" height="40" viewBox="0 0 41 40" fill="none" xmlns="http://www.w3.org/2000/svg">
<mask id="mask0_2011_2954" style="mask-type:alpha" maskUnits="userSpaceOnUse" x="0" y="0" width="41" height="40">
<rect x="0.333496" width="40" height="40" fill="#D9D9D9"/>
</mask>
<g mask="url(#mask0_2011_2954)">
<path d="M20.3335 35C18.2346 35 16.2697 34.6106 14.4388 33.8318C12.6079 33.0529 11.0221 31.9931 9.68125 30.6523C8.34044 29.3114 7.28061 27.7256 6.50175 25.8947C5.72291 24.0637 5.3335 22.0989 5.3335 20C5.3335 17.8919 5.72291 15.9248 6.50175 14.0984C7.28061 12.2721 8.34044 10.6886 9.68125 9.34775C11.0221 8.00695 12.6079 6.94711 14.4388 6.16825C16.2697 5.38942 18.2346 5 20.3335 5C22.4416 5 24.4087 5.38942 26.2351 6.16825C28.0614 6.94711 29.6449 8.00695 30.9857 9.34775C32.3266 10.6886 33.3864 12.2721 34.1652 14.0984C34.9441 15.9248 35.3335 17.8919 35.3335 20V21.5705C35.3335 22.9608 34.8568 24.1286 33.9035 25.0737C32.9501 26.0189 31.7758 26.4915 30.3805 26.4915C29.2737 26.4915 28.3356 26.2144 27.5664 25.6603C26.7972 25.1061 26.2338 24.3447 25.8762 23.3761C25.2587 24.3127 24.5249 25.0661 23.6748 25.6362C22.8248 26.2064 21.711 26.4915 20.3335 26.4915C18.5265 26.4915 16.9918 25.8613 15.7293 24.601C14.4669 23.3406 13.8356 21.8034 13.8356 19.9893C13.8356 18.1752 14.4669 16.6394 15.7293 15.382C16.9918 14.1245 18.5265 13.4957 20.3335 13.4957C22.1405 13.4957 23.6752 14.1245 24.9377 15.382C26.2001 16.6394 26.8314 18.1796 26.8314 20.0026V21.5727C26.8314 22.5506 27.1765 23.3798 27.8666 24.0604C28.5568 24.7409 29.3983 25.0812 30.3912 25.0812C31.3656 25.0812 32.1978 24.7409 32.888 24.0604C33.5782 23.3798 33.9232 22.5506 33.9232 21.5727V20C33.9232 16.2714 32.5905 13.0742 29.9249 10.4086C27.2593 7.74304 24.0621 6.41025 20.3335 6.41025C16.6049 6.41025 13.4077 7.74304 10.7422 10.4086C8.07655 13.0742 6.74375 16.2714 6.74375 20C6.74375 23.7286 8.07655 26.9258 10.7422 29.5913C13.4077 32.2569 16.6049 33.5898 20.3335 33.5898H28.1369C28.3424 33.5898 28.5113 33.6559 28.6436 33.7883C28.7759 33.9207 28.842 34.0897 28.842 34.2952C28.842 34.5008 28.7759 34.6697 28.6436 34.8018C28.5113 34.9339 28.3424 35 28.1369 35H20.3335ZM20.3347 25.0812C21.7499 25.0812 22.9514 24.5895 23.9393 23.6061C24.9272 22.6227 25.4211 21.4207 25.4211 20C25.4211 18.5726 24.9267 17.3668 23.938 16.3825C22.9493 15.3982 21.7474 14.906 20.3322 14.906C18.9171 14.906 17.7156 15.3989 16.7277 16.3847C15.7398 17.3705 15.2459 18.5781 15.2459 20.0075C15.2459 21.4185 15.7402 22.6168 16.729 23.6026C17.7177 24.5883 18.9196 25.0812 20.3347 25.0812Z" fill="white"/>
</g>
</svg>
