<svg width="40" height="40" viewBox="0 0 40 40" fill="none" xmlns="http://www.w3.org/2000/svg">
<mask id="mask0_68_1545" style="mask-type:alpha" maskUnits="userSpaceOnUse" x="0" y="0" width="40" height="40">
<rect width="40" height="40" fill="#D9D9D9"/>
</mask>
<g mask="url(#mask0_68_1545)">
<path d="M31.4783 33.1411C28.6372 33.1411 25.7474 32.3888 22.809 30.8842C19.8706 29.3795 17.2104 27.4397 14.8283 25.0647C12.4461 22.6897 10.501 20.0384 8.99276 17.1107C7.48457 14.1829 6.73047 11.2985 6.73047 8.45733C6.73047 7.94575 6.90101 7.51942 7.24209 7.17833C7.58315 6.83728 8.00948 6.66675 8.52109 6.66675H12.3523C12.825 6.66675 13.2295 6.80885 13.5658 7.09304C13.9021 7.37721 14.1215 7.75718 14.2241 8.23296L15.0788 12.0321C15.1557 12.4638 15.1452 12.8553 15.0473 13.2068C14.9493 13.5583 14.7645 13.8486 14.4927 14.0777L10.8234 17.5321C12.4061 20.1774 14.1651 22.4556 16.1007 24.3665C18.0362 26.2775 20.2989 27.9474 22.8886 29.3762L26.4484 25.6689C26.7312 25.3676 27.0387 25.1616 27.371 25.0508C27.7032 24.9401 28.0617 24.9253 28.4463 25.0065L31.7027 25.7116C32.18 25.809 32.5604 26.0307 32.8438 26.3765C33.1272 26.7224 33.269 27.1425 33.269 27.6368V31.3505C33.269 31.8621 33.0984 32.2884 32.7573 32.6295C32.4163 32.9706 31.99 33.1411 31.4783 33.1411ZM10.1033 16.2522L13.5051 13.1005C13.5976 13.015 13.66 12.8975 13.692 12.748C13.7241 12.5984 13.7258 12.4595 13.6973 12.3313L12.8758 8.58983C12.8473 8.41889 12.7761 8.29068 12.6621 8.20521C12.5481 8.11973 12.4057 8.077 12.2348 8.077H8.59264C8.46444 8.077 8.35761 8.11973 8.27214 8.20521C8.18666 8.29068 8.14393 8.39751 8.14393 8.52571C8.12612 9.64182 8.29315 10.8512 8.64501 12.1539C8.99687 13.4566 9.48298 14.8227 10.1033 16.2522ZM31.41 31.7458C31.5382 31.7458 31.645 31.7031 31.7305 31.6176C31.816 31.5322 31.8587 31.4253 31.8587 31.2971V27.701C31.8587 27.53 31.816 27.3876 31.7305 27.2736C31.645 27.1596 31.5168 27.0884 31.3459 27.0599L28.1408 26.3943C28.0125 26.3658 27.9004 26.3676 27.8042 26.3997C27.7081 26.4317 27.6066 26.494 27.4997 26.5866L24.2145 30.0044C25.3491 30.5848 26.5875 31.0165 27.9298 31.2992C29.272 31.582 30.4321 31.7309 31.41 31.7458Z" fill="#1C1B1F"/>
</g>
</svg>
