<svg width="41" height="40" viewBox="0 0 41 40" fill="none" xmlns="http://www.w3.org/2000/svg">
<mask id="mask0_2011_2959" style="mask-type:alpha" maskUnits="userSpaceOnUse" x="0" y="0" width="41" height="40">
<rect x="0.666504" width="40" height="40" fill="#D9D9D9"/>
</mask>
<g mask="url(#mask0_2011_2959)">
<path d="M32.1453 33.1411C29.3042 33.1411 26.4144 32.3888 23.476 30.8842C20.5376 29.3795 17.8774 27.4397 15.4953 25.0647C13.1131 22.6897 11.1679 20.0384 9.65975 17.1107C8.15156 14.1829 7.39746 11.2985 7.39746 8.45733C7.39746 7.94575 7.568 7.51942 7.90909 7.17833C8.25014 6.83728 8.67648 6.66675 9.18809 6.66675H13.0193C13.492 6.66675 13.8965 6.80885 14.2328 7.09304C14.5691 7.37721 14.7885 7.75718 14.891 8.23296L15.7458 12.0321C15.8227 12.4638 15.8122 12.8553 15.7143 13.2068C15.6163 13.5583 15.4314 13.8486 15.1597 14.0777L11.4904 17.5321C13.0731 20.1774 14.8321 22.4556 16.7677 24.3665C18.7032 26.2775 20.9659 27.9474 23.5556 29.3762L27.1154 25.6689C27.3982 25.3676 27.7057 25.1616 28.038 25.0508C28.3702 24.9401 28.7287 24.9253 29.1133 25.0065L32.3697 25.7116C32.847 25.809 33.2274 26.0307 33.5108 26.3765C33.7942 26.7224 33.936 27.1425 33.936 27.6368V31.3505C33.936 31.8621 33.7654 32.2884 33.4243 32.6295C33.0833 32.9706 32.6569 33.1411 32.1453 33.1411ZM10.7703 16.2522L14.172 13.1005C14.2646 13.015 14.3269 12.8975 14.359 12.748C14.3911 12.5984 14.3928 12.4595 14.3643 12.3313L13.5428 8.58983C13.5143 8.41889 13.4431 8.29068 13.3291 8.20521C13.2151 8.11973 13.0727 8.077 12.9018 8.077H9.25963C9.13143 8.077 9.0246 8.11973 8.93913 8.20521C8.85366 8.29068 8.81092 8.39751 8.81092 8.52571C8.79311 9.64182 8.96014 10.8512 9.312 12.1539C9.66386 13.4566 10.15 14.8227 10.7703 16.2522ZM32.077 31.7458C32.2052 31.7458 32.312 31.7031 32.3975 31.6176C32.483 31.5322 32.5257 31.4253 32.5257 31.2971V27.701C32.5257 27.53 32.483 27.3876 32.3975 27.2736C32.312 27.1596 32.1838 27.0884 32.0129 27.0599L28.8078 26.3943C28.6795 26.3658 28.5673 26.3676 28.4712 26.3997C28.375 26.4317 28.2735 26.494 28.1667 26.5866L24.8815 30.0044C26.0161 30.5848 27.2545 31.0165 28.5968 31.2992C29.939 31.582 31.099 31.7309 32.077 31.7458Z" fill="white"/>
</g>
</svg>
